<svg width="3275" height="857" viewBox="0 0 3275 857" fill="none" xmlns="http://www.w3.org/2000/svg">
<path d="M3273 124.107C3212.5 313.506 2993.3 665.573 2600.5 558.655C2109.5 425.008 2119.5 -43.1474 1719.5 124.107C1399.5 257.911 1232.5 277.134 1115 366.232" stroke="#FFF6F4" stroke-width="4"/>
<path d="M1792 31.5713L1783.54 -9.98954e-05L1815.12 8.45942L1792 31.5713Z" fill="#FFC56D"/>
<path d="M1146.16 553.584L1110.13 589.616L1096.94 540.396L1146.16 553.584Z" stroke="#9CFF6D"/>
<path d="M1.99992 722.58C66.7474 533.182 301.337 181.114 721.713 288.032C1247.18 421.679 1236.48 889.834 1664.56 722.58C2007.03 588.777 2230.25 483.553 2356 394.456" stroke="#FFF6F4" stroke-width="4"/>
<path d="M1483 815.116L1491.45 846.687L1459.88 838.228L1483 815.116Z" fill="#FFC56D"/>
<path d="M2128.84 293.103L2164.87 257.071L2178.06 306.292L2128.84 293.103Z" stroke="#9CFF6D"/>
<circle cx="565" cy="268.232" r="12" fill="#FFCECE"/>
<path d="M562 419.232C558.837 419.232 555.803 420.48 553.556 422.706C551.308 424.931 550.031 427.954 550.001 431.117C549.97 434.279 551.19 437.326 553.394 439.594C555.597 441.862 558.608 443.169 561.77 443.229L562 431.232L562 419.232Z" fill="#FEFFCE"/>
</svg>
