<svg width="3275" height="867" viewBox="0 0 3275 867" fill="none" xmlns="http://www.w3.org/2000/svg">
<path d="M3273 133.875C3212.5 323.274 2993.3 675.341 2600.5 568.423C2109.5 434.776 2119.5 -33.3792 1719.5 133.875C1399.5 267.679 449.5 641.902 332 731" stroke="#FFF6F4" stroke-width="4"/>
<path d="M1792 41.3395L1783.55 9.76816L1815.12 18.2277L1792 41.3395Z" fill="#FFC56D"/>
<path d="M1.99992 732.348C62.5 542.95 281.7 190.883 674.5 297.8C1165.5 431.447 1155.5 899.603 1555.5 732.349C1875.5 598.545 2328.5 409.5 2381.5 280" stroke="#FFF6F4" stroke-width="4"/>
<path d="M1483 824.884L1491.45 856.456L1459.88 847.996L1483 824.884Z" fill="#FFC56D"/>
<path d="M2109.84 339.871L2145.87 303.839L2159.06 353.06L2109.84 339.871Z" stroke="#9CFF6D"/>
<circle cx="565" cy="278" r="12" fill="#FFCECE"/>
<path d="M562 429C558.837 429 555.803 430.248 553.556 432.474C551.308 434.699 550.031 437.722 550.001 440.884C549.97 444.047 551.19 447.094 553.394 449.362C555.597 451.63 558.608 452.937 561.77 452.997L562 441L562 429Z" fill="#FEFFCE"/>
</svg>
