<svg width="96" height="96" viewBox="0 0 96 96" fill="none" xmlns="http://www.w3.org/2000/svg">
<circle cx="48" cy="48" r="48" fill="#D7DBFF"/>
<path d="M29.3912 42.3094C28.1209 41.0562 28.1997 39.773 29.3912 38.7921L46.7074 28.6738C47.9427 27.7754 48.9729 27.7754 50.1694 28.6738L67.4856 38.7921C68.8721 40.0066 68.7159 41.2898 67.4856 42.3094L50.1694 52.429C49.1629 53.1612 47.9427 53.2537 46.7074 52.429L29.3912 42.3094ZM50.3832 57.3657C49.2504 58.1717 47.8739 58.2741 46.4873 57.3657L28.6785 47.1937C28.2922 47.9996 28.4835 48.9067 29.3912 49.8038L46.7074 59.9222C47.9427 60.7468 49.1629 60.6544 50.1694 59.9222L67.4856 49.8038C68.4183 49.0329 68.7309 48.1058 68.2233 47.1737L50.3832 57.3657ZM50.3832 64.8602C49.2504 65.6648 47.8739 65.7673 46.4873 64.8602L28.6785 54.6868C28.2922 55.4928 28.4835 56.3986 29.3912 57.297L46.7074 67.4166C47.9427 68.24 49.1629 68.1475 50.1694 67.4166L67.4856 57.297C68.4183 56.5261 68.7309 55.6002 68.2233 54.6681L50.3832 64.8602Z" fill="#7E89EB"/>
</svg>
