<svg width="96" height="96" viewBox="0 0 96 96" fill="none" xmlns="http://www.w3.org/2000/svg">
<circle cx="48" cy="48" r="48" fill="#E8FCFE"/>
<path d="M35.7645 31.8315C33.6297 31.8315 31.8935 33.5677 31.8935 35.7025C31.8935 37.8373 33.6297 39.5735 35.7645 39.5735C37.8993 39.5735 39.6355 37.8373 39.6355 35.7025C39.6355 33.5677 37.8993 31.8315 35.7645 31.8315ZM35.7645 38.2832C34.3413 38.2832 33.1838 37.1257 33.1838 35.7025C33.1838 34.2793 34.3413 33.1219 35.7645 33.1219C37.1877 33.1219 38.3451 34.2793 38.3451 35.7025C38.3451 37.1257 37.1877 38.2832 35.7645 38.2832Z" fill="#84D7DE"/>
<path d="M64.585 58.7165L63.6727 57.8042L58.9676 62.5094L58.1334 61.6752L57.2211 62.5874L58.9676 64.3339L64.585 58.7165Z" fill="#84D7DE"/>
<path d="M51.2257 35.0344H49.9354V36.3247H51.2257V35.0344Z" fill="#84D7DE"/>
<path d="M58.9676 35.0344H57.6772V36.3247H58.9676V35.0344Z" fill="#84D7DE"/>
<path d="M56.3871 35.0344H55.0967V36.3247H56.3871V35.0344Z" fill="#84D7DE"/>
<path d="M53.8066 35.0344H52.5162V36.3247H53.8066V35.0344Z" fill="#84D7DE"/>
<path d="M42.8387 51.1637H53.1613C54.2284 51.1637 55.0968 50.2953 55.0968 49.2282V48.583H63.4839C65.9735 48.583 68 46.5572 68 44.0669V39.5508C68 37.0604 65.9735 35.0346 63.4839 35.0346H61.5484V34.3895C61.5484 33.3224 60.68 32.454 59.6129 32.454H49.2903C48.2232 32.454 47.3548 33.3224 47.3548 34.3895V35.0346H43.5065V33.9198L41.8129 33.4572C41.7574 33.3088 41.6955 33.1611 41.6284 33.0153L42.5 31.4888L39.9787 28.9675L38.4529 29.8385C38.3065 29.7714 38.1594 29.7095 38.011 29.654L37.5477 27.9604H33.9819L33.5187 29.654C33.3703 29.7095 33.2232 29.7708 33.0774 29.8385L31.551 28.9675L29.0297 31.4888L29.9006 33.0153C29.8335 33.1611 29.7716 33.3088 29.7161 33.4572L28.0226 33.9198V37.485L29.7161 37.9482C29.7716 38.0966 29.8335 38.2443 29.9006 38.3901L29.029 39.9166L31.5503 42.4372L33.0768 41.5663C33.2226 41.6334 33.3697 41.6953 33.5181 41.7508L33.9813 43.4443H37.5471L38.0103 41.7508C38.1581 41.6953 38.3058 41.6334 38.4523 41.5663L39.9781 42.4366L42.4994 39.9159L41.6277 38.3895C41.6948 38.2437 41.7568 38.0959 41.8123 37.9475L43.5058 37.4843V36.325H47.3548V36.9701C47.3548 38.0372 48.2232 38.9056 49.2903 38.9056H59.6129C60.68 38.9056 61.5484 38.0372 61.5484 36.9701V36.325H63.4839C65.2626 36.325 66.7097 37.7721 66.7097 39.5508V44.0669C66.7097 45.8456 65.2626 47.2927 63.4839 47.2927H55.0968V46.6475C55.0968 45.5805 54.2284 44.7121 53.1613 44.7121H42.8387C41.7716 44.7121 40.9032 45.5805 40.9032 46.6475V47.2927H32.5161C30.0265 47.2927 28 49.3192 28 51.8088V56.9701C28 59.4598 30.0265 61.4863 32.5161 61.4863H34.4516V62.1314C34.4516 63.1985 35.32 64.0669 36.3871 64.0669H46.7097C47.7768 64.0669 48.6452 63.1985 48.6452 62.1314V61.4863H53.8394C54.1665 65.0979 57.2077 67.9379 60.9032 67.9379C64.8161 67.9379 68 64.754 68 60.8411C68 56.9282 64.8161 53.7443 60.9032 53.7443C57.2077 53.7443 54.1665 56.5843 53.8394 60.1959H48.6452V59.5508C48.6452 58.4837 47.7768 57.6153 46.7097 57.6153H36.3871C35.32 57.6153 34.4516 58.4837 34.4516 59.5508V60.1959H32.5161C30.7374 60.1959 29.2903 58.7488 29.2903 56.9701V51.8088C29.2903 50.0301 30.7374 48.583 32.5161 48.583H40.9032V49.2282C40.9032 50.2953 41.7716 51.1637 42.8387 51.1637ZM42.2161 36.5005L40.8013 36.8875L40.6974 37.2263C40.6045 37.525 40.4806 37.8224 40.3284 38.1101L40.1619 38.4237L40.891 39.7004L39.7632 40.8288L38.4858 40.1004L38.1729 40.2663C37.8858 40.4185 37.5884 40.5424 37.289 40.6346L36.951 40.7392L36.5632 42.154H34.9677L34.58 40.7392L34.2419 40.6346C33.9439 40.5424 33.6465 40.4192 33.3581 40.2663L33.0445 40.1004L31.7677 40.8288L30.6387 39.7004L31.3677 38.4237L31.2013 38.1101C31.049 37.8224 30.9245 37.525 30.8323 37.2263L30.7284 36.8875L29.3135 36.5005V34.9043L30.7284 34.5179L30.8329 34.1792C30.9252 33.8804 31.049 33.583 31.2013 33.2959L31.3677 32.9817L30.6387 31.705L31.7665 30.5766L33.0432 31.305L33.3568 31.1392C33.6465 30.9863 33.9439 30.8617 34.2406 30.7701L34.5787 30.6656L34.9665 29.2508H36.5619L36.9497 30.6656L37.2877 30.7701C37.5858 30.8624 37.8832 30.9863 38.1716 31.1392L38.4845 31.305L39.7619 30.5766L40.8897 31.705L40.1606 32.9817L40.3271 33.2953C40.4794 33.5824 40.6039 33.8798 40.6955 34.1785L40.8 34.5172L42.2148 34.9037V36.5005H42.2161ZM60.2581 36.9701C60.2581 37.3256 59.969 37.6153 59.6129 37.6153H49.2903C48.9342 37.6153 48.6452 37.3256 48.6452 36.9701V34.3895C48.6452 34.034 48.9342 33.7443 49.2903 33.7443H59.6129C59.969 33.7443 60.2581 34.034 60.2581 34.3895V36.9701ZM60.9032 55.0346C64.1052 55.0346 66.7097 57.6392 66.7097 60.8411C66.7097 64.043 64.1052 66.6475 60.9032 66.6475C57.7013 66.6475 55.0968 64.043 55.0968 60.8411C55.0968 57.6392 57.7013 55.0346 60.9032 55.0346ZM35.7419 59.5508C35.7419 59.1946 36.031 58.9056 36.3871 58.9056H46.7097C47.0658 58.9056 47.3548 59.1946 47.3548 59.5508V62.1314C47.3548 62.4875 47.0658 62.7766 46.7097 62.7766H36.3871C36.031 62.7766 35.7419 62.4875 35.7419 62.1314V59.5508ZM42.1935 46.6475C42.1935 46.2921 42.4826 46.0024 42.8387 46.0024H53.1613C53.5174 46.0024 53.8064 46.2921 53.8064 46.6475V49.2282C53.8064 49.5843 53.5174 49.8734 53.1613 49.8734H42.8387C42.4826 49.8734 42.1935 49.5843 42.1935 49.2282V46.6475Z" fill="#84D7DE"/>
<path d="M49.9354 47.2925H48.6451V48.5828H49.9354V47.2925Z" fill="#84D7DE"/>
<path d="M47.355 47.2925H46.0646V48.5828H47.355V47.2925Z" fill="#84D7DE"/>
<path d="M44.7741 47.2925H43.4837V48.5828H44.7741V47.2925Z" fill="#84D7DE"/>
<path d="M52.5159 47.2925H51.2256V48.5828H52.5159V47.2925Z" fill="#84D7DE"/>
<path d="M40.9033 60.1958H39.613V61.4861H40.9033V60.1958Z" fill="#84D7DE"/>
<path d="M46.0647 60.1958H44.7744V61.4861H46.0647V60.1958Z" fill="#84D7DE"/>
<path d="M43.4838 60.1958H42.1935V61.4861H43.4838V60.1958Z" fill="#84D7DE"/>
<path d="M38.3225 60.1958H37.0321V61.4861H38.3225V60.1958Z" fill="#84D7DE"/>
</svg>
