<svg width="520" height="449" viewBox="0 0 520 449" fill="none" xmlns="http://www.w3.org/2000/svg">
<g clip-path="url(#clip0)">
<path d="M405.866 88.9828C448.162 138.038 480.844 189.941 484.009 244.909C487.068 299.877 460.512 358.021 418.216 396.893C376.03 435.765 317.996 455.367 268.271 447.153C218.652 438.831 177.122 402.696 124.442 363.824C71.8713 324.953 8.0464 283.343 10.0131 243.814C11.8711 204.175 79.5223 166.507 132.201 117.343C184.879 68.2876 222.476 7.84418 267.176 0.726779C311.875 -6.39063 363.68 39.927 405.866 88.9828Z" fill="url(#paint0_linear)"/>
<path d="M56.0508 174.687L85.9897 142.277L115.929 109.868L128.973 152.05L142.019 194.235L99.032 184.463L56.0508 174.687Z" stroke="#B2C3FB" stroke-width="1.05703" stroke-linecap="round" stroke-linejoin="round"/>
<path d="M444.958 105.423L428.207 166.541L483.283 155.847L444.958 105.423Z" stroke="#EAF0FF" stroke-width="1.05703" stroke-linecap="round" stroke-linejoin="round"/>
<path d="M97.2852 110.435H237.507V257.412H97.2852V110.435Z" fill="#D7E0FF"/>
<path opacity="0.67" d="M148.438 93.6072H421.262V290.597H148.438V93.6072Z" fill="#EAF0FF"/>
<path d="M319.238 145.189C319.238 125.798 334.929 110.079 354.282 110.079C373.636 110.079 389.327 125.798 389.327 145.189C389.327 164.58 373.637 180.3 354.282 180.3C334.928 180.3 319.238 164.58 319.238 145.189Z" fill="#D7E0FF"/>
<path d="M257.738 318.531C257.738 298.734 273.757 282.685 293.517 282.685C313.277 282.685 329.295 298.734 329.295 318.531C329.295 338.329 313.277 354.377 293.518 354.377C273.759 354.377 257.738 338.329 257.738 318.531Z" stroke="#EAF0FF" stroke-width="1.05703" stroke-linecap="round" stroke-linejoin="round"/>
<path d="M368.087 77.7806V104.954H368.257V133.962L348.027 112.292H289.859V77.7806H368.087Z" fill="white"/>
<path d="M191.018 124.223V151.396H190.848V180.404L211.078 158.735H269.247V124.223H191.018Z" fill="white"/>
<path d="M405.527 193.48C405.527 212.914 413.958 216.438 413.958 219.963C413.958 223.487 410.135 242.817 409.044 245.357C411.89 249.347 431.959 251.421 435.787 250.384C436.097 246.601 440.908 221.983 441.995 220.325C443.082 218.667 455.237 208.92 455.237 200.839C455.237 182.752 454.048 158.706 442.047 158.706C427.459 158.705 405.527 165.806 405.527 193.48Z" fill="white"/>
<path d="M466.082 251.304C456.698 251.537 436.422 255.18 436.422 255.18C436.305 265.104 439.006 370.296 439.414 386.121H497.321L517.835 266.766C517.835 264.735 517.436 262.725 516.66 260.849C515.885 258.973 514.748 257.268 513.315 255.832C511.882 254.397 510.181 253.258 508.308 252.481C506.436 251.704 504.429 251.304 502.403 251.304C502.403 251.304 477.479 251.666 467.802 251.304C467.282 251.287 466.707 251.288 466.082 251.304Z" fill="#3C3744"/>
<path d="M161.671 340.671C164.974 338.847 196.887 315.185 198.632 312.971C200.377 310.758 206.641 298.114 207.167 297.29C207.694 296.465 211.045 294.923 211.464 295.278C214.034 297.465 209.914 304.909 209.425 306.047C211.818 303.859 226.958 291.998 228.814 292.581C242.152 296.776 237.161 314.61 228.778 318.955C226.484 320.147 213.925 324.949 212.722 326.001C211.518 327.053 158.69 371.119 157.507 371.964C156.847 368.926 158.363 342.492 161.671 340.671Z" fill="white"/>
<path d="M352.911 278.847C350.638 282.219 344.888 290.63 342.614 293.913C318.155 261.67 292.83 242.999 286.183 211.18C279.747 207.076 280.116 221.721 284.951 232.684C277.403 237.522 270.254 242.374 272.45 245.962C280.86 259.68 283.391 255.364 286.533 255.646C289.674 255.929 314.842 307.618 322.093 315.748C327.437 321.741 331.589 328.748 348.106 335.868C349.882 320.722 361.014 284.861 363.286 282.138C361.245 280.674 355.185 275.476 352.911 278.847Z" fill="white"/>
<path d="M361.03 285.786C353.456 279.998 348.336 275.442 348.202 273.303C347.881 268.245 378.142 225.138 398.733 238.808C407.469 245.168 376.01 296.98 361.03 285.786Z" fill="#FE8A71"/>
<path d="M377.66 236.801C384.295 233.504 391.103 232.677 397.092 236.653" stroke="#1B3C87" stroke-width="2.64259" stroke-linecap="round" stroke-linejoin="round"/>
<path d="M359.393 283.63C351.706 277.997 346.699 273.287 346.565 271.148C346.427 268.961 352.002 259.657 360.046 250.914" stroke="#1B3C87" stroke-width="2.64259" stroke-linecap="round" stroke-linejoin="round"/>
<path d="M417.913 235.409C357.358 235.963 345.276 340.151 342.473 386.121H457.111C471.576 341.026 482.271 244.815 427.424 236.132C424.279 235.629 421.098 235.387 417.913 235.409Z" fill="#FE8A71"/>
<path d="M18.682 248.234C16.6554 248.234 14.6486 248.634 12.7763 249.411C10.9039 250.188 9.20265 251.327 7.76964 252.763C6.33663 254.199 5.19993 255.903 4.42445 257.779C3.64897 259.655 3.24989 261.666 3.25 263.696C3.25 263.696 14.351 353.749 18.3983 386.575H101.84C101.832 381.279 101.67 269.58 100.816 248.234H18.682Z" fill="#3C3744"/>
<path d="M121.94 244.538C66.4212 244.538 55.4501 341.556 57.066 386.573H158.824C167.883 341.996 169.386 244.538 121.94 244.538Z" fill="#FE8A71"/>
<path d="M159.924 315.195C161.299 341.496 158.512 368.88 154.582 386.383" stroke="#1B3C87" stroke-width="2.64259" stroke-linecap="round" stroke-linejoin="round"/>
<path d="M132.41 244.528C142.295 249.798 149.03 260.806 153.399 274.704" stroke="#1B3C87" stroke-width="2.64259" stroke-linecap="round" stroke-linejoin="round"/>
<path d="M88.0977 253.884C92.4864 249.543 97.379 246.09 102.823 243.773" stroke="#1B3C87" stroke-width="2.64259" stroke-linecap="round" stroke-linejoin="round"/>
<path d="M160.598 337.893C164.327 335.926 193.85 314.06 196.594 311.159C199.338 308.257 203.9 296.365 205.896 294.606C207.891 292.847 209.22 291.882 210.408 293.194C211.595 294.506 209.51 301.086 206.924 304.539C211.797 299.471 223.262 291.431 227.314 290.022" stroke="#1B3C87" stroke-width="2.64259" stroke-linecap="round" stroke-linejoin="round"/>
<path d="M179.191 350.654C168.792 359.631 159.381 367.816 157.727 369.301" stroke="#1B3C87" stroke-width="2.64259" stroke-linecap="round" stroke-linejoin="round"/>
<path d="M227.476 315.998C222.929 318.319 213.954 321.706 209.805 324.673C208.621 325.52 204.177 329.242 198.344 334.206" stroke="#1B3C87" stroke-width="2.64259" stroke-linecap="round" stroke-linejoin="round"/>
<path d="M213.348 305.481C214.763 304.307 219.15 301.166 223.522 298.332C227.582 295.693 231.629 293.325 233.269 293.037" stroke="#1B3C87" stroke-width="2.64259" stroke-linecap="round" stroke-linejoin="round"/>
<path d="M216.871 309.586C218.286 308.412 222.674 305.27 227.045 302.436C231.105 299.801 235.153 297.43 236.792 297.142" stroke="#1B3C87" stroke-width="2.64259" stroke-linecap="round" stroke-linejoin="round"/>
<path d="M218.57 315.138C219.828 314.079 223.723 311.246 227.604 308.688C231.209 306.313 234.802 304.177 236.258 303.914" stroke="#1B3C87" stroke-width="2.64259" stroke-linecap="round" stroke-linejoin="round"/>
<path d="M442.016 220.015C440.912 223.173 435.938 246.534 435.57 250.218C430.897 251.903 411.675 249.106 409.258 245.421C411.622 238.473 414.135 224.688 413.924 218.897" fill="white"/>
<path d="M407.812 243.324C410.177 236.376 412.69 222.59 412.479 216.801" stroke="#1B3C87" stroke-width="2.64259" stroke-linecap="round" stroke-linejoin="round"/>
<path d="M440.571 217.917C439.467 221.076 434.493 244.436 434.125 248.121C431.854 248.939 426.155 248.7 420.617 247.816" stroke="#1B3C87" stroke-width="2.64259" stroke-linecap="round" stroke-linejoin="round"/>
<path d="M406.066 179.38C407.551 174.938 409.754 170.595 412.006 167.313" stroke="#1B3C87" stroke-width="2.64259" stroke-linecap="round" stroke-linejoin="round"/>
<path d="M430.247 222.45C427.714 222.961 425.144 222.978 422.614 222.436C410.77 219.899 403.23 206.669 403.901 191.257" stroke="#1B3C87" stroke-width="2.64259" stroke-linecap="round" stroke-linejoin="round"/>
<path d="M436.613 236.603C478.983 257.031 468.093 346.053 454.307 386.348" stroke="#1B3C87" stroke-width="2.64259" stroke-linecap="round" stroke-linejoin="round"/>
<path d="M350.398 314.534C359.683 275.691 377.149 237.91 409.992 232.848" stroke="#1B3C87" stroke-width="2.64259" stroke-linecap="round" stroke-linejoin="round"/>
<path d="M340.477 386.389C340.992 377.13 341.943 365.015 343.691 351.641" stroke="#1B3C87" stroke-width="2.64259" stroke-linecap="round" stroke-linejoin="round"/>
<path d="M449.114 346.887C449.879 358.207 450.711 368.661 451.35 371.782C447.971 375.899 440.113 386.355 440.113 386.355" stroke="#1B3C87" stroke-width="2.64259" stroke-linecap="round" stroke-linejoin="round"/>
<path d="M446.988 312.329C447.085 313.748 447.367 318.724 447.753 325.256" stroke="#1B3C87" stroke-width="2.64259" stroke-linecap="round" stroke-linejoin="round"/>
<path d="M350.793 276.836C349.66 278.498 340.695 291.844 340.695 291.844C340.695 291.844 300.597 244.306 297.878 240.58C289.749 229.452 285.873 215.861 285.427 212.875C285.002 210.054 283.643 206.725 281.287 208.286C277.568 211.095 279.999 225.46 282.855 230.368" stroke="#1B3C87" stroke-width="2.64259" stroke-linecap="round" stroke-linejoin="round"/>
<path d="M278.207 232.011C278.304 234.488 280.576 242.102 284.239 245.556" stroke="#1B3C87" stroke-width="2.64259" stroke-linecap="round" stroke-linejoin="round"/>
<path d="M273.852 236.414C274.191 238.869 277.204 246.221 281.192 249.296" stroke="#1B3C87" stroke-width="2.64259" stroke-linecap="round" stroke-linejoin="round"/>
<path d="M269.531 240.922C270.019 243.352 273.467 250.508 277.633 253.338" stroke="#1B3C87" stroke-width="2.64259" stroke-linecap="round" stroke-linejoin="round"/>
<path d="M310.272 298.985C301.968 284.213 294.922 267.753 286.297 255.706" stroke="#1B3C87" stroke-width="2.64259" stroke-linecap="round" stroke-linejoin="round"/>
<path d="M346.414 333.578C338.738 331.727 332.282 327.535 326.633 321.882" stroke="#1B3C87" stroke-width="2.64259" stroke-linecap="round" stroke-linejoin="round"/>
<path d="M410.547 182.372C411.158 179.467 413.35 177.47 415.446 177.912C417.542 178.354 418.745 181.066 418.135 183.972" stroke="#1B3C87" stroke-width="2.64259" stroke-linecap="round" stroke-linejoin="round"/>
<path d="M430.617 187.037C431.227 184.132 433.421 182.136 435.517 182.577C437.612 183.019 438.815 185.732 438.205 188.638" stroke="#1B3C87" stroke-width="2.64259" stroke-linecap="round" stroke-linejoin="round"/>
<path d="M421.733 188.296C420.488 190.021 417.23 193.868 415.695 194.611" stroke="#1B3C87" stroke-width="2.64259" stroke-linecap="round" stroke-linejoin="round"/>
<path d="M422.582 200.533C424.366 200.893 428.25 201.147 432.182 200.402C432.992 203.289 432.182 209.58 424.855 210.632" stroke="#1B3C87" stroke-width="2.64259" stroke-linecap="round" stroke-linejoin="round"/>
<path d="M51.9336 245.825H98.6316" stroke="#1B3C87" stroke-width="2.64259" stroke-linecap="round" stroke-linejoin="round"/>
<path d="M16.4818 386.359L1.0625 261.287C1.0625 259.256 1.46171 257.245 2.23734 255.369C3.01297 253.493 4.14982 251.789 5.58299 250.353C7.01616 248.917 8.71757 247.778 10.5901 247.001C12.4626 246.224 14.4695 245.824 16.4962 245.825H22.3106" stroke="#1B3C87" stroke-width="2.64259" stroke-linecap="round" stroke-linejoin="round"/>
<path d="M497.2 249.397H464.898" stroke="#1B3C87" stroke-width="2.64259" stroke-linecap="round" stroke-linejoin="round"/>
<path d="M493.906 386.383L512.23 280.574" stroke="#1B3C87" stroke-width="2.64259" stroke-linecap="round" stroke-linejoin="round"/>
<path d="M187.746 166.572L187.73 176.693L208.621 155.31H266.21V120.76H257.952" stroke="#1B3C87" stroke-width="2.64259" stroke-linecap="round" stroke-linejoin="round"/>
<path d="M239.797 120.76H187.762V149.507" stroke="#1B3C87" stroke-width="2.64259" stroke-linecap="round" stroke-linejoin="round"/>
<path d="M196.871 131.226H253.817" stroke="#1B3C87" stroke-width="2.64259" stroke-linecap="round" stroke-linejoin="round"/>
<path d="M196.871 144.709H216.751" stroke="#1B3C87" stroke-width="2.64259" stroke-linecap="round" stroke-linejoin="round"/>
<path d="M353.823 74.6007H364.671V109.152L364.702 130.535L343.814 109.152H286.223V104.504" stroke="#1B3C87" stroke-width="2.64259" stroke-linecap="round" stroke-linejoin="round"/>
<path d="M286.223 91.1507V74.6007H329.646" stroke="#1B3C87" stroke-width="2.64259" stroke-linecap="round" stroke-linejoin="round"/>
<path d="M355.56 85.0666H298.617" stroke="#1B3C87" stroke-width="2.64259" stroke-linecap="round" stroke-linejoin="round"/>
<path d="M318.856 98.5498H298.977" stroke="#1B3C87" stroke-width="2.64259" stroke-linecap="round" stroke-linejoin="round"/>
<path d="M42.6017 305.065L42.6603 305.217C40.6375 309.759 22.5099 361.177 23.3068 365.438C24.1079 369.727 28.3565 377.287 31.4811 379.035C32.9092 379.836 47.213 382.905 64.2737 386.575H167.165C165.063 381.213 156.28 376.791 148.153 376.775C145.396 376.684 141.083 376.872 137.951 380.459C106.953 366.126 72.2305 357.933 62.1362 355.3L61.0318 352.435C64.3884 346.003 74.5073 327.389 75.9201 324.49C70.5425 321.752 42.9721 305.287 42.7325 305.141L42.7147 305.09C42.7147 305.096 42.7036 305.114 42.7011 305.12L42.6017 305.065Z" fill="white"/>
<path d="M27.0617 343.682C24.0034 353.337 21.7546 361.287 22.0494 362.854C22.8505 367.142 27.0966 374.699 30.2212 376.449C31.9492 377.416 52.1905 381.734 73.781 386.408" stroke="#1B3C87" stroke-width="2.64259" stroke-linecap="round" stroke-linejoin="round"/>
<path d="M41.305 302.484C40.5082 304.216 36.6257 315.005 32.5547 327.016" stroke="#1B3C87" stroke-width="2.64259" stroke-linecap="round" stroke-linejoin="round"/>
<path d="M74.9112 321.733C72.8188 325.146 59.2252 350.874 58.8828 351.949C65.3105 353.831 103.492 362.236 136.945 377.706C140.078 374.118 144.39 373.93 147.147 374.022C156.529 374.04 166.631 378.902 166.631 386.364" stroke="#1B3C87" stroke-width="2.64259" stroke-linecap="round" stroke-linejoin="round"/>
<path d="M90.0327 258.963C113.172 272.518 88.9215 324.086 82.6603 325.726C70.3563 326.577 42.0222 308.78 39.2951 301.575C36.5681 294.371 67.2011 245.586 90.0327 258.963Z" fill="#FE8A71"/>
<path d="M97.0017 288.859C93.556 305.344 84.6646 321.362 81.2188 322.265C68.9148 323.117 40.5807 305.318 37.8536 298.113C36.8546 295.474 40.3352 287.248 46.2701 278.546" stroke="#1B3C87" stroke-width="2.64259" stroke-linecap="round" stroke-linejoin="round"/>
<path d="M60.5742 262.223C69.4554 254.583 79.627 250.247 88.5957 255.499C92.1638 257.59 94.608 260.587 96.1626 264.166" stroke="#1B3C87" stroke-width="2.64259" stroke-linecap="round" stroke-linejoin="round"/>
<path d="M103.656 255.123C107.026 245.947 106.505 215.1 106.171 212.049C105.768 208.366 103 181.807 109.646 176.196C116.292 170.585 126.507 164.298 132.537 164.729C138.568 165.161 156.513 183.253 156.513 205.159C156.513 227.066 136.634 237.53 131.971 237.674C131.334 242.538 131.383 255.558 131.383 260.275C129.471 262.112 108.544 261.494 103.656 255.123Z" fill="white"/>
<path d="M106.977 192.846C103.862 192.655 101.442 195.471 98.8409 198.158C96.5106 180.872 104.64 150.474 116.305 148.395C118.31 148.474 118.562 151.136 117.977 153.479C125.294 146.793 139.038 143.077 144.872 143.028C152.433 143.028 155.106 149.002 155.106 151.053C155.106 156.245 151.707 164.002 150.458 166.011C152.458 164.945 154.06 164.556 155.605 164.556C159.494 164.556 160.448 170.6 160.448 172.401C160.448 178.686 153.805 185.083 150.508 185.083C148.963 185.083 144.691 182.672 143.396 180.872C143.853 182.209 144.359 182.583 144.378 184.637C144.392 186.332 141.933 187.262 140.47 187.262C136.594 187.262 128.911 179.687 121.882 179.687C119.543 179.687 116.591 183.045 116.591 184.938C116.591 186.831 117.579 195.767 116.985 196.078C115.17 197.51 114.328 193.249 107.124 192.786" fill="#EECB55"/>
<path d="M151.042 216.099C146.552 227.221 137.374 234.843 126.781 234.843C121.417 234.843 116.417 232.885 112.203 229.515" stroke="#1B3C87" stroke-width="2.64259" stroke-linecap="round" stroke-linejoin="round"/>
<path d="M150.02 182.897C152.696 188.196 153.974 193.882 153.974 200.626C153.975 202.2 153.89 203.773 153.719 205.338" stroke="#1B3C87" stroke-width="2.64259" stroke-linecap="round" stroke-linejoin="round"/>
<path d="M128.875 257.483C128.582 252.057 128.748 237.912 129.479 234.833" stroke="#1B3C87" stroke-width="2.64259" stroke-linecap="round" stroke-linejoin="round"/>
<path d="M103.615 237.94C103.19 243.484 102.485 248.674 101.355 252.252C103.508 254.782 109.281 256.717 115.288 257.622" stroke="#1B3C87" stroke-width="2.64259" stroke-linecap="round" stroke-linejoin="round"/>
<path d="M103.602 209.625C103.932 211.208 104.263 218.55 104.111 227.004" stroke="#1B3C87" stroke-width="2.64259" stroke-linecap="round" stroke-linejoin="round"/>
<path d="M122.93 193.911C122.93 192.275 123.632 190.947 124.5 190.947C125.367 190.947 126.069 192.275 126.069 193.911C126.069 195.548 125.366 196.876 124.5 196.876C123.633 196.876 122.93 195.549 122.93 193.911Z" fill="#1B3C87"/>
<path d="M145.262 195.097C145.262 193.46 145.964 192.133 146.831 192.133C147.697 192.133 148.401 193.46 148.401 195.097C148.401 196.734 147.698 198.062 146.831 198.062C145.963 198.062 145.262 196.735 145.262 195.097Z" fill="#1B3C87"/>
<path d="M138.969 201.743C139.337 204.355 141.466 208.733 143.816 210.425" stroke="#1B3C87" stroke-width="2.64259" stroke-linecap="round" stroke-linejoin="round"/>
<path d="M137.686 216.753C136.071 216.533 130.928 213.774 129.9 211.787C127.991 212.707 127.036 219.218 130.928 220.213" stroke="#1B3C87" stroke-width="2.64259" stroke-linecap="round" stroke-linejoin="round"/>
<path d="M150.058 182.887C149.655 183.039 149.229 183.123 148.798 183.134C145.687 183.134 140.464 177.899 140.464 177.899C141.638 180.781 142.342 181.604 142.342 182.781C142.342 183.957 140.874 185.249 138.703 185.309C133.416 185.46 127.574 177.758 120.153 177.758C118.218 177.758 114.438 180.411 114.438 183.617C114.438 185.781 115.118 192.001 115.118 193.491C115.118 194.087 114.778 194.485 114.145 194.751" stroke="#1B3C87" stroke-width="2.64259" stroke-linecap="round" stroke-linejoin="round"/>
<path d="M139.082 141.625C140.261 141.465 141.449 141.382 142.638 141.378C148.391 141.378 153.027 145.259 153.027 149.611C153.027 153.963 149.799 162.549 147.627 164.608C150.503 163.314 151.325 162.843 153.319 162.843C157.526 162.843 158.308 167.313 158.308 170.664C158.308 176.548 153.368 181.718 150.059 182.885" stroke="#1B3C87" stroke-width="2.64259" stroke-linecap="round" stroke-linejoin="round"/>
<path d="M103.16 158.664C106.945 150.711 111.365 146.492 113.416 146.492C117.376 146.492 116.092 150.674 115.931 152.015C117.376 150.531 123.051 146.705 129.902 144.071" stroke="#1B3C87" stroke-width="2.64259" stroke-linecap="round" stroke-linejoin="round"/>
<path d="M96.7227 187.094C96.9971 179.078 98.3241 172.151 100.14 166.4" stroke="#1B3C87" stroke-width="2.64259" stroke-linecap="round" stroke-linejoin="round"/>
<path d="M108.78 210.564C107.063 210.842 105.302 210.64 103.692 209.979C102.082 209.319 100.684 208.227 99.6539 206.822C98.6234 205.418 97.9995 203.756 97.851 202.019C97.7024 200.283 98.0349 198.538 98.8118 196.979C99.5887 195.419 100.78 194.105 102.255 193.179C103.729 192.254 105.43 191.755 107.17 191.736C108.909 191.716 110.62 192.178 112.115 193.071C113.61 193.963 114.829 195.251 115.64 196.793" fill="white"/>
<path d="M107.69 209.655C105.973 209.933 104.212 209.731 102.602 209.07C100.992 208.41 99.5946 207.318 98.564 205.913C97.5335 204.509 96.9097 202.847 96.7611 201.11C96.6125 199.374 96.945 197.629 97.7219 196.07C98.4989 194.51 99.6902 193.195 101.165 192.27C102.639 191.345 104.34 190.846 106.08 190.827C107.819 190.807 109.531 191.269 111.025 192.162C112.52 193.054 113.74 194.342 114.551 195.884" stroke="#1B3C87" stroke-width="2.64259" stroke-linecap="round" stroke-linejoin="round"/>
<path d="M485.647 308.957C478.723 312.519 465.427 314.597 448.606 315.186C449.074 325.081 451.333 356.279 452.535 373.401C449.917 377.227 446.093 382.224 443.047 386.121H471.695C476.182 378.886 482.38 368.511 483.299 366.038C484.712 362.238 485.111 325.45 485.647 308.957Z" fill="white"/>
<path d="M484.249 305.781C484.122 310.308 482.849 361.702 481.768 364.891C480.686 368.079 471.913 382.649 469.109 386.425" stroke="#1B3C87" stroke-width="2.64259" stroke-linecap="round" stroke-linejoin="round"/>
<path d="M455.178 248.66C478.43 243.573 494.392 300.192 490.989 304.953C487.587 309.713 445.68 316.621 441.938 313.209C438.197 309.798 435.705 252.92 455.178 248.66Z" fill="#FE8A71"/>
<path d="M460.99 310.868C450.888 312.36 441.555 312.903 439.879 311.374C437.685 309.372 435.919 288.966 438.768 271.581" stroke="#1B3C87" stroke-width="2.64259" stroke-linecap="round" stroke-linejoin="round"/>
<path d="M456.934 246.53C478.087 247.883 492.144 298.621 488.932 303.118C487.997 304.428 484.145 305.9 478.976 307.276" stroke="#1B3C87" stroke-width="2.64259" stroke-linecap="round" stroke-linejoin="round"/>
<path d="M460.126 197.706C466.099 191.777 469.33 178.887 469.33 171.84C469.33 157.351 460.824 151.404 459.233 151.404C457.641 151.404 455.969 154.756 456.224 157.101C454.788 155.104 442.182 142.751 419.46 142.751C413.166 142.751 408.645 145.805 408.645 150.829C408.645 153.113 409.701 156.679 411.534 157.905C409.671 158.043 407.031 159.378 407.031 163.086C407.031 167.321 412.704 169.325 414.955 169.325C417.206 169.325 420.543 166.985 422.156 164.785C422.657 167.208 421.143 171.156 426.41 171.191C428.634 171.206 438.003 166.455 439.755 164.868C437.976 167.932 435.529 169.339 435.529 172.807C435.529 176.051 437.114 178.322 439.56 178.322C442.007 178.322 449.069 174.98 450.376 173.471C450.654 175.672 448.205 191.029 448.942 195.216C451.401 195.401 454.418 192.264 454.457 194.836" fill="#E49D75"/>
<path d="M433.039 166.038C435.344 164.853 437.395 163.643 438.124 162.983C436.345 166.047 433.898 167.453 433.898 170.922C433.898 174.165 435.482 176.436 437.929 176.436C440.376 176.436 447.437 173.094 448.744 171.59C449.023 173.79 446.573 189.147 447.311 193.334C449.769 193.52 452.787 190.383 452.826 192.955" stroke="#1B3C87" stroke-width="2.64259" stroke-linecap="round" stroke-linejoin="round"/>
<path d="M424.548 141.236C422.317 140.988 420.073 140.864 417.828 140.865C411.534 140.865 407.013 143.92 407.013 148.944C407.013 151.227 408.069 154.793 409.901 156.019C408.038 156.158 405.398 157.493 405.398 161.2C405.398 165.436 411.07 167.439 413.322 167.439C415.574 167.439 418.911 165.1 420.523 162.898C420.982 165.117 419.752 168.613 423.581 169.216" stroke="#1B3C87" stroke-width="2.64259" stroke-linecap="round" stroke-linejoin="round"/>
<path d="M466.885 177.302C467.424 174.567 467.7 172.012 467.7 169.954C467.7 155.465 459.193 149.517 457.602 149.517C456.011 149.517 454.341 152.868 454.596 155.215C453.631 153.874 447.623 147.858 436.895 144.054" stroke="#1B3C87" stroke-width="2.64259" stroke-linecap="round" stroke-linejoin="round"/>
<path d="M458.496 195.821C460.558 193.773 462.294 190.896 463.683 187.716" stroke="#1B3C87" stroke-width="2.64259" stroke-linecap="round" stroke-linejoin="round"/>
<path d="M451.296 193.401C452.45 192.977 453.704 192.906 454.898 193.199C456.093 193.492 457.172 194.134 458 195.045C458.828 195.956 459.366 197.093 459.545 198.312C459.725 199.53 459.538 200.775 459.008 201.886C458.478 202.997 457.63 203.925 456.571 204.551C455.512 205.177 454.291 205.473 453.064 205.4C451.836 205.327 450.659 204.89 449.681 204.143C448.703 203.396 447.97 202.375 447.574 201.208" stroke="#1B3C87" stroke-width="2.64259" stroke-linecap="round" stroke-linejoin="round"/>
<path d="M6.58594 386.404H518.94" stroke="#1B3C87" stroke-width="2.64259" stroke-linecap="round" stroke-linejoin="round"/>
</g>
<defs>
<linearGradient id="paint0_linear" x1="262.238" y1="-93.5598" x2="266.411" y2="533.162" gradientUnits="userSpaceOnUse">
<stop stop-color="white"/>
<stop offset="1" stop-color="#F7F7F7"/>
</linearGradient>
<clipPath id="clip0">
<rect width="520" height="449" fill="white"/>
</clipPath>
</defs>
</svg>
