<svg width="1920" height="1149" viewBox="0 0 1920 1149" fill="none" xmlns="http://www.w3.org/2000/svg">
<path d="M545 1003L545.288 1003.41L545 1003ZM-91.2265 1142.49C-90.9525 1142.53 -90.7025 1142.33 -90.6681 1142.06C-90.6338 1141.78 -90.828 1141.53 -91.102 1141.5L-91.2265 1142.49ZM-83.1158 1142.44C-83.3902 1142.41 -83.6375 1142.61 -83.6682 1142.89C-83.6989 1143.16 -83.5013 1143.41 -83.2269 1143.44L-83.1158 1142.44ZM-75.4137 1144.26C-75.1389 1144.29 -74.8939 1144.09 -74.8664 1143.82C-74.839 1143.54 -75.0395 1143.3 -75.3142 1143.27L-75.4137 1144.26ZM-67.3482 1144.02C-67.6233 1144 -67.8661 1144.2 -67.8905 1144.47C-67.9149 1144.75 -67.7117 1144.99 -67.4366 1145.02L-67.3482 1144.02ZM-59.5335 1145.68C-59.2582 1145.7 -59.0175 1145.49 -58.9959 1145.22C-58.9743 1144.94 -59.18 1144.7 -59.4552 1144.68L-59.5335 1145.68ZM-51.5233 1145.26C-51.7988 1145.25 -52.0375 1145.45 -52.0565 1145.73C-52.0755 1146 -51.8675 1146.24 -51.5921 1146.26L-51.5233 1145.26ZM-43.6349 1146.77C-43.3592 1146.79 -43.1224 1146.58 -43.1059 1146.3C-43.0895 1146.03 -43.2996 1145.79 -43.5752 1145.78L-43.6349 1146.77ZM-35.6567 1146.21C-35.9325 1146.2 -36.1675 1146.41 -36.1816 1146.69C-36.1956 1146.96 -35.9835 1147.2 -35.7077 1147.21L-35.6567 1146.21ZM-27.7343 1147.59C-27.4584 1147.6 -27.2252 1147.38 -27.2134 1147.11C-27.2016 1146.83 -27.4157 1146.6 -27.6916 1146.59L-27.7343 1147.59ZM-19.7664 1146.89C-20.0424 1146.88 -20.2739 1147.1 -20.2835 1147.38C-20.293 1147.65 -20.077 1147.88 -19.8011 1147.89L-19.7664 1146.89ZM-11.8344 1148.14C-11.5584 1148.15 -11.3286 1147.93 -11.3212 1147.65C-11.3138 1147.38 -11.5316 1147.15 -11.8076 1147.14L-11.8344 1148.14ZM-3.85963 1147.32C-4.13572 1147.32 -4.36384 1147.54 -4.36915 1147.81C-4.37445 1148.09 -4.15494 1148.32 -3.87885 1148.32L-3.85963 1147.32ZM4.06723 1148.44C4.34335 1148.45 4.56983 1148.23 4.57309 1147.95C4.57635 1147.67 4.35515 1147.45 4.07903 1147.44L4.06723 1148.44ZM12.0613 1147.51C11.7851 1147.51 11.5603 1147.73 11.5591 1148.01C11.5578 1148.28 11.7807 1148.51 12.0568 1148.51L12.0613 1147.51ZM19.9745 1148.52C20.2507 1148.52 20.4739 1148.29 20.4732 1148.01C20.4725 1147.74 20.248 1147.52 19.9719 1147.52L19.9745 1148.52ZM27.9954 1147.47C27.7192 1147.47 27.4976 1147.69 27.5003 1147.97C27.503 1148.25 27.729 1148.47 28.0051 1148.47L27.9954 1147.47ZM35.8905 1148.36C36.1667 1148.36 36.3867 1148.13 36.3821 1147.85C36.3775 1147.58 36.15 1147.36 35.8739 1147.36L35.8905 1148.36ZM43.8653 1147.2C43.5893 1147.21 43.3708 1147.44 43.3773 1147.71C43.3838 1147.99 43.6129 1148.21 43.889 1148.2L43.8653 1147.2ZM51.8169 1147.99C52.0929 1147.98 52.3099 1147.75 52.3015 1147.47C52.293 1147.19 52.0625 1146.98 51.7865 1146.99L51.8169 1147.99ZM59.7305 1146.72C59.4545 1146.73 59.2392 1146.96 59.2494 1147.24C59.2597 1147.51 59.4917 1147.73 59.7677 1147.72L59.7305 1146.72ZM67.7535 1147.39C68.0294 1147.38 68.2432 1147.15 68.231 1146.87C68.2188 1146.59 67.9854 1146.38 67.7095 1146.39L67.7535 1147.39ZM75.6081 1146.02C75.3323 1146.03 75.1201 1146.27 75.1341 1146.54C75.1481 1146.82 75.383 1147.03 75.6588 1147.02L75.6081 1146.02ZM83.6482 1146.58C83.9239 1146.57 84.1345 1146.33 84.1187 1146.06C84.1028 1145.78 83.8665 1145.57 83.5908 1145.59L83.6482 1146.58ZM91.497 1145.1C91.2214 1145.12 91.0124 1145.36 91.0301 1145.64C91.0478 1145.91 91.2856 1146.12 91.5611 1146.1L91.497 1145.1ZM99.4978 1145.57C99.7732 1145.55 99.9807 1145.31 99.9611 1145.03C99.9416 1144.76 99.7024 1144.55 99.427 1144.57L99.4978 1145.57ZM107.394 1143.98C107.119 1144 106.913 1144.24 106.934 1144.51C106.956 1144.79 107.196 1144.99 107.472 1144.97L107.394 1143.98ZM115.36 1144.33C115.635 1144.31 115.839 1144.07 115.816 1143.79C115.793 1143.52 115.551 1143.31 115.276 1143.34L115.36 1144.33ZM123.22 1142.64C122.945 1142.66 122.742 1142.91 122.767 1143.18C122.792 1143.46 123.036 1143.66 123.311 1143.63L123.22 1142.64ZM131.23 1142.88C131.504 1142.86 131.705 1142.61 131.678 1142.34C131.652 1142.06 131.407 1141.86 131.132 1141.89L131.23 1142.88ZM139.024 1141.09C138.75 1141.12 138.55 1141.36 138.579 1141.64C138.608 1141.91 138.854 1142.11 139.129 1142.08L139.024 1141.09ZM147.08 1141.22C147.354 1141.19 147.552 1140.94 147.521 1140.67C147.491 1140.39 147.243 1140.2 146.969 1140.23L147.08 1141.22ZM154.835 1139.32C154.561 1139.35 154.365 1139.6 154.398 1139.88C154.43 1140.15 154.679 1140.35 154.953 1140.31L154.835 1139.32ZM162.851 1139.35C163.125 1139.31 163.319 1139.06 163.285 1138.79C163.25 1138.52 163 1138.32 162.726 1138.36L162.851 1139.35ZM170.645 1137.33C170.371 1137.37 170.179 1137.62 170.215 1137.89C170.251 1138.17 170.503 1138.36 170.776 1138.32L170.645 1137.33ZM178.626 1137.25C178.899 1137.22 179.09 1136.96 179.052 1136.69C179.013 1136.42 178.761 1136.23 178.487 1136.26L178.626 1137.25ZM186.367 1135.13C186.094 1135.17 185.905 1135.43 185.945 1135.7C185.985 1135.98 186.239 1136.16 186.512 1136.12L186.367 1135.13ZM194.395 1134.94C194.668 1134.89 194.855 1134.64 194.813 1134.37C194.771 1134.09 194.516 1133.91 194.243 1133.95L194.395 1134.94ZM202.073 1132.71C201.8 1132.76 201.615 1133.01 201.659 1133.29C201.703 1133.56 201.96 1133.74 202.232 1133.7L202.073 1132.71ZM210.099 1132.4C210.371 1132.35 210.555 1132.1 210.509 1131.82C210.463 1131.55 210.205 1131.37 209.932 1131.41L210.099 1132.4ZM217.768 1130.06C217.496 1130.11 217.315 1130.37 217.363 1130.64C217.411 1130.91 217.67 1131.09 217.942 1131.05L217.768 1130.06ZM225.759 1129.64C226.03 1129.59 226.21 1129.33 226.16 1129.05C226.11 1128.78 225.849 1128.6 225.578 1128.65L225.759 1129.64ZM233.41 1127.18C233.138 1127.23 232.961 1127.5 233.013 1127.77C233.065 1128.04 233.327 1128.22 233.598 1128.16L233.41 1127.18ZM241.401 1126.64C241.672 1126.58 241.848 1126.32 241.794 1126.05C241.74 1125.78 241.476 1125.6 241.206 1125.66L241.401 1126.64ZM248.987 1124.08C248.716 1124.13 248.543 1124.4 248.599 1124.67C248.655 1124.94 248.919 1125.11 249.19 1125.05L248.987 1124.08ZM256.995 1123.41C257.265 1123.35 257.436 1123.08 257.378 1122.81C257.32 1122.54 257.054 1122.37 256.784 1122.43L256.995 1123.41ZM264.539 1120.73C264.269 1120.79 264.1 1121.05 264.16 1121.32C264.22 1121.59 264.487 1121.76 264.757 1121.7L264.539 1120.73ZM272.511 1119.94C272.78 1119.88 272.947 1119.61 272.885 1119.34C272.823 1119.07 272.554 1118.9 272.285 1118.97L272.511 1119.94ZM280.041 1117.14C279.772 1117.2 279.607 1117.47 279.671 1117.74C279.736 1118.01 280.006 1118.17 280.274 1118.11L280.041 1117.14ZM287.993 1116.22C288.261 1116.16 288.424 1115.89 288.357 1115.62C288.291 1115.35 288.019 1115.19 287.751 1115.25L287.993 1116.22ZM295.455 1113.31C295.188 1113.37 295.027 1113.65 295.095 1113.91C295.164 1114.18 295.437 1114.34 295.704 1114.27L295.455 1113.31ZM303.42 1112.26C303.687 1112.19 303.845 1111.91 303.774 1111.65C303.703 1111.38 303.43 1111.22 303.163 1111.29L303.42 1112.26ZM310.825 1109.22C310.558 1109.29 310.402 1109.57 310.475 1109.83C310.548 1110.1 310.823 1110.26 311.09 1110.18L310.825 1109.22ZM318.752 1108.04C319.017 1107.97 319.172 1107.69 319.096 1107.43C319.021 1107.16 318.744 1107.01 318.479 1107.08L318.752 1108.04ZM326.131 1104.87C325.866 1104.95 325.714 1105.23 325.792 1105.49C325.87 1105.76 326.147 1105.91 326.412 1105.83L326.131 1104.87ZM334.028 1103.56C334.293 1103.48 334.442 1103.21 334.362 1102.94C334.282 1102.68 334.003 1102.53 333.739 1102.61L334.028 1103.56ZM341.335 1100.27C341.072 1100.36 340.925 1100.64 341.007 1100.9C341.089 1101.16 341.37 1101.31 341.633 1101.23L341.335 1100.27ZM349.232 1098.82C349.494 1098.73 349.639 1098.45 349.554 1098.19C349.47 1097.93 349.188 1097.78 348.925 1097.87L349.232 1098.82ZM356.471 1095.4C356.209 1095.49 356.067 1095.77 356.154 1096.03C356.241 1096.29 356.524 1096.44 356.786 1096.35L356.471 1095.4ZM364.326 1093.81C364.588 1093.72 364.727 1093.43 364.638 1093.17C364.548 1092.91 364.264 1092.77 364.003 1092.86L364.326 1093.81ZM371.521 1090.25C371.261 1090.34 371.124 1090.63 371.216 1090.89C371.308 1091.15 371.593 1091.28 371.854 1091.19L371.521 1090.25ZM379.339 1088.51C379.599 1088.42 379.733 1088.13 379.639 1087.87C379.544 1087.61 379.258 1087.48 378.998 1087.57L379.339 1088.51ZM386.455 1084.82C386.197 1084.92 386.065 1085.21 386.162 1085.47C386.259 1085.73 386.547 1085.86 386.806 1085.76L386.455 1084.82ZM394.254 1082.93C394.512 1082.83 394.64 1082.55 394.541 1082.29C394.441 1082.03 394.152 1081.9 393.894 1082L394.254 1082.93ZM401.292 1079.11C401.036 1079.21 400.91 1079.5 401.012 1079.76C401.113 1080.02 401.404 1080.14 401.661 1080.04L401.292 1079.11ZM409.043 1077.07C409.299 1076.97 409.421 1076.67 409.317 1076.42C409.213 1076.16 408.921 1076.04 408.665 1076.14L409.043 1077.07ZM416.015 1073.1C415.761 1073.21 415.641 1073.5 415.748 1073.76C415.855 1074.01 416.148 1074.13 416.403 1074.02L416.015 1073.1ZM423.72 1070.91C423.974 1070.8 424.091 1070.5 423.981 1070.25C423.872 1069.99 423.577 1069.88 423.324 1069.99L423.72 1070.91ZM430.602 1066.8C430.35 1066.91 430.236 1067.2 430.349 1067.46C430.461 1067.71 430.756 1067.82 431.009 1067.71L430.602 1066.8ZM438.269 1064.44C438.52 1064.32 438.63 1064.03 438.515 1063.77C438.401 1063.52 438.104 1063.41 437.853 1063.53L438.269 1064.44ZM445.06 1060.18C444.81 1060.3 444.703 1060.6 444.82 1060.85C444.938 1061.1 445.236 1061.21 445.486 1061.09L445.06 1060.18ZM452.668 1057.66C452.917 1057.54 453.021 1057.24 452.9 1057C452.78 1056.75 452.481 1056.64 452.232 1056.76L452.668 1057.66ZM459.372 1053.26C459.125 1053.38 459.024 1053.68 459.147 1053.93C459.27 1054.18 459.57 1054.28 459.817 1054.16L459.372 1053.26ZM466.921 1050.57C467.167 1050.45 467.264 1050.14 467.138 1049.9C467.012 1049.65 466.711 1049.56 466.465 1049.68L466.921 1050.57ZM473.519 1046.02C473.274 1046.15 473.181 1046.45 473.309 1046.7C473.438 1046.94 473.74 1047.04 473.984 1046.91L473.519 1046.02ZM481.01 1043.16C481.253 1043.03 481.343 1042.72 481.212 1042.48C481.081 1042.24 480.777 1042.15 480.534 1042.28L481.01 1043.16ZM487.5 1038.46C487.259 1038.59 487.172 1038.9 487.307 1039.14C487.441 1039.38 487.745 1039.47 487.987 1039.33L487.5 1038.46ZM494.918 1035.42C495.157 1035.28 495.241 1034.98 495.104 1034.74C494.966 1034.5 494.661 1034.42 494.421 1034.55L494.918 1035.42ZM501.299 1030.56C501.061 1030.7 500.981 1031.01 501.121 1031.25C501.261 1031.49 501.568 1031.57 501.806 1031.43L501.299 1030.56ZM508.641 1027.35C508.877 1027.21 508.953 1026.9 508.81 1026.66C508.667 1026.43 508.359 1026.35 508.123 1026.49L508.641 1027.35ZM514.896 1022.34C514.662 1022.49 514.59 1022.8 514.736 1023.03C514.881 1023.26 515.19 1023.34 515.424 1023.19L514.896 1022.34ZM522.16 1018.94C522.393 1018.79 522.461 1018.49 522.312 1018.25C522.163 1018.02 521.854 1017.95 521.621 1018.1L522.16 1018.94ZM528.288 1013.78C528.057 1013.93 527.993 1014.24 528.145 1014.47C528.297 1014.7 528.607 1014.77 528.838 1014.61L528.288 1013.78ZM535.458 1010.2C535.686 1010.04 535.746 1009.73 535.592 1009.5C535.437 1009.28 535.126 1009.22 534.897 1009.37L535.458 1010.2ZM541.454 1004.87C541.227 1005.03 541.171 1005.34 541.329 1005.57C541.486 1005.8 541.798 1005.85 542.025 1005.69L541.454 1004.87ZM548.562 1001.07C548.786 1000.91 548.837 1000.6 548.675 1000.38C548.514 1000.15 548.201 1000.1 547.977 1000.26L548.562 1001.07ZM554.431 995.508C554.21 995.674 554.166 995.988 554.332 996.208C554.498 996.429 554.811 996.473 555.032 996.307L554.431 995.508ZM561.4 991.416C561.617 991.245 561.655 990.931 561.485 990.714C561.315 990.496 561 990.458 560.783 990.629L561.4 991.416ZM567.037 985.627C566.823 985.801 566.791 986.116 566.966 986.33C567.14 986.544 567.455 986.576 567.669 986.402L567.037 985.627ZM573.838 981.271C574.049 981.092 574.075 980.777 573.897 980.566C573.718 980.356 573.403 980.33 573.192 980.508L573.838 981.271ZM579.252 975.275C579.045 975.457 579.025 975.773 579.207 975.98C579.389 976.188 579.705 976.208 579.913 976.026L579.252 975.275ZM585.896 970.667C586.1 970.481 586.115 970.165 585.928 969.961C585.742 969.757 585.426 969.742 585.222 969.928L585.896 970.667ZM591.104 964.472C590.903 964.662 590.894 964.978 591.084 965.179C591.273 965.38 591.589 965.389 591.79 965.2L591.104 964.472ZM597.573 959.651C597.77 959.458 597.774 959.141 597.581 958.944C597.388 958.746 597.072 958.742 596.874 958.935L597.573 959.651ZM602.559 953.299C602.365 953.495 602.366 953.811 602.562 954.006C602.758 954.2 603.074 954.199 603.269 954.003L602.559 953.299ZM608.885 948.256C609.077 948.057 609.071 947.741 608.872 947.549C608.673 947.358 608.356 947.364 608.165 947.563L608.885 948.256ZM613.691 941.733C613.502 941.935 613.513 942.252 613.715 942.44C613.917 942.629 614.233 942.618 614.422 942.416L613.691 941.733ZM619.842 936.528C620.028 936.323 620.012 936.007 619.808 935.822C619.603 935.636 619.287 935.651 619.102 935.856L619.842 936.528ZM624.442 929.89C624.259 930.097 624.279 930.413 624.486 930.595C624.693 930.778 625.009 930.758 625.191 930.551L624.442 929.89ZM630.472 924.489C630.652 924.28 630.628 923.964 630.419 923.784C630.209 923.604 629.894 923.628 629.714 923.837L630.472 924.489ZM634.91 917.714C634.733 917.926 634.761 918.241 634.972 918.419C635.184 918.596 635.499 918.568 635.677 918.357L634.91 917.714ZM640.779 912.193C640.954 911.979 640.922 911.664 640.708 911.489C640.494 911.314 640.179 911.346 640.005 911.559L640.779 912.193ZM645.039 905.329C644.867 905.545 644.902 905.86 645.118 906.032C645.334 906.204 645.648 906.169 645.821 905.953L645.039 905.329ZM650.805 899.642C650.975 899.425 650.936 899.11 650.719 898.94C650.501 898.77 650.187 898.809 650.017 899.027L650.805 899.642ZM654.925 892.674C654.757 892.893 654.799 893.207 655.018 893.375C655.238 893.542 655.552 893.5 655.719 893.281L654.925 892.674ZM660.547 886.899C660.713 886.678 660.668 886.365 660.447 886.199C660.226 886.034 659.912 886.079 659.747 886.3L660.547 886.899ZM664.52 879.863C664.356 880.086 664.404 880.399 664.627 880.562C664.849 880.726 665.162 880.678 665.326 880.455L664.52 879.863ZM670.057 873.952C670.219 873.728 670.168 873.415 669.944 873.254C669.72 873.093 669.408 873.143 669.246 873.367L670.057 873.952ZM673.912 866.837C673.752 867.063 673.806 867.375 674.031 867.534C674.256 867.694 674.568 867.641 674.728 867.415L673.912 866.837ZM679.329 860.865C679.486 860.639 679.431 860.327 679.204 860.169C678.978 860.011 678.666 860.067 678.508 860.294L679.329 860.865ZM683.065 853.7C682.909 853.928 682.967 854.239 683.195 854.395C683.422 854.551 683.734 854.493 683.89 854.265L683.065 853.7ZM688.414 847.619C688.569 847.39 688.509 847.079 688.28 846.924C688.051 846.77 687.74 846.83 687.586 847.059L688.414 847.619ZM692.057 840.395C691.904 840.625 691.966 840.935 692.196 841.088C692.425 841.241 692.736 841.179 692.889 840.949L692.057 840.395ZM697.309 834.273C697.461 834.042 697.397 833.732 697.166 833.581C696.935 833.429 696.625 833.493 696.474 833.724L697.309 834.273ZM700.861 827.014C700.711 827.245 700.776 827.555 701.008 827.706C701.239 827.856 701.549 827.79 701.699 827.559L700.861 827.014ZM706.062 820.809C706.212 820.577 706.144 820.267 705.912 820.118C705.68 819.969 705.37 820.036 705.221 820.268L706.062 820.809ZM709.545 813.507C709.397 813.74 709.465 814.049 709.698 814.197C709.931 814.346 710.24 814.277 710.389 814.044L709.545 813.507ZM714.674 807.277C714.822 807.044 714.752 806.735 714.518 806.588C714.284 806.44 713.976 806.51 713.828 806.744L714.674 807.277ZM718.091 799.953C717.945 800.188 718.016 800.496 718.25 800.642C718.484 800.789 718.793 800.718 718.939 800.484L718.091 799.953ZM723.186 793.665C723.332 793.431 723.26 793.122 723.025 792.977C722.79 792.831 722.482 792.903 722.336 793.138L723.186 793.665ZM726.558 786.312C726.413 786.547 726.486 786.855 726.721 787C726.957 787.145 727.265 787.072 727.41 786.837L726.558 786.312ZM731.606 780.01C731.75 779.775 731.676 779.467 731.441 779.323C731.206 779.178 730.898 779.252 730.753 779.487L731.606 780.01ZM734.937 772.646C734.793 772.882 734.868 773.19 735.103 773.334C735.339 773.477 735.647 773.403 735.791 773.167L734.937 772.646ZM739.966 766.31C740.109 766.074 740.034 765.767 739.798 765.623C739.562 765.48 739.255 765.555 739.111 765.791L739.966 766.31ZM743.275 758.93C743.132 759.166 743.207 759.473 743.443 759.616C743.68 759.759 743.987 759.684 744.13 759.448L743.275 758.93ZM748.282 752.589C748.425 752.353 748.349 752.045 748.113 751.902C747.876 751.76 747.569 751.835 747.426 752.072L748.282 752.589ZM751.574 745.207C751.431 745.444 751.507 745.751 751.744 745.894C751.98 746.036 752.287 745.961 752.43 745.724L751.574 745.207ZM756.577 738.856C756.72 738.62 756.644 738.312 756.408 738.169C756.172 738.027 755.864 738.103 755.721 738.339L756.577 738.856ZM759.87 731.47C759.727 731.707 759.803 732.014 760.039 732.157C760.275 732.3 760.583 732.224 760.726 731.987L759.87 731.47ZM764.876 725.122C765.019 724.886 764.943 724.579 764.707 724.436C764.471 724.293 764.163 724.368 764.02 724.605L764.876 725.122ZM768.177 717.743C768.033 717.979 768.109 718.287 768.345 718.43C768.581 718.573 768.888 718.498 769.032 718.262L768.177 717.743ZM773.195 711.408C773.338 711.172 773.263 710.864 773.027 710.721C772.792 710.577 772.484 710.652 772.34 710.888L773.195 711.408ZM776.515 704.04C776.371 704.275 776.446 704.583 776.681 704.727C776.917 704.871 777.225 704.797 777.369 704.561L776.515 704.04ZM781.561 697.715C781.706 697.48 781.632 697.172 781.397 697.028C781.161 696.883 780.853 696.957 780.709 697.192L781.561 697.715ZM784.917 690.359C784.771 690.594 784.844 690.902 785.079 691.047C785.314 691.192 785.622 691.12 785.767 690.885L784.917 690.359ZM789.99 684.071C790.136 683.837 790.064 683.528 789.829 683.382C789.595 683.237 789.286 683.308 789.141 683.543L789.99 684.071ZM793.385 676.743C793.238 676.977 793.309 677.286 793.543 677.432C793.777 677.579 794.086 677.508 794.232 677.274L793.385 676.743ZM798.51 670.476C798.658 670.242 798.588 669.934 798.354 669.786C798.121 669.639 797.812 669.708 797.665 669.942L798.51 670.476ZM801.967 663.165C801.819 663.398 801.887 663.707 802.12 663.855C802.353 664.004 802.662 663.935 802.81 663.703L801.967 663.165ZM807.136 656.957C807.285 656.725 807.219 656.416 806.986 656.266C806.754 656.117 806.445 656.184 806.295 656.416L807.136 656.957ZM810.652 649.694C810.501 649.925 810.567 650.235 810.798 650.386C811.029 650.536 811.339 650.471 811.49 650.24L810.652 649.694ZM815.897 643.519C816.049 643.289 815.985 642.979 815.755 642.826C815.524 642.674 815.214 642.738 815.062 642.968L815.897 643.519ZM819.504 636.279C819.351 636.509 819.412 636.819 819.642 636.972C819.871 637.126 820.182 637.064 820.335 636.835L819.504 636.279ZM824.808 630.189C824.963 629.96 824.903 629.649 824.674 629.495C824.446 629.34 824.135 629.399 823.98 629.628L824.808 630.189ZM828.494 623.016C828.338 623.243 828.395 623.554 828.623 623.711C828.85 623.867 829.162 623.81 829.318 623.582L828.494 623.016ZM833.898 616.975C834.056 616.748 834.001 616.437 833.774 616.278C833.548 616.12 833.236 616.176 833.078 616.402L833.898 616.975ZM837.703 609.836C837.544 610.061 837.596 610.373 837.822 610.533C838.047 610.693 838.359 610.64 838.519 610.415L837.703 609.836ZM843.183 603.905C843.345 603.681 843.294 603.368 843.071 603.207C842.847 603.045 842.534 603.095 842.372 603.319L843.183 603.905ZM847.09 596.852C846.926 597.074 846.974 597.387 847.196 597.551C847.418 597.714 847.731 597.667 847.895 597.445L847.09 596.852ZM852.691 590.992C852.857 590.771 852.812 590.457 852.591 590.292C852.371 590.126 852.057 590.17 851.891 590.391L852.691 590.992ZM856.744 583.99C856.576 584.209 856.618 584.523 856.837 584.691C857.057 584.859 857.37 584.817 857.538 584.598L856.744 583.99ZM862.439 578.267C862.609 578.049 862.57 577.735 862.353 577.565C862.135 577.395 861.821 577.433 861.651 577.651L862.439 578.267ZM866.618 571.37C866.445 571.586 866.48 571.9 866.696 572.073C866.911 572.245 867.226 572.21 867.399 571.995L866.618 571.37ZM872.453 565.745C872.628 565.532 872.597 565.217 872.383 565.042C872.169 564.867 871.854 564.898 871.68 565.112L872.453 565.745ZM876.803 558.925C876.626 559.137 876.653 559.452 876.865 559.63C877.077 559.807 877.392 559.779 877.569 559.568L876.803 558.925ZM882.749 553.465C882.929 553.255 882.905 552.939 882.695 552.759C882.486 552.579 882.17 552.603 881.99 552.813L882.749 553.465ZM887.251 546.769C887.068 546.977 887.088 547.292 887.295 547.475C887.502 547.658 887.818 547.638 888.001 547.431L887.251 546.769ZM893.353 541.442C893.539 541.237 893.523 540.921 893.318 540.736C893.114 540.55 892.798 540.566 892.612 540.771L893.353 541.442ZM898.046 534.856C897.857 535.058 897.869 535.375 898.071 535.563C898.273 535.751 898.589 535.74 898.777 535.538L898.046 534.856ZM904.275 529.721C904.466 529.521 904.46 529.205 904.26 529.014C904.061 528.823 903.745 528.829 903.553 529.029L904.275 529.721ZM909.147 523.282C908.953 523.479 908.955 523.795 909.151 523.989C909.347 524.183 909.664 524.182 909.858 523.985L909.147 523.282ZM915.542 518.322C915.739 518.128 915.742 517.812 915.548 517.615C915.355 517.418 915.038 517.415 914.841 517.608L915.542 518.322ZM920.618 512.031C920.418 512.221 920.41 512.537 920.6 512.737C920.79 512.938 921.107 512.946 921.307 512.756L920.618 512.031ZM927.157 507.289C927.36 507.102 927.374 506.786 927.187 506.583C927 506.38 926.684 506.366 926.48 506.553L927.157 507.289ZM932.435 501.174C932.228 501.357 932.209 501.673 932.393 501.88C932.576 502.086 932.892 502.105 933.099 501.922L932.435 501.174ZM939.137 496.654C939.347 496.475 939.371 496.159 939.191 495.949C939.011 495.74 938.696 495.715 938.486 495.895L939.137 496.654ZM944.63 490.725C944.417 490.901 944.387 491.217 944.563 491.429C944.739 491.642 945.054 491.672 945.267 491.496L944.63 490.725ZM951.492 486.451C951.708 486.279 951.744 485.964 951.572 485.748C951.4 485.532 951.086 485.496 950.87 485.668L951.492 486.451ZM957.197 480.734C956.977 480.901 956.936 481.215 957.103 481.435C957.271 481.654 957.585 481.696 957.804 481.528L957.197 480.734ZM964.207 476.73C964.43 476.566 964.478 476.253 964.314 476.031C964.151 475.808 963.838 475.76 963.615 475.924L964.207 476.73ZM970.135 471.234C969.91 471.393 969.856 471.705 970.015 471.931C970.174 472.156 970.486 472.21 970.711 472.051L970.135 471.234ZM977.319 467.497C977.548 467.343 977.609 467.032 977.454 466.803C977.3 466.574 976.989 466.513 976.76 466.668L977.319 467.497ZM983.451 462.255C983.219 462.405 983.152 462.714 983.302 462.946C983.451 463.178 983.761 463.245 983.993 463.095L983.451 462.255ZM990.752 458.835C990.987 458.69 991.061 458.382 990.916 458.147C990.771 457.912 990.463 457.838 990.228 457.983L990.752 458.835ZM997.115 453.841C996.877 453.981 996.797 454.288 996.937 454.526C997.077 454.764 997.383 454.843 997.621 454.704L997.115 453.841ZM1004.6 450.705C1004.84 450.571 1004.93 450.266 1004.79 450.025C1004.66 449.784 1004.35 449.698 1004.11 449.832L1004.6 450.705ZM1011.14 446.007C1010.89 446.137 1010.8 446.439 1010.93 446.683C1011.06 446.927 1011.36 447.02 1011.61 446.89L1011.14 446.007ZM1018.69 443.225C1018.94 443.101 1019.04 442.801 1018.92 442.554C1018.79 442.307 1018.49 442.208 1018.24 442.332L1018.69 443.225ZM1025.47 438.794C1025.22 438.913 1025.11 439.212 1025.23 439.461C1025.35 439.71 1025.65 439.816 1025.9 439.697L1025.47 438.794ZM1033.22 436.308C1033.47 436.195 1033.58 435.899 1033.47 435.647C1033.35 435.395 1033.06 435.283 1032.81 435.396L1033.22 436.308ZM1040.12 432.202C1039.87 432.309 1039.75 432.603 1039.85 432.857C1039.96 433.111 1040.26 433.23 1040.51 433.122L1040.12 432.202ZM1047.88 430.094C1048.13 429.991 1048.26 429.7 1048.16 429.444C1048.05 429.187 1047.76 429.062 1047.51 429.165L1047.88 430.094ZM1055.01 426.268C1054.75 426.364 1054.62 426.652 1054.72 426.911C1054.81 427.17 1055.1 427.301 1055.36 427.205L1055.01 426.268ZM1062.97 424.458C1063.23 424.367 1063.36 424.082 1063.27 423.821C1063.18 423.561 1062.9 423.423 1062.64 423.514L1062.97 424.458ZM1070.2 420.965C1069.94 421.05 1069.79 421.332 1069.88 421.595C1069.97 421.857 1070.25 422.001 1070.51 421.916L1070.2 420.965ZM1078.09 419.54C1078.35 419.46 1078.5 419.181 1078.42 418.916C1078.34 418.652 1078.06 418.502 1077.8 418.582L1078.09 419.54ZM1085.52 416.34C1085.25 416.414 1085.1 416.69 1085.17 416.956C1085.24 417.222 1085.52 417.378 1085.79 417.303L1085.52 416.34ZM1093.6 415.209C1093.87 415.141 1094.03 414.868 1093.96 414.601C1093.89 414.333 1093.62 414.172 1093.35 414.241L1093.6 415.209ZM1101.15 412.323C1100.89 412.386 1100.72 412.655 1100.78 412.924C1100.84 413.193 1101.11 413.36 1101.38 413.297L1101.15 412.323ZM1109.1 411.565C1109.37 411.507 1109.54 411.241 1109.48 410.971C1109.42 410.701 1109.16 410.529 1108.89 410.587L1109.1 411.565ZM1116.73 408.988C1116.46 409.041 1116.28 409.303 1116.34 409.574C1116.39 409.845 1116.65 410.023 1116.92 409.97L1116.73 408.988ZM1124.87 408.514C1125.14 408.467 1125.32 408.208 1125.27 407.936C1125.23 407.664 1124.97 407.481 1124.7 407.528L1124.87 408.514ZM1132.76 406.212C1132.49 406.254 1132.3 406.509 1132.34 406.782C1132.38 407.055 1132.64 407.242 1132.91 407.201L1132.76 406.212ZM1140.68 406.083C1140.95 406.046 1141.14 405.794 1141.11 405.521C1141.07 405.247 1140.82 405.055 1140.54 405.092L1140.68 406.083ZM1148.44 404.102C1148.16 404.134 1147.97 404.382 1148 404.657C1148.03 404.931 1148.28 405.127 1148.55 405.096L1148.44 404.102ZM1156.54 404.24C1156.81 404.213 1157.01 403.969 1156.99 403.694C1156.96 403.419 1156.71 403.218 1156.44 403.245L1156.54 404.24ZM1164.56 402.522C1164.28 402.544 1164.08 402.785 1164.1 403.06C1164.12 403.336 1164.36 403.541 1164.64 403.519L1164.56 402.522ZM1172.66 402.944C1172.94 402.927 1173.15 402.689 1173.13 402.414C1173.11 402.138 1172.87 401.929 1172.6 401.946L1172.66 402.944ZM1180.46 401.516C1180.18 401.529 1179.97 401.763 1179.98 402.038C1180 402.314 1180.23 402.527 1180.51 402.515L1180.46 401.516ZM1188.45 402.208C1188.73 402.2 1188.95 401.969 1188.94 401.693C1188.93 401.417 1188.7 401.2 1188.42 401.209L1188.45 402.208ZM1196.49 401.027C1196.22 401.031 1196 401.258 1196 401.534C1196 401.81 1196.23 402.031 1196.51 402.027L1196.49 401.027ZM1204.67 401.971C1204.94 401.972 1205.17 401.748 1205.17 401.472C1205.17 401.196 1204.94 400.972 1204.67 400.971L1204.67 401.971ZM1212.71 401.04C1212.43 401.036 1212.2 401.256 1212.2 401.532C1212.2 401.808 1212.42 402.036 1212.69 402.04L1212.71 401.04ZM1220.53 402.222C1220.81 402.23 1221.04 402.013 1221.05 401.737C1221.06 401.461 1220.84 401.231 1220.56 401.222L1220.53 402.222ZM1228.52 401.519C1228.24 401.507 1228.01 401.721 1228 401.996C1227.98 402.272 1228.2 402.506 1228.47 402.518L1228.52 401.519ZM1236.51 402.93C1236.79 402.946 1237.02 402.736 1237.04 402.46C1237.05 402.185 1236.84 401.948 1236.57 401.932L1236.51 402.93ZM1244.71 402.462C1244.44 402.442 1244.2 402.65 1244.18 402.925C1244.16 403.2 1244.37 403.44 1244.64 403.46L1244.71 402.462ZM1252.77 404.098C1253.04 404.121 1253.28 403.917 1253.31 403.642C1253.33 403.367 1253.13 403.125 1252.85 403.101L1252.77 404.098ZM1260.63 403.813C1260.36 403.786 1260.12 403.987 1260.09 404.262C1260.06 404.537 1260.26 404.781 1260.54 404.808L1260.63 403.813ZM1268.4 405.623C1268.67 405.654 1268.92 405.455 1268.95 405.181C1268.98 404.906 1268.78 404.66 1268.51 404.629L1268.4 405.623ZM1276.47 405.552C1276.19 405.519 1275.94 405.714 1275.91 405.988C1275.88 406.262 1276.07 406.511 1276.35 406.545L1276.47 405.552ZM1284.38 407.573C1284.66 407.609 1284.91 407.417 1284.95 407.144C1284.98 406.87 1284.79 406.618 1284.52 406.582L1284.38 407.573ZM1292.66 407.719C1292.38 407.68 1292.13 407.869 1292.09 408.142C1292.05 408.415 1292.24 408.669 1292.51 408.709L1292.66 407.719ZM1300.41 409.903C1300.68 409.946 1300.94 409.759 1300.98 409.486C1301.02 409.214 1300.83 408.958 1300.56 408.915L1300.41 409.903ZM1308.3 410.169C1308.03 410.124 1307.77 410.308 1307.72 410.58C1307.68 410.852 1307.86 411.11 1308.13 411.156L1308.3 410.169ZM1315.94 412.504C1316.21 412.552 1316.47 412.371 1316.52 412.099C1316.57 411.828 1316.38 411.568 1316.11 411.52L1315.94 412.504ZM1324.01 412.966C1323.74 412.915 1323.48 413.094 1323.43 413.365C1323.37 413.637 1323.55 413.898 1323.82 413.949L1324.01 412.966ZM1331.79 415.491C1332.06 415.545 1332.33 415.369 1332.38 415.098C1332.43 414.828 1332.26 414.564 1331.99 414.511L1331.79 415.491ZM1340.05 416.153C1339.77 416.097 1339.51 416.27 1339.45 416.54C1339.4 416.81 1339.57 417.075 1339.84 417.132L1340.05 416.153ZM1347.93 418.845C1348.2 418.902 1348.46 418.729 1348.52 418.459C1348.58 418.189 1348.41 417.924 1348.14 417.867L1347.93 418.845ZM1356.14 419.529C1355.87 419.474 1355.61 419.649 1355.55 419.919C1355.5 420.19 1355.67 420.454 1355.94 420.509L1356.14 419.529ZM1363.89 422.108C1364.16 422.162 1364.42 421.986 1364.48 421.715C1364.53 421.444 1364.36 421.181 1364.09 421.127L1363.89 422.108ZM1371.96 422.66C1371.69 422.608 1371.42 422.786 1371.37 423.057C1371.32 423.329 1371.5 423.591 1371.77 423.643L1371.96 422.66ZM1379.58 425.113C1379.85 425.163 1380.11 424.984 1380.16 424.712C1380.21 424.441 1380.03 424.18 1379.76 424.13L1379.58 425.113ZM1387.5 425.535C1387.22 425.487 1386.96 425.668 1386.92 425.94C1386.87 426.211 1387.05 426.471 1387.32 426.52L1387.5 425.535ZM1395.18 427.896C1395.46 427.942 1395.72 427.76 1395.76 427.487C1395.81 427.215 1395.63 426.957 1395.35 426.91L1395.18 427.896ZM1403.42 428.266C1403.15 428.221 1402.9 428.405 1402.85 428.678C1402.81 428.95 1402.99 429.208 1403.26 429.252L1403.42 428.266ZM1411.27 430.539C1411.54 430.581 1411.79 430.395 1411.84 430.122C1411.88 429.849 1411.69 429.593 1411.42 429.551L1411.27 430.539ZM1419.34 430.766C1419.07 430.725 1418.81 430.913 1418.77 431.186C1418.73 431.459 1418.92 431.714 1419.19 431.755L1419.34 430.766ZM1427.05 432.901C1427.32 432.94 1427.57 432.75 1427.61 432.477C1427.65 432.203 1427.46 431.95 1427.19 431.911L1427.05 432.901ZM1434.96 432.988C1434.68 432.951 1434.43 433.143 1434.4 433.417C1434.36 433.69 1434.55 433.942 1434.82 433.979L1434.96 432.988ZM1442.84 435.028C1443.12 435.062 1443.37 434.868 1443.4 434.594C1443.44 434.321 1443.24 434.07 1442.97 434.036L1442.84 435.028ZM1451.06 435.029C1450.79 434.996 1450.54 435.192 1450.51 435.467C1450.47 435.741 1450.67 435.989 1450.94 436.022L1451.06 435.029ZM1458.96 436.94C1459.24 436.97 1459.49 436.772 1459.52 436.498C1459.55 436.223 1459.35 435.976 1459.07 435.946L1458.96 436.94ZM1467 436.788C1466.73 436.76 1466.48 436.96 1466.46 437.234C1466.43 437.509 1466.63 437.754 1466.9 437.782L1467 436.788ZM1474.76 438.55C1475.03 438.575 1475.28 438.373 1475.3 438.098C1475.33 437.823 1475.13 437.58 1474.85 437.554L1474.76 438.55ZM1482.74 438.256C1482.46 438.233 1482.22 438.437 1482.2 438.712C1482.17 438.987 1482.38 439.229 1482.65 439.252L1482.74 438.256ZM1490.82 439.906C1491.1 439.927 1491.34 439.72 1491.36 439.445C1491.38 439.169 1491.17 438.929 1490.9 438.909L1490.82 439.906ZM1498.97 439.479C1498.69 439.46 1498.45 439.669 1498.44 439.945C1498.42 440.22 1498.63 440.458 1498.9 440.476L1498.97 439.479ZM1506.89 440.965C1507.17 440.98 1507.4 440.77 1507.42 440.494C1507.43 440.218 1507.22 439.982 1506.95 439.967L1506.89 440.965ZM1514.84 440.373C1514.56 440.36 1514.33 440.573 1514.32 440.849C1514.3 441.125 1514.52 441.359 1514.79 441.372L1514.84 440.373ZM1522.68 441.701C1522.96 441.711 1523.19 441.496 1523.2 441.22C1523.21 440.944 1522.99 440.712 1522.72 440.702L1522.68 441.701ZM1530.9 440.959C1530.62 440.952 1530.39 441.17 1530.39 441.446C1530.38 441.722 1530.6 441.952 1530.87 441.959L1530.9 440.959ZM1538.97 442.128C1539.25 442.132 1539.47 441.912 1539.48 441.636C1539.48 441.359 1539.26 441.132 1538.99 441.128L1538.97 442.128ZM1546.97 441.208C1546.7 441.207 1546.47 441.429 1546.47 441.706C1546.47 441.982 1546.69 442.207 1546.97 442.208L1546.97 441.208ZM1554.87 442.2C1555.15 442.198 1555.37 441.973 1555.37 441.697C1555.36 441.421 1555.14 441.198 1554.86 441.2L1554.87 442.2ZM1562.83 441.103C1562.55 441.108 1562.33 441.336 1562.33 441.612C1562.34 441.888 1562.57 442.108 1562.84 442.103L1562.83 441.103ZM1571.01 441.907C1571.29 441.898 1571.5 441.668 1571.49 441.392C1571.49 441.116 1571.26 440.899 1570.98 440.907L1571.01 441.907ZM1579.03 440.616C1578.75 440.627 1578.54 440.86 1578.55 441.136C1578.56 441.412 1578.79 441.626 1579.07 441.615L1579.03 440.616ZM1587.03 441.228C1587.3 441.213 1587.51 440.977 1587.5 440.701C1587.48 440.426 1587.25 440.214 1586.97 440.23L1587.03 441.228ZM1594.81 439.75C1594.53 439.769 1594.32 440.007 1594.34 440.283C1594.36 440.558 1594.6 440.766 1594.88 440.748L1594.81 439.75ZM1603 440.144C1603.27 440.122 1603.48 439.881 1603.45 439.605C1603.43 439.33 1603.19 439.125 1602.92 439.147L1603 440.144ZM1610.98 438.438C1610.71 438.464 1610.5 438.708 1610.53 438.983C1610.56 439.257 1610.8 439.459 1611.07 439.433L1610.98 438.438ZM1619.04 438.62C1619.31 438.59 1619.51 438.343 1619.48 438.069C1619.45 437.794 1619.2 437.596 1618.93 437.626L1619.04 438.62ZM1626.77 436.715C1626.49 436.748 1626.3 436.998 1626.33 437.272C1626.36 437.546 1626.61 437.741 1626.89 437.707L1626.77 436.715ZM1634.87 436.661C1635.14 436.623 1635.33 436.371 1635.29 436.097C1635.25 435.824 1635 435.633 1634.73 435.671L1634.87 436.661ZM1642.76 434.495C1642.48 434.537 1642.3 434.792 1642.34 435.065C1642.38 435.338 1642.64 435.525 1642.91 435.483L1642.76 434.495ZM1650.83 434.197C1651.1 434.15 1651.28 433.892 1651.24 433.62C1651.19 433.348 1650.93 433.165 1650.66 433.211L1650.83 434.197ZM1658.44 431.821C1658.17 431.872 1657.99 432.133 1658.04 432.404C1658.09 432.676 1658.35 432.855 1658.62 432.804L1658.44 431.821ZM1666.5 431.264C1666.77 431.209 1666.95 430.945 1666.89 430.675C1666.84 430.404 1666.57 430.229 1666.3 430.285L1666.5 431.264ZM1674.23 428.597C1673.96 428.657 1673.79 428.924 1673.85 429.193C1673.91 429.463 1674.18 429.633 1674.45 429.573L1674.23 428.597ZM1682.26 427.768C1682.53 427.704 1682.69 427.434 1682.63 427.165C1682.57 426.897 1682.3 426.732 1682.03 426.796L1682.26 427.768ZM1689.69 424.884C1689.43 424.953 1689.27 425.226 1689.33 425.493C1689.4 425.76 1689.68 425.921 1689.94 425.852L1689.69 424.884ZM1697.74 423.759C1698 423.685 1698.16 423.409 1698.09 423.143C1698.01 422.877 1697.74 422.721 1697.47 422.796L1697.74 423.759ZM1705.23 420.556C1704.96 420.635 1704.81 420.914 1704.89 421.178C1704.97 421.443 1705.25 421.593 1705.52 421.514L1705.23 420.556ZM1713.16 419.152C1713.42 419.068 1713.56 418.787 1713.48 418.524C1713.4 418.261 1713.11 418.115 1712.85 418.2L1713.16 419.152ZM1720.34 415.728C1720.08 415.817 1719.94 416.101 1720.02 416.362C1720.11 416.624 1720.4 416.763 1720.66 416.674L1720.34 415.728ZM1728.34 413.968C1728.6 413.874 1728.74 413.587 1728.64 413.328C1728.55 413.068 1728.26 412.934 1728 413.029L1728.34 413.968ZM1735.52 410.207C1735.26 410.306 1735.14 410.596 1735.24 410.853C1735.34 411.111 1735.63 411.239 1735.88 411.139L1735.52 410.207ZM1743.28 408.19C1743.54 408.085 1743.66 407.793 1743.55 407.538C1743.45 407.282 1743.16 407.16 1742.9 407.265L1743.28 408.19ZM1750.27 404.15C1750.01 404.26 1749.9 404.555 1750.01 404.808C1750.12 405.061 1750.41 405.177 1750.67 405.067L1750.27 404.15ZM1758.05 401.757C1758.3 401.642 1758.41 401.345 1758.29 401.094C1758.18 400.843 1757.88 400.734 1757.63 400.849L1758.05 401.757ZM1764.85 397.427C1764.6 397.548 1764.49 397.847 1764.61 398.095C1764.74 398.343 1765.04 398.446 1765.28 398.325L1764.85 397.427ZM1772.39 394.764C1772.63 394.637 1772.73 394.336 1772.6 394.09C1772.48 393.845 1772.18 393.748 1771.93 393.875L1772.39 394.764ZM1779.08 390.091C1778.84 390.223 1778.75 390.527 1778.88 390.769C1779.01 391.012 1779.32 391.102 1779.56 390.97L1779.08 390.091ZM1786.57 387.053C1786.81 386.916 1786.9 386.61 1786.76 386.37C1786.62 386.131 1786.32 386.048 1786.08 386.185L1786.57 387.053ZM1792.92 382.159C1792.68 382.302 1792.61 382.609 1792.75 382.846C1792.89 383.082 1793.2 383.158 1793.44 383.015L1792.92 382.159ZM1800.3 378.767C1800.53 378.619 1800.6 378.31 1800.45 378.077C1800.31 377.844 1800 377.775 1799.76 377.923L1800.3 378.767ZM1806.49 373.542C1806.26 373.696 1806.2 374.006 1806.35 374.236C1806.5 374.465 1806.81 374.527 1807.04 374.374L1806.49 373.542ZM1813.64 369.862C1813.86 369.703 1813.92 369.391 1813.76 369.165C1813.6 368.939 1813.29 368.884 1813.06 369.043L1813.64 369.862ZM1819.57 364.365C1819.35 364.529 1819.3 364.842 1819.47 365.064C1819.63 365.286 1819.94 365.334 1820.16 365.17L1819.57 364.365ZM1826.59 360.32C1826.81 360.152 1826.85 359.838 1826.68 359.619C1826.52 359.4 1826.2 359.36 1825.98 359.529L1826.59 360.32ZM1832.24 354.578C1832.03 354.751 1832 355.066 1832.17 355.281C1832.34 355.496 1832.66 355.529 1832.87 355.355L1832.24 354.578ZM1839.05 350.234C1839.26 350.056 1839.29 349.74 1839.11 349.53C1838.93 349.319 1838.62 349.293 1838.4 349.472L1839.05 350.234ZM1844.47 344.208C1844.26 344.392 1844.24 344.708 1844.43 344.914C1844.61 345.121 1844.93 345.139 1845.13 344.956L1844.47 344.208ZM1851.06 339.567C1851.27 339.379 1851.28 339.063 1851.09 338.861C1850.9 338.658 1850.59 338.647 1850.38 338.835L1851.06 339.567ZM1856.18 333.326C1855.98 333.518 1855.98 333.835 1856.17 334.033C1856.36 334.231 1856.68 334.235 1856.88 334.043L1856.18 333.326ZM1862.59 328.371C1862.78 328.175 1862.78 327.858 1862.58 327.664C1862.39 327.471 1862.07 327.473 1861.88 327.67L1862.59 328.371ZM1867.43 321.911C1867.24 322.112 1867.25 322.428 1867.45 322.617C1867.65 322.807 1867.96 322.798 1868.15 322.597L1867.43 321.911ZM1873.59 316.702C1873.78 316.497 1873.76 316.181 1873.56 315.996C1873.35 315.811 1873.04 315.827 1872.85 316.032L1873.59 316.702ZM1878.17 310.023C1877.99 310.232 1878.01 310.548 1878.22 310.728C1878.43 310.909 1878.74 310.886 1878.92 310.678L1878.17 310.023ZM1884.11 304.558C1884.29 304.346 1884.26 304.03 1884.05 303.854C1883.83 303.677 1883.52 303.707 1883.34 303.919L1884.11 304.558ZM1888.39 297.71C1888.22 297.926 1888.25 298.241 1888.47 298.413C1888.69 298.585 1889 298.549 1889.17 298.333L1888.39 297.71ZM1894.12 291.997C1894.29 291.778 1894.24 291.464 1894.03 291.296C1893.81 291.128 1893.49 291.17 1893.32 291.39L1894.12 291.997ZM1898.12 284.983C1897.96 285.206 1898.01 285.519 1898.23 285.682C1898.45 285.846 1898.77 285.798 1898.93 285.575L1898.12 284.983ZM1903.62 279.062C1903.78 278.836 1903.73 278.524 1903.5 278.365C1903.27 278.206 1902.96 278.26 1902.8 278.485L1903.62 279.062ZM1907.36 271.894C1907.21 272.123 1907.27 272.434 1907.5 272.589C1907.72 272.744 1908.04 272.684 1908.19 272.456L1907.36 271.894ZM1912.64 265.774C1912.79 265.542 1912.72 265.232 1912.49 265.082C1912.26 264.931 1911.95 264.996 1911.8 265.227L1912.64 265.774ZM1916.12 258.482C1915.97 258.715 1916.04 259.024 1916.27 259.171C1916.51 259.318 1916.82 259.247 1916.96 259.013L1916.12 258.482ZM1921.18 252.176C1921.32 251.94 1921.24 251.633 1921.01 251.49C1920.77 251.347 1920.46 251.423 1920.32 251.659L1921.18 252.176ZM1924.41 244.77C1924.27 245.009 1924.35 245.315 1924.59 245.454C1924.83 245.593 1925.13 245.512 1925.27 245.273L1924.41 244.77ZM1929.26 238.304C1929.39 238.064 1929.31 237.759 1929.07 237.624C1928.82 237.489 1928.52 237.574 1928.38 237.815L1929.26 238.304ZM1932.25 230.797C1932.12 231.04 1932.21 231.343 1932.45 231.474C1932.7 231.606 1933 231.516 1933.13 231.273L1932.25 230.797ZM1936.9 224.185C1937.03 223.94 1936.93 223.638 1936.69 223.51C1936.44 223.383 1936.14 223.477 1936.01 223.722L1936.9 224.185ZM1939.67 216.592C1939.54 216.839 1939.64 217.14 1939.89 217.264C1940.14 217.388 1940.44 217.289 1940.56 217.042L1939.67 216.592ZM1944.12 209.848C1944.24 209.599 1944.14 209.3 1943.89 209.179C1943.64 209.058 1943.35 209.162 1943.22 209.41L1944.12 209.848ZM1946.68 202.182C1946.56 202.432 1946.67 202.73 1946.92 202.847C1947.17 202.965 1947.47 202.857 1947.59 202.607L1946.68 202.182ZM1950.95 195.321C1951.07 195.069 1950.96 194.773 1950.71 194.659C1950.45 194.544 1950.16 194.656 1950.04 194.907L1950.95 195.321ZM1953.31 187.589C1953.2 187.842 1953.32 188.137 1953.57 188.248C1953.82 188.359 1954.12 188.244 1954.23 187.991L1953.31 187.589ZM1957.41 180.627C1957.52 180.373 1957.4 180.079 1957.15 179.971C1956.9 179.863 1956.6 179.981 1956.49 180.235L1957.41 180.627ZM1959.59 172.841C1959.49 173.097 1959.61 173.389 1959.86 173.494C1960.12 173.599 1960.41 173.478 1960.52 173.222L1959.59 172.841ZM1963.53 165.782C1963.64 165.526 1963.51 165.235 1963.25 165.132C1963 165.03 1962.71 165.155 1962.6 165.411L1963.53 165.782ZM1965.54 157.956C1965.44 158.214 1965.56 158.503 1965.82 158.603C1966.08 158.703 1966.37 158.575 1966.47 158.317L1965.54 157.956ZM1969.33 150.816C1969.43 150.558 1969.3 150.27 1969.04 150.172C1968.78 150.075 1968.49 150.206 1968.39 150.465L1969.33 150.816ZM1971.18 142.944C1971.08 143.203 1971.22 143.49 1971.48 143.585C1971.74 143.68 1972.02 143.546 1972.12 143.287L1971.18 142.944ZM1974.83 135.743C1974.92 135.482 1974.79 135.196 1974.53 135.104C1974.27 135.012 1973.98 135.148 1973.89 135.408L1974.83 135.743ZM1976.54 127.837C1976.45 128.098 1976.59 128.382 1976.85 128.472C1977.11 128.562 1977.39 128.424 1977.48 128.163L1976.54 127.837ZM1980.07 120.561C1980.16 120.299 1980.02 120.016 1979.76 119.928C1979.49 119.84 1979.21 119.981 1979.12 120.243L1980.07 120.561ZM1981.64 112.645C1981.56 112.907 1981.7 113.19 1981.96 113.275C1982.22 113.361 1982.51 113.218 1982.59 112.956L1981.64 112.645ZM1985.06 105.311C1985.15 105.048 1985 104.767 1984.74 104.683C1984.48 104.599 1984.19 104.744 1984.11 105.007L1985.06 105.311ZM1986.52 97.3563C1986.44 97.6199 1986.59 97.9002 1986.85 97.9824C1987.12 98.0646 1987.4 97.9175 1987.48 97.6539L1986.52 97.3563ZM1989.84 90.0034C1989.92 89.7393 1989.77 89.4599 1989.5 89.3794C1989.24 89.2989 1988.96 89.4478 1988.88 89.7119L1989.84 90.0034ZM1991.2 82.0194C1991.12 82.284 1991.27 82.5625 1991.54 82.6415C1991.8 82.7204 1992.08 82.5699 1992.16 82.3052L1991.2 82.0194ZM1994.43 74.6062C1994.51 74.3411 1994.36 74.0634 1994.09 73.986C1993.83 73.9085 1993.55 74.0605 1993.47 74.3256L1994.43 74.6062ZM1995.69 66.6498C1995.62 66.9152 1995.77 67.1921 1996.04 67.2682C1996.3 67.3444 1996.58 67.1909 1996.65 66.9255L1995.69 66.6498ZM1998.86 59.181C1998.93 58.9152 1998.78 58.639 1998.51 58.5641C1998.24 58.4892 1997.97 58.6439 1997.89 58.9097L1998.86 59.181ZM2000.05 51.187C1999.98 51.4531 2000.14 51.7287 2000.4 51.8025C2000.67 51.8763 2000.94 51.7205 2001.02 51.4544L2000.05 51.187ZM2003.14 43.7513C2003.21 43.485 2003.05 43.21 2002.79 43.1371C2002.52 43.0643 2002.25 43.2211 2002.17 43.4875L2003.14 43.7513ZM2004.29 35.7112C2004.22 35.9778 2004.37 36.2523 2004.64 36.3243C2004.91 36.3963 2005.18 36.2385 2005.25 35.9719L2004.29 35.7112ZM2007.33 28.2322C2007.4 27.9654 2007.24 27.6913 2006.98 27.6201C2006.71 27.5488 2006.44 27.7072 2006.37 27.974L2007.33 28.2322ZM2008.42 20.2438C2008.35 20.5107 2008.51 20.7844 2008.78 20.8552C2009.04 20.9259 2009.32 20.7668 2009.39 20.4999L2008.42 20.2438ZM2011.45 12.7095C2011.52 12.4425 2011.36 12.169 2011.09 12.0987C2010.82 12.0285 2010.55 12.188 2010.48 12.455L2011.45 12.7095ZM2012.51 4.71975C2012.44 4.98688 2012.6 5.26016 2012.87 5.33015C2013.13 5.40014 2013.41 5.24032 2013.48 4.9732L2012.51 4.71975ZM-95.0657 1142C-93.8041 1142.16 -92.5242 1142.33 -91.2265 1142.49L-91.102 1141.5C-92.3975 1141.34 -93.675 1141.17 -94.9343 1141L-95.0657 1142ZM-83.2269 1143.44C-80.682 1143.72 -78.077 1144 -75.4137 1144.26L-75.3142 1143.27C-77.9738 1143 -80.5749 1142.73 -83.1158 1142.44L-83.2269 1143.44ZM-67.4366 1145.02C-64.8509 1145.25 -62.2161 1145.47 -59.5335 1145.68L-59.4552 1144.68C-62.1345 1144.47 -64.7659 1144.25 -67.3482 1144.02L-67.4366 1145.02ZM-51.5921 1146.26C-48.9803 1146.44 -46.3275 1146.61 -43.6349 1146.77L-43.5752 1145.78C-46.2649 1145.61 -48.9146 1145.44 -51.5233 1145.26L-51.5921 1146.26ZM-35.7077 1147.21C-33.0843 1147.35 -30.4261 1147.47 -27.7343 1147.59L-27.6916 1146.59C-30.3807 1146.47 -33.0361 1146.35 -35.6567 1146.21L-35.7077 1147.21ZM-19.8011 1147.89C-17.1749 1147.98 -14.5191 1148.07 -11.8344 1148.14L-11.8076 1147.14C-14.4897 1147.07 -17.1429 1146.98 -19.7664 1146.89L-19.8011 1147.89ZM-3.87885 1148.32C-1.25552 1148.37 1.39343 1148.41 4.06723 1148.44L4.07903 1147.44C1.4077 1147.41 -1.23878 1147.37 -3.85963 1147.32L-3.87885 1148.32ZM12.0568 1148.51C14.674 1148.52 17.3135 1148.52 19.9745 1148.52L19.9719 1147.52C17.3132 1147.52 14.6761 1147.52 12.0613 1147.51L12.0568 1148.51ZM28.0051 1148.47C30.6144 1148.44 33.243 1148.41 35.8905 1148.36L35.8739 1147.36C33.2287 1147.41 30.6023 1147.44 27.9954 1147.47L28.0051 1148.47ZM43.889 1148.2C46.5144 1148.14 49.1572 1148.07 51.8169 1147.99L51.7865 1146.99C49.1291 1147.07 46.4885 1147.14 43.8653 1147.2L43.889 1148.2ZM59.7677 1147.72C62.4141 1147.62 65.0762 1147.51 67.7535 1147.39L67.7095 1146.39C65.0345 1146.51 62.3746 1146.62 59.7305 1146.72L59.7677 1147.72ZM75.6588 1147.02C78.3081 1146.88 80.9714 1146.74 83.6482 1146.58L83.5908 1145.59C80.9162 1145.74 78.2552 1145.88 75.6081 1146.02L75.6588 1147.02ZM91.5611 1146.1C94.1945 1145.93 96.8402 1145.75 99.4978 1145.57L99.427 1144.57C96.7717 1144.76 94.1282 1144.94 91.497 1145.1L91.5611 1146.1ZM107.472 1144.97C110.09 1144.77 112.72 1144.56 115.36 1144.33L115.276 1143.34C112.638 1143.56 110.011 1143.77 107.394 1143.98L107.472 1144.97ZM123.311 1143.63C125.941 1143.39 128.581 1143.14 131.23 1142.88L131.132 1141.89C128.485 1142.15 125.848 1142.4 123.22 1142.64L123.311 1143.63ZM139.129 1142.08C141.771 1141.81 144.421 1141.52 147.08 1141.22L146.969 1140.23C144.312 1140.52 141.664 1140.81 139.024 1141.09L139.129 1142.08ZM154.953 1140.31C157.578 1140 160.211 1139.68 162.851 1139.35L162.726 1138.36C160.089 1138.69 157.458 1139.01 154.835 1139.32L154.953 1140.31ZM170.776 1138.32C173.386 1137.98 176.003 1137.62 178.626 1137.25L178.487 1136.26C175.867 1136.63 173.253 1136.99 170.645 1137.33L170.776 1138.32ZM186.512 1136.12C189.134 1135.74 191.762 1135.34 194.395 1134.94L194.243 1133.95C191.612 1134.35 188.986 1134.75 186.367 1135.13L186.512 1136.12ZM202.232 1133.7C204.85 1133.28 207.472 1132.84 210.099 1132.4L209.932 1131.41C207.308 1131.86 204.688 1132.29 202.073 1132.71L202.232 1133.7ZM217.942 1131.05C220.543 1130.59 223.149 1130.12 225.759 1129.64L225.578 1128.65C222.971 1129.13 220.367 1129.6 217.768 1130.06L217.942 1131.05ZM233.598 1128.16C236.196 1127.67 238.797 1127.16 241.401 1126.64L241.206 1125.66C238.604 1126.18 236.005 1126.68 233.41 1127.18L233.598 1128.16ZM249.19 1125.05C251.789 1124.52 254.391 1123.97 256.995 1123.41L256.784 1122.43C254.183 1122.99 251.583 1123.54 248.987 1124.08L249.19 1125.05ZM264.757 1121.7C267.34 1121.13 269.924 1120.54 272.511 1119.94L272.285 1118.97C269.701 1119.56 267.119 1120.15 264.539 1120.73L264.757 1121.7ZM280.274 1118.11C282.846 1117.49 285.419 1116.86 287.993 1116.22L287.751 1115.25C285.18 1115.89 282.61 1116.52 280.041 1117.14L280.274 1118.11ZM295.704 1114.27C298.275 1113.61 300.847 1112.94 303.42 1112.26L303.163 1111.29C300.593 1111.97 298.024 1112.65 295.455 1113.31L295.704 1114.27ZM311.09 1110.18C313.644 1109.48 316.198 1108.77 318.752 1108.04L318.479 1107.08C315.928 1107.81 313.376 1108.52 310.825 1109.22L311.09 1110.18ZM326.412 1105.83C328.952 1105.09 331.49 1104.33 334.028 1103.56L333.739 1102.61C331.204 1103.37 328.668 1104.13 326.131 1104.87L326.412 1105.83ZM341.633 1101.23C344.167 1100.44 346.7 1099.63 349.232 1098.82L348.925 1097.87C346.397 1098.68 343.867 1099.48 341.335 1100.27L341.633 1101.23ZM356.786 1096.35C359.302 1095.51 361.815 1094.67 364.326 1093.81L364.003 1092.86C361.494 1093.72 358.984 1094.56 356.471 1095.4L356.786 1096.35ZM371.854 1091.19C374.352 1090.31 376.847 1089.42 379.339 1088.51L378.998 1087.57C376.508 1088.48 374.016 1089.37 371.521 1090.25L371.854 1091.19ZM386.806 1085.76C389.291 1084.83 391.774 1083.89 394.254 1082.93L393.894 1082C391.418 1082.95 388.938 1083.9 386.455 1084.82L386.806 1085.76ZM401.661 1080.04C404.125 1079.06 406.586 1078.07 409.043 1077.07L408.665 1076.14C406.211 1077.15 403.754 1078.13 401.292 1079.11L401.661 1080.04ZM416.403 1074.02C418.846 1073 421.285 1071.96 423.72 1070.91L423.324 1069.99C420.892 1071.04 418.456 1072.08 416.015 1073.1L416.403 1074.02ZM431.009 1067.71C433.433 1066.63 435.854 1065.54 438.269 1064.44L437.853 1063.53C435.441 1064.63 433.024 1065.72 430.602 1066.8L431.009 1067.71ZM445.486 1061.09C447.885 1059.96 450.279 1058.82 452.668 1057.66L452.232 1056.76C449.847 1057.92 447.456 1059.06 445.06 1060.18L445.486 1061.09ZM459.817 1054.16C462.191 1052.97 464.559 1051.78 466.921 1050.57L466.465 1049.68C464.107 1050.89 461.742 1052.08 459.372 1053.26L459.817 1054.16ZM473.984 1046.91C476.333 1045.67 478.675 1044.42 481.01 1043.16L480.534 1042.28C478.202 1043.54 475.864 1044.79 473.519 1046.02L473.984 1046.91ZM487.987 1039.33C490.304 1038.04 492.614 1036.74 494.918 1035.42L494.421 1034.55C492.121 1035.87 489.814 1037.17 487.5 1038.46L487.987 1039.33ZM501.806 1031.43C504.092 1030.08 506.37 1028.72 508.641 1027.35L508.123 1026.49C505.856 1027.87 503.581 1029.22 501.299 1030.56L501.806 1031.43ZM515.424 1023.19C517.678 1021.79 519.923 1020.37 522.16 1018.94L521.621 1018.1C519.388 1019.53 517.146 1020.94 514.896 1022.34L515.424 1023.19ZM528.838 1014.61C531.053 1013.16 533.26 1011.69 535.458 1010.2L534.897 1009.37C532.703 1010.85 530.5 1012.32 528.288 1013.78L528.838 1014.61ZM542.025 1005.69C543.115 1004.94 544.203 1004.17 545.288 1003.41L544.712 1002.59C543.628 1003.36 542.542 1004.12 541.454 1004.87L542.025 1005.69ZM545.288 1003.41C546.384 1002.64 547.475 1001.86 548.562 1001.07L547.977 1000.26C546.893 1001.04 545.805 1001.82 544.712 1002.59L545.288 1003.41ZM555.032 996.307C557.171 994.698 559.294 993.067 561.4 991.416L560.783 990.629C558.682 992.276 556.565 993.903 554.431 995.508L555.032 996.307ZM567.669 986.402C569.741 984.711 571.798 983.001 573.838 981.271L573.192 980.508C571.156 982.234 569.104 983.94 567.037 985.627L567.669 986.402ZM579.913 976.026C581.922 974.258 583.916 972.472 585.896 970.667L585.222 969.928C583.247 971.729 581.257 973.511 579.252 975.275L579.913 976.026ZM591.79 965.2C593.732 963.367 595.659 961.518 597.573 959.651L596.874 958.935C594.965 960.798 593.041 962.644 591.104 964.472L591.79 965.2ZM603.269 954.003C605.154 952.104 607.026 950.188 608.885 948.256L608.165 947.563C606.309 949.491 604.441 951.403 602.559 953.299L603.269 954.003ZM614.422 942.416C616.241 940.468 618.047 938.506 619.842 936.528L619.102 935.856C617.31 937.83 615.506 939.789 613.691 941.733L614.422 942.416ZM625.191 930.551C626.963 928.545 628.723 926.524 630.472 924.489L629.714 923.837C627.968 925.869 626.21 927.886 624.442 929.89L625.191 930.551ZM635.677 918.357C637.388 916.315 639.088 914.26 640.779 912.193L640.005 911.559C638.317 913.624 636.619 915.676 634.91 917.714L635.677 918.357ZM645.821 905.953C647.492 903.862 649.153 901.758 650.805 899.642L650.017 899.027C648.367 901.139 646.708 903.24 645.039 905.329L645.821 905.953ZM655.719 893.281C657.337 891.164 658.946 889.037 660.547 886.899L659.747 886.3C658.148 888.435 656.541 890.56 654.925 892.674L655.719 893.281ZM665.326 880.455C666.911 878.297 668.488 876.129 670.057 873.952L669.246 873.367C667.678 875.542 666.103 877.708 664.52 879.863L665.326 880.455ZM674.728 867.415C676.268 865.241 677.802 863.057 679.329 860.865L678.508 860.294C676.983 862.483 675.451 864.665 673.912 866.837L674.728 867.415ZM683.89 854.265C685.404 852.057 686.912 849.842 688.414 847.619L687.586 847.059C686.085 849.28 684.578 851.494 683.065 853.7L683.89 854.265ZM692.889 840.949C694.368 838.731 695.841 836.505 697.309 834.273L696.474 833.724C695.006 835.954 693.534 838.178 692.057 840.395L692.889 840.949ZM701.699 827.559C703.158 825.315 704.612 823.065 706.062 820.809L705.221 820.268C703.772 822.522 702.319 824.771 700.861 827.014L701.699 827.559ZM710.389 814.044C711.821 811.793 713.249 809.538 714.674 807.277L713.828 806.744C712.404 809.003 710.976 811.258 709.545 813.507L710.389 814.044ZM718.939 800.484C720.358 798.215 721.773 795.942 723.186 793.665L722.336 793.138C720.924 795.414 719.509 797.686 718.091 799.953L718.939 800.484ZM727.41 786.837C728.811 784.564 730.209 782.289 731.606 780.01L730.753 779.487C729.357 781.765 727.959 784.04 726.558 786.312L727.41 786.837ZM735.791 773.167C737.184 770.884 738.575 768.598 739.966 766.31L739.111 765.791C737.721 768.078 736.33 770.363 734.937 772.646L735.791 773.167ZM744.13 759.448C745.515 757.163 746.898 754.876 748.282 752.589L747.426 752.072C746.043 754.359 744.659 756.645 743.275 758.93L744.13 759.448ZM752.43 745.724C753.813 743.435 755.195 741.146 756.577 738.856L755.721 738.339C754.339 740.629 752.957 742.918 751.574 745.207L752.43 745.724ZM760.726 731.987C762.108 729.699 763.492 727.41 764.876 725.122L764.02 724.605C762.636 726.893 761.253 729.181 759.87 731.47L760.726 731.987ZM769.032 718.262C770.418 715.976 771.805 713.691 773.195 711.408L772.34 710.888C770.951 713.172 769.563 715.457 768.177 717.743L769.032 718.262ZM777.369 704.561C778.764 702.277 780.161 699.995 781.561 697.715L780.709 697.192C779.309 699.472 777.911 701.755 776.515 704.04L777.369 704.561ZM785.767 690.885C787.172 688.61 788.579 686.339 789.99 684.071L789.141 683.543C787.73 685.812 786.322 688.084 784.917 690.359L785.767 690.885ZM794.232 677.274C795.655 675.004 797.08 672.738 798.51 670.476L797.665 669.942C796.234 672.205 794.808 674.472 793.385 676.743L794.232 677.274ZM802.81 663.703C804.248 661.449 805.69 659.201 807.136 656.957L806.295 656.416C804.848 658.661 803.406 660.91 801.967 663.165L802.81 663.703ZM811.49 650.24C812.954 647.994 814.423 645.753 815.897 643.519L815.062 642.968C813.587 645.204 812.117 647.446 810.652 649.694L811.49 650.24ZM820.335 636.835C821.82 634.613 823.311 632.397 824.808 630.189L823.98 629.628C822.482 631.838 820.99 634.055 819.504 636.279L820.335 636.835ZM829.318 623.582C830.838 621.372 832.365 619.169 833.898 616.975L833.078 616.402C831.543 618.599 830.015 620.803 828.494 623.016L829.318 623.582ZM838.519 610.415C840.066 608.236 841.621 606.066 843.183 603.905L842.372 603.319C840.809 605.483 839.252 607.655 837.703 609.836L838.519 610.415ZM847.895 597.445C849.486 595.284 851.084 593.133 852.691 590.992L851.891 590.391C850.282 592.535 848.682 594.689 847.09 596.852L847.895 597.445ZM857.538 584.598C859.163 582.477 860.796 580.366 862.439 578.267L861.651 577.651C860.006 579.753 858.371 581.866 856.744 583.99L857.538 584.598ZM867.399 571.995C869.074 569.9 870.758 567.817 872.453 565.745L871.68 565.112C869.982 567.186 868.295 569.273 866.618 571.37L867.399 571.995ZM877.569 559.568C879.285 557.521 881.011 555.486 882.749 553.465L881.99 552.813C880.25 554.838 878.521 556.875 876.803 558.925L877.569 559.568ZM888.001 547.431C889.773 545.421 891.557 543.424 893.353 541.442L892.612 540.771C890.813 542.756 889.026 544.756 887.251 546.769L888.001 547.431ZM898.777 535.538C900.597 533.584 902.43 531.645 904.275 529.721L903.553 529.029C901.705 530.956 899.869 532.899 898.046 534.856L898.777 535.538ZM909.858 523.985C911.739 522.082 913.633 520.194 915.542 518.322L914.841 517.608C912.929 519.483 911.031 521.375 909.147 523.282L909.858 523.985ZM921.307 512.756C923.243 510.917 925.193 509.094 927.157 507.289L926.48 506.553C924.512 508.362 922.558 510.188 920.618 512.031L921.307 512.756ZM933.099 501.922C935.096 500.148 937.109 498.392 939.137 496.654L938.486 495.895C936.454 497.637 934.437 499.397 932.435 501.174L933.099 501.922ZM945.267 491.496C947.326 489.796 949.401 488.114 951.492 486.451L950.87 485.668C948.774 487.335 946.694 489.021 944.63 490.725L945.267 491.496ZM957.804 481.528C959.922 479.909 962.056 478.309 964.207 476.73L963.615 475.924C961.459 477.507 959.319 479.111 957.197 480.734L957.804 481.528ZM970.711 472.051C972.897 470.513 975.099 468.994 977.319 467.497L976.76 466.668C974.534 468.169 972.326 469.691 970.135 471.234L970.711 472.051ZM983.993 463.095C986.228 461.654 988.481 460.233 990.752 458.835L990.228 457.983C987.951 459.386 985.692 460.81 983.451 462.255L983.993 463.095ZM997.621 454.704C999.929 453.349 1002.26 452.016 1004.6 450.705L1004.11 449.832C1001.76 451.146 999.429 452.483 997.115 453.841L997.621 454.704ZM1011.61 446.89C1013.95 445.646 1016.31 444.424 1018.69 443.225L1018.24 442.332C1015.86 443.535 1013.49 444.76 1011.14 446.007L1011.61 446.89ZM1025.9 439.697C1028.32 438.544 1030.76 437.414 1033.22 436.308L1032.81 435.396C1030.34 436.505 1027.89 437.638 1025.47 438.794L1025.9 439.697ZM1040.51 433.122C1042.95 432.09 1045.4 431.08 1047.88 430.094L1047.51 429.165C1045.02 430.154 1042.56 431.166 1040.12 432.202L1040.51 433.122ZM1055.36 427.205C1057.88 426.265 1060.41 425.35 1062.97 424.458L1062.64 423.514C1060.07 424.408 1057.53 425.326 1055.01 426.268L1055.36 427.205ZM1070.51 421.916C1073.02 421.101 1075.54 420.308 1078.09 419.54L1077.8 418.582C1075.25 419.353 1072.71 420.147 1070.2 420.965L1070.51 421.916ZM1085.79 417.303C1088.37 416.582 1090.98 415.883 1093.6 415.209L1093.35 414.241C1090.72 414.917 1088.11 415.617 1085.52 416.34L1085.79 417.303ZM1101.38 413.297C1103.93 412.697 1106.51 412.12 1109.1 411.565L1108.89 410.587C1106.29 411.143 1103.71 411.722 1101.15 412.323L1101.38 413.297ZM1116.92 409.97C1119.55 409.461 1122.2 408.976 1124.87 408.514L1124.7 407.528C1122.02 407.992 1119.37 408.478 1116.73 408.988L1116.92 409.97ZM1132.91 407.201C1135.48 406.806 1138.07 406.434 1140.68 406.083L1140.54 405.092C1137.93 405.444 1135.34 405.817 1132.76 406.212L1132.91 407.201ZM1148.55 405.096C1151.2 404.788 1153.86 404.503 1156.54 404.24L1156.44 403.245C1153.75 403.508 1151.09 403.794 1148.44 404.102L1148.55 405.096ZM1164.64 403.519C1167.29 403.306 1169.97 403.114 1172.66 402.944L1172.6 401.946C1169.9 402.116 1167.22 402.308 1164.56 402.522L1164.64 403.519ZM1180.51 402.515C1183.14 402.392 1185.79 402.29 1188.45 402.208L1188.42 401.209C1185.75 401.29 1183.1 401.393 1180.46 401.516L1180.51 402.515ZM1196.51 402.027C1199.21 401.987 1201.93 401.969 1204.67 401.971L1204.67 400.971C1201.92 400.969 1199.2 400.987 1196.49 401.027L1196.51 402.027ZM1212.69 402.04C1215.29 402.082 1217.9 402.142 1220.53 402.222L1220.56 401.222C1217.93 401.142 1215.31 401.082 1212.71 401.04L1212.69 402.04ZM1228.47 402.518C1231.14 402.636 1233.81 402.773 1236.51 402.93L1236.57 401.932C1233.87 401.775 1231.18 401.637 1228.52 401.519L1228.47 402.518ZM1244.64 403.46C1247.33 403.653 1250.04 403.866 1252.77 404.098L1252.85 403.101C1250.12 402.869 1247.41 402.656 1244.71 402.462L1244.64 403.46ZM1260.54 404.808C1263.14 405.062 1265.76 405.334 1268.4 405.623L1268.51 404.629C1265.87 404.34 1263.24 404.067 1260.63 403.813L1260.54 404.808ZM1276.35 406.545C1279.01 406.87 1281.69 407.212 1284.38 407.573L1284.52 406.582C1281.82 406.221 1279.13 405.877 1276.47 405.552L1276.35 406.545ZM1292.51 408.709C1295.13 409.09 1297.76 409.488 1300.41 409.903L1300.56 408.915C1297.91 408.5 1295.28 408.101 1292.66 407.719L1292.51 408.709ZM1308.13 411.156C1310.72 411.589 1313.32 412.039 1315.94 412.504L1316.11 411.52C1313.49 411.053 1310.89 410.603 1308.3 410.169L1308.13 411.156ZM1323.82 413.949C1326.47 414.447 1329.12 414.961 1331.79 415.491L1331.99 414.511C1329.31 413.98 1326.65 413.465 1324.01 412.966L1323.82 413.949ZM1339.84 417.132C1341.19 417.413 1342.54 417.699 1343.9 417.989L1344.1 417.011C1342.75 416.721 1341.39 416.435 1340.05 416.153L1339.84 417.132ZM1343.9 417.989C1345.24 418.277 1346.59 418.563 1347.93 418.845L1348.14 417.867C1346.79 417.584 1345.45 417.299 1344.1 417.011L1343.9 417.989ZM1355.94 420.509C1358.6 421.053 1361.25 421.586 1363.89 422.108L1364.09 421.127C1361.45 420.605 1358.8 420.073 1356.14 419.529L1355.94 420.509ZM1371.77 423.643C1374.38 424.143 1376.99 424.633 1379.58 425.113L1379.76 424.13C1377.17 423.651 1374.57 423.161 1371.96 422.66L1371.77 423.643ZM1387.32 426.52C1389.95 426.989 1392.58 427.448 1395.18 427.896L1395.35 426.91C1392.75 426.463 1390.13 426.005 1387.5 425.535L1387.32 426.52ZM1403.26 429.252C1405.94 429.693 1408.61 430.121 1411.27 430.539L1411.42 429.551C1408.77 429.134 1406.1 428.706 1403.42 428.266L1403.26 429.252ZM1419.19 431.755C1421.82 432.148 1424.44 432.531 1427.05 432.901L1427.19 431.911C1424.58 431.541 1421.97 431.159 1419.34 430.766L1419.19 431.755ZM1434.82 433.979C1437.51 434.341 1440.18 434.69 1442.84 435.028L1442.97 434.036C1440.31 433.699 1437.64 433.349 1434.96 432.988L1434.82 433.979ZM1450.94 436.022C1453.63 436.341 1456.3 436.647 1458.96 436.94L1459.07 435.946C1456.42 435.653 1453.75 435.347 1451.06 435.029L1450.94 436.022ZM1466.9 437.782C1469.53 438.051 1472.15 438.306 1474.76 438.55L1474.85 437.554C1472.25 437.311 1469.63 437.056 1467 436.788L1466.9 437.782ZM1482.65 439.252C1485.39 439.484 1488.12 439.702 1490.82 439.906L1490.9 438.909C1488.19 438.705 1485.47 438.487 1482.74 438.256L1482.65 439.252ZM1498.9 440.476C1501.58 440.653 1504.24 440.816 1506.89 440.965L1506.95 439.967C1504.3 439.818 1501.64 439.655 1498.97 439.479L1498.9 440.476ZM1514.79 441.372C1517.44 441.495 1520.07 441.605 1522.68 441.701L1522.72 440.702C1520.11 440.606 1517.48 440.496 1514.84 440.373L1514.79 441.372ZM1530.87 441.959C1533.59 442.03 1536.29 442.086 1538.97 442.128L1538.99 441.128C1536.31 441.087 1533.61 441.03 1530.9 440.959L1530.87 441.959ZM1546.97 442.208C1549.62 442.22 1552.25 442.217 1554.87 442.2L1554.86 441.2C1552.25 441.217 1549.62 441.22 1546.97 441.208L1546.97 442.208ZM1562.84 442.103C1565.58 442.053 1568.31 441.988 1571.01 441.907L1570.98 440.907C1568.28 440.988 1565.56 441.054 1562.83 441.103L1562.84 442.103ZM1579.07 441.615C1581.74 441.502 1584.39 441.373 1587.03 441.228L1586.97 440.23C1584.34 440.374 1581.69 440.503 1579.03 440.616L1579.07 441.615ZM1594.88 440.748C1597.6 440.563 1600.31 440.362 1603 440.144L1602.92 439.147C1600.23 439.365 1597.53 439.566 1594.81 439.75L1594.88 440.748ZM1611.07 439.433C1613.75 439.179 1616.4 438.908 1619.04 438.62L1618.93 437.626C1616.3 437.913 1613.65 438.184 1610.98 438.438L1611.07 439.433ZM1626.89 437.707C1629.57 437.376 1632.23 437.027 1634.87 436.661L1634.73 435.671C1632.09 436.036 1629.44 436.384 1626.77 436.715L1626.89 437.707ZM1642.91 435.483C1645.57 435.072 1648.21 434.643 1650.83 434.197L1650.66 433.211C1648.04 433.657 1645.41 434.085 1642.76 434.495L1642.91 435.483ZM1658.62 432.804C1661.27 432.309 1663.9 431.796 1666.5 431.264L1666.3 430.285C1663.7 430.815 1661.08 431.327 1658.44 431.821L1658.62 432.804ZM1674.45 429.573C1677.07 428.99 1679.68 428.389 1682.26 427.768L1682.03 426.796C1679.45 427.415 1676.85 428.015 1674.23 428.597L1674.45 429.573ZM1689.94 425.852C1692.56 425.174 1695.16 424.476 1697.74 423.759L1697.47 422.796C1694.9 423.511 1692.31 424.207 1689.69 424.884L1689.94 425.852ZM1705.52 421.514C1708.09 420.746 1710.63 419.959 1713.16 419.152L1712.85 418.2C1710.33 419.004 1707.79 419.79 1705.23 420.556L1705.52 421.514ZM1720.66 416.674C1723.24 415.793 1725.81 414.891 1728.34 413.968L1728 413.029C1725.47 413.949 1722.92 414.849 1720.34 415.728L1720.66 416.674ZM1735.88 411.139C1738.37 410.176 1740.84 409.193 1743.28 408.19L1742.9 407.265C1740.46 408.265 1738.01 409.246 1735.52 410.207L1735.88 411.139ZM1750.67 405.067C1753.15 403.984 1755.61 402.881 1758.05 401.757L1757.63 400.849C1755.2 401.97 1752.75 403.07 1750.27 404.15L1750.67 405.067ZM1765.28 398.325C1767.68 397.158 1770.05 395.971 1772.39 394.764L1771.93 393.875C1769.59 395.078 1767.23 396.263 1764.85 397.427L1765.28 398.325ZM1779.56 390.97C1781.92 389.685 1784.26 388.379 1786.57 387.053L1786.08 386.185C1783.77 387.507 1781.44 388.81 1779.08 390.091L1779.56 390.97ZM1793.44 383.015C1795.75 381.62 1798.04 380.203 1800.3 378.767L1799.76 377.923C1797.51 379.355 1795.23 380.767 1792.92 382.159L1793.44 383.015ZM1807.04 374.374C1809.27 372.889 1811.46 371.385 1813.64 369.862L1813.06 369.043C1810.9 370.562 1808.71 372.062 1806.49 373.542L1807.04 374.374ZM1820.16 365.17C1822.33 363.573 1824.48 361.956 1826.59 360.32L1825.98 359.529C1823.87 361.16 1821.73 362.773 1819.57 364.365L1820.16 365.17ZM1832.87 355.355C1834.96 353.667 1837.02 351.96 1839.05 350.234L1838.4 349.472C1836.38 351.192 1834.32 352.895 1832.24 354.578L1832.87 355.355ZM1845.13 344.956C1847.13 343.178 1849.11 341.382 1851.06 339.567L1850.38 338.835C1848.44 340.644 1846.47 342.435 1844.47 344.208L1845.13 344.956ZM1856.88 334.043C1858.81 332.17 1860.71 330.279 1862.59 328.371L1861.88 327.67C1860 329.572 1858.11 331.458 1856.18 333.326L1856.88 334.043ZM1868.15 322.597C1869.99 320.648 1871.8 318.683 1873.59 316.702L1872.85 316.032C1871.07 318.008 1869.26 319.968 1867.43 321.911L1868.15 322.597ZM1878.92 310.678C1880.68 308.653 1882.4 306.613 1884.11 304.558L1883.34 303.919C1881.64 305.969 1879.91 308.004 1878.17 310.023L1878.92 310.678ZM1889.17 298.333C1890.84 296.236 1892.49 294.124 1894.12 291.997L1893.32 291.39C1891.7 293.511 1890.06 295.618 1888.39 297.71L1889.17 298.333ZM1898.93 285.575C1900.52 283.418 1902.08 281.246 1903.62 279.062L1902.8 278.485C1901.26 280.665 1899.71 282.831 1898.12 284.983L1898.93 285.575ZM1908.19 272.456C1909.69 270.241 1911.18 268.013 1912.64 265.774L1911.8 265.227C1910.34 267.462 1908.86 269.685 1907.36 271.894L1908.19 272.456ZM1916.96 259.013C1918.39 256.746 1919.79 254.467 1921.18 252.176L1920.32 251.659C1918.94 253.944 1917.54 256.219 1916.12 258.482L1916.96 259.013ZM1925.27 245.273C1926.62 242.961 1927.95 240.637 1929.26 238.304L1928.38 237.815C1927.08 240.144 1925.75 242.462 1924.41 244.77L1925.27 245.273ZM1933.13 231.273C1934.41 228.919 1935.66 226.556 1936.9 224.185L1936.01 223.722C1934.78 226.089 1933.52 228.448 1932.25 230.797L1933.13 231.273ZM1940.56 217.042C1941.77 214.652 1942.95 212.254 1944.12 209.848L1943.22 209.41C1942.06 211.812 1940.87 214.206 1939.67 216.592L1940.56 217.042ZM1947.59 202.607C1948.72 200.185 1949.85 197.756 1950.95 195.321L1950.04 194.907C1948.94 197.339 1947.82 199.764 1946.68 202.182L1947.59 202.607ZM1954.23 187.991C1955.31 185.542 1956.37 183.087 1957.41 180.627L1956.49 180.235C1955.45 182.692 1954.39 185.143 1953.31 187.589L1954.23 187.991ZM1960.52 173.222C1961.54 170.747 1962.54 168.267 1963.53 165.782L1962.6 165.411C1961.61 167.892 1960.61 170.369 1959.59 172.841L1960.52 173.222ZM1966.47 158.317C1967.44 155.82 1968.39 153.32 1969.33 150.816L1968.39 150.465C1967.45 152.965 1966.5 155.463 1965.54 157.956L1966.47 158.317ZM1972.12 143.287C1973.03 140.774 1973.94 138.259 1974.83 135.743L1973.89 135.408C1973 137.922 1972.09 140.434 1971.18 142.944L1972.12 143.287ZM1977.48 128.163C1978.36 125.63 1979.22 123.096 1980.07 120.561L1979.12 120.243C1978.27 122.775 1977.41 125.306 1976.54 127.837L1977.48 128.163ZM1982.59 112.956C1983.43 110.408 1984.25 107.859 1985.06 105.311L1984.11 105.007C1983.3 107.553 1982.47 110.099 1981.64 112.645L1982.59 112.956ZM1987.48 97.6539C1988.27 95.1024 1989.06 92.552 1989.84 90.0034L1988.88 89.7119C1988.1 92.2585 1987.32 94.8069 1986.52 97.3563L1987.48 97.6539ZM1992.16 82.3052C1992.92 79.7362 1993.68 77.1697 1994.43 74.6062L1993.47 74.3256C1992.72 76.8874 1991.96 79.4522 1991.2 82.0194L1992.16 82.3052ZM1996.65 66.9255C1997.4 64.34 1998.13 61.7583 1998.86 59.181L1997.89 58.9097C1997.17 61.4856 1996.43 64.0658 1995.69 66.6498L1996.65 66.9255ZM2001.02 51.4544C2001.73 48.8814 2002.44 46.3135 2003.14 43.7513L2002.17 43.4875C2001.47 46.0485 2000.77 48.6153 2000.05 51.187L2001.02 51.4544ZM2005.25 35.9719C2005.95 33.3852 2006.64 30.805 2007.33 28.2322L2006.37 27.974C2005.68 30.5461 2004.99 33.1254 2004.29 35.7112L2005.25 35.9719ZM2009.39 20.4999C2010.08 17.8946 2010.76 15.2975 2011.45 12.7095L2010.48 12.455C2009.8 15.0426 2009.11 17.6391 2008.42 20.2438L2009.39 20.4999ZM2013.48 4.9732C2013.81 3.68852 2014.15 2.40628 2014.48 1.12656L2013.52 0.87344C2013.18 2.15307 2012.85 3.43521 2012.51 4.71975L2013.48 4.9732Z" fill="#5D5E67"/>
</svg>
