<svg width="96" height="96" viewBox="0 0 96 96" fill="none" xmlns="http://www.w3.org/2000/svg">
<circle cx="48" cy="48" r="48" fill="#EEFAEF"/>
<path d="M55.0945 32C54.5264 32.0226 53.9584 32.2267 53.5267 32.6576L32.7509 53.318L25.5007 46.1292C24.6139 45.2448 23.1599 45.2214 22.2505 46.1066L19.682 48.6919C18.7727 49.5763 18.7727 51.028 19.682 51.9357L31.1371 63.3432C31.5914 63.7733 32.1602 64 32.7735 64C33.4328 64 33.9556 63.7273 34.3873 63.3432L59.3897 38.486C60.2765 37.579 60.2765 36.1274 59.3897 35.243L56.7987 32.6576C56.2984 32.159 55.7086 32 55.0945 32ZM70.2089 32.681L44.0478 58.6937C43.8202 58.9204 43.8202 59.3505 44.0478 59.5999L47.7983 63.3432C48.2978 63.8192 48.8667 64 49.5026 64C50.1844 64 50.6847 63.6595 51.1164 63.2512L76.0502 38.486C76.9596 37.6016 76.9596 36.1274 76.0502 35.243L73.4592 32.6802C73.0049 32.2719 72.4812 32.0226 71.9131 32C71.1861 32 70.5954 32.2953 70.2089 32.681ZM55.8893 33.588L58.4585 36.1282C58.8677 36.5365 58.8677 37.1707 58.4585 37.5798L33.4788 62.4354C33.2746 62.6621 32.9333 62.7299 32.7517 62.7299C32.479 62.7533 32.2062 62.5709 32.0473 62.4354L20.568 51.028C20.1589 50.6197 20.1589 50.0064 20.568 49.5989L23.1825 47.0369C23.5916 46.6286 24.1822 46.6286 24.5913 47.0369L32.2966 54.6801C32.5468 54.9294 32.9559 54.9294 33.206 54.6801L54.4353 33.588C54.6176 33.3839 54.867 33.2935 55.1179 33.2701C55.4124 33.2475 55.7529 33.4291 55.8893 33.588ZM71.8905 33.2701C72.1415 33.2927 72.3682 33.3839 72.5498 33.5646L75.1408 36.1274C75.5499 36.5357 75.5499 37.1481 75.1408 37.5564L50.1392 62.4354C49.8883 62.6621 49.6389 62.7299 49.48 62.7299C49.1394 62.7299 48.9119 62.6161 48.7077 62.4354L45.4115 59.148L71.1183 33.5646C71.3685 33.3153 71.6638 33.2701 71.8905 33.2701Z" fill="#70D178"/>
</svg>
