<svg width="243" height="108" viewBox="0 0 243 108" fill="none" xmlns="http://www.w3.org/2000/svg">
<path d="M233.831 46.1738C234.257 51.5983 231.555 57.1052 226.147 62.4359C220.741 67.7639 212.683 72.8608 202.547 77.4426C182.279 86.6043 153.805 93.6602 121.935 96.4195C90.0649 99.1788 60.8747 97.1155 39.4498 91.5635C28.735 88.787 19.99 85.1449 13.825 80.8187C7.65696 76.4903 4.1312 71.5226 3.70469 66.0981C3.27817 60.6735 5.98035 55.1666 11.3889 49.8359C16.7948 44.5079 24.8527 39.411 34.9889 34.8292C55.257 25.6675 83.7302 18.6116 115.6 15.8523C147.471 13.093 176.661 15.1563 198.086 20.7083C208.801 23.4848 217.546 27.1269 223.711 31.4531C229.879 35.7815 233.404 40.7492 233.831 46.1738Z" stroke="#1565D8"/>
<path d="M238.328 66.6721C237.773 72.0837 234.131 76.9577 227.862 81.1236C221.596 85.2874 212.767 88.6999 201.99 91.1957C180.44 96.1862 151.21 97.4863 119.415 93.8952C87.6197 90.3041 59.3227 82.5065 39.2783 72.8181C29.2539 67.9729 21.3194 62.6671 16.0416 57.1994C10.7611 51.7291 8.19051 46.1534 8.74558 40.7418C9.30065 35.3301 12.9431 30.4561 19.2119 26.2902C25.4777 22.1264 34.3064 18.7139 45.0837 16.2181C66.6338 11.2277 95.8639 9.92757 127.659 13.5187C159.454 17.1098 187.751 24.9073 207.795 34.5957C217.82 39.4409 225.754 44.7468 231.032 50.2144C236.312 55.6847 238.883 61.2605 238.328 66.6721Z" stroke="#FE8A71"/>
</svg>
