<svg width="959" height="144" viewBox="0 0 959 144" fill="none" xmlns="http://www.w3.org/2000/svg">
<rect x="0.5" y="6.5" width="958" height="120" rx="60" stroke="#FFC9BD"/>
<path d="M461 127.5L485.75 113.211L485.75 141.789L461 127.5Z" fill="#FFE8E3"/>
<path d="M60 126.5L60.0434 125.811L60.1728 125.132L60.3862 124.475L60.6803 123.85L61.0504 123.267L61.4907 122.735L61.9942 122.262L62.553 121.856L63.1582 121.523L63.8004 121.269L64.4694 121.097L65.1547 121.011L65.8453 121.011L66.5306 121.097L67.1996 121.269L67.8418 121.523L68.447 121.856L69.0058 122.262L69.5093 122.735L69.9496 123.267L70.3197 123.85L70.6138 124.475L70.8272 125.132L70.9566 125.811L71 126.5L70.9566 127.189L70.8272 127.868L70.6138 128.525L70.3197 129.15L69.9496 129.733L69.5093 130.265L69.0058 130.738L68.447 131.144L67.8418 131.477L67.1996 131.731L66.5306 131.903L65.8453 131.989L65.1547 131.989L64.4694 131.903L63.8004 131.731L63.1582 131.477L62.553 131.144L61.9942 130.738L61.4907 130.265L61.0504 129.733L60.6803 129.15L60.3862 128.525L60.1728 127.868L60.0434 127.189L60 126.5Z" fill="#FFE8E3"/>
<path d="M473 126.5L473.043 125.811L473.173 125.132L473.386 124.475L473.68 123.85L474.05 123.267L474.491 122.735L474.994 122.262L475.553 121.856L476.158 121.523L476.8 121.269L477.469 121.097L478.155 121.011L478.845 121.011L479.531 121.097L480.2 121.269L480.842 121.523L481.447 121.856L482.006 122.262L482.509 122.735L482.95 123.267L483.32 123.85L483.614 124.475L483.827 125.132L483.957 125.811L484 126.5L483.957 127.189L483.827 127.868L483.614 128.525L483.32 129.15L482.95 129.733L482.509 130.265L482.006 130.738L481.447 131.144L480.842 131.477L480.2 131.731L479.531 131.903L478.845 131.989L478.155 131.989L477.469 131.903L476.8 131.731L476.158 131.477L475.553 131.144L474.994 130.738L474.491 130.265L474.05 129.733L473.68 129.15L473.386 128.525L473.173 127.868L473.043 127.189L473 126.5Z" fill="#FFE8E3"/>
<path d="M882 126.5L882.043 125.811L882.173 125.132L882.386 124.475L882.68 123.85L883.05 123.267L883.491 122.735L883.994 122.262L884.553 121.856L885.158 121.523L885.8 121.269L886.469 121.097L887.155 121.011L887.845 121.011L888.531 121.097L889.2 121.269L889.842 121.523L890.447 121.856L891.006 122.262L891.509 122.735L891.95 123.267L892.32 123.85L892.614 124.475L892.827 125.132L892.957 125.811L893 126.5L892.957 127.189L892.827 127.868L892.614 128.525L892.32 129.15L891.95 129.733L891.509 130.265L891.006 130.738L890.447 131.144L889.842 131.477L889.2 131.731L888.531 131.903L887.845 131.989L887.155 131.989L886.469 131.903L885.8 131.731L885.158 131.477L884.553 131.144L883.994 130.738L883.491 130.265L883.05 129.733L882.68 129.15L882.386 128.525L882.173 127.868L882.043 127.189L882 126.5Z" fill="#FFE8E3"/>
<path d="M60 5.5L60.0434 4.81067L60.1728 4.13221L60.3862 3.47532L60.6803 2.85036L61.0504 2.26718L61.4907 1.73499L61.9942 1.26218L62.553 0.856196L63.1582 0.523451L63.8004 0.26919L64.4694 0.0974195L65.1547 0.0108526L65.8453 0.0108526L66.5306 0.0974195L67.1996 0.26919L67.8418 0.523451L68.447 0.856196L69.0058 1.26218L69.5093 1.73499L69.9496 2.26718L70.3197 2.85035L70.6138 3.47531L70.8272 4.13221L70.9566 4.81067L71 5.5L70.9566 6.18933L70.8272 6.86779L70.6138 7.52468L70.3197 8.14964L69.9496 8.73282L69.5093 9.26501L69.0058 9.73782L68.447 10.1438L67.8418 10.4765L67.1996 10.7308L66.5306 10.9026L65.8453 10.9891L65.1547 10.9891L64.4694 10.9026L63.8004 10.7308L63.1582 10.4765L62.553 10.1438L61.9942 9.73782L61.4907 9.26501L61.0504 8.73282L60.6803 8.14965L60.3862 7.52469L60.1728 6.86779L60.0434 6.18933L60 5.5Z" fill="#FFE8E3"/>
<path d="M473 5.5L473.043 4.81067L473.173 4.13221L473.386 3.47532L473.68 2.85036L474.05 2.26718L474.491 1.73499L474.994 1.26218L475.553 0.856196L476.158 0.523451L476.8 0.26919L477.469 0.0974195L478.155 0.0108526L478.845 0.0108526L479.531 0.0974195L480.2 0.26919L480.842 0.523451L481.447 0.856196L482.006 1.26218L482.509 1.73499L482.95 2.26718L483.32 2.85035L483.614 3.47531L483.827 4.13221L483.957 4.81067L484 5.5L483.957 6.18933L483.827 6.86779L483.614 7.52468L483.32 8.14964L482.95 8.73282L482.509 9.26501L482.006 9.73782L481.447 10.1438L480.842 10.4765L480.2 10.7308L479.531 10.9026L478.845 10.9891L478.155 10.9891L477.469 10.9026L476.8 10.7308L476.158 10.4765L475.553 10.1438L474.994 9.73782L474.491 9.26501L474.05 8.73282L473.68 8.14965L473.386 7.52469L473.173 6.86779L473.043 6.18933L473 5.5Z" fill="#FFE8E3"/>
<path d="M882 5.5L882.043 4.81067L882.173 4.13221L882.386 3.47532L882.68 2.85036L883.05 2.26718L883.491 1.73499L883.994 1.26218L884.553 0.856196L885.158 0.523451L885.8 0.26919L886.469 0.0974195L887.155 0.0108526L887.845 0.0108526L888.531 0.0974195L889.2 0.26919L889.842 0.523451L890.447 0.856196L891.006 1.26218L891.509 1.73499L891.95 2.26718L892.32 2.85035L892.614 3.47531L892.827 4.13221L892.957 4.81067L893 5.5L892.957 6.18933L892.827 6.86779L892.614 7.52468L892.32 8.14964L891.95 8.73282L891.509 9.26501L891.006 9.73782L890.447 10.1438L889.842 10.4765L889.2 10.7308L888.531 10.9026L887.845 10.9891L887.155 10.9891L886.469 10.9026L885.8 10.7308L885.158 10.4765L884.553 10.1438L883.994 9.73782L883.491 9.26501L883.05 8.73282L882.68 8.14965L882.386 7.52469L882.173 6.86779L882.043 6.18933L882 5.5Z" fill="#FFE8E3"/>
</svg>
