<svg width="216" height="216" viewBox="0 0 216 216" fill="none" xmlns="http://www.w3.org/2000/svg">
<path d="M216 108C216 48.3532 167.647 0 108 0C48.3532 0 0 48.3532 0 108C0 167.647 48.3532 216 108 216C167.647 216 216 167.647 216 108Z" fill="#181926"/>
<path fill-rule="evenodd" clip-rule="evenodd" d="M70.1582 130.124C73.9835 136.647 77.7867 143.154 81.5677 149.645C97.8967 121.685 114.208 93.7422 130.502 65.8149C114.852 65.8149 74.9213 65.508 75.1162 65.8149H55.4521C52.4702 60.7428 54.5659 64.3682 48.704 54.3206L45.5624 48.9376H150.18L151.172 50.6909C159.233 64.4618 167.275 78.2164 175.298 91.955L176.344 93.7086L175.298 95.519C167.237 109.293 159.195 123.049 151.172 136.788L150.18 138.541H130.502L140.339 121.708L144.685 114.303L144.947 113.839L145.208 113.422L145.416 112.958L145.678 112.519L145.939 112.054L146.2 111.638L146.462 111.226L146.723 110.761L146.985 110.345L147.72 108.999L156.613 93.7261C152.847 87.2514 149.027 80.7283 145.257 74.2054L129.749 100.766L129.594 101.078L129.173 101.748L128.81 102.371L128.442 103.046L128.025 103.717L127.657 104.339L127.29 105.014L126.922 105.685L126.505 106.307L126.138 106.978L125.353 108.293L124.986 108.964L124.622 109.587L124.201 110.261L123.838 110.932L123.47 111.555L123.027 112.225L122.664 112.901L122.296 113.523L121.928 114.194L121.512 114.869L120.781 116.162L108.689 136.823L81.5677 183.352L78.426 177.968C69.4788 162.643 60.5122 147.3 51.5264 131.939L50.4808 130.124L51.5264 128.314C57.0251 118.889 62.5725 109.516 68.0667 100.096L78.1648 82.6922H97.8466L70.1582 130.124Z" fill="#FE8A71"/>
</svg>
