<svg width="429" height="442" viewBox="0 0 429 442" fill="none" xmlns="http://www.w3.org/2000/svg">
<path fill-rule="evenodd" clip-rule="evenodd" d="M330.437 312.524C330.437 285.563 352.324 263.699 379.325 263.699C406.325 263.699 428.214 285.559 428.214 312.524C428.214 339.49 406.325 361.354 379.325 361.354C352.324 361.354 330.437 339.489 330.437 312.524Z" fill="#F3F6FF"/>
<path fill-rule="evenodd" clip-rule="evenodd" d="M61.2825 208.294C61.2825 140.686 116.16 85.8784 183.857 85.8784C251.553 85.8784 306.431 140.684 306.431 208.294C306.431 275.903 251.553 330.709 183.857 330.709C116.16 330.709 61.2825 275.901 61.2825 208.294Z" fill="#EAF0FF"/>
<path fill-rule="evenodd" clip-rule="evenodd" d="M69.4154 251.176C72.8646 247.996 84.9665 236.902 87.4713 235.772C89.9761 234.641 119.024 267.004 116.155 269.319C113.286 271.635 98.102 285.601 92.3917 289.152C80.9853 276.753 73.0542 262.515 69.4154 251.176Z" fill="white"/>
<path d="M68.2543 248.362C71.7035 245.181 83.3773 234.427 85.8856 233.297C88.3938 232.166 117.651 266.924 114.782 269.238C111.913 271.553 96.6849 286.398 92.1846 289.244" stroke="#1B3C87" stroke-width="1.56385" stroke-linecap="round" stroke-linejoin="round"/>
<path fill-rule="evenodd" clip-rule="evenodd" d="M144.664 214.62C161.309 239.903 120.431 271.631 114.174 273.454C107.917 275.277 80.9747 238.414 82.9256 233.56C84.8765 228.705 124.564 184.09 144.664 214.62Z" fill="#FE8A71"/>
<path d="M102.004 209.837C115.22 200.68 131.668 195.397 142.465 211.796C159.109 237.079 118.231 268.807 111.974 270.63C105.717 272.453 78.7749 235.586 80.7266 230.735C81.1049 229.797 82.8977 227.365 85.6899 224.279" stroke="#1B3C87" stroke-width="1.56385" stroke-linecap="round" stroke-linejoin="round"/>
<path fill-rule="evenodd" clip-rule="evenodd" d="M178.108 193.177C159.36 193.065 140.913 196.667 131.821 203.722C117.056 215.18 107.236 286.008 111.471 307.086C131.753 321.933 156.774 330.707 183.85 330.707C205.224 330.707 225.316 325.236 242.811 315.631C245.908 289.313 238.274 214.077 226.2 204.924C215.906 197.119 196.857 193.29 178.108 193.177Z" fill="#FE8A71"/>
<path d="M115.128 233.911C118.68 218.336 123.436 205.348 129.071 200.976C147.256 186.868 202.861 186.567 223.45 202.177C236.259 211.89 244.64 296.133 239.38 317.145" stroke="#1B3C87" stroke-width="1.56385" stroke-linecap="round" stroke-linejoin="round"/>
<path d="M108.783 304.688C107.933 299.326 107.88 290.629 108.521 280.472" stroke="#1B3C87" stroke-width="1.56385" stroke-linecap="round" stroke-linejoin="round"/>
<path d="M25.0256 1L81.0271 22.1151L56.9936 85.6769L1 64.5627L25.0256 1Z" stroke="#B6C6FC" stroke-width="1.56385" stroke-linecap="round" stroke-linejoin="round"/>
<path d="M276.158 332.385L288.055 440.431L364.64 310.108L276.158 332.385Z" stroke="#B6C6FC" stroke-width="1.56385" stroke-linecap="round" stroke-linejoin="round"/>
<path d="M23.3508 90.8618C23.3508 72.7132 38.0816 58.0024 56.2528 58.0024C74.424 58.0024 89.1522 72.7141 89.1522 90.8618C89.1522 109.009 74.4214 123.721 56.2502 123.721C38.079 123.721 23.3508 109.009 23.3508 90.8618Z" stroke="#B6C6FC" stroke-width="1.56385" stroke-linecap="round" stroke-linejoin="round"/>
<path fill-rule="evenodd" clip-rule="evenodd" d="M256.895 307.693C254.282 305.084 236.276 280.557 234.248 278.249C232.219 275.94 270.716 244.059 273.083 246.846C275.451 249.634 284.943 262.901 289.369 270.195C285.813 276.597 266.146 301.387 256.895 307.693Z" fill="white"/>
<path d="M257.768 305.75C255.584 302.776 236.069 275.926 234.04 273.617C232.01 271.307 270.509 239.427 272.876 242.215C275.244 245.002 286.583 260.501 290.488 268.085" stroke="#1B3C87" stroke-width="1.56385" stroke-linecap="round" stroke-linejoin="round"/>
<path fill-rule="evenodd" clip-rule="evenodd" d="M215.526 201.158C234.966 187.836 281.886 233.588 281.769 247.227C281.651 260.865 239.934 285.648 232.985 282.069C225.326 278.127 185.697 221.587 215.526 201.158Z" fill="#FE8A71"/>
<path d="M203.812 230.932C201.191 218.25 202.874 206.086 213.696 198.674C233.139 185.355 280.055 231.107 279.937 244.749C279.819 258.391 238.104 283.169 231.154 279.591C228.931 278.445 224.012 272.867 218.881 265.026" stroke="#1B3C87" stroke-width="1.56385" stroke-linecap="round" stroke-linejoin="round"/>
<path d="M61.2825 208.294C61.2825 140.686 116.16 85.8784 183.857 85.8784C251.553 85.8784 306.431 140.684 306.431 208.294C306.431 275.903 251.553 330.709 183.857 330.709C116.16 330.709 61.2825 275.901 61.2825 208.294Z" stroke="#1B3C87" stroke-width="1.56385" stroke-linecap="round" stroke-linejoin="round"/>
<path fill-rule="evenodd" clip-rule="evenodd" d="M289.22 228.668C289.341 225.151 296.203 223.725 304.548 225.481C312.893 227.238 319.561 231.512 319.442 235.028C319.322 238.545 312.458 239.971 304.112 238.215C295.767 236.458 289.097 232.185 289.22 228.668Z" fill="white"/>
<path fill-rule="evenodd" clip-rule="evenodd" d="M291.695 215.215C291.816 211.698 298.678 210.271 307.023 212.027C315.369 213.784 322.037 218.058 321.917 221.575C321.796 225.091 314.933 226.518 306.587 224.762C298.242 223.005 291.579 218.731 291.695 215.215Z" fill="white"/>
<path fill-rule="evenodd" clip-rule="evenodd" d="M291.375 201.311C291.496 197.795 298.358 196.368 306.704 198.124C315.051 199.879 321.717 204.155 321.597 207.671C321.476 211.187 314.613 212.615 306.268 210.858C297.922 209.102 291.255 204.827 291.375 201.311Z" fill="white"/>
<path d="M294.805 196.208C297.548 195.702 301.219 195.811 305.233 196.655C313.578 198.412 320.246 202.686 320.126 206.202C320.044 208.577 316.889 209.999 312.278 210.129" stroke="#1B3C87" stroke-width="1.56385" stroke-linecap="round" stroke-linejoin="round"/>
<path d="M292.749 210.803C295.499 209.614 300.224 209.437 305.553 210.559C313.898 212.315 320.566 216.59 320.445 220.106C320.358 222.67 316.689 224.12 311.467 224.041" stroke="#1B3C87" stroke-width="1.56385" stroke-linecap="round" stroke-linejoin="round"/>
<path d="M294.462 223.331C296.922 223.136 299.89 223.342 303.074 224.013C311.42 225.769 318.087 230.043 317.967 233.56C317.892 235.757 315.182 237.137 311.123 237.437" stroke="#1B3C87" stroke-width="1.56385" stroke-linecap="round" stroke-linejoin="round"/>
<path fill-rule="evenodd" clip-rule="evenodd" d="M45.3732 206.416C45.4938 202.899 52.3572 201.473 60.7024 203.229C69.0476 204.986 75.7153 209.259 75.5948 212.776C75.4742 216.294 68.6116 217.719 60.2656 215.963C51.9195 214.206 45.2526 209.932 45.3732 206.416Z" fill="white"/>
<path fill-rule="evenodd" clip-rule="evenodd" d="M47.8509 192.962C47.9714 189.446 54.8349 188.019 63.1801 189.776C71.5252 191.532 78.193 195.806 78.0724 199.325C77.9519 202.844 71.0893 204.268 62.7441 202.512C54.3989 200.755 47.7303 196.479 47.8509 192.962Z" fill="white"/>
<path fill-rule="evenodd" clip-rule="evenodd" d="M47.5311 179.058C47.6517 175.542 54.5152 174.115 62.8603 175.872C71.2055 177.628 77.8733 181.903 77.7527 185.419C77.6322 188.935 70.7696 190.362 62.4244 188.605C54.0792 186.849 47.4114 182.573 47.5311 179.058Z" fill="white"/>
<path d="M49.2583 182.383C46.6898 180.691 45.1408 178.799 45.1993 177.088C45.3199 173.572 52.1833 172.145 60.5285 173.902C64.2669 174.687 67.668 175.98 70.2742 177.479" stroke="#1B3C87" stroke-width="1.56385" stroke-linecap="round" stroke-linejoin="round"/>
<path d="M52.7914 198.054C48.3654 196.008 45.4387 193.332 45.5191 190.992C45.6396 187.475 52.5031 186.049 60.8483 187.804C64.3254 188.536 67.5117 189.706 70.0365 191.075" stroke="#1B3C87" stroke-width="1.56385" stroke-linecap="round" stroke-linejoin="round"/>
<path d="M55.1136 213.286C48.1375 211.256 42.9348 207.554 43.0414 204.444C43.162 200.928 50.0254 199.5 58.3706 201.257C63.2517 202.285 67.5598 204.173 70.2698 206.268" stroke="#1B3C87" stroke-width="1.56385" stroke-linecap="round" stroke-linejoin="round"/>
<path fill-rule="evenodd" clip-rule="evenodd" d="M196.864 166.279C196.07 170.793 192.408 188.97 195.214 208.674C191.977 211.117 173.104 212.882 167.912 208.674C168.096 200.682 168.279 184.7 167.546 180.613C166.814 176.526 197.661 161.765 196.864 166.279Z" fill="white"/>
<path d="M165.793 206.053C165.976 198.061 166.159 182.079 165.426 177.992C164.693 173.905 195.538 159.146 194.744 163.657C193.951 168.169 190.289 186.349 193.095 206.053C191.63 207.156 186.962 208.123 181.808 208.461" stroke="#1B3C87" stroke-width="1.56385" stroke-linecap="round" stroke-linejoin="round"/>
<path fill-rule="evenodd" clip-rule="evenodd" d="M135.23 140.122C137.026 118.115 153.564 101.479 172.166 102.963C190.769 104.447 204.395 123.49 202.598 145.497C200.8 167.503 184.264 184.143 165.661 182.66C147.058 181.177 133.433 162.129 135.23 140.122Z" fill="white"/>
<path d="M183.448 175.11C177.696 179.029 170.967 181.05 163.944 180.49C155.281 179.799 147.694 175.3 142.248 168.467" stroke="#1B3C87" stroke-width="1.56385" stroke-linecap="round" stroke-linejoin="round"/>
<path d="M135.019 154.133C133.613 149.105 133.051 143.629 133.514 137.956C135.31 115.949 151.848 99.313 170.451 100.797C189.055 102.281 202.679 121.324 200.883 143.331C200.341 149.962 198.462 156.105 195.59 161.412" stroke="#1B3C87" stroke-width="1.56385" stroke-linecap="round" stroke-linejoin="round"/>
<path fill-rule="evenodd" clip-rule="evenodd" d="M167.934 132.084C168.191 129.706 169.274 127.872 170.352 127.988C171.43 128.104 172.095 130.127 171.837 132.505C171.579 134.882 170.497 136.717 169.42 136.6C168.342 136.483 167.677 134.462 167.934 132.084Z" fill="#1B3C87"/>
<path d="M153.111 134.077C152.256 137.759 149.885 141.967 147.055 144.198" stroke="#1B3C87" stroke-width="1.56385" stroke-linecap="round" stroke-linejoin="round"/>
<path d="M160.023 156.989C160.023 156.215 160.253 155.459 160.683 154.816C161.114 154.172 161.725 153.671 162.441 153.375C163.157 153.079 163.944 153.001 164.704 153.152C165.464 153.303 166.162 153.676 166.709 154.223C167.257 154.77 167.63 155.467 167.781 156.226C167.932 156.984 167.855 157.771 167.558 158.486C167.262 159.2 166.76 159.811 166.116 160.241C165.472 160.671 164.715 160.9 163.94 160.9C162.901 160.9 161.905 160.488 161.171 159.754C160.436 159.021 160.024 158.026 160.023 156.989V156.989Z" stroke="#1B3C87" stroke-width="1.56385" stroke-linecap="round" stroke-linejoin="round"/>
<path fill-rule="evenodd" clip-rule="evenodd" d="M192.777 146.124C190.412 145.955 183.623 136.283 190.587 129.633C187.171 126.309 167.07 111.283 142.921 120.602C139.784 117.415 131.221 104.603 138.613 99.079C146.005 93.555 149.092 100.235 150.05 102.89C147.817 95.8803 149.074 77.025 167.872 76.8165C186.671 76.608 206.882 131.462 206.065 141.306C205.248 151.15 205.207 152.479 192.777 146.124Z" fill="#FB5D64"/>
<path d="M191.961 102.326C199.072 117.048 203.765 132.799 203.363 137.644C202.545 147.488 202.505 148.817 190.075 142.462C187.71 142.293 180.921 132.621 187.885 125.971C185.182 123.34 172.03 113.381 154.693 113.958" stroke="#1B3C87" stroke-width="1.56385" stroke-linecap="round" stroke-linejoin="round"/>
<path d="M140.219 116.94C137.082 113.754 128.518 100.942 135.91 95.4178C143.302 89.8938 146.394 96.573 147.347 99.229C145.114 92.2182 146.372 73.3638 165.17 73.1544C169.888 73.102 174.699 76.5215 179.242 81.8273" stroke="#1B3C87" stroke-width="1.56385" stroke-linecap="round" stroke-linejoin="round"/>
<path fill-rule="evenodd" clip-rule="evenodd" d="M187.406 150.797C187.406 149.096 187.911 147.433 188.858 146.019C189.804 144.605 191.149 143.502 192.723 142.851C194.296 142.2 196.028 142.03 197.698 142.362C199.369 142.694 200.903 143.513 202.107 144.716C203.312 145.919 204.132 147.451 204.464 149.119C204.797 150.788 204.626 152.517 203.974 154.089C203.322 155.66 202.219 157.003 200.802 157.948C199.386 158.893 197.721 159.398 196.018 159.398C193.734 159.398 191.544 158.492 189.929 156.879C188.314 155.266 187.406 153.078 187.406 150.797Z" fill="white"/>
<path d="M191.638 141.819C192.971 141.207 194.438 140.945 195.9 141.057C197.362 141.17 198.771 141.654 199.994 142.462C201.216 143.271 202.212 144.379 202.886 145.679C203.56 146.98 203.89 148.431 203.845 149.895C203.8 151.359 203.382 152.788 202.629 154.045C201.877 155.302 200.815 156.346 199.546 157.079C198.276 157.812 196.84 158.209 195.373 158.232C193.907 158.255 192.459 157.903 191.167 157.211" stroke="#1B3C87" stroke-width="1.56385" stroke-linecap="round" stroke-linejoin="round"/>
</svg>
