<svg width="96" height="96" viewBox="0 0 96 96" fill="none" xmlns="http://www.w3.org/2000/svg">
<circle cx="48" cy="48" r="48" fill="#FAF1E7"/>
<path d="M48.4678 68C37.4398 68 28.4678 59.028 28.4678 48C28.4678 36.972 37.4398 28 48.4678 28C59.4958 28 68.4678 36.972 68.4678 48C68.4678 59.028 59.4958 68 48.4678 68ZM48.4678 29.3333C38.1751 29.3333 29.8011 37.7073 29.8011 48C29.8011 58.2927 38.1751 66.6667 48.4678 66.6667C58.7604 66.6667 67.1344 58.2927 67.1344 48C67.1344 37.7073 58.7604 29.3333 48.4678 29.3333Z" fill="#E3B978"/>
<path d="M63.8011 48.6668C63.4331 48.6668 63.1344 48.3681 63.1344 48.0001C63.1357 43.8821 61.3231 40.0355 58.0304 37.1701C57.7524 36.9281 57.7237 36.5075 57.9651 36.2295C58.2071 35.9515 58.6277 35.9235 58.9057 36.1641C62.4937 39.2868 64.4691 43.4901 64.4677 48.0001C64.4677 48.3681 64.1691 48.6668 63.8011 48.6668Z" fill="#E3B978"/>
<path d="M53.7856 34.2807C53.709 34.2807 53.631 34.2673 53.555 34.2393C51.9296 33.6387 50.2176 33.334 48.4676 33.3333C48.0996 33.3333 47.801 33.0347 47.801 32.6667C47.801 32.2987 48.0996 32 48.4676 32C50.3763 32.0007 52.243 32.3333 54.0163 32.9887C54.3616 33.116 54.5383 33.4993 54.411 33.8453C54.3116 34.114 54.057 34.2807 53.7856 34.2807Z" fill="#E3B978"/>
<path d="M38.4678 59.9999C38.3164 59.9999 38.1651 59.9486 38.0404 59.8446C34.3931 56.7919 32.4664 52.6953 32.4678 47.9999C32.4678 47.6319 32.7664 47.3333 33.1344 47.3333C33.5024 47.3333 33.8011 47.6319 33.8011 47.9999C33.7998 52.2886 35.5618 56.0306 38.8958 58.8219C39.1784 59.0579 39.2151 59.4786 38.9791 59.7613C38.8471 59.9186 38.6578 59.9999 38.4678 59.9999Z" fill="#E3B978"/>
<path d="M48.4648 64.0002C46.6702 64.0002 44.9075 63.7048 43.2255 63.1215C42.8775 63.0008 42.6935 62.6215 42.8142 62.2735C42.9348 61.9262 43.3142 61.7402 43.6622 61.8622C45.2028 62.3962 46.8188 62.6668 48.4648 62.6668C48.4655 62.6668 48.4668 62.6668 48.4675 62.6668C48.8355 62.6668 49.1342 62.9655 49.1342 63.3335C49.1342 63.7015 48.8355 64.0002 48.4675 64.0002C48.4668 64.0002 48.4655 64.0002 48.4648 64.0002Z" fill="#E3B978"/>
<path d="M45.8011 57.3333C43.9631 57.3333 42.4678 55.838 42.4678 54V44.6667C42.4678 44.2987 42.7664 44 43.1344 44H48.4678C48.8358 44 49.1344 44.2987 49.1344 44.6667V54C49.1344 55.838 47.6391 57.3333 45.8011 57.3333ZM43.8011 45.3333V54C43.8011 55.1027 44.6984 56 45.8011 56C46.9038 56 47.8011 55.1027 47.8011 54V45.3333H43.8011Z" fill="#E3B978"/>
<path d="M51.1343 57.3333C49.2963 57.3333 47.801 55.838 47.801 54V44.6667C47.801 44.2987 48.0996 44 48.4676 44H53.801C54.169 44 54.4676 44.2987 54.4676 44.6667V54C54.4676 55.838 52.9723 57.3333 51.1343 57.3333ZM49.1343 45.3333V54C49.1343 55.1027 50.0316 56 51.1343 56C52.237 56 53.1343 55.1027 53.1343 54V45.3333H49.1343Z" fill="#E3B978"/>
<path d="M51.8011 45.3334H45.1344C44.7664 45.3334 44.4678 45.0347 44.4678 44.6667V41.3341C44.4678 39.8634 45.6644 38.6667 47.1351 38.6667H49.8004C51.2711 38.6667 52.4678 39.8634 52.4678 41.3341V44.6667C52.4678 45.0347 52.1691 45.3334 51.8011 45.3334ZM45.8011 44.0001H51.1344V41.3341C51.1344 40.5981 50.5358 40.0001 49.8004 40.0001H47.1351C46.3998 40.0001 45.8011 40.5981 45.8011 41.3341V44.0001Z" fill="#E3B978"/>
<path d="M47.1346 39.9999C46.7666 39.9999 46.4679 39.7013 46.4679 39.3333C46.4679 37.8626 45.2719 36.6666 43.8012 36.6666C43.4332 36.6666 43.1346 36.3679 43.1346 35.9999C43.1346 35.6319 43.4332 35.3333 43.8012 35.3333C46.0066 35.3333 47.8012 37.1273 47.8012 39.3333C47.8012 39.7013 47.5026 39.9999 47.1346 39.9999Z" fill="#E3B978"/>
<path d="M49.8012 39.9999C49.4332 39.9999 49.1346 39.7013 49.1346 39.3333C49.1346 37.1273 50.9292 35.3333 53.1346 35.3333C53.5026 35.3333 53.8012 35.6319 53.8012 35.9999C53.8012 36.3679 53.5026 36.6666 53.1346 36.6666C51.6639 36.6666 50.4679 37.8626 50.4679 39.3333C50.4679 39.7013 50.1692 39.9999 49.8012 39.9999Z" fill="#E3B978"/>
<path d="M43.1344 47.9999H40.4678C39.3651 47.9999 38.4678 47.1026 38.4678 45.9999V43.9999C38.4678 43.6319 38.7664 43.3333 39.1344 43.3333C39.5024 43.3333 39.8011 43.6319 39.8011 43.9999V45.9999C39.8011 46.3673 40.0998 46.6666 40.4678 46.6666H43.1344C43.5024 46.6666 43.8011 46.9653 43.8011 47.3333C43.8011 47.7013 43.5024 47.9999 43.1344 47.9999Z" fill="#E3B978"/>
<path d="M39.1344 56.6667C38.7664 56.6667 38.4678 56.368 38.4678 56V54C38.4678 52.8973 39.3651 52 40.4678 52H43.1344C43.5024 52 43.8011 52.2987 43.8011 52.6667C43.8011 53.0347 43.5024 53.3333 43.1344 53.3333H40.4678C40.0998 53.3333 39.8011 53.6327 39.8011 54V56C39.8011 56.368 39.5024 56.6667 39.1344 56.6667Z" fill="#E3B978"/>
<path d="M43.1344 50.6666H39.1344C38.7664 50.6666 38.4678 50.3679 38.4678 49.9999C38.4678 49.6319 38.7664 49.3333 39.1344 49.3333H43.1344C43.5024 49.3333 43.8011 49.6319 43.8011 49.9999C43.8011 50.3679 43.5024 50.6666 43.1344 50.6666Z" fill="#E3B978"/>
<path d="M56.4679 47.9999H53.8012C53.4332 47.9999 53.1346 47.7013 53.1346 47.3333C53.1346 46.9653 53.4332 46.6666 53.8012 46.6666H56.4679C56.8359 46.6666 57.1346 46.3673 57.1346 45.9999V43.9999C57.1346 43.6319 57.4332 43.3333 57.8012 43.3333C58.1692 43.3333 58.4679 43.6319 58.4679 43.9999V45.9999C58.4679 47.1026 57.5706 47.9999 56.4679 47.9999Z" fill="#E3B978"/>
<path d="M57.8012 56.6667C57.4332 56.6667 57.1346 56.368 57.1346 56V54C57.1346 53.6327 56.8359 53.3333 56.4679 53.3333H53.8012C53.4332 53.3333 53.1346 53.0347 53.1346 52.6667C53.1346 52.2987 53.4332 52 53.8012 52H56.4679C57.5706 52 58.4679 52.8973 58.4679 54V56C58.4679 56.368 58.1692 56.6667 57.8012 56.6667Z" fill="#E3B978"/>
<path d="M57.8012 50.6666H53.8012C53.4332 50.6666 53.1346 50.3679 53.1346 49.9999C53.1346 49.6319 53.4332 49.3333 53.8012 49.3333H57.8012C58.1692 49.3333 58.4679 49.6319 58.4679 49.9999C58.4679 50.3679 58.1692 50.6666 57.8012 50.6666Z" fill="#E3B978"/>
<path d="M45.8012 50.6667C45.4332 50.6667 45.1346 50.3681 45.1346 50.0001V47.3334C45.1346 46.9654 45.4332 46.6667 45.8012 46.6667C46.1692 46.6667 46.4679 46.9654 46.4679 47.3334V50.0001C46.4679 50.3681 46.1692 50.6667 45.8012 50.6667Z" fill="#E3B978"/>
<path d="M51.1344 54.6667C50.7664 54.6667 50.4678 54.3681 50.4678 54.0001V51.3334C50.4678 50.9654 50.7664 50.6667 51.1344 50.6667C51.5024 50.6667 51.8011 50.9654 51.8011 51.3334V54.0001C51.8011 54.3681 51.5024 54.6667 51.1344 54.6667Z" fill="#E3B978"/>
</svg>
