<svg width="41" height="42" viewBox="0 0 41 42" fill="none" xmlns="http://www.w3.org/2000/svg">
<path d="M37.965 0H3.02695C1.35332 0 0 1.35352 0 3.02695V38.9648C0 40.6383 1.35332 42 3.02695 42H37.965C39.6387 42 41 40.6383 41 38.973V3.02695C41 1.35352 39.6387 0 37.965 0ZM12.1639 35.7902H6.07793V15.7418H12.1639V35.7902ZM9.1209 13.0102C7.16699 13.0102 5.58945 11.3941 5.58945 9.40078C5.58945 7.40742 7.16699 5.79141 9.1209 5.79141C11.0668 5.79141 12.6443 7.40742 12.6443 9.40078C12.6443 11.3859 11.0668 13.0102 9.1209 13.0102ZM34.9381 35.7902H28.8602V26.0449C28.8602 23.7234 28.8201 20.7293 25.6971 20.7293C22.534 20.7293 22.0535 23.2641 22.0535 25.8809V35.7902H15.9836V15.7418H21.8133V18.4816H21.8934C22.7021 16.9066 24.6881 15.2414 27.643 15.2414C33.801 15.2414 34.9381 19.3922 34.9381 24.7898V35.7902Z" fill="white"/>
</svg>
