<svg width="932" height="277" viewBox="0 0 932 277" fill="none" xmlns="http://www.w3.org/2000/svg">
<path d="M66.0861 192.283C69.072 192.554 71.1755 193.369 72.397 194.728C73.7543 195.951 74.4328 197.717 74.4328 200.026C74.4328 202.743 73.3471 204.849 71.1755 206.343C69.1398 207.701 66.0861 208.245 62.0146 207.973L56.518 207.565C45.5249 206.75 37.314 203.422 31.8852 197.581C26.4565 191.604 23.7421 182.841 23.7421 171.294V123.408H11.5275C5.55596 123.408 2.57016 120.759 2.57016 115.461C2.57016 113.016 3.31662 111.114 4.8095 109.756C6.43812 108.262 8.67746 107.514 11.5275 107.514H23.7421V86.526C23.7421 83.4016 24.6243 80.9564 26.3886 79.1903C28.2887 77.4241 30.7995 76.5413 33.921 76.5413C37.0424 76.5413 39.5534 77.4241 41.4533 79.1903C43.3533 80.9564 44.3034 83.4016 44.3034 86.526V107.514H64.4575C67.3076 107.514 69.4792 108.262 70.972 109.756C72.6006 111.114 73.4149 113.016 73.4149 115.461C73.4149 118.043 72.6006 120.012 70.972 121.371C69.4792 122.729 67.3076 123.408 64.4575 123.408H44.3034V172.721C44.3034 179.105 45.5926 183.792 48.1714 186.781C50.8856 189.77 54.9571 191.468 60.386 191.875L66.0861 192.283ZM166.966 181.89C168.866 181.89 170.427 182.638 171.649 184.132C172.87 185.626 173.481 187.528 173.481 189.837C173.481 193.777 171.038 197.105 166.152 199.822C161.402 202.539 156.177 204.645 150.477 206.139C144.912 207.633 139.551 208.381 134.394 208.381C118.651 208.381 106.233 203.83 97.1395 194.728C88.0463 185.49 83.4999 172.925 83.4999 157.03C83.4999 146.842 85.4679 137.808 89.4036 129.929C93.4752 122.05 99.1076 115.937 106.3 111.59C113.629 107.243 121.908 105.069 131.137 105.069C144.437 105.069 154.955 109.348 162.691 117.907C170.427 126.465 174.295 138.012 174.295 152.547C174.295 157.981 171.852 160.698 166.966 160.698H104.061C105.418 181.754 115.529 192.283 134.394 192.283C139.416 192.283 143.759 191.604 147.423 190.245C151.087 188.886 154.955 187.121 159.027 184.947C159.434 184.675 160.52 184.132 162.284 183.317C164.184 182.366 165.745 181.89 166.966 181.89ZM131.544 120.148C123.672 120.148 117.361 122.661 112.611 127.688C107.861 132.714 105.011 139.778 104.061 148.88H156.584C156.177 139.642 153.802 132.578 149.459 127.688C145.251 122.661 139.28 120.148 131.544 120.148ZM239.5 208.381C229.864 208.381 221.382 206.275 214.053 202.064C206.86 197.852 201.228 191.875 197.156 184.132C193.22 176.389 191.252 167.423 191.252 157.234C191.252 146.91 193.288 137.808 197.36 129.929C201.567 122.05 207.403 115.937 214.867 111.59C222.332 107.243 230.882 105.069 240.518 105.069C245.675 105.069 250.833 105.816 255.99 107.311C261.283 108.805 265.965 110.842 270.037 113.424C274.38 116.412 276.551 119.876 276.551 123.816C276.551 126.125 275.94 128.095 274.719 129.725C273.497 131.219 271.937 131.967 270.037 131.967C268.815 131.967 267.594 131.695 266.372 131.152C265.151 130.473 263.59 129.521 261.69 128.299C258.297 126.125 255.108 124.495 252.122 123.408C249.272 122.186 245.811 121.574 241.739 121.574C232.511 121.574 225.318 124.699 220.16 130.948C215.139 137.197 212.628 145.891 212.628 157.03C212.628 168.17 215.139 176.796 220.16 182.909C225.182 188.886 232.307 191.875 241.536 191.875C245.607 191.875 249.204 191.264 252.326 190.041C255.447 188.819 258.636 187.188 261.894 185.151C263.386 184.2 264.88 183.385 266.372 182.705C267.865 182.026 269.222 181.687 270.444 181.687C272.344 181.687 273.905 182.502 275.126 184.132C276.348 185.626 276.958 187.528 276.958 189.837C276.958 191.739 276.415 193.505 275.33 195.135C274.38 196.63 272.683 198.192 270.24 199.822C266.169 202.539 261.419 204.645 255.99 206.139C250.561 207.633 245.064 208.381 239.5 208.381ZM349.106 105.069C372.72 105.069 384.528 118.45 384.528 145.212V198.192C384.528 201.181 383.577 203.558 381.678 205.324C379.779 207.09 377.266 207.973 374.146 207.973C371.025 207.973 368.512 207.09 366.613 205.324C364.848 203.558 363.967 201.181 363.967 198.192V145.416C363.967 137.265 362.271 131.288 358.877 127.484C355.62 123.68 350.464 121.778 343.405 121.778C335.126 121.778 328.478 124.359 323.455 129.521C318.432 134.684 315.923 141.612 315.923 150.306V198.192C315.923 201.181 314.972 203.558 313.072 205.324C311.308 207.09 308.865 207.973 305.744 207.973C302.622 207.973 300.111 207.09 298.211 205.324C296.311 203.558 295.361 201.181 295.361 198.192V72.0583C295.361 69.0696 296.311 66.6925 298.211 64.9264C300.247 63.1602 302.826 62.2773 305.947 62.2773C308.933 62.2773 311.308 63.1602 313.072 64.9264C314.972 66.5565 315.923 68.798 315.923 71.6508V122.593C319.317 116.888 323.862 112.541 329.562 109.552C335.262 106.563 341.777 105.069 349.106 105.069ZM465.994 105.069C474.544 105.069 482.143 107.243 488.794 111.59C495.579 115.937 500.805 122.05 504.47 129.929C508.271 137.808 510.17 146.91 510.17 157.234C510.17 167.423 508.338 176.389 504.673 184.132C501.009 191.875 495.783 197.852 488.998 202.064C482.347 206.275 474.681 208.381 465.994 208.381C458.528 208.381 451.947 206.818 446.247 203.694C440.547 200.433 436.205 195.815 433.218 189.837V235.278C433.218 238.131 432.267 240.372 430.368 242.003C428.602 243.769 426.229 244.652 423.243 244.652C420.122 244.652 417.542 243.769 415.507 242.003C413.608 240.236 412.657 237.859 412.657 234.871V115.461C412.657 112.473 413.608 110.095 415.507 108.329C417.406 106.428 419.919 105.477 423.039 105.477C426.026 105.477 428.469 106.428 430.368 108.329C432.267 110.095 433.218 112.473 433.218 115.461V123.816C436.205 117.839 440.547 113.22 446.247 109.96C451.947 106.699 458.528 105.069 465.994 105.069ZM461.108 192.079C470.065 192.079 476.987 189.09 481.873 183.113C486.759 177 489.201 168.374 489.201 157.234C489.201 145.959 486.692 137.197 481.669 130.948C476.783 124.699 469.928 121.574 461.108 121.574C452.15 121.574 445.229 124.631 440.343 130.744C435.594 136.857 433.218 145.551 433.218 156.827C433.218 168.102 435.594 176.796 440.343 182.909C445.229 189.022 452.15 192.079 461.108 192.079ZM574.669 105.069C587.831 105.069 597.603 108.397 603.984 115.054C610.498 121.71 613.755 131.831 613.755 145.416V198.192C613.755 201.316 612.871 203.762 611.109 205.528C609.344 207.158 606.901 207.973 603.78 207.973C600.793 207.973 598.417 207.09 596.655 205.324C594.89 203.558 594.008 201.181 594.008 198.192V190.652C591.429 196.358 587.561 200.773 582.405 203.898C577.382 206.886 571.478 208.381 564.693 208.381C558.179 208.381 552.205 207.09 546.779 204.509C541.486 201.792 537.277 198.124 534.157 193.505C531.033 188.886 529.475 183.657 529.475 177.815C529.338 170.479 531.17 164.774 534.971 160.698C538.769 156.487 544.947 153.499 553.497 151.732C562.047 149.831 573.921 148.88 589.123 148.88H593.805V142.97C593.805 135.363 592.243 129.861 589.123 126.465C585.999 123.069 580.98 121.371 574.058 121.371C569.306 121.371 564.827 121.982 560.622 123.205C556.414 124.427 551.798 126.193 546.779 128.503C543.114 130.54 540.535 131.559 539.043 131.559C537.007 131.559 535.308 130.812 533.953 129.318C532.732 127.824 532.118 125.921 532.118 123.612C532.118 121.574 532.662 119.808 533.75 118.314C534.971 116.684 536.87 115.122 539.45 113.627C544.199 111.046 549.762 109.009 556.143 107.514C562.521 105.884 568.695 105.069 574.669 105.069ZM568.358 193.098C575.82 193.098 581.927 190.585 586.68 185.558C591.429 180.396 593.805 173.807 593.805 165.793V160.495H590.14C579.554 160.495 571.411 160.97 565.711 161.921C560.011 162.872 555.94 164.502 553.497 166.811C551.054 168.985 549.832 172.177 549.832 176.389C549.832 181.279 551.595 185.287 555.125 188.411C558.653 191.535 563.065 193.098 568.358 193.098ZM693.996 105.477C700.511 105.069 703.768 107.854 703.768 113.831C703.768 116.82 703.021 119.061 701.529 120.556C700.034 122.05 697.457 122.933 693.793 123.205L687.686 123.816C679.135 124.631 672.755 127.62 668.549 132.782C664.478 137.944 662.442 144.193 662.442 151.529V198.192C662.442 201.452 661.491 203.898 659.592 205.528C657.69 207.158 655.247 207.973 652.263 207.973C649.276 207.973 646.767 207.158 644.731 205.528C642.829 203.898 641.881 201.452 641.881 198.192V115.258C641.881 112.133 642.829 109.756 644.731 108.126C646.767 106.36 649.276 105.477 652.263 105.477C654.977 105.477 657.216 106.36 658.981 108.126C660.88 109.756 661.831 112.065 661.831 115.054V124.835C664.545 118.858 668.479 114.307 673.639 111.182C678.795 108.058 684.632 106.224 691.146 105.68L693.996 105.477ZM750.047 208.381C736.204 208.381 724.87 205.528 716.05 199.822C713.607 198.328 711.841 196.766 710.757 195.135C709.806 193.505 709.332 191.671 709.332 189.634C709.332 187.46 709.942 185.626 711.164 184.132C712.385 182.638 713.944 181.89 715.846 181.89C717.608 181.89 720.392 182.977 724.193 185.151C728.264 187.324 732.199 189.09 736 190.449C739.935 191.807 744.821 192.486 750.658 192.486C757.172 192.486 762.262 191.332 765.926 189.022C769.59 186.713 771.423 183.453 771.423 179.241C771.423 176.525 770.675 174.351 769.183 172.721C767.825 171.091 765.382 169.664 761.854 168.442C758.324 167.083 753.101 165.657 746.179 164.162C734.235 161.581 725.618 158.117 720.325 153.77C715.165 149.287 712.589 143.242 712.589 135.635C712.589 129.793 714.284 124.563 717.678 119.944C721.069 115.19 725.751 111.522 731.725 108.941C737.696 106.36 744.48 105.069 752.083 105.069C757.509 105.069 762.802 105.816 767.962 107.311C773.118 108.669 777.663 110.707 781.601 113.424C786.08 116.412 788.319 119.876 788.319 123.816C788.319 125.99 787.639 127.824 786.284 129.318C785.062 130.812 783.567 131.559 781.805 131.559C780.583 131.559 779.362 131.288 778.141 130.744C776.919 130.201 775.29 129.318 773.255 128.095C769.59 125.921 766.129 124.223 762.872 123.001C759.749 121.778 755.814 121.167 751.065 121.167C745.365 121.167 740.749 122.39 737.222 124.835C733.828 127.28 732.132 130.608 732.132 134.82C732.132 138.623 733.691 141.612 736.814 143.785C740.072 145.823 746.109 147.793 754.93 149.695C764.024 151.596 771.149 153.77 776.308 156.215C781.465 158.661 785.129 161.717 787.301 165.385C789.608 168.917 790.762 173.468 790.762 179.038C790.762 187.868 787.028 194.999 779.566 200.433C772.237 205.731 762.395 208.381 750.047 208.381ZM919.442 105.477C925.956 105.069 929.214 107.854 929.214 113.831C929.214 116.82 928.466 119.061 926.974 120.556C925.479 122.05 922.903 122.933 919.238 123.205L913.131 123.816C904.581 124.631 898.2 127.62 893.995 132.782C889.923 137.944 887.887 144.193 887.887 151.529V198.192C887.887 201.452 886.936 203.898 885.037 205.528C883.135 207.158 880.692 207.973 877.709 207.973C874.722 207.973 872.212 207.158 870.176 205.528C868.274 203.898 867.326 201.452 867.326 198.192V115.258C867.326 112.133 868.274 109.756 870.176 108.126C872.212 106.36 874.722 105.477 877.709 105.477C880.422 105.477 882.661 106.36 884.427 108.126C886.326 109.756 887.277 112.065 887.277 115.054V124.835C889.99 118.858 893.925 114.307 899.084 111.182C904.24 108.058 910.077 106.224 916.592 105.68L919.442 105.477Z" fill="white"/>
<path d="M844.996 209.807C846.829 209.807 848.355 210.316 849.577 211.335C850.798 212.354 851.409 213.831 851.409 215.767C851.409 217.703 850.798 219.18 849.577 220.199C848.355 221.218 846.829 221.727 844.996 221.727H834.003C828.71 221.727 824.588 220.25 821.636 217.295C818.786 214.341 817.361 210.163 817.361 204.764V172.364C817.361 168.289 816.597 165.334 815.071 163.5C813.544 161.564 810.846 160.494 806.978 160.291C804.943 160.189 803.365 159.578 802.245 158.457C801.227 157.336 800.718 155.859 800.718 154.025C800.718 152.293 801.227 150.866 802.245 149.746C803.365 148.625 804.943 148.014 806.978 147.912C810.846 147.708 813.544 146.689 815.071 144.855C816.597 142.919 817.361 139.914 817.361 135.838V103.439C817.361 98.0389 818.786 93.8616 821.636 90.907C824.588 87.9523 828.71 86.475 834.003 86.475H844.996C846.829 86.475 848.355 86.9844 849.577 88.0033C850.798 89.0221 851.409 90.4994 851.409 92.4353C851.409 94.3711 850.798 95.8484 849.577 96.8673C848.355 97.8861 846.829 98.3955 844.996 98.3955H839.042C836.802 98.3955 835.123 98.9559 834.003 100.077C832.985 101.095 832.476 102.777 832.476 105.12V137.519C832.476 142.002 831.306 145.721 828.965 148.676C826.725 151.529 824.028 153.312 820.872 154.025C824.028 154.738 826.725 156.572 828.965 159.527C831.306 162.481 832.476 166.2 832.476 170.683V203.082C832.476 205.426 832.985 207.107 834.003 208.126C835.123 209.246 836.802 209.807 839.042 209.807H844.996Z" fill="#FE8A71"/>
</svg>
