<svg width="41" height="41" viewBox="0 0 41 41" fill="none" xmlns="http://www.w3.org/2000/svg">
<path d="M23.1265 20.206C23.1265 26.6476 17.9494 31.8696 11.5634 31.8696C5.1775 31.8696 0 26.6464 0 20.206C0 13.7655 5.1771 8.54199 11.5634 8.54199C17.9498 8.54199 23.1265 13.7643 23.1265 20.206Z" fill="white"/>
<path d="M35.8115 20.2054C35.8115 26.2688 33.2229 31.1861 30.0298 31.1861C26.8366 31.1861 24.248 26.2688 24.248 20.2054C24.248 14.1419 26.8362 9.22461 30.0294 9.22461C33.2225 9.22461 35.8111 14.1404 35.8111 20.2054" fill="white"/>
<path d="M41.0001 20.2062C41.0001 25.6375 40.0898 30.0432 38.9666 30.0432C37.8435 30.0432 36.9336 25.6387 36.9336 20.2062C36.9336 14.7736 37.8438 10.3691 38.9666 10.3691C40.0894 10.3691 41.0001 14.7732 41.0001 20.2062Z" fill="white"/>
</svg>
