<svg width="34" height="26" viewBox="0 0 34 26" fill="none" xmlns="http://www.w3.org/2000/svg">
<path opacity="0.1" fill-rule="evenodd" clip-rule="evenodd" d="M18.8889 26V20.7587C22.7926 20.4698 26.0667 18.1587 27.6617 14.8571H22.6667C20.5679 14.8571 18.8889 13.2063 18.8889 11.1429V3.71429C18.8889 1.65079 20.5679 0 22.6667 0L30.2222 0C32.321 0 34 1.65079 34 3.71429V11.1429C33.958 19.3556 27.2 26 18.8889 26ZM0.0419755 26L0.0419755 20.7587C3.9037 20.4698 7.21975 18.1587 8.81481 14.8571L3.77778 14.8571C1.67901 14.8571 0 13.2063 0 11.1429L0 3.71429C0 1.65079 1.67901 0 3.77778 0L11.3333 0C13.4321 0 15.1111 1.65079 15.1111 3.71429L15.1111 11.1429C15.1111 19.3556 8.35309 26 0.0419755 26Z" fill="#FE8A71"/>
</svg>
