<svg width="34" height="26" viewBox="0 0 34 26" fill="none" xmlns="http://www.w3.org/2000/svg">
<path opacity="0.1" fill-rule="evenodd" clip-rule="evenodd" d="M15.1111 -2.16338e-06L15.1111 5.24127C11.2074 5.53016 7.93333 7.84127 6.33827 11.1429L11.3333 11.1429C13.4321 11.1429 15.1111 12.7937 15.1111 14.8571L15.1111 22.2857C15.1111 24.3492 13.4321 26 11.3333 26L3.77778 26C1.67902 26 3.67038e-06 24.3492 3.48998e-06 22.2857L2.84056e-06 14.8571C0.0419752 6.64444 6.8 -1.4368e-06 15.1111 -2.16338e-06ZM33.958 -3.81103e-06L33.958 5.24127C30.0963 5.53016 26.7802 7.84127 25.1852 11.1429L30.2222 11.1429C32.321 11.1429 34 12.7936 34 14.8571L34 22.2857C34 24.3492 32.321 26 30.2222 26L22.6667 26C20.5679 26 18.8889 24.3492 18.8889 22.2857L18.8889 14.8571C18.8889 6.64444 25.6469 -3.08445e-06 33.958 -3.81103e-06Z" fill="#FE8A71"/>
</svg>
