<svg width="25" height="24" viewBox="0 0 25 24" fill="none" xmlns="http://www.w3.org/2000/svg">
<path d="M17.5 11C18.0523 11 18.5 11.4477 18.5 12C18.5 12.5523 18.0523 13 17.5 13V11ZM3.5 13C2.94771 13 2.5 12.5523 2.5 12C2.5 11.4477 2.94771 11 3.5 11V13ZM17.5 13H3.5V11H17.5V13Z" fill="white"/>
<path d="M22.2152 11.7966L16.765 7.90356C16.2355 7.52535 15.5 7.90385 15.5 8.55455V15.4454C15.5 16.0961 16.2355 16.4746 16.765 16.0964L22.2152 12.2034C22.3548 12.1037 22.3548 11.8963 22.2152 11.7966Z" fill="white"/>
</svg>
