<svg width="556" height="385" viewBox="0 0 556 385" fill="none" xmlns="http://www.w3.org/2000/svg">
<path d="M500.78 145.632C535.913 174.15 545.844 225.704 535.537 269.68C525.327 313.707 494.969 350.213 457.782 369.88C420.64 389.673 376.718 392.571 335.835 403.376C294.902 414.257 257.004 433.051 214.752 432.964C172.454 432.964 125.944 414.044 84.7773 382.989C43.6414 352.076 7.96585 309.054 6.15924 267.072C4.44905 225.13 36.6077 184.184 58.9925 142.222C81.4229 100.154 94.0083 56.8978 124.025 29.8013C154.043 2.70489 201.466 -8.45038 241.252 7.04925C281.038 22.5489 313.151 64.3938 359.291 88.0544C405.497 111.771 465.688 117.277 500.78 145.632Z" fill="#F1F1F1"/>
<path d="M545.191 32.6485H0V380.132H545.191V32.6485Z" fill="#EAF0FF"/>
<path d="M540.663 362.521L547.625 373.402L555.998 380.467L532.629 406.792L537.567 383.055L528.387 374.534L540.663 362.521Z" fill="white"/>
<path d="M503.15 252.125C503.688 256.043 505.86 307.678 505.86 315.971C508.986 319.772 538.202 357.552 538.202 362.033C534.751 365.931 530.051 370.154 527.194 372.767C525.388 374.427 480.725 326.583 479.908 324.122C479.091 321.66 472.844 307.023 472.844 303.603C472.844 300.182 486.703 254.82 486.703 254.82L503.15 252.125Z" fill="#3B3744"/>
<path d="M502.609 304.054C502.741 308.17 502.817 311.337 502.817 312.926C505.943 316.727 535.159 354.507 535.159 358.988C532.307 361.886 526.364 367.266 524.151 369.722C521.705 369.59 477.682 323.538 476.865 321.077C476.048 318.615 469.801 303.978 469.801 300.558C469.801 297.137 483.66 251.775 483.66 251.775L500.107 249.08C500.432 251.45 501.361 271.325 502.041 288.469" stroke="#1B3C87" stroke-width="1.01544" stroke-linecap="round" stroke-linejoin="round"/>
<path d="M451.53 254.886C450.734 259.296 434.977 392.556 434.977 396.778C436.819 399.153 447.455 399.493 449.303 398.362C451.15 397.23 467.673 319.189 469.048 314.621C474.204 311.185 495.341 263.28 495.336 256.013" fill="#3B3744"/>
<path d="M478.28 170.739C504.669 170.739 503.761 246.867 502.259 252.409C500.757 257.951 450.821 258.687 450.714 254.379C449.674 213.828 446.888 170.739 478.28 170.739Z" fill="#FE8A71"/>
<path d="M458.543 349.599C462.4 331.724 466.054 314.266 466.708 312.088C471.859 308.652 493 260.748 492.995 253.48" stroke="#1B3C87" stroke-width="1.01544" stroke-linecap="round" stroke-linejoin="round"/>
<path d="M442.837 304.044C438.361 341.474 433.195 385.877 433.195 388.343C436.458 389.17 446.506 390.003 448.795 390.287C449.5 389.855 452.073 379.045 455.067 365.586" stroke="#1B3C87" stroke-width="1.01544" stroke-linecap="round" stroke-linejoin="round"/>
<path d="M449.192 252.348C449.004 253.363 448.055 260.941 446.695 272.04" stroke="#1B3C87" stroke-width="1.01544" stroke-linecap="round" stroke-linejoin="round"/>
<path d="M545.191 32.6485H0V77.3102H545.191V32.6485Z" fill="#D7DFFF"/>
<path d="M448.934 44.2047H111.453V65.754H448.934V44.2047Z" fill="white"/>
<path d="M526.551 44.2047H472.129V65.754H526.551V44.2047Z" fill="#B2C3FB"/>
<path d="M19.186 62.5058C23.3424 62.5058 26.7119 59.1361 26.7119 54.9793C26.7119 50.8225 23.3424 47.4528 19.186 47.4528C15.0296 47.4528 11.6602 50.8225 11.6602 54.9793C11.6602 59.1361 15.0296 62.5058 19.186 62.5058Z" fill="#FB5E64"/>
<path d="M45.1704 62.5058C49.3268 62.5058 52.6962 59.1361 52.6962 54.9793C52.6962 50.8225 49.3268 47.4528 45.1704 47.4528C41.014 47.4528 37.6445 50.8225 37.6445 54.9793C37.6445 59.1361 41.014 62.5058 45.1704 62.5058Z" fill="#FB5E64"/>
<path d="M71.1548 62.5058C75.3112 62.5058 78.6806 59.1361 78.6806 54.9793C78.6806 50.8225 75.3112 47.4528 71.1548 47.4528C66.9984 47.4528 63.6289 50.8225 63.6289 54.9793C63.6289 59.1361 66.9984 62.5058 71.1548 62.5058Z" fill="#FB5E64"/>
<path d="M238.306 127.161L215.176 258.887L364.884 285.179L388.014 153.453L238.306 127.161Z" stroke="#B6C6FC" stroke-width="3.4931" stroke-linecap="round" stroke-linejoin="round"/>
<path d="M203.457 332.922C244.054 332.922 276.965 300.009 276.965 259.408C276.965 218.807 244.054 185.894 203.457 185.894C162.86 185.894 129.949 218.807 129.949 259.408C129.949 300.009 162.86 332.922 203.457 332.922Z" stroke="#B6C6FC" stroke-width="3.4931" stroke-linecap="round" stroke-linejoin="round"/>
<path d="M483.886 254.571C468.87 255.774 449.256 255.043 449.19 252.348C448.87 239.914 448.388 227.236 448.779 215.645" stroke="#1B3C87" stroke-width="1.01544" stroke-linecap="round" stroke-linejoin="round"/>
<path d="M449.672 202.815C451.945 182.976 458.695 168.709 476.756 168.709C503.145 168.709 502.236 244.837 500.734 250.379C500.46 251.394 498.633 252.217 495.817 252.917" stroke="#1B3C87" stroke-width="1.01544" stroke-linecap="round" stroke-linejoin="round"/>
<path d="M483.887 176.215C483.887 178.717 472.311 178.494 472.514 175.155L473.575 157.559H483.887V176.215Z" fill="white"/>
<path d="M482.363 174.693C482.363 177.195 470.788 176.972 470.991 173.632L472.052 156.036H482.363V174.693Z" stroke="#1B3C87" stroke-width="1.01544" stroke-linecap="round" stroke-linejoin="round"/>
<path d="M497.247 145.53C499.491 135.059 495.623 125.352 488.608 123.849C481.593 122.345 474.087 129.615 471.844 140.086C469.6 150.557 473.468 160.265 480.483 161.768C487.498 163.271 495.003 156.001 497.247 145.53Z" fill="white"/>
<path d="M467.415 145.308C467.348 143.07 467.549 140.833 468.014 138.644C468.816 134.585 470.58 130.779 473.159 127.544" stroke="#1B3C87" stroke-width="1.01544" stroke-linecap="round" stroke-linejoin="round"/>
<path d="M480.139 160.29C479.008 160.491 477.848 160.474 476.723 160.239C472.922 159.442 470.035 156.229 468.543 151.789" stroke="#1B3C87" stroke-width="1.01544" stroke-linecap="round" stroke-linejoin="round"/>
<path d="M486.851 122.083C498.016 122.083 503.598 133.848 506.135 146.444C508.165 156.595 513.24 165.223 513.24 173.85C513.24 186.777 504.78 198.211 495.986 198.211C482.36 198.211 477.209 184.909 477.209 178.926C477.209 170.465 479.747 164.949 479.747 154.565C479.747 146.343 474.672 140.227 474.672 128.174C474.672 125.108 479.564 122.083 486.851 122.083Z" fill="#EECB55"/>
<path d="M475.879 179.636C475.755 178.903 475.691 178.162 475.686 177.418C475.686 168.958 478.223 163.441 478.223 153.057C478.223 144.836 473.148 138.72 473.148 126.666C473.148 123.621 478.03 120.576 485.328 120.576C491.418 120.576 495.888 124.129 499.075 129.371" stroke="#1B3C87" stroke-width="1.01544" stroke-linecap="round" stroke-linejoin="round"/>
<path d="M505.136 190.954C502.091 194.506 498.311 196.689 494.479 196.689C491.965 196.739 489.47 196.238 487.171 195.221C484.871 194.204 482.822 192.696 481.168 190.802" stroke="#1B3C87" stroke-width="1.01544" stroke-linecap="round" stroke-linejoin="round"/>
<path d="M505.293 147.881C507.592 156.772 511.718 164.553 511.718 172.328C511.715 176.696 510.765 181.011 508.932 184.975" stroke="#1B3C87" stroke-width="1.01544" stroke-linecap="round" stroke-linejoin="round"/>
<path d="M522.172 371.737L538.523 355.664" stroke="#1B3C87" stroke-width="1.01544" stroke-linecap="round" stroke-linejoin="round"/>
<path d="M523.688 374.63L540.038 358.562" stroke="#1B3C87" stroke-width="1.01544" stroke-linecap="round" stroke-linejoin="round"/>
<path d="M534.925 399.316L530.094 404.761L535.032 381.025L525.852 372.504L538.127 360.491L545.09 371.372L553.463 378.436L541.954 391.398" stroke="#1B3C87" stroke-width="1.01544" stroke-linecap="round" stroke-linejoin="round"/>
<path d="M446.86 169.318C443.272 168.374 439.736 167.244 436.264 165.933C435.249 163.675 422.228 115.831 420.025 106.599C418.625 106.716 416.833 108.984 418.122 113.786C415.661 115.78 411.647 119.795 417.879 126.133C418.153 127.869 425.942 174.855 426.698 175.87C429.155 179.195 438.736 183.854 440.837 184.691C441.502 182.869 440.487 179.87 446.86 169.318Z" fill="white"/>
<path d="M473.645 190.802C475.777 184.711 455.924 167.633 450.154 167.172C446.775 168.907 438.665 182.346 440.512 188.949C446.886 192.984 470.118 200.866 473.645 190.802Z" fill="#FE8A71"/>
<path d="M424.305 125.215C421.874 116.181 419.793 108.269 419.032 105.051C417.631 105.168 415.759 106.574 417.043 111.375" stroke="#1B3C87" stroke-width="1.01544" stroke-linecap="round" stroke-linejoin="round"/>
<path d="M445.849 167.796C442.261 166.851 438.724 165.721 435.253 164.411C434.746 163.238 430.97 149.769 427.164 135.802" stroke="#1B3C87" stroke-width="1.01544" stroke-linecap="round" stroke-linejoin="round"/>
<path d="M423.259 164.142C420.773 150.809 417.55 128.818 416.885 124.586C414.607 122.672 411.699 117.171 414.399 114.785" stroke="#1B3C87" stroke-width="1.01544" stroke-linecap="round" stroke-linejoin="round"/>
<path d="M438.829 183.189C436.855 182.879 427.573 176.962 425.705 174.368C425.332 173.621 425.061 172.827 424.898 172.008" stroke="#1B3C87" stroke-width="1.01544" stroke-linecap="round" stroke-linejoin="round"/>
<path d="M462.438 193.674C467.077 193.674 470.862 192.36 472.126 188.751C473.476 184.899 466.036 176.647 458.906 170.988" stroke="#1B3C87" stroke-width="1.01544" stroke-linecap="round" stroke-linejoin="round"/>
<path d="M448.635 165.121C445.255 166.857 437.146 180.296 438.993 186.899C441.739 188.503 444.648 189.811 447.671 190.802" stroke="#1B3C87" stroke-width="1.01544" stroke-linecap="round" stroke-linejoin="round"/>
</svg>
