<svg width="2310" height="666" viewBox="0 0 2310 666" fill="none" xmlns="http://www.w3.org/2000/svg">
<path d="M2 531.349C62.5 341.95 281.7 -10.1173 674.5 96.8003C1165.5 230.447 1155.5 698.603 1555.5 531.349C1875.5 397.545 2190.5 185.898 2308 96.8003" stroke="#FFF6F4" stroke-width="4"/>
<path d="M320.997 4.88411L329.457 36.4555L297.885 27.9959L320.997 4.88411Z" fill="#FFC56D"/>
<path d="M1483 623.884L1491.46 655.455L1459.89 646.996L1483 623.884Z" fill="#FFC56D"/>
<path d="M2128.84 101.871L2164.87 65.8392L2178.06 115.06L2128.84 101.871Z" stroke="#9CFF6D"/>
<circle cx="565" cy="77" r="12" fill="#FFCECE"/>
<path d="M562 228C558.837 228 555.803 229.249 553.556 231.474C551.308 233.7 550.031 236.722 550.001 239.885C549.97 243.047 551.19 246.094 553.394 248.362C555.597 250.631 558.608 251.937 561.77 251.998L562 240L562 228Z" fill="#FEFFCE"/>
</svg>
