<svg width="96" height="96" viewBox="0 0 96 96" fill="none" xmlns="http://www.w3.org/2000/svg">
<circle cx="48" cy="48" r="48" fill="#F4EEFA"/>
<path d="M62.4033 55.2258C62.4336 55.1852 62.4555 55.1387 62.4845 55.0968H65.242C67.0207 55.0968 68.4678 53.6497 68.4678 51.871V31.2258C68.4678 29.4471 67.0207 28 65.242 28H31.6936C29.9149 28 28.4678 29.4471 28.4678 31.2258V51.871C28.4678 53.6497 29.9149 55.0968 31.6936 55.0968H34.451C34.48 55.1387 34.502 55.1852 34.5323 55.2258L35.5091 56.5284L35.0542 58.3477C32.4471 58.6052 30.4033 60.8103 30.4033 63.4839V66.7097H28.4678V68H68.4678V66.7097H66.5323V63.4839C66.5323 60.8103 64.4884 58.6052 61.8807 58.3484L61.4258 56.529L62.4033 55.2258ZM54.9194 66.7097H53.6291V62.1935H52.3387V66.7097H44.5968V62.1935H43.3065V66.7097H42.0162V63.4839C42.0162 62.0929 42.7839 60.829 43.9516 60.1465V60.2581C43.9516 61.3252 44.82 62.1935 45.8871 62.1935H51.0484C52.1155 62.1935 52.9839 61.3252 52.9839 60.2581V60.1465C54.1516 60.829 54.9194 62.0935 54.9194 63.4839V66.7097ZM39.5774 57.0323L39.9 58.3226H36.3904L36.7129 57.0323H39.5774ZM41.2387 58.3613L40.7807 56.5284L41.7581 55.2258C41.7884 55.1852 41.8104 55.1387 41.8394 55.0968H43.9516V58.7168C43.7284 58.8077 43.5155 58.9129 43.3104 59.0323C42.6736 58.6619 41.9729 58.4342 41.2387 58.3613ZM33.6291 51.2258H32.3387V31.871H64.5968V51.2258H63.3065C63.3065 48.7355 61.28 46.7097 58.7904 46.7097C56.3007 46.7097 54.2742 48.7355 54.2742 51.2258H52.9839C52.9839 48.7355 50.9575 46.7097 48.4678 46.7097C45.9781 46.7097 43.9516 48.7355 43.9516 51.2258H42.6613C42.6613 48.7355 40.6349 46.7097 38.1452 46.7097C35.6555 46.7097 33.6291 48.7355 33.6291 51.2258ZM52.9839 52.5161H54.2742C54.2742 52.9542 54.3484 53.3884 54.4736 53.8064H52.9839V52.5161ZM51.6936 51.2258V60.2581C51.6936 60.6135 51.4045 60.9032 51.0484 60.9032H45.8871C45.531 60.9032 45.242 60.6135 45.242 60.2581V51.2258C45.242 49.4471 46.6891 48 48.4678 48C50.2465 48 51.6936 49.4471 51.6936 51.2258ZM42.6613 52.5161H43.9516V53.8064H42.462C42.5871 53.3884 42.6613 52.9542 42.6613 52.5161ZM53.6252 59.0323C53.42 58.9123 53.2065 58.8077 52.9839 58.7168V55.0968H55.0962C55.1252 55.1387 55.1471 55.1852 55.1775 55.2258L56.1542 56.5284L55.6962 58.3613C54.9633 58.4342 54.2626 58.6619 53.6252 59.0323ZM57.3581 57.0323H60.222L60.5445 58.3226H57.0355L57.3581 57.0323ZM62.0162 52.5161C62.0162 53.2097 61.7871 53.8974 61.371 54.4516L60.4033 55.7419H57.1775L56.2097 54.4516C55.7936 53.8974 55.5645 53.2097 55.5645 52.5161V51.2258C55.5645 49.4471 57.0116 48 58.7904 48C60.5691 48 62.0162 49.4471 62.0162 51.2258V52.5161ZM31.6936 53.8064C30.6265 53.8064 29.7581 52.9381 29.7581 51.871V31.2258C29.7581 30.1587 30.6265 29.2903 31.6936 29.2903H65.242C66.3091 29.2903 67.1774 30.1587 67.1774 31.2258V51.871C67.1774 52.9381 66.3091 53.8064 65.242 53.8064H63.1071C63.2323 53.3884 63.3065 52.9542 63.3065 52.5161H64.5968C65.3084 52.5161 65.8871 51.9374 65.8871 51.2258V31.871C65.8871 31.1594 65.3084 30.5806 64.5968 30.5806H32.3387C31.6271 30.5806 31.0484 31.1594 31.0484 31.871V51.2258C31.0484 51.9374 31.6271 52.5161 32.3387 52.5161H33.6291C33.6291 52.9542 33.7033 53.3884 33.8284 53.8064H31.6936ZM34.9194 51.2258C34.9194 49.4471 36.3665 48 38.1452 48C39.9239 48 41.371 49.4471 41.371 51.2258V52.5161C41.371 53.2097 41.142 53.8974 40.7258 54.4516L39.7581 55.7419H36.5323L35.5645 54.4516C35.1484 53.8974 34.9194 53.2097 34.9194 52.5161V51.2258ZM31.6936 63.4839C31.6936 61.349 33.4297 59.6129 35.5645 59.6129H40.7258C41.2336 59.6129 41.7252 59.7213 42.1865 59.9097C41.28 60.8529 40.7258 62.1232 40.7258 63.4839V66.7097H34.2742V62.1935H32.9839V66.7097H31.6936V63.4839ZM65.242 63.4839V66.7097H63.9516V62.1935H62.6613V66.7097H56.2097V63.4839C56.2097 62.1232 55.6555 60.8529 54.7497 59.9097C55.2104 59.7206 55.702 59.6129 56.2097 59.6129H61.371C63.5058 59.6129 65.242 61.349 65.242 63.4839Z" fill="#AA86CE"/>
<path d="M37.5003 42.8387H43.3068V42.1936C43.3068 39.3477 45.6222 37.0323 48.468 37.0323C51.3138 37.0323 53.6293 39.3477 53.6293 42.1936V42.8387H61.1042L58.9797 44.9632L59.8919 45.8755L63.5738 42.1936L59.8919 38.5116L58.9797 39.4239L61.1042 41.5484H54.8874C54.5629 38.2929 51.808 35.7419 48.468 35.7419C45.128 35.7419 42.3732 38.2929 42.0487 41.5484H37.5003V40.2581H33.6293V44.129H37.5003V42.8387ZM36.21 42.8387H34.9197V41.5484H36.21V42.8387Z" fill="#AA86CE"/>
<path d="M41.3713 33.1616H33.6293V34.4519H41.3713V33.1616Z" fill="#AA86CE"/>
<path d="M41.3713 35.7419H33.6293V37.0323H41.3713V35.7419Z" fill="#AA86CE"/>
<path d="M61.3707 37.0326C62.4378 37.0326 63.3061 36.1642 63.3061 35.0971C63.3061 34.03 62.4378 33.1616 61.3707 33.1616C60.3036 33.1616 59.4352 34.03 59.4352 35.0971C59.4352 36.1642 60.3036 37.0326 61.3707 37.0326ZM61.3707 34.4519C61.7268 34.4519 62.0158 34.7416 62.0158 35.0971C62.0158 35.4526 61.7268 35.7423 61.3707 35.7423C61.0145 35.7423 60.7255 35.4526 60.7255 35.0971C60.7255 34.7416 61.0145 34.4519 61.3707 34.4519Z" fill="#AA86CE"/>
<path d="M58.1454 35.7419H54.2745V37.0323H58.1454V35.7419Z" fill="#AA86CE"/>
<path d="M58.1454 33.1616H54.2745V34.4519H58.1454V33.1616Z" fill="#AA86CE"/>
</svg>
