<svg width="96" height="96" viewBox="0 0 96 96" fill="none" xmlns="http://www.w3.org/2000/svg">
<circle cx="48" cy="48" r="48" fill="#EEF5FA"/>
<path d="M47.9994 32.7094C48.9506 32.7094 49.8804 32.8011 50.7842 32.9684C51.1427 32.3414 51.5639 31.7551 52.0408 31.2188C50.744 30.906 49.391 30.7393 47.9994 30.7393C46.6078 30.7393 45.2548 30.906 43.9581 31.2188C44.435 31.7551 44.8561 32.3414 45.2147 32.9684C46.1184 32.8011 47.0483 32.7094 47.9994 32.7094Z" fill="#6A89BE"/>
<path d="M32.7284 47.9798C32.7284 47.9694 32.7289 47.9589 32.7294 47.9485C32.0461 47.7088 31.3941 47.4018 30.7849 47.0317C30.7677 47.3455 30.7583 47.6619 30.7583 47.9798C30.7583 53.5805 33.4429 58.5652 37.5927 61.7163C37.5968 60.9168 37.6933 60.1392 37.8679 59.3923C34.7183 56.593 32.7284 52.5152 32.7284 47.9798Z" fill="#6A89BE"/>
<path d="M63.269 47.9485C63.269 47.9589 63.27 47.9694 63.27 47.9798C63.27 52.5152 61.2801 56.593 58.1306 59.3923C58.3057 60.1397 58.4016 60.9168 58.4057 61.7163C62.5555 58.5652 65.2401 53.5805 65.2401 47.9798C65.2401 47.6619 65.2308 47.3455 65.2136 47.0317C64.6043 47.4018 63.9523 47.7088 63.269 47.9485Z" fill="#6A89BE"/>
<path d="M43.1568 54.4663C43.1568 57.1243 45.3198 59.2868 47.9779 59.2868C50.6359 59.2868 52.7989 57.1243 52.7989 54.4663C52.7989 51.8082 50.6365 49.6458 47.9779 49.6458C45.3198 49.6458 43.1568 51.8082 43.1568 54.4663ZM50.9851 54.4663C50.9851 56.1362 49.6264 57.4944 47.9565 57.4944C46.2866 57.4944 44.9278 56.1356 44.9278 54.4657C44.9278 52.7958 46.2866 51.4371 47.9565 51.4371C49.6264 51.4371 50.9851 52.7964 50.9851 54.4663Z" fill="#6A89BE"/>
<path d="M53.8279 59.1233C53.6267 59.1233 53.436 59.1879 53.2796 59.3088C52.9049 59.5897 52.8194 60.0969 53.08 60.5211C53.9056 61.7907 54.3621 64.3237 54.3621 65.5892V65.8253C54.3621 67.0402 53.1024 68.1461 51.7197 68.1461H44.387C43.1513 68.1461 41.6586 67.1111 41.6586 65.8253C41.6586 64.4144 42.1177 61.7886 42.9814 60.5242C43.2472 60.125 43.1606 59.5913 42.7869 59.3114C42.6233 59.1853 42.4206 59.116 42.2157 59.116C41.9145 59.116 41.6388 59.265 41.4819 59.5095C40.4572 61.0355 39.8448 63.9193 39.8448 65.8258C39.8448 68.192 42.2428 69.9604 44.387 69.9604H51.7191C54.0817 69.9604 56.154 68.0284 56.154 65.8258V65.5897C56.154 63.8359 55.5536 61.022 54.5841 59.536C54.4184 59.277 54.1359 59.1233 53.8279 59.1233Z" fill="#6A89BE"/>
<path d="M36.1326 35.6415C38.7907 35.6415 40.9536 33.4791 40.9536 30.8205C40.9536 28.1624 38.7912 26 36.1326 26C33.474 26 31.3116 28.1624 31.3116 30.821C31.3121 33.4791 33.4745 35.6415 36.1326 35.6415ZM36.1112 27.7924C37.7811 27.7924 39.1399 29.1511 39.1399 30.821C39.1399 32.4909 37.7811 33.8497 36.1112 33.8497C34.4413 33.8497 33.0826 32.4909 33.0826 30.821C33.0826 29.1511 34.4413 27.7924 36.1112 27.7924Z" fill="#6A89BE"/>
<path d="M39.8738 46.3147C42.2364 46.3147 44.3086 44.3826 44.3086 42.18V41.9445C44.3086 40.1907 43.7082 37.3767 42.7393 35.8908C42.5736 35.6328 42.2906 35.4786 41.9826 35.4786C41.7814 35.4786 41.5906 35.5432 41.4343 35.6641C41.0595 35.945 40.974 36.4527 41.2352 36.8764C42.0607 38.1465 42.5173 40.679 42.5173 41.9445V42.18C42.5173 43.3949 41.2576 44.5009 39.8748 44.5009H32.5417C31.3059 44.5009 29.8132 43.4658 29.8132 42.18C29.8132 40.7692 30.2724 38.1434 31.136 36.879C31.4023 36.4798 31.3153 35.9461 30.9416 35.6657C30.778 35.5395 30.5752 35.4702 30.3709 35.4702C30.0697 35.4702 29.7939 35.6193 29.6371 35.8637C28.6119 37.3903 28 40.2735 28 42.1795C28 44.5457 30.398 46.3141 32.5422 46.3141H39.8738V46.3147Z" fill="#6A89BE"/>
<path d="M59.8231 35.6415C62.4812 35.6415 64.6442 33.4791 64.6442 30.8205C64.6442 28.1624 62.4817 26 59.8231 26C57.1645 26 55.0021 28.1624 55.0021 30.821C55.0026 33.4791 57.1651 35.6415 59.8231 35.6415ZM59.8018 27.7924C61.4717 27.7924 62.8304 29.1511 62.8304 30.821C62.8304 32.4909 61.4717 33.8497 59.8018 33.8497C58.1319 33.8497 56.7731 32.4909 56.7731 30.821C56.7731 29.1511 58.1319 27.7924 59.8018 27.7924Z" fill="#6A89BE"/>
<path d="M66.4292 35.8898C66.2635 35.6319 65.9805 35.4776 65.6725 35.4776C65.4713 35.4776 65.2805 35.5422 65.1242 35.6631C64.7489 35.944 64.6639 36.4517 64.9251 36.8754C65.7506 38.145 66.2072 40.678 66.2072 41.9435V42.1791C66.2072 43.394 64.9475 44.4999 63.5648 44.4999H56.2321C54.9963 44.4999 53.5042 43.4649 53.5042 42.1791C53.5042 40.7682 53.9633 38.1419 54.827 36.878C55.0933 36.4788 55.0063 35.9451 54.6326 35.6647C54.4689 35.5391 54.2662 35.4692 54.0619 35.4692C53.7606 35.4692 53.4849 35.6183 53.328 35.8627C52.3033 37.3893 51.6909 40.2725 51.6909 42.1785C51.6909 44.5448 54.089 46.3132 56.2331 46.3132H63.5653C65.9278 46.3132 68.0001 44.3811 68.0001 42.1785V41.944C67.9991 40.1902 67.3986 37.3763 66.4292 35.8898Z" fill="#6A89BE"/>
</svg>
