<svg width="932" height="263" viewBox="0 0 932 263" fill="none" xmlns="http://www.w3.org/2000/svg">
<path d="M60.5585 181.823C63.3967 182.081 65.3963 182.854 66.5573 184.143C67.8471 185.304 68.4922 186.98 68.4922 189.171C68.4922 191.75 67.4602 193.748 65.3963 195.166C63.461 196.455 60.5585 196.971 56.6884 196.713L51.4638 196.326C41.0149 195.553 33.2101 192.394 28.05 186.851C22.89 181.178 20.3099 172.863 20.3099 161.905V116.46H8.69976C3.02365 116.46 0.185608 113.946 0.185608 108.918C0.185608 106.598 0.895119 104.793 2.31414 103.503C3.86217 102.085 5.99072 101.376 8.69976 101.376H20.3099V81.458C20.3099 78.4931 21.1485 76.1724 22.8255 74.4964C24.6315 72.8204 27.0181 71.9824 29.9851 71.9824C32.9521 71.9824 35.3387 72.8204 37.1447 74.4964C38.9509 76.1724 39.8538 78.4931 39.8538 81.458V101.376H59.0106C61.7196 101.376 63.7836 102.085 65.2028 103.503C66.7508 104.793 67.5246 106.598 67.5246 108.918C67.5246 111.368 66.7508 113.237 65.2028 114.526C63.7836 115.815 61.7196 116.46 59.0106 116.46H39.8538V163.258C39.8538 169.317 41.0792 173.765 43.5305 176.601C46.1104 179.438 49.9805 181.049 55.1404 181.436L60.5585 181.823ZM156.447 171.96C158.253 171.96 159.737 172.669 160.897 174.088C162.058 175.506 162.639 177.311 162.639 179.502C162.639 183.241 160.317 186.399 155.673 188.978C151.158 191.556 146.191 193.555 140.773 194.973C135.484 196.391 130.388 197.1 125.486 197.1C110.522 197.1 98.7184 192.781 90.0753 184.143C81.4322 175.377 77.1108 163.452 77.1108 148.368C77.1108 138.699 78.9813 130.126 82.7224 122.648C86.5925 115.171 91.9458 109.369 98.7832 105.244C105.749 101.118 113.618 99.0557 122.39 99.0557C135.033 99.0557 145.03 103.117 152.383 111.239C159.737 119.361 163.413 130.319 163.413 144.113C163.413 149.27 161.091 151.849 156.447 151.849H96.6545C97.9446 171.831 107.555 181.823 125.486 181.823C130.259 181.823 134.388 181.178 137.87 179.889C141.354 178.6 145.03 176.924 148.9 174.861C149.287 174.603 150.319 174.088 151.996 173.314C153.803 172.412 155.286 171.96 156.447 171.96ZM122.777 113.366C115.295 113.366 109.297 115.751 104.782 120.521C100.266 125.291 97.5574 131.995 96.6545 140.633H146.578C146.191 131.866 143.934 125.162 139.806 120.521C135.807 115.751 130.131 113.366 122.777 113.366ZM225.392 197.1C216.232 197.1 208.17 195.102 201.204 191.105C194.367 187.108 189.013 181.436 185.143 174.088C181.402 166.739 179.531 158.23 179.531 148.561C179.531 138.763 181.466 130.126 185.336 122.648C189.335 115.171 194.883 109.369 201.978 105.244C209.073 101.118 217.2 99.0557 226.359 99.0557C231.261 99.0557 236.163 99.7647 241.065 101.183C246.096 102.601 250.547 104.535 254.417 106.984C258.545 109.821 260.609 113.108 260.609 116.847C260.609 119.038 260.029 120.908 258.868 122.455C257.707 123.873 256.223 124.582 254.417 124.582C253.256 124.582 252.095 124.324 250.934 123.808C249.773 123.164 248.289 122.261 246.484 121.101C243.258 119.038 240.227 117.491 237.389 116.46C234.68 115.3 231.39 114.72 227.52 114.72C218.748 114.72 211.911 117.685 207.009 123.615C202.236 129.545 199.849 137.796 199.849 148.368C199.849 158.939 202.236 167.126 207.009 172.927C211.782 178.6 218.555 181.436 227.326 181.436C231.197 181.436 234.615 180.856 237.582 179.696C240.549 178.535 243.581 176.988 246.677 175.054C248.096 174.152 249.515 173.378 250.934 172.734C252.353 172.089 253.643 171.767 254.804 171.767C256.61 171.767 258.094 172.54 259.255 174.088C260.416 175.506 260.996 177.311 260.996 179.502C260.996 181.307 260.48 182.983 259.448 184.53C258.545 185.948 256.932 187.431 254.611 188.978C250.741 191.556 246.225 193.555 241.065 194.973C235.905 196.391 230.681 197.1 225.392 197.1ZM329.573 99.0557C352.02 99.0557 363.243 111.754 363.243 137.152V187.431C363.243 190.267 362.34 192.523 360.534 194.199C358.728 195.875 356.341 196.713 353.374 196.713C350.407 196.713 348.021 195.875 346.214 194.199C344.538 192.523 343.699 190.267 343.699 187.431V137.345C343.699 129.61 342.086 123.937 338.861 120.328C335.766 116.718 330.863 114.913 324.155 114.913C316.286 114.913 309.965 117.362 305.192 122.261C300.419 127.16 298.032 133.735 298.032 141.986V187.431C298.032 190.267 297.129 192.523 295.323 194.199C293.646 195.875 291.324 196.713 288.357 196.713C285.39 196.713 283.004 195.875 281.197 194.199C279.392 192.523 278.488 190.267 278.488 187.431V67.7281C278.488 64.8917 279.392 62.6357 281.197 60.9597C283.133 59.2837 285.583 58.4457 288.551 58.4457C291.389 58.4457 293.646 59.2837 295.323 60.9597C297.129 62.5067 298.032 64.6341 298.032 67.3414V115.686C301.257 110.272 305.579 106.146 310.997 103.31C316.415 100.474 322.607 99.0557 329.573 99.0557ZM491.7 99.0557C499.825 99.0557 507.049 101.118 513.37 105.244C519.821 109.369 524.789 115.171 528.271 122.648C531.883 130.126 533.688 138.763 533.688 148.561C533.688 158.23 531.949 166.739 528.463 174.088C524.981 181.436 520.016 187.108 513.565 191.105C507.245 195.102 499.955 197.1 491.7 197.1C484.602 197.1 478.346 195.617 472.93 192.652C467.509 189.558 463.384 185.175 460.545 179.502V222.626C460.545 225.333 459.641 227.461 457.837 229.008C456.159 230.684 453.903 231.522 451.064 231.522C448.095 231.522 445.644 230.684 443.709 229.008C441.905 227.332 441.001 225.076 441.001 222.239V108.918C441.001 106.082 441.905 103.826 443.709 102.15C445.517 100.345 447.904 99.4424 450.869 99.4424C453.707 99.4424 456.029 100.345 457.837 102.15C459.641 103.826 460.545 106.082 460.545 108.918V116.847C463.384 111.174 467.509 106.791 472.93 103.697C478.346 100.603 484.602 99.0557 491.7 99.0557ZM487.053 181.629C495.569 181.629 502.146 178.793 506.793 173.121C511.435 167.319 513.757 159.133 513.757 148.561C513.757 137.861 511.37 129.545 506.597 123.615C501.955 117.685 495.439 114.72 487.053 114.72C478.542 114.72 471.96 117.62 467.318 123.422C462.801 129.223 460.545 137.474 460.545 148.174C460.545 158.875 462.801 167.126 467.318 172.927C471.96 178.729 478.542 181.629 487.053 181.629ZM594.994 99.0557C607.508 99.0557 616.798 102.214 622.858 108.531C629.052 114.848 632.147 124.453 632.147 137.345V187.431C632.147 190.396 631.308 192.717 629.63 194.393C627.956 195.94 625.631 196.713 622.666 196.713C619.828 196.713 617.572 195.875 615.894 194.199C614.216 192.523 613.377 190.267 613.377 187.431V180.276C610.925 185.69 607.248 189.88 602.348 192.845C597.576 195.682 591.964 197.1 585.513 197.1C579.322 197.1 573.645 195.875 568.485 193.426C563.452 190.847 559.453 187.366 556.488 182.983C553.519 178.6 552.037 173.636 552.037 168.093C551.906 161.131 553.649 155.716 557.262 151.849C560.874 147.852 566.742 145.016 574.871 143.34C582.996 141.535 594.285 140.633 608.734 140.633H613.185V135.025C613.185 127.805 611.699 122.584 608.734 119.361C605.765 116.138 600.992 114.526 594.415 114.526C589.899 114.526 585.643 115.106 581.644 116.267C577.645 117.427 573.258 119.103 568.485 121.295C565.003 123.228 562.552 124.195 561.131 124.195C559.196 124.195 557.583 123.486 556.292 122.068C555.132 120.65 554.553 118.845 554.553 116.653C554.553 114.72 555.067 113.044 556.101 111.625C557.262 110.078 559.066 108.596 561.517 107.178C566.034 104.728 571.324 102.794 577.384 101.376C583.448 99.8294 589.317 99.0557 594.994 99.0557ZM588.995 182.596C596.089 182.596 601.896 180.211 606.413 175.441C610.925 170.542 613.185 164.29 613.185 156.683V151.655H609.7C599.64 151.655 591.898 152.107 586.482 153.009C581.062 153.911 577.193 155.458 574.871 157.65C572.55 159.713 571.385 162.742 571.385 166.739C571.385 171.38 573.063 175.183 576.419 178.149C579.771 181.114 583.965 182.596 588.995 182.596ZM708.419 99.4424C714.61 99.0557 717.705 101.699 717.705 107.371C717.705 110.207 716.996 112.335 715.579 113.753C714.158 115.171 711.706 116.009 708.224 116.267L702.421 116.847C694.292 117.62 688.228 120.457 684.229 125.356C680.36 130.254 678.425 136.185 678.425 143.147V187.431C678.425 190.525 677.521 192.845 675.717 194.393C673.909 195.94 671.588 196.713 668.749 196.713C665.911 196.713 663.524 195.94 661.59 194.393C659.785 192.845 658.881 190.525 658.881 187.431V108.725C658.881 105.76 659.785 103.503 661.59 101.956C663.524 100.28 665.911 99.4424 668.749 99.4424C671.331 99.4424 673.457 100.28 675.135 101.956C676.943 103.503 677.843 105.695 677.843 108.531V117.814C680.425 112.141 684.164 107.822 689.067 104.857C693.97 101.892 699.517 100.152 705.707 99.6361L708.419 99.4424ZM761.696 197.1C748.538 197.1 737.766 194.393 729.381 188.978C727.056 187.56 725.382 186.077 724.347 184.53C723.447 182.983 722.995 181.243 722.995 179.309C722.995 177.246 723.574 175.506 724.734 174.088C725.895 172.669 727.381 171.96 729.186 171.96C730.863 171.96 733.507 172.992 737.119 175.054C740.988 177.117 744.73 178.793 748.343 180.082C752.085 181.372 756.728 182.016 762.275 182.016C768.469 182.016 773.303 180.92 776.789 178.729C780.271 176.537 782.014 173.443 782.014 169.446C782.014 166.868 781.302 164.805 779.884 163.258C778.593 161.711 776.272 160.357 772.916 159.197C769.565 157.908 764.596 156.554 758.019 155.136C746.665 152.687 738.475 149.399 733.441 145.274C728.542 141.019 726.09 135.282 726.09 128.063C726.09 122.519 727.703 117.556 730.928 113.173C734.154 108.66 738.601 105.179 744.278 102.73C749.955 100.28 756.406 99.0557 763.631 99.0557C768.791 99.0557 773.82 99.7647 778.724 101.183C783.623 102.472 787.948 104.406 791.687 106.984C795.946 109.821 798.072 113.108 798.072 116.847C798.072 118.909 797.429 120.65 796.138 122.068C794.977 123.486 793.56 124.195 791.882 124.195C790.721 124.195 789.561 123.937 788.396 123.422C787.235 122.906 785.688 122.068 783.753 120.908C780.271 118.845 776.981 117.234 773.885 116.073C770.917 114.913 767.178 114.333 762.662 114.333C757.245 114.333 752.859 115.493 749.503 117.814C746.278 120.134 744.665 123.293 744.665 127.289C744.665 130.899 746.151 133.735 749.116 135.798C752.212 137.732 757.954 139.601 766.339 141.406C774.981 143.211 781.754 145.274 786.657 147.594C791.56 149.915 795.042 152.816 797.107 156.296C799.298 159.648 800.394 163.967 800.394 169.253C800.394 177.633 796.846 184.401 789.752 189.558C782.788 194.586 773.434 197.1 761.696 197.1ZM922.707 99.4424C928.901 99.0557 931.996 101.699 931.996 107.371C931.996 110.207 931.287 112.335 929.866 113.753C928.449 115.171 925.997 116.009 922.515 116.267L916.708 116.847C908.583 117.62 902.519 120.457 898.52 125.356C894.651 130.254 892.713 136.185 892.713 143.147V187.431C892.713 190.525 891.812 192.845 890.004 194.393C888.2 195.94 885.879 196.713 883.04 196.713C880.202 196.713 877.815 195.94 875.881 194.393C874.073 192.845 873.169 190.525 873.169 187.431V108.725C873.169 105.76 874.073 103.503 875.881 101.956C877.815 100.28 880.202 99.4424 883.04 99.4424C885.618 99.4424 887.748 100.28 889.426 101.956C891.23 103.503 892.134 105.695 892.134 108.531V117.814C894.712 112.141 898.455 107.822 903.358 104.857C908.257 101.892 913.804 100.152 919.998 99.6361L922.707 99.4424Z" fill="white"/>
<path d="M852.326 200.819C854.065 200.819 855.517 201.302 856.678 202.269C857.838 203.236 858.421 204.638 858.421 206.475C858.421 208.312 857.838 209.714 856.678 210.681C855.517 211.648 854.065 212.132 852.326 212.132H841.876C836.846 212.132 832.928 210.73 830.12 207.925C827.411 205.122 826.055 201.157 826.055 196.033V165.285C826.055 161.417 825.331 158.614 823.88 156.873C822.428 155.036 819.865 154.021 816.188 153.827C814.253 153.731 812.755 153.15 811.69 152.087C810.721 151.023 810.239 149.621 810.239 147.881C810.239 146.237 810.721 144.884 811.69 143.82C812.755 142.756 814.253 142.176 816.188 142.079C819.865 141.886 822.428 140.919 823.88 139.179C825.331 137.342 826.055 134.489 826.055 130.621V99.8742C826.055 94.7493 827.411 90.7852 830.12 87.981C832.928 85.1772 836.846 83.7749 841.876 83.7749H852.326C854.065 83.7749 855.517 84.2584 856.678 85.2254C857.838 86.1924 858.421 87.5943 858.421 89.4315C858.421 91.2687 857.838 92.6706 856.678 93.6376C855.517 94.6042 854.065 95.0877 852.326 95.0877H846.664C844.538 95.0877 842.941 95.6195 841.876 96.6833C840.907 97.65 840.424 99.2456 840.424 101.469V132.217C840.424 136.471 839.313 140.001 837.088 142.804C834.958 145.512 832.395 147.204 829.396 147.881C832.395 148.558 834.958 150.298 837.088 153.102C839.313 155.906 840.424 159.435 840.424 163.69V194.437C840.424 196.661 840.907 198.256 841.876 199.223C842.941 200.287 844.538 200.819 846.664 200.819H852.326Z" fill="#FE8A71"/>
</svg>
