<svg width="433" height="434" viewBox="0 0 433 434" fill="none" xmlns="http://www.w3.org/2000/svg">
<path d="M336.982 97.4457C380.381 135.427 427.877 174.794 432.506 218.675C437.255 262.671 398.928 311.186 355.513 338.399C312.098 365.611 263.577 371.511 205.219 381.124C146.982 390.846 79.0162 404.392 39.6763 377.185C0.336362 349.978 -10.4599 282.007 14.0851 238.603C38.6301 195.198 98.5821 176.416 137.949 138.319C177.317 100.343 196.072 43.1465 225.136 32.9528C254.2 22.6495 293.567 59.4697 336.982 97.4457Z" fill="#EBECF5"/>
<path d="M397.692 17.3253H265.836V117.16H397.692V17.3253Z" fill="#D7E0FF"/>
<path d="M375.631 36.0972H337.02V105.323H375.631V36.0972Z" fill="#EAF0FF"/>
<path d="M324.308 51.3248C324.309 54.4746 323.376 57.554 321.626 60.1734C319.877 62.7928 317.39 64.8346 314.48 66.0404C311.571 67.2463 308.368 67.5621 305.279 66.9479C302.19 66.3337 299.352 64.817 297.125 62.5898C294.898 60.3625 293.381 57.5248 292.767 54.4354C292.152 51.3461 292.468 48.144 293.674 45.2342C294.88 42.3243 296.922 39.8375 299.541 38.0883C302.161 36.339 305.24 35.4059 308.39 35.407C312.611 35.407 316.66 37.084 319.645 40.0692C322.63 43.0544 324.308 47.1031 324.308 51.3248Z" fill="#FB5D64"/>
<path d="M399.285 221.294C399.285 228.998 397 236.528 392.72 242.934C388.44 249.339 382.357 254.332 375.24 257.28C368.122 260.228 360.291 260.999 352.735 259.496C345.179 257.993 338.239 254.284 332.791 248.836C327.344 243.389 323.634 236.448 322.131 228.893C320.628 221.337 321.4 213.505 324.348 206.388C327.296 199.271 332.288 193.187 338.694 188.907C345.099 184.627 352.63 182.343 360.334 182.343C370.664 182.343 380.572 186.447 387.876 193.751C395.181 201.056 399.285 210.963 399.285 221.294Z" fill="white"/>
<path d="M423.415 148.952H339.953V232.413H423.415V148.952Z" stroke="#B2C3FB" stroke-width="1.64327" stroke-linecap="round" stroke-linejoin="round"/>
<path d="M203.105 431.994H410.202" stroke="white" stroke-width="2.02122" stroke-linecap="round" stroke-linejoin="round"/>
<path d="M1.80078 431.994H154.4" stroke="white" stroke-width="2.02122" stroke-linecap="round" stroke-linejoin="round"/>
<path d="M239.946 150.447L239.097 154.533L233.401 156.308C233.401 156.308 230.58 147.511 230.191 145.523C227.452 147.566 211.666 151.992 208.943 152.386C208.565 150.266 208.565 131.895 223.881 131.895C237.372 131.895 243.419 145.408 243.775 146.991C242.986 147.451 239.941 148.579 239.941 150.447" fill="#EECB55"/>
<path d="M243.733 185.816C240.309 185.816 215.463 210.886 214.444 216.134L206.441 257.539L247.89 245.943L250.322 193.205L244.417 185.799L243.733 185.816Z" fill="#FE8A71"/>
<path d="M192.535 258.613C192.464 255.726 216.259 180.607 218.943 178.054C219.824 177.164 220.883 176.47 222.05 176.017C223.218 175.564 224.468 175.362 225.718 175.425C226.902 175.48 232.587 178.164 233.787 180.996C231.738 185.849 226.803 188.544 226.803 188.544L217.201 247.877L192.535 258.613Z" fill="white"/>
<path d="M221.53 303.66L255.918 346.226L239.239 362.993L188.758 318.86L200.699 302.427L221.53 303.66Z" fill="#3C3744"/>
<path d="M212.472 379.853C207.838 375.641 153.473 307.922 153.473 299.541C153.473 280.857 174.671 274.235 180.455 272.778C188.425 272.055 223.777 269.097 229.337 269.327C233.347 273.671 279.906 283.694 286.654 282.829C286.654 286.209 281.286 309.839 243.206 309.839C239.219 309.839 209.196 308.639 208.637 308.639C208.637 315.667 227.88 361.41 229.715 364.511" fill="#3C3744"/>
<path d="M261.737 173.568C292.559 173.568 299.231 229.171 299.231 244.951C299.231 265.071 291.069 281.147 287.18 282.654C276.165 286.888 235.729 273.019 233.166 266.451C220.666 234.462 241.24 173.568 261.758 173.568" fill="#FE8A71"/>
<path d="M235.422 135.504C237.98 137.803 240.093 140.553 241.655 143.617C241.926 144.142 242.178 144.668 242.411 145.194" stroke="#1B3C87" stroke-width="2.02122" stroke-linecap="round" stroke-linejoin="round"/>
<path d="M209.932 159.945C204.175 148.76 206.613 136.041 215.377 131.533C218.227 130.092 221.465 129.607 224.612 130.147" stroke="#1B3C87" stroke-width="2.02122" stroke-linecap="round" stroke-linejoin="round"/>
<path d="M240.36 168.808C239.186 170.126 237.781 171.218 236.213 172.028C230.232 175.107 222.848 173.562 216.938 168.714" stroke="#1B3C87" stroke-width="2.02122" stroke-linecap="round" stroke-linejoin="round"/>
<path d="M237.992 148.486C238.344 147.6 238.931 146.826 239.689 146.248C240.448 145.67 241.349 145.309 242.297 145.204C243.245 145.099 244.203 145.254 245.07 145.653C245.936 146.052 246.678 146.679 247.215 147.467C247.752 148.255 248.064 149.174 248.119 150.126C248.173 151.078 247.967 152.027 247.523 152.871C247.079 153.715 246.414 154.422 245.598 154.917C244.783 155.411 243.848 155.674 242.895 155.678C242.101 155.673 241.32 155.486 240.61 155.13" stroke="#1B3C87" stroke-width="2.02122" stroke-linecap="round" stroke-linejoin="round"/>
<path d="M242.427 186.884C241.655 184.118 238.877 175.595 235.41 172.407" stroke="#1B3C87" stroke-width="2.02122" stroke-linecap="round" stroke-linejoin="round"/>
<path d="M245.195 156.993C246.263 160.586 255.92 173.541 258.298 175.337C258.155 176.898 255.082 179.916 251.626 182.458" stroke="#1B3C87" stroke-width="2.02122" stroke-linecap="round" stroke-linejoin="round"/>
<path d="M232.855 153.919L237.144 152.588L237.993 148.497" stroke="#1B3C87" stroke-width="2.02122" stroke-linecap="round" stroke-linejoin="round"/>
<path d="M221.316 146.426C224.504 145.364 227.227 144.307 228.235 143.562C228.514 145.008 230.086 150.058 230.919 152.698" stroke="#1B3C87" stroke-width="2.02122" stroke-linecap="round" stroke-linejoin="round"/>
<path d="M206.984 150.425C208.036 150.272 211.021 149.521 214.456 148.541" stroke="#1B3C87" stroke-width="2.02122" stroke-linecap="round" stroke-linejoin="round"/>
<path d="M238.377 269.606C234.049 267.448 231.042 265.35 230.401 263.706C226.567 253.847 225.839 241.221 227.307 228.486" stroke="#1B3C87" stroke-width="2.02122" stroke-linecap="round" stroke-linejoin="round"/>
<path d="M292.219 210.487C295.429 223.359 296.486 235.93 296.486 242.207C296.486 262.332 288.325 278.408 284.436 279.909C279.27 281.898 267.647 279.909 256.5 276.546" stroke="#1B3C87" stroke-width="2.02122" stroke-linecap="round" stroke-linejoin="round"/>
<path d="M254.902 171.612C256.209 171.102 257.597 170.834 259 170.823C267.123 170.823 273.57 174.691 278.659 180.683" stroke="#1B3C87" stroke-width="2.02122" stroke-linecap="round" stroke-linejoin="round"/>
<path d="M233.449 201.898C235.549 195.794 238.304 189.935 241.666 184.424" stroke="#1B3C87" stroke-width="2.02122" stroke-linecap="round" stroke-linejoin="round"/>
<path d="M214.285 179.385C215.194 177.085 215.863 175.633 216.197 175.31C217.078 174.42 218.137 173.726 219.305 173.273C220.472 172.82 221.722 172.618 222.973 172.681C224.156 172.736 229.841 175.42 231.041 178.251" stroke="#1B3C87" stroke-width="2.02122" stroke-linecap="round" stroke-linejoin="round"/>
<path d="M196.5 232.413C200.537 219.508 205.664 203.727 209.706 192.016" stroke="#1B3C87" stroke-width="2.02122" stroke-linecap="round" stroke-linejoin="round"/>
<path d="M189.789 255.479C189.789 254.932 190.594 251.903 191.947 247.307" stroke="#1B3C87" stroke-width="2.02122" stroke-linecap="round" stroke-linejoin="round"/>
<path d="M223.891 177.638C225.063 177.824 227.895 179.549 229.368 181.275" stroke="#1B3C87" stroke-width="2.02122" stroke-linecap="round" stroke-linejoin="round"/>
<path d="M220.613 181.795C221.78 181.982 224.617 183.707 226.091 185.432" stroke="#1B3C87" stroke-width="2.02122" stroke-linecap="round" stroke-linejoin="round"/>
<path d="M214.461 244.815C214.554 242.186 221.034 196.842 223.899 187.93" stroke="#1B3C87" stroke-width="2.02122" stroke-linecap="round" stroke-linejoin="round"/>
<path d="M228.379 193.424C232.367 189.157 237.198 184.572 241.076 182.715" stroke="#1B3C87" stroke-width="2.02122" stroke-linecap="round" stroke-linejoin="round"/>
<path d="M102.617 216.364L127.814 257.315" stroke="#1B3C87" stroke-width="2.02122" stroke-linecap="round" stroke-linejoin="round"/>
<path d="M283.912 280.084C283.912 283.464 278.549 307.094 240.463 307.094C236.476 307.094 206.453 305.895 205.895 305.895C205.895 312.922 225.137 358.666 226.972 361.766" stroke="#1B3C87" stroke-width="2.02122" stroke-linecap="round" stroke-linejoin="round"/>
<path d="M177.711 270.044C172.118 272.137 150.723 278.124 150.723 296.808C150.723 305.188 205.077 372.907 209.722 377.12" stroke="#1B3C87" stroke-width="2.02122" stroke-linecap="round" stroke-linejoin="round"/>
<path d="M207.012 380.143L231.94 364.258" stroke="#1B3C87" stroke-width="2.02122" stroke-linecap="round" stroke-linejoin="round"/>
<path d="M209.727 384.526L235.433 368.953" stroke="#1B3C87" stroke-width="2.02122" stroke-linecap="round" stroke-linejoin="round"/>
<path d="M220.008 345.816L235.98 360.249" stroke="#1B3C87" stroke-width="2.02122" stroke-linecap="round" stroke-linejoin="round"/>
<path d="M229.383 313.958L253.155 343.487" stroke="#1B3C87" stroke-width="2.02122" stroke-linecap="round" stroke-linejoin="round"/>
<path d="M255.909 341.367L234.902 361.782" stroke="#1B3C87" stroke-width="2.02122" stroke-linecap="round" stroke-linejoin="round"/>
<path d="M258.561 345.306L237.555 365.721" stroke="#1B3C87" stroke-width="2.02122" stroke-linecap="round" stroke-linejoin="round"/>
<path d="M91.2266 413.841V431.994" stroke="white" stroke-width="2.02122" stroke-linecap="round" stroke-linejoin="round"/>
<path d="M91.2266 270.044V380.143" stroke="#1B3C87" stroke-width="2.02122" stroke-linecap="round" stroke-linejoin="round"/>
<path d="M175.055 270.044V431.994" stroke="#1B3C87" stroke-width="2.02122" stroke-linecap="round" stroke-linejoin="round"/>
<path d="M272.539 187.021C287.213 192.126 279.742 223.556 275.612 224.619C271.481 225.682 246.58 215.827 245.803 213.176C245.025 210.525 255.399 181.05 272.539 187.021Z" fill="#FE8A71"/>
<path d="M253.91 188.91C258.156 184.654 263.524 182.091 269.795 184.276C284.47 189.381 276.998 220.812 272.863 221.874C268.727 222.937 243.832 213.083 243.054 210.432C242.868 209.807 243.3 207.693 244.303 204.888" stroke="#1B3C87" stroke-width="2.02122" stroke-linecap="round" stroke-linejoin="round"/>
<path d="M247.517 214.721C246.323 216.474 239.711 237.853 239.711 237.853C239.711 237.853 193.004 257.994 190.676 259.035C189.827 257.873 187.033 255.748 181.364 255.748C170.984 255.748 169.188 262.633 169.188 264.112C169.188 265.591 184.968 268.878 189.203 268.774C193.437 268.67 252.644 259.665 254.758 258.607C256.872 257.55 271.043 224.099 271.043 224.099C267.209 223.896 249.533 218.424 247.528 214.727" fill="white"/>
<path d="M218.071 261.609C203.128 263.893 188.492 265.991 186.449 266.035C182.214 266.144 166.434 262.858 166.434 261.373C166.434 259.889 168.23 253.009 178.61 253.009C184.29 253.009 187.084 255.129 187.922 256.295C190.25 255.238 236.957 235.114 236.957 235.114C236.957 235.114 243.569 213.751 244.763 211.982" stroke="#1B3C87" stroke-width="2.02122" stroke-linecap="round" stroke-linejoin="round"/>
<path d="M268.287 221.349C268.287 221.349 254.122 254.811 252.002 255.857C251.4 256.159 246.18 257.106 238.922 258.3" stroke="#1B3C87" stroke-width="2.02122" stroke-linecap="round" stroke-linejoin="round"/>
<path d="M317.861 308.311H227.465V316.697H317.861V308.311Z" fill="#8088DC"/>
<path d="M281.287 313.958H224.715V305.571H315.095V313.958H299.21" stroke="#1B3C87" stroke-width="2.02122" stroke-linecap="round" stroke-linejoin="round"/>
<path d="M204.259 265.482H66.7227V272.383H204.259V265.482Z" fill="#8088DC"/>
<path d="M102.619 263.132H201.911V270.044H64.375V263.143H85.5403" stroke="#1B3C87" stroke-width="2.02122" stroke-linecap="round" stroke-linejoin="round"/>
<path d="M178.614 259.675H130.176V265.482H178.614V259.675Z" fill="#FB5D64"/>
<path d="M176.266 257.325H127.828V263.131H176.266V257.325Z" stroke="#1B3C87" stroke-width="2.02122" stroke-linecap="round" stroke-linejoin="round"/>
<path d="M214.449 386.076L230.334 403.445L221.647 427.546L248.295 406.825L232.848 374.962" fill="white"/>
<path d="M239.345 391.274L230.094 372.201" stroke="#1B3C87" stroke-width="2.02122" stroke-linecap="round" stroke-linejoin="round"/>
<path d="M211.711 383.331L227.596 400.7L218.914 424.802L245.557 404.08L242.84 398.493" stroke="#1B3C87" stroke-width="2.02122" stroke-linecap="round" stroke-linejoin="round"/>
<path d="M257.974 351.282L266.821 366.301L272.928 369.478L261.305 396.472L258.654 379.491L243.316 365.507" fill="white"/>
<path d="M244.538 366.34L240.621 362.763" stroke="#1B3C87" stroke-width="2.02122" stroke-linecap="round" stroke-linejoin="round"/>
<path d="M255.228 348.543L264.075 363.557L270.182 366.74L258.559 393.733L255.908 376.753L252.621 373.751" stroke="#1B3C87" stroke-width="2.02122" stroke-linecap="round" stroke-linejoin="round"/>
<path d="M248.059 313.958V431.178" stroke="#1B3C87" stroke-width="2.02122" stroke-linecap="round" stroke-linejoin="round"/>
<path d="M291.777 358.699V431.194" stroke="#1B3C87" stroke-width="2.02122" stroke-linecap="round" stroke-linejoin="round"/>
<path d="M291.777 313.958V338.65" stroke="#1B3C87" stroke-width="2.02122" stroke-linecap="round" stroke-linejoin="round"/>
<path d="M221.646 152.556C221.915 153.487 222.539 154.122 223.043 153.974C223.547 153.827 223.744 152.961 223.476 152.035C223.207 151.11 222.588 150.469 222.079 150.633C221.569 150.797 221.383 151.647 221.646 152.572" fill="#1B3C87"/>
<path d="M215.568 162.794C215.502 163.139 215.395 163.476 215.25 163.796" stroke="#1B3C87" stroke-width="1.71996" stroke-linecap="round" stroke-linejoin="round"/>
<path d="M214.984 157.365C215.419 158.574 215.66 159.844 215.696 161.128" stroke="#1B3C87" stroke-width="1.71996" stroke-linecap="round" stroke-linejoin="round"/>
<path d="M229.974 162.268C230.133 163.495 229.273 165.401 227.613 166.513" stroke="#1B3C87" stroke-width="1.71996" stroke-linecap="round" stroke-linejoin="round"/>
<path d="M156.573 139.36H12.2773V182.896H156.573V139.36Z" fill="#D7E0FF"/>
<path d="M144.162 160.909C144.163 163.422 143.419 165.88 142.023 167.97C140.627 170.061 138.643 171.69 136.321 172.653C133.999 173.616 131.444 173.868 128.978 173.378C126.513 172.889 124.248 171.679 122.47 169.902C120.692 168.125 119.481 165.86 118.991 163.395C118.5 160.93 118.751 158.375 119.713 156.052C120.675 153.73 122.303 151.745 124.393 150.348C126.483 148.951 128.94 148.206 131.454 148.206C134.823 148.206 138.055 149.544 140.438 151.926C142.821 154.308 144.161 157.539 144.162 160.909Z" fill="#B2C3FB"/>
<path d="M107.45 153.542H35.7266" stroke="#EAF0FF" stroke-width="2.02122" stroke-linecap="round" stroke-linejoin="round"/>
<path d="M107.449 168.282H69.4453" stroke="#EAF0FF" stroke-width="2.02122" stroke-linecap="round" stroke-linejoin="round"/>
<path d="M205.897 0H120.141V108.817H205.897V0Z" fill="#EAF0FF"/>
<path d="M153.473 39.0167L178.615 98.1142L231.391 61.4748L153.473 39.0167Z" stroke="#B2C3FB" stroke-width="1.64327" stroke-linecap="round" stroke-linejoin="round"/>
<path d="M78.6498 54.7043H29.2695V75.3274H78.6498V54.7043Z" fill="white"/>
<path d="M55.6694 80.1975H6.28906V100.821H55.6694V80.1975Z" fill="white"/>
</svg>
