<svg width="24" height="25" viewBox="0 0 24 25" fill="none" xmlns="http://www.w3.org/2000/svg">
<path d="M17 11.6187C17.5523 11.6187 18 12.0664 18 12.6187C18 13.1709 17.5523 13.6187 17 13.6187V11.6187ZM3 13.6187C2.44771 13.6187 2 13.1709 2 12.6187C2 12.0664 2.44771 11.6187 3 11.6187V13.6187ZM17 13.6187H3V11.6187H17V13.6187Z" fill="#FE8A71"/>
<path d="M21.7152 12.4152L16.265 8.52222C15.7355 8.14401 15 8.52251 15 9.1732V16.0641C15 16.7148 15.7355 17.0933 16.265 16.7151L21.7152 12.8221C21.8548 12.7224 21.8548 12.5149 21.7152 12.4152Z" fill="#FE8A71"/>
</svg>
