<svg width="615" height="614" viewBox="0 0 615 614" fill="none" xmlns="http://www.w3.org/2000/svg">
<g opacity="0.6">
<rect x="325.707" width="73.7905" height="4.09947" transform="rotate(90 325.707 0)" fill="#FE8A71"/>
<path d="M442.131 46.7339L308.488 46.7339L308.488 42.6344L442.131 42.6344L442.131 46.7339Z" fill="#FE8A71"/>
</g>
<g opacity="0.6">
<rect x="96.9551" y="36.8953" width="73.7905" height="4.09947" transform="rotate(90 96.9551 36.8953)" fill="#FE8A71"/>
<path d="M213.381 83.6292L79.7381 83.6291L79.7381 79.5296L213.381 79.5297L213.381 83.6292Z" fill="#FE8A71"/>
</g>
<g opacity="0.6">
<rect x="334.725" y="569.006" width="73.7905" height="4.09947" transform="rotate(-90 334.725 569.006)" fill="#FE8A71"/>
<path d="M218.301 522.272L351.943 522.272V526.372H218.301V522.272Z" fill="#FE8A71"/>
</g>
<g opacity="0.6">
<rect x="563.477" y="532.111" width="73.7905" height="4.09947" transform="rotate(-90 563.477 532.111)" fill="#FE8A71"/>
<path d="M447.051 485.377L580.693 485.377L580.693 489.477L447.051 489.477L447.051 485.377Z" fill="#FE8A71"/>
</g>
<path d="M428.352 97.7841C476.645 127.922 518.244 176.542 527.742 230.805C537.369 285.05 514.902 345.074 485.201 404.658C455.507 464.376 418.59 524.001 358.796 564.962C299.003 606.082 216.339 628.719 153.063 603.269C89.9279 577.954 46.1875 504.423 22.2397 433.705C-1.56768 362.982 -5.44778 295.077 6.7251 230.365C18.7634 165.824 46.72 104.617 93.2696 74.2095C139.819 43.8022 204.967 44.2066 265.024 50.2365C324.952 56.1316 380.064 67.7811 428.352 97.7841Z" fill="#FFF6F4"/>
<g clip-path="url(#clip0)">
<path d="M301.537 107.001C283.567 107.001 269 121.568 269 139.537V422.589C269 428.187 273.539 432.726 279.137 432.726H482.546C488.144 432.726 492.683 428.187 492.683 422.589V109.028L301.537 107.001Z" fill="#EDF5FF"/>
<path d="M492.683 109.028V422.589C492.683 428.185 488.142 432.726 482.546 432.726H380.842V107.839L492.683 109.028Z" fill="#CEE8FF"/>
<path d="M301.516 107.001H490.89C508.867 107.001 523.44 121.574 523.44 139.55V158.675C523.44 164.273 518.901 168.811 513.303 168.811H344.202C338.604 168.811 334.065 164.273 334.065 158.675V139.55C334.065 121.573 319.492 107.001 301.516 107.001Z" fill="#CEE8FF"/>
<path d="M523.438 139.553V158.678C523.438 164.273 518.904 168.814 513.302 168.814H380.842V107.001H490.893C508.869 107.001 523.438 121.571 523.438 139.553Z" fill="#AEDAFF"/>
<path d="M335.492 211.675L322.725 224.442L319.756 221.473C315.798 217.515 309.379 217.515 305.42 221.473C301.461 225.432 301.461 231.85 305.42 235.809L315.557 245.946C319.515 249.904 325.934 249.905 329.892 245.946L349.828 226.01C353.787 222.051 353.787 215.633 349.828 211.675C345.87 207.716 339.451 207.716 335.492 211.675Z" fill="#00E97B"/>
<path d="M335.492 273.171L322.725 285.939L319.756 282.97C315.798 279.011 309.379 279.011 305.42 282.97C301.461 286.928 301.461 293.346 305.42 297.305L315.557 307.442C319.516 311.4 325.934 311.4 329.892 307.442L349.828 287.506C353.787 283.548 353.787 277.129 349.828 273.171C345.87 269.212 339.451 269.212 335.492 273.171Z" fill="#00E97B"/>
<path d="M335.492 333.713L322.725 346.481L319.756 343.512C315.798 339.554 309.379 339.554 305.42 343.512C301.461 347.47 301.461 353.889 305.42 357.847L315.557 367.984C319.516 371.943 325.934 371.943 329.892 367.984L349.828 348.049C353.787 344.09 353.787 337.672 349.828 333.713C345.87 329.755 339.451 329.755 335.492 333.713Z" fill="#00E97B"/>
<path d="M380.166 239.454H449.096C454.694 239.454 459.232 234.916 459.232 229.317C459.232 223.719 454.694 219.181 449.096 219.181H380.166C374.568 219.181 370.029 223.719 370.029 229.317C370.029 234.916 374.568 239.454 380.166 239.454Z" fill="#00E97B"/>
<path d="M459.232 229.317C459.232 234.913 454.691 239.454 449.096 239.454H380.842V219.181H449.096C454.691 219.181 459.232 223.722 459.232 229.317Z" fill="#00CA7D"/>
<path d="M449.096 280H380.166C374.568 280 370.029 284.539 370.029 290.137C370.029 295.735 374.568 300.273 380.166 300.273H449.096C454.694 300.273 459.232 295.735 459.232 290.137C459.232 284.539 454.694 280 449.096 280Z" fill="#00E97B"/>
<path d="M459.232 290.137C459.232 295.732 454.691 300.273 449.096 300.273H380.842V280H449.096C454.691 280 459.232 284.541 459.232 290.137Z" fill="#00CA7D"/>
<path d="M449.096 340.543H380.166C374.568 340.543 370.029 345.082 370.029 350.68C370.029 356.278 374.568 360.816 380.166 360.816H449.096C454.694 360.816 459.232 356.278 459.232 350.68C459.232 345.082 454.694 340.543 449.096 340.543Z" fill="#00E97B"/>
<path d="M459.232 350.68C459.232 356.275 454.691 360.816 449.096 360.816H380.842V340.543H449.096C454.691 340.543 459.232 345.084 459.232 350.68Z" fill="#00CA7D"/>
<path d="M492.986 453C547.103 453 590.974 409.13 590.974 355.012C590.974 300.895 547.103 257.024 492.986 257.024C438.869 257.024 394.998 300.895 394.998 355.012C394.998 409.13 438.869 453 492.986 453Z" fill="#FE8A71"/>
<path d="M590.974 355.011C590.974 409.04 547.015 452.999 492.986 452.999V257.023C547.015 257.023 590.974 300.983 590.974 355.011Z" fill="#EF7055"/>
<path d="M492.986 432.728C535.907 432.728 570.701 397.933 570.701 355.013C570.701 312.092 535.907 277.298 492.986 277.298C450.066 277.298 415.271 312.092 415.271 355.013C415.271 397.933 450.066 432.728 492.986 432.728Z" fill="#FFDA2D"/>
<path d="M570.701 355.012C570.701 397.863 535.838 432.727 492.986 432.727V277.297C535.838 277.297 570.701 312.16 570.701 355.012Z" fill="#FFAA17"/>
<path d="M492.986 409.074C522.844 409.074 547.049 384.87 547.049 355.012C547.049 325.154 522.844 300.949 492.986 300.949C463.128 300.949 438.924 325.154 438.924 355.012C438.924 384.87 463.128 409.074 492.986 409.074Z" fill="#FE8A71"/>
<path d="M547.049 355.012C547.049 384.82 522.795 409.074 492.986 409.074V300.949C522.795 300.949 547.049 325.203 547.049 355.012Z" fill="#EF7055"/>
<path d="M492.986 388.801C511.648 388.801 526.775 373.673 526.775 355.012C526.775 336.351 511.648 321.223 492.986 321.223C474.325 321.223 459.197 336.351 459.197 355.012C459.197 373.673 474.325 388.801 492.986 388.801Z" fill="#FFDA2D"/>
<path d="M526.775 355.012C526.775 373.643 511.618 388.801 492.986 388.801V321.223C511.618 321.223 526.775 336.38 526.775 355.012Z" fill="#FFAA17"/>
<path d="M608.068 271.747L584.205 263.793L576.251 239.93C573.873 232.796 564.794 230.641 559.467 235.968L523.628 271.806C520.913 274.521 519.965 278.537 521.179 282.18L528.755 304.908L485.819 347.844C481.86 351.802 481.86 358.221 485.819 362.179C489.777 366.139 496.195 366.138 500.154 362.179L543.09 319.243C566.41 326.837 566.143 327.339 569.022 327.339C571.669 327.339 574.259 326.302 576.191 324.369L612.03 288.531C617.348 283.214 615.215 274.129 608.068 271.747Z" fill="#0066B2"/>
<path d="M612.032 288.528L576.189 324.372C574.256 326.305 571.668 327.339 569.018 327.339C566.14 327.339 566.41 326.838 543.089 319.243L500.156 362.182C498.176 364.162 495.581 365.149 492.986 365.149V340.672L528.755 304.909L521.18 282.183C519.964 278.54 520.91 274.519 523.626 271.81L559.47 235.966C564.795 230.641 573.871 232.797 576.249 239.933L584.203 263.795L608.065 271.749C615.215 274.128 617.35 283.217 612.032 288.528Z" fill="#1565D8"/>
</g>
<defs>
<clipPath id="clip0">
<rect width="346" height="346" fill="white" transform="translate(269 107)"/>
</clipPath>
</defs>
</svg>
