<svg width="784" height="510" viewBox="0 0 784 510" fill="none" xmlns="http://www.w3.org/2000/svg">
<path d="M337.028 83.1487L321.375 80.9221" stroke="#011635" stroke-width="1.32732" stroke-linecap="round" stroke-linejoin="round"/>
<path d="M702.094 491.748L714.487 501.552" stroke="#011635" stroke-width="1.32732" stroke-linecap="round" stroke-linejoin="round"/>
<path d="M461.539 0.830933L468.412 15.0657" stroke="#011635" stroke-width="1.32732" stroke-linecap="round" stroke-linejoin="round"/>
<path d="M11.1406 268.157L23.5452 277.96" stroke="#011635" stroke-width="1.32732" stroke-linecap="round" stroke-linejoin="round"/>
<path d="M723.998 297.136L738.897 291.83" stroke="#011635" stroke-width="1.32732" stroke-linecap="round" stroke-linejoin="round"/>
<path d="M530.969 493.144L534.549 508.531" stroke="#011635" stroke-width="1.32732" stroke-linecap="round" stroke-linejoin="round"/>
<path d="M98.5606 464.242L91.5879 478.433" stroke="#011635" stroke-width="1.32732" stroke-linecap="round" stroke-linejoin="round"/>
<path d="M742.377 88.6101L735.404 102.79" stroke="#011635" stroke-width="1.32732" stroke-linecap="round" stroke-linejoin="round"/>
<path d="M78.0418 198.29C78.0418 197.595 77.8354 196.916 77.4488 196.338C77.0622 195.76 76.5127 195.31 75.87 195.045C75.2272 194.779 74.5201 194.71 73.8381 194.847C73.1561 194.983 72.53 195.319 72.039 195.811C71.548 196.303 71.2142 196.93 71.0798 197.612C70.9455 198.294 71.0167 199 71.2844 199.641C71.552 200.283 72.0042 200.831 72.5835 201.215C73.1628 201.6 73.8433 201.804 74.5388 201.802C75.0002 201.803 75.4573 201.713 75.8837 201.537C76.3101 201.361 76.6973 201.102 77.023 200.776C77.3487 200.449 77.6065 200.061 77.7814 199.635C77.9562 199.208 78.0447 198.751 78.0418 198.29V198.29Z" stroke="#011635" stroke-width="1.32732" stroke-linecap="round" stroke-linejoin="round"/>
<path d="M783.173 167.926C783.173 167.231 782.966 166.552 782.58 165.974C782.193 165.396 781.644 164.946 781.001 164.681C780.358 164.415 779.651 164.346 778.969 164.483C778.287 164.619 777.661 164.955 777.17 165.447C776.679 165.939 776.345 166.566 776.211 167.248C776.076 167.93 776.148 168.636 776.415 169.278C776.683 169.919 777.135 170.467 777.714 170.851C778.294 171.236 778.974 171.44 779.67 171.438C780.131 171.438 780.587 171.347 781.013 171.17C781.438 170.994 781.825 170.735 782.151 170.409C782.476 170.082 782.734 169.695 782.909 169.269C783.085 168.843 783.174 168.387 783.173 167.926Z" stroke="#011635" stroke-width="1.32732" stroke-linecap="round" stroke-linejoin="round"/>
<path d="M125.143 29.9651C125.146 29.2701 124.941 28.5901 124.557 28.0111C124.172 27.4322 123.624 26.9804 122.982 26.7129C122.34 26.4454 121.633 26.3743 120.951 26.5085C120.268 26.6428 119.641 26.9763 119.148 27.467C118.656 27.9577 118.32 28.5833 118.184 29.2648C118.047 29.9463 118.116 30.653 118.382 31.2953C118.647 31.9376 119.098 32.4867 119.676 32.873C120.254 33.2594 120.934 33.4656 121.629 33.4656C122.559 33.4656 123.452 33.0972 124.11 32.441C124.769 31.7848 125.14 30.8945 125.143 29.9651V29.9651Z" stroke="#011635" stroke-width="1.32732" stroke-linecap="round" stroke-linejoin="round"/>
<path d="M20.8504 418.658C20.8504 417.963 20.6443 417.284 20.2582 416.707C19.872 416.129 19.3232 415.679 18.6811 415.413C18.039 415.148 17.3324 415.078 16.6508 415.214C15.9691 415.349 15.343 415.684 14.8515 416.175C14.3601 416.666 14.0254 417.291 13.8898 417.973C13.7542 418.654 13.8238 419.36 14.0898 420.002C14.3557 420.643 14.8061 421.192 15.384 421.578C15.9619 421.963 16.6413 422.169 17.3363 422.169C18.2683 422.169 19.1621 421.799 19.8212 421.141C20.4802 420.482 20.8504 419.589 20.8504 418.658Z" stroke="#011635" stroke-width="1.32732" stroke-linecap="round" stroke-linejoin="round"/>
<path d="M678.626 22.9529C678.628 22.2583 678.424 21.5787 678.04 21.0001C677.655 20.4214 677.108 19.9695 676.467 19.7017C675.825 19.4339 675.119 19.3622 674.437 19.4955C673.755 19.6289 673.128 19.9613 672.635 20.4509C672.142 20.9404 671.805 21.5651 671.667 22.2458C671.53 22.9266 671.597 23.6329 671.861 24.2754C672.125 24.9179 672.574 25.4677 673.15 25.8554C673.727 26.2431 674.406 26.4512 675.101 26.4534C675.562 26.4563 676.02 26.3679 676.448 26.1933C676.875 26.0187 677.264 25.7613 677.592 25.436C677.919 25.1106 678.18 24.7237 678.357 24.2976C678.534 23.8714 678.626 23.4144 678.626 22.9529V22.9529Z" stroke="#011635" stroke-width="1.32732" stroke-linecap="round" stroke-linejoin="round"/>
<path d="M383.013 33.4656C383.013 32.7711 382.806 32.0921 382.42 31.5146C382.034 30.9372 381.485 30.4871 380.843 30.2213C380.201 29.9555 379.495 29.886 378.813 30.0215C378.131 30.157 377.505 30.4914 377.014 30.9825C376.522 31.4736 376.187 32.0993 376.052 32.7805C375.916 33.4617 375.986 34.1678 376.252 34.8094C376.518 35.4511 376.968 35.9995 377.546 36.3854C378.124 36.7713 378.803 36.9772 379.498 36.9772C379.96 36.9787 380.418 36.8888 380.845 36.7129C381.272 36.5369 381.66 36.2783 381.987 35.9519C382.313 35.6256 382.572 35.2379 382.748 34.8112C382.924 34.3845 383.014 33.9272 383.013 33.4656Z" stroke="#011635" stroke-width="1.32732" stroke-linecap="round" stroke-linejoin="round"/>
<path d="M162.19 504.343C162.19 503.648 161.984 502.969 161.597 502.391C161.211 501.813 160.661 501.363 160.018 501.098C159.376 500.832 158.669 500.764 157.987 500.9C157.305 501.036 156.678 501.372 156.187 501.864C155.696 502.356 155.363 502.983 155.228 503.665C155.094 504.347 155.165 505.053 155.433 505.695C155.7 506.336 156.153 506.884 156.732 507.268C157.311 507.653 157.992 507.857 158.687 507.855C159.149 507.856 159.606 507.766 160.032 507.59C160.458 507.414 160.846 507.155 161.171 506.829C161.497 506.502 161.755 506.115 161.93 505.688C162.105 505.261 162.193 504.804 162.19 504.343Z" stroke="#011635" stroke-width="1.32732" stroke-linecap="round" stroke-linejoin="round"/>
<path d="M745.891 392.437C745.891 391.742 745.685 391.063 745.299 390.486C744.913 389.908 744.364 389.458 743.722 389.192C743.08 388.927 742.373 388.857 741.692 388.993C741.01 389.128 740.384 389.462 739.893 389.954C739.401 390.445 739.066 391.07 738.931 391.752C738.795 392.433 738.865 393.139 739.131 393.781C739.397 394.422 739.847 394.971 740.425 395.356C741.003 395.742 741.682 395.948 742.377 395.948C742.839 395.95 743.297 395.86 743.724 395.684C744.151 395.508 744.539 395.249 744.865 394.923C745.192 394.597 745.451 394.209 745.627 393.782C745.803 393.356 745.893 392.898 745.891 392.437V392.437Z" stroke="#011635" stroke-width="1.32732" stroke-linecap="round" stroke-linejoin="round"/>
<path d="M37.9014 19.8844L29.1328 33.0336" stroke="#011635" stroke-width="1.32732" stroke-linecap="round" stroke-linejoin="round"/>
<path d="M153.422 470.158C289.883 536.203 517.677 487.616 602.38 420.53C712.503 333.349 739.052 128.756 624.895 59.6644C559.89 20.3165 454.811 29.4999 370.452 143.855C292.122 249.989 235.21 198.567 146.826 229.684C35.0297 269.021 36.7923 413.717 153.422 470.158Z" fill="#FFE8E3"/>
<path d="M598.701 135.59H213.328C205.981 135.59 200.025 141.542 200.025 148.884V404.5C200.025 411.842 205.981 417.794 213.328 417.794H598.701C606.047 417.794 612.003 411.842 612.003 404.5V148.884C612.003 141.542 606.047 135.59 598.701 135.59Z" fill="white"/>
<path d="M547.386 127.127C545.967 113.258 552.618 94.0825 562.362 95.8106C572.106 97.5387 559.946 112.593 568.027 128.18L547.386 127.127Z" fill="#F0A0AE" fill-opacity="0.14"/>
<path d="M550.08 135.59C550.08 135.59 565.844 120.015 574.025 92.2658C582.206 64.5163 618.466 63.63 625.184 98.6908C631.901 133.752 600.341 182.97 600.341 182.97L550.08 135.59Z" fill="#FE8A71"/>
<path d="M602.458 100.474C602.458 100.474 604.497 133.818 574.744 158.853" stroke="#011635" stroke-width="1.32732" stroke-linecap="round" stroke-linejoin="round"/>
<path d="M647.843 108.849C647.843 108.849 653.108 127.072 639.518 140.786" stroke="#011635" stroke-width="1.32732" stroke-linecap="round" stroke-linejoin="round"/>
<path d="M214.635 401.011C214.635 401.011 218.071 417.45 209.303 431.907" stroke="#011635" stroke-width="1.32732" stroke-linecap="round" stroke-linejoin="round"/>
<path d="M197.818 401.011C197.818 401.011 197.319 414.127 190.602 425.382" stroke="#011635" stroke-width="1.32732" stroke-linecap="round" stroke-linejoin="round"/>
<path d="M361.66 411.878C382.966 439.085 404.594 438.232 430.622 438.132C456.651 438.033 486.182 445.3 499.252 462.049C512.322 478.798 551.863 483.407 550.079 443.217C548.294 403.027 490.04 366.969 443.082 368.554C396.125 370.138 364.542 363.015 364.542 363.015L361.66 411.878Z" fill="#FE8A71"/>
<path d="M363.158 385.624C436.167 423.288 487.226 398.64 518.487 438.132" stroke="#011635" stroke-width="1.32732" stroke-linecap="round" stroke-linejoin="round"/>
<path d="M568.027 442.696C568.027 442.696 579.756 450.739 579.379 471.343" stroke="#011635" stroke-width="1.32732" stroke-linecap="round" stroke-linejoin="round"/>
<path d="M218.051 130.484C208.862 111.541 211.134 81.742 224.182 82.0411C237.229 82.3401 224.359 114.1 241.663 127.703L218.051 130.484Z" fill="#F0A0AE" fill-opacity="0.14"/>
<path d="M172.024 167.926C172.024 167.926 120.72 74.7298 169.807 60.2735C211.1 48.0881 202.409 129.154 247.072 147.078L172.024 167.926Z" fill="#FE8A71"/>
<path d="M174.219 84.8105C174.219 84.8105 180.105 126.296 206.987 158.222" stroke="#011635" stroke-width="1.32732" stroke-linecap="round" stroke-linejoin="round"/>
<path d="M144.398 273.186C144.398 273.186 169.274 280.187 190.602 276.066" stroke="#011635" stroke-width="1.32732" stroke-linecap="round" stroke-linejoin="round"/>
<path d="M133.867 141.484C133.867 141.484 148.345 147.421 155.362 162.354" stroke="#011635" stroke-width="1.32732" stroke-linecap="round" stroke-linejoin="round"/>
<path d="M266.681 98.4027C266.681 98.4027 260.029 109.99 266.681 130.052" stroke="#011635" stroke-width="1.32732" stroke-linecap="round" stroke-linejoin="round"/>
<path d="M584.066 123.405H198.693C191.346 123.405 185.391 129.357 185.391 136.698V392.315C185.391 399.657 191.346 405.608 198.693 405.608H584.066C591.413 405.608 597.368 399.657 597.368 392.315V136.698C597.368 129.357 591.413 123.405 584.066 123.405Z" fill="#011635" stroke="#011635" stroke-width="1.32732" stroke-linecap="round" stroke-linejoin="round"/>
<path d="M575.421 123.405H190.049C182.702 123.405 176.746 129.357 176.746 136.698V392.315C176.746 399.657 182.702 405.608 190.049 405.608H575.421C582.768 405.608 588.724 399.657 588.724 392.315V136.698C588.724 129.357 582.768 123.405 575.421 123.405Z" fill="white" stroke="#011635" stroke-width="1.32732" stroke-linecap="round" stroke-linejoin="round"/>
<path d="M190.049 405.608H575.421C578.949 405.608 582.333 404.208 584.828 401.715C587.322 399.222 588.724 395.84 588.724 392.315V378.756H176.746V392.315C176.746 395.84 178.148 399.222 180.642 401.715C183.137 404.208 186.521 405.608 190.049 405.608Z" fill="#F4DC90" stroke="#011635" stroke-width="1.32732" stroke-linecap="round" stroke-linejoin="round"/>
<path d="M389.285 392.149C389.287 390.851 388.904 389.581 388.184 388.501C387.464 387.421 386.439 386.579 385.239 386.081C384.04 385.583 382.719 385.453 381.445 385.705C380.171 385.958 379.001 386.583 378.082 387.501C377.164 388.418 376.539 389.588 376.286 390.861C376.033 392.134 376.164 393.454 376.662 394.653C377.16 395.851 378.003 396.875 379.084 397.595C380.165 398.315 381.435 398.698 382.734 398.696C384.471 398.696 386.138 398.006 387.366 396.778C388.595 395.55 389.285 393.885 389.285 392.149Z" fill="#D0D0D6" stroke="#011635" stroke-width="1.32732" stroke-linecap="round" stroke-linejoin="round"/>
<path d="M575.421 123.405H190.049C186.521 123.405 183.137 124.806 180.642 127.299C178.148 129.791 176.746 133.173 176.746 136.698H588.724C588.724 133.173 587.322 129.791 584.828 127.299C582.333 124.806 578.949 123.405 575.421 123.405Z" fill="#F4DC90" stroke="#011635" stroke-width="1.32732" stroke-linecap="round" stroke-linejoin="round"/>
<path d="M353.148 158.853H204.193V259.959H353.148V158.853Z" fill="#F0A0AE" fill-opacity="0.14"/>
<path d="M353.148 256.337H204.193V259.959H353.148V256.337Z" fill="#F99AAA"/>
<path d="M218.049 165.866H211.221V172.69H218.049V165.866Z" stroke="#011635" stroke-width="1.32732" stroke-linecap="round" stroke-linejoin="round"/>
<path d="M231.717 172.701H224.889" stroke="#011635" stroke-width="1.32732" stroke-linecap="round" stroke-linejoin="round"/>
<path d="M229.49 231.312L249.544 192.507L269.132 222.007L292.245 198.733L307.099 216.103L330.633 227.369" stroke="#011635" stroke-width="1.32732" stroke-linecap="round" stroke-linejoin="round"/>
<path d="M231.941 231.313C231.945 230.828 231.806 230.354 231.54 229.949C231.275 229.544 230.895 229.227 230.449 229.037C230.003 228.848 229.511 228.795 229.035 228.885C228.559 228.975 228.12 229.204 227.774 229.544C227.429 229.883 227.191 230.317 227.093 230.791C226.994 231.265 227.038 231.758 227.219 232.207C227.4 232.656 227.711 233.041 228.111 233.314C228.512 233.586 228.984 233.734 229.469 233.739C229.79 233.741 230.109 233.681 230.408 233.561C230.706 233.44 230.978 233.262 231.207 233.037C231.437 232.812 231.62 232.544 231.746 232.248C231.872 231.952 231.938 231.634 231.941 231.313Z" fill="white" stroke="#011635" stroke-width="1.32732" stroke-linecap="round" stroke-linejoin="round"/>
<path d="M294.705 198.733C294.707 198.246 294.565 197.769 294.295 197.363C294.025 196.957 293.641 196.64 293.191 196.452C292.741 196.265 292.245 196.215 291.767 196.31C291.288 196.404 290.849 196.639 290.504 196.983C290.159 197.328 289.925 197.767 289.83 198.245C289.735 198.723 289.785 199.218 289.973 199.668C290.16 200.118 290.477 200.502 290.884 200.771C291.29 201.041 291.768 201.183 292.255 201.181C292.905 201.181 293.528 200.923 293.988 200.464C294.447 200.005 294.705 199.382 294.705 198.733Z" fill="white" stroke="#011635" stroke-width="1.32732" stroke-linecap="round" stroke-linejoin="round"/>
<path d="M269.131 224.455C270.485 224.455 271.581 223.359 271.581 222.007C271.581 220.655 270.485 219.559 269.131 219.559C267.778 219.559 266.682 220.655 266.682 222.007C266.682 223.359 267.778 224.455 269.131 224.455Z" fill="white" stroke="#011635" stroke-width="1.32732" stroke-linecap="round" stroke-linejoin="round"/>
<path d="M309.548 216.103C309.548 215.619 309.405 215.145 309.135 214.743C308.866 214.34 308.484 214.026 308.036 213.841C307.588 213.656 307.096 213.607 306.62 213.702C306.145 213.796 305.709 214.029 305.366 214.372C305.023 214.714 304.79 215.15 304.696 215.625C304.601 216.1 304.65 216.592 304.835 217.04C305.02 217.487 305.334 217.869 305.737 218.138C306.14 218.407 306.614 218.551 307.098 218.551C307.42 218.551 307.739 218.488 308.036 218.365C308.333 218.242 308.603 218.061 308.831 217.834C309.058 217.607 309.239 217.337 309.362 217.04C309.485 216.743 309.548 216.424 309.548 216.103Z" fill="white" stroke="#011635" stroke-width="1.32732" stroke-linecap="round" stroke-linejoin="round"/>
<path d="M251.993 192.507C251.993 192.023 251.85 191.55 251.581 191.147C251.311 190.745 250.929 190.431 250.481 190.246C250.033 190.06 249.541 190.012 249.066 190.106C248.59 190.201 248.154 190.434 247.811 190.776C247.469 191.119 247.235 191.555 247.141 192.03C247.046 192.505 247.095 192.997 247.28 193.444C247.466 193.892 247.78 194.274 248.183 194.543C248.585 194.812 249.059 194.956 249.544 194.956C250.193 194.956 250.816 194.698 251.276 194.238C251.735 193.779 251.993 193.157 251.993 192.507Z" fill="white" stroke="#011635" stroke-width="1.32732" stroke-linecap="round" stroke-linejoin="round"/>
<path d="M333.083 227.369C333.083 226.885 332.94 226.411 332.67 226.009C332.401 225.606 332.019 225.292 331.571 225.107C331.123 224.922 330.631 224.873 330.156 224.968C329.68 225.062 329.244 225.295 328.901 225.638C328.559 225.98 328.325 226.416 328.231 226.891C328.136 227.366 328.185 227.858 328.37 228.306C328.556 228.753 328.87 229.135 329.272 229.404C329.675 229.673 330.149 229.817 330.633 229.817C331.283 229.817 331.906 229.559 332.366 229.1C332.825 228.641 333.083 228.018 333.083 227.369Z" fill="white" stroke="#011635" stroke-width="1.32732" stroke-linecap="round" stroke-linejoin="round"/>
<path d="M229.49 243.642H330.633" stroke="#011635" stroke-width="1.32732" stroke-linecap="round" stroke-linejoin="round"/>
<path d="M345.688 165.866H306.855V172.69H345.688V165.866Z" fill="white"/>
<path d="M345.687 175.946H325.877V182.77H345.687V175.946Z" fill="#FE8A71"/>
<path d="M353.148 269.043H204.193V356.601H353.148V269.043Z" fill="#F0A0AE" fill-opacity="0.14"/>
<path d="M353.148 352.978H204.193V356.601H353.148V352.978Z" fill="#F99AAA"/>
<path d="M218.049 276.066H211.221V282.89H218.049V276.066Z" stroke="#011635" stroke-width="1.32732" stroke-linecap="round" stroke-linejoin="round"/>
<path d="M231.717 282.89H224.889" stroke="#011635" stroke-width="1.32732" stroke-linecap="round" stroke-linejoin="round"/>
<path d="M345.677 292.04H218.051V296.936H345.677V292.04Z" fill="#FE8A71"/>
<path d="M345.677 303.627H218.051V308.524H345.677V303.627Z" fill="white"/>
<path d="M297.145 315.226H218.051V320.122H297.145V315.226Z" fill="white"/>
<path d="M275.274 326.824H218.051V331.72H275.274V326.824Z" fill="#FE8A71"/>
<path d="M313.538 326.824H281.391V331.72H313.538V326.824Z" fill="#FE8A71"/>
<path d="M252.859 338.411H218.051V343.307H252.859V338.411Z" fill="white"/>
<path d="M561.276 158.853H368.9V183.889H561.276V158.853Z" fill="#F0A0AE" fill-opacity="0.14"/>
<path d="M561.276 183.889H368.9V187.511H561.276V183.889Z" fill="#F99AAA"/>
<path d="M375.916 165.866H382.756" stroke="#011635" stroke-width="1.32732" stroke-linecap="round" stroke-linejoin="round"/>
<path d="M389.586 165.866H396.426" stroke="#011635" stroke-width="1.32732" stroke-linecap="round" stroke-linejoin="round"/>
<path d="M382.745 163.218H375.916V165.866H382.745V163.218Z" stroke="#011635" stroke-width="1.32732" stroke-linecap="round" stroke-linejoin="round"/>
<path d="M451.086 171.859H382.756V176.755H451.086V171.859Z" fill="#FE8A71"/>
<path d="M483.934 171.859H455.256V176.755H483.934V171.859Z" fill="white"/>
<path d="M561.276 192.585H368.9V217.62H561.276V192.585Z" fill="#F0A0AE" fill-opacity="0.14"/>
<path d="M561.276 217.62H368.9V221.243H561.276V217.62Z" fill="#F99AAA"/>
<path d="M375.916 199.608H382.756" stroke="#011635" stroke-width="1.32732" stroke-linecap="round" stroke-linejoin="round"/>
<path d="M389.586 199.608H396.426" stroke="#011635" stroke-width="1.32732" stroke-linecap="round" stroke-linejoin="round"/>
<path d="M382.745 196.961H375.916V199.608H382.745V196.961Z" stroke="#011635" stroke-width="1.32732" stroke-linecap="round" stroke-linejoin="round"/>
<path d="M413.995 205.59H382.756V210.486H413.995V205.59Z" fill="#FE8A71"/>
<path d="M543.417 205.59H452.195V210.486H543.417V205.59Z" fill="#FE8A71"/>
<path d="M447.862 205.59H419.184V210.486H447.862V205.59Z" fill="white"/>
<path d="M561.276 226.316H368.9V251.352H561.276V226.316Z" fill="#F0A0AE" fill-opacity="0.14"/>
<path d="M561.276 251.352H368.9V254.974H561.276V251.352Z" fill="#F99AAA"/>
<path d="M375.916 233.34H382.756" stroke="#011635" stroke-width="1.32732" stroke-linecap="round" stroke-linejoin="round"/>
<path d="M389.586 233.34H396.426" stroke="#011635" stroke-width="1.32732" stroke-linecap="round" stroke-linejoin="round"/>
<path d="M382.745 230.692H375.916V233.34H382.745V230.692Z" stroke="#011635" stroke-width="1.32732" stroke-linecap="round" stroke-linejoin="round"/>
<path d="M451.086 239.322H382.756V244.218H451.086V239.322Z" fill="#FE8A71"/>
<path d="M561.276 260.059H368.9V285.094H561.276V260.059Z" fill="#F0A0AE" fill-opacity="0.14"/>
<path d="M561.276 285.083H368.9V288.706H561.276V285.083Z" fill="#F99AAA"/>
<path d="M375.916 267.071H382.756" stroke="#011635" stroke-width="1.32732" stroke-linecap="round" stroke-linejoin="round"/>
<path d="M389.586 267.071H396.426" stroke="#011635" stroke-width="1.32732" stroke-linecap="round" stroke-linejoin="round"/>
<path d="M382.745 264.424H375.916V267.071H382.745V264.424Z" stroke="#011635" stroke-width="1.32732" stroke-linecap="round" stroke-linejoin="round"/>
<path d="M430.623 273.064H382.756V277.961H430.623V273.064Z" fill="#FE8A71"/>
<path d="M516.746 273.064H436.166V277.961H516.746V273.064Z" fill="white"/>
<path d="M536.066 273.064H522.797V277.961H536.066V273.064Z" fill="white"/>
<path d="M561.276 299.407H368.9V356.601H561.276V299.407Z" fill="#F0A0AE" fill-opacity="0.14"/>
<path d="M561.276 352.978H368.9V356.601H561.276V352.978Z" fill="#F99AAA"/>
<path d="M382.745 306.43H375.916V313.254H382.745V306.43Z" stroke="#011635" stroke-width="1.32732" stroke-linecap="round" stroke-linejoin="round"/>
<path d="M396.426 313.254H389.586" stroke="#011635" stroke-width="1.32732" stroke-linecap="round" stroke-linejoin="round"/>
<path d="M432.996 314.207H405.371V341.812H432.996V314.207Z" fill="#FE8A71"/>
<path d="M412.344 334.844L426.034 321.174" stroke="#011635" stroke-width="1.32732" stroke-linecap="round" stroke-linejoin="round"/>
<path d="M426.034 334.844L412.344 321.174" stroke="#011635" stroke-width="1.32732" stroke-linecap="round" stroke-linejoin="round"/>
<path d="M470.709 314.207H443.084V341.812H470.709V314.207Z" fill="#FE8A71"/>
<path d="M450.057 334.844L463.736 321.174" stroke="#011635" stroke-width="1.32732" stroke-linecap="round" stroke-linejoin="round"/>
<path d="M508.408 314.207H480.783V341.812H508.408V314.207Z" fill="#FE8A71"/>
<path d="M501.427 321.817H489.033V334.202H501.427V321.817Z" stroke="#011635" stroke-width="1.32732" stroke-linecap="round" stroke-linejoin="round"/>
<path d="M546.111 314.207H518.486V341.812H546.111V314.207Z" fill="#FE8A71"/>
<g style="mix-blend-mode:multiply" opacity="0.45">
<g style="mix-blend-mode:multiply" opacity="0.45">
<path d="M675.079 280.94H514.995C510.587 280.94 507.014 284.511 507.014 288.916V448.889C507.014 453.294 510.587 456.865 514.995 456.865H675.079C679.487 456.865 683.061 453.294 683.061 448.889V288.916C683.061 284.511 679.487 280.94 675.079 280.94Z" fill="#FE8A71"/>
</g>
<g style="mix-blend-mode:multiply" opacity="0.45">
<path d="M675.079 280.94H514.995C510.587 280.94 507.014 284.511 507.014 288.916V448.889C507.014 453.294 510.587 456.865 514.995 456.865H675.079C679.487 456.865 683.061 453.294 683.061 448.889V288.916C683.061 284.511 679.487 280.94 675.079 280.94Z" stroke="#FE8A71" stroke-width="1.32732" stroke-linecap="round" stroke-linejoin="round"/>
</g>
</g>
<path d="M667.318 273.186H507.233C502.825 273.186 499.252 276.757 499.252 281.162V441.134C499.252 445.539 502.825 449.11 507.233 449.11H667.318C671.726 449.11 675.299 445.539 675.299 441.134V281.162C675.299 276.757 671.726 273.186 667.318 273.186Z" fill="white"/>
<path d="M667.318 273.186H507.233C502.825 273.186 499.252 276.757 499.252 281.162V441.134C499.252 445.539 502.825 449.11 507.233 449.11H667.318C671.726 449.11 675.299 445.539 675.299 441.134V281.162C675.299 276.757 671.726 273.186 667.318 273.186Z" stroke="#011635" stroke-width="1.32732" stroke-linecap="round" stroke-linejoin="round"/>
<path d="M509.607 289.049L515.904 282.746" stroke="#011635" stroke-width="1.32732" stroke-linecap="round" stroke-linejoin="round"/>
<path d="M509.607 282.746L515.904 289.049" stroke="#011635" stroke-width="1.32732" stroke-linecap="round" stroke-linejoin="round"/>
<path d="M533.552 332.185C530.003 332.185 526.6 333.594 524.091 336.102C521.582 338.609 520.172 342.01 520.172 345.556V348.791H546.943V345.556C546.943 343.799 546.597 342.06 545.924 340.437C545.25 338.814 544.264 337.339 543.02 336.098C541.777 334.856 540.3 333.871 538.676 333.2C537.051 332.529 535.31 332.184 533.552 332.185Z" fill="#FE8A71"/>
<path d="M541.156 321.928C541.159 320.424 540.714 318.954 539.88 317.703C539.046 316.452 537.859 315.476 536.47 314.899C535.08 314.322 533.551 314.17 532.075 314.462C530.599 314.754 529.243 315.477 528.179 316.539C527.114 317.602 526.389 318.956 526.094 320.43C525.8 321.904 525.95 323.433 526.525 324.822C527.1 326.211 528.075 327.399 529.326 328.234C530.577 329.07 532.047 329.516 533.552 329.516C535.567 329.516 537.499 328.717 538.925 327.294C540.351 325.871 541.154 323.941 541.156 321.928Z" fill="#FE8A71"/>
<path d="M551.209 301.866H515.902V348.802H551.209V301.866Z" stroke="#011635" stroke-width="1.32732" stroke-linecap="round" stroke-linejoin="round"/>
<path d="M559.957 338.721H598.789V331.898H559.957V338.721Z" fill="#FE8A71"/>
<path d="M559.968 348.791H579.777V341.967H559.968V348.791Z" fill="#FE8A71"/>
<path d="M658.661 344.626C658.663 343.799 658.42 342.99 657.961 342.301C657.503 341.613 656.85 341.076 656.086 340.758C655.322 340.441 654.481 340.357 653.669 340.518C652.858 340.679 652.112 341.077 651.527 341.662C650.942 342.246 650.543 342.992 650.383 343.803C650.222 344.614 650.305 345.454 650.623 346.218C650.941 346.982 651.478 347.634 652.167 348.092C652.856 348.55 653.665 348.793 654.493 348.791C655.598 348.788 656.656 348.348 657.437 347.568C658.218 346.787 658.658 345.73 658.661 344.626V344.626Z" stroke="#011635" stroke-width="1.32732" stroke-linecap="round" stroke-linejoin="round"/>
<path d="M658.66 359.725H515.902V387.773H658.66V359.725Z" fill="#F0A0AE" fill-opacity="0.14"/>
<path d="M651.089 366.083H523.463V370.979H651.089V366.083Z" fill="#FE8A71"/>
<path d="M571.706 377.67H523.463V382.567H571.706V377.67Z" fill="white"/>
<path d="M658.66 398.696H515.902V426.744H658.66V398.696Z" fill="#F0A0AE" fill-opacity="0.14"/>
<path d="M581.861 405.054H523.463V409.951H581.861V405.054Z" fill="#FE8A71"/>
<path d="M651.102 405.054H586.186V409.951H651.102V405.054Z" fill="white"/>
<path d="M596.705 416.653H550.08V421.549H596.705V416.653Z" fill="white"/>
<path d="M545.767 416.653H523.463V421.549H545.767V416.653Z" fill="white"/>
<path d="M505.628 366.15C488.667 366.15 489.576 351.926 470.798 351.926C468.372 351.926 466.046 350.963 464.331 349.249C462.616 347.535 461.652 345.211 461.652 342.787V339.142" stroke="#011635" stroke-width="1.32732" stroke-linecap="round" stroke-linejoin="round"/>
<path d="M511.923 366.15C511.923 365.315 511.592 364.515 511.001 363.925C510.411 363.335 509.61 363.004 508.775 363.004C507.94 363.004 507.139 363.335 506.549 363.925C505.959 364.515 505.627 365.315 505.627 366.15C505.627 366.984 505.959 367.784 506.549 368.374C507.139 368.964 507.94 369.296 508.775 369.296C509.61 369.296 510.411 368.964 511.001 368.374C511.592 367.784 511.923 366.984 511.923 366.15Z" fill="#011635" stroke="#011635" stroke-width="1.32732" stroke-linecap="round" stroke-linejoin="round"/>
<path d="M464.8 335.996C464.8 335.162 464.468 334.362 463.878 333.772C463.287 333.182 462.487 332.85 461.652 332.85C460.816 332.85 460.014 333.181 459.421 333.771C458.829 334.361 458.495 335.161 458.492 335.996C458.495 336.832 458.829 337.632 459.421 338.221C460.014 338.811 460.816 339.142 461.652 339.142C462.487 339.142 463.287 338.811 463.878 338.221C464.468 337.631 464.8 336.831 464.8 335.996Z" fill="#011635" stroke="#011635" stroke-width="1.32732" stroke-linecap="round" stroke-linejoin="round"/>
<g style="mix-blend-mode:multiply" opacity="0.45">
<g style="mix-blend-mode:multiply" opacity="0.45">
<path d="M698.536 138.914H591.562C587.154 138.914 583.58 142.485 583.58 146.89V253.789C583.58 258.194 587.154 261.765 591.562 261.765H698.536C702.944 261.765 706.517 258.194 706.517 253.789V146.89C706.517 142.485 702.944 138.914 698.536 138.914Z" fill="#FE8A71"/>
</g>
<g style="mix-blend-mode:multiply" opacity="0.45">
<path d="M698.536 138.914H591.562C587.154 138.914 583.58 142.485 583.58 146.89V253.789C583.58 258.194 587.154 261.765 591.562 261.765H698.536C702.944 261.765 706.517 258.194 706.517 253.789V146.89C706.517 142.485 702.944 138.914 698.536 138.914Z" stroke="#FE8A71" stroke-width="1.32732" stroke-linecap="round" stroke-linejoin="round"/>
</g>
</g>
<path d="M690.776 131.159H583.802C579.394 131.159 575.82 134.73 575.82 139.135V246.035C575.82 250.44 579.394 254.011 583.802 254.011H690.776C695.184 254.011 698.757 250.44 698.757 246.035V139.135C698.757 134.73 695.184 131.159 690.776 131.159Z" fill="white"/>
<path d="M690.776 131.159H583.802C579.394 131.159 575.82 134.73 575.82 139.135V246.035C575.82 250.44 579.394 254.011 583.802 254.011H690.776C695.184 254.011 698.757 250.44 698.757 246.035V139.135C698.757 134.73 695.184 131.159 690.776 131.159Z" stroke="#011635" stroke-width="1.32732" stroke-linecap="round" stroke-linejoin="round"/>
<path d="M586.174 147.011L592.47 140.719" stroke="#011635" stroke-width="1.32732" stroke-linecap="round" stroke-linejoin="round"/>
<path d="M586.174 140.719L592.47 147.011" stroke="#011635" stroke-width="1.32732" stroke-linecap="round" stroke-linejoin="round"/>
<path d="M549.303 165.6C568.081 165.6 567.172 179.823 584.133 179.823" stroke="#011635" stroke-width="1.32732" stroke-linecap="round" stroke-linejoin="round"/>
<path d="M590.431 179.824C590.431 179.41 590.35 179.001 590.192 178.62C590.033 178.238 589.802 177.891 589.509 177.599C589.217 177.307 588.87 177.075 588.488 176.917C588.106 176.759 587.696 176.677 587.283 176.677C586.448 176.677 585.647 177.009 585.057 177.599C584.466 178.189 584.135 178.989 584.135 179.824C584.135 180.658 584.466 181.458 585.057 182.048C585.647 182.638 586.448 182.97 587.283 182.97C587.696 182.97 588.106 182.888 588.488 182.73C588.87 182.572 589.217 182.34 589.509 182.048C589.802 181.756 590.033 181.409 590.192 181.027C590.35 180.646 590.431 180.237 590.431 179.824Z" fill="#011635" stroke="#011635" stroke-width="1.32732" stroke-linecap="round" stroke-linejoin="round"/>
<path d="M549.304 165.6C549.304 164.765 548.972 163.965 548.382 163.375C547.791 162.785 546.99 162.454 546.155 162.454C545.319 162.454 544.518 162.785 543.925 163.375C543.333 163.964 542.999 164.764 542.996 165.6C542.999 166.435 543.333 167.235 543.925 167.825C544.518 168.415 545.319 168.746 546.155 168.746C546.99 168.746 547.791 168.414 548.382 167.824C548.972 167.234 549.304 166.434 549.304 165.6Z" fill="#011635" stroke="#011635" stroke-width="1.32732" stroke-linecap="round" stroke-linejoin="round"/>
<path d="M590.431 199.331C590.431 198.918 590.35 198.509 590.192 198.127C590.033 197.746 589.802 197.399 589.509 197.107C589.217 196.815 588.87 196.583 588.488 196.425C588.106 196.267 587.696 196.185 587.283 196.185C586.448 196.185 585.647 196.517 585.057 197.107C584.466 197.697 584.135 198.497 584.135 199.331C584.135 200.167 584.466 200.968 585.056 201.56C585.646 202.152 586.447 202.485 587.283 202.488C588.119 202.485 588.92 202.152 589.51 201.56C590.1 200.968 590.431 200.167 590.431 199.331Z" fill="#011635" stroke="#011635" stroke-width="1.32732" stroke-linecap="round" stroke-linejoin="round"/>
<path d="M549.304 199.331C549.304 198.497 548.972 197.697 548.382 197.107C547.791 196.517 546.99 196.185 546.155 196.185C545.319 196.185 544.518 196.516 543.925 197.106C543.333 197.696 542.999 198.496 542.996 199.331C542.999 200.168 543.333 200.969 543.925 201.56C544.517 202.152 545.318 202.485 546.155 202.488C546.991 202.485 547.792 202.152 548.382 201.56C548.972 200.968 549.304 200.167 549.304 199.331Z" fill="#011635" stroke="#011635" stroke-width="1.32732" stroke-linecap="round" stroke-linejoin="round"/>
<path d="M549.303 199.331H584.133" stroke="#011635" stroke-width="1.32732" stroke-linecap="round" stroke-linejoin="round"/>
<path d="M549.303 233.074C568.081 233.074 567.172 218.85 584.133 218.85" stroke="#011635" stroke-width="1.32732" stroke-linecap="round" stroke-linejoin="round"/>
<path d="M590.431 218.85C590.431 219.263 590.35 219.672 590.192 220.054C590.033 220.436 589.802 220.783 589.509 221.075C589.217 221.367 588.87 221.599 588.488 221.757C588.106 221.915 587.696 221.996 587.283 221.996C586.448 221.996 585.647 221.665 585.057 221.075C584.466 220.485 584.135 219.685 584.135 218.85C584.135 218.015 584.466 217.213 585.056 216.622C585.646 216.03 586.447 215.696 587.283 215.693C588.119 215.696 588.92 216.03 589.51 216.622C590.1 217.213 590.431 218.015 590.431 218.85Z" fill="#011635" stroke="#011635" stroke-width="1.32732" stroke-linecap="round" stroke-linejoin="round"/>
<path d="M549.304 233.074C549.304 233.908 548.972 234.709 548.382 235.299C547.791 235.889 546.99 236.22 546.155 236.22C545.319 236.22 544.518 235.889 543.925 235.299C543.333 234.709 542.999 233.909 542.996 233.074C542.999 232.238 543.333 231.438 543.925 230.849C544.518 230.259 545.319 229.928 546.155 229.928C546.99 229.928 547.791 230.259 548.382 230.849C548.972 231.439 549.304 232.24 549.304 233.074Z" fill="#011635" stroke="#011635" stroke-width="1.32732" stroke-linecap="round" stroke-linejoin="round"/>
<g style="mix-blend-mode:multiply" opacity="0.45">
<g style="mix-blend-mode:multiply" opacity="0.45">
<path d="M369.244 396.048H245.542C241.134 396.048 237.561 399.619 237.561 404.024V463.721C237.561 468.126 241.134 471.697 245.542 471.697H369.244C373.652 471.697 377.225 468.126 377.225 463.721V404.024C377.225 399.619 373.652 396.048 369.244 396.048Z" fill="#FE8A71"/>
</g>
<g style="mix-blend-mode:multiply" opacity="0.45">
<path d="M369.244 396.048H245.542C241.134 396.048 237.561 399.619 237.561 404.024V463.721C237.561 468.126 241.134 471.697 245.542 471.697H369.244C373.652 471.697 377.225 468.126 377.225 463.721V404.024C377.225 399.619 373.652 396.048 369.244 396.048Z" stroke="#FE8A71" stroke-width="1.32732" stroke-linecap="round" stroke-linejoin="round"/>
</g>
</g>
<path d="M361.484 388.294H237.782C233.374 388.294 229.801 391.865 229.801 396.27V455.967C229.801 460.372 233.374 463.943 237.782 463.943H361.484C365.892 463.943 369.466 460.372 369.466 455.967V396.27C369.466 391.865 365.892 388.294 361.484 388.294Z" fill="white"/>
<path d="M361.484 388.294H237.782C233.374 388.294 229.801 391.865 229.801 396.27V455.967C229.801 460.372 233.374 463.943 237.782 463.943H361.484C365.892 463.943 369.466 460.372 369.466 455.967V396.27C369.466 391.865 365.892 388.294 361.484 388.294Z" stroke="#011635" stroke-width="1.32732" stroke-linecap="round" stroke-linejoin="round"/>
<path d="M240.154 404.146L246.451 397.854" stroke="#011635" stroke-width="1.32732" stroke-linecap="round" stroke-linejoin="round"/>
<path d="M240.154 397.854L246.451 404.146" stroke="#011635" stroke-width="1.32732" stroke-linecap="round" stroke-linejoin="round"/>
<path d="M300.016 392.437C300.016 375.488 285.782 376.396 285.782 357.631C285.782 356.43 285.545 355.24 285.085 354.131C284.625 353.021 283.95 352.013 283.1 351.165C282.249 350.316 281.24 349.643 280.129 349.184C279.018 348.726 277.828 348.49 276.626 348.492H272.979" stroke="#011635" stroke-width="1.32732" stroke-linecap="round" stroke-linejoin="round"/>
<path d="M303.152 395.583C303.152 393.845 301.742 392.437 300.004 392.437C298.265 392.437 296.855 393.845 296.855 395.583C296.855 397.32 298.265 398.729 300.004 398.729C301.742 398.729 303.152 397.32 303.152 395.583Z" fill="#011635" stroke="#011635" stroke-width="1.32732" stroke-linecap="round" stroke-linejoin="round"/>
<path d="M269.83 351.638C268.995 351.638 268.194 351.306 267.604 350.716C267.013 350.126 266.682 349.326 266.682 348.492C266.682 347.657 267.013 346.857 267.604 346.267C268.194 345.677 268.995 345.346 269.83 345.346C270.665 345.346 271.466 345.677 272.056 346.267C272.646 346.857 272.978 347.657 272.978 348.492C272.978 349.326 272.646 350.126 272.056 350.716C271.466 351.306 270.665 351.638 269.83 351.638Z" fill="#011635" stroke="#011635" stroke-width="1.32732" stroke-linecap="round" stroke-linejoin="round"/>
<g style="mix-blend-mode:multiply" opacity="0.45">
<g style="mix-blend-mode:multiply" opacity="0.45">
<path d="M473.492 433.181H408.032C403.624 433.181 400.051 436.752 400.051 441.157V476.649C400.051 481.054 403.624 484.625 408.032 484.625H473.492C477.9 484.625 481.473 481.054 481.473 476.649V441.157C481.473 436.752 477.9 433.181 473.492 433.181Z" fill="#FE8A71"/>
</g>
<g style="mix-blend-mode:multiply" opacity="0.45">
<path d="M473.492 433.181H408.032C403.624 433.181 400.051 436.752 400.051 441.157V476.649C400.051 481.054 403.624 484.625 408.032 484.625H473.492C477.9 484.625 481.473 481.054 481.473 476.649V441.157C481.473 436.752 477.9 433.181 473.492 433.181Z" stroke="#FE8A71" stroke-width="1.32732" stroke-linecap="round" stroke-linejoin="round"/>
</g>
</g>
<path d="M465.732 425.426H400.272C395.864 425.426 392.291 428.997 392.291 433.402V468.895C392.291 473.3 395.864 476.871 400.272 476.871H465.732C470.14 476.871 473.713 473.3 473.713 468.895V433.402C473.713 428.997 470.14 425.426 465.732 425.426Z" fill="white"/>
<path d="M465.732 425.426H400.272C395.864 425.426 392.291 428.997 392.291 433.402V468.895C392.291 473.3 395.864 476.871 400.272 476.871H465.732C470.14 476.871 473.713 473.3 473.713 468.895V433.402C473.713 428.997 470.14 425.426 465.732 425.426Z" stroke="#011635" stroke-width="1.32732" stroke-linecap="round" stroke-linejoin="round"/>
<path d="M402.643 441.278L408.939 434.986" stroke="#011635" stroke-width="1.32732" stroke-linecap="round" stroke-linejoin="round"/>
<path d="M402.643 434.986L408.939 441.278" stroke="#011635" stroke-width="1.32732" stroke-linecap="round" stroke-linejoin="round"/>
<path d="M422.088 462.049C422.09 461.463 421.918 460.89 421.594 460.403C421.27 459.915 420.809 459.534 420.268 459.308C419.727 459.083 419.132 459.023 418.557 459.136C417.982 459.248 417.454 459.529 417.039 459.942C416.624 460.356 416.341 460.883 416.226 461.457C416.111 462.031 416.169 462.626 416.392 463.167C416.616 463.708 416.995 464.171 417.482 464.496C417.969 464.822 418.542 464.995 419.128 464.995C419.911 464.996 420.662 464.685 421.217 464.133C421.771 463.581 422.085 462.831 422.088 462.049Z" fill="#011635" stroke="#011635" stroke-width="1.32732" stroke-linecap="round" stroke-linejoin="round"/>
<path d="M452.949 440.237C452.949 439.652 452.775 439.08 452.45 438.594C452.125 438.107 451.663 437.728 451.122 437.504C450.581 437.28 449.986 437.222 449.412 437.336C448.838 437.45 448.31 437.732 447.896 438.145C447.482 438.559 447.2 439.086 447.086 439.66C446.972 440.234 447.031 440.828 447.255 441.369C447.479 441.909 447.858 442.371 448.345 442.696C448.831 443.021 449.404 443.195 449.989 443.195C450.378 443.196 450.764 443.121 451.124 442.973C451.483 442.824 451.81 442.607 452.085 442.332C452.36 442.057 452.578 441.73 452.727 441.371C452.875 441.011 452.95 440.626 452.949 440.237Z" fill="#011635" stroke="#011635" stroke-width="1.32732" stroke-linecap="round" stroke-linejoin="round"/>
<path d="M419.129 462.049C419.129 462.049 444.836 468.839 449.991 440.237" stroke="#011635" stroke-width="1.32732" stroke-linecap="round" stroke-linejoin="round"/>
<path d="M361.66 440.037C380.439 440.037 379.53 454.272 396.49 454.272" stroke="#011635" stroke-width="1.32732" stroke-linecap="round" stroke-linejoin="round"/>
<path d="M402.798 454.272C402.795 453.436 402.461 452.635 401.869 452.043C401.277 451.452 400.475 451.118 399.638 451.115C398.802 451.118 398.002 451.452 397.412 452.044C396.822 452.636 396.49 453.437 396.49 454.272C396.49 455.107 396.822 455.907 397.412 456.497C398.003 457.087 398.804 457.418 399.638 457.418C400.474 457.418 401.276 457.087 401.869 456.498C402.461 455.908 402.795 455.108 402.798 454.272Z" fill="#011635" stroke="#011635" stroke-width="1.32732" stroke-linecap="round" stroke-linejoin="round"/>
<path d="M361.662 440.038C361.662 439.203 361.33 438.403 360.74 437.813C360.149 437.223 359.348 436.892 358.513 436.892C357.679 436.892 356.878 437.223 356.287 437.813C355.697 438.403 355.365 439.203 355.365 440.038C355.365 440.873 355.697 441.674 356.287 442.266C356.877 442.858 357.677 443.192 358.513 443.195C359.349 443.192 360.15 442.858 360.74 442.266C361.33 441.674 361.662 440.873 361.662 440.038Z" fill="#011635" stroke="#011635" stroke-width="1.32732" stroke-linecap="round" stroke-linejoin="round"/>
<g style="mix-blend-mode:multiply" opacity="0.45">
<g style="mix-blend-mode:multiply" opacity="0.45">
<path d="M190.756 295.363H130.573C125.884 295.363 122.082 299.162 122.082 303.849V410.66C122.082 415.346 125.884 419.145 130.573 419.145H190.756C195.446 419.145 199.247 415.346 199.247 410.66V303.849C199.247 299.162 195.446 295.363 190.756 295.363Z" fill="#FE8A71"/>
</g>
<g style="mix-blend-mode:multiply" opacity="0.45">
<path d="M190.756 295.363H130.573C125.884 295.363 122.082 299.162 122.082 303.849V410.66C122.082 415.346 125.884 419.145 130.573 419.145H190.756C195.446 419.145 199.247 415.346 199.247 410.66V303.849C199.247 299.162 195.446 295.363 190.756 295.363Z" stroke="#FE8A71" stroke-width="1.32732" stroke-linecap="round" stroke-linejoin="round"/>
</g>
</g>
<path d="M182.998 287.609H122.816C118.126 287.609 114.324 291.408 114.324 296.094V402.905C114.324 407.591 118.126 411.391 122.816 411.391H182.998C187.688 411.391 191.49 407.591 191.49 402.905V296.094C191.49 291.408 187.688 287.609 182.998 287.609Z" fill="white"/>
<path d="M182.998 287.609H122.816C118.126 287.609 114.324 291.408 114.324 296.094V402.905C114.324 407.591 118.126 411.391 122.816 411.391H182.998C187.688 411.391 191.49 407.591 191.49 402.905V296.094C191.49 291.408 187.688 287.609 182.998 287.609Z" stroke="#011635" stroke-width="1.32732" stroke-linecap="round" stroke-linejoin="round"/>
<path d="M124.678 303.461L130.974 297.169" stroke="#011635" stroke-width="1.32732" stroke-linecap="round" stroke-linejoin="round"/>
<path d="M124.678 297.169L130.974 303.461" stroke="#011635" stroke-width="1.32732" stroke-linecap="round" stroke-linejoin="round"/>
<path d="M178.752 333.969C178.727 333.764 178.628 333.575 178.474 333.437C178.392 333.363 178.296 333.306 178.191 333.269C178.086 333.233 177.975 333.219 177.865 333.227C161.891 334.168 153.699 319.933 153.621 319.756C153.543 319.635 153.435 319.535 153.308 319.466C153.181 319.397 153.039 319.361 152.895 319.361C152.75 319.361 152.608 319.397 152.482 319.466C152.355 319.535 152.247 319.635 152.169 319.756C152.091 319.9 143.888 334.157 127.925 333.227C127.816 333.219 127.707 333.234 127.604 333.27C127.501 333.306 127.406 333.363 127.326 333.437C127.244 333.51 127.177 333.598 127.129 333.697C127.082 333.796 127.055 333.903 127.049 334.013C127.049 334.401 125.575 372.154 152.767 376.374H153.022C180.226 372.109 178.774 334.357 178.752 333.969Z" fill="#FE8A71"/>
<path d="M217.871 305.012C199.093 305.012 200.002 319.236 183.041 319.236" stroke="#011635" stroke-width="1.32732" stroke-linecap="round" stroke-linejoin="round"/>
<path d="M176.746 319.236C176.746 318.401 177.078 317.601 177.668 317.011C178.259 316.421 179.059 316.09 179.894 316.09C180.729 316.09 181.53 316.421 182.12 317.011C182.711 317.601 183.043 318.401 183.043 319.236C183.043 320.07 182.711 320.87 182.12 321.46C181.53 322.05 180.729 322.382 179.894 322.382C179.059 322.382 178.259 322.05 177.668 321.46C177.078 320.87 176.746 320.07 176.746 319.236Z" fill="#011635" stroke="#011635" stroke-width="1.32732" stroke-linecap="round" stroke-linejoin="round"/>
<path d="M217.873 305.012C217.873 304.178 218.205 303.377 218.795 302.787C219.386 302.197 220.186 301.866 221.021 301.866C221.857 301.866 222.659 302.197 223.251 302.787C223.844 303.376 224.178 304.177 224.181 305.012C224.178 305.847 223.844 306.648 223.251 307.237C222.659 307.827 221.857 308.158 221.021 308.158C220.186 308.158 219.386 307.827 218.795 307.237C218.205 306.647 217.873 305.846 217.873 305.012Z" fill="#011635" stroke="#011635" stroke-width="1.32732" stroke-linecap="round" stroke-linejoin="round"/>
<g style="mix-blend-mode:multiply" opacity="0.45">
<g style="mix-blend-mode:multiply" opacity="0.45">
<path d="M191.266 160.548H130.064C125.655 160.548 122.082 164.119 122.082 168.524V257.777C122.082 262.182 125.655 265.753 130.064 265.753H191.266C195.674 265.753 199.247 262.182 199.247 257.777V168.524C199.247 164.119 195.674 160.548 191.266 160.548Z" fill="#FE8A71"/>
</g>
<g style="mix-blend-mode:multiply" opacity="0.45">
<path d="M191.266 160.548H130.064C125.655 160.548 122.082 164.119 122.082 168.524V257.777C122.082 262.182 125.655 265.753 130.064 265.753H191.266C195.674 265.753 199.247 262.182 199.247 257.777V168.524C199.247 164.119 195.674 160.548 191.266 160.548Z" stroke="#FE8A71" stroke-width="1.32732" stroke-linecap="round" stroke-linejoin="round"/>
</g>
</g>
<path d="M183.508 152.794H122.306C117.898 152.794 114.324 156.365 114.324 160.77V250.022C114.324 254.427 117.898 257.998 122.306 257.998H183.508C187.916 257.998 191.49 254.427 191.49 250.022V160.77C191.49 156.365 187.916 152.794 183.508 152.794Z" fill="white"/>
<path d="M183.508 152.794H122.306C117.898 152.794 114.324 156.365 114.324 160.77V250.022C114.324 254.427 117.898 257.998 122.306 257.998H183.508C187.916 257.998 191.49 254.427 191.49 250.022V160.77C191.49 156.365 187.916 152.794 183.508 152.794Z" stroke="#011635" stroke-width="1.32732" stroke-linecap="round" stroke-linejoin="round"/>
<path d="M124.678 168.646L130.974 162.354" stroke="#011635" stroke-width="1.32732" stroke-linecap="round" stroke-linejoin="round"/>
<path d="M124.678 162.354L130.974 168.646" stroke="#011635" stroke-width="1.32732" stroke-linecap="round" stroke-linejoin="round"/>
<path d="M133.298 198.613L143.035 202.549V205.597L130.311 199.702V197.431L143.035 191.552V194.6L133.298 198.613ZM148.152 210.575H145.679L155.136 185.983H157.594L148.152 210.575ZM170.893 198.52L160.612 194.492V191.536L173.895 197.416V199.687L160.612 205.582V202.595L170.893 198.52Z" fill="#011635"/>
<path d="M217.871 192.806C199.093 192.806 200.002 178.583 183.041 178.583" stroke="#011635" stroke-width="1.32732" stroke-linecap="round" stroke-linejoin="round"/>
<path d="M176.746 178.583C176.746 179.417 177.078 180.217 177.668 180.807C178.259 181.397 179.059 181.729 179.894 181.729C180.729 181.729 181.53 181.397 182.12 180.807C182.711 180.217 183.043 179.417 183.043 178.583C183.043 177.748 182.711 176.948 182.12 176.358C181.53 175.768 180.729 175.437 179.894 175.437C179.059 175.437 178.259 175.768 177.668 176.358C177.078 176.948 176.746 177.748 176.746 178.583Z" fill="#011635" stroke="#011635" stroke-width="1.32732" stroke-linecap="round" stroke-linejoin="round"/>
<path d="M217.873 192.806C217.873 193.22 217.954 193.629 218.113 194.01C218.271 194.392 218.503 194.739 218.795 195.031C219.087 195.323 219.435 195.555 219.817 195.713C220.198 195.871 220.608 195.952 221.021 195.952C221.857 195.952 222.659 195.621 223.251 195.032C223.844 194.442 224.178 193.642 224.181 192.806C224.178 191.971 223.844 191.171 223.251 190.581C222.659 189.991 221.857 189.66 221.021 189.66C220.608 189.66 220.198 189.742 219.817 189.9C219.435 190.058 219.087 190.29 218.795 190.582C218.503 190.874 218.271 191.221 218.113 191.603C217.954 191.984 217.873 192.393 217.873 192.806Z" fill="#011635" stroke="#011635" stroke-width="1.32732" stroke-linecap="round" stroke-linejoin="round"/>
<g style="mix-blend-mode:multiply" opacity="0.45">
<g style="mix-blend-mode:multiply" opacity="0.45">
<path d="M316.72 125.897H251.261C246.853 125.897 243.279 129.468 243.279 133.873V169.366C243.279 173.771 246.853 177.342 251.261 177.342H316.72C321.128 177.342 324.702 173.771 324.702 169.366V133.873C324.702 129.468 321.128 125.897 316.72 125.897Z" fill="#FE8A71"/>
</g>
<g style="mix-blend-mode:multiply" opacity="0.45">
<path d="M316.72 125.897H251.261C246.853 125.897 243.279 129.468 243.279 133.873V169.366C243.279 173.771 246.853 177.342 251.261 177.342H316.72C321.128 177.342 324.702 173.771 324.702 169.366V133.873C324.702 129.468 321.128 125.897 316.72 125.897Z" stroke="#FE8A71" stroke-width="1.32732" stroke-linecap="round" stroke-linejoin="round"/>
</g>
</g>
<path d="M308.962 118.143H243.503C239.095 118.143 235.521 121.714 235.521 126.119V161.612C235.521 166.017 239.095 169.588 243.503 169.588H308.962C313.37 169.588 316.944 166.017 316.944 161.612V126.119C316.944 121.714 313.37 118.143 308.962 118.143Z" fill="white"/>
<path d="M308.962 118.143H243.503C239.095 118.143 235.521 121.714 235.521 126.119V161.612C235.521 166.017 239.095 169.588 243.503 169.588H308.962C313.37 169.588 316.944 166.017 316.944 161.612V126.119C316.944 121.714 313.37 118.143 308.962 118.143Z" stroke="#011635" stroke-width="1.32732" stroke-linecap="round" stroke-linejoin="round"/>
<path d="M245.863 134.006L252.16 127.703" stroke="#011635" stroke-width="1.32732" stroke-linecap="round" stroke-linejoin="round"/>
<path d="M245.863 127.703L252.16 134.006" stroke="#011635" stroke-width="1.32732" stroke-linecap="round" stroke-linejoin="round"/>
<path d="M260.939 149.428C261.537 149.428 262.061 149.247 262.508 148.884C262.956 148.521 263.204 148.067 263.252 147.523H264.84C264.81 148.085 264.616 148.621 264.26 149.129C263.903 149.637 263.425 150.042 262.826 150.345C262.233 150.647 261.604 150.798 260.939 150.798C259.602 150.798 258.537 150.354 257.745 149.465C256.958 148.569 256.565 147.347 256.565 145.799V145.518C256.565 144.562 256.741 143.712 257.091 142.968C257.442 142.224 257.944 141.646 258.598 141.235C259.257 140.824 260.034 140.618 260.93 140.618C262.03 140.618 262.944 140.948 263.67 141.607C264.402 142.266 264.792 143.122 264.84 144.175H263.252C263.204 143.54 262.962 143.019 262.527 142.614C262.097 142.203 261.565 141.997 260.93 141.997C260.077 141.997 259.414 142.306 258.942 142.923C258.477 143.534 258.244 144.42 258.244 145.581V145.899C258.244 147.03 258.477 147.901 258.942 148.512C259.408 149.123 260.074 149.428 260.939 149.428ZM266.283 145.617C266.283 144.656 266.47 143.791 266.845 143.022C267.227 142.254 267.753 141.661 268.424 141.244C269.102 140.827 269.873 140.618 270.738 140.618C272.075 140.618 273.155 141.081 273.977 142.006C274.806 142.932 275.22 144.163 275.22 145.699V145.817C275.22 146.773 275.036 147.632 274.667 148.394C274.304 149.15 273.781 149.74 273.097 150.163C272.42 150.587 271.639 150.798 270.756 150.798C269.425 150.798 268.346 150.336 267.517 149.41C266.694 148.485 266.283 147.26 266.283 145.735V145.617ZM267.971 145.817C267.971 146.906 268.222 147.78 268.724 148.439C269.232 149.099 269.909 149.428 270.756 149.428C271.609 149.428 272.287 149.096 272.789 148.43C273.291 147.759 273.542 146.821 273.542 145.617C273.542 144.541 273.285 143.67 272.77 143.004C272.262 142.333 271.585 141.997 270.738 141.997C269.909 141.997 269.241 142.327 268.733 142.986C268.225 143.645 267.971 144.589 267.971 145.817ZM276.917 145.627C276.917 144.12 277.274 142.911 277.988 141.997C278.701 141.078 279.636 140.618 280.791 140.618C281.941 140.618 282.851 141.011 283.523 141.798V136.68H285.201V150.617H283.659L283.577 149.564C282.906 150.387 281.971 150.798 280.773 150.798C279.636 150.798 278.708 150.333 277.988 149.401C277.274 148.47 276.917 147.254 276.917 145.754V145.627ZM278.596 145.817C278.596 146.93 278.825 147.801 279.285 148.43C279.745 149.059 280.38 149.374 281.191 149.374C282.255 149.374 283.033 148.896 283.523 147.94V143.431C283.02 142.505 282.249 142.043 281.209 142.043C280.386 142.043 279.745 142.36 279.285 142.995C278.825 143.63 278.596 144.571 278.596 145.817ZM291.888 150.798C290.557 150.798 289.475 150.363 288.64 149.492C287.805 148.615 287.388 147.444 287.388 145.98V145.672C287.388 144.698 287.572 143.83 287.941 143.068C288.316 142.3 288.837 141.701 289.502 141.271C290.173 140.836 290.899 140.618 291.68 140.618C292.956 140.618 293.948 141.038 294.656 141.879C295.363 142.72 295.717 143.924 295.717 145.49V146.189H289.066C289.091 147.157 289.372 147.94 289.91 148.539C290.455 149.132 291.144 149.428 291.979 149.428C292.572 149.428 293.074 149.307 293.485 149.065C293.897 148.823 294.256 148.503 294.565 148.104L295.59 148.902C294.768 150.166 293.534 150.798 291.888 150.798ZM291.68 141.997C291.002 141.997 290.433 142.245 289.974 142.741C289.514 143.231 289.23 143.921 289.121 144.81H294.039V144.683C293.99 143.83 293.76 143.171 293.349 142.705C292.938 142.233 292.381 141.997 291.68 141.997Z" fill="#011635"/>
<path d="M286.031 421.452V430.435C286.025 431.681 285.632 432.7 284.851 433.493C284.077 434.285 283.025 434.73 281.694 434.826L281.231 434.845C279.785 434.845 278.633 434.454 277.774 433.674C276.915 432.894 276.48 431.82 276.468 430.453V421.452H278.192V430.399C278.192 431.354 278.455 432.098 278.981 432.631C279.507 433.157 280.257 433.42 281.231 433.42C282.217 433.42 282.97 433.157 283.49 432.631C284.017 432.104 284.28 431.363 284.28 430.408V421.452H286.031ZM290.649 434.663H288.907V421.452H290.649V434.663ZM293.916 435.797H292.473L297.99 421.452H299.423L293.916 435.797ZM310.802 421.452V430.435C310.796 431.681 310.402 432.7 309.622 433.493C308.848 434.285 307.795 434.73 306.464 434.826L306.002 434.845C304.556 434.845 303.404 434.454 302.545 433.674C301.686 432.894 301.25 431.82 301.238 430.453V421.452H302.962V430.399C302.962 431.354 303.225 432.098 303.751 432.631C304.278 433.157 305.028 433.42 306.002 433.42C306.988 433.42 307.741 433.157 308.261 432.631C308.787 432.104 309.05 431.363 309.05 430.408V421.452H310.802ZM317.861 426.515L321.027 421.452H323.078L318.904 428.003L323.178 434.663H321.109L317.861 429.509L314.594 434.663H312.535L316.817 428.003L312.634 421.452H314.676L317.861 426.515Z" fill="#011635"/>
<path d="M137.234 390.342C136.238 390.056 135.513 389.705 135.057 389.29C134.605 388.87 134.379 388.354 134.379 387.741C134.379 387.048 134.656 386.475 135.208 386.023C135.765 385.568 136.486 385.34 137.374 385.34C137.979 385.34 138.517 385.457 138.989 385.691C139.465 385.925 139.832 386.247 140.09 386.658C140.352 387.07 140.483 387.519 140.483 388.007H139.315C139.315 387.475 139.146 387.058 138.807 386.755C138.468 386.449 137.991 386.296 137.374 386.296C136.801 386.296 136.353 386.423 136.031 386.677C135.712 386.927 135.553 387.275 135.553 387.723C135.553 388.082 135.704 388.386 136.007 388.636C136.313 388.882 136.831 389.108 137.561 389.314C138.295 389.52 138.868 389.747 139.279 389.997C139.694 390.243 140.001 390.532 140.198 390.862C140.4 391.193 140.501 391.582 140.501 392.03C140.501 392.744 140.223 393.316 139.666 393.748C139.11 394.175 138.366 394.389 137.434 394.389C136.829 394.389 136.265 394.274 135.74 394.044C135.216 393.81 134.811 393.492 134.525 393.089C134.242 392.685 134.101 392.228 134.101 391.715H135.269C135.269 392.248 135.464 392.669 135.855 392.98C136.251 393.286 136.777 393.439 137.434 393.439C138.047 393.439 138.517 393.314 138.844 393.064C139.17 392.814 139.333 392.474 139.333 392.042C139.333 391.611 139.182 391.278 138.88 391.044C138.577 390.806 138.029 390.572 137.234 390.342ZM144.536 394.389C143.648 394.389 142.927 394.099 142.37 393.518C141.814 392.933 141.535 392.153 141.535 391.177V390.971C141.535 390.322 141.658 389.743 141.904 389.235C142.154 388.723 142.501 388.324 142.945 388.038C143.392 387.747 143.876 387.602 144.396 387.602C145.247 387.602 145.909 387.882 146.381 388.443C146.852 389.003 147.088 389.806 147.088 390.85V391.316H142.654C142.67 391.961 142.858 392.484 143.217 392.883C143.58 393.278 144.04 393.476 144.596 393.476C144.991 393.476 145.326 393.395 145.6 393.234C145.874 393.072 146.114 392.859 146.32 392.592L147.004 393.125C146.455 393.968 145.632 394.389 144.536 394.389ZM144.396 388.522C143.945 388.522 143.566 388.687 143.259 389.018C142.953 389.344 142.763 389.804 142.691 390.397H145.969V390.312C145.937 389.743 145.784 389.304 145.509 388.993C145.235 388.679 144.864 388.522 144.396 388.522ZM151.014 393.476C151.413 393.476 151.762 393.355 152.061 393.113C152.359 392.871 152.524 392.568 152.557 392.205H153.615C153.595 392.58 153.466 392.937 153.228 393.276C152.99 393.615 152.671 393.885 152.272 394.087C151.877 394.288 151.458 394.389 151.014 394.389C150.123 394.389 149.413 394.093 148.885 393.5C148.361 392.903 148.098 392.088 148.098 391.056V390.869C148.098 390.231 148.215 389.665 148.449 389.169C148.683 388.673 149.018 388.288 149.453 388.013C149.893 387.739 150.411 387.602 151.008 387.602C151.742 387.602 152.351 387.822 152.835 388.261C153.323 388.701 153.583 389.272 153.615 389.973H152.557C152.524 389.55 152.363 389.203 152.073 388.933C151.786 388.659 151.431 388.522 151.008 388.522C150.439 388.522 149.998 388.727 149.683 389.139C149.373 389.546 149.218 390.137 149.218 390.911V391.123C149.218 391.877 149.373 392.457 149.683 392.865C149.994 393.272 150.437 393.476 151.014 393.476ZM158.914 393.621C158.479 394.133 157.839 394.389 156.997 394.389C156.299 394.389 155.767 394.187 155.4 393.784C155.037 393.377 154.853 392.776 154.849 391.982V387.723H155.968V391.951C155.968 392.943 156.371 393.439 157.178 393.439C158.033 393.439 158.602 393.121 158.884 392.484V387.723H160.003V394.268H158.938L158.914 393.621ZM164.872 388.727C164.703 388.699 164.519 388.685 164.322 388.685C163.588 388.685 163.09 388.997 162.828 389.622V394.268H161.709V387.723H162.797L162.816 388.479C163.183 387.894 163.703 387.602 164.376 387.602C164.594 387.602 164.759 387.63 164.872 387.687V388.727ZM168.502 394.389C167.614 394.389 166.893 394.099 166.336 393.518C165.78 392.933 165.501 392.153 165.501 391.177V390.971C165.501 390.322 165.624 389.743 165.87 389.235C166.12 388.723 166.467 388.324 166.911 388.038C167.358 387.747 167.842 387.602 168.363 387.602C169.213 387.602 169.875 387.882 170.347 388.443C170.818 389.003 171.054 389.806 171.054 390.85V391.316H166.62C166.637 391.961 166.824 392.484 167.183 392.883C167.546 393.278 168.006 393.476 168.562 393.476C168.957 393.476 169.292 393.395 169.566 393.234C169.841 393.072 170.08 392.859 170.286 392.592L170.97 393.125C170.421 393.968 169.599 394.389 168.502 394.389ZM168.363 388.522C167.911 388.522 167.532 388.687 167.225 389.018C166.919 389.344 166.729 389.804 166.657 390.397H169.935V390.312C169.903 389.743 169.75 389.304 169.476 388.993C169.201 388.679 168.83 388.522 168.363 388.522Z" fill="#011635"/>
<g style="mix-blend-mode:multiply" opacity="0.45">
<g style="mix-blend-mode:multiply" opacity="0.45">
<path d="M515.981 138.592H351.673C347.265 138.592 343.691 142.163 343.691 146.568V153.547C343.691 157.952 347.265 161.523 351.673 161.523H515.981C520.389 161.523 523.962 157.952 523.962 153.547V146.568C523.962 142.163 520.389 138.592 515.981 138.592Z" fill="#FE8A71"/>
</g>
<g style="mix-blend-mode:multiply" opacity="0.45">
<path d="M515.981 138.592H351.673C347.265 138.592 343.691 142.163 343.691 146.568V153.547C343.691 157.952 347.265 161.523 351.673 161.523H515.981C520.389 161.523 523.962 157.952 523.962 153.547V146.568C523.962 142.163 520.389 138.592 515.981 138.592Z" stroke="#FE8A71" stroke-width="1.32732" stroke-linecap="round" stroke-linejoin="round"/>
</g>
</g>
<path d="M509.795 132.4H345.487C341.079 132.4 337.506 135.971 337.506 140.376V147.355C337.506 151.76 341.079 155.331 345.487 155.331H509.795C514.203 155.331 517.777 151.76 517.777 147.355V140.376C517.777 135.971 514.203 132.4 509.795 132.4Z" fill="white"/>
<path d="M509.795 132.4H345.487C341.079 132.4 337.506 135.971 337.506 140.376V147.355C337.506 151.76 341.079 155.331 345.487 155.331H509.795C514.203 155.331 517.777 151.76 517.777 147.355V140.376C517.777 135.971 514.203 132.4 509.795 132.4Z" stroke="#011635" stroke-width="1.32732" stroke-linecap="round" stroke-linejoin="round"/>
<path d="M504.451 140.121H384.929C384.436 140.121 383.949 140.218 383.495 140.406C383.04 140.594 382.627 140.87 382.279 141.218C381.931 141.566 381.655 141.978 381.467 142.433C381.279 142.887 381.182 143.374 381.182 143.865C381.182 144.858 381.576 145.811 382.279 146.513C382.982 147.215 383.935 147.61 384.929 147.61H504.451C505.445 147.61 506.398 147.215 507.101 146.513C507.803 145.811 508.198 144.858 508.198 143.865C508.198 143.374 508.101 142.887 507.913 142.433C507.725 141.978 507.449 141.566 507.101 141.218C506.753 140.87 506.34 140.594 505.885 140.406C505.431 140.218 504.943 140.121 504.451 140.121Z" fill="#F0A0AE" fill-opacity="0.14"/>
<path d="M481.105 140.121H384.929C384.436 140.121 383.949 140.218 383.495 140.406C383.04 140.594 382.627 140.87 382.279 141.218C381.931 141.566 381.655 141.978 381.467 142.433C381.279 142.887 381.182 143.374 381.182 143.865C381.182 144.357 381.279 144.844 381.467 145.298C381.655 145.753 381.931 146.165 382.279 146.513C382.627 146.861 383.04 147.137 383.495 147.325C383.949 147.513 384.436 147.61 384.929 147.61H481.105V140.121Z" fill="#FE8A71"/>
<path d="M370.752 140.786H364.455V147.078H370.752V140.786Z" stroke="#011635" stroke-width="1.32732" stroke-linecap="round" stroke-linejoin="round"/>
<g style="mix-blend-mode:multiply" opacity="0.45">
<g style="mix-blend-mode:multiply" opacity="0.45">
<path d="M515.981 106.656H351.673C347.265 106.656 343.691 110.227 343.691 114.632V121.61C343.691 126.015 347.265 129.586 351.673 129.586H515.981C520.389 129.586 523.962 126.015 523.962 121.61V114.632C523.962 110.227 520.389 106.656 515.981 106.656Z" fill="#FE8A71"/>
</g>
<g style="mix-blend-mode:multiply" opacity="0.45">
<path d="M515.981 106.656H351.673C347.265 106.656 343.691 110.227 343.691 114.632V121.61C343.691 126.015 347.265 129.586 351.673 129.586H515.981C520.389 129.586 523.962 126.015 523.962 121.61V114.632C523.962 110.227 520.389 106.656 515.981 106.656Z" stroke="#FE8A71" stroke-width="1.32732" stroke-linecap="round" stroke-linejoin="round"/>
</g>
</g>
<path d="M509.795 100.474H345.487C341.079 100.474 337.506 104.045 337.506 108.45V115.429C337.506 119.834 341.079 123.405 345.487 123.405H509.795C514.203 123.405 517.777 119.834 517.777 115.429V108.45C517.777 104.045 514.203 100.474 509.795 100.474Z" fill="white"/>
<path d="M509.795 100.474H345.487C341.079 100.474 337.506 104.045 337.506 108.45V115.429C337.506 119.834 341.079 123.405 345.487 123.405H509.795C514.203 123.405 517.777 119.834 517.777 115.429V108.45C517.777 104.045 514.203 100.474 509.795 100.474Z" stroke="#011635" stroke-width="1.32732" stroke-linecap="round" stroke-linejoin="round"/>
<path d="M504.451 108.195H384.929C383.935 108.195 382.982 108.59 382.279 109.292C381.576 109.994 381.182 110.947 381.182 111.94C381.182 112.933 381.576 113.885 382.279 114.587C382.982 115.289 383.935 115.684 384.929 115.684H504.451C505.445 115.684 506.398 115.289 507.101 114.587C507.803 113.885 508.198 112.933 508.198 111.94C508.198 110.947 507.803 109.994 507.101 109.292C506.398 108.59 505.445 108.195 504.451 108.195Z" fill="#F0A0AE" fill-opacity="0.14"/>
<path d="M411.811 108.195H384.929C383.935 108.195 382.982 108.59 382.279 109.292C381.576 109.994 381.182 110.947 381.182 111.94C381.182 112.933 381.576 113.885 382.279 114.587C382.982 115.289 383.935 115.684 384.929 115.684H411.811V108.195Z" fill="#FE8A71"/>
<path d="M370.752 108.849H364.455V115.141H370.752V108.849Z" stroke="#011635" stroke-width="1.32732" stroke-linecap="round" stroke-linejoin="round"/>
<g style="mix-blend-mode:multiply" opacity="0.45">
<g style="mix-blend-mode:multiply" opacity="0.45">
<path d="M515.981 170.518H351.673C347.265 170.518 343.691 174.089 343.691 178.494V185.473C343.691 189.878 347.265 193.449 351.673 193.449H515.981C520.389 193.449 523.962 189.878 523.962 185.473V178.494C523.962 174.089 520.389 170.518 515.981 170.518Z" fill="#FE8A71"/>
</g>
<g style="mix-blend-mode:multiply" opacity="0.45">
<path d="M515.981 170.518H351.673C347.265 170.518 343.691 174.089 343.691 178.494V185.473C343.691 189.878 347.265 193.449 351.673 193.449H515.981C520.389 193.449 523.962 189.878 523.962 185.473V178.494C523.962 174.089 520.389 170.518 515.981 170.518Z" stroke="#FE8A71" stroke-width="1.32732" stroke-linecap="round" stroke-linejoin="round"/>
</g>
</g>
<path d="M509.795 164.337H345.487C341.079 164.337 337.506 167.908 337.506 172.313V179.292C337.506 183.697 341.079 187.268 345.487 187.268H509.795C514.203 187.268 517.777 183.697 517.777 179.292V172.313C517.777 167.908 514.203 164.337 509.795 164.337Z" fill="white"/>
<path d="M509.795 164.337H345.487C341.079 164.337 337.506 167.908 337.506 172.313V179.292C337.506 183.697 341.079 187.268 345.487 187.268H509.795C514.203 187.268 517.777 183.697 517.777 179.292V172.313C517.777 167.908 514.203 164.337 509.795 164.337Z" stroke="#011635" stroke-width="1.32732" stroke-linecap="round" stroke-linejoin="round"/>
<path d="M504.451 172.058H384.929C383.935 172.058 382.982 172.453 382.279 173.155C381.576 173.857 381.182 174.809 381.182 175.802C381.182 176.795 381.576 177.748 382.279 178.45C382.982 179.152 383.935 179.547 384.929 179.547H504.451C505.445 179.547 506.398 179.152 507.101 178.45C507.803 177.748 508.198 176.795 508.198 175.802C508.198 174.809 507.803 173.857 507.101 173.155C506.398 172.453 505.445 172.058 504.451 172.058Z" fill="#F0A0AE" fill-opacity="0.14"/>
<path d="M499.951 172.058H384.929C383.935 172.058 382.982 172.453 382.279 173.155C381.576 173.857 381.182 174.809 381.182 175.802C381.182 176.795 381.576 177.748 382.279 178.45C382.982 179.152 383.935 179.547 384.929 179.547H499.951V172.058Z" fill="#FE8A71"/>
<path d="M370.752 172.712H364.455V179.004H370.752V172.712Z" stroke="#011635" stroke-width="1.32732" stroke-linecap="round" stroke-linejoin="round"/>
<path d="M345.055 113.114C326.276 113.114 327.185 127.338 310.225 127.338" stroke="#011635" stroke-width="1.32732" stroke-linecap="round" stroke-linejoin="round"/>
<path d="M303.918 127.393C303.918 126.559 304.25 125.759 304.84 125.169C305.43 124.579 306.231 124.247 307.066 124.247C307.902 124.247 308.704 124.578 309.296 125.168C309.888 125.758 310.223 126.558 310.226 127.393C310.223 128.229 309.888 129.029 309.296 129.618C308.704 130.208 307.902 130.539 307.066 130.539C306.231 130.539 305.43 130.208 304.84 129.618C304.25 129.028 303.918 128.228 303.918 127.393Z" fill="#011635" stroke="#011635" stroke-width="1.32732" stroke-linecap="round" stroke-linejoin="round"/>
<path d="M345.055 113.114C345.055 112.279 345.386 111.477 345.976 110.885C346.566 110.294 347.367 109.96 348.203 109.957C349.039 109.96 349.84 110.294 350.43 110.885C351.02 111.477 351.351 112.279 351.351 113.114C351.351 113.948 351.02 114.749 350.429 115.339C349.839 115.929 349.038 116.26 348.203 116.26C347.368 116.26 346.567 115.929 345.977 115.339C345.386 114.749 345.055 113.948 345.055 113.114Z" fill="#011635" stroke="#011635" stroke-width="1.32732" stroke-linecap="round" stroke-linejoin="round"/>
<path d="M303.918 144.63C303.918 143.795 304.25 142.995 304.84 142.405C305.43 141.815 306.231 141.484 307.066 141.484C307.902 141.484 308.704 141.815 309.296 142.405C309.888 142.994 310.223 143.794 310.226 144.63C310.223 145.465 309.888 146.265 309.296 146.855C308.704 147.445 307.902 147.776 307.066 147.776C306.231 147.776 305.43 147.444 304.84 146.854C304.25 146.264 303.918 145.464 303.918 144.63Z" fill="#011635" stroke="#011635" stroke-width="1.32732" stroke-linecap="round" stroke-linejoin="round"/>
<path d="M345.055 144.63C345.055 143.795 345.386 142.995 345.977 142.405C346.567 141.815 347.368 141.484 348.203 141.484C349.038 141.484 349.839 141.815 350.429 142.405C351.02 142.995 351.351 143.795 351.351 144.63C351.351 145.464 351.02 146.264 350.429 146.854C349.839 147.444 349.038 147.776 348.203 147.776C347.368 147.776 346.567 147.444 345.977 146.854C345.386 146.264 345.055 145.464 345.055 144.63Z" fill="#011635" stroke="#011635" stroke-width="1.32732" stroke-linecap="round" stroke-linejoin="round"/>
<path d="M345.055 144.63H310.225" stroke="#011635" stroke-width="1.32732" stroke-linecap="round" stroke-linejoin="round"/>
<path d="M345.055 175.027C326.276 175.027 327.185 160.803 310.225 160.803" stroke="#011635" stroke-width="1.32732" stroke-linecap="round" stroke-linejoin="round"/>
<path d="M303.918 160.814C303.921 161.647 304.254 162.444 304.844 163.032C305.434 163.619 306.233 163.949 307.066 163.949C307.902 163.949 308.704 163.618 309.296 163.028C309.889 162.439 310.223 161.639 310.226 160.803C310.223 159.968 309.889 159.168 309.296 158.578C308.704 157.988 307.902 157.657 307.066 157.657C306.652 157.657 306.242 157.739 305.859 157.898C305.476 158.056 305.129 158.289 304.836 158.582C304.544 158.876 304.312 159.224 304.154 159.607C303.997 159.99 303.917 160.4 303.918 160.814Z" fill="#011635" stroke="#011635" stroke-width="1.32732" stroke-linecap="round" stroke-linejoin="round"/>
<path d="M345.055 175.027C345.055 175.861 345.386 176.662 345.977 177.252C346.567 177.841 347.368 178.173 348.203 178.173C348.621 178.18 349.036 178.104 349.425 177.95C349.813 177.795 350.167 177.564 350.465 177.271C350.763 176.978 351 176.629 351.162 176.244C351.323 175.858 351.407 175.445 351.407 175.027C351.407 174.193 351.075 173.392 350.485 172.802C349.894 172.212 349.093 171.881 348.258 171.881C347.84 171.874 347.425 171.949 347.037 172.104C346.648 172.259 346.295 172.49 345.996 172.782C345.698 173.075 345.461 173.425 345.3 173.81C345.138 174.195 345.055 174.609 345.055 175.027Z" fill="#011635" stroke="#011635" stroke-width="1.32732" stroke-linecap="round" stroke-linejoin="round"/>
</svg>
