<svg width="581" height="614" viewBox="0 0 581 614" fill="none" xmlns="http://www.w3.org/2000/svg">
<g opacity="0.6">
<rect x="325.707" width="73.7905" height="4.09947" transform="rotate(90 325.707 0)" fill="#FE8A71"/>
<path d="M442.131 46.7339L308.488 46.7339L308.488 42.6344L442.131 42.6344L442.131 46.7339Z" fill="#FE8A71"/>
</g>
<g opacity="0.6">
<rect x="96.9551" y="36.8953" width="73.7905" height="4.09947" transform="rotate(90 96.9551 36.8953)" fill="#FE8A71"/>
<path d="M213.381 83.6292L79.7381 83.6291L79.7381 79.5296L213.381 79.5297L213.381 83.6292Z" fill="#FE8A71"/>
</g>
<g opacity="0.6">
<rect x="334.725" y="569.007" width="73.7905" height="4.09947" transform="rotate(-90 334.725 569.007)" fill="#FE8A71"/>
<path d="M218.301 522.273L351.943 522.273V526.372H218.301V522.273Z" fill="#FE8A71"/>
</g>
<g opacity="0.6">
<rect x="563.477" y="532.111" width="73.7905" height="4.09947" transform="rotate(-90 563.477 532.111)" fill="#FE8A71"/>
<path d="M447.051 485.377L580.693 485.377L580.693 489.477L447.051 489.477L447.051 485.377Z" fill="#FE8A71"/>
</g>
<path d="M428.352 97.7841C476.645 127.922 518.244 176.542 527.742 230.805C537.369 285.05 514.902 345.074 485.201 404.658C455.507 464.376 418.59 524.001 358.796 564.962C299.003 606.082 216.339 628.719 153.063 603.269C89.9279 577.954 46.1875 504.423 22.2397 433.705C-1.56768 362.982 -5.44778 295.077 6.7251 230.365C18.7634 165.824 46.72 104.617 93.2696 74.2095C139.819 43.8022 204.967 44.2066 265.024 50.2365C324.952 56.1316 380.064 67.7811 428.352 97.7841Z" fill="#FFF6F4"/>
</svg>
