<svg width="700" height="733" viewBox="0 0 700 733" fill="none" xmlns="http://www.w3.org/2000/svg">
<path d="M408.001 292.5L408.982 292.308L408.001 292.5ZM0.865148 730.509C0.317908 730.584 -0.0653423 731.088 0.00913417 731.635C0.0836107 732.182 0.587611 732.565 1.13485 732.491L0.865148 730.509ZM7.04579 731.67C7.59261 731.592 7.97302 731.086 7.89548 730.539C7.81793 729.992 7.31179 729.612 6.76498 729.689L7.04579 731.67ZM18.5135 727.955C17.9676 728.039 17.593 728.549 17.6768 729.095C17.7606 729.641 18.2711 730.016 18.817 729.932L18.5135 727.955ZM30.5684 728.057C31.1133 727.967 31.4818 727.452 31.3916 726.907C31.3013 726.362 30.7865 725.994 30.2416 726.084L30.5684 728.057ZM41.9452 724.073C41.4015 724.17 41.0393 724.689 41.1361 725.233C41.233 725.776 41.7523 726.139 42.296 726.042L41.9452 724.073ZM53.9994 723.881C54.5419 723.777 54.8976 723.254 54.7938 722.711C54.6901 722.169 54.1663 721.813 53.6239 721.917L53.9994 723.881ZM65.2711 719.612C64.7301 719.722 64.3812 720.251 64.492 720.792C64.6028 721.333 65.1312 721.682 65.6722 721.571L65.2711 719.612ZM77.3179 719.105C77.8574 718.987 78.1991 718.454 78.0811 717.915C77.963 717.375 77.4299 717.034 76.8904 717.152L77.3179 719.105ZM88.4674 714.534C87.9296 714.66 87.5954 715.197 87.721 715.735C87.8466 716.273 88.3844 716.607 88.9222 716.482L88.4674 714.534ZM100.499 713.69C101.035 713.557 101.361 713.014 101.228 712.478C101.094 711.942 100.552 711.616 100.016 711.749L100.499 713.69ZM111.506 708.798C110.972 708.94 110.654 709.487 110.795 710.021C110.937 710.555 111.484 710.873 112.018 710.732L111.506 708.798ZM123.512 707.591C124.043 707.441 124.353 706.889 124.203 706.357C124.053 705.826 123.501 705.516 122.97 705.666L123.512 707.591ZM134.353 702.359C133.824 702.518 133.523 703.075 133.682 703.604C133.84 704.133 134.397 704.434 134.926 704.275L134.353 702.359ZM146.321 700.759C146.847 700.592 147.138 700.03 146.971 699.503C146.803 698.977 146.241 698.686 145.715 698.853L146.321 700.759ZM156.967 695.167C156.444 695.343 156.163 695.911 156.339 696.434C156.516 696.957 157.083 697.238 157.607 697.062L156.967 695.167ZM168.881 693.142C169.4 692.955 169.671 692.383 169.485 691.863C169.299 691.343 168.726 691.073 168.206 691.259L168.881 693.142ZM179.305 687.164C178.789 687.36 178.529 687.938 178.725 688.454C178.921 688.97 179.499 689.23 180.015 689.034L179.305 687.164ZM191.138 684.68C191.65 684.473 191.898 683.89 191.692 683.378C191.485 682.866 190.903 682.618 190.39 682.825L191.138 684.68ZM201.327 678.283C200.819 678.5 200.584 679.087 200.801 679.595C201.018 680.103 201.606 680.339 202.114 680.121L201.327 678.283ZM213.029 675.311C213.532 675.083 213.755 674.49 213.526 673.987C213.298 673.484 212.705 673.262 212.202 673.49L213.029 675.311ZM222.943 668.466C222.445 668.706 222.236 669.304 222.476 669.801C222.716 670.299 223.313 670.508 223.811 670.268L222.943 668.466ZM234.476 664.971C234.967 664.719 235.162 664.117 234.91 663.625C234.658 663.133 234.056 662.939 233.564 663.19L234.476 664.971ZM244.065 657.649C243.58 657.913 243.4 658.521 243.664 659.006C243.928 659.491 244.535 659.67 245.021 659.406L244.065 657.649ZM255.385 653.591C255.863 653.315 256.027 652.703 255.75 652.225C255.474 651.747 254.862 651.584 254.384 651.86L255.385 653.591ZM264.592 645.767C264.122 646.056 263.976 646.672 264.265 647.143C264.555 647.613 265.171 647.759 265.641 647.47L264.592 645.767ZM275.678 641.089C276.139 640.786 276.268 640.166 275.965 639.704C275.662 639.242 275.042 639.113 274.58 639.416L275.678 641.089ZM284.406 632.755C283.954 633.072 283.844 633.696 284.161 634.148C284.478 634.601 285.101 634.711 285.554 634.394L284.406 632.755ZM295.207 627.407C295.649 627.076 295.74 626.449 295.409 626.007C295.078 625.565 294.451 625.475 294.009 625.805L295.207 627.407ZM303.372 618.56C302.941 618.905 302.871 619.534 303.217 619.966C303.562 620.397 304.191 620.466 304.622 620.121L303.372 618.56ZM313.813 612.505C314.232 612.145 314.28 611.514 313.92 611.095C313.561 610.676 312.93 610.627 312.51 610.987L313.813 612.505ZM321.355 603.123C320.949 603.497 320.923 604.13 321.297 604.536C321.671 604.942 322.304 604.968 322.71 604.594L321.355 603.123ZM331.334 596.349C331.726 595.96 331.729 595.327 331.34 594.935C330.951 594.543 330.318 594.54 329.926 594.929L331.334 596.349ZM338.177 586.429C337.8 586.832 337.821 587.465 338.225 587.842C338.628 588.219 339.261 588.198 339.638 587.794L338.177 586.429ZM347.602 578.929C347.963 578.511 347.917 577.879 347.499 577.518C347.081 577.157 346.45 577.204 346.089 577.622L347.602 578.929ZM353.652 568.5C353.308 568.932 353.38 569.561 353.812 569.905C354.244 570.248 354.873 570.177 355.217 569.745L353.652 568.5ZM362.447 560.265C362.773 559.819 362.675 559.193 362.229 558.867C361.784 558.541 361.158 558.639 360.832 559.085L362.447 560.265ZM367.618 549.377C367.311 549.836 367.435 550.457 367.894 550.764C368.353 551.07 368.974 550.947 369.281 550.488L367.618 549.377ZM375.692 540.439C375.979 539.967 375.829 539.352 375.358 539.065C374.886 538.778 374.271 538.928 373.984 539.399L375.692 540.439ZM379.928 529.142C379.662 529.626 379.838 530.234 380.321 530.501C380.805 530.767 381.413 530.591 381.68 530.108L379.928 529.142ZM387.205 519.556C387.451 519.061 387.249 518.461 386.755 518.216C386.26 517.97 385.66 518.172 385.414 518.666L387.205 519.556ZM390.453 507.951C390.228 508.455 390.456 509.046 390.96 509.271C391.465 509.495 392.056 509.268 392.28 508.763L390.453 507.951ZM396.895 497.75C397.097 497.236 396.845 496.656 396.331 496.453C395.817 496.251 395.237 496.503 395.034 497.017L396.895 497.75ZM399.135 485.936C398.955 486.458 399.231 487.027 399.753 487.208C400.275 487.389 400.844 487.113 401.025 486.591L399.135 485.936ZM404.708 475.204C404.867 474.675 404.567 474.117 404.038 473.958C403.509 473.799 402.951 474.099 402.792 474.628L404.708 475.204ZM405.961 463.261C405.823 463.796 406.145 464.341 406.68 464.479C407.215 464.616 407.76 464.294 407.898 463.759L405.961 463.261ZM410.643 452.14C410.759 451.6 410.416 451.068 409.876 450.952C409.336 450.836 408.804 451.179 408.688 451.719L410.643 452.14ZM410.96 440.097C410.864 440.641 411.228 441.159 411.772 441.255C412.316 441.35 412.834 440.987 412.93 440.443L410.96 440.097ZM414.773 428.682C414.848 428.135 414.466 427.631 413.919 427.555C413.372 427.48 412.867 427.862 412.792 428.409L414.773 428.682ZM414.203 416.607C414.147 417.156 414.548 417.647 415.097 417.703C415.646 417.759 416.137 417.358 416.193 416.809L414.203 416.607ZM417.189 404.983C417.226 404.432 416.809 403.956 416.258 403.919C415.707 403.882 415.23 404.298 415.193 404.849L417.189 404.983ZM415.793 392.941C415.775 393.493 416.207 393.955 416.759 393.974C417.311 393.993 417.773 393.561 417.792 393.009L415.793 392.941ZM418.006 381.175C418.007 380.623 417.561 380.174 417.008 380.173C416.456 380.172 416.007 380.618 416.006 381.17L418.006 381.175ZM415.852 369.225C415.868 369.777 416.328 370.212 416.88 370.196C417.432 370.181 417.867 369.721 417.852 369.169L415.852 369.225ZM417.351 357.365C417.32 356.813 416.848 356.391 416.296 356.423C415.745 356.454 415.323 356.926 415.354 357.478L417.351 357.365ZM414.512 345.557C414.558 346.107 415.042 346.515 415.592 346.469C416.143 346.422 416.551 345.939 416.505 345.388L414.512 345.557ZM415.355 333.63C415.294 333.081 414.8 332.685 414.251 332.746C413.702 332.807 413.306 333.301 413.367 333.85L415.355 333.63ZM411.902 322.008C411.977 322.555 412.481 322.938 413.028 322.864C413.575 322.789 413.958 322.285 413.884 321.738L411.902 322.008ZM412.142 310.023C412.055 309.478 411.542 309.107 410.996 309.195C410.451 309.282 410.08 309.795 410.168 310.341L412.142 310.023ZM408.146 298.623C408.246 299.166 408.768 299.525 409.311 299.425C409.854 299.325 410.213 298.804 410.113 298.261L408.146 298.623ZM407.864 286.319C407.768 285.775 407.249 285.412 406.705 285.509C406.161 285.605 405.798 286.124 405.895 286.668L407.864 286.319ZM404.017 274.851C404.093 275.398 404.599 275.78 405.146 275.703C405.693 275.626 406.074 275.121 405.997 274.574L404.017 274.851ZM404.565 262.663C404.509 262.114 404.019 261.713 403.47 261.768C402.92 261.823 402.519 262.313 402.574 262.863L404.565 262.663ZM401.631 250.992C401.664 251.543 402.137 251.964 402.688 251.932C403.239 251.899 403.66 251.426 403.628 250.875L401.631 250.992ZM403.196 238.871C403.189 238.319 402.735 237.877 402.183 237.884C401.631 237.892 401.189 238.345 401.196 238.897L403.196 238.871ZM401.322 226.883C401.303 227.435 401.734 227.898 402.286 227.917C402.838 227.936 403.301 227.504 403.32 226.952L401.322 226.883ZM404.023 215.137C404.07 214.587 403.662 214.103 403.112 214.056C402.561 214.009 402.077 214.418 402.031 214.968L404.023 215.137ZM403.378 202.938C403.301 203.485 403.683 203.99 404.23 204.067C404.777 204.143 405.282 203.761 405.358 203.214L403.378 202.938ZM407.334 191.462C407.441 190.92 407.089 190.394 406.547 190.287C406.005 190.18 405.479 190.533 405.372 191.075L407.334 191.462ZM408.035 179.384C407.896 179.918 408.217 180.464 408.752 180.602C409.287 180.741 409.832 180.419 409.971 179.885L408.035 179.384ZM413.303 168.445C413.474 167.92 413.186 167.356 412.661 167.185C412.136 167.015 411.572 167.302 411.401 167.827L413.303 168.445ZM415.478 156.48C415.275 156.994 415.527 157.575 416.04 157.778C416.554 157.981 417.135 157.729 417.338 157.215L415.478 156.48ZM422.056 146.284C422.291 145.784 422.076 145.189 421.576 144.954C421.076 144.719 420.481 144.934 420.246 145.434L422.056 146.284ZM425.696 134.72C425.43 135.204 425.607 135.812 426.092 136.077C426.576 136.343 427.184 136.166 427.449 135.682L425.696 134.72ZM433.499 125.44C433.794 124.973 433.656 124.355 433.189 124.06C432.723 123.764 432.105 123.903 431.809 124.369L433.499 125.44ZM438.57 114.396C438.246 114.843 438.346 115.468 438.794 115.792C439.241 116.116 439.866 116.016 440.19 115.568L438.57 114.396ZM447.465 106.13C447.815 105.703 447.752 105.073 447.325 104.723C446.898 104.373 446.268 104.435 445.918 104.862L447.465 106.13ZM453.811 95.7845C453.437 96.1907 453.463 96.8233 453.869 97.1976C454.275 97.5718 454.908 97.5459 455.282 97.1398L453.811 95.7845ZM463.599 88.606C463.995 88.2213 464.004 87.5882 463.62 87.1919C463.235 86.7957 462.602 86.7864 462.206 87.1711L463.599 88.606ZM471.055 79.0266C470.639 79.3897 470.596 80.0214 470.96 80.4375C471.323 80.8536 471.954 80.8965 472.37 80.5333L471.055 79.0266ZM481.551 72.9219C481.985 72.5801 482.06 71.9514 481.718 71.5176C481.376 71.0837 480.747 71.0091 480.313 71.3509L481.551 72.9219ZM489.934 64.1401C489.484 64.4608 489.38 65.0853 489.7 65.535C490.021 65.9846 490.645 66.0891 491.095 65.7684L489.934 64.1401ZM500.963 59.0627C501.426 58.7625 501.559 58.1434 501.259 57.6798C500.959 57.2162 500.34 57.0837 499.876 57.3838L500.963 59.0627ZM510.103 51.0696C509.627 51.3498 509.468 51.9627 509.749 52.4386C510.029 52.9146 510.642 53.0733 511.118 52.7931L510.103 51.0696ZM521.525 46.9468C522.012 46.686 522.195 46.0799 521.934 45.5931C521.673 45.1063 521.067 44.9231 520.58 45.184L521.525 46.9468ZM531.275 39.7133C530.779 39.9555 530.573 40.5543 530.815 41.0506C531.058 41.5469 531.656 41.7529 532.153 41.5107L531.275 39.7133ZM542.978 36.468C543.483 36.2437 543.71 35.6527 543.486 35.148C543.261 34.6433 542.671 34.416 542.166 34.6403L542.978 36.468ZM553.227 29.9508C552.715 30.1578 552.468 30.7406 552.675 31.2527C552.882 31.7647 553.465 32.012 553.977 31.8051L553.227 29.9508ZM565.126 27.5096C565.644 27.3194 565.911 26.7448 565.72 26.2263C565.53 25.7079 564.956 25.4418 564.437 25.632L565.126 27.5096ZM575.774 21.6718C575.25 21.8459 574.966 22.4119 575.14 22.936C575.315 23.4601 575.881 23.7439 576.405 23.5698L575.774 21.6718ZM587.794 19.9751C588.323 19.8167 588.623 19.2593 588.465 18.7303C588.306 18.2012 587.749 17.9007 587.22 18.0592L587.794 19.9751ZM598.758 14.7844C598.224 14.9276 597.908 15.4761 598.051 16.0095C598.194 16.5429 598.743 16.8592 599.276 16.716L598.758 14.7844ZM610.87 13.7766C611.407 13.6483 611.738 13.1089 611.61 12.5717C611.482 12.0345 610.942 11.703 610.405 11.8313L610.87 13.7766ZM622.129 9.20012C621.589 9.31373 621.243 9.84396 621.357 10.3844C621.47 10.9249 622 11.271 622.541 11.1574L622.129 9.20012ZM634.277 8.85492C634.82 8.75588 635.18 8.23513 635.081 7.6918C634.982 7.14847 634.462 6.7883 633.918 6.88735L634.277 8.85492ZM645.762 4.89161C645.216 4.97608 644.842 5.48701 644.927 6.0328C645.011 6.57858 645.522 6.95255 646.068 6.86808L645.762 4.89161ZM657.906 5.19862C658.454 5.1289 658.841 4.62824 658.772 4.08037C658.702 3.53251 658.201 3.1449 657.653 3.21462L657.906 5.19862ZM669.586 1.86223C669.036 1.91681 668.635 2.40658 668.689 2.95616C668.744 3.50574 669.234 3.90702 669.783 3.85244L669.586 1.86223ZM681.694 2.84108C682.245 2.80235 682.66 2.32434 682.621 1.77342C682.582 1.22249 682.104 0.807275 681.553 0.846003L681.694 2.84108ZM693.55 0.185742C692.998 0.207476 692.568 0.672463 692.59 1.22432C692.612 1.77618 693.077 2.20593 693.629 2.18419L693.55 0.185742ZM1.13485 732.491C3.10788 732.222 5.07823 731.949 7.04579 731.67L6.76498 729.689C4.80114 729.968 2.83449 730.241 0.865148 730.509L1.13485 732.491ZM18.817 729.932C22.7465 729.329 26.6639 728.704 30.5684 728.057L30.2416 726.084C26.345 726.729 22.4353 727.353 18.5135 727.955L18.817 729.932ZM42.296 726.042C46.2115 725.344 50.1129 724.624 53.9994 723.881L53.6239 721.917C49.7457 722.658 45.8525 723.377 41.9452 724.073L42.296 726.042ZM65.6722 721.571C69.5705 720.773 73.4527 719.951 77.3179 719.105L76.8904 717.152C73.0341 717.995 69.1607 718.815 65.2711 719.612L65.6722 721.571ZM88.9222 716.482C92.7997 715.576 96.6589 714.646 100.499 713.69L100.016 711.749C96.1854 712.703 92.3357 713.631 88.4674 714.534L88.9222 716.482ZM112.018 710.732C115.87 709.711 119.702 708.664 123.512 707.591L122.97 705.666C119.17 706.737 115.348 707.781 111.506 708.798L112.018 710.732ZM134.926 704.275C138.748 703.131 142.546 701.959 146.321 700.759L145.715 698.853C141.951 700.05 138.164 701.219 134.353 702.359L134.926 704.275ZM157.607 697.062C161.391 695.785 165.149 694.478 168.881 693.142L168.206 691.259C164.487 692.591 160.74 693.893 156.967 695.167L157.607 697.062ZM180.015 689.034C183.752 687.614 187.461 686.162 191.138 684.68L190.39 682.825C186.725 684.302 183.03 685.749 179.305 687.164L180.015 689.034ZM202.114 680.121C205.785 678.551 209.424 676.948 213.029 675.311L212.202 673.49C208.611 675.121 204.985 676.718 201.327 678.283L202.114 680.121ZM223.811 670.268C227.402 668.537 230.957 666.772 234.476 664.971L233.564 663.19C230.061 664.984 226.52 666.742 222.943 668.466L223.811 670.268ZM245.021 659.406C248.515 657.505 251.971 655.567 255.385 653.591L254.384 651.86C250.985 653.827 247.545 655.756 244.065 657.649L245.021 659.406ZM265.641 647.47C269.031 645.382 272.377 643.255 275.678 641.089L274.58 639.416C271.296 641.572 267.966 643.689 264.592 645.767L265.641 647.47ZM285.554 634.394C288.82 632.106 292.038 629.778 295.207 627.407L294.009 625.805C290.857 628.163 287.656 630.48 284.406 632.755L285.554 634.394ZM304.622 620.121C307.739 617.627 310.803 615.088 313.813 612.505L312.51 610.987C309.518 613.555 306.471 616.079 303.372 618.56L304.622 620.121ZM322.71 604.594C325.642 601.891 328.517 599.143 331.334 596.349L329.926 594.929C327.127 597.706 324.269 600.437 321.355 603.123L322.71 604.594ZM339.638 587.794C342.354 584.887 345.009 581.932 347.602 578.929L346.089 577.622C343.513 580.605 340.875 583.54 338.177 586.429L339.638 587.794ZM355.217 569.745C357.692 566.634 360.102 563.474 362.447 560.265L360.832 559.085C358.504 562.272 356.11 565.41 353.652 568.5L355.217 569.745ZM369.281 550.488C371.486 547.188 373.623 543.839 375.692 540.439L373.984 539.399C371.93 542.775 369.807 546.1 367.618 549.377L369.281 550.488ZM381.68 530.108C383.591 526.64 385.434 523.123 387.205 519.556L385.414 518.666C383.655 522.208 381.826 525.7 379.928 529.142L381.68 530.108ZM392.28 508.763C393.889 505.142 395.428 501.471 396.895 497.75L395.034 497.017C393.578 500.711 392.05 504.356 390.453 507.951L392.28 508.763ZM401.025 486.591C402.324 482.844 403.552 479.048 404.708 475.204L402.792 474.628C401.644 478.446 400.425 482.215 399.135 485.936L401.025 486.591ZM407.898 463.759C408.882 459.933 409.798 456.06 410.643 452.14L408.688 451.719C407.848 455.613 406.939 459.461 405.961 463.261L407.898 463.759ZM412.93 440.443C413.611 436.567 414.226 432.647 414.773 428.682L412.792 428.409C412.248 432.35 411.637 436.245 410.96 440.097L412.93 440.443ZM416.193 416.809C416.589 412.909 416.921 408.967 417.189 404.983L415.193 404.849C414.927 408.811 414.597 412.73 414.203 416.607L416.193 416.809ZM417.792 393.009C417.924 389.103 417.996 385.159 418.006 381.175L416.006 381.17C415.996 385.133 415.925 389.057 415.793 392.941L417.792 393.009ZM417.852 369.169C417.743 365.271 417.576 361.336 417.351 357.365L415.354 357.478C415.578 361.43 415.744 365.346 415.852 369.225L417.852 369.169ZM416.505 345.388C416.176 341.503 415.793 337.583 415.355 333.63L413.367 333.85C413.803 337.787 414.185 341.689 414.512 345.557L416.505 345.388ZM413.884 321.738C413.355 317.865 412.775 313.96 412.142 310.023L410.168 310.341C410.798 314.262 411.376 318.151 411.902 322.008L413.884 321.738ZM410.113 298.261C409.749 296.284 409.372 294.3 408.982 292.308L407.019 292.692C407.408 294.677 407.783 296.654 408.146 298.623L410.113 298.261ZM408.982 292.308C408.589 290.298 408.216 288.302 407.864 286.319L405.895 286.668C406.249 288.663 406.624 290.671 407.019 292.692L408.982 292.308ZM405.997 274.574C405.433 270.548 404.957 266.578 404.565 262.663L402.574 262.863C402.969 266.804 403.449 270.8 404.017 274.851L405.997 274.574ZM403.628 250.875C403.391 246.812 403.248 242.811 403.196 238.871L401.196 238.897C401.249 242.868 401.393 246.899 401.631 250.992L403.628 250.875ZM403.32 226.952C403.459 222.947 403.694 219.01 404.023 215.137L402.031 214.968C401.698 218.874 401.461 222.845 401.322 226.883L403.32 226.952ZM405.358 203.214C405.915 199.224 406.575 195.307 407.334 191.462L405.372 191.075C404.606 194.956 403.94 198.911 403.378 202.938L405.358 203.214ZM409.971 179.885C410.978 175.993 412.091 172.181 413.303 168.445L411.401 167.827C410.176 171.602 409.052 175.453 408.035 179.384L409.971 179.885ZM417.338 157.215C418.809 153.49 420.383 149.847 422.056 146.284L420.246 145.434C418.555 149.035 416.964 152.716 415.478 156.48L417.338 157.215ZM427.449 135.682C429.369 132.185 431.388 128.771 433.499 125.44L431.809 124.369C429.676 127.736 427.637 131.186 425.696 134.72L427.449 135.682ZM440.19 115.568C442.527 112.34 444.953 109.194 447.465 106.13L445.918 104.862C443.382 107.957 440.93 111.134 438.57 114.396L440.19 115.568ZM455.282 97.1398C457.977 94.215 460.751 91.371 463.599 88.606L462.206 87.1711C459.332 89.9613 456.532 92.8319 453.811 95.7845L455.282 97.1398ZM472.37 80.5333C475.365 77.9192 478.428 75.3827 481.551 72.9219L480.313 71.3509C477.164 73.8318 474.076 76.3898 471.055 79.0266L472.37 80.5333ZM491.095 65.7684C494.331 63.4598 497.623 61.2252 500.963 59.0627L499.876 57.3838C496.511 59.5622 493.195 61.8137 489.934 64.1401L491.095 65.7684ZM511.118 52.7931C514.546 50.7746 518.018 48.8264 521.525 46.9468L520.58 45.184C517.05 47.0759 513.556 49.0371 510.103 51.0696L511.118 52.7931ZM532.153 41.5107C535.733 39.7632 539.344 38.0829 542.978 36.468L542.166 34.6403C538.51 36.2647 534.878 37.9551 531.275 39.7133L532.153 41.5107ZM553.977 31.8051C557.677 30.3094 561.396 28.8782 565.126 27.5096L564.437 25.632C560.687 27.0078 556.949 28.4468 553.227 29.9508L553.977 31.8051ZM576.405 23.5698C580.198 22.3098 583.997 21.1122 587.794 19.9751L587.22 18.0592C583.405 19.2018 579.587 20.4053 575.774 21.6718L576.405 23.5698ZM599.276 16.716C603.152 15.6755 607.019 14.6963 610.87 13.7766L610.405 11.8313C606.536 12.7553 602.651 13.739 598.758 14.7844L599.276 16.716ZM622.541 11.1574C626.48 10.3293 630.395 9.56259 634.277 8.85492L633.918 6.88735C630.019 7.59818 626.087 8.36835 622.129 9.20012L622.541 11.1574ZM646.068 6.86808C650.062 6.24996 654.011 5.69434 657.906 5.19862L657.653 3.21462C653.74 3.7126 649.774 4.27073 645.762 4.89161L646.068 6.86808ZM669.783 3.85244C673.83 3.45058 677.804 3.11453 681.694 2.84108L681.553 0.846003C677.644 1.1208 673.651 1.45848 669.586 1.86223L669.783 3.85244ZM693.629 2.18419C695.622 2.10569 697.588 2.04437 699.524 1.99973L699.478 0.000265658C697.531 0.0451548 695.554 0.106815 693.55 0.185742L693.629 2.18419Z" fill="#FFE8E3"/>
</svg>
