<svg width="654" height="614" viewBox="0 0 654 614" fill="none" xmlns="http://www.w3.org/2000/svg">
<g opacity="0.6">
<rect x="398.707" width="73.7905" height="4.09947" transform="rotate(90 398.707 0)" fill="#FE8A71"/>
<path d="M515.131 46.7339L381.488 46.7339L381.488 42.6344L515.131 42.6344L515.131 46.7339Z" fill="#FE8A71"/>
</g>
<g opacity="0.6">
<rect x="169.955" y="36.8953" width="73.7905" height="4.09947" transform="rotate(90 169.955 36.8953)" fill="#FE8A71"/>
<path d="M286.381 83.6292L152.738 83.6291L152.738 79.5296L286.381 79.5297L286.381 83.6292Z" fill="#FE8A71"/>
</g>
<g opacity="0.6">
<rect x="407.725" y="569.007" width="73.7905" height="4.09947" transform="rotate(-90 407.725 569.007)" fill="#FE8A71"/>
<path d="M291.301 522.273L424.943 522.273V526.372H291.301V522.273Z" fill="#FE8A71"/>
</g>
<g opacity="0.6">
<rect x="636.477" y="532.111" width="73.7905" height="4.09947" transform="rotate(-90 636.477 532.111)" fill="#FE8A71"/>
<path d="M520.051 485.377L653.693 485.377L653.693 489.477L520.051 489.477L520.051 485.377Z" fill="#FE8A71"/>
</g>
<path d="M501.352 97.7841C549.645 127.922 591.244 176.542 600.742 230.805C610.369 285.05 587.902 345.074 558.201 404.658C528.507 464.376 491.59 524.001 431.796 564.962C372.003 606.082 289.339 628.719 226.063 603.269C162.928 577.954 119.187 504.423 95.2397 433.705C71.4323 362.982 67.5522 295.077 79.7251 230.365C91.7634 165.824 119.72 104.617 166.27 74.2095C212.819 43.8022 277.967 44.2066 338.024 50.2365C397.952 56.1316 453.064 67.7811 501.352 97.7841Z" fill="#FFF6F4"/>
<path d="M309.562 248.109H71.4375C58.2862 248.109 47.625 258.771 47.625 271.922V414.797C47.625 427.948 58.2862 438.609 71.4375 438.609H309.562C322.714 438.609 333.375 427.948 333.375 414.797V271.922C333.375 258.771 322.714 248.109 309.562 248.109Z" fill="#5D5E67"/>
<path d="M279.797 361.219C260.85 361.219 242.68 353.692 229.283 340.295C215.886 326.898 208.359 308.728 208.359 289.781V248.109H71.4375C65.122 248.109 59.0652 250.618 54.5995 255.084C50.1338 259.55 47.625 265.606 47.625 271.922V414.797C47.625 421.112 50.1338 427.169 54.5995 431.635C59.0652 436.101 65.122 438.609 71.4375 438.609H309.562C315.878 438.609 321.935 436.101 326.4 431.635C330.866 427.169 333.375 421.112 333.375 414.797V361.219H279.797Z" fill="#181926"/>
<path d="M267.891 474.328H113.109L132.856 464.458C137.655 462.056 141.691 458.367 144.512 453.801C147.333 449.236 148.827 443.976 148.828 438.609H232.172C232.173 443.976 233.667 449.236 236.488 453.801C239.309 458.367 243.345 462.056 248.144 464.458L267.891 474.328Z" fill="#FCBC04"/>
<path d="M47.625 402.891H333.375V414.797C333.375 421.112 330.866 427.169 326.4 431.635C321.935 436.101 315.878 438.609 309.562 438.609H71.4375C65.122 438.609 59.0652 436.101 54.5995 431.635C50.1338 427.169 47.625 421.112 47.625 414.797V402.891Z" fill="#F9E109"/>
<path d="M107.156 194.531C105.577 194.531 104.063 195.158 102.947 196.275C101.83 197.391 101.203 198.906 101.203 200.484V218.344C101.203 219.923 101.83 221.437 102.947 222.553C104.063 223.67 105.577 224.297 107.156 224.297C108.735 224.297 110.249 223.67 111.366 222.553C112.482 221.437 113.109 219.923 113.109 218.344V200.484C113.109 198.906 112.482 197.391 111.366 196.275C110.249 195.158 108.735 194.531 107.156 194.531Z" fill="#57B7EB"/>
<path d="M95.25 236.203H119.062V260.016H95.25V236.203Z" fill="#84D2F4"/>
<path d="M119.062 236.203H142.875V260.016H119.062V236.203Z" fill="#84D2F4"/>
<path d="M142.875 236.203H166.688V260.016H142.875V236.203Z" fill="#84D2F4"/>
<path d="M95.25 212.391H119.062V236.203H95.25V212.391Z" fill="#84D2F4"/>
<path d="M166.688 307.641H190.5V331.453H166.688V307.641Z" fill="#84D2F4"/>
<path d="M166.688 283.828H190.5V307.641H166.688V283.828Z" fill="#84D2F4"/>
<path d="M95.25 260.016H119.062V283.828H95.25V260.016Z" fill="#84D2F4"/>
<path d="M119.062 260.016H142.875V283.828H119.062V260.016Z" fill="#84D2F4"/>
<path d="M142.875 260.016H166.688V283.828H142.875V260.016Z" fill="#84D2F4"/>
<path d="M95.25 283.828H119.062V307.641H95.25V283.828Z" fill="#84D2F4"/>
<path d="M119.062 283.828H142.875V307.641H119.062V283.828Z" fill="#84D2F4"/>
<path d="M142.875 283.828H166.688V307.641H142.875V283.828Z" fill="#84D2F4"/>
<path d="M95.25 307.641H166.688V367.172H95.25V307.641Z" fill="#F9E109"/>
<path d="M166.688 355.266H202.406V367.172H166.688V355.266Z" fill="#84D2F4"/>
<path d="M71.4375 331.453H95.25V355.266H71.4375V331.453Z" fill="#84D2F4"/>
<path d="M190.5 307.641H166.688V283.828L190.5 307.641Z" fill="#57B7EB"/>
<path d="M190.5 331.453H166.688V307.641L190.5 331.453Z" fill="#57B7EB"/>
<path d="M166.688 283.828H142.875V260.016L166.688 283.828Z" fill="#57B7EB"/>
<path d="M166.688 307.641H142.875V283.828L166.688 307.641Z" fill="#57B7EB"/>
<path d="M142.875 283.828H119.062V260.016L142.875 283.828Z" fill="#57B7EB"/>
<path d="M142.875 307.641H119.062V283.828L142.875 307.641Z" fill="#57B7EB"/>
<path d="M119.062 283.828H95.25V260.016L119.062 283.828Z" fill="#57B7EB"/>
<path d="M166.688 260.016H142.875V236.203L166.688 260.016Z" fill="#57B7EB"/>
<path d="M142.875 260.016H119.062V236.203L142.875 260.016Z" fill="#57B7EB"/>
<path d="M119.062 260.016H95.25V236.203L119.062 260.016Z" fill="#57B7EB"/>
<path d="M119.062 236.203H95.25V212.391L119.062 236.203Z" fill="#57B7EB"/>
<path d="M119.062 307.641H95.25V283.828L119.062 307.641Z" fill="#57B7EB"/>
<path d="M166.688 331.453H202.406V355.266H166.688V331.453Z" fill="#84D2F4"/>
<path d="M202.406 355.266H166.688V331.453H172.641L202.406 355.266Z" fill="#57B7EB"/>
<path d="M202.406 367.172H166.688V355.266H178.594L202.406 367.172Z" fill="#57B7EB"/>
<path d="M71.4375 355.266H95.25V367.172H71.4375V355.266Z" fill="#84D2F4"/>
<path d="M95.25 355.266H71.4375V331.453L95.25 355.266Z" fill="#57B7EB"/>
<path d="M95.25 367.172H71.4375V355.266H77.3906L95.25 367.172Z" fill="#57B7EB"/>
<path d="M142.875 355.266C133.402 355.266 124.317 351.502 117.618 344.804C110.919 338.105 107.156 329.02 107.156 319.547V307.641H95.25V367.172H166.688V355.266H142.875Z" fill="#FCBC04"/>
<path d="M125.016 331.453H136.922C138.501 331.453 140.015 332.08 141.131 333.197C142.248 334.313 142.875 335.827 142.875 337.406V367.172H119.062V337.406C119.062 335.827 119.69 334.313 120.806 333.197C121.923 332.08 123.437 331.453 125.016 331.453Z" fill="#84D2F4"/>
<path d="M136.922 331.453H125.016C123.437 331.453 121.923 332.08 120.806 333.197C119.69 334.313 119.062 335.827 119.062 337.406H130.969C132.548 337.406 134.062 338.033 135.178 339.15C136.295 340.266 136.922 341.781 136.922 343.359V354.73C130.269 353.602 124.074 350.604 119.062 346.086V367.172H142.875V337.406C142.875 335.827 142.248 334.313 141.131 333.197C140.015 332.08 138.501 331.453 136.922 331.453Z" fill="#57B7EB"/>
<path d="M145.852 230.25C141.904 230.25 138.119 228.682 135.328 225.891C132.537 223.1 130.969 219.314 130.969 215.367C130.969 213.788 131.596 212.274 132.712 211.158C133.829 210.041 135.343 209.414 136.922 209.414C138.501 209.414 140.015 210.041 141.131 211.158C142.248 212.274 142.875 213.788 142.875 215.367C142.875 215.956 143.05 216.531 143.377 217.021C143.704 217.51 144.169 217.892 144.712 218.117C145.256 218.342 145.855 218.401 146.432 218.287C147.01 218.172 147.54 217.888 147.956 217.472C148.373 217.056 148.656 216.525 148.771 215.948C148.886 215.37 148.827 214.772 148.602 214.228C148.376 213.684 147.995 213.219 147.505 212.892C147.016 212.565 146.44 212.391 145.852 212.391C144.273 212.391 142.758 211.763 141.642 210.647C140.526 209.531 139.898 208.016 139.898 206.438V188.578C139.898 186.999 140.526 185.485 141.642 184.369C142.758 183.252 144.273 182.625 145.852 182.625C147.43 182.625 148.945 183.252 150.061 184.369C151.177 185.485 151.805 186.999 151.805 188.578V201.729C154.937 203.097 157.504 205.502 159.072 208.539C160.64 211.577 161.115 215.062 160.416 218.408C159.718 221.754 157.889 224.758 155.236 226.915C152.584 229.071 149.27 230.249 145.852 230.25Z" fill="#FCBC04"/>
<path d="M337.585 178.416L313.772 154.604C312.656 153.487 311.142 152.86 309.563 152.859H136.923C135.344 152.86 133.83 153.487 132.714 154.604L108.901 178.416C108.069 179.249 107.502 180.309 107.273 181.464C107.043 182.619 107.161 183.815 107.611 184.903C108.062 185.991 108.825 186.92 109.803 187.574C110.782 188.229 111.933 188.578 113.11 188.578H255.985V373.125C255.979 374.142 256.235 375.144 256.727 376.035C257.218 376.926 257.93 377.675 258.794 378.213C259.658 378.75 260.645 379.057 261.661 379.104C262.678 379.152 263.689 378.938 264.599 378.483L279.798 370.851V373.125C279.798 374.704 280.425 376.218 281.541 377.335C282.658 378.451 284.172 379.078 285.751 379.078H303.61C305.189 379.078 306.703 378.451 307.82 377.335C308.936 376.218 309.563 374.704 309.563 373.125C309.563 371.546 308.936 370.032 307.82 368.915C306.703 367.799 305.189 367.172 303.61 367.172H291.704V188.578H333.376C334.553 188.578 335.704 188.229 336.682 187.574C337.661 186.92 338.424 185.991 338.874 184.903C339.325 183.815 339.443 182.619 339.213 181.464C338.984 180.309 338.417 179.249 337.585 178.416ZM267.891 268.433L277.333 277.875L267.891 287.317V268.433ZM267.891 220.808L277.333 230.25L267.891 239.692V220.808ZM267.891 173.183L277.333 182.625L267.891 192.067V173.183ZM267.891 310.105L277.333 319.547L267.891 328.989V310.105ZM273.332 298.711L279.798 292.246V305.176L273.332 298.711ZM270.356 254.062L279.798 244.621V263.504L270.356 254.062ZM270.356 206.438L279.798 196.996V215.879L270.356 206.438ZM276.309 164.766H295.192L285.751 174.207L276.309 164.766ZM208.36 174.207L198.918 164.766H217.802L208.36 174.207ZM160.735 174.207L151.293 164.766H170.177L160.735 174.207ZM136.923 167.23L146.364 176.672H127.481L136.923 167.23ZM175.106 176.672L184.548 167.23L193.989 176.672H175.106ZM222.731 176.672L232.173 167.23L241.614 176.672H222.731ZM246.543 164.766H255.985V174.207L246.543 164.766ZM267.891 363.493V355.266L274.44 360.201L267.891 363.493ZM270.999 342.716L279.798 333.918V349.312L270.999 342.716ZM300.122 176.672L309.563 167.23L319.005 176.672H300.122Z" fill="#FE8A71"/>
<path d="M238.125 230.25H255.984V265.969H220.266V248.109C220.266 243.373 222.147 238.83 225.497 235.481C228.846 232.132 233.388 230.25 238.125 230.25Z" fill="#84D2F4"/>
<path d="M220.266 265.969H255.984V289.781H220.266V265.969Z" fill="#FCBC04"/>
<path d="M250.031 254.062C246.874 254.062 243.845 252.808 241.612 250.575C239.379 248.342 238.125 245.314 238.125 242.156V230.25C233.388 230.25 228.846 232.132 225.497 235.481C222.147 238.83 220.266 243.373 220.266 248.109V265.969H255.984V254.062H250.031Z" fill="#57B7EB"/>
<path d="M232.172 265.969H220.266V289.781H255.984V277.875H244.078C240.92 277.875 237.892 276.621 235.659 274.388C233.426 272.155 232.172 269.126 232.172 265.969Z" fill="#E59730"/>
<path d="M327.422 420.75H89.2969C84.0299 420.74 78.9156 418.98 74.7574 415.747C70.5991 412.515 67.6326 407.992 66.3238 402.891H47.625V414.797C47.625 421.112 50.1338 427.169 54.5995 431.635C59.0652 436.101 65.122 438.609 71.4375 438.609H309.563C314.948 438.6 320.17 436.765 324.378 433.404C328.586 430.044 331.531 425.357 332.732 420.107C330.992 420.521 329.211 420.737 327.422 420.75Z" fill="#FCBC04"/>
<path d="M148.828 438.609C148.827 443.976 147.333 449.236 144.512 453.801C141.691 458.367 137.655 462.056 132.856 464.458L113.109 474.328L232.172 438.609H148.828Z" fill="#E59730"/>
<path d="M113.109 486.234C109.427 486.228 105.837 485.079 102.834 482.947C99.8318 480.814 97.5647 477.803 96.3454 474.328H95.25C88.9345 474.328 82.8777 476.837 78.412 481.303C73.9463 485.768 71.4375 491.825 71.4375 498.141H309.562C309.541 493.949 308.4 489.838 306.259 486.234H113.109Z" fill="#FCBC04"/>
</svg>
