<svg width="43" height="33" viewBox="0 0 43 33" fill="none" xmlns="http://www.w3.org/2000/svg">
<path opacity="0.1" fill-rule="evenodd" clip-rule="evenodd" d="M19.1111 2.08843e-06L19.1111 6.65238C14.1741 7.01905 10.0333 9.95238 8.01605 14.1429L14.3333 14.1429C16.9877 14.1429 19.1111 16.2381 19.1111 18.8571L19.1111 28.2857C19.1111 30.9048 16.9877 33 14.3333 33L4.77778 33C2.12346 33 -1.83172e-07 30.9048 -4.12136e-07 28.2857L-1.23641e-06 18.8571C0.0530843 8.43334 8.6 3.00734e-06 19.1111 2.08843e-06ZM42.9469 4.64098e-09L42.9469 6.65238C38.063 7.01905 33.8691 9.95238 31.8519 14.1429L38.2222 14.1429C40.8765 14.1429 43 16.2381 43 18.8571L43 28.2857C43 30.9048 40.8765 33 38.2222 33L28.6667 33C26.0123 33 23.8889 30.9048 23.8889 28.2857L23.8889 18.8571C23.8889 8.43333 32.4358 9.23551e-07 42.9469 4.64098e-09Z" fill="#FE8A71"/>
</svg>
