<svg width="43" height="33" viewBox="0 0 43 33" fill="none" xmlns="http://www.w3.org/2000/svg">
<path opacity="0.1" fill-rule="evenodd" clip-rule="evenodd" d="M23.8889 33V26.3476C28.8259 25.981 32.9667 23.0476 34.984 18.8571H28.6667C26.0123 18.8571 23.8889 16.7619 23.8889 14.1429V4.71429C23.8889 2.09524 26.0123 0 28.6667 0L38.2222 0C40.8765 0 43 2.09524 43 4.71429V14.1429C42.9469 24.5667 34.4 33 23.8889 33ZM0.0530866 33L0.0530866 26.3476C4.93704 25.981 9.13086 23.0476 11.1481 18.8571H4.77778C2.12346 18.8571 0 16.7619 0 14.1429L0 4.71429C0 2.09524 2.12346 0 4.77778 0L14.3333 0C16.9877 0 19.1111 2.09524 19.1111 4.71429V14.1429C19.1111 24.5667 10.5642 33 0.0530866 33Z" fill="#FE8A71"/>
</svg>
