<svg width="733" height="700" viewBox="0 0 733 700" fill="none" xmlns="http://www.w3.org/2000/svg">
<path d="M440 408.001L440.192 408.982L440 408.001ZM1.99084 0.865117C1.91638 0.317876 1.41241 -0.0653742 0.865173 0.00910224C0.317932 0.0835787 -0.0653686 0.58758 0.00915527 1.13482L1.99084 0.865117ZM0.830444 7.04576C0.907959 7.59258 1.41412 7.97299 1.96094 7.89545C2.50775 7.8179 2.88818 7.31176 2.81061 6.76494L0.830444 7.04576ZM4.54504 18.5135C4.46124 17.9676 3.95074 17.593 3.40485 17.6768C2.85895 17.7606 2.48437 18.2711 2.56818 18.8169L4.54504 18.5135ZM4.44281 30.5684C4.53302 31.1132 5.04785 31.4818 5.59271 31.3915C6.13757 31.3013 6.50616 30.7865 6.41589 30.2416L4.44281 30.5684ZM8.42712 41.9452C8.33026 41.4015 7.81097 41.0392 7.26721 41.1361C6.72351 41.233 6.36127 41.7523 6.45813 42.296L8.42712 41.9452ZM8.61889 53.9994C8.72259 54.5418 9.24646 54.8975 9.78888 54.7938C10.3314 54.6901 10.687 54.1663 10.5833 53.6238L8.61889 53.9994ZM12.8884 65.2711C12.7776 64.73 12.2492 64.3812 11.7081 64.492C11.1671 64.6027 10.8182 65.1311 10.929 65.6722L12.8884 65.2711ZM13.3946 77.3179C13.5127 77.8574 14.0458 78.1991 14.5853 78.081C15.1248 77.963 15.4664 77.4299 15.3484 76.8904L13.3946 77.3179ZM17.9661 88.4674C17.8405 87.9296 17.3027 87.5954 16.7649 87.721C16.227 87.8466 15.8929 88.3844 16.0184 88.9222L17.9661 88.4674ZM18.8099 100.499C18.9432 101.035 19.4858 101.361 20.0218 101.228C20.5577 101.094 20.884 100.552 20.7507 100.016L18.8099 100.499ZM23.7015 111.506C23.5601 110.972 23.0127 110.654 22.4788 110.795C21.9449 110.937 21.6268 111.484 21.7682 112.018L23.7015 111.506ZM24.9089 123.512C25.0586 124.043 25.611 124.353 26.1426 124.203C26.6742 124.053 26.9837 123.501 26.834 122.969L24.9089 123.512ZM30.1406 134.353C29.9821 133.824 29.4248 133.523 28.8957 133.682C28.3666 133.84 28.0662 134.397 28.2245 134.926L30.1406 134.353ZM31.7405 146.321C31.9079 146.847 32.4703 147.138 32.9966 146.97C33.5229 146.803 33.8139 146.241 33.6465 145.714L31.7405 146.321ZM37.3332 156.967C37.1566 156.444 36.5892 156.163 36.066 156.339C35.5427 156.516 35.2616 157.083 35.4382 157.607L37.3332 156.967ZM39.3584 168.88C39.5446 169.4 40.1171 169.671 40.637 169.485C41.1569 169.298 41.4275 168.726 41.2412 168.206L39.3584 168.88ZM45.3361 179.305C45.1399 178.788 44.5624 178.529 44.0461 178.725C43.5298 178.921 43.2703 179.499 43.4665 180.015L45.3361 179.305ZM47.8204 191.138C48.0269 191.65 48.6095 191.898 49.1218 191.692C49.634 191.485 49.8818 190.903 49.6753 190.39L47.8204 191.138ZM54.2175 201.327C54.0002 200.819 53.4125 200.584 52.9048 200.801C52.397 201.018 52.1614 201.606 52.3786 202.114L54.2175 201.327ZM57.1888 213.029C57.4171 213.532 58.0099 213.755 58.5127 213.526C59.0157 213.298 59.2383 212.705 59.0099 212.202L57.1888 213.029ZM64.0339 222.943C63.7941 222.445 63.1964 222.236 62.6988 222.476C62.2013 222.716 61.9924 223.313 62.2322 223.811L64.0339 222.943ZM67.5292 234.476C67.7808 234.967 68.3834 235.162 68.8749 234.91C69.3666 234.658 69.5611 234.056 69.3095 233.564L67.5292 234.476ZM74.8506 244.065C74.5867 243.58 73.9795 243.4 73.4943 243.664C73.0092 243.928 72.8299 244.535 73.0938 245.021L74.8506 244.065ZM78.9086 255.385C79.1851 255.863 79.7968 256.027 80.2749 255.75C80.7529 255.474 80.9162 254.862 80.6397 254.384L78.9086 255.385ZM86.7333 264.592C86.4437 264.122 85.8277 263.976 85.3574 264.265C84.8872 264.555 84.7408 265.171 85.0304 265.641L86.7333 264.592ZM91.4115 275.678C91.7145 276.139 92.3345 276.268 92.7962 275.965C93.2579 275.662 93.3866 275.042 93.0835 274.58L91.4115 275.678ZM99.7446 284.406C99.4278 283.954 98.8042 283.844 98.3518 284.161C97.8994 284.478 97.7895 285.101 98.1063 285.554L99.7446 284.406ZM105.093 295.207C105.424 295.649 106.051 295.739 106.493 295.409C106.935 295.078 107.025 294.451 106.695 294.009L105.093 295.207ZM113.94 303.372C113.595 302.941 112.966 302.871 112.534 303.217C112.103 303.562 112.034 304.191 112.379 304.622L113.94 303.372ZM119.995 313.813C120.355 314.232 120.986 314.28 121.405 313.92C121.824 313.561 121.873 312.929 121.513 312.51L119.995 313.813ZM129.377 321.355C129.003 320.949 128.37 320.923 127.964 321.297C127.558 321.671 127.532 322.304 127.906 322.71L129.377 321.355ZM136.151 331.334C136.54 331.726 137.173 331.729 137.565 331.34C137.957 330.951 137.96 330.318 137.571 329.926L136.151 331.334ZM146.071 338.177C145.668 337.8 145.035 337.821 144.658 338.225C144.281 338.628 144.302 339.261 144.706 339.638L146.071 338.177ZM153.571 347.602C153.989 347.963 154.621 347.917 154.982 347.499C155.343 347.081 155.296 346.45 154.878 346.089L153.571 347.602ZM164 353.652C163.568 353.308 162.939 353.38 162.595 353.812C162.252 354.244 162.323 354.873 162.755 355.217L164 353.652ZM172.235 362.447C172.681 362.773 173.307 362.675 173.633 362.229C173.959 361.784 173.861 361.158 173.415 360.832L172.235 362.447ZM183.123 367.618C182.664 367.311 182.043 367.435 181.736 367.894C181.43 368.353 181.553 368.974 182.012 369.281L183.123 367.618ZM192.061 375.692C192.533 375.979 193.148 375.829 193.435 375.358C193.722 374.886 193.572 374.271 193.101 373.984L192.061 375.692ZM203.358 379.928C202.874 379.662 202.266 379.838 201.999 380.321C201.733 380.805 201.909 381.413 202.392 381.68L203.358 379.928ZM212.944 387.205C213.439 387.451 214.039 387.249 214.284 386.755C214.53 386.26 214.328 385.66 213.834 385.414L212.944 387.205ZM224.549 390.453C224.045 390.228 223.454 390.456 223.229 390.96C223.005 391.465 223.232 392.056 223.737 392.28L224.549 390.453ZM234.75 396.895C235.264 397.097 235.844 396.845 236.047 396.331C236.249 395.817 235.997 395.237 235.483 395.034L234.75 396.895ZM246.564 399.135C246.042 398.955 245.473 399.231 245.292 399.753C245.111 400.275 245.387 400.844 245.909 401.025L246.564 399.135ZM257.296 404.708C257.825 404.867 258.383 404.567 258.542 404.038C258.701 403.509 258.401 402.951 257.872 402.792L257.296 404.708ZM269.239 405.961C268.704 405.823 268.159 406.145 268.021 406.68C267.884 407.215 268.206 407.76 268.741 407.898L269.239 405.961ZM280.36 410.643C280.9 410.759 281.432 410.416 281.548 409.876C281.664 409.336 281.321 408.804 280.781 408.687L280.36 410.643ZM292.403 410.96C291.859 410.864 291.341 411.228 291.245 411.772C291.15 412.316 291.513 412.834 292.057 412.93L292.403 410.96ZM303.817 414.773C304.365 414.848 304.869 414.466 304.945 413.919C305.02 413.372 304.638 412.867 304.091 412.791L303.817 414.773ZM315.893 414.203C315.344 414.147 314.853 414.548 314.797 415.097C314.741 415.646 315.142 416.137 315.691 416.193L315.893 414.203ZM327.517 417.189C328.068 417.226 328.544 416.809 328.581 416.258C328.618 415.707 328.202 415.23 327.65 415.193L327.517 417.189ZM339.559 415.793C339.007 415.775 338.545 416.207 338.526 416.759C338.507 417.311 338.939 417.773 339.491 417.792L339.559 415.793ZM351.325 418.006C351.877 418.007 352.326 417.561 352.327 417.008C352.328 416.456 351.882 416.007 351.33 416.006L351.325 418.006ZM363.275 415.852C362.723 415.868 362.288 416.328 362.304 416.88C362.319 417.432 362.779 417.867 363.331 417.852L363.275 415.852ZM375.135 417.351C375.687 417.32 376.109 416.848 376.077 416.296C376.046 415.745 375.574 415.323 375.022 415.354L375.135 417.351ZM386.943 414.512C386.393 414.558 385.985 415.042 386.031 415.592C386.078 416.143 386.561 416.551 387.112 416.505L386.943 414.512ZM398.87 415.355C399.419 415.294 399.815 414.8 399.754 414.251C399.693 413.702 399.199 413.306 398.65 413.367L398.87 415.355ZM410.492 411.902C409.945 411.977 409.562 412.481 409.636 413.028C409.711 413.575 410.215 413.958 410.762 413.884L410.492 411.902ZM422.477 412.142C423.022 412.055 423.393 411.542 423.305 410.996C423.218 410.451 422.705 410.08 422.159 410.168L422.477 412.142ZM433.877 408.146C433.334 408.246 432.975 408.768 433.075 409.311C433.175 409.854 433.696 410.213 434.239 410.113L433.877 408.146ZM446.181 407.864C446.725 407.768 447.088 407.249 446.991 406.705C446.895 406.161 446.376 405.798 445.832 405.895L446.181 407.864ZM457.649 404.017C457.102 404.093 456.72 404.599 456.797 405.146C456.874 405.693 457.379 406.074 457.926 405.997L457.649 404.017ZM469.837 404.565C470.386 404.509 470.787 404.019 470.732 403.47C470.677 402.92 470.187 402.519 469.637 402.574L469.837 404.565ZM481.508 401.631C480.957 401.664 480.536 402.137 480.568 402.688C480.601 403.239 481.074 403.66 481.625 403.628L481.508 401.631ZM493.629 403.196C494.181 403.189 494.623 402.735 494.616 402.183C494.608 401.631 494.155 401.189 493.603 401.196L493.629 403.196ZM505.617 401.322C505.065 401.303 504.602 401.734 504.583 402.286C504.564 402.838 504.996 403.301 505.548 403.32L505.617 401.322ZM517.363 404.023C517.913 404.07 518.397 403.662 518.444 403.112C518.491 402.561 518.082 402.077 517.532 402.031L517.363 404.023ZM529.562 403.378C529.015 403.301 528.51 403.683 528.433 404.23C528.357 404.777 528.739 405.282 529.285 405.358L529.562 403.378ZM541.038 407.334C541.58 407.441 542.106 407.089 542.213 406.547C542.32 406.005 541.967 405.479 541.425 405.372L541.038 407.334ZM553.116 408.035C552.582 407.896 552.036 408.217 551.898 408.752C551.759 409.287 552.08 409.832 552.615 409.971L553.116 408.035ZM564.055 413.303C564.58 413.474 565.144 413.186 565.315 412.661C565.485 412.136 565.198 411.572 564.673 411.401L564.055 413.303ZM576.02 415.478C575.506 415.275 574.925 415.527 574.722 416.04C574.519 416.554 574.771 417.135 575.285 417.338L576.02 415.478ZM586.216 422.056C586.716 422.291 587.311 422.076 587.546 421.576C587.781 421.076 587.566 420.481 587.066 420.246L586.216 422.056ZM597.78 425.696C597.296 425.43 596.688 425.607 596.423 426.092C596.157 426.576 596.334 427.184 596.818 427.449L597.78 425.696ZM607.06 433.499C607.527 433.794 608.145 433.656 608.44 433.189C608.736 432.723 608.597 432.105 608.131 431.809L607.06 433.499ZM618.104 438.57C617.657 438.246 617.032 438.346 616.708 438.794C616.384 439.241 616.484 439.866 616.932 440.19L618.104 438.57ZM626.37 447.465C626.797 447.815 627.427 447.752 627.777 447.325C628.127 446.898 628.065 446.268 627.638 445.918L626.37 447.465ZM636.715 453.811C636.309 453.437 635.677 453.463 635.302 453.869C634.928 454.275 634.954 454.908 635.36 455.282L636.715 453.811ZM643.894 463.599C644.279 463.995 644.912 464.004 645.308 463.62C645.704 463.235 645.714 462.602 645.329 462.206L643.894 463.599ZM653.473 471.055C653.11 470.639 652.479 470.596 652.062 470.959C651.646 471.323 651.604 471.954 651.967 472.37L653.473 471.055ZM659.578 481.551C659.92 481.985 660.549 482.06 660.982 481.718C661.416 481.376 661.491 480.747 661.149 480.313L659.578 481.551ZM668.36 489.934C668.039 489.484 667.415 489.38 666.965 489.7C666.515 490.021 666.411 490.645 666.732 491.095L668.36 489.934ZM673.437 500.963C673.737 501.426 674.357 501.559 674.82 501.259C675.284 500.959 675.416 500.34 675.116 499.876L673.437 500.963ZM681.43 510.103C681.15 509.627 680.537 509.468 680.061 509.749C679.585 510.029 679.427 510.642 679.707 511.118L681.43 510.103ZM685.553 521.525C685.814 522.012 686.42 522.195 686.907 521.934C687.394 521.673 687.577 521.067 687.316 520.58L685.553 521.525ZM692.787 531.275C692.544 530.779 691.946 530.573 691.449 530.815C690.953 531.058 690.747 531.656 690.989 532.153L692.787 531.275ZM696.032 542.978C696.256 543.483 696.847 543.71 697.352 543.486C697.857 543.261 698.084 542.671 697.86 542.166L696.032 542.978ZM702.549 553.227C702.342 552.715 701.759 552.468 701.247 552.675C700.735 552.882 700.488 553.465 700.695 553.977L702.549 553.227ZM704.99 565.126C705.181 565.644 705.755 565.911 706.274 565.72C706.792 565.53 707.058 564.956 706.868 564.437L704.99 565.126ZM710.828 575.774C710.654 575.25 710.088 574.966 709.564 575.14C709.04 575.315 708.756 575.881 708.93 576.405L710.828 575.774ZM712.525 587.794C712.683 588.323 713.241 588.623 713.77 588.465C714.299 588.306 714.599 587.749 714.441 587.22L712.525 587.794ZM717.716 598.758C717.572 598.224 717.024 597.908 716.49 598.051C715.957 598.194 715.641 598.743 715.784 599.276L717.716 598.758ZM718.723 610.87C718.852 611.407 719.391 611.738 719.928 611.61C720.465 611.482 720.797 610.942 720.669 610.405L718.723 610.87ZM723.3 622.129C723.186 621.589 722.656 621.243 722.116 621.357C721.575 621.47 721.229 622 721.343 622.541L723.3 622.129ZM723.645 634.277C723.744 634.82 724.265 635.18 724.808 635.081C725.352 634.982 725.712 634.462 725.613 633.918L723.645 634.277ZM727.608 645.762C727.524 645.216 727.013 644.842 726.467 644.927C725.921 645.011 725.547 645.522 725.632 646.068L727.608 645.762ZM727.301 657.906C727.371 658.454 727.872 658.841 728.42 658.772C728.967 658.702 729.355 658.201 729.285 657.653L727.301 657.906ZM730.638 669.586C730.583 669.036 730.093 668.635 729.544 668.689C728.994 668.744 728.593 669.234 728.648 669.783L730.638 669.586ZM729.659 681.694C729.698 682.245 730.176 682.66 730.727 682.621C731.277 682.582 731.693 682.104 731.654 681.553L729.659 681.694ZM732.314 693.55C732.292 692.998 731.828 692.568 731.276 692.59C730.724 692.612 730.294 693.077 730.316 693.629L732.314 693.55ZM0.00915527 1.13482C0.277649 3.10785 0.551391 5.0782 0.830444 7.04576L2.81061 6.76494C2.5321 4.80111 2.25891 2.83446 1.99084 0.865117L0.00915527 1.13482ZM2.56818 18.8169C3.17139 22.7464 3.79614 26.6638 4.44281 30.5684L6.41589 30.2416C5.77057 26.3449 5.14703 22.4353 4.54504 18.5135L2.56818 18.8169ZM6.45813 42.296C7.1557 46.2114 7.87585 50.1128 8.61889 53.9994L10.5833 53.6238C9.84186 49.7456 9.12323 45.8525 8.42712 41.9452L6.45813 42.296ZM10.929 65.6722C11.727 69.5705 12.5488 73.4527 13.3946 77.3179L15.3484 76.8904C14.5046 73.0341 13.6846 69.1607 12.8884 65.2711L10.929 65.6722ZM16.0184 88.9222C16.9239 92.7997 17.8542 96.6589 18.8099 100.499L20.7507 100.016C19.7974 96.1854 18.8693 92.3356 17.9661 88.4674L16.0184 88.9222ZM21.7682 112.018C22.7887 115.87 23.8355 119.702 24.9089 123.512L26.834 122.969C25.7634 119.17 24.7194 115.348 23.7015 111.506L21.7682 112.018ZM28.2245 134.926C29.3686 138.748 30.5405 142.546 31.7405 146.321L33.6465 145.714C32.45 141.951 31.2814 138.164 30.1406 134.353L28.2245 134.926ZM35.4382 157.607C36.7154 161.391 38.022 165.149 39.3584 168.88L41.2412 168.206C39.9091 164.487 38.6065 160.74 37.3332 156.967L35.4382 157.607ZM43.4665 180.015C44.8865 183.752 46.3376 187.461 47.8204 191.138L49.6753 190.39C48.1977 186.725 46.7514 183.03 45.3361 179.305L43.4665 180.015ZM52.3786 202.114C53.9489 205.785 55.5522 209.424 57.1888 213.029L59.0099 212.202C57.3794 208.611 55.7821 204.985 54.2175 201.327L52.3786 202.114ZM62.2322 223.811C63.9628 227.402 65.7283 230.957 67.5292 234.476L69.3095 233.564C67.5161 230.061 65.7577 226.52 64.0339 222.943L62.2322 223.811ZM73.0938 245.021C74.995 248.515 76.9332 251.971 78.9086 255.385L80.6397 254.384C78.6733 250.985 76.7437 247.545 74.8506 244.065L73.0938 245.021ZM85.0304 265.641C87.1182 269.031 89.245 272.377 91.4115 275.678L93.0835 274.58C90.9278 271.296 88.8112 267.966 86.7333 264.592L85.0304 265.641ZM98.1063 285.554C100.394 288.82 102.722 292.038 105.093 295.207L106.695 294.009C104.337 290.857 102.02 287.656 99.7446 284.406L98.1063 285.554ZM112.379 304.622C114.873 307.739 117.412 310.803 119.995 313.813L121.513 312.51C118.945 309.518 116.421 306.471 113.94 303.372L112.379 304.622ZM127.906 322.71C130.609 325.642 133.357 328.517 136.151 331.334L137.571 329.926C134.794 327.127 132.063 324.269 129.377 321.355L127.906 322.71ZM144.706 339.638C147.613 342.354 150.568 345.009 153.571 347.602L154.878 346.089C151.895 343.513 148.96 340.875 146.071 338.177L144.706 339.638ZM162.755 355.217C165.866 357.692 169.026 360.102 172.235 362.447L173.415 360.832C170.228 358.504 167.09 356.11 164 353.652L162.755 355.217ZM182.012 369.281C185.312 371.486 188.661 373.623 192.061 375.692L193.101 373.984C189.725 371.93 186.4 369.807 183.123 367.618L182.012 369.281ZM202.392 381.68C205.86 383.591 209.377 385.434 212.944 387.205L213.834 385.414C210.292 383.655 206.8 381.826 203.358 379.928L202.392 381.68ZM223.737 392.28C227.358 393.889 231.029 395.428 234.75 396.895L235.483 395.034C231.789 393.578 228.144 392.05 224.549 390.453L223.737 392.28ZM245.909 401.025C249.656 402.324 253.452 403.552 257.296 404.708L257.872 402.792C254.054 401.644 250.285 400.425 246.564 399.135L245.909 401.025ZM268.741 407.898C272.567 408.882 276.44 409.798 280.36 410.643L280.781 408.687C276.887 407.848 273.039 406.939 269.239 405.961L268.741 407.898ZM292.057 412.93C295.933 413.611 299.853 414.226 303.817 414.773L304.091 412.791C300.15 412.248 296.255 411.637 292.403 410.96L292.057 412.93ZM315.691 416.193C319.591 416.589 323.533 416.921 327.517 417.189L327.65 415.193C323.689 414.927 319.77 414.597 315.893 414.203L315.691 416.193ZM339.491 417.792C343.397 417.924 347.341 417.996 351.325 418.006L351.33 416.006C347.367 415.996 343.443 415.925 339.559 415.793L339.491 417.792ZM363.331 417.852C367.229 417.743 371.164 417.576 375.135 417.351L375.022 415.354C371.07 415.578 367.154 415.744 363.275 415.852L363.331 417.852ZM387.112 416.505C390.997 416.176 394.917 415.793 398.87 415.355L398.65 413.367C394.713 413.803 390.811 414.185 386.943 414.512L387.112 416.505ZM410.762 413.884C414.635 413.355 418.54 412.775 422.477 412.142L422.159 410.168C418.238 410.798 414.349 411.376 410.492 411.902L410.762 413.884ZM434.239 410.113C436.216 409.749 438.2 409.372 440.192 408.982L439.808 407.019C437.823 407.408 435.846 407.783 433.877 408.146L434.239 410.113ZM440.192 408.982C442.202 408.589 444.198 408.216 446.181 407.864L445.832 405.895C443.837 406.249 441.829 406.624 439.808 407.019L440.192 408.982ZM457.926 405.997C461.952 405.433 465.922 404.957 469.837 404.565L469.637 402.574C465.696 402.969 461.7 403.449 457.649 404.017L457.926 405.997ZM481.625 403.628C485.688 403.391 489.689 403.248 493.629 403.196L493.603 401.196C489.632 401.249 485.601 401.393 481.508 401.631L481.625 403.628ZM505.548 403.32C509.553 403.459 513.49 403.694 517.363 404.023L517.532 402.031C513.626 401.698 509.655 401.461 505.617 401.322L505.548 403.32ZM529.285 405.358C533.276 405.915 537.193 406.575 541.038 407.334L541.425 405.372C537.544 404.606 533.589 403.94 529.562 403.378L529.285 405.358ZM552.615 409.971C556.507 410.978 560.319 412.091 564.055 413.303L564.673 411.401C560.898 410.176 557.047 409.052 553.116 408.035L552.615 409.971ZM575.285 417.338C579.01 418.809 582.653 420.383 586.216 422.056L587.066 420.246C583.465 418.555 579.784 416.964 576.02 415.478L575.285 417.338ZM596.818 427.449C600.315 429.369 603.728 431.388 607.06 433.499L608.131 431.809C604.764 429.676 601.314 427.637 597.78 425.696L596.818 427.449ZM616.932 440.19C620.16 442.527 623.306 444.953 626.37 447.465L627.638 445.918C624.543 443.382 621.366 440.93 618.104 438.57L616.932 440.19ZM635.36 455.282C638.285 457.977 641.129 460.751 643.894 463.599L645.329 462.206C642.539 459.332 639.668 456.532 636.715 453.811L635.36 455.282ZM651.967 472.37C654.581 475.365 657.117 478.428 659.578 481.551L661.149 480.313C658.668 477.164 656.11 474.076 653.473 471.055L651.967 472.37ZM666.732 491.095C669.04 494.331 671.275 497.623 673.437 500.963L675.116 499.876C672.938 496.511 670.686 493.195 668.36 489.934L666.732 491.095ZM679.707 511.118C681.725 514.546 683.674 518.018 685.553 521.525L687.316 520.58C685.424 517.05 683.463 513.556 681.43 510.103L679.707 511.118ZM690.989 532.153C692.737 535.733 694.417 539.344 696.032 542.978L697.86 542.166C696.235 538.51 694.545 534.878 692.787 531.275L690.989 532.153ZM700.695 553.977C702.191 557.677 703.622 561.396 704.99 565.126L706.868 564.437C705.492 560.687 704.053 556.949 702.549 553.227L700.695 553.977ZM708.93 576.405C710.19 580.198 711.388 583.997 712.525 587.794L714.441 587.22C713.298 583.405 712.095 579.587 710.828 575.774L708.93 576.405ZM715.784 599.276C716.825 603.152 717.804 607.019 718.723 610.87L720.669 610.405C719.745 606.536 718.761 602.651 717.716 598.758L715.784 599.276ZM721.343 622.541C722.171 626.48 722.937 630.395 723.645 634.277L725.613 633.918C724.902 630.019 724.132 626.087 723.3 622.129L721.343 622.541ZM725.632 646.068C726.25 650.062 726.806 654.011 727.301 657.906L729.285 657.653C728.787 653.74 728.229 649.774 727.608 645.762L725.632 646.068ZM728.648 669.783C729.049 673.83 729.385 677.804 729.659 681.694L731.654 681.553C731.379 677.644 731.041 673.651 730.638 669.586L728.648 669.783ZM730.316 693.629C730.394 695.622 730.456 697.588 730.5 699.524L732.5 699.478C732.455 697.531 732.393 695.554 732.314 693.55L730.316 693.629Z" fill="#FFE8E3"/>
</svg>
