<svg width="581" height="614" viewBox="0 0 581 614" fill="none" xmlns="http://www.w3.org/2000/svg">
<g opacity="0.6">
<rect x="325.707" width="73.7905" height="4.09947" transform="rotate(90 325.707 0)" fill="#FE8A71"/>
<path d="M442.131 46.7339L308.488 46.7339L308.488 42.6344L442.131 42.6344L442.131 46.7339Z" fill="#FE8A71"/>
</g>
<g opacity="0.6">
<rect x="96.9551" y="36.8953" width="73.7905" height="4.09947" transform="rotate(90 96.9551 36.8953)" fill="#FE8A71"/>
<path d="M213.381 83.6292L79.7381 83.6291L79.7381 79.5296L213.381 79.5297L213.381 83.6292Z" fill="#FE8A71"/>
</g>
<g opacity="0.6">
<rect x="334.725" y="569.007" width="73.7905" height="4.09947" transform="rotate(-90 334.725 569.007)" fill="#FE8A71"/>
<path d="M218.301 522.273L351.943 522.273V526.372H218.301V522.273Z" fill="#FE8A71"/>
</g>
<g opacity="0.6">
<rect x="563.477" y="532.111" width="73.7905" height="4.09947" transform="rotate(-90 563.477 532.111)" fill="#FE8A71"/>
<path d="M447.051 485.377L580.693 485.377L580.693 489.477L447.051 489.477L447.051 485.377Z" fill="#FE8A71"/>
</g>
<path d="M428.352 97.7841C476.645 127.922 518.244 176.542 527.742 230.805C537.369 285.05 514.902 345.074 485.201 404.658C455.507 464.376 418.59 524.001 358.796 564.962C299.003 606.082 216.339 628.719 153.063 603.269C89.9279 577.954 46.1875 504.423 22.2397 433.705C-1.56768 362.982 -5.44778 295.077 6.7251 230.365C18.7634 165.824 46.72 104.617 93.2696 74.2095C139.819 43.8022 204.967 44.2066 265.024 50.2365C324.952 56.1316 380.064 67.7811 428.352 97.7841Z" fill="#FFF6F4"/>
<path d="M362.667 94C358.465 94 342.202 94 338 94C297.196 94 264 127.196 264 168C264 208.804 297.196 242 338 242H362.667V192.667C349.065 192.667 338 181.601 338 168C338 158.89 342.968 150.924 350.333 146.653C357.699 150.924 362.667 158.89 362.667 168H436.667C436.667 127.196 403.471 94 362.667 94Z" fill="#5D5E67"/>
<path d="M264 168C264 208.804 297.196 242 338 242V192.667C324.399 192.667 313.333 181.601 313.333 168C313.333 154.399 324.399 143.333 338 143.333V94C297.196 94 264 127.196 264 168Z" fill="#181926"/>
<path d="M556.296 404.795L525.526 374.025C523.909 372.408 521.715 371.5 519.428 371.5H519.291C514.528 371.5 497.048 371.5 494.761 371.5H494.624C489.861 371.5 486 375.361 486 380.124V449.21C486 453.973 489.861 457.834 494.624 457.834H519.291C521.659 457.834 523.923 456.86 525.551 455.142L556.534 422.437C558.76 420.088 560 416.975 560 413.739C560 410.384 558.667 407.167 556.296 404.795Z" fill="#5D5E67"/>
<path d="M531.628 404.795L500.858 374.025C499.241 372.408 497.047 371.5 494.76 371.5H494.623C489.86 371.5 485.999 375.361 485.999 380.124V390H350.332V439.333H485.999V449.21C485.999 453.973 489.86 457.834 494.623 457.834C496.991 457.834 499.255 456.86 500.883 455.142L531.866 422.437C534.092 420.088 535.332 416.975 535.332 413.739C535.332 410.384 533.999 407.167 531.628 404.795Z" fill="#181926"/>
<path d="M363.633 192.67C363.311 192.668 362.991 192.675 362.671 192.675V192.667H338V192.675C269.994 192.677 214.667 247.994 214.667 316H204.791C200.028 316 196.167 319.861 196.167 324.624V324.762C196.167 327.049 197.075 329.243 198.693 330.859L229.312 361.479C230.634 362.8 232.195 363.881 233.948 364.53C235.419 365.073 236.925 365.332 238.405 365.332V365.333H263.076V365.332C266.312 365.332 269.424 364.093 271.773 361.867L304.477 330.885C306.307 329.152 307.292 326.697 307.158 324.165C306.912 319.535 302.889 316 298.252 316H288.671C288.671 279.418 315.353 248.952 350.278 243.039C384.266 248.757 410.579 277.843 411.943 313.075C413.575 355.205 379.775 390 338 390H227.004H202.333C195.521 390 190 395.521 190 402.333V427C190 433.812 195.521 439.333 202.333 439.333H227.004H338H362.671C430.997 439.333 486.525 383.484 486 315.038C485.486 247.955 430.716 193.185 363.633 192.67Z" fill="#EF7055"/>
<path d="M338.962 192.67C270.516 192.146 214.667 247.673 214.667 316H204.791C200.028 316 196.167 319.861 196.167 324.624V324.761C196.167 327.048 197.075 329.242 198.693 330.859L229.312 361.479C230.634 362.8 232.195 363.882 233.948 364.53C238.633 366.263 243.679 365.111 247.103 361.868L279.807 330.885C281.637 329.152 282.623 326.698 282.488 324.165C282.242 319.535 278.218 316 273.581 316H264C264 274.225 298.795 240.425 340.925 242.057C379.331 243.545 410.455 274.669 411.943 313.075C413.575 355.205 379.775 390 338 390H202.333C195.521 390 190 395.521 190 402.333V427C190 433.812 195.521 439.333 202.333 439.333H338C406.327 439.333 461.854 383.484 461.329 315.038C460.815 247.955 406.045 193.185 338.962 192.67Z" fill="#FE8A71"/>
<path d="M446.544 168H352.792C348.029 168 344.168 171.861 344.168 176.624V176.762C344.168 179.049 345.077 181.243 346.694 182.859L377.464 213.629C379.836 216.001 383.053 217.334 386.407 217.334H411.073C414.309 217.334 417.422 216.094 419.771 213.868L452.475 182.886C454.194 181.258 455.167 178.993 455.167 176.625C455.168 171.861 451.307 168 446.544 168Z" fill="#5D5E67"/>
<path d="M421.876 168H412C412 127.196 378.804 94 338 94V143.333C351.601 143.333 362.667 154.399 362.667 168H352.791C348.028 168 344.167 171.861 344.167 176.624V176.762C344.167 179.049 345.075 181.243 346.693 182.859L377.463 213.629C379.835 216.001 383.051 217.334 386.405 217.334C389.641 217.334 392.754 216.094 395.103 213.868L427.807 182.886C429.526 181.258 430.499 178.993 430.499 176.625C430.5 171.861 426.639 168 421.876 168Z" fill="#181926"/>
<path d="M486 340.667C526.869 340.667 560 307.536 560 266.667C560 225.797 526.869 192.667 486 192.667C445.131 192.667 412 225.797 412 266.667C412 307.536 445.131 340.667 486 340.667Z" fill="#181926"/>
<path d="M533.571 266.667C533.571 265.07 533.488 263.493 533.331 261.938C533.08 259.463 534.323 257.078 536.478 255.833L536.483 255.83C539.526 254.074 540.568 250.183 538.812 247.14L529.316 230.694C527.56 227.651 523.669 226.608 520.626 228.365L520.616 228.37C518.462 229.614 515.776 229.497 513.758 228.044C511.2 226.202 508.454 224.608 505.551 223.297C503.291 222.276 501.856 220.007 501.856 217.528C501.856 214.014 499.008 211.166 495.495 211.166H476.504C472.991 211.166 470.143 214.014 470.143 217.528C470.143 220.007 468.708 222.276 466.448 223.297C463.545 224.608 460.799 226.202 458.241 228.044C456.223 229.497 453.537 229.614 451.383 228.37L451.373 228.365C448.33 226.608 444.439 227.65 442.683 230.694L433.187 247.14C431.431 250.183 432.473 254.074 435.516 255.83L435.522 255.833C437.676 257.078 438.918 259.463 438.668 261.938C438.511 263.493 438.428 265.07 438.428 266.667C438.428 268.263 438.511 269.841 438.668 271.396C438.919 273.871 437.676 276.256 435.522 277.5L435.516 277.503C432.473 279.26 431.431 283.151 433.187 286.194L442.683 302.64C444.439 305.683 448.33 306.725 451.373 304.969L451.383 304.963C453.537 303.72 456.223 303.836 458.241 305.289C460.799 307.132 463.545 308.726 466.448 310.036C468.708 311.057 470.143 313.325 470.143 315.805C470.143 319.319 472.991 322.167 476.504 322.167H495.495C499.008 322.167 501.856 319.319 501.856 315.805C501.856 313.325 503.291 311.057 505.551 310.036C508.454 308.725 511.201 307.131 513.758 305.289C515.776 303.836 518.462 303.72 520.616 304.963L520.626 304.969C523.669 306.725 527.56 305.683 529.316 302.64L538.812 286.194C540.568 283.151 539.526 279.26 536.483 277.503L536.478 277.5C534.323 276.256 533.081 273.871 533.331 271.396C533.488 269.841 533.571 268.264 533.571 266.667Z" fill="#F2F1F1"/>
<path d="M486 285.167C496.217 285.167 504.5 276.884 504.5 266.667C504.5 256.449 496.217 248.167 486 248.167C475.783 248.167 467.5 256.449 467.5 266.667C467.5 276.884 475.783 285.167 486 285.167Z" fill="#181926"/>
</svg>
