<svg width="608" height="614" viewBox="0 0 608 614" fill="none" xmlns="http://www.w3.org/2000/svg">
<g opacity="0.6">
<rect x="352.707" width="73.7905" height="4.09947" transform="rotate(90 352.707 0)" fill="#FE8A71"/>
<path d="M469.131 46.734L335.488 46.734L335.488 42.6345L469.131 42.6345L469.131 46.734Z" fill="#FE8A71"/>
</g>
<g opacity="0.6">
<rect x="123.955" y="36.8953" width="73.7905" height="4.09947" transform="rotate(90 123.955 36.8953)" fill="#FE8A71"/>
<path d="M240.381 83.6293L106.738 83.6292L106.738 79.5298L240.381 79.5298L240.381 83.6293Z" fill="#FE8A71"/>
</g>
<g opacity="0.6">
<rect x="361.725" y="569.006" width="73.7905" height="4.09947" transform="rotate(-90 361.725 569.006)" fill="#FE8A71"/>
<path d="M245.301 522.272L378.943 522.272V526.372H245.301V522.272Z" fill="#FE8A71"/>
</g>
<g opacity="0.6">
<rect x="590.477" y="532.111" width="73.7905" height="4.09947" transform="rotate(-90 590.477 532.111)" fill="#FE8A71"/>
<path d="M474.051 485.377L607.693 485.377L607.693 489.477L474.051 489.477L474.051 485.377Z" fill="#FE8A71"/>
</g>
<path d="M455.352 97.7841C503.645 127.922 545.244 176.542 554.742 230.805C564.369 285.05 541.902 345.074 512.201 404.658C482.507 464.376 445.59 524.001 385.796 564.962C326.003 606.082 243.339 628.719 180.063 603.269C116.928 577.954 73.1875 504.423 49.2397 433.705C25.4323 362.982 21.5522 295.077 33.7251 230.365C45.7634 165.824 73.72 104.617 120.27 74.2095C166.819 43.8022 231.967 44.2066 292.024 50.2365C351.952 56.1316 407.064 67.7811 455.352 97.7841Z" fill="#FFF6F4"/>
<g clip-path="url(#clip0)">
<path d="M328.809 278.441L301.602 281.712L273.59 278.441C270.171 278.441 267.4 275.669 267.4 272.251V259.817C267.4 256.398 270.172 253.627 273.59 253.627H328.808C332.227 253.627 334.998 256.399 334.998 259.817V272.251C334.998 275.669 332.227 278.441 328.809 278.441Z" fill="#FFD496"/>
<path d="M328.809 328.072L300.021 331.343L273.59 328.072C270.171 328.072 267.4 325.3 267.4 321.882V309.448C267.4 306.029 270.172 303.258 273.59 303.258L297.382 299.987L328.808 303.258C332.227 303.258 334.998 306.03 334.998 309.448V321.882C334.998 325.301 332.227 328.072 328.809 328.072Z" fill="#FFD496"/>
<path d="M328.809 377.705L300.337 380.976L273.59 377.705C270.171 377.705 267.4 374.933 267.4 371.515V359.08C267.4 355.661 270.172 352.891 273.59 352.891L300.021 349.619L328.809 352.891C332.227 352.891 334.998 355.662 334.998 359.08V371.514C334.998 374.933 332.227 377.705 328.809 377.705Z" fill="#FFD496"/>
<path d="M328.808 427.337L300.969 430.609L273.59 427.337C270.171 427.337 267.4 424.566 267.4 421.147V408.713C267.4 405.295 270.172 402.524 273.59 402.524L300.337 399.252L328.809 402.524C332.227 402.524 334.998 405.295 334.998 408.713V421.147C334.998 424.566 332.227 427.337 328.808 427.337Z" fill="#FFD496"/>
<path d="M239.675 402.521L211.81 405.792L184.457 402.521C181.039 402.521 178.268 399.749 178.268 396.331V383.897C178.268 380.478 181.039 377.707 184.457 377.707L211.178 374.436L239.676 377.707C243.095 377.707 245.866 380.479 245.866 383.897V396.331C245.865 399.749 243.094 402.521 239.675 402.521Z" fill="#FFD496"/>
<path d="M239.675 352.889L211.494 356.16L184.457 352.889C181.039 352.889 178.268 350.117 178.268 346.699V334.265C178.268 330.846 181.039 328.075 184.457 328.075L210.229 324.804L239.675 328.075C243.094 328.075 245.865 330.847 245.865 334.265V346.699C245.865 350.117 243.094 352.889 239.675 352.889Z" fill="#FFD496"/>
<path d="M150.541 328.071L123.598 331.342L95.3225 328.071C91.9038 328.071 89.1328 325.299 89.1328 321.881V309.447C89.1328 306.028 91.9044 303.257 95.3225 303.257H150.541C153.959 303.257 156.73 306.029 156.73 309.447V321.881C156.731 325.299 153.96 328.071 150.541 328.071Z" fill="#FFD496"/>
<path d="M150.542 377.705L123.283 380.976L95.3244 377.705C91.9057 377.705 89.1348 374.933 89.1348 371.515V359.08C89.1348 355.661 91.9064 352.891 95.3244 352.891L122.335 349.619L150.543 352.891C153.962 352.891 156.733 355.662 156.733 359.08V371.514C156.732 374.933 153.961 377.705 150.542 377.705Z" fill="#FFD496"/>
<path d="M150.542 427.337L122.967 430.609L95.3244 427.337C91.9057 427.337 89.1348 424.566 89.1348 421.147V408.713C89.1348 405.295 91.9064 402.524 95.3244 402.524L122.967 399.252L150.542 402.524C153.961 402.524 156.732 405.295 156.732 408.713V421.147C156.732 424.566 153.961 427.337 150.542 427.337Z" fill="#FFD496"/>
<path d="M61.4084 402.521L32.8581 405.792L6.18965 402.521C2.77095 402.521 0 399.749 0 396.331V383.897C0 380.478 2.7716 377.707 6.18965 377.707L33.4902 374.436L61.4077 377.707C64.8264 377.707 67.5974 380.479 67.5974 383.897V396.331C67.598 399.749 64.8264 402.521 61.4084 402.521Z" fill="#FFD496"/>
<path d="M78.3874 268.868L56.9154 289.192C49.8503 284.936 44.3142 278.39 41.3457 270.591L65.24 247.964L78.3874 268.868Z" fill="#17998C"/>
<path d="M12.1118 327.048C8.90112 327.048 5.69768 325.78 3.31604 323.264C-1.28236 318.407 -1.07233 310.743 3.78452 306.145L65.2387 247.964C67.4875 245.835 70.4672 244.648 73.564 244.648H207.968L303.795 148.821C308.525 144.091 316.192 144.091 320.921 148.821C325.65 153.55 325.65 161.217 320.921 165.946L221.547 265.32C219.276 267.591 216.195 268.867 212.984 268.867H78.3868L20.4351 323.733C18.094 325.949 15.0999 327.048 12.1118 327.048Z" fill="#20B69F"/>
<path d="M320.925 165.943L298.408 188.46C297.46 185.768 296.941 182.869 296.941 179.852V172.905H289.994C286.921 172.905 283.974 172.372 281.24 171.382L303.798 148.823C308.524 144.09 316.191 144.09 320.925 148.823C325.651 153.55 325.651 161.217 320.925 165.943Z" fill="#17998C"/>
<path d="M322.449 191.952C315.887 191.718 310.781 186.126 310.781 179.56V162.434C310.781 160.572 309.272 159.064 307.411 159.064H290.284C283.718 159.064 278.126 153.957 277.893 147.395C277.648 140.506 283.16 134.844 289.994 134.844H322.891C329.579 134.844 335 140.266 335 146.954V179.85C335 186.685 329.339 192.197 322.449 191.952Z" fill="#FE8A71"/>
<path d="M75.986 280.648C88.8113 280.648 99.2083 270.251 99.2083 257.426C99.2083 244.601 88.8113 234.204 75.986 234.204C63.1606 234.204 52.7637 244.601 52.7637 257.426C52.7637 270.251 63.1606 280.648 75.986 280.648Z" fill="#FE8A71"/>
<path d="M99.21 257.423C99.21 270.252 88.8093 280.646 75.9871 280.646C71.3023 280.646 66.9362 279.255 63.2826 276.861C73.4405 276.21 81.4884 267.754 81.4884 257.423C81.4884 247.091 73.4405 238.635 63.2754 237.992C66.929 235.598 71.2951 234.207 75.9871 234.207C88.8093 234.207 99.21 244.6 99.21 257.423Z" fill="#EF7055"/>
<path d="M213.695 277.278C226.52 277.278 236.917 266.881 236.917 254.056C236.917 241.23 226.52 230.833 213.695 230.833C200.87 230.833 190.473 241.23 190.473 254.056C190.473 266.881 200.87 277.278 213.695 277.278Z" fill="#FE8A71"/>
<path d="M236.919 254.052C236.919 266.882 226.518 277.275 213.696 277.275C209.011 277.275 204.645 275.884 200.992 273.49C211.15 272.84 219.197 264.384 219.197 254.052C219.197 243.721 211.15 235.265 200.984 234.622C204.638 232.228 209.004 230.837 213.696 230.837C226.518 230.837 236.919 241.23 236.919 254.052Z" fill="#EF7055"/>
<path d="M61.4084 452.153H6.18965C2.77095 452.153 0 449.382 0 445.963V433.529C0 430.111 2.7716 427.34 6.18965 427.34L32.5415 424.068L61.4077 427.34C64.8264 427.34 67.5974 430.111 67.5974 433.529V445.963C67.598 449.382 64.8264 452.153 61.4084 452.153Z" fill="#FFD496"/>
<path d="M67.5977 433.531V445.966C67.5977 449.383 64.8248 452.156 61.4081 452.156H42.0645C45.4812 452.156 48.2541 449.383 48.2541 445.966V433.531C48.2541 430.114 45.4812 427.341 42.0645 427.341H61.4074C64.8242 427.34 67.5977 430.114 67.5977 433.531Z" fill="#FCC16D"/>
<path d="M61.4084 427.337H6.18965C2.77095 427.337 0 424.565 0 421.147V408.713C0 405.294 2.7716 402.523 6.18965 402.523H61.4077C64.8264 402.523 67.5974 405.295 67.5974 408.713V421.147C67.598 424.566 64.8264 427.337 61.4084 427.337Z" fill="#FE8A71"/>
<path d="M67.5977 408.714V421.149C67.5977 424.566 64.8248 427.339 61.4081 427.339H42.0645C45.4812 427.339 48.2541 424.566 48.2541 421.149V408.714C48.2541 405.297 45.4812 402.524 42.0645 402.524H61.4074C64.8242 402.524 67.5977 405.297 67.5977 408.714Z" fill="#EF7055"/>
<path d="M67.5977 383.898V396.333C67.5977 399.75 64.8248 402.523 61.4081 402.523H42.0645C45.4812 402.523 48.2541 399.75 48.2541 396.333V383.898C48.2541 380.481 45.4812 377.708 42.0645 377.708H61.4074C64.8242 377.708 67.5977 380.481 67.5977 383.898Z" fill="#FCC16D"/>
<path d="M61.4084 377.705H6.18965C2.77095 377.705 0 374.934 0 371.516V359.081C0 355.663 2.7716 352.892 6.18965 352.892H61.4077C64.8264 352.892 67.5974 355.663 67.5974 359.081V371.516C67.598 374.934 64.8264 377.705 61.4084 377.705Z" fill="#FE8A71"/>
<path d="M67.5977 359.082V371.518C67.5977 374.934 64.8248 377.707 61.4081 377.707H42.0645C45.4812 377.707 48.2541 374.934 48.2541 371.518V359.082C48.2541 355.665 45.4812 352.892 42.0645 352.892H61.4074C64.8242 352.892 67.5977 355.665 67.5977 359.082Z" fill="#EF7055"/>
<path d="M150.542 452.153H95.3244C91.9057 452.153 89.1348 449.382 89.1348 445.964V433.53C89.1348 430.111 91.9064 427.34 95.3244 427.34H150.542C153.961 427.34 156.732 430.111 156.732 433.53V445.964C156.732 449.382 153.961 452.153 150.542 452.153Z" fill="#FE8A71"/>
<path d="M156.734 433.531V445.966C156.734 449.383 153.962 452.156 150.545 452.156H131.201C134.618 452.156 137.391 449.383 137.391 445.966V433.531C137.391 430.114 134.618 427.341 131.201 427.341H150.544C153.962 427.341 156.734 430.114 156.734 433.531Z" fill="#EF7055"/>
<path d="M156.734 408.714V421.149C156.734 424.566 153.962 427.339 150.545 427.339H131.201C134.618 427.339 137.391 424.566 137.391 421.149V408.714C137.391 405.297 134.618 402.524 131.201 402.524H150.544C153.962 402.524 156.734 405.297 156.734 408.714Z" fill="#FCC16D"/>
<path d="M150.542 402.521H95.3244C91.9057 402.521 89.1348 399.749 89.1348 396.331V383.897C89.1348 380.478 91.9064 377.707 95.3244 377.707H150.542C153.961 377.707 156.732 380.479 156.732 383.897V396.331C156.732 399.749 153.961 402.521 150.542 402.521Z" fill="#FE8A71"/>
<path d="M156.734 383.898V396.333C156.734 399.75 153.962 402.523 150.545 402.523H131.201C134.618 402.523 137.391 399.75 137.391 396.333V383.898C137.391 380.481 134.618 377.708 131.201 377.708H150.544C153.962 377.708 156.734 380.481 156.734 383.898Z" fill="#EF7055"/>
<path d="M239.675 452.153H184.457C181.039 452.153 178.268 449.381 178.268 445.963V433.529C178.268 430.11 181.039 427.339 184.457 427.339L212.759 424.068L239.676 427.339C243.095 427.339 245.866 430.111 245.866 433.529V445.963C245.865 449.382 243.094 452.153 239.675 452.153Z" fill="#FFD496"/>
<path d="M245.865 433.53V445.966C245.865 449.383 243.092 452.156 239.675 452.156H220.332C223.749 452.156 226.522 449.383 226.522 445.966V433.53C226.522 430.114 223.749 427.341 220.332 427.341H239.675C243.092 427.34 245.865 430.114 245.865 433.53Z" fill="#FCC16D"/>
<path d="M239.675 427.337H184.457C181.039 427.337 178.268 424.565 178.268 421.147V408.713C178.268 405.294 181.039 402.523 184.457 402.523H239.675C243.094 402.523 245.865 405.295 245.865 408.713V421.147C245.865 424.566 243.094 427.337 239.675 427.337Z" fill="#FE8A71"/>
<path d="M245.865 408.714V421.149C245.865 424.566 243.092 427.339 239.675 427.339H220.332C223.749 427.339 226.522 424.566 226.522 421.149V408.714C226.522 405.297 223.749 402.524 220.332 402.524H239.675C243.092 402.524 245.865 405.297 245.865 408.714Z" fill="#EF7055"/>
<path d="M245.865 383.897V396.333C245.865 399.75 243.092 402.523 239.675 402.523H220.332C223.749 402.523 226.522 399.75 226.522 396.333V383.897C226.522 380.481 223.749 377.708 220.332 377.708H239.675C243.092 377.708 245.865 380.481 245.865 383.897Z" fill="#FCC16D"/>
<path d="M328.808 452.153H273.59C270.171 452.153 267.4 449.382 267.4 445.964V433.53C267.4 430.111 270.172 427.34 273.59 427.34H328.808C332.227 427.34 334.998 430.111 334.998 433.53V445.964C334.998 449.382 332.227 452.153 328.808 452.153Z" fill="#FE8A71"/>
<path d="M334.999 433.531V445.966C334.999 449.383 332.227 452.156 328.81 452.156H309.467C312.884 452.156 315.656 449.383 315.656 445.966V433.531C315.656 430.114 312.884 427.341 309.467 427.341H328.81C332.227 427.341 334.999 430.114 334.999 433.531Z" fill="#EF7055"/>
<path d="M334.999 408.714V421.149C334.999 424.566 332.227 427.339 328.81 427.339H309.467C312.884 427.339 315.656 424.566 315.656 421.149V408.714C315.656 405.297 312.884 402.524 309.467 402.524H328.81C332.227 402.524 334.999 405.297 334.999 408.714Z" fill="#FCC16D"/>
<path d="M328.808 402.521H273.59C270.171 402.521 267.4 399.749 267.4 396.331V383.897C267.4 380.478 270.172 377.707 273.59 377.707H328.808C332.227 377.707 334.998 380.479 334.998 383.897V396.331C334.998 399.749 332.227 402.521 328.808 402.521Z" fill="#FE8A71"/>
<path d="M334.999 383.898V396.333C334.999 399.75 332.227 402.523 328.81 402.523H309.467C312.884 402.523 315.656 399.75 315.656 396.333V383.898C315.656 380.481 312.884 377.708 309.467 377.708H328.81C332.227 377.708 334.999 380.481 334.999 383.898Z" fill="#EF7055"/>
<path d="M156.734 359.081V371.517C156.734 374.934 153.962 377.707 150.545 377.707H131.201C134.618 377.707 137.391 374.934 137.391 371.517V359.081C137.391 355.665 134.618 352.892 131.201 352.892H150.544C153.962 352.892 156.734 355.665 156.734 359.081Z" fill="#FCC16D"/>
<path d="M150.542 352.887H95.3244C91.9057 352.887 89.1348 350.115 89.1348 346.697V334.263C89.1348 330.844 91.9064 328.073 95.3244 328.073H150.542C153.961 328.073 156.732 330.844 156.732 334.263V346.697C156.732 350.115 153.961 352.887 150.542 352.887Z" fill="#FE8A71"/>
<path d="M156.734 334.264V346.699C156.734 350.116 153.962 352.889 150.545 352.889H131.201C134.618 352.889 137.391 350.116 137.391 346.699V334.264C137.391 330.847 134.618 328.074 131.201 328.074H150.544C153.962 328.074 156.734 330.847 156.734 334.264Z" fill="#EF7055"/>
<path d="M239.675 377.705H184.457C181.039 377.705 178.268 374.933 178.268 371.515V359.08C178.268 355.661 181.039 352.89 184.457 352.89H239.675C243.094 352.89 245.865 355.662 245.865 359.08V371.514C245.865 374.933 243.094 377.705 239.675 377.705Z" fill="#FE8A71"/>
<path d="M245.865 359.081V371.517C245.865 374.934 243.092 377.707 239.675 377.707H220.332C223.749 377.707 226.522 374.934 226.522 371.517V359.081C226.522 355.665 223.749 352.892 220.332 352.892H239.675C243.092 352.892 245.865 355.665 245.865 359.081Z" fill="#EF7055"/>
<path d="M245.865 334.265V346.701C245.865 350.118 243.092 352.89 239.675 352.89H220.332C223.749 352.89 226.522 350.118 226.522 346.701V334.265C226.522 330.848 223.749 328.076 220.332 328.076H239.675C243.092 328.075 245.865 330.848 245.865 334.265Z" fill="#FCC16D"/>
<path d="M156.734 309.447V321.883C156.734 325.299 153.962 328.072 150.545 328.072H131.201C134.618 328.072 137.391 325.299 137.391 321.883V309.447C137.391 306.03 134.618 303.257 131.201 303.257H150.544C153.962 303.257 156.734 306.03 156.734 309.447Z" fill="#FCC16D"/>
<path d="M239.675 328.071H184.457C181.039 328.071 178.268 325.299 178.268 321.881V309.447C178.268 306.028 181.039 303.257 184.457 303.257H239.675C243.094 303.257 245.865 306.029 245.865 309.447V321.881C245.865 325.3 243.094 328.071 239.675 328.071Z" fill="#FE8A71"/>
<path d="M245.865 309.448V321.884C245.865 325.301 243.092 328.074 239.675 328.074H220.332C223.749 328.074 226.522 325.301 226.522 321.884V309.448C226.522 306.032 223.749 303.259 220.332 303.259H239.675C243.092 303.258 245.865 306.032 245.865 309.448Z" fill="#EF7055"/>
<path d="M334.999 359.081V371.517C334.999 374.934 332.227 377.707 328.81 377.707H309.467C312.884 377.707 315.656 374.934 315.656 371.517V359.081C315.656 355.665 312.884 352.892 309.467 352.892H328.81C332.227 352.892 334.999 355.665 334.999 359.081Z" fill="#FCC16D"/>
<path d="M328.808 352.889H273.59C270.171 352.889 267.4 350.117 267.4 346.699V334.265C267.4 330.846 270.172 328.075 273.59 328.075H328.808C332.227 328.075 334.998 330.847 334.998 334.265V346.699C334.998 350.117 332.227 352.889 328.808 352.889Z" fill="#FE8A71"/>
<path d="M334.999 334.265V346.701C334.999 350.118 332.227 352.891 328.81 352.891H309.467C312.884 352.891 315.656 350.118 315.656 346.701V334.265C315.656 330.849 312.884 328.076 309.467 328.076H328.81C332.227 328.075 334.999 330.849 334.999 334.265Z" fill="#EF7055"/>
<path d="M334.999 309.449V321.885C334.999 325.301 332.227 328.074 328.81 328.074H309.467C312.884 328.074 315.656 325.301 315.656 321.885V309.449C315.656 306.032 312.884 303.259 309.467 303.259H328.81C332.227 303.259 334.999 306.032 334.999 309.449Z" fill="#FCC16D"/>
<path d="M328.808 303.257H273.59C270.171 303.257 267.4 300.485 267.4 297.067V284.633C267.4 281.214 270.172 278.443 273.59 278.443H328.808C332.227 278.443 334.998 281.215 334.998 284.633V297.067C334.998 300.485 332.227 303.257 328.808 303.257Z" fill="#FE8A71"/>
<path d="M334.999 284.633V297.069C334.999 300.486 332.227 303.259 328.81 303.259H309.467C312.884 303.259 315.656 300.486 315.656 297.069V284.633C315.656 281.217 312.884 278.444 309.467 278.444H328.81C332.227 278.444 334.999 281.217 334.999 284.633Z" fill="#EF7055"/>
<path d="M334.999 259.817V272.253C334.999 275.67 332.227 278.443 328.81 278.443H309.467C312.884 278.443 315.656 275.67 315.656 272.253V259.817C315.656 256.401 312.884 253.628 309.467 253.628H328.81C332.227 253.628 334.999 256.401 334.999 259.817Z" fill="#FCC16D"/>
</g>
<defs>
<clipPath id="clip0">
<rect width="335" height="335" fill="white" transform="translate(0 126)"/>
</clipPath>
</defs>
</svg>
