<svg width="700" height="733" viewBox="0 0 700 733" fill="none" xmlns="http://www.w3.org/2000/svg">
<path d="M408.001 293L408.982 292.808L408.001 293ZM0.865148 731.009C0.317908 731.084 -0.0653423 731.588 0.00913417 732.135C0.0836107 732.682 0.587611 733.065 1.13485 732.991L0.865148 731.009ZM7.04579 732.17C7.59261 732.092 7.97302 731.586 7.89548 731.039C7.81793 730.492 7.31179 730.112 6.76498 730.189L7.04579 732.17ZM18.5135 728.455C17.9676 728.539 17.593 729.049 17.6768 729.595C17.7606 730.141 18.2711 730.516 18.817 730.432L18.5135 728.455ZM30.5684 728.557C31.1133 728.467 31.4818 727.952 31.3916 727.407C31.3013 726.862 30.7865 726.494 30.2416 726.584L30.5684 728.557ZM41.9452 724.573C41.4015 724.67 41.0393 725.189 41.1361 725.733C41.233 726.276 41.7523 726.639 42.296 726.542L41.9452 724.573ZM53.9994 724.381C54.5419 724.277 54.8976 723.754 54.7938 723.211C54.6901 722.669 54.1663 722.313 53.6239 722.417L53.9994 724.381ZM65.2711 720.112C64.7301 720.222 64.3812 720.751 64.492 721.292C64.6028 721.833 65.1312 722.182 65.6722 722.071L65.2711 720.112ZM77.3179 719.605C77.8574 719.487 78.1991 718.954 78.0811 718.415C77.963 717.875 77.4299 717.534 76.8904 717.652L77.3179 719.605ZM88.4674 715.034C87.9296 715.16 87.5954 715.697 87.721 716.235C87.8466 716.773 88.3844 717.107 88.9222 716.982L88.4674 715.034ZM100.499 714.19C101.035 714.057 101.361 713.514 101.228 712.978C101.094 712.442 100.552 712.116 100.016 712.249L100.499 714.19ZM111.506 709.298C110.972 709.44 110.654 709.987 110.795 710.521C110.937 711.055 111.484 711.373 112.018 711.232L111.506 709.298ZM123.512 708.091C124.043 707.941 124.353 707.389 124.203 706.857C124.053 706.326 123.501 706.016 122.97 706.166L123.512 708.091ZM134.353 702.859C133.824 703.018 133.523 703.575 133.682 704.104C133.84 704.633 134.397 704.934 134.926 704.775L134.353 702.859ZM146.321 701.259C146.847 701.092 147.138 700.53 146.971 700.003C146.803 699.477 146.241 699.186 145.715 699.353L146.321 701.259ZM156.967 695.667C156.444 695.843 156.163 696.411 156.339 696.934C156.516 697.457 157.083 697.738 157.607 697.562L156.967 695.667ZM168.881 693.642C169.4 693.455 169.671 692.883 169.485 692.363C169.299 691.843 168.726 691.573 168.206 691.759L168.881 693.642ZM179.305 687.664C178.789 687.86 178.529 688.438 178.725 688.954C178.921 689.47 179.499 689.73 180.015 689.534L179.305 687.664ZM191.138 685.18C191.65 684.973 191.898 684.39 191.692 683.878C191.485 683.366 190.903 683.118 190.39 683.325L191.138 685.18ZM201.327 678.783C200.819 679 200.584 679.587 200.801 680.095C201.018 680.603 201.606 680.839 202.114 680.621L201.327 678.783ZM213.029 675.811C213.532 675.583 213.755 674.99 213.526 674.487C213.298 673.984 212.705 673.762 212.202 673.99L213.029 675.811ZM222.943 668.966C222.445 669.206 222.236 669.804 222.476 670.301C222.716 670.799 223.313 671.008 223.811 670.768L222.943 668.966ZM234.476 665.471C234.967 665.219 235.162 664.617 234.91 664.125C234.658 663.633 234.056 663.439 233.564 663.69L234.476 665.471ZM244.065 658.149C243.58 658.413 243.4 659.021 243.664 659.506C243.928 659.991 244.535 660.17 245.021 659.906L244.065 658.149ZM255.385 654.091C255.863 653.815 256.027 653.203 255.75 652.725C255.474 652.247 254.862 652.084 254.384 652.36L255.385 654.091ZM264.592 646.267C264.122 646.556 263.976 647.172 264.265 647.643C264.555 648.113 265.171 648.259 265.641 647.97L264.592 646.267ZM275.678 641.589C276.139 641.286 276.268 640.666 275.965 640.204C275.662 639.742 275.042 639.613 274.58 639.916L275.678 641.589ZM284.406 633.255C283.954 633.572 283.844 634.196 284.161 634.648C284.478 635.101 285.101 635.211 285.554 634.894L284.406 633.255ZM295.207 627.907C295.649 627.576 295.74 626.949 295.409 626.507C295.078 626.065 294.451 625.975 294.009 626.305L295.207 627.907ZM303.372 619.06C302.941 619.405 302.871 620.034 303.217 620.466C303.562 620.897 304.191 620.966 304.622 620.621L303.372 619.06ZM313.813 613.005C314.232 612.645 314.28 612.014 313.92 611.595C313.561 611.176 312.93 611.127 312.51 611.487L313.813 613.005ZM321.355 603.623C320.949 603.997 320.923 604.63 321.297 605.036C321.671 605.442 322.304 605.468 322.71 605.094L321.355 603.623ZM331.334 596.849C331.726 596.46 331.729 595.827 331.34 595.435C330.951 595.043 330.318 595.04 329.926 595.429L331.334 596.849ZM338.177 586.929C337.8 587.332 337.821 587.965 338.225 588.342C338.628 588.719 339.261 588.698 339.638 588.294L338.177 586.929ZM347.602 579.429C347.963 579.011 347.917 578.379 347.499 578.018C347.081 577.657 346.45 577.704 346.089 578.122L347.602 579.429ZM353.652 569C353.308 569.432 353.38 570.061 353.812 570.405C354.244 570.748 354.873 570.677 355.217 570.245L353.652 569ZM362.447 560.765C362.773 560.319 362.675 559.693 362.229 559.367C361.784 559.041 361.158 559.139 360.832 559.585L362.447 560.765ZM367.618 549.877C367.311 550.336 367.435 550.957 367.894 551.264C368.353 551.57 368.974 551.447 369.281 550.988L367.618 549.877ZM375.692 540.939C375.979 540.467 375.829 539.852 375.358 539.565C374.886 539.278 374.271 539.428 373.984 539.899L375.692 540.939ZM379.928 529.642C379.662 530.126 379.838 530.734 380.321 531.001C380.805 531.267 381.413 531.091 381.68 530.608L379.928 529.642ZM387.205 520.056C387.451 519.561 387.249 518.961 386.755 518.716C386.26 518.47 385.66 518.672 385.414 519.166L387.205 520.056ZM390.453 508.451C390.228 508.955 390.456 509.546 390.96 509.771C391.465 509.995 392.056 509.768 392.28 509.263L390.453 508.451ZM396.895 498.25C397.097 497.736 396.845 497.156 396.331 496.953C395.817 496.751 395.237 497.003 395.034 497.517L396.895 498.25ZM399.135 486.436C398.955 486.958 399.231 487.527 399.753 487.708C400.275 487.889 400.844 487.613 401.025 487.091L399.135 486.436ZM404.708 475.704C404.867 475.175 404.567 474.617 404.038 474.458C403.509 474.299 402.951 474.599 402.792 475.128L404.708 475.704ZM405.961 463.761C405.823 464.296 406.145 464.841 406.68 464.979C407.215 465.116 407.76 464.794 407.898 464.259L405.961 463.761ZM410.643 452.64C410.759 452.1 410.416 451.568 409.876 451.452C409.336 451.336 408.804 451.679 408.688 452.219L410.643 452.64ZM410.96 440.597C410.864 441.141 411.228 441.659 411.772 441.755C412.316 441.85 412.834 441.487 412.93 440.943L410.96 440.597ZM414.773 429.182C414.848 428.635 414.466 428.131 413.919 428.055C413.372 427.98 412.867 428.362 412.792 428.909L414.773 429.182ZM414.203 417.107C414.147 417.656 414.548 418.147 415.097 418.203C415.646 418.259 416.137 417.858 416.193 417.309L414.203 417.107ZM417.189 405.483C417.226 404.932 416.809 404.456 416.258 404.419C415.707 404.382 415.23 404.798 415.193 405.349L417.189 405.483ZM415.793 393.441C415.775 393.993 416.207 394.455 416.759 394.474C417.311 394.493 417.773 394.061 417.792 393.509L415.793 393.441ZM418.006 381.675C418.007 381.123 417.561 380.674 417.008 380.673C416.456 380.672 416.007 381.118 416.006 381.67L418.006 381.675ZM415.852 369.725C415.868 370.277 416.328 370.712 416.88 370.696C417.432 370.681 417.867 370.221 417.852 369.669L415.852 369.725ZM417.351 357.865C417.32 357.313 416.848 356.891 416.296 356.923C415.745 356.954 415.323 357.426 415.354 357.978L417.351 357.865ZM414.512 346.057C414.558 346.607 415.042 347.015 415.592 346.969C416.143 346.922 416.551 346.439 416.505 345.888L414.512 346.057ZM415.355 334.13C415.294 333.581 414.8 333.185 414.251 333.246C413.702 333.307 413.306 333.801 413.367 334.35L415.355 334.13ZM411.902 322.508C411.977 323.055 412.481 323.438 413.028 323.364C413.575 323.289 413.958 322.785 413.884 322.238L411.902 322.508ZM412.142 310.523C412.055 309.978 411.542 309.607 410.996 309.695C410.451 309.782 410.08 310.295 410.168 310.841L412.142 310.523ZM408.146 299.123C408.246 299.666 408.768 300.025 409.311 299.925C409.854 299.825 410.213 299.304 410.113 298.761L408.146 299.123ZM407.864 286.819C407.768 286.275 407.249 285.912 406.705 286.009C406.161 286.105 405.798 286.624 405.895 287.168L407.864 286.819ZM404.017 275.351C404.093 275.898 404.599 276.28 405.146 276.203C405.693 276.126 406.074 275.621 405.997 275.074L404.017 275.351ZM404.565 263.163C404.509 262.614 404.019 262.213 403.47 262.268C402.92 262.323 402.519 262.813 402.574 263.363L404.565 263.163ZM401.631 251.492C401.664 252.043 402.137 252.464 402.688 252.432C403.239 252.399 403.66 251.926 403.628 251.375L401.631 251.492ZM403.196 239.371C403.189 238.819 402.735 238.377 402.183 238.384C401.631 238.392 401.189 238.845 401.196 239.397L403.196 239.371ZM401.322 227.383C401.303 227.935 401.734 228.398 402.286 228.417C402.838 228.436 403.301 228.004 403.32 227.452L401.322 227.383ZM404.023 215.637C404.07 215.087 403.662 214.603 403.112 214.556C402.561 214.509 402.077 214.918 402.031 215.468L404.023 215.637ZM403.378 203.438C403.301 203.985 403.683 204.49 404.23 204.567C404.777 204.643 405.282 204.261 405.358 203.714L403.378 203.438ZM407.334 191.962C407.441 191.42 407.089 190.894 406.547 190.787C406.005 190.68 405.479 191.033 405.372 191.575L407.334 191.962ZM408.035 179.884C407.896 180.418 408.217 180.964 408.752 181.102C409.287 181.241 409.832 180.919 409.971 180.385L408.035 179.884ZM413.303 168.945C413.474 168.42 413.186 167.856 412.661 167.685C412.136 167.515 411.572 167.802 411.401 168.327L413.303 168.945ZM415.478 156.98C415.275 157.494 415.527 158.075 416.04 158.278C416.554 158.481 417.135 158.229 417.338 157.715L415.478 156.98ZM422.056 146.784C422.291 146.284 422.076 145.689 421.576 145.454C421.076 145.219 420.481 145.434 420.246 145.934L422.056 146.784ZM425.696 135.22C425.43 135.704 425.607 136.312 426.092 136.577C426.576 136.843 427.184 136.666 427.449 136.182L425.696 135.22ZM433.499 125.94C433.794 125.473 433.656 124.855 433.189 124.56C432.723 124.264 432.105 124.403 431.809 124.869L433.499 125.94ZM438.57 114.896C438.246 115.343 438.346 115.968 438.794 116.292C439.241 116.616 439.866 116.516 440.19 116.068L438.57 114.896ZM447.465 106.63C447.815 106.203 447.752 105.573 447.325 105.223C446.898 104.873 446.268 104.935 445.918 105.362L447.465 106.63ZM453.811 96.2845C453.437 96.6907 453.463 97.3233 453.869 97.6976C454.275 98.0718 454.908 98.0459 455.282 97.6398L453.811 96.2845ZM463.599 89.106C463.995 88.7213 464.004 88.0882 463.62 87.6919C463.235 87.2957 462.602 87.2864 462.206 87.6711L463.599 89.106ZM471.055 79.5266C470.639 79.8897 470.596 80.5214 470.96 80.9375C471.323 81.3536 471.954 81.3965 472.37 81.0333L471.055 79.5266ZM481.551 73.4219C481.985 73.0801 482.06 72.4514 481.718 72.0176C481.376 71.5837 480.747 71.5091 480.313 71.8509L481.551 73.4219ZM489.934 64.6401C489.484 64.9608 489.38 65.5853 489.7 66.035C490.021 66.4846 490.645 66.5891 491.095 66.2684L489.934 64.6401ZM500.963 59.5627C501.426 59.2625 501.559 58.6434 501.259 58.1798C500.959 57.7162 500.34 57.5837 499.876 57.8838L500.963 59.5627ZM510.103 51.5696C509.627 51.8498 509.468 52.4627 509.749 52.9386C510.029 53.4146 510.642 53.5733 511.118 53.2931L510.103 51.5696ZM521.525 47.4468C522.012 47.186 522.195 46.5799 521.934 46.0931C521.673 45.6063 521.067 45.4231 520.58 45.684L521.525 47.4468ZM531.275 40.2133C530.779 40.4555 530.573 41.0543 530.815 41.5506C531.058 42.0469 531.656 42.2529 532.153 42.0107L531.275 40.2133ZM542.978 36.968C543.483 36.7437 543.71 36.1527 543.486 35.648C543.261 35.1433 542.671 34.916 542.166 35.1403L542.978 36.968ZM553.227 30.4508C552.715 30.6578 552.468 31.2406 552.675 31.7527C552.882 32.2647 553.465 32.512 553.977 32.3051L553.227 30.4508ZM565.126 28.0096C565.644 27.8194 565.911 27.2448 565.72 26.7263C565.53 26.2079 564.956 25.9418 564.437 26.132L565.126 28.0096ZM575.774 22.1718C575.25 22.3459 574.966 22.9119 575.14 23.436C575.315 23.9601 575.881 24.2439 576.405 24.0698L575.774 22.1718ZM587.794 20.4751C588.323 20.3167 588.623 19.7593 588.465 19.2303C588.306 18.7012 587.749 18.4007 587.22 18.5592L587.794 20.4751ZM598.758 15.2844C598.224 15.4276 597.908 15.9761 598.051 16.5095C598.194 17.0429 598.743 17.3592 599.276 17.216L598.758 15.2844ZM610.87 14.2766C611.407 14.1483 611.738 13.6089 611.61 13.0717C611.482 12.5345 610.942 12.203 610.405 12.3313L610.87 14.2766ZM622.129 9.70012C621.589 9.81373 621.243 10.344 621.357 10.8844C621.47 11.4249 622 11.771 622.541 11.6574L622.129 9.70012ZM634.277 9.35492C634.82 9.25588 635.18 8.73513 635.081 8.1918C634.982 7.64847 634.462 7.2883 633.918 7.38735L634.277 9.35492ZM645.762 5.39161C645.216 5.47608 644.842 5.98701 644.927 6.5328C645.011 7.07858 645.522 7.45255 646.068 7.36808L645.762 5.39161ZM657.906 5.69862C658.454 5.6289 658.841 5.12824 658.772 4.58037C658.702 4.03251 658.201 3.6449 657.653 3.71462L657.906 5.69862ZM669.586 2.36223C669.036 2.41681 668.635 2.90658 668.689 3.45616C668.744 4.00574 669.234 4.40702 669.783 4.35244L669.586 2.36223ZM681.694 3.34108C682.245 3.30235 682.66 2.82434 682.621 2.27342C682.582 1.72249 682.104 1.30728 681.553 1.346L681.694 3.34108ZM693.55 0.685742C692.998 0.707476 692.568 1.17246 692.59 1.72432C692.612 2.27618 693.077 2.70593 693.629 2.68419L693.55 0.685742ZM1.13485 732.991C3.10788 732.722 5.07823 732.449 7.04579 732.17L6.76498 730.189C4.80114 730.468 2.83449 730.741 0.865148 731.009L1.13485 732.991ZM18.817 730.432C22.7465 729.829 26.6639 729.204 30.5684 728.557L30.2416 726.584C26.345 727.229 22.4353 727.853 18.5135 728.455L18.817 730.432ZM42.296 726.542C46.2115 725.844 50.1129 725.124 53.9994 724.381L53.6239 722.417C49.7457 723.158 45.8525 723.877 41.9452 724.573L42.296 726.542ZM65.6722 722.071C69.5705 721.273 73.4527 720.451 77.3179 719.605L76.8904 717.652C73.0341 718.495 69.1607 719.315 65.2711 720.112L65.6722 722.071ZM88.9222 716.982C92.7997 716.076 96.6589 715.146 100.499 714.19L100.016 712.249C96.1854 713.203 92.3357 714.131 88.4674 715.034L88.9222 716.982ZM112.018 711.232C115.87 710.211 119.702 709.164 123.512 708.091L122.97 706.166C119.17 707.237 115.348 708.281 111.506 709.298L112.018 711.232ZM134.926 704.775C138.748 703.631 142.546 702.459 146.321 701.259L145.715 699.353C141.951 700.55 138.164 701.719 134.353 702.859L134.926 704.775ZM157.607 697.562C161.391 696.285 165.149 694.978 168.881 693.642L168.206 691.759C164.487 693.091 160.74 694.393 156.967 695.667L157.607 697.562ZM180.015 689.534C183.752 688.114 187.461 686.662 191.138 685.18L190.39 683.325C186.725 684.802 183.03 686.249 179.305 687.664L180.015 689.534ZM202.114 680.621C205.785 679.051 209.424 677.448 213.029 675.811L212.202 673.99C208.611 675.621 204.985 677.218 201.327 678.783L202.114 680.621ZM223.811 670.768C227.402 669.037 230.957 667.272 234.476 665.471L233.564 663.69C230.061 665.484 226.52 667.242 222.943 668.966L223.811 670.768ZM245.021 659.906C248.515 658.005 251.971 656.067 255.385 654.091L254.384 652.36C250.985 654.327 247.545 656.256 244.065 658.149L245.021 659.906ZM265.641 647.97C269.031 645.882 272.377 643.755 275.678 641.589L274.58 639.916C271.296 642.072 267.966 644.189 264.592 646.267L265.641 647.97ZM285.554 634.894C288.82 632.606 292.038 630.278 295.207 627.907L294.009 626.305C290.857 628.663 287.656 630.98 284.406 633.255L285.554 634.894ZM304.622 620.621C307.739 618.127 310.803 615.588 313.813 613.005L312.51 611.487C309.518 614.055 306.471 616.579 303.372 619.06L304.622 620.621ZM322.71 605.094C325.642 602.391 328.517 599.643 331.334 596.849L329.926 595.429C327.127 598.206 324.269 600.937 321.355 603.623L322.71 605.094ZM339.638 588.294C342.354 585.387 345.009 582.432 347.602 579.429L346.089 578.122C343.513 581.105 340.875 584.04 338.177 586.929L339.638 588.294ZM355.217 570.245C357.692 567.134 360.102 563.974 362.447 560.765L360.832 559.585C358.504 562.772 356.11 565.91 353.652 569L355.217 570.245ZM369.281 550.988C371.486 547.688 373.623 544.339 375.692 540.939L373.984 539.899C371.93 543.275 369.807 546.6 367.618 549.877L369.281 550.988ZM381.68 530.608C383.591 527.14 385.434 523.623 387.205 520.056L385.414 519.166C383.655 522.708 381.826 526.2 379.928 529.642L381.68 530.608ZM392.28 509.263C393.889 505.642 395.428 501.971 396.895 498.25L395.034 497.517C393.578 501.211 392.05 504.856 390.453 508.451L392.28 509.263ZM401.025 487.091C402.324 483.344 403.552 479.548 404.708 475.704L402.792 475.128C401.644 478.946 400.425 482.715 399.135 486.436L401.025 487.091ZM407.898 464.259C408.882 460.433 409.798 456.56 410.643 452.64L408.688 452.219C407.848 456.113 406.939 459.961 405.961 463.761L407.898 464.259ZM412.93 440.943C413.611 437.067 414.226 433.147 414.773 429.182L412.792 428.909C412.248 432.85 411.637 436.745 410.96 440.597L412.93 440.943ZM416.193 417.309C416.589 413.409 416.921 409.467 417.189 405.483L415.193 405.349C414.927 409.311 414.597 413.23 414.203 417.107L416.193 417.309ZM417.792 393.509C417.924 389.603 417.996 385.659 418.006 381.675L416.006 381.67C415.996 385.633 415.925 389.557 415.793 393.441L417.792 393.509ZM417.852 369.669C417.743 365.771 417.576 361.836 417.351 357.865L415.354 357.978C415.578 361.93 415.744 365.846 415.852 369.725L417.852 369.669ZM416.505 345.888C416.176 342.003 415.793 338.083 415.355 334.13L413.367 334.35C413.803 338.287 414.185 342.189 414.512 346.057L416.505 345.888ZM413.884 322.238C413.355 318.365 412.775 314.46 412.142 310.523L410.168 310.841C410.798 314.762 411.376 318.651 411.902 322.508L413.884 322.238ZM410.113 298.761C409.749 296.784 409.372 294.8 408.982 292.808L407.019 293.192C407.408 295.177 407.783 297.154 408.146 299.123L410.113 298.761ZM408.982 292.808C408.589 290.798 408.216 288.802 407.864 286.819L405.895 287.168C406.249 289.163 406.624 291.171 407.019 293.192L408.982 292.808ZM405.997 275.074C405.433 271.048 404.957 267.078 404.565 263.163L402.574 263.363C402.969 267.304 403.449 271.3 404.017 275.351L405.997 275.074ZM403.628 251.375C403.391 247.312 403.248 243.311 403.196 239.371L401.196 239.397C401.249 243.368 401.393 247.399 401.631 251.492L403.628 251.375ZM403.32 227.452C403.459 223.447 403.694 219.51 404.023 215.637L402.031 215.468C401.698 219.374 401.461 223.345 401.322 227.383L403.32 227.452ZM405.358 203.714C405.915 199.724 406.575 195.807 407.334 191.962L405.372 191.575C404.606 195.456 403.94 199.411 403.378 203.438L405.358 203.714ZM409.971 180.385C410.978 176.493 412.091 172.681 413.303 168.945L411.401 168.327C410.176 172.102 409.052 175.953 408.035 179.884L409.971 180.385ZM417.338 157.715C418.809 153.99 420.383 150.347 422.056 146.784L420.246 145.934C418.555 149.535 416.964 153.216 415.478 156.98L417.338 157.715ZM427.449 136.182C429.369 132.685 431.388 129.271 433.499 125.94L431.809 124.869C429.676 128.236 427.637 131.686 425.696 135.22L427.449 136.182ZM440.19 116.068C442.527 112.84 444.953 109.694 447.465 106.63L445.918 105.362C443.382 108.457 440.93 111.634 438.57 114.896L440.19 116.068ZM455.282 97.6398C457.977 94.715 460.751 91.871 463.599 89.106L462.206 87.6711C459.332 90.4613 456.532 93.3319 453.811 96.2845L455.282 97.6398ZM472.37 81.0333C475.365 78.4192 478.428 75.8827 481.551 73.4219L480.313 71.8509C477.164 74.3318 474.076 76.8898 471.055 79.5266L472.37 81.0333ZM491.095 66.2684C494.331 63.9598 497.623 61.7252 500.963 59.5627L499.876 57.8838C496.511 60.0622 493.195 62.3137 489.934 64.6401L491.095 66.2684ZM511.118 53.2931C514.546 51.2746 518.018 49.3264 521.525 47.4468L520.58 45.684C517.05 47.5759 513.556 49.5371 510.103 51.5696L511.118 53.2931ZM532.153 42.0107C535.733 40.2632 539.344 38.5829 542.978 36.968L542.166 35.1403C538.51 36.7647 534.878 38.4551 531.275 40.2133L532.153 42.0107ZM553.977 32.3051C557.677 30.8094 561.396 29.3782 565.126 28.0096L564.437 26.132C560.687 27.5078 556.949 28.9468 553.227 30.4508L553.977 32.3051ZM576.405 24.0698C580.198 22.8098 583.997 21.6122 587.794 20.4751L587.22 18.5592C583.405 19.7018 579.587 20.9053 575.774 22.1718L576.405 24.0698ZM599.276 17.216C603.152 16.1755 607.019 15.1963 610.87 14.2766L610.405 12.3313C606.536 13.2553 602.651 14.239 598.758 15.2844L599.276 17.216ZM622.541 11.6574C626.48 10.8293 630.395 10.0626 634.277 9.35492L633.918 7.38735C630.019 8.09818 626.087 8.86835 622.129 9.70012L622.541 11.6574ZM646.068 7.36808C650.062 6.74996 654.011 6.19434 657.906 5.69862L657.653 3.71462C653.74 4.2126 649.774 4.77073 645.762 5.39161L646.068 7.36808ZM669.783 4.35244C673.83 3.95058 677.804 3.61453 681.694 3.34108L681.553 1.346C677.644 1.6208 673.651 1.95848 669.586 2.36223L669.783 4.35244ZM693.629 2.68419C695.622 2.60569 697.588 2.54437 699.524 2.49973L699.478 0.500266C697.531 0.545155 695.554 0.606815 693.55 0.685742L693.629 2.68419Z" fill="#FFE8E3"/>
</svg>
