<svg width="2402" height="2050" viewBox="0 0 2402 2050" fill="none" xmlns="http://www.w3.org/2000/svg">
<path d="M1787.72 1180.94L1823.16 1200.96L1788.1 1221.64L1787.72 1180.94Z" fill="#FFECEC"/>
<path opacity="0.2" d="M627.766 1188.76L627.811 1189.26L627.766 1188.76ZM7.03243 991.447C7.25254 991.613 7.56616 991.57 7.73291 991.35C7.89966 991.13 7.85641 990.816 7.6363 990.65L7.03243 991.447ZM14.0795 995.462C13.8572 995.298 13.5442 995.346 13.3804 995.568C13.2166 995.79 13.264 996.103 13.4863 996.267L14.0795 995.462ZM19.8396 1000.89C20.0638 1001.05 20.3763 1001 20.5374 1000.78C20.6986 1000.55 20.6474 1000.24 20.4232 1000.08L19.8396 1000.89ZM26.9465 1004.71C26.7205 1004.55 26.4087 1004.61 26.25 1004.83C26.0914 1005.06 26.1459 1005.37 26.3719 1005.53L26.9465 1004.71ZM32.8859 1010.05C33.1135 1010.21 33.4248 1010.15 33.5812 1009.92C33.7375 1009.7 33.6798 1009.39 33.4522 1009.23L32.8859 1010.05ZM40.0293 1013.7C39.8002 1013.55 39.4895 1013.61 39.3353 1013.84C39.1811 1014.07 39.2419 1014.38 39.471 1014.53L40.0293 1013.7ZM46.1064 1018.95C46.3369 1019.1 46.647 1019.04 46.7991 1018.81C46.9512 1018.58 46.8876 1018.27 46.6571 1018.12L46.1064 1018.95ZM53.2955 1022.46C53.0637 1022.31 52.7542 1022.37 52.6041 1022.6C52.454 1022.84 52.5202 1023.15 52.752 1023.3L53.2955 1022.46ZM59.4704 1027.61C59.7035 1027.75 60.0125 1027.69 60.1606 1027.45C60.3088 1027.22 60.24 1026.91 60.0069 1026.76L59.4704 1027.61ZM66.7172 1030.99C66.4829 1030.84 66.1745 1030.91 66.0282 1031.15C65.882 1031.38 65.9533 1031.69 66.1875 1031.84L66.7172 1030.99ZM72.9644 1036.03C73.1998 1036.18 73.5077 1036.1 73.6521 1035.87C73.7965 1035.63 73.7228 1035.33 73.4875 1035.18L72.9644 1036.03ZM80.2792 1039.31C80.0428 1039.17 79.7354 1039.25 79.5928 1039.48C79.4502 1039.72 79.5262 1040.03 79.7627 1040.17L80.2792 1039.31ZM86.5826 1044.25C86.8201 1044.39 87.1268 1044.31 87.2677 1044.07C87.4086 1043.84 87.3303 1043.53 87.0928 1043.39L86.5826 1044.25ZM93.9732 1047.44C93.7347 1047.3 93.4285 1047.38 93.2894 1047.62C93.1502 1047.85 93.2308 1048.16 93.4693 1048.3L93.9732 1047.44ZM100.323 1052.27C100.562 1052.4 100.868 1052.32 101.005 1052.08C101.143 1051.84 101.06 1051.54 100.82 1051.4L100.323 1052.27ZM107.794 1055.37C107.553 1055.23 107.248 1055.32 107.113 1055.56C106.977 1055.8 107.062 1056.1 107.302 1056.24L107.794 1055.37ZM114.184 1060.09C114.425 1060.22 114.729 1060.14 114.863 1059.9C114.997 1059.65 114.91 1059.35 114.669 1059.22L114.184 1060.09ZM121.67 1063.07C121.428 1062.94 121.124 1063.03 120.992 1063.27C120.86 1063.51 120.949 1063.82 121.191 1063.95L121.67 1063.07ZM128.164 1067.73C128.407 1067.86 128.71 1067.77 128.841 1067.52C128.972 1067.28 128.881 1066.98 128.637 1066.85L128.164 1067.73ZM135.652 1070.59C135.408 1070.46 135.105 1070.55 134.976 1070.79C134.847 1071.04 134.94 1071.34 135.184 1071.47L135.652 1070.59ZM142.263 1075.18C142.508 1075.31 142.809 1075.21 142.937 1074.97C143.064 1074.72 142.969 1074.42 142.724 1074.29L142.263 1075.18ZM149.752 1077.92C149.506 1077.79 149.205 1077.89 149.079 1078.14C148.953 1078.38 149.05 1078.68 149.296 1078.81L149.752 1077.92ZM156.432 1082.43C156.678 1082.55 156.979 1082.45 157.103 1082.21C157.227 1081.96 157.128 1081.66 156.881 1081.54L156.432 1082.43ZM163.969 1085.07C163.721 1084.95 163.421 1085.05 163.299 1085.3C163.176 1085.55 163.278 1085.85 163.525 1085.97L163.969 1085.07ZM170.667 1089.47C170.915 1089.59 171.215 1089.49 171.335 1089.24C171.456 1088.99 171.353 1088.69 171.104 1088.57L170.667 1089.47ZM178.3 1092.04C178.051 1091.92 177.753 1092.03 177.634 1092.28C177.514 1092.53 177.62 1092.83 177.869 1092.95L178.3 1092.04ZM185.02 1096.34C185.27 1096.45 185.568 1096.35 185.685 1096.1C185.803 1095.85 185.696 1095.55 185.446 1095.43L185.02 1096.34ZM192.674 1098.8C192.424 1098.68 192.127 1098.79 192.011 1099.04C191.895 1099.29 192.004 1099.59 192.255 1099.71L192.674 1098.8ZM199.488 1103.02C199.74 1103.13 200.036 1103.02 200.15 1102.77C200.264 1102.52 200.153 1102.22 199.901 1102.11L199.488 1103.02ZM207.137 1105.36C206.884 1105.25 206.589 1105.36 206.476 1105.61C206.364 1105.86 206.477 1106.16 206.73 1106.27L207.137 1105.36ZM214.047 1109.5C214.3 1109.61 214.594 1109.5 214.705 1109.24C214.816 1108.99 214.7 1108.7 214.447 1108.58L214.047 1109.5ZM221.713 1111.73C221.459 1111.62 221.165 1111.74 221.056 1111.99C220.947 1112.25 221.065 1112.54 221.319 1112.65L221.713 1111.73ZM228.641 1115.76C228.895 1115.87 229.189 1115.75 229.296 1115.5C229.403 1115.24 229.283 1114.95 229.029 1114.84L228.641 1115.76ZM236.398 1117.92C236.143 1117.81 235.851 1117.93 235.745 1118.19C235.64 1118.44 235.761 1118.73 236.017 1118.84L236.398 1117.92ZM243.349 1121.84C243.605 1121.94 243.897 1121.82 244 1121.56C244.104 1121.31 243.98 1121.02 243.724 1120.91L243.349 1121.84ZM251.113 1123.87C250.857 1123.77 250.566 1123.9 250.464 1124.15C250.362 1124.41 250.488 1124.7 250.745 1124.8L251.113 1123.87ZM258.165 1127.72C258.423 1127.82 258.712 1127.69 258.812 1127.43C258.912 1127.17 258.785 1126.88 258.527 1126.78L258.165 1127.72ZM265.926 1129.63C265.668 1129.53 265.38 1129.66 265.281 1129.92C265.183 1130.18 265.313 1130.46 265.571 1130.56L265.926 1129.63ZM273.034 1133.37C273.292 1133.47 273.58 1133.33 273.677 1133.08C273.773 1132.82 273.641 1132.53 273.382 1132.43L273.034 1133.37ZM280.845 1135.18C280.585 1135.08 280.298 1135.22 280.204 1135.48C280.11 1135.74 280.243 1136.02 280.503 1136.12L280.845 1135.18ZM287.977 1138.81C288.237 1138.9 288.523 1138.76 288.615 1138.5C288.708 1138.24 288.572 1137.96 288.312 1137.87L287.977 1138.81ZM295.83 1140.51C295.569 1140.42 295.284 1140.55 295.193 1140.82C295.103 1141.08 295.241 1141.36 295.502 1141.45L295.83 1140.51ZM303.022 1144.03C303.284 1144.12 303.568 1143.98 303.656 1143.72C303.745 1143.46 303.605 1143.17 303.343 1143.08L303.022 1144.03ZM310.873 1145.61C310.611 1145.52 310.328 1145.66 310.242 1145.92C310.155 1146.19 310.297 1146.47 310.56 1146.55L310.873 1145.61ZM318.143 1149.03C318.406 1149.11 318.688 1148.97 318.773 1148.71C318.857 1148.44 318.713 1148.16 318.45 1148.08L318.143 1149.03ZM326.016 1150.48C325.752 1150.4 325.472 1150.55 325.389 1150.81C325.307 1151.07 325.453 1151.35 325.717 1151.44L326.016 1150.48ZM333.314 1153.79C333.578 1153.87 333.857 1153.72 333.938 1153.45C334.018 1153.19 333.87 1152.91 333.605 1152.83L333.314 1153.79ZM341.237 1155.12C340.972 1155.04 340.694 1155.2 340.615 1155.46C340.537 1155.72 340.688 1156 340.952 1156.08L341.237 1155.12ZM348.579 1158.31C348.845 1158.38 349.122 1158.23 349.198 1157.97C349.274 1157.7 349.121 1157.42 348.856 1157.35L348.579 1158.31ZM356.501 1159.51C356.235 1159.44 355.959 1159.59 355.885 1159.86C355.811 1160.13 355.966 1160.4 356.232 1160.48L356.501 1159.51ZM363.923 1162.59C364.189 1162.66 364.464 1162.5 364.536 1162.23C364.608 1161.97 364.45 1161.69 364.183 1161.62L363.923 1162.59ZM371.855 1163.66C371.587 1163.59 371.314 1163.75 371.244 1164.02C371.175 1164.28 371.335 1164.56 371.602 1164.63L371.855 1163.66ZM379.308 1166.6C379.575 1166.67 379.847 1166.51 379.915 1166.24C379.982 1165.97 379.82 1165.7 379.552 1165.63L379.308 1166.6ZM387.283 1167.55C387.015 1167.48 386.744 1167.65 386.679 1167.92C386.614 1168.18 386.779 1168.45 387.047 1168.52L387.283 1167.55ZM394.777 1170.36C395.046 1170.43 395.315 1170.26 395.377 1169.99C395.44 1169.72 395.273 1169.45 395.004 1169.39L394.777 1170.36ZM402.751 1171.17C402.482 1171.11 402.214 1171.27 402.154 1171.54C402.093 1171.81 402.262 1172.08 402.532 1172.14L402.751 1171.17ZM410.316 1173.85C410.586 1173.91 410.852 1173.74 410.91 1173.47C410.969 1173.2 410.797 1172.93 410.527 1172.88L410.316 1173.85ZM418.296 1174.51C418.025 1174.46 417.761 1174.63 417.705 1174.9C417.65 1175.17 417.824 1175.44 418.094 1175.49L418.296 1174.51ZM425.895 1177.06C426.166 1177.11 426.428 1176.94 426.482 1176.67C426.535 1176.4 426.358 1176.13 426.087 1176.08L425.895 1177.06ZM433.905 1177.58C433.633 1177.53 433.372 1177.71 433.321 1177.98C433.271 1178.25 433.45 1178.51 433.721 1178.56L433.905 1177.58ZM441.543 1179.98C441.815 1180.03 442.075 1179.85 442.123 1179.58C442.171 1179.31 441.989 1179.05 441.718 1179L441.543 1179.98ZM449.55 1180.35C449.278 1180.3 449.02 1180.49 448.974 1180.76C448.929 1181.03 449.113 1181.29 449.385 1181.33L449.55 1180.35ZM457.249 1182.61C457.522 1182.65 457.778 1182.47 457.821 1182.19C457.864 1181.92 457.677 1181.66 457.404 1181.62L457.249 1182.61ZM465.257 1182.82C464.983 1182.78 464.729 1182.97 464.689 1183.24C464.649 1183.51 464.838 1183.77 465.111 1183.81L465.257 1182.82ZM472.989 1184.93C473.263 1184.96 473.515 1184.77 473.552 1184.5C473.59 1184.22 473.398 1183.97 473.125 1183.93L472.989 1184.93ZM481.012 1184.97C480.738 1184.94 480.488 1185.13 480.453 1185.41C480.418 1185.68 480.612 1185.93 480.886 1185.97L481.012 1184.97ZM488.782 1186.93C489.057 1186.96 489.305 1186.76 489.337 1186.49C489.369 1186.21 489.172 1185.96 488.898 1185.93L488.782 1186.93ZM496.796 1186.81C496.522 1186.78 496.276 1186.98 496.247 1187.25C496.218 1187.53 496.417 1187.77 496.691 1187.8L496.796 1186.81ZM504.616 1188.6C504.89 1188.62 505.134 1188.42 505.161 1188.15C505.187 1187.87 504.985 1187.63 504.71 1187.6L504.616 1188.6ZM512.623 1188.31C512.348 1188.29 512.106 1188.49 512.083 1188.77C512.06 1189.04 512.264 1189.28 512.539 1189.31L512.623 1188.31ZM520.473 1189.93C520.748 1189.95 520.988 1189.74 521.008 1189.47C521.028 1189.19 520.821 1188.95 520.545 1188.93L520.473 1189.93ZM528.48 1189.47C528.204 1189.45 527.967 1189.66 527.95 1189.94C527.933 1190.21 528.142 1190.45 528.418 1190.47L528.48 1189.47ZM536.362 1190.92C536.638 1190.93 536.872 1190.72 536.886 1190.44C536.9 1190.17 536.688 1189.93 536.412 1189.92L536.362 1190.92ZM544.351 1190.27C544.075 1190.26 543.842 1190.48 543.831 1190.75C543.821 1191.03 544.035 1191.26 544.311 1191.27L544.351 1190.27ZM552.27 1191.54C552.546 1191.55 552.776 1191.33 552.784 1191.05C552.791 1190.78 552.574 1190.55 552.298 1190.54L552.27 1191.54ZM560.241 1190.71C559.965 1190.71 559.738 1190.93 559.733 1191.21C559.729 1191.48 559.949 1191.71 560.225 1191.71L560.241 1190.71ZM568.183 1191.79C568.459 1191.8 568.683 1191.57 568.685 1191.3C568.686 1191.02 568.463 1190.8 568.187 1190.79L568.183 1191.79ZM576.137 1190.78C575.861 1190.78 575.639 1191.01 575.641 1191.28C575.644 1191.56 575.869 1191.78 576.145 1191.78L576.137 1190.78ZM584.103 1191.67C584.379 1191.66 584.598 1191.43 584.592 1191.16C584.587 1190.88 584.358 1190.66 584.082 1190.67L584.103 1191.67ZM592.025 1190.46C591.749 1190.46 591.532 1190.7 591.541 1190.97C591.55 1191.25 591.781 1191.46 592.057 1191.46L592.025 1190.46ZM600.014 1191.14C600.29 1191.13 600.504 1190.9 600.491 1190.62C600.479 1190.35 600.245 1190.13 599.969 1190.15L600.014 1191.14ZM607.904 1189.74C607.629 1189.75 607.418 1189.99 607.434 1190.26C607.45 1190.54 607.687 1190.75 607.962 1190.73L607.904 1189.74ZM615.903 1190.22C616.178 1190.2 616.386 1189.96 616.366 1189.69C616.346 1189.41 616.107 1189.2 615.832 1189.22L615.903 1190.22ZM623.758 1188.61C623.483 1188.63 623.279 1188.87 623.302 1189.15C623.325 1189.42 623.567 1189.63 623.842 1189.6L623.758 1188.61ZM631.814 1188.87C632.089 1188.84 632.289 1188.6 632.261 1188.32C632.233 1188.05 631.988 1187.85 631.713 1187.88L631.814 1188.87ZM639.679 1186.98C639.405 1187.02 639.21 1187.27 639.243 1187.54C639.277 1187.82 639.526 1188.01 639.8 1187.98L639.679 1186.98ZM647.761 1186.93C648.034 1186.89 648.224 1186.63 648.186 1186.36C648.147 1186.09 647.893 1185.9 647.62 1185.94L647.761 1186.93ZM655.537 1184.73C655.265 1184.77 655.079 1185.03 655.124 1185.3C655.168 1185.58 655.425 1185.76 655.697 1185.72L655.537 1184.73ZM663.605 1184.36C663.877 1184.31 664.057 1184.05 664.008 1183.78C663.959 1183.51 663.699 1183.33 663.427 1183.37L663.605 1184.36ZM671.292 1181.87C671.021 1181.93 670.846 1182.19 670.9 1182.46C670.954 1182.73 671.218 1182.91 671.489 1182.85L671.292 1181.87ZM679.349 1181.2C679.619 1181.15 679.79 1180.88 679.731 1180.61C679.672 1180.34 679.405 1180.17 679.135 1180.23L679.349 1181.2ZM686.957 1178.44C686.688 1178.51 686.522 1178.78 686.586 1179.05C686.65 1179.31 686.919 1179.48 687.188 1179.42L686.957 1178.44ZM694.97 1177.5C695.237 1177.43 695.399 1177.16 695.331 1176.89C695.263 1176.63 694.99 1176.47 694.723 1176.53L694.97 1177.5ZM702.464 1174.49C702.198 1174.57 702.041 1174.84 702.113 1175.11C702.186 1175.37 702.46 1175.53 702.727 1175.46L702.464 1174.49ZM710.464 1173.29C710.729 1173.21 710.882 1172.94 710.806 1172.67C710.729 1172.41 710.452 1172.25 710.187 1172.33L710.464 1173.29ZM717.887 1170.04C717.623 1170.12 717.474 1170.4 717.555 1170.67C717.635 1170.93 717.915 1171.08 718.179 1171L717.887 1170.04ZM725.817 1168.61C726.08 1168.53 726.225 1168.25 726.141 1167.98C726.056 1167.72 725.775 1167.58 725.512 1167.66L725.817 1168.61ZM733.12 1165.16C732.858 1165.25 732.717 1165.53 732.805 1165.8C732.893 1166.06 733.176 1166.2 733.438 1166.11L733.12 1165.16ZM741.042 1163.5C741.303 1163.41 741.44 1163.12 741.349 1162.86C741.257 1162.6 740.972 1162.47 740.712 1162.56L741.042 1163.5ZM748.273 1159.85C748.014 1159.95 747.88 1160.23 747.975 1160.49C748.07 1160.75 748.357 1160.89 748.616 1160.79L748.273 1159.85ZM756.117 1158.01C756.375 1157.91 756.505 1157.62 756.407 1157.36C756.31 1157.1 756.021 1156.97 755.763 1157.07L756.117 1158.01ZM763.238 1154.19C762.981 1154.29 762.854 1154.58 762.955 1154.84C763.055 1155.1 763.345 1155.22 763.603 1155.12L763.238 1154.19ZM771.075 1152.15C771.331 1152.05 771.454 1151.75 771.351 1151.5C771.247 1151.24 770.956 1151.12 770.7 1151.22L771.075 1152.15ZM778.127 1148.17C777.872 1148.28 777.751 1148.57 777.857 1148.83C777.963 1149.08 778.256 1149.2 778.511 1149.1L778.127 1148.17ZM785.883 1145.98C786.137 1145.88 786.255 1145.58 786.146 1145.33C786.038 1145.07 785.744 1144.96 785.49 1145.07L785.883 1145.98ZM792.842 1141.88C792.589 1141.99 792.474 1142.28 792.585 1142.54C792.696 1142.79 792.991 1142.9 793.244 1142.79L792.842 1141.88ZM800.593 1139.53C800.845 1139.41 800.957 1139.12 800.844 1138.87C800.731 1138.61 800.435 1138.5 800.183 1138.62L800.593 1139.53ZM807.488 1135.29C807.237 1135.41 807.128 1135.71 807.243 1135.96C807.358 1136.21 807.655 1136.32 807.906 1136.2L807.488 1135.29ZM815.165 1132.83C815.415 1132.71 815.523 1132.41 815.406 1132.16C815.288 1131.91 814.991 1131.81 814.741 1131.92L815.165 1132.83ZM821.984 1128.49C821.735 1128.61 821.63 1128.91 821.749 1129.16C821.868 1129.41 822.166 1129.51 822.415 1129.39L821.984 1128.49ZM829.657 1125.9C829.905 1125.78 830.009 1125.48 829.888 1125.23C829.767 1124.98 829.468 1124.88 829.219 1125L829.657 1125.9ZM836.424 1121.47C836.176 1121.59 836.075 1121.89 836.197 1122.14C836.32 1122.38 836.619 1122.48 836.867 1122.36L836.424 1121.47ZM844.033 1118.79C844.28 1118.67 844.379 1118.37 844.255 1118.12C844.132 1117.87 843.831 1117.77 843.584 1117.9L844.033 1118.79ZM850.739 1114.28C850.493 1114.4 850.395 1114.71 850.52 1114.95C850.645 1115.2 850.946 1115.3 851.192 1115.17L850.739 1114.28ZM858.346 1111.51C858.591 1111.38 858.687 1111.08 858.561 1110.83C858.434 1110.59 858.133 1110.49 857.887 1110.62L858.346 1111.51ZM865.013 1106.92C864.768 1107.05 864.673 1107.35 864.8 1107.6C864.928 1107.84 865.23 1107.94 865.475 1107.81L865.013 1106.92ZM872.57 1104.09C872.814 1103.97 872.908 1103.66 872.779 1103.42C872.65 1103.17 872.348 1103.08 872.104 1103.21L872.57 1104.09ZM879.191 1099.46C878.947 1099.59 878.854 1099.89 878.984 1100.14C879.114 1100.38 879.416 1100.47 879.66 1100.34L879.191 1099.46ZM886.747 1096.56C886.99 1096.43 887.082 1096.13 886.952 1095.88C886.821 1095.64 886.518 1095.55 886.275 1095.68L886.747 1096.56ZM893.344 1091.88C893.101 1092.01 893.01 1092.31 893.142 1092.56C893.273 1092.8 893.576 1092.89 893.819 1092.76L893.344 1091.88ZM900.866 1088.95C901.109 1088.81 901.199 1088.51 901.067 1088.27C900.936 1088.02 900.632 1087.93 900.389 1088.07L900.866 1088.95ZM907.433 1084.23C907.191 1084.37 907.101 1084.67 907.234 1084.91C907.366 1085.15 907.67 1085.24 907.912 1085.11L907.433 1084.23ZM914.956 1081.26C915.198 1081.13 915.287 1080.82 915.154 1080.58C915.022 1080.34 914.718 1080.25 914.476 1080.38L914.956 1081.26ZM921.512 1076.52C921.27 1076.66 921.182 1076.96 921.315 1077.2C921.448 1077.44 921.752 1077.53 921.994 1077.4L921.512 1076.52ZM929.019 1073.54C929.261 1073.4 929.349 1073.1 929.215 1072.86C929.082 1072.61 928.778 1072.53 928.536 1072.66L929.019 1073.54ZM935.561 1068.79C935.319 1068.92 935.231 1069.23 935.364 1069.47C935.498 1069.71 935.802 1069.8 936.044 1069.67L935.561 1068.79ZM943.069 1065.79C943.311 1065.66 943.399 1065.35 943.266 1065.11C943.133 1064.87 942.828 1064.78 942.587 1064.92L943.069 1065.79ZM949.613 1061.04C949.372 1061.17 949.284 1061.48 949.417 1061.72C949.55 1061.96 949.854 1062.05 950.096 1061.92L949.613 1061.04ZM957.123 1058.05C957.365 1057.91 957.453 1057.61 957.32 1057.37C957.187 1057.13 956.883 1057.04 956.641 1057.17L957.123 1058.05ZM963.671 1053.31C963.429 1053.44 963.34 1053.74 963.473 1053.98C963.606 1054.23 963.91 1054.32 964.152 1054.18L963.671 1053.31ZM971.185 1050.33C971.427 1050.2 971.516 1049.89 971.383 1049.65C971.251 1049.41 970.947 1049.32 970.705 1049.45L971.185 1050.33ZM977.744 1045.61C977.502 1045.74 977.412 1046.04 977.544 1046.29C977.677 1046.53 977.98 1046.62 978.223 1046.49L977.744 1045.61ZM985.276 1042.65C985.519 1042.52 985.609 1042.22 985.478 1041.98C985.346 1041.73 985.043 1041.64 984.8 1041.77L985.276 1042.65ZM991.86 1037.96C991.617 1038.09 991.526 1038.39 991.657 1038.64C991.788 1038.88 992.091 1038.97 992.334 1038.84L991.86 1037.96ZM999.398 1035.05C999.641 1034.92 999.733 1034.62 999.603 1034.38C999.473 1034.13 999.17 1034.04 998.926 1034.17L999.398 1035.05ZM1006 1030.4C1005.76 1030.53 1005.66 1030.84 1005.79 1031.08C1005.92 1031.32 1006.23 1031.42 1006.47 1031.29L1006 1030.4ZM1013.57 1027.54C1013.82 1027.41 1013.91 1027.11 1013.78 1026.86C1013.66 1026.62 1013.35 1026.52 1013.11 1026.65L1013.57 1027.54ZM1020.22 1022.94C1019.98 1023.06 1019.88 1023.36 1020.01 1023.61C1020.14 1023.85 1020.44 1023.95 1020.69 1023.82L1020.22 1022.94ZM1027.8 1020.14C1028.05 1020.02 1028.15 1019.72 1028.02 1019.47C1027.89 1019.22 1027.59 1019.13 1027.35 1019.25L1027.8 1020.14ZM1034.48 1015.61C1034.23 1015.74 1034.14 1016.04 1034.26 1016.28C1034.39 1016.53 1034.69 1016.63 1034.93 1016.5L1034.48 1015.61ZM1042.11 1012.89C1042.36 1012.76 1042.46 1012.46 1042.33 1012.22C1042.21 1011.97 1041.91 1011.87 1041.66 1011.99L1042.11 1012.89ZM1048.85 1008.42C1048.61 1008.54 1048.5 1008.84 1048.63 1009.09C1048.75 1009.34 1049.05 1009.44 1049.3 1009.32L1048.85 1008.42ZM1056.49 1005.8C1056.74 1005.68 1056.84 1005.38 1056.72 1005.13C1056.6 1004.88 1056.3 1004.78 1056.06 1004.9L1056.49 1005.8ZM1063.27 1001.43C1063.02 1001.55 1062.92 1001.85 1063.04 1002.09C1063.15 1002.34 1063.45 1002.45 1063.7 1002.33L1063.27 1001.43ZM1070.97 998.899C1071.22 998.782 1071.33 998.484 1071.21 998.234C1071.1 997.984 1070.8 997.876 1070.55 997.993L1070.97 998.899ZM1077.84 994.619C1077.59 994.734 1077.48 995.031 1077.59 995.282C1077.71 995.533 1078 995.643 1078.25 995.528L1077.84 994.619ZM1085.55 992.222C1085.8 992.109 1085.91 991.814 1085.8 991.562C1085.69 991.31 1085.39 991.197 1085.14 991.31L1085.55 992.222ZM1092.46 988.068C1092.2 988.178 1092.09 988.473 1092.2 988.726C1092.31 988.979 1092.61 989.094 1092.86 988.984L1092.46 988.068ZM1100.24 985.793C1100.49 985.685 1100.61 985.391 1100.5 985.137C1100.39 984.883 1100.1 984.765 1099.85 984.874L1100.24 985.793ZM1107.25 981.756C1106.99 981.862 1106.87 982.155 1106.98 982.41C1107.09 982.665 1107.38 982.786 1107.63 982.68L1107.25 981.756ZM1115.04 979.647C1115.3 979.544 1115.42 979.252 1115.32 978.996C1115.22 978.74 1114.92 978.616 1114.67 978.719L1115.04 979.647ZM1122.11 975.764C1121.85 975.864 1121.73 976.154 1121.83 976.412C1121.93 976.669 1122.22 976.796 1122.47 976.695L1122.11 975.764ZM1129.98 973.81C1130.23 973.713 1130.36 973.424 1130.27 973.166C1130.17 972.908 1129.88 972.777 1129.62 972.875L1129.98 973.81ZM1137.15 970.079C1136.89 970.173 1136.76 970.46 1136.85 970.72C1136.95 970.979 1137.24 971.113 1137.5 971.018L1137.15 970.079ZM1145.03 968.323C1145.29 968.231 1145.43 967.946 1145.34 967.685C1145.25 967.425 1144.96 967.288 1144.7 967.379L1145.03 968.323ZM1152.28 964.776C1152.02 964.864 1151.88 965.147 1151.96 965.409C1152.05 965.671 1152.34 965.811 1152.6 965.723L1152.28 964.776ZM1160.23 963.213C1160.49 963.129 1160.64 962.847 1160.55 962.584C1160.47 962.321 1160.18 962.177 1159.92 962.261L1160.23 963.213ZM1167.58 959.856C1167.32 959.937 1167.17 960.216 1167.25 960.48C1167.33 960.744 1167.61 960.893 1167.88 960.812L1167.58 959.856ZM1175.55 958.523C1175.81 958.446 1175.96 958.169 1175.89 957.904C1175.81 957.638 1175.53 957.486 1175.27 957.563L1175.55 958.523ZM1182.99 955.383C1182.72 955.456 1182.56 955.731 1182.64 955.998C1182.71 956.264 1182.98 956.421 1183.25 956.347L1182.99 955.383ZM1191 954.285C1191.27 954.216 1191.43 953.943 1191.36 953.676C1191.29 953.408 1191.02 953.247 1190.75 953.316L1191 954.285ZM1198.55 951.375C1198.28 951.439 1198.11 951.709 1198.18 951.978C1198.24 952.246 1198.51 952.411 1198.78 952.347L1198.55 951.375ZM1206.58 950.538C1206.85 950.478 1207.02 950.211 1206.96 949.941C1206.9 949.671 1206.63 949.502 1206.36 949.562L1206.58 950.538ZM1214.21 947.881C1213.94 947.936 1213.76 948.201 1213.82 948.471C1213.87 948.742 1214.14 948.916 1214.41 948.86L1214.21 947.881ZM1222.27 947.318C1222.54 947.267 1222.72 947.006 1222.67 946.734C1222.62 946.463 1222.36 946.284 1222.09 946.335L1222.27 947.318ZM1229.99 944.93C1229.72 944.976 1229.54 945.234 1229.58 945.506C1229.63 945.778 1229.89 945.962 1230.16 945.916L1229.99 944.93ZM1238.07 944.659C1238.35 944.618 1238.53 944.364 1238.49 944.09C1238.45 943.817 1238.2 943.629 1237.93 943.67L1238.07 944.659ZM1245.87 942.56C1245.6 942.596 1245.41 942.846 1245.44 943.12C1245.48 943.394 1245.73 943.587 1246 943.552L1245.87 942.56ZM1253.95 942.597C1254.22 942.567 1254.42 942.32 1254.39 942.046C1254.36 941.771 1254.11 941.573 1253.84 941.603L1253.95 942.597ZM1261.83 940.802C1261.55 940.827 1261.35 941.07 1261.37 941.345C1261.4 941.62 1261.64 941.823 1261.92 941.798L1261.83 940.802ZM1269.92 941.158C1270.19 941.139 1270.4 940.9 1270.38 940.624C1270.36 940.349 1270.12 940.141 1269.85 940.16L1269.92 941.158ZM1277.85 939.684C1277.57 939.697 1277.36 939.932 1277.37 940.208C1277.39 940.484 1277.62 940.696 1277.9 940.683L1277.85 939.684ZM1285.88 940.373C1286.16 940.365 1286.37 940.135 1286.37 939.859C1286.36 939.583 1286.13 939.365 1285.85 939.373L1285.88 940.373ZM1293.89 939.229C1293.61 939.231 1293.39 939.457 1293.39 939.733C1293.39 940.009 1293.62 940.231 1293.9 940.229L1293.89 939.229ZM1301.94 940.257C1302.22 940.261 1302.44 940.04 1302.45 939.764C1302.45 939.488 1302.23 939.261 1301.95 939.257L1301.94 940.257ZM1309.95 939.456C1309.67 939.446 1309.44 939.662 1309.43 939.938C1309.42 940.214 1309.64 940.446 1309.91 940.455L1309.95 939.456ZM1317.88 940.825C1318.16 940.841 1318.4 940.631 1318.41 940.355C1318.43 940.079 1318.22 939.843 1317.94 939.827L1317.88 940.825ZM1325.96 940.374C1325.69 940.352 1325.45 940.558 1325.43 940.833C1325.41 941.109 1325.61 941.349 1325.89 941.371L1325.96 940.374ZM1333.92 942.096C1334.19 942.124 1334.44 941.924 1334.47 941.649C1334.5 941.374 1334.3 941.129 1334.02 941.101L1333.92 942.096ZM1341.95 941.992C1341.68 941.958 1341.43 942.153 1341.39 942.427C1341.36 942.701 1341.56 942.95 1341.83 942.984L1341.95 941.992ZM1349.72 944.044C1350 944.084 1350.25 943.895 1350.29 943.621C1350.33 943.348 1350.14 943.094 1349.87 943.055L1349.72 944.044ZM1357.81 944.298C1357.54 944.253 1357.28 944.437 1357.24 944.709C1357.19 944.981 1357.38 945.239 1357.65 945.285L1357.81 944.298ZM1365.61 946.708C1365.88 946.76 1366.14 946.582 1366.19 946.31C1366.24 946.039 1366.07 945.777 1365.79 945.726L1365.61 946.708ZM1373.62 947.301C1373.35 947.243 1373.09 947.416 1373.03 947.686C1372.97 947.956 1373.14 948.222 1373.41 948.279L1373.62 947.301ZM1381.16 950.01C1381.43 950.073 1381.7 949.907 1381.77 949.638C1381.83 949.369 1381.66 949.1 1381.39 949.037L1381.16 950.01ZM1389.2 950.953C1388.93 950.885 1388.66 951.046 1388.59 951.313C1388.52 951.581 1388.68 951.853 1388.95 951.922L1389.2 950.953ZM1396.76 954.016C1397.03 954.091 1397.31 953.935 1397.38 953.669C1397.45 953.403 1397.3 953.128 1397.03 953.053L1396.76 954.016ZM1404.75 955.293C1404.48 955.214 1404.2 955.363 1404.12 955.628C1404.05 955.892 1404.19 956.171 1404.46 956.251L1404.75 955.293ZM1412 958.607C1412.27 958.692 1412.55 958.548 1412.63 958.286C1412.72 958.023 1412.57 957.741 1412.31 957.656L1412 958.607ZM1419.91 960.195C1419.65 960.104 1419.36 960.243 1419.27 960.504C1419.18 960.765 1419.32 961.05 1419.58 961.14L1419.91 960.195ZM1427.19 963.85C1427.45 963.946 1427.73 963.813 1427.83 963.554C1427.93 963.294 1427.79 963.007 1427.53 962.912L1427.19 963.85ZM1435.17 965.804C1434.92 965.703 1434.63 965.831 1434.53 966.088C1434.43 966.345 1434.55 966.635 1434.81 966.736L1435.17 965.804ZM1442.1 969.65C1442.35 969.755 1442.64 969.633 1442.75 969.378C1442.85 969.122 1442.73 968.83 1442.48 968.725L1442.1 969.65ZM1449.81 971.815C1449.55 971.705 1449.26 971.822 1449.15 972.076C1449.04 972.329 1449.16 972.623 1449.41 972.733L1449.81 971.815ZM1456.75 975.985C1457 976.099 1457.3 975.988 1457.41 975.736C1457.53 975.485 1457.42 975.188 1457.17 975.074L1456.75 975.985ZM1464.56 978.506C1464.31 978.387 1464.01 978.494 1463.89 978.743C1463.77 978.992 1463.88 979.291 1464.13 979.409L1464.56 978.506ZM1471.36 982.925C1471.61 983.048 1471.91 982.947 1472.04 982.699C1472.16 982.452 1472.06 982.152 1471.81 982.029L1471.36 982.925ZM1478.83 985.587C1478.59 985.46 1478.29 985.556 1478.16 985.801C1478.03 986.047 1478.13 986.348 1478.37 986.475L1478.83 985.587ZM1485.41 990.184C1485.65 990.315 1485.96 990.223 1486.09 989.98C1486.22 989.737 1486.13 989.434 1485.88 989.303L1485.41 990.184ZM1492.96 993.18C1492.72 993.045 1492.42 993.132 1492.28 993.373C1492.15 993.614 1492.23 993.919 1492.47 994.053L1492.96 993.18ZM1499.57 998.085C1499.81 998.223 1500.11 998.141 1500.25 997.902C1500.39 997.663 1500.31 997.357 1500.07 997.219L1499.57 998.085ZM1507 1001.3C1506.76 1001.16 1506.45 1001.23 1506.31 1001.47C1506.17 1001.71 1506.25 1002.01 1506.48 1002.16L1507 1001.3ZM1513.19 1006.24C1513.42 1006.38 1513.73 1006.31 1513.87 1006.07C1514.02 1005.84 1513.95 1005.53 1513.71 1005.39L1513.19 1006.24ZM1520.45 1009.62C1520.22 1009.47 1519.91 1009.54 1519.76 1009.77C1519.61 1010 1519.68 1010.31 1519.91 1010.46L1520.45 1009.62ZM1526.67 1014.84C1526.9 1014.99 1527.21 1014.92 1527.36 1014.69C1527.51 1014.46 1527.45 1014.15 1527.21 1014L1526.67 1014.84ZM1534.01 1018.53C1533.78 1018.38 1533.47 1018.44 1533.31 1018.67C1533.16 1018.9 1533.22 1019.21 1533.45 1019.36L1534.01 1018.53ZM1540.16 1023.98C1540.39 1024.13 1540.7 1024.08 1540.86 1023.85C1541.01 1023.62 1540.96 1023.31 1540.73 1023.16L1540.16 1023.98ZM1547.12 1027.66C1546.89 1027.5 1546.58 1027.55 1546.42 1027.78C1546.26 1028 1546.31 1028.32 1546.54 1028.48L1547.12 1027.66ZM1552.93 1033.11C1553.16 1033.28 1553.47 1033.23 1553.63 1033.01C1553.8 1032.78 1553.75 1032.47 1553.53 1032.31L1552.93 1033.11ZM1559.96 1037.09C1559.74 1036.92 1559.42 1036.96 1559.26 1037.18C1559.09 1037.41 1559.14 1037.72 1559.36 1037.88L1559.96 1037.09ZM1565.8 1042.79C1566.02 1042.96 1566.34 1042.92 1566.51 1042.7C1566.67 1042.48 1566.63 1042.17 1566.41 1042L1565.8 1042.79ZM1572.89 1047.06C1572.68 1046.89 1572.36 1046.92 1572.19 1047.14C1572.02 1047.36 1572.06 1047.67 1572.28 1047.84L1572.89 1047.06ZM1578.52 1052.82C1578.73 1053 1579.05 1052.96 1579.22 1052.75C1579.39 1052.53 1579.36 1052.22 1579.14 1052.05L1578.52 1052.82ZM1585.22 1057C1585 1056.82 1584.69 1056.85 1584.51 1057.07C1584.34 1057.28 1584.37 1057.6 1584.58 1057.77L1585.22 1057ZM1590.67 1062.84C1590.88 1063.02 1591.19 1062.99 1591.37 1062.78C1591.55 1062.57 1591.52 1062.25 1591.31 1062.08L1590.67 1062.84ZM1597.42 1067.28C1597.21 1067.1 1596.9 1067.12 1596.72 1067.33C1596.54 1067.54 1596.56 1067.86 1596.77 1068.04L1597.42 1067.28ZM1602.9 1073.36C1603.11 1073.54 1603.43 1073.52 1603.61 1073.31C1603.79 1073.1 1603.77 1072.79 1603.56 1072.6L1602.9 1073.36ZM1609.72 1078.06C1609.51 1077.87 1609.2 1077.89 1609.01 1078.1C1608.83 1078.3 1608.85 1078.62 1609.05 1078.8L1609.72 1078.06ZM1615.2 1084.33C1615.41 1084.51 1615.72 1084.5 1615.91 1084.29C1616.09 1084.09 1616.07 1083.77 1615.87 1083.58L1615.2 1084.33ZM1621.97 1089.03C1621.77 1088.85 1621.45 1088.87 1621.27 1089.07C1621.08 1089.28 1621.1 1089.59 1621.31 1089.78L1621.97 1089.03ZM1627.39 1095.14C1627.6 1095.32 1627.92 1095.3 1628.1 1095.09C1628.28 1094.88 1628.26 1094.57 1628.05 1094.38L1627.39 1095.14ZM1634.1 1099.65C1633.89 1099.47 1633.58 1099.49 1633.4 1099.7C1633.22 1099.91 1633.24 1100.22 1633.45 1100.4L1634.1 1099.65ZM1639.48 1105.58C1639.69 1105.76 1640 1105.74 1640.18 1105.53C1640.36 1105.32 1640.34 1105 1640.13 1104.82L1639.48 1105.58ZM1646.12 1109.91C1645.91 1109.73 1645.59 1109.76 1645.42 1109.97C1645.24 1110.18 1645.27 1110.49 1645.48 1110.67L1646.12 1109.91ZM1651.6 1115.79C1651.81 1115.97 1652.13 1115.94 1652.3 1115.73C1652.48 1115.52 1652.45 1115.2 1652.24 1115.03L1651.6 1115.79ZM1658.55 1120.24C1658.34 1120.06 1658.02 1120.09 1657.85 1120.31C1657.67 1120.52 1657.7 1120.83 1657.92 1121.01L1658.55 1120.24ZM1664.2 1126.12C1664.42 1126.3 1664.73 1126.26 1664.91 1126.05C1665.08 1125.83 1665.05 1125.52 1664.83 1125.35L1664.2 1126.12ZM1671.08 1130.36C1670.87 1130.19 1670.55 1130.22 1670.38 1130.44C1670.21 1130.65 1670.25 1130.97 1670.46 1131.14L1671.08 1130.36ZM1676.69 1136.06C1676.91 1136.23 1677.22 1136.19 1677.39 1135.98C1677.56 1135.76 1677.52 1135.44 1677.31 1135.27L1676.69 1136.06ZM1683.5 1140.09C1683.28 1139.92 1682.97 1139.96 1682.8 1140.18C1682.63 1140.4 1682.67 1140.71 1682.89 1140.88L1683.5 1140.09ZM1689.31 1145.8C1689.53 1145.97 1689.84 1145.92 1690.01 1145.7C1690.17 1145.48 1690.13 1145.17 1689.91 1145L1689.31 1145.8ZM1696.42 1149.91C1696.2 1149.75 1695.89 1149.79 1695.72 1150.01C1695.56 1150.23 1695.6 1150.55 1695.83 1150.71L1696.42 1149.91ZM1702.31 1155.52C1702.53 1155.68 1702.85 1155.63 1703.01 1155.41C1703.17 1155.19 1703.13 1154.87 1702.9 1154.71L1702.31 1155.52ZM1709.35 1159.41C1709.13 1159.24 1708.81 1159.29 1708.65 1159.52C1708.49 1159.74 1708.54 1160.05 1708.77 1160.22L1709.35 1159.41ZM1715.19 1164.81C1715.41 1164.97 1715.72 1164.92 1715.88 1164.69C1716.04 1164.46 1715.99 1164.15 1715.76 1163.99L1715.19 1164.81ZM1722.24 1168.54C1722.02 1168.39 1721.71 1168.44 1721.55 1168.67C1721.39 1168.9 1721.45 1169.21 1721.67 1169.36L1722.24 1168.54ZM1728.42 1174.02C1728.65 1174.17 1728.96 1174.11 1729.11 1173.88C1729.27 1173.66 1729.21 1173.34 1728.98 1173.19L1728.42 1174.02ZM1735.69 1177.72C1735.46 1177.56 1735.15 1177.63 1734.99 1177.86C1734.84 1178.08 1734.9 1178.4 1735.13 1178.55L1735.69 1177.72ZM1741.81 1182.97C1742.04 1183.12 1742.35 1183.05 1742.5 1182.82C1742.65 1182.59 1742.59 1182.28 1742.35 1182.13L1741.81 1182.97ZM1748.98 1186.43C1748.75 1186.28 1748.44 1186.35 1748.29 1186.58C1748.14 1186.81 1748.21 1187.12 1748.44 1187.27L1748.98 1186.43ZM1755.11 1191.5C1755.35 1191.65 1755.65 1191.57 1755.8 1191.34C1755.95 1191.11 1755.88 1190.8 1755.64 1190.65L1755.11 1191.5ZM1762.6 1194.97C1762.37 1194.82 1762.06 1194.9 1761.91 1195.13C1761.77 1195.37 1761.84 1195.67 1762.08 1195.82L1762.6 1194.97ZM1769.01 1200.01C1769.24 1200.15 1769.55 1200.08 1769.69 1199.84C1769.83 1199.6 1769.76 1199.3 1769.52 1199.15L1769.01 1200.01ZM1776.4 1203.22C1776.16 1203.08 1775.85 1203.16 1775.71 1203.4C1775.57 1203.64 1775.65 1203.94 1775.89 1204.08L1776.4 1203.22ZM1782.74 1208.03C1782.98 1208.16 1783.28 1208.08 1783.42 1207.84C1783.56 1207.6 1783.47 1207.29 1783.23 1207.16L1782.74 1208.03ZM1790.18 1211.05C1789.94 1210.92 1789.63 1211.01 1789.5 1211.25C1789.36 1211.49 1789.45 1211.79 1789.69 1211.93L1790.18 1211.05ZM1796.86 1215.84C1797.11 1215.97 1797.41 1215.88 1797.54 1215.64C1797.67 1215.39 1797.58 1215.09 1797.34 1214.96L1796.86 1215.84ZM1804.45 1218.73C1804.21 1218.6 1803.91 1218.7 1803.78 1218.94C1803.65 1219.19 1803.75 1219.49 1803.99 1219.62L1804.45 1218.73ZM1811.07 1223.26C1811.32 1223.39 1811.62 1223.29 1811.74 1223.04C1811.87 1222.79 1811.77 1222.49 1811.52 1222.37L1811.07 1223.26ZM1818.55 1225.87C1818.3 1225.75 1818 1225.85 1817.88 1226.1C1817.76 1226.35 1817.86 1226.65 1818.11 1226.77L1818.55 1225.87ZM1825.45 1230.31C1825.7 1230.43 1825.99 1230.32 1826.11 1230.07C1826.23 1229.82 1826.12 1229.52 1825.87 1229.4L1825.45 1230.31ZM1833.21 1232.82C1832.96 1232.71 1832.67 1232.82 1832.55 1233.07C1832.44 1233.32 1832.55 1233.62 1832.8 1233.73L1833.21 1232.82ZM1840.1 1237.01C1840.35 1237.12 1840.65 1237.01 1840.76 1236.75C1840.87 1236.5 1840.76 1236.21 1840.5 1236.09L1840.1 1237.01ZM1847.75 1239.22C1847.49 1239.12 1847.2 1239.23 1847.09 1239.49C1846.98 1239.74 1847.1 1240.04 1847.36 1240.14L1847.75 1239.22ZM1854.79 1243.23C1855.04 1243.33 1855.33 1243.21 1855.44 1242.95C1855.54 1242.7 1855.42 1242.4 1855.16 1242.3L1854.79 1243.23ZM1862.7 1245.3C1862.45 1245.2 1862.16 1245.32 1862.06 1245.58C1861.96 1245.84 1862.08 1246.13 1862.34 1246.23L1862.7 1245.3ZM1869.84 1249.07C1870.1 1249.17 1870.39 1249.04 1870.48 1248.78C1870.58 1248.52 1870.45 1248.23 1870.19 1248.14L1869.84 1249.07ZM1877.62 1250.82C1877.36 1250.73 1877.08 1250.87 1876.99 1251.13C1876.89 1251.39 1877.03 1251.67 1877.29 1251.77L1877.62 1250.82ZM1884.88 1254.37C1885.15 1254.46 1885.43 1254.32 1885.52 1254.06C1885.6 1253.79 1885.46 1253.51 1885.2 1253.42L1884.88 1254.37ZM1892.91 1255.93C1892.65 1255.84 1892.37 1255.99 1892.28 1256.25C1892.2 1256.52 1892.35 1256.8 1892.61 1256.88L1892.91 1255.93ZM1900.28 1259.22C1900.54 1259.3 1900.82 1259.15 1900.9 1258.89C1900.98 1258.62 1900.83 1258.34 1900.56 1258.26L1900.28 1259.22ZM1908.16 1260.44C1907.89 1260.37 1907.62 1260.52 1907.54 1260.79C1907.47 1261.06 1907.62 1261.33 1907.89 1261.4L1908.16 1260.44ZM1915.69 1263.49C1915.95 1263.56 1916.23 1263.4 1916.3 1263.13C1916.36 1262.86 1916.2 1262.59 1915.94 1262.52L1915.69 1263.49ZM1923.78 1264.46C1923.51 1264.4 1923.24 1264.56 1923.17 1264.83C1923.11 1265.1 1923.28 1265.37 1923.55 1265.43L1923.78 1264.46ZM1931.34 1267.21C1931.61 1267.27 1931.88 1267.1 1931.94 1266.83C1932 1266.56 1931.83 1266.29 1931.56 1266.23L1931.34 1267.21ZM1939.27 1267.83C1939 1267.78 1938.74 1267.96 1938.69 1268.23C1938.63 1268.5 1938.81 1268.76 1939.08 1268.81L1939.27 1267.83ZM1947.09 1270.31C1947.36 1270.36 1947.62 1270.18 1947.67 1269.91C1947.71 1269.63 1947.53 1269.38 1947.26 1269.33L1947.09 1270.31ZM1955.19 1270.64C1954.91 1270.6 1954.66 1270.79 1954.61 1271.06C1954.57 1271.33 1954.76 1271.59 1955.03 1271.63L1955.19 1270.64ZM1962.91 1272.78C1963.19 1272.81 1963.44 1272.62 1963.47 1272.35C1963.51 1272.07 1963.32 1271.82 1963.05 1271.79L1962.91 1272.78ZM1970.98 1272.77C1970.71 1272.74 1970.46 1272.94 1970.43 1273.21C1970.4 1273.49 1970.59 1273.73 1970.87 1273.76L1970.98 1272.77ZM1978.92 1274.59C1979.19 1274.62 1979.44 1274.41 1979.46 1274.14C1979.49 1273.86 1979.28 1273.62 1979.01 1273.59L1978.92 1274.59ZM1986.97 1274.24C1986.69 1274.22 1986.46 1274.43 1986.44 1274.7C1986.42 1274.98 1986.62 1275.22 1986.9 1275.24L1986.97 1274.24ZM1994.83 1275.7C1995.11 1275.72 1995.34 1275.5 1995.36 1275.23C1995.37 1274.95 1995.16 1274.72 1994.88 1274.71L1994.83 1275.7ZM2002.97 1275C2002.69 1275 2002.46 1275.21 2002.45 1275.49C2002.45 1275.77 2002.66 1276 2002.94 1276L2002.97 1275ZM2010.97 1276.12C2011.25 1276.12 2011.47 1275.9 2011.48 1275.62C2011.48 1275.34 2011.25 1275.12 2010.98 1275.12L2010.97 1276.12ZM2018.92 1275.05C2018.64 1275.06 2018.42 1275.29 2018.43 1275.56C2018.43 1275.84 2018.66 1276.06 2018.94 1276.05L2018.92 1275.05ZM2027 1275.81C2027.28 1275.79 2027.49 1275.56 2027.48 1275.28C2027.47 1275.01 2027.24 1274.79 2026.96 1274.81L2027 1275.81ZM2034.98 1274.38C2034.7 1274.39 2034.49 1274.63 2034.51 1274.91C2034.53 1275.18 2034.77 1275.39 2035.04 1275.37L2034.98 1274.38ZM2043.01 1274.76C2043.28 1274.74 2043.49 1274.5 2043.46 1274.22C2043.44 1273.94 2043.19 1273.74 2042.92 1273.77L2043.01 1274.76ZM2050.89 1272.97C2050.62 1273 2050.42 1273.25 2050.45 1273.52C2050.48 1273.8 2050.73 1273.99 2051.01 1273.96L2050.89 1272.97ZM2059 1272.98C2059.27 1272.94 2059.46 1272.69 2059.43 1272.42C2059.39 1272.14 2059.14 1271.95 2058.87 1271.99L2059 1272.98ZM2066.76 1270.83C2066.49 1270.87 2066.3 1271.13 2066.35 1271.4C2066.39 1271.67 2066.65 1271.86 2066.92 1271.82L2066.76 1270.83ZM2074.83 1270.47C2075.1 1270.42 2075.28 1270.16 2075.23 1269.89C2075.18 1269.62 2074.92 1269.44 2074.65 1269.49L2074.83 1270.47ZM2082.53 1267.96C2082.26 1268.02 2082.09 1268.28 2082.15 1268.55C2082.2 1268.82 2082.47 1269 2082.74 1268.94L2082.53 1267.96ZM2090.57 1267.24C2090.84 1267.18 2091 1266.91 2090.94 1266.64C2090.88 1266.37 2090.61 1266.2 2090.34 1266.27L2090.57 1267.24ZM2098.12 1264.39C2097.85 1264.46 2097.69 1264.73 2097.76 1265C2097.83 1265.27 2098.1 1265.43 2098.37 1265.36L2098.12 1264.39ZM2106.15 1263.31C2106.41 1263.23 2106.57 1262.96 2106.5 1262.69C2106.42 1262.43 2106.15 1262.27 2105.88 1262.34L2106.15 1263.31ZM2113.57 1260.13C2113.3 1260.21 2113.15 1260.49 2113.23 1260.75C2113.31 1261.02 2113.59 1261.17 2113.85 1261.09L2113.57 1260.13ZM2121.51 1258.7C2121.77 1258.62 2121.92 1258.34 2121.83 1258.07C2121.75 1257.81 2121.47 1257.67 2121.2 1257.75L2121.51 1258.7ZM2128.81 1255.21C2128.55 1255.3 2128.41 1255.58 2128.5 1255.84C2128.59 1256.1 2128.88 1256.24 2129.14 1256.15L2128.81 1255.21ZM2136.69 1253.44C2136.95 1253.35 2137.08 1253.06 2136.99 1252.8C2136.89 1252.54 2136.6 1252.41 2136.34 1252.51L2136.69 1253.44ZM2143.82 1249.65C2143.56 1249.76 2143.44 1250.05 2143.54 1250.3C2143.64 1250.56 2143.93 1250.69 2144.19 1250.58L2143.82 1249.65ZM2151.64 1247.57C2151.89 1247.46 2152.01 1247.17 2151.91 1246.92C2151.8 1246.66 2151.51 1246.54 2151.25 1246.65L2151.64 1247.57ZM2158.62 1243.5C2158.36 1243.61 2158.25 1243.91 2158.36 1244.16C2158.47 1244.41 2158.76 1244.53 2159.02 1244.41L2158.62 1243.5ZM2166.33 1241.12C2166.59 1241 2166.69 1240.71 2166.58 1240.46C2166.46 1240.2 2166.17 1240.1 2165.92 1240.21L2166.33 1241.12ZM2173.16 1236.78C2172.91 1236.9 2172.81 1237.2 2172.93 1237.45C2173.05 1237.7 2173.35 1237.8 2173.6 1237.68L2173.16 1236.78ZM2180.79 1234.12C2181.03 1233.99 2181.13 1233.69 2181.01 1233.45C2180.88 1233.2 2180.58 1233.1 2180.34 1233.23L2180.79 1234.12ZM2187.45 1229.54C2187.2 1229.67 2187.11 1229.98 2187.24 1230.22C2187.37 1230.46 2187.67 1230.56 2187.92 1230.43L2187.45 1229.54ZM2194.98 1226.61C2195.22 1226.48 2195.31 1226.18 2195.18 1225.93C2195.05 1225.69 2194.74 1225.6 2194.5 1225.74L2194.98 1226.61ZM2201.48 1221.82C2201.24 1221.95 2201.16 1222.26 2201.3 1222.5C2201.44 1222.74 2201.74 1222.82 2201.98 1222.68L2201.48 1221.82ZM2208.92 1218.64C2209.15 1218.5 2209.23 1218.19 2209.09 1217.95C2208.95 1217.72 2208.64 1217.64 2208.4 1217.78L2208.92 1218.64ZM2215.26 1213.64C2215.03 1213.78 2214.95 1214.09 2215.1 1214.32C2215.24 1214.56 2215.55 1214.63 2215.79 1214.49L2215.26 1213.64ZM2222.59 1210.23C2222.83 1210.08 2222.89 1209.78 2222.75 1209.54C2222.6 1209.31 2222.29 1209.24 2222.06 1209.39L2222.59 1210.23ZM2228.79 1205.04C2228.56 1205.19 2228.49 1205.5 2228.64 1205.73C2228.8 1205.97 2229.11 1206.03 2229.34 1205.88L2228.79 1205.04ZM2236.02 1201.43C2236.25 1201.27 2236.31 1200.96 2236.15 1200.73C2236 1200.51 2235.69 1200.45 2235.46 1200.6L2236.02 1201.43ZM2242.07 1196.07C2241.84 1196.23 2241.78 1196.54 2241.94 1196.77C2242.1 1196.99 2242.41 1197.05 2242.64 1196.89L2242.07 1196.07ZM2249.2 1192.26C2249.42 1192.1 2249.47 1191.79 2249.31 1191.57C2249.15 1191.34 2248.84 1191.29 2248.62 1191.45L2249.2 1192.26ZM2255.11 1186.75C2254.88 1186.91 2254.84 1187.22 2255 1187.45C2255.16 1187.67 2255.48 1187.72 2255.7 1187.55L2255.11 1186.75ZM2262.14 1182.77C2262.36 1182.6 2262.4 1182.29 2262.24 1182.07C2262.07 1181.85 2261.76 1181.8 2261.54 1181.97L2262.14 1182.77ZM2267.92 1177.11C2267.7 1177.28 2267.66 1177.6 2267.83 1177.82C2267.99 1178.03 2268.31 1178.07 2268.53 1177.91L2267.92 1177.11ZM2274.86 1172.97C2275.08 1172.8 2275.11 1172.49 2274.94 1172.27C2274.77 1172.05 2274.46 1172.02 2274.24 1172.19L2274.86 1172.97ZM2280.51 1167.2C2280.29 1167.37 2280.26 1167.68 2280.43 1167.9C2280.6 1168.11 2280.92 1168.15 2281.13 1167.97L2280.51 1167.2ZM2287.36 1162.91C2287.58 1162.73 2287.61 1162.42 2287.43 1162.21C2287.26 1161.99 2286.94 1161.96 2286.73 1162.14L2287.36 1162.91ZM2292.9 1157.02C2292.69 1157.19 2292.66 1157.51 2292.84 1157.72C2293.02 1157.93 2293.33 1157.96 2293.54 1157.78L2292.9 1157.02ZM2299.67 1152.61C2299.88 1152.43 2299.9 1152.11 2299.72 1151.9C2299.54 1151.69 2299.23 1151.67 2299.02 1151.85L2299.67 1152.61ZM2305.1 1146.61C2304.89 1146.79 2304.86 1147.11 2305.05 1147.32C2305.23 1147.53 2305.54 1147.55 2305.75 1147.37L2305.1 1146.61ZM2311.79 1142.08C2312 1141.9 2312.02 1141.58 2311.84 1141.37C2311.65 1141.17 2311.34 1141.15 2311.13 1141.33L2311.79 1142.08ZM2317.11 1136.01C2316.91 1136.19 2316.89 1136.51 2317.07 1136.71C2317.26 1136.92 2317.57 1136.94 2317.78 1136.75L2317.11 1136.01ZM2323.74 1131.37C2323.95 1131.18 2323.96 1130.87 2323.77 1130.66C2323.59 1130.46 2323.27 1130.44 2323.07 1130.63L2323.74 1131.37ZM2328.98 1125.21C2328.78 1125.4 2328.77 1125.71 2328.96 1125.92C2329.14 1126.12 2329.46 1126.13 2329.66 1125.94L2328.98 1125.21ZM2335.53 1120.5C2335.73 1120.31 2335.74 1119.99 2335.55 1119.79C2335.36 1119.59 2335.05 1119.58 2334.85 1119.77L2335.53 1120.5ZM2340.7 1114.26C2340.5 1114.45 2340.49 1114.77 2340.68 1114.97C2340.87 1115.17 2341.19 1115.18 2341.39 1114.99L2340.7 1114.26ZM2347.21 1109.46C2347.41 1109.27 2347.41 1108.95 2347.22 1108.75C2347.03 1108.55 2346.72 1108.55 2346.52 1108.74L2347.21 1109.46ZM2352.28 1103.2C2352.08 1103.39 2352.07 1103.71 2352.27 1103.91C2352.46 1104.11 2352.77 1104.11 2352.97 1103.92L2352.28 1103.2ZM2358.75 1098.31C2358.95 1098.12 2358.95 1097.81 2358.76 1097.61C2358.57 1097.41 2358.25 1097.41 2358.05 1097.6L2358.75 1098.31ZM2363.79 1091.99C2363.59 1092.18 2363.59 1092.5 2363.78 1092.7C2363.97 1092.89 2364.29 1092.9 2364.49 1092.7L2363.79 1091.99ZM2370.18 1087.09C2370.37 1086.9 2370.37 1086.58 2370.18 1086.39C2369.98 1086.19 2369.67 1086.19 2369.47 1086.38L2370.18 1087.09ZM2375.19 1080.7C2374.99 1080.9 2374.99 1081.22 2375.19 1081.41C2375.38 1081.61 2375.7 1081.61 2375.9 1081.41L2375.19 1080.7ZM2381.57 1075.75C2381.76 1075.55 2381.76 1075.24 2381.57 1075.04C2381.37 1074.85 2381.05 1074.85 2380.86 1075.04L2381.57 1075.75ZM2386.5 1069.38C2386.31 1069.57 2386.31 1069.89 2386.51 1070.08C2386.7 1070.28 2387.02 1070.28 2387.21 1070.08L2386.5 1069.38ZM2392.89 1064.36C2393.08 1064.17 2393.08 1063.85 2392.89 1063.66C2392.69 1063.46 2392.37 1063.46 2392.18 1063.66L2392.89 1064.36ZM2397.81 1057.98C2397.61 1058.17 2397.61 1058.49 2397.81 1058.68C2398.01 1058.88 2398.32 1058.88 2398.52 1058.68L2397.81 1057.98ZM3.95504 989.098C4.96405 989.874 5.9899 990.657 7.03243 991.447L7.6363 990.65C6.5956 989.861 5.57161 989.08 4.56449 988.306L3.95504 989.098ZM13.4863 996.267C15.548 997.786 17.6661 999.327 19.8396 1000.89L20.4232 1000.08C18.2528 998.518 16.1379 996.979 14.0795 995.462L13.4863 996.267ZM26.3719 1005.53C28.4965 1007.02 30.6681 1008.53 32.8859 1010.05L33.4522 1009.23C31.2371 1007.71 29.0683 1006.2 26.9465 1004.71L26.3719 1005.53ZM39.471 1014.53C41.6429 1015.99 43.8549 1017.47 46.1064 1018.95L46.6571 1018.12C44.4082 1016.63 42.1986 1015.16 40.0293 1013.7L39.471 1014.53ZM52.752 1023.3C54.957 1024.72 57.1967 1026.16 59.4704 1027.61L60.0069 1026.76C57.7355 1025.32 55.4981 1023.88 53.2955 1022.46L52.752 1023.3ZM66.1875 1031.84C68.4163 1033.23 70.6755 1034.63 72.9644 1036.03L73.4875 1035.18C71.2007 1033.78 68.9438 1032.38 66.7172 1030.99L66.1875 1031.84ZM79.7627 1040.17C82.0093 1041.52 84.2828 1042.88 86.5826 1044.25L87.0928 1043.39C84.7951 1042.03 82.5237 1040.67 80.2792 1039.31L79.7627 1040.17ZM93.4693 1048.3C95.73 1049.62 98.0146 1050.94 100.323 1052.27L100.82 1051.4C98.5144 1050.07 96.2319 1048.75 93.9732 1047.44L93.4693 1048.3ZM107.302 1056.24C109.575 1057.52 111.869 1058.8 114.184 1060.09L114.669 1059.22C112.356 1057.93 110.064 1056.65 107.794 1055.37L107.302 1056.24ZM121.191 1063.95C123.496 1065.21 125.82 1066.47 128.164 1067.73L128.637 1066.85C126.296 1065.59 123.973 1064.33 121.67 1063.07L121.191 1063.95ZM135.184 1071.47C137.525 1072.71 139.885 1073.94 142.263 1075.18L142.724 1074.29C140.348 1073.06 137.991 1071.82 135.652 1070.59L135.184 1071.47ZM149.296 1078.81C151.658 1080.02 154.036 1081.22 156.432 1082.43L156.881 1081.54C154.488 1080.33 152.111 1079.13 149.752 1077.92L149.296 1078.81ZM163.525 1085.97C165.89 1087.14 168.271 1088.31 170.667 1089.47L171.104 1088.57C168.711 1087.41 166.332 1086.24 163.969 1085.07L163.525 1085.97ZM177.869 1092.95C180.239 1094.08 182.622 1095.21 185.02 1096.34L185.446 1095.43C183.05 1094.3 180.668 1093.18 178.3 1092.04L177.869 1092.95ZM192.255 1099.71C194.653 1100.81 197.064 1101.92 199.488 1103.02L199.901 1102.11C197.479 1101.01 195.07 1099.9 192.674 1098.8L192.255 1099.71ZM206.73 1106.27C209.156 1107.35 211.595 1108.43 214.047 1109.5L214.447 1108.58C211.998 1107.51 209.561 1106.44 207.137 1105.36L206.73 1106.27ZM221.319 1112.65C223.748 1113.69 226.189 1114.73 228.641 1115.76L229.029 1114.84C226.579 1113.81 224.14 1112.77 221.713 1111.73L221.319 1112.65ZM236.017 1118.84C238.45 1119.85 240.894 1120.84 243.349 1121.84L243.724 1120.91C241.272 1119.92 238.83 1118.92 236.398 1117.92L236.017 1118.84ZM250.745 1124.8C253.208 1125.78 255.682 1126.75 258.165 1127.72L258.527 1126.78C256.046 1125.82 253.575 1124.85 251.113 1123.87L250.745 1124.8ZM265.571 1130.56C268.049 1131.5 270.537 1132.44 273.034 1133.37L273.382 1132.43C270.888 1131.5 268.402 1130.57 265.926 1129.63L265.571 1130.56ZM280.503 1136.12C282.985 1137.02 285.477 1137.92 287.977 1138.81L288.312 1137.87C285.814 1136.98 283.325 1136.08 280.845 1135.18L280.503 1136.12ZM295.502 1141.45C298 1142.32 300.507 1143.18 303.022 1144.03L303.343 1143.08C300.831 1142.23 298.326 1141.37 295.83 1140.51L295.502 1141.45ZM310.56 1146.55C313.08 1147.39 315.608 1148.21 318.143 1149.03L318.45 1148.08C315.917 1147.26 313.391 1146.44 310.873 1145.61L310.56 1146.55ZM325.717 1151.44C328.242 1152.23 330.774 1153.01 333.314 1153.79L333.605 1152.83C331.069 1152.05 328.539 1151.27 326.016 1150.48L325.717 1151.44ZM340.952 1156.08C343.488 1156.83 346.03 1157.58 348.579 1158.31L348.856 1157.35C346.309 1156.61 343.77 1155.87 341.237 1155.12L340.952 1156.08ZM356.232 1160.48C358.79 1161.19 361.353 1161.89 363.923 1162.59L364.183 1161.62C361.616 1160.93 359.056 1160.23 356.501 1159.51L356.232 1160.48ZM371.602 1164.63C374.165 1165.3 376.733 1165.95 379.308 1166.6L379.552 1165.63C376.981 1164.99 374.415 1164.33 371.855 1163.66L371.602 1164.63ZM387.047 1168.52C389.618 1169.14 392.195 1169.76 394.777 1170.36L395.004 1169.39C392.426 1168.79 389.852 1168.17 387.283 1167.55L387.047 1168.52ZM402.532 1172.14C405.122 1172.72 407.717 1173.29 410.316 1173.85L410.527 1172.88C407.93 1172.32 405.338 1171.75 402.751 1171.17L402.532 1172.14ZM418.094 1175.49C420.69 1176.03 423.29 1176.55 425.895 1177.06L426.087 1176.08C423.486 1175.57 420.889 1175.05 418.296 1174.51L418.094 1175.49ZM433.721 1178.56C436.324 1179.05 438.932 1179.52 441.543 1179.98L441.718 1179C439.109 1178.54 436.505 1178.06 433.905 1177.58L433.721 1178.56ZM449.385 1181.33C452.003 1181.77 454.624 1182.2 457.249 1182.61L457.404 1181.62C454.783 1181.21 452.164 1180.78 449.55 1180.35L449.385 1181.33ZM465.111 1183.81C467.734 1184.19 470.36 1184.56 472.989 1184.93L473.125 1183.93C470.499 1183.57 467.876 1183.2 465.257 1182.82L465.111 1183.81ZM480.886 1185.97C483.515 1186.3 486.147 1186.62 488.782 1186.93L488.898 1185.93C486.266 1185.63 483.638 1185.31 481.012 1184.97L480.886 1185.97ZM496.691 1187.8C499.33 1188.08 501.972 1188.35 504.616 1188.6L504.71 1187.6C502.07 1187.35 499.432 1187.09 496.796 1186.81L496.691 1187.8ZM512.539 1189.31C515.182 1189.53 517.826 1189.74 520.473 1189.93L520.545 1188.93C517.903 1188.74 515.262 1188.53 512.623 1188.31L512.539 1189.31ZM528.418 1190.47C531.064 1190.63 533.712 1190.78 536.362 1190.92L536.412 1189.92C533.766 1189.78 531.122 1189.63 528.48 1189.47L528.418 1190.47ZM544.311 1191.27C546.963 1191.38 549.616 1191.47 552.27 1191.54L552.298 1190.54C549.647 1190.47 546.998 1190.38 544.351 1190.27L544.311 1191.27ZM560.225 1191.71C562.877 1191.76 565.529 1191.78 568.183 1191.79L568.187 1190.79C565.537 1190.78 562.889 1190.76 560.241 1190.71L560.225 1191.71ZM576.145 1191.78C578.797 1191.76 581.45 1191.72 584.103 1191.67L584.082 1190.67C581.433 1190.72 578.785 1190.76 576.137 1190.78L576.145 1191.78ZM592.057 1191.46C594.709 1191.37 597.362 1191.27 600.014 1191.14L599.969 1190.15C597.321 1190.27 594.672 1190.37 592.025 1190.46L592.057 1191.46ZM607.962 1190.73C610.609 1190.58 613.256 1190.41 615.903 1190.22L615.832 1189.22C613.189 1189.41 610.547 1189.58 607.904 1189.74L607.962 1190.73ZM623.842 1189.6C625.165 1189.49 626.488 1189.38 627.811 1189.26L627.721 1188.26C626.4 1188.38 625.079 1188.5 623.758 1188.61L623.842 1189.6ZM627.811 1189.26C629.147 1189.13 630.481 1189.01 631.814 1188.87L631.713 1187.88C630.383 1188.01 629.053 1188.14 627.721 1188.26L627.811 1189.26ZM639.8 1187.98C642.458 1187.65 645.111 1187.3 647.761 1186.93L647.62 1185.94C644.977 1186.31 642.33 1186.66 639.679 1186.98L639.8 1187.98ZM655.697 1185.72C658.337 1185.29 660.973 1184.84 663.605 1184.36L663.427 1183.37C660.801 1183.85 658.171 1184.3 655.537 1184.73L655.697 1185.72ZM671.489 1182.85C674.112 1182.33 676.733 1181.78 679.349 1181.2L679.135 1180.23C676.524 1180.8 673.91 1181.35 671.292 1181.87L671.489 1182.85ZM687.188 1179.42C689.785 1178.8 692.379 1178.16 694.97 1177.5L694.723 1176.53C692.138 1177.19 689.549 1177.83 686.957 1178.44L687.188 1179.42ZM702.727 1175.46C705.309 1174.76 707.888 1174.03 710.464 1173.29L710.187 1172.33C707.616 1173.07 705.042 1173.79 702.464 1174.49L702.727 1175.46ZM718.179 1171C720.728 1170.22 723.274 1169.43 725.817 1168.61L725.512 1167.66C722.973 1168.47 720.432 1169.27 717.887 1170.04L718.179 1171ZM733.438 1166.11C735.976 1165.26 738.51 1164.39 741.042 1163.5L740.712 1162.56C738.184 1163.44 735.653 1164.31 733.12 1165.16L733.438 1166.11ZM748.616 1160.79C751.119 1159.88 753.619 1158.95 756.117 1158.01L755.763 1157.07C753.269 1158.01 750.772 1158.94 748.273 1159.85L748.616 1160.79ZM763.603 1155.12C766.096 1154.15 768.586 1153.16 771.075 1152.15L770.7 1151.22C768.215 1152.23 765.727 1153.22 763.238 1154.19L763.603 1155.12ZM778.511 1149.1C780.971 1148.07 783.428 1147.04 785.883 1145.98L785.49 1145.07C783.037 1146.12 780.583 1147.15 778.127 1148.17L778.511 1149.1ZM793.244 1142.79C795.695 1141.72 798.145 1140.63 800.593 1139.53L800.183 1138.62C797.737 1139.71 795.29 1140.8 792.842 1141.88L793.244 1142.79ZM807.906 1136.2C810.327 1135.09 812.747 1133.96 815.165 1132.83L814.741 1131.92C812.325 1133.06 809.907 1134.18 807.488 1135.29L807.906 1136.2ZM822.415 1129.39C824.831 1128.24 827.245 1127.07 829.657 1125.9L829.219 1125C826.809 1126.17 824.397 1127.34 821.984 1128.49L822.415 1129.39ZM836.867 1122.36C839.257 1121.18 841.645 1119.99 844.033 1118.79L843.584 1117.9C841.198 1119.09 838.812 1120.28 836.424 1121.47L836.867 1122.36ZM851.192 1115.17C853.578 1113.96 855.962 1112.73 858.346 1111.51L857.887 1110.62C855.505 1111.85 853.123 1113.07 850.739 1114.28L851.192 1115.17ZM865.475 1107.81C867.84 1106.58 870.205 1105.34 872.57 1104.09L872.104 1103.21C869.741 1104.45 867.377 1105.69 865.013 1106.92L865.475 1107.81ZM879.66 1100.34C882.023 1099.09 884.385 1097.83 886.747 1096.56L886.275 1095.68C883.914 1096.94 881.553 1098.2 879.191 1099.46L879.66 1100.34ZM893.819 1092.76C896.169 1091.49 898.518 1090.22 900.866 1088.95L900.389 1088.07C898.041 1089.34 895.693 1090.61 893.344 1091.88L893.819 1092.76ZM907.912 1085.11C910.26 1083.83 912.608 1082.55 914.956 1081.26L914.476 1080.38C912.128 1081.67 909.781 1082.95 907.433 1084.23L907.912 1085.11ZM921.994 1077.4C924.336 1076.11 926.677 1074.83 929.019 1073.54L928.536 1072.66C926.195 1073.95 923.854 1075.24 921.512 1076.52L921.994 1077.4ZM936.044 1069.67C938.385 1068.37 940.727 1067.08 943.069 1065.79L942.587 1064.92C940.244 1066.21 937.903 1067.5 935.561 1068.79L936.044 1069.67ZM950.096 1061.92C952.438 1060.63 954.78 1059.34 957.123 1058.05L956.641 1057.17C954.298 1058.46 951.956 1059.75 949.613 1061.04L950.096 1061.92ZM964.152 1054.18C966.496 1052.9 968.84 1051.61 971.185 1050.33L970.705 1049.45C968.359 1050.73 966.015 1052.02 963.671 1053.31L964.152 1054.18ZM978.223 1046.49C980.573 1045.21 982.924 1043.93 985.276 1042.65L984.8 1041.77C982.447 1043.05 980.095 1044.33 977.744 1045.61L978.223 1046.49ZM992.334 1038.84C994.688 1037.57 997.042 1036.31 999.398 1035.05L998.926 1034.17C996.57 1035.43 994.215 1036.69 991.86 1037.96L992.334 1038.84ZM1006.47 1031.29C1008.84 1030.03 1011.21 1028.78 1013.57 1027.54L1013.11 1026.65C1010.74 1027.9 1008.37 1029.15 1006 1030.4L1006.47 1031.29ZM1020.69 1023.82C1023.06 1022.59 1025.43 1021.36 1027.8 1020.14L1027.35 1019.25C1024.97 1020.47 1022.6 1021.7 1020.22 1022.94L1020.69 1023.82ZM1034.93 1016.5C1037.32 1015.29 1039.72 1014.08 1042.11 1012.89L1041.66 1011.99C1039.27 1013.19 1036.87 1014.4 1034.48 1015.61L1034.93 1016.5ZM1049.3 1009.32C1051.69 1008.13 1054.09 1006.96 1056.49 1005.8L1056.06 1004.9C1053.65 1006.06 1051.25 1007.24 1048.85 1008.42L1049.3 1009.32ZM1063.7 1002.33C1066.12 1001.18 1068.55 1000.03 1070.97 998.899L1070.55 997.993C1068.12 999.128 1065.69 1000.27 1063.27 1001.43L1063.7 1002.33ZM1078.25 995.528C1080.68 994.415 1083.11 993.313 1085.55 992.222L1085.14 991.31C1082.7 992.402 1080.27 993.505 1077.84 994.619L1078.25 995.528ZM1092.86 988.984C1095.32 987.908 1097.78 986.844 1100.24 985.793L1099.85 984.874C1097.38 985.926 1094.92 986.99 1092.46 988.068L1092.86 988.984ZM1107.63 982.68C1110.1 981.655 1112.57 980.644 1115.04 979.647L1114.67 978.719C1112.19 979.718 1109.72 980.73 1107.25 981.756L1107.63 982.68ZM1122.47 976.695C1124.97 975.719 1127.47 974.757 1129.98 973.81L1129.62 972.875C1127.12 973.823 1124.61 974.786 1122.11 975.764L1122.47 976.695ZM1137.5 971.018C1140 970.104 1142.52 969.205 1145.03 968.323L1144.7 967.379C1142.18 968.263 1139.67 969.163 1137.15 970.079L1137.5 971.018ZM1152.6 965.723C1155.14 964.869 1157.68 964.032 1160.23 963.213L1159.92 962.261C1157.37 963.081 1154.82 963.92 1152.28 964.776L1152.6 965.723ZM1167.88 960.812C1170.43 960.03 1172.99 959.267 1175.55 958.523L1175.27 957.563C1172.7 958.308 1170.14 959.072 1167.58 959.856L1167.88 960.812ZM1183.25 956.347C1185.83 955.639 1188.42 954.952 1191 954.285L1190.75 953.316C1188.16 953.985 1185.57 954.674 1182.99 955.383L1183.25 956.347ZM1198.78 952.347C1201.38 951.722 1203.98 951.119 1206.58 950.538L1206.36 949.562C1203.75 950.144 1201.15 950.749 1198.55 951.375L1198.78 952.347ZM1214.41 948.86C1217.03 948.323 1219.65 947.809 1222.27 947.318L1222.09 946.335C1219.46 946.827 1216.83 947.342 1214.21 947.881L1214.41 948.86ZM1230.16 945.916C1232.79 945.473 1235.43 945.053 1238.07 944.659L1237.93 943.67C1235.28 944.065 1232.63 944.485 1229.99 944.93L1230.16 945.916ZM1246 943.552C1248.64 943.208 1251.29 942.89 1253.95 942.597L1253.84 941.603C1251.18 941.897 1248.52 942.216 1245.87 942.56L1246 943.552ZM1261.92 941.798C1264.58 941.558 1267.25 941.344 1269.92 941.158L1269.85 940.16C1267.17 940.347 1264.5 940.562 1261.83 940.802L1261.92 941.798ZM1277.9 940.683C1280.55 940.552 1283.22 940.448 1285.88 940.373L1285.85 939.373C1283.18 939.449 1280.51 939.553 1277.85 939.684L1277.9 940.683ZM1293.9 940.229C1296.57 940.21 1299.25 940.219 1301.94 940.257L1301.95 939.257C1299.26 939.219 1296.57 939.21 1293.89 939.229L1293.9 940.229ZM1309.91 940.455C1312.57 940.55 1315.22 940.673 1317.88 940.825L1317.94 939.827C1315.27 939.674 1312.61 939.551 1309.95 939.456L1309.91 940.455ZM1325.89 941.371C1328.56 941.583 1331.24 941.824 1333.92 942.096L1334.02 941.101C1331.33 940.828 1328.64 940.586 1325.96 940.374L1325.89 941.371ZM1341.83 942.984C1344.46 943.308 1347.09 943.661 1349.72 944.044L1349.87 943.055C1347.22 942.67 1344.58 942.316 1341.95 941.992L1341.83 942.984ZM1357.65 945.285C1360.3 945.728 1362.95 946.203 1365.61 946.708L1365.79 945.726C1363.13 945.219 1360.47 944.743 1357.81 944.298L1357.65 945.285ZM1373.41 948.279C1375.99 948.826 1378.58 949.403 1381.16 950.01L1381.39 949.037C1378.8 948.428 1376.21 947.85 1373.62 947.301L1373.41 948.279ZM1388.95 951.922C1391.55 952.589 1394.15 953.287 1396.76 954.016L1397.03 953.053C1394.42 952.322 1391.8 951.623 1389.2 950.953L1388.95 951.922ZM1404.46 956.251C1406.97 957.007 1409.48 957.793 1412 958.607L1412.31 957.656C1409.79 956.839 1407.26 956.052 1404.75 955.293L1404.46 956.251ZM1419.58 961.14C1422.11 962.014 1424.65 962.917 1427.19 963.85L1427.53 962.912C1424.99 961.976 1422.44 961.07 1419.91 960.195L1419.58 961.14ZM1434.81 966.736C1437.23 967.679 1439.66 968.651 1442.1 969.65L1442.48 968.725C1440.04 967.724 1437.6 966.75 1435.17 965.804L1434.81 966.736ZM1449.41 972.733C1451.85 973.789 1454.3 974.872 1456.75 975.985L1457.17 975.074C1454.71 973.959 1452.25 972.873 1449.81 971.815L1449.41 972.733ZM1464.13 979.409C1466.53 980.553 1468.95 981.725 1471.36 982.925L1471.81 982.029C1469.39 980.827 1466.97 979.652 1464.56 978.506L1464.13 979.409ZM1478.37 986.475C1480.71 987.685 1483.06 988.921 1485.41 990.184L1485.88 989.303C1483.53 988.038 1481.18 986.799 1478.83 985.587L1478.37 986.475ZM1492.47 994.053C1494.83 995.37 1497.2 996.713 1499.57 998.085L1500.07 997.219C1497.7 995.845 1495.33 994.499 1492.96 993.18L1492.47 994.053ZM1506.48 1002.16C1508.71 1003.49 1510.95 1004.85 1513.19 1006.24L1513.71 1005.39C1511.47 1004 1509.23 1002.64 1507 1001.3L1506.48 1002.16ZM1519.91 1010.46C1522.16 1011.9 1524.41 1013.35 1526.67 1014.84L1527.21 1014C1524.96 1012.52 1522.7 1011.05 1520.45 1009.62L1519.91 1010.46ZM1533.45 1019.36C1535.68 1020.88 1537.92 1022.41 1540.16 1023.98L1540.73 1023.16C1538.49 1021.59 1536.24 1020.05 1534.01 1018.53L1533.45 1019.36ZM1546.54 1028.48C1548.66 1030 1550.8 1031.54 1552.93 1033.11L1553.53 1032.31C1551.39 1030.74 1549.25 1029.19 1547.12 1027.66L1546.54 1028.48ZM1559.36 1037.88C1561.5 1039.5 1563.65 1041.13 1565.8 1042.79L1566.41 1042C1564.26 1040.34 1562.11 1038.7 1559.96 1037.09L1559.36 1037.88ZM1572.28 1047.84C1574.35 1049.48 1576.43 1051.14 1578.52 1052.82L1579.14 1052.05C1577.06 1050.36 1574.97 1048.7 1572.89 1047.06L1572.28 1047.84ZM1584.58 1057.77C1586.61 1059.44 1588.63 1061.13 1590.67 1062.84L1591.31 1062.08C1589.27 1060.36 1587.24 1058.67 1585.22 1057L1584.58 1057.77ZM1596.77 1068.04C1598.81 1069.79 1600.85 1071.56 1602.9 1073.36L1603.56 1072.6C1601.51 1070.81 1599.47 1069.03 1597.42 1067.28L1596.77 1068.04ZM1609.05 1078.8C1610.08 1079.72 1611.11 1080.64 1612.14 1081.57L1612.81 1080.83C1611.78 1079.9 1610.75 1078.97 1609.72 1078.06L1609.05 1078.8ZM1612.14 1081.57C1613.16 1082.49 1614.18 1083.41 1615.2 1084.33L1615.87 1083.58C1614.85 1082.67 1613.83 1081.75 1612.81 1080.83L1612.14 1081.57ZM1621.31 1089.78C1623.34 1091.58 1625.37 1093.36 1627.39 1095.14L1628.05 1094.38C1626.03 1092.61 1624 1090.83 1621.97 1089.03L1621.31 1089.78ZM1633.45 1100.4C1635.46 1102.14 1637.47 1103.87 1639.48 1105.58L1640.13 1104.82C1638.12 1103.11 1636.11 1101.39 1634.1 1099.65L1633.45 1100.4ZM1645.48 1110.67C1647.52 1112.39 1649.56 1114.1 1651.6 1115.79L1652.24 1115.03C1650.2 1113.33 1648.17 1111.63 1646.12 1109.91L1645.48 1110.67ZM1657.92 1121.01C1660.02 1122.73 1662.11 1124.44 1664.2 1126.12L1664.83 1125.35C1662.74 1123.66 1660.65 1121.96 1658.55 1120.24L1657.92 1121.01ZM1670.46 1131.14C1672.54 1132.8 1674.62 1134.44 1676.69 1136.06L1677.31 1135.27C1675.24 1133.65 1673.16 1132.01 1671.08 1130.36L1670.46 1131.14ZM1682.89 1140.88C1685.03 1142.54 1687.17 1144.18 1689.31 1145.8L1689.91 1145C1687.78 1143.38 1685.64 1141.75 1683.5 1140.09L1682.89 1140.88ZM1695.83 1150.71C1697.99 1152.33 1700.16 1153.93 1702.31 1155.52L1702.9 1154.71C1700.75 1153.13 1698.59 1151.53 1696.42 1149.91L1695.83 1150.71ZM1708.77 1160.22C1710.91 1161.76 1713.05 1163.3 1715.19 1164.81L1715.76 1163.99C1713.63 1162.48 1711.49 1160.95 1709.35 1159.41L1708.77 1160.22ZM1721.67 1169.36C1723.93 1170.93 1726.18 1172.48 1728.42 1174.02L1728.98 1173.19C1726.74 1171.66 1724.5 1170.11 1722.24 1168.54L1721.67 1169.36ZM1735.13 1178.55C1737.36 1180.04 1739.59 1181.51 1741.81 1182.97L1742.35 1182.13C1740.14 1180.68 1737.92 1179.21 1735.69 1177.72L1735.13 1178.55ZM1748.44 1187.27C1750.67 1188.7 1752.9 1190.11 1755.11 1191.5L1755.64 1190.65C1753.43 1189.26 1751.21 1187.85 1748.98 1186.43L1748.44 1187.27ZM1762.08 1195.82C1764.39 1197.24 1766.7 1198.64 1769.01 1200.01L1769.52 1199.15C1767.22 1197.78 1764.91 1196.38 1762.6 1194.97L1762.08 1195.82ZM1775.89 1204.08C1778.18 1205.42 1780.46 1206.73 1782.74 1208.03L1783.23 1207.16C1780.96 1205.86 1778.68 1204.55 1776.4 1203.22L1775.89 1204.08ZM1789.69 1211.93C1792.09 1213.26 1794.48 1214.56 1796.86 1215.84L1797.34 1214.96C1794.96 1213.68 1792.57 1212.38 1790.18 1211.05L1789.69 1211.93ZM1803.99 1219.62C1806.36 1220.86 1808.72 1222.07 1811.07 1223.26L1811.52 1222.37C1809.17 1221.18 1806.82 1219.97 1804.45 1218.73L1803.99 1219.62ZM1818.11 1226.77C1820.56 1227.97 1823.01 1229.15 1825.45 1230.31L1825.87 1229.4C1823.44 1228.25 1821 1227.07 1818.55 1225.87L1818.11 1226.77ZM1832.8 1233.73C1835.24 1234.85 1837.67 1235.94 1840.1 1237.01L1840.5 1236.09C1838.08 1235.03 1835.65 1233.94 1833.21 1232.82L1832.8 1233.73ZM1847.36 1240.14C1849.84 1241.2 1852.32 1242.22 1854.79 1243.23L1855.16 1242.3C1852.7 1241.3 1850.23 1240.27 1847.75 1239.22L1847.36 1240.14ZM1862.34 1246.23C1864.85 1247.2 1867.35 1248.15 1869.84 1249.07L1870.19 1248.14C1867.7 1247.21 1865.21 1246.27 1862.7 1245.3L1862.34 1246.23ZM1877.29 1251.77C1879.83 1252.66 1882.36 1253.53 1884.88 1254.37L1885.2 1253.42C1882.68 1252.58 1880.16 1251.72 1877.62 1250.82L1877.29 1251.77ZM1892.61 1256.88C1895.18 1257.69 1897.73 1258.47 1900.28 1259.22L1900.56 1258.26C1898.02 1257.51 1895.47 1256.73 1892.91 1255.93L1892.61 1256.88ZM1907.89 1261.4C1910.5 1262.13 1913.1 1262.82 1915.69 1263.49L1915.94 1262.52C1913.35 1261.86 1910.76 1261.16 1908.16 1260.44L1907.89 1261.4ZM1923.55 1265.43C1926.15 1266.05 1928.75 1266.65 1931.34 1267.21L1931.56 1266.23C1928.97 1265.67 1926.38 1265.08 1923.78 1264.46L1923.55 1265.43ZM1939.08 1268.81C1941.76 1269.34 1944.43 1269.84 1947.09 1270.31L1947.26 1269.33C1944.61 1268.86 1941.95 1268.36 1939.27 1267.83L1939.08 1268.81ZM1955.03 1271.63C1957.67 1272.04 1960.3 1272.42 1962.91 1272.78L1963.05 1271.79C1960.44 1271.43 1957.82 1271.05 1955.19 1270.64L1955.03 1271.63ZM1970.87 1273.76C1973.56 1274.07 1976.25 1274.35 1978.92 1274.59L1979.01 1273.59C1976.35 1273.35 1973.67 1273.08 1970.98 1272.77L1970.87 1273.76ZM1986.9 1275.24C1989.56 1275.42 1992.2 1275.58 1994.83 1275.7L1994.88 1274.71C1992.26 1274.58 1989.62 1274.42 1986.97 1274.24L1986.9 1275.24ZM2002.94 1276C2005.63 1276.07 2008.31 1276.11 2010.97 1276.12L2010.98 1275.12C2008.32 1275.11 2005.65 1275.07 2002.97 1275L2002.94 1276ZM2018.94 1276.05C2021.64 1276 2024.33 1275.92 2027 1275.81L2026.96 1274.81C2024.29 1274.92 2021.61 1275 2018.92 1275.05L2018.94 1276.05ZM2035.04 1275.37C2037.71 1275.2 2040.36 1275 2043.01 1274.76L2042.92 1273.77C2040.28 1274 2037.64 1274.2 2034.98 1274.38L2035.04 1275.37ZM2051.01 1273.96C2053.68 1273.66 2056.35 1273.34 2059 1272.98L2058.87 1271.99C2056.22 1272.34 2053.56 1272.67 2050.89 1272.97L2051.01 1273.96ZM2066.92 1271.82C2069.57 1271.4 2072.21 1270.95 2074.83 1270.47L2074.65 1269.49C2072.03 1269.96 2069.4 1270.41 2066.76 1270.83L2066.92 1271.82ZM2082.74 1268.94C2085.36 1268.4 2087.97 1267.84 2090.57 1267.24L2090.34 1266.27C2087.75 1266.86 2085.15 1267.42 2082.53 1267.96L2082.74 1268.94ZM2098.37 1265.36C2100.97 1264.71 2103.57 1264.02 2106.15 1263.31L2105.88 1262.34C2103.31 1263.05 2100.72 1263.74 2098.12 1264.39L2098.37 1265.36ZM2113.85 1261.09C2116.42 1260.32 2118.97 1259.52 2121.51 1258.7L2121.2 1257.75C2118.67 1258.57 2116.12 1259.36 2113.57 1260.13L2113.85 1261.09ZM2129.14 1256.15C2131.67 1255.27 2134.19 1254.37 2136.69 1253.44L2136.34 1252.51C2133.85 1253.43 2131.33 1254.33 2128.81 1255.21L2129.14 1256.15ZM2144.19 1250.58C2146.68 1249.6 2149.17 1248.6 2151.64 1247.57L2151.25 1246.65C2148.79 1247.67 2146.31 1248.68 2143.82 1249.65L2144.19 1250.58ZM2159.02 1244.41C2161.47 1243.34 2163.91 1242.24 2166.33 1241.12L2165.92 1240.21C2163.49 1241.33 2161.06 1242.43 2158.62 1243.5L2159.02 1244.41ZM2173.6 1237.68C2176 1236.52 2178.4 1235.33 2180.79 1234.12L2180.34 1233.23C2177.96 1234.43 2175.56 1235.62 2173.16 1236.78L2173.6 1237.68ZM2187.92 1230.43C2190.28 1229.18 2192.64 1227.9 2194.98 1226.61L2194.5 1225.74C2192.16 1227.03 2189.81 1228.3 2187.45 1229.54L2187.92 1230.43ZM2201.98 1222.68C2204.3 1221.35 2206.61 1220.01 2208.92 1218.64L2208.4 1217.78C2206.11 1219.14 2203.8 1220.49 2201.48 1221.82L2201.98 1222.68ZM2215.79 1214.49C2218.07 1213.09 2220.34 1211.67 2222.59 1210.23L2222.06 1209.39C2219.8 1210.82 2217.54 1212.24 2215.26 1213.64L2215.79 1214.49ZM2229.34 1205.88C2231.57 1204.41 2233.8 1202.93 2236.02 1201.43L2235.46 1200.6C2233.25 1202.1 2231.02 1203.58 2228.79 1205.04L2229.34 1205.88ZM2242.64 1196.89C2244.83 1195.36 2247.02 1193.82 2249.2 1192.26L2248.62 1191.45C2246.44 1193 2244.26 1194.54 2242.07 1196.07L2242.64 1196.89ZM2255.7 1187.55C2257.86 1185.97 2260 1184.38 2262.14 1182.77L2261.54 1181.97C2259.41 1183.57 2257.26 1185.17 2255.11 1186.75L2255.7 1187.55ZM2268.53 1177.91C2270.65 1176.27 2272.76 1174.63 2274.86 1172.97L2274.24 1172.19C2272.14 1173.84 2270.03 1175.48 2267.92 1177.11L2268.53 1177.91ZM2281.13 1167.97C2283.22 1166.3 2285.3 1164.61 2287.36 1162.91L2286.73 1162.14C2284.66 1163.83 2282.59 1165.52 2280.51 1167.2L2281.13 1167.97ZM2293.54 1157.78C2295.59 1156.07 2297.63 1154.34 2299.67 1152.61L2299.02 1151.85C2296.99 1153.58 2294.95 1155.3 2292.9 1157.02L2293.54 1157.78ZM2305.75 1147.37C2307.77 1145.61 2309.79 1143.85 2311.79 1142.08L2311.13 1141.33C2309.13 1143.1 2307.12 1144.86 2305.1 1146.61L2305.75 1147.37ZM2317.78 1136.75C2319.78 1134.96 2321.76 1133.17 2323.74 1131.37L2323.07 1130.63C2321.09 1132.43 2319.11 1134.22 2317.11 1136.01L2317.78 1136.75ZM2329.66 1125.94C2331.63 1124.13 2333.58 1122.32 2335.53 1120.5L2334.85 1119.77C2332.9 1121.58 2330.95 1123.4 2328.98 1125.21L2329.66 1125.94ZM2341.39 1114.99C2343.34 1113.15 2345.28 1111.31 2347.21 1109.46L2346.52 1108.74C2344.59 1110.58 2342.65 1112.42 2340.7 1114.26L2341.39 1114.99ZM2352.97 1103.92C2354.91 1102.05 2356.83 1100.18 2358.75 1098.31L2358.05 1097.6C2356.14 1099.47 2354.21 1101.33 2352.28 1103.2L2352.97 1103.92ZM2364.49 1092.7C2366.39 1090.83 2368.29 1088.96 2370.18 1087.09L2369.47 1086.38C2367.58 1088.25 2365.69 1090.12 2363.79 1091.99L2364.49 1092.7ZM2375.9 1081.41C2377.79 1079.52 2379.68 1077.63 2381.57 1075.75L2380.86 1075.04C2378.98 1076.93 2377.09 1078.81 2375.19 1080.7L2375.9 1081.41ZM2387.21 1070.08C2389.11 1068.17 2391.01 1066.26 2392.89 1064.36L2392.18 1063.66C2390.3 1065.56 2388.4 1067.47 2386.5 1069.38L2387.21 1070.08ZM2398.52 1058.68C2399.45 1057.73 2400.38 1056.79 2401.31 1055.85L2400.6 1055.15C2399.67 1056.09 2398.74 1057.03 2397.81 1057.98L2398.52 1058.68Z" fill="#5D5E67"/>
<path d="M528.967 1184.26L517.03 1199.1L510.139 1181.34L528.967 1184.26Z" fill="#FFDCD4"/>
</svg>
