<svg width="96" height="96" viewBox="0 0 96 96" fill="none" xmlns="http://www.w3.org/2000/svg">
<circle cx="48" cy="48" r="48" fill="#DFFEC6"/>
<path d="M48.0003 32.7094C48.9515 32.7094 49.8813 32.8011 50.785 32.9684C51.1436 32.3414 51.5647 31.7551 52.0416 31.2188C50.7449 30.906 49.3919 30.7393 48.0003 30.7393C46.6087 30.7393 45.2557 30.906 43.959 31.2188C44.4359 31.7551 44.857 32.3414 45.2156 32.9684C46.1193 32.8011 47.0491 32.7094 48.0003 32.7094Z" fill="#6DBC2D"/>
<path d="M32.7279 47.9799C32.7279 47.9695 32.7284 47.9591 32.729 47.9486C32.0457 47.7089 31.3937 47.4019 30.7844 47.0319C30.7672 47.3456 30.7578 47.662 30.7578 47.9799C30.7578 53.5806 33.4425 58.5653 37.5922 61.7165C37.5964 60.917 37.6928 60.1393 37.8674 59.3925C34.7178 56.5931 32.7279 52.5153 32.7279 47.9799Z" fill="#6DBC2D"/>
<path d="M63.2693 47.9486C63.2693 47.9591 63.2703 47.9695 63.2703 47.9799C63.2703 52.5153 61.2804 56.5931 58.1309 59.3925C58.306 60.1399 58.4019 60.917 58.406 61.7165C62.5558 58.5653 65.2404 53.5806 65.2404 47.9799C65.2404 47.662 65.2311 47.3456 65.2139 47.0319C64.6046 47.4019 63.9526 47.7089 63.2693 47.9486Z" fill="#6DBC2D"/>
<path d="M43.1562 54.4662C43.1562 57.1243 45.3192 59.2867 47.9773 59.2867C50.6354 59.2867 52.7983 57.1243 52.7983 54.4662C52.7983 51.8081 50.6359 49.6457 47.9773 49.6457C45.3192 49.6457 43.1562 51.8081 43.1562 54.4662ZM50.9846 54.4662C50.9846 56.1361 49.6258 57.4943 47.9559 57.4943C46.286 57.4943 44.9273 56.1356 44.9273 54.4657C44.9273 52.7958 46.286 51.437 47.9559 51.437C49.6258 51.437 50.9846 52.7963 50.9846 54.4662Z" fill="#6DBC2D"/>
<path d="M53.8288 59.1232C53.6276 59.1232 53.4368 59.1878 53.2805 59.3087C52.9057 59.5897 52.8203 60.0968 53.0809 60.521C53.9064 61.7907 54.363 64.3237 54.363 65.5891V65.8252C54.363 67.0401 53.1033 68.1461 51.7206 68.1461H44.3879C43.1521 68.1461 41.6595 67.111 41.6595 65.8252C41.6595 64.4143 42.1186 61.7886 42.9822 60.5242C43.248 60.1249 43.1615 59.5912 42.7878 59.3114C42.6242 59.1852 42.4214 59.1159 42.2166 59.1159C41.9154 59.1159 41.6396 59.265 41.4828 59.5094C40.4581 61.0355 39.8457 63.9192 39.8457 65.8257C39.8457 68.192 42.2437 69.9604 44.3879 69.9604H51.72C54.0826 69.9604 56.1549 68.0283 56.1549 65.8257V65.5896C56.1549 63.8358 55.5544 61.0219 54.585 59.536C54.4193 59.277 54.1368 59.1232 53.8288 59.1232Z" fill="#6DBC2D"/>
<path d="M36.1335 35.6415C38.7916 35.6415 40.9546 33.4791 40.9546 30.8205C40.9546 28.1624 38.7921 26 36.1335 26C33.4749 26 31.3125 28.1624 31.3125 30.821C31.313 33.4791 33.4754 35.6415 36.1335 35.6415ZM36.1122 27.7924C37.7821 27.7924 39.1408 29.1511 39.1408 30.821C39.1408 32.4909 37.7821 33.8497 36.1122 33.8497C34.4423 33.8497 33.0835 32.4909 33.0835 30.821C33.0835 29.1511 34.4423 27.7924 36.1122 27.7924Z" fill="#6DBC2D"/>
<path d="M39.8738 46.3147C42.2364 46.3147 44.3086 44.3826 44.3086 42.18V41.9445C44.3086 40.1907 43.7082 37.3767 42.7393 35.8908C42.5736 35.6328 42.2906 35.4786 41.9826 35.4786C41.7814 35.4786 41.5906 35.5432 41.4343 35.6641C41.0595 35.945 40.974 36.4527 41.2352 36.8764C42.0607 38.1465 42.5173 40.679 42.5173 41.9445V42.18C42.5173 43.3949 41.2576 44.5009 39.8748 44.5009H32.5417C31.3059 44.5009 29.8132 43.4658 29.8132 42.18C29.8132 40.7692 30.2724 38.1434 31.136 36.879C31.4023 36.4798 31.3153 35.9461 30.9416 35.6657C30.778 35.5395 30.5752 35.4702 30.3709 35.4702C30.0697 35.4702 29.7939 35.6193 29.6371 35.8637C28.6119 37.3903 28 40.2735 28 42.1795C28 44.5457 30.398 46.3141 32.5422 46.3141H39.8738V46.3147Z" fill="#6DBC2D"/>
<path d="M59.823 35.6415C62.4811 35.6415 64.644 33.4791 64.644 30.8205C64.644 28.1624 62.4816 26 59.823 26C57.1644 26 55.002 28.1624 55.002 30.821C55.0025 33.4791 57.1649 35.6415 59.823 35.6415ZM59.8016 27.7924C61.4715 27.7924 62.8303 29.1511 62.8303 30.821C62.8303 32.4909 61.4715 33.8497 59.8016 33.8497C58.1317 33.8497 56.773 32.4909 56.773 30.821C56.773 29.1511 58.1317 27.7924 59.8016 27.7924Z" fill="#6DBC2D"/>
<path d="M66.4297 35.8899C66.2639 35.6319 65.9809 35.4776 65.6729 35.4776C65.4717 35.4776 65.281 35.5423 65.1246 35.6632C64.7494 35.9441 64.6644 36.4517 64.9255 36.8755C65.7511 38.1451 66.2077 40.6781 66.2077 41.9436V42.1791C66.2077 43.394 64.9479 44.5 63.5652 44.5H56.2326C54.9968 44.5 53.5046 43.4649 53.5046 42.1791C53.5046 40.7683 53.9638 38.142 54.8274 36.8781C55.0938 36.4788 55.0067 35.9451 54.633 35.6647C54.4694 35.5391 54.2666 35.4693 54.0623 35.4693C53.7611 35.4693 53.4854 35.6184 53.3285 35.8628C52.3038 37.3894 51.6914 40.2726 51.6914 42.1786C51.6914 44.5448 54.0894 46.3132 56.2336 46.3132H63.5657C65.9283 46.3132 68.0006 44.3812 68.0006 42.1786V41.9441C67.9995 40.1903 67.3991 37.3763 66.4297 35.8899Z" fill="#6DBC2D"/>
</svg>
