<svg width="393" height="350" viewBox="0 0 393 350" fill="none" xmlns="http://www.w3.org/2000/svg">
<g clip-path="url(#clip0)">
<path d="M284.654 44.5955C310.235 73.1026 323.57 109.094 327.313 144.609C330.986 180.124 325.067 215.231 310.708 250.678C296.42 286.056 273.696 321.775 240.29 338.581C206.816 355.385 162.593 353.208 129.527 334.906C96.5377 316.605 74.6254 282.11 52.1059 246.391C29.5863 210.672 6.38551 173.728 14.2778 144.541C22.1702 115.355 61.0865 93.9934 94.4921 66.844C127.898 39.7654 155.725 6.90342 188.517 0.984174C221.312 -4.8667 259.072 16.0884 284.654 44.5955Z" fill="#F0F0F0"/>
<path d="M45.8571 284.8L23.6477 223.396L1.4375 161.99L65.7206 173.459L130.005 184.926L87.9308 234.864L45.8571 284.8Z" stroke="#B7C7FB" stroke-width="2.87416" stroke-linecap="round" stroke-linejoin="round"/>
<path fill-rule="evenodd" clip-rule="evenodd" d="M24.5938 52.5269H232.517V252.712H24.5938V52.5269Z" fill="#EAF0FF"/>
<path fill-rule="evenodd" clip-rule="evenodd" d="M84.8984 85.4172H200.767V93.4146H84.8984V85.4172Z" fill="#B2C3FB"/>
<path fill-rule="evenodd" clip-rule="evenodd" d="M84.8984 121.072H200.767V129.069H84.8984V121.072Z" fill="#B2C3FB"/>
<path fill-rule="evenodd" clip-rule="evenodd" d="M84.8984 156.726H200.767V164.724H84.8984V156.726Z" fill="#B2C3FB"/>
<path d="M66.6262 81.7504L53.1882 94.4484L46.7578 88.3761" stroke="#B2C3FB" stroke-width="2.87416" stroke-linecap="round" stroke-linejoin="round"/>
<path d="M66.6262 119.093L53.1882 131.791L46.7578 125.719" stroke="#B2C3FB" stroke-width="2.87416" stroke-linecap="round" stroke-linejoin="round"/>
<path d="M66.6262 156.436L53.1882 169.134L46.7578 163.062" stroke="#B2C3FB" stroke-width="2.87416" stroke-linecap="round" stroke-linejoin="round"/>
<path fill-rule="evenodd" clip-rule="evenodd" d="M84.8984 192.381H200.767V200.379H84.8984V192.381Z" fill="#F4F7FF"/>
<path fill-rule="evenodd" clip-rule="evenodd" d="M84.8984 228.036H200.767V236.034H84.8984V228.036Z" fill="#F4F7FF"/>
<path d="M291.018 213.664C291.018 186.163 313.312 163.869 340.814 163.869C368.315 163.869 390.609 186.163 390.609 213.664C390.609 241.165 368.315 263.46 340.814 263.46C313.312 263.46 291.018 241.166 291.018 213.664Z" stroke="#E9EFFF" stroke-width="2.87416" stroke-linecap="round" stroke-linejoin="round"/>
<path fill-rule="evenodd" clip-rule="evenodd" d="M217.55 140.551C204.758 137.998 188.859 153.887 189.971 177.337L205.404 180.541C205.404 180.541 218.665 140.773 217.55 140.551Z" fill="#FE8A71"/>
<path d="M188.252 166.454C187.874 169.286 187.754 172.147 187.895 175" stroke="#5D5E67" stroke-width="1.71994" stroke-linecap="round" stroke-linejoin="round"/>
<path d="M215.472 138.214C207.371 136.597 198.025 142.375 192.541 152.784" stroke="#5D5E67" stroke-width="1.71994" stroke-linecap="round" stroke-linejoin="round"/>
<path fill-rule="evenodd" clip-rule="evenodd" d="M247.222 130.959C295.517 130.959 304.86 186.798 298.444 264.584C277.506 273.366 226.059 277.869 203.319 264.022C192.624 234.077 186.413 130.959 247.222 130.959Z" fill="#FE8A71"/>
<path fill-rule="evenodd" clip-rule="evenodd" d="M212.424 80.8567C212.424 60.3656 224.796 43.7539 240.059 43.7539C255.322 43.7539 267.694 60.3656 267.694 80.8567C267.694 101.348 255.321 117.96 240.059 117.96C224.797 117.96 212.424 101.349 212.424 80.8567Z" fill="white"/>
<path fill-rule="evenodd" clip-rule="evenodd" d="M234.893 80.8826C234.893 79.0919 235.636 77.6438 236.551 77.6438C237.466 77.6438 238.21 79.0935 238.21 80.8826C238.21 82.6717 237.467 84.1198 236.551 84.1198C235.634 84.1198 234.893 82.6701 234.893 80.8826Z" fill="#5D5E67"/>
<path d="M227.262 86.9117C227.21 88.9117 226.63 93.2298 223.844 96.021" stroke="#5D5E67" stroke-width="1.71994" stroke-linecap="round" stroke-linejoin="round"/>
<path d="M233.578 104.077C235.895 103.762 238.788 102.867 240.634 100.128" stroke="#5D5E67" stroke-width="1.71994" stroke-linecap="round" stroke-linejoin="round"/>
<path d="M285.522 190.505C287.086 194.968 290.529 206.854 290.529 206.854C290.529 206.854 266.144 194.337 254.682 188.552" stroke="#5D5E67" stroke-width="1.71994" stroke-linecap="round" stroke-linejoin="round"/>
<path d="M226.124 192.692L223.213 202.29" stroke="#5D5E67" stroke-width="1.71994" stroke-linecap="round" stroke-linejoin="round"/>
<path d="M235.356 162.259L231.482 175.028" stroke="#5D5E67" stroke-width="1.71994" stroke-linecap="round" stroke-linejoin="round"/>
<path d="M254.836 269.742C234.449 271.044 212.628 269.056 199.86 261.282C191.874 238.922 186.388 175.767 209.436 145.209" stroke="#5D5E67" stroke-width="1.71994" stroke-linecap="round" stroke-linejoin="round"/>
<path d="M223.268 133.081C229.054 129.97 235.839 128.219 243.762 128.219C292.056 128.219 301.4 184.058 294.983 261.845C291.797 263.18 287.906 264.418 283.516 265.507" stroke="#5D5E67" stroke-width="1.71994" stroke-linecap="round" stroke-linejoin="round"/>
<path d="M293.989 260.808C293.989 266.001 293.184 343.713 293.184 343.713" stroke="#5D5E67" stroke-width="1.71994" stroke-linecap="round" stroke-linejoin="round"/>
<path fill-rule="evenodd" clip-rule="evenodd" d="M234.544 178.612C231.633 178.612 219.043 180.216 226.171 191.856C230.254 198.527 231.94 196.608 233.653 194.498C234.986 195.193 237.043 196.831 238.368 197.93C238.358 197.952 238.351 197.974 238.341 197.996C241.942 200.804 289.465 242.293 299.238 244.78C309.012 247.268 320.003 237.602 324.227 230.331C328.891 222.314 320.048 189.786 318.487 186.198C316.926 182.611 288.319 194.145 288.319 194.145C288.319 194.145 292.952 208.002 294.174 213.73C291.478 212.214 248.977 191.44 243.441 185.054C243.433 185.073 243.421 185.105 243.411 185.123C241.385 183.051 236.785 178.612 234.544 178.612Z" fill="white"/>
<path d="M199.203 260.051L199.145 335.182" stroke="#5D5E67" stroke-width="1.71994" stroke-linecap="round" stroke-linejoin="round"/>
<path d="M235.203 307.735C237.847 319.037 240.746 331.564 243.545 343.713" stroke="#5D5E67" stroke-width="1.71994" stroke-linecap="round" stroke-linejoin="round"/>
<path fill-rule="evenodd" clip-rule="evenodd" d="M263.734 96.2205C263.577 98.1081 259.487 129.941 260.955 141.268C257.441 144.257 233.132 144.697 233.633 140.22C234.472 132.72 236.255 121.079 234.733 115.15" fill="white"/>
<path d="M231.484 136.917C232.324 129.418 233.566 121.306 232.736 114.625" stroke="#5D5E67" stroke-width="1.71994" stroke-linecap="round" stroke-linejoin="round"/>
<path d="M261.259 97.4658C261.102 99.3534 257.341 126.638 258.809 137.965C257.425 139.145 252.801 139.927 247.744 140.163" stroke="#5D5E67" stroke-width="1.71994" stroke-linecap="round" stroke-linejoin="round"/>
<path d="M250.024 111.286C246.365 113.687 242.254 115.03 237.907 115.03C228.28 115.03 219.804 108.422 214.855 98.3987" stroke="#5D5E67" stroke-width="1.71994" stroke-linecap="round" stroke-linejoin="round"/>
<path d="M211.098 86.9745C210.546 83.9916 210.269 80.9641 210.272 77.9304C210.272 57.4385 222.644 40.8276 237.907 40.8276C253.17 40.8276 265.541 57.4385 265.541 77.9304C265.541 87.0518 263.09 95.404 259.024 101.865" stroke="#5D5E67" stroke-width="1.71994" stroke-linecap="round" stroke-linejoin="round"/>
<path fill-rule="evenodd" clip-rule="evenodd" d="M265.321 101.292C268.421 101.854 273.659 85.108 274.728 75.0073C276.631 57.0135 257.76 34.1204 243.662 32.7049C240.894 32.4273 237.769 35.2754 239.466 40.0413C236.047 36.4549 227.084 31.7118 219.343 30.7163C207.583 29.2056 201.901 37.0206 201.901 40.502C201.901 43.9834 204.012 54.8801 208.233 58.2467C204.822 58.2044 201.788 58.5177 201.408 61.2796C200.238 69.7962 205.065 77.4908 213.234 76.7045C213.803 71.9069 214.831 67.2623 216.512 64.1366C217.877 76.4326 249.137 72.3114 249.076 74.3643C248.84 82.2721 258.225 82.2729 258.55 82.4682C265.798 86.8149 260.379 100.394 265.321 101.292Z" fill="#EDCA55"/>
<path d="M199.311 40.2252C200.044 44.9219 202.048 52.0946 205.33 54.714C201.921 54.6717 198.885 54.9851 198.506 57.7469C197.499 65.0825 200.939 71.8035 207.128 73.031" stroke="#5D5E67" stroke-width="1.71994" stroke-linecap="round" stroke-linejoin="round"/>
<path d="M263.22 45.3508C256.884 36.5818 248.161 29.9153 240.761 29.1722C237.994 28.8946 234.866 31.7419 236.563 36.5077C233.15 32.9214 224.184 28.1783 216.442 27.1836C211.348 26.5324 207.394 27.6232 204.549 29.3586" stroke="#5D5E67" stroke-width="1.71994" stroke-linecap="round" stroke-linejoin="round"/>
<path d="M260.043 92.9743C260.215 95.5155 260.662 97.4389 262.42 97.758C265.519 98.3205 270.758 81.5745 271.826 71.4739C272.139 68.5175 271.891 65.4301 271.196 62.328" stroke="#5D5E67" stroke-width="1.71994" stroke-linecap="round" stroke-linejoin="round"/>
<path d="M212.217 63.9462C212.583 62.7932 213.049 61.6745 213.611 60.6031C214.976 72.8991 246.235 68.7779 246.17 70.8308C246.133 72.0835 246.333 73.1384 246.708 74.0273" stroke="#5D5E67" stroke-width="1.71994" stroke-linecap="round" stroke-linejoin="round"/>
<path fill-rule="evenodd" clip-rule="evenodd" d="M252.02 78.7931C252.922 78.1664 253.96 77.761 255.048 77.6096C256.136 77.4582 257.245 77.5652 258.284 77.9218C259.323 78.2784 260.264 78.8747 261.03 79.6624C261.796 80.4501 262.366 81.407 262.694 82.4558C263.022 83.5047 263.098 84.6159 262.916 85.6996C262.735 86.7833 262.301 87.809 261.649 88.6938C260.997 89.5786 260.147 90.2976 259.166 90.7926C258.185 91.2877 257.101 91.5448 256.002 91.5433C255.578 91.5435 255.154 91.5053 254.737 91.4293" fill="white"/>
<path d="M251.383 77.3329C252.285 76.7062 253.323 76.3008 254.411 76.1494C255.499 75.998 256.608 76.105 257.647 76.4616C258.687 76.8182 259.627 77.4145 260.394 78.2022C261.16 78.9899 261.73 79.9468 262.057 80.9956C262.385 82.0445 262.461 83.1557 262.279 84.2394C262.098 85.3231 261.664 86.3488 261.012 87.2336C260.361 88.1184 259.51 88.8374 258.529 89.3324C257.548 89.8275 256.464 90.0846 255.366 90.0831C254.942 90.0835 254.519 90.0456 254.101 89.9699" stroke="#5D5E67" stroke-width="1.71994" stroke-linecap="round" stroke-linejoin="round"/>
<path fill-rule="evenodd" clip-rule="evenodd" d="M168.932 176.444L219.742 184.558L207.456 261.489L156.646 253.375L168.932 176.444Z" fill="#B2C3FB"/>
<path d="M154.287 248.498L166.572 171.567L217.383 179.682L213.426 204.477" stroke="#5D5E67" stroke-width="1.71994" stroke-linecap="round" stroke-linejoin="round"/>
<path d="M208.897 232.81L205.095 256.612L170.443 251.077" stroke="#5D5E67" stroke-width="1.71994" stroke-linecap="round" stroke-linejoin="round"/>
<path fill-rule="evenodd" clip-rule="evenodd" d="M154.337 238.723C152.024 221.238 153.804 209.797 163.76 206.537C167.78 205.222 163.821 230.78 162.22 234.988C160.618 239.197 156.233 234.396 154.337 238.723Z" fill="white"/>
<path d="M152.727 219.902C151.623 216.276 152.254 208.475 164.706 204.061" stroke="#5D5E67" stroke-width="1.71994" stroke-linecap="round" stroke-linejoin="round"/>
<path d="M151.938 230.62C150.835 226.996 151.465 219.193 163.917 214.78" stroke="#5D5E67" stroke-width="1.71994" stroke-linecap="round" stroke-linejoin="round"/>
<path d="M152.649 239.842C151.545 236.217 152.175 228.414 164.627 224" stroke="#5D5E67" stroke-width="1.71994" stroke-linecap="round" stroke-linejoin="round"/>
<path d="M248.914 80.3812C249.431 79.151 250.288 78.0937 251.384 77.3329" stroke="#5D5E67" stroke-width="1.71994" stroke-linecap="round" stroke-linejoin="round"/>
<path d="M323.287 221.897C323.076 223.407 322.717 224.669 322.175 225.601C317.947 232.871 306.954 242.538 297.186 240.05C287.418 237.563 240.471 195.096 236.289 193.265" stroke="#5D5E67" stroke-width="1.71994" stroke-linecap="round" stroke-linejoin="round"/>
<path d="M316.436 181.468C317.239 183.315 319.973 192.833 321.8 202.727" stroke="#5D5E67" stroke-width="1.71994" stroke-linecap="round" stroke-linejoin="round"/>
<path d="M240.83 181.854C237.371 172.145 229.918 174.807 222.66 181.136" stroke="#5D5E67" stroke-width="1.71994" stroke-linecap="round" stroke-linejoin="round"/>
<path d="M232.812 183.105C230.777 182.956 225.737 184.867 223.436 186.841" stroke="#5D5E67" stroke-width="1.71994" stroke-linecap="round" stroke-linejoin="round"/>
<path d="M234.284 189.16C232.087 189.112 228.505 190.88 225.754 192.227" stroke="#5D5E67" stroke-width="1.71994" stroke-linecap="round" stroke-linejoin="round"/>
<path fill-rule="evenodd" clip-rule="evenodd" d="M280.858 137.027C303.546 129.314 325.361 178.325 324.293 183.463C323.225 188.6 287.513 198.962 283.397 195.718C279.28 192.473 267.717 141.494 280.858 137.027Z" fill="#FE8A71"/>
<path d="M289.492 192.514C285.068 193.253 281.644 193.372 280.53 192.494C278.722 191.068 275.472 180.421 273.516 168.555" stroke="#5D5E67" stroke-width="1.71994" stroke-linecap="round" stroke-linejoin="round"/>
<path d="M285.166 133.145C305.056 136.008 322.382 175.648 321.427 180.239C320.844 183.041 309.95 187.402 299.503 190.25" stroke="#5D5E67" stroke-width="1.71994" stroke-linecap="round" stroke-linejoin="round"/>
<path fill-rule="evenodd" clip-rule="evenodd" d="M295.602 343.713L295.676 265.262L201.773 264.664L201.441 343.713H295.602Z" fill="#3C3744"/>
</g>
<defs>
<clipPath id="clip0">
<rect width="392.045" height="350" fill="white"/>
</clipPath>
</defs>
</svg>
