<svg width="63" height="63" viewBox="0 0 63 63" fill="none" xmlns="http://www.w3.org/2000/svg">
<path d="M55.5882 53.7352H48.5504L50.3357 51.0571L47.2524 49.0016L42.8613 55.5882L47.2524 62.1748L50.3357 60.1192L48.5504 57.4411H59.2941V38.9117L57.4411 37.0588L55.5882 38.9117V53.7352Z" fill="#182A4C"/>
<path d="M62.9993 38.9117H48.1758V24.0882H62.9993V38.9117Z" fill="#FE8A71"/>
<path d="M60.119 12.6643L57.4409 14.4497V3.70593H33.9863L37.0585 5.55887L38.9114 7.41182H53.735V14.4497L51.0569 12.6643L49.0013 15.7477L55.5879 20.1387L62.1745 15.7477L60.119 12.6643Z" fill="#182A4C"/>
<path d="M24.0879 7.41177L31.4997 14.8235L33.3526 7.41177L31.4997 0L24.0879 7.41177Z" fill="#2EE6A8"/>
<path d="M38.9118 7.41177L31.5 0V14.8235L38.9118 7.41177Z" fill="#24B3B3"/>
<path d="M9.26375 48.5504L11.9419 50.3358L13.9974 47.2525L7.41081 42.8614L0.824219 47.2525L2.87975 50.3358L5.55787 48.5504V59.2941H24.1054L26.8049 58.1824L26.2451 55.5883H9.26375V48.5504Z" fill="#293E65"/>
<path d="M7.41291 9.26472H14.4506L12.6653 11.9428L15.7488 13.9984L20.1399 7.41178L15.7488 0.825195L12.6653 2.88072L14.4506 5.55884H3.70703V24.0883L5.55997 25.9412L7.41291 24.0883V9.26472Z" fill="#293E65"/>
<path d="M18.5294 38.9117H0V24.0882H18.5294V38.9117Z" fill="#FFE8E3"/>
<path d="M21.9668 63H31.4999L33.3529 57.4411L31.4999 46.4882L21.9668 63Z" fill="#A060E3"/>
<path d="M31.5 46.4882V63H41.033L31.5 46.4882Z" fill="#5F69E1"/>
</svg>
