<svg width="63" height="63" viewBox="0 0 63 63" fill="none" xmlns="http://www.w3.org/2000/svg">
<g clip-path="url(#clip0)">
<path d="M60.9202 37.8122C60.9202 37.8122 59.2962 40.6916 59.0745 41.0237C58.5948 41.9099 57.4505 42.205 56.5643 41.7251C56.1953 41.5036 53.7221 40.1009 53.4268 39.8794C52.43 40.7285 51.2856 41.4299 49.9568 41.9098V44.42C49.9568 45.4534 49.1448 46.2657 48.1111 46.2657H44.4197C43.386 46.2657 42.574 45.4534 42.574 44.42V41.9098C41.2451 41.4299 40.1009 40.7285 39.1041 39.8794L33.3455 42.9803L27.993 43.8292L29.6172 36.6311L35.3758 33.5302C35.2652 32.8657 35.1912 32.2013 35.1912 31.4999C35.1912 30.7985 35.2652 30.1341 35.4127 29.4696L29.6541 26.3687L27.7715 19.5764L33.3825 20.0196L39.1042 23.1203C40.1379 22.2344 41.2823 21.57 42.5741 21.09V18.5801C42.5741 17.5464 43.3861 16.7344 44.4198 16.7344H48.1113C49.145 16.7344 49.957 17.5464 49.957 18.5801V21.0903C51.2859 21.5701 52.3932 22.2715 53.39 23.1205C53.39 23.1205 53.39 23.1205 53.4269 23.1205C53.7959 22.8991 56.2694 21.4963 56.5644 21.2748C57.4506 20.795 58.5579 21.0903 59.0746 21.9393C59.0746 21.9393 60.6988 24.8187 60.9203 25.1508C61.4371 26.0367 61.142 27.1811 60.2559 27.6979C59.8498 27.8825 57.4136 29.2484 57.1183 29.4699C57.2658 30.1343 57.3398 30.7988 57.3398 31.5002C57.3398 32.2015 57.2658 32.866 57.1552 33.5304C57.5613 33.715 59.9607 35.0807 60.2559 35.3022C61.1419 35.8189 61.437 36.9263 60.9202 37.8122Z" fill="#979FEF"/>
<path d="M60.9204 37.8122C60.9204 37.8122 59.2964 40.6916 59.0747 41.0237C58.595 41.9099 57.4507 42.205 56.5645 41.7251C56.1955 41.5036 53.7223 40.1009 53.427 39.8794C52.4301 40.7285 51.2858 41.4299 49.957 41.9098V44.42C49.957 45.4534 49.145 46.2657 48.1113 46.2657H46.2656V16.7344H48.1113C49.145 16.7344 49.957 17.5464 49.957 18.5801V21.0903C51.2859 21.5701 52.3932 22.2715 53.39 23.1205C53.39 23.1205 53.39 23.1205 53.427 23.1205C53.796 22.8991 56.2695 21.4963 56.5645 21.2748C57.4507 20.795 58.558 21.0903 59.0747 21.9393C59.0747 21.9393 60.6989 24.8187 60.9204 25.1508C61.4372 26.0367 61.1421 27.1811 60.2559 27.6979C59.8499 27.8825 57.4137 29.2484 57.1184 29.4699C57.2659 30.1343 57.3398 30.7988 57.3398 31.5002C57.3398 32.2015 57.2659 32.866 57.1553 33.5304C57.5613 33.715 59.9607 35.0807 60.2559 35.3022C61.1421 35.8189 61.4372 36.9263 60.9204 37.8122Z" fill="#737EE6"/>
<path d="M31.3895 54.4235C31.3895 54.4235 29.7655 57.3029 29.5438 57.635C29.0641 58.5212 27.9198 58.8163 27.0336 58.3364C26.6646 58.1149 24.1914 56.7122 23.896 56.4907C22.8992 57.3398 21.7549 58.0043 20.4261 58.5211V61.1543C20.4261 62.1878 19.6141 63 18.5804 63H14.889C13.8553 63 13.0433 62.1878 13.0433 61.1543V58.5211C11.7144 58.0043 10.5702 57.3398 9.57339 56.4907C9.20437 56.7122 6.73089 58.1149 6.43582 58.3364C5.54964 58.8163 4.40542 58.5211 3.92566 57.635C3.70393 57.266 2.30144 54.7559 2.07996 54.4604C1.56316 53.5745 1.85823 52.4672 2.70738 51.9503C2.74429 51.9503 5.51284 50.363 5.84495 50.1415C5.73433 49.4401 5.66038 48.8126 5.66038 48.1112C5.66038 47.4098 5.73433 46.7454 5.88186 46.0809C5.47581 45.8962 3.03936 44.5304 2.74429 44.3089C1.85811 43.7921 1.56304 42.6478 2.07984 41.7619C2.30132 41.3928 3.70381 38.8827 3.92554 38.5873C4.40518 37.7013 5.51284 37.406 6.39866 37.8859C6.39866 37.8859 9.24092 39.5101 9.57327 39.7316C10.607 38.8457 11.7513 38.1813 13.0432 37.7013C13.0432 37.7013 13.0432 31.8688 13.0432 31.4998L16.7346 27.8083L20.426 31.4998C20.426 31.4998 20.426 37.3321 20.426 37.7013C21.7179 38.1812 22.8622 38.8457 23.8959 39.7316L29.6176 36.6309L33.3459 42.98L27.5873 46.0809C27.7349 46.7454 27.8088 47.4098 27.8088 48.1112C27.8088 48.8126 27.7349 49.477 27.6242 50.1415C28.0303 50.326 30.4297 51.6917 30.7249 51.9132C31.6112 52.4302 31.9063 53.5376 31.3895 54.4235Z" fill="#FFE8E3"/>
<path d="M31.3891 54.4235C31.3891 54.4235 29.7652 57.3029 29.5434 57.635C29.0638 58.5212 27.9195 58.8163 27.0333 58.3364C26.6643 58.1149 24.191 56.7122 23.8957 56.4907C22.8989 57.3399 21.7546 58.0043 20.4258 58.5211V61.1543C20.4258 62.1878 19.6138 63 18.5801 63H16.7344V27.8086L20.4258 31.5C20.4258 31.5 20.4258 37.3323 20.4258 37.7016C21.7177 38.1815 22.862 38.8459 23.8957 39.7319L29.6174 36.6312L33.3457 42.9803L27.5871 46.0812C27.7346 46.7456 27.8086 47.4101 27.8086 48.1115C27.8086 48.8128 27.7346 49.4773 27.624 50.1417C28.0301 50.3263 30.4295 51.692 30.7247 51.9135C31.6109 52.4302 31.9059 53.5376 31.3891 54.4235Z" fill="#FE8A71"/>
<path d="M33.383 20.0197L29.6546 26.3688L23.896 23.2679C23.3792 23.7111 22.8257 24.0801 22.2718 24.4491C21.6813 24.7815 21.0535 25.0768 20.4261 25.2983C20.4261 25.2983 20.4261 31.1306 20.4261 31.4998H13.0433C13.0433 31.4998 13.0433 25.6673 13.0433 25.2983C11.7144 24.8184 10.5702 24.117 9.57339 23.2679C9.20437 23.4894 6.73089 24.8921 6.43582 25.1136C5.54964 25.5935 4.40542 25.2983 3.92566 24.4122C3.70393 24.0432 2.30144 21.533 2.07996 21.2376C1.56316 20.3517 1.85823 19.2444 2.70738 18.7274C2.74429 18.7274 5.51285 17.1401 5.84495 16.9187C5.73433 16.2542 5.66038 15.5898 5.66038 14.8884C5.66038 14.187 5.73433 13.5226 5.88186 12.8581C5.47581 12.6734 3.03936 11.3076 2.74429 11.0861C1.85811 10.5693 1.56304 9.42498 2.07984 8.53905C2.30132 8.17003 3.70381 5.65987 3.92554 5.36444C4.40518 4.4785 5.51285 4.18319 6.39866 4.66307C6.39866 4.66307 9.24092 6.28729 9.57327 6.50877C10.607 5.62283 11.7513 4.9585 13.0432 4.4785V1.84566C13.0432 0.811948 13.8552 -3.8147e-05 14.8889 -3.8147e-05H18.5803C19.614 -3.8147e-05 20.426 0.811948 20.426 1.84566V4.47887C21.7179 4.95875 22.8255 5.6232 23.859 6.50914C23.859 6.50914 23.859 6.50914 23.8959 6.50914C24.2649 6.28766 26.7384 4.88492 27.0335 4.66344C27.9197 4.18356 29.027 4.47887 29.5437 5.32789C29.5437 5.32789 31.1679 8.20731 31.3894 8.53942C31.9062 9.42535 31.6111 10.5697 30.7249 11.0865C30.3188 11.2711 27.8826 12.637 27.5873 12.8585C27.7349 13.5229 27.8088 14.1874 27.8088 14.8888C27.8088 15.5901 27.7349 16.2546 27.6242 16.919L33.383 20.0197Z" fill="#FFDA2D"/>
<path d="M33.3826 20.0197L29.6543 26.3688L23.8957 23.2679C23.3789 23.7112 22.8253 24.0802 22.2715 24.4492C21.681 24.7815 21.0532 25.0769 20.4258 25.2983C20.4258 25.2983 20.4258 31.1306 20.4258 31.4999H16.7344V2.28882e-05H18.5801C19.6138 2.28882e-05 20.4258 0.812009 20.4258 1.84573V4.47893C21.7177 4.95881 22.8253 5.62327 23.8588 6.5092C23.8588 6.5092 23.8588 6.5092 23.8957 6.5092C24.2647 6.28772 26.7382 4.88498 27.0333 4.6635C27.9195 4.18362 29.0268 4.47893 29.5434 5.32795C29.5434 5.32795 31.1677 8.20737 31.3891 8.53948C31.9059 9.42541 31.6109 10.5697 30.7247 11.0865C30.3186 11.2711 27.8824 12.6371 27.5871 12.8585C27.7346 13.523 27.8086 14.1875 27.8086 14.8888C27.8086 15.5902 27.7346 16.2546 27.624 16.9191L33.3826 20.0197Z" fill="#FDBF00"/>
<path d="M53.0947 26.5165C52.3934 25.7783 51.2124 25.7783 50.5109 26.5165L46.2656 30.7247L44.4199 32.5704L42.0204 30.2079C41.319 29.4697 40.138 29.4697 39.4365 30.2079C38.6982 30.9093 38.6982 32.0905 39.4365 32.7919L43.1279 36.4833C43.46 36.8525 43.9399 37.0371 44.4198 37.0371C44.8997 37.0371 45.3796 36.8525 45.7117 36.4833L46.2655 35.9297L53.0945 29.1005C53.833 28.3991 53.833 27.2178 53.0947 26.5165Z" fill="#47568C"/>
<path d="M23.5635 43.1278C22.8621 42.3896 21.6811 42.3896 20.9796 43.1278L16.7344 47.336L14.8887 49.1817L12.4891 46.8192C11.7878 46.0811 10.6068 46.0811 9.90527 46.8192C9.16699 47.5206 9.16699 48.7018 9.90527 49.4032L13.5967 53.0946C13.9288 53.4639 14.4087 53.6484 14.8885 53.6484C15.3684 53.6484 15.8483 53.4639 16.1804 53.0946L16.7343 52.541L23.5632 45.7118C24.3018 45.0104 24.3018 43.8292 23.5635 43.1278Z" fill="#47568C"/>
<path d="M23.5635 9.90518C22.8621 9.16702 21.6811 9.16702 20.9796 9.90518L16.7344 14.1134L14.8887 15.9591L12.4891 13.5966C11.7878 12.8584 10.6068 12.8584 9.90527 13.5966C9.16699 14.298 9.16699 15.4792 9.90527 16.1806L13.5967 19.872C13.9288 20.2412 14.4087 20.4258 14.8885 20.4258C15.3684 20.4258 15.8483 20.2412 16.1804 19.872L16.7343 19.3184L23.5632 12.4892C24.3018 11.7878 24.3018 10.6065 23.5635 9.90518Z" fill="#47568C"/>
<path d="M23.5634 12.4892L16.7344 19.3184V14.1134L20.9796 9.90518C21.681 9.16702 22.862 9.16702 23.5635 9.90518C24.3016 10.6065 24.3016 11.7878 23.5634 12.4892Z" fill="#2C3B73"/>
<path d="M23.5634 45.7118L16.7344 52.541V47.336L20.9796 43.1278C21.681 42.3896 22.862 42.3896 23.5635 43.1278C24.3016 43.8292 24.3016 45.0104 23.5634 45.7118Z" fill="#2C3B73"/>
<path d="M53.0946 29.1005L46.2656 35.9297V30.7247L50.5109 26.5165C51.2122 25.7783 52.3932 25.7783 53.0947 26.5165C53.8329 27.2178 53.8329 28.3991 53.0946 29.1005Z" fill="#2C3B73"/>
</g>
<defs>
<clipPath id="clip0">
<rect width="63" height="63" fill="white"/>
</clipPath>
</defs>
</svg>
