<svg width="63" height="63" viewBox="0 0 63 63" fill="none" xmlns="http://www.w3.org/2000/svg">
<g clip-path="url(#clip0)">
<path d="M31.4456 50.028C45.2605 50.028 56.4596 38.8288 56.4596 25.014C56.4596 11.1991 45.2605 0 31.4456 0C17.6308 0 6.43164 11.1991 6.43164 25.014C6.43164 38.8288 17.6308 50.028 31.4456 50.028Z" fill="#FFE8E3"/>
<path d="M11.1809 39.6481L2.57422 54.5672L12.6195 54.0339L17.1833 63.0002L25.1451 49.1973C19.4404 47.7215 14.5417 44.2863 11.1809 39.6481Z" fill="#40596B"/>
<path d="M51.759 39.5734C48.423 44.224 43.5244 47.6717 37.832 49.1722L45.8186 63L50.3824 54.0337L60.4277 54.5669L51.759 39.5734Z" fill="#40596B"/>
<path d="M31.4436 43.145C41.4571 43.145 49.5747 35.0275 49.5747 25.0139C49.5747 15.0004 41.4571 6.88284 31.4436 6.88284C21.4301 6.88284 13.3125 15.0004 13.3125 25.0139C13.3125 35.0275 21.4301 43.145 31.4436 43.145Z" fill="#FE8A71"/>
<path d="M43.8716 23.0545C44.4297 22.5089 44.1196 21.5539 43.3508 21.4423L36.195 20.4006C35.885 20.351 35.6246 20.165 35.4882 19.8797L32.2886 13.3937C31.9413 12.6868 30.9368 12.6868 30.5895 13.3937L27.4023 19.8797C27.2659 20.1526 26.9931 20.351 26.6954 20.4006L19.5397 21.4423C18.7708 21.5539 18.4608 22.5089 19.0189 23.0545L24.1903 28.102C24.4136 28.3252 24.5128 28.6352 24.4632 28.9329L23.2478 36.0514C23.1114 36.8203 23.9299 37.4156 24.6244 37.0435L31.0236 33.6827C31.2964 33.5339 31.6313 33.5339 31.9041 33.6827L38.3033 37.0435C38.9978 37.4031 39.8039 36.8203 39.6799 36.0514L38.4521 28.9329C38.4025 28.6228 38.5017 28.3128 38.725 28.102L43.8716 23.0545Z" fill="white"/>
</g>
<defs>
<clipPath id="clip0">
<rect width="63" height="63" fill="white"/>
</clipPath>
</defs>
</svg>
