<svg width="1924" height="666" viewBox="0 0 1924 666" fill="none" xmlns="http://www.w3.org/2000/svg">
<path d="M1922 531.349C1871.63 341.95 1689.12 -10.1173 1362.07 96.8003C953.258 230.447 961.584 698.603 628.539 531.349C362.104 397.545 99.8317 185.898 2 96.8003" stroke="#FFF6F4" stroke-width="4"/>
<path d="M1656.4 4.88411L1649.36 36.4555L1675.64 27.9959L1656.4 4.88411Z" fill="#FFC56D"/>
<path d="M688.905 623.884L681.862 655.455L708.149 646.996L688.905 623.884Z" fill="#FFC56D"/>
<g opacity="0.22" clip-path="url(#clip0)">
<path d="M1572.39 55.8319L1562.95 53.3031C1562.27 53.1211 1561.86 52.4218 1562.05 51.7423L1563.59 45.9979C1563.77 45.3184 1564.47 44.9147 1565.15 45.0967L1574.58 47.6255C1575.07 47.7543 1575.43 48.1503 1575.51 48.6422C1575.59 49.1329 1575.38 49.6272 1574.97 49.9092L1572.64 51.5035L1573.87 54.0506C1574.08 54.5006 1574.01 55.0333 1573.7 55.4162C1573.38 55.7987 1572.87 55.9607 1572.39 55.8319V55.8319Z" fill="#FE8A71"/>
<path d="M1561.63 58.227C1560.95 58.0449 1560.55 57.3457 1560.73 56.6662L1563.59 45.9979C1563.77 45.3184 1564.47 44.9147 1565.15 45.0967C1565.83 45.2788 1566.23 45.978 1566.05 46.6575L1563.19 57.3258C1563.01 58.0053 1562.31 58.409 1561.63 58.227Z" fill="#5D5E67"/>
<path d="M1566.17 68.2736L1561.88 70.2912C1561.6 70.4266 1561.29 70.4503 1561.01 70.3755C1560.7 70.292 1560.42 70.0935 1560.24 69.7814L1559.07 67.7627L1557.05 68.9282C1556.47 69.2646 1555.75 69.0875 1555.38 68.5497L1552.75 64.7835L1554.55 62.9096L1561.03 56.1149C1561.35 55.7781 1561.83 55.6419 1562.29 55.765C1562.71 55.8257 1563.08 56.2235 1563.19 56.6746L1565.52 65.7609L1566.17 68.2736Z" fill="#ECEFF1"/>
<path d="M1565.15 45.0967C1564.47 44.9147 1563.77 45.3184 1563.59 45.9979L1560.81 56.3461L1561.03 56.1149C1561.35 55.7782 1561.83 55.6419 1562.29 55.765L1565.15 45.0967Z" fill="#181926"/>
<path d="M1562.29 55.765C1561.83 55.6419 1561.35 55.7781 1561.03 56.1149L1560.81 56.3461L1554.55 62.9096L1552.75 64.7835L1555.38 68.5497C1555.55 68.8057 1555.81 68.9802 1556.09 69.0559C1556.4 69.1394 1556.75 69.1048 1557.05 68.9282L1559.07 67.7628L1562.29 55.765Z" fill="#CDD0D2"/>
<path d="M1577.16 90.5343L1560.6 86.0961C1560.17 85.9813 1559.83 85.6516 1559.7 85.227C1559.58 84.8029 1559.68 84.3417 1559.98 84.0133L1572.1 70.5506C1572.42 70.2006 1572.9 70.0537 1573.36 70.1674C1573.87 70.3424 1574.17 70.6411 1574.29 71.0967L1578.72 88.9977C1578.83 89.4348 1578.7 89.8979 1578.38 90.2144C1578.06 90.5293 1577.6 90.6513 1577.16 90.5343V90.5343Z" fill="#FFAD9A"/>
<path d="M1573.36 70.1657C1572.9 70.0521 1572.42 70.1989 1572.11 70.5489L1559.98 84.0117C1559.68 84.3417 1559.58 84.8012 1559.7 85.2254C1559.83 85.6516 1560.17 85.9813 1560.6 86.0961L1568.54 88.2255L1573.38 70.1731C1573.37 70.1713 1573.37 70.1679 1573.36 70.1657Z" fill="#FF7456"/>
<path d="M1570.92 86.8931L1566.17 68.2737L1561.88 70.2913C1561.6 70.4266 1561.29 70.4504 1561.01 70.3756C1560.7 70.292 1560.42 70.0936 1560.24 69.7814L1559.07 67.7628L1557.05 68.9283C1556.47 69.2647 1555.75 69.0876 1555.38 68.5497L1552.75 64.7836L1539.64 78.5273C1539.32 78.8476 1539.21 79.3116 1539.33 79.7462C1539.46 80.1853 1539.8 80.525 1540.23 80.6394L1569.36 88.4454C1569.81 88.5642 1570.26 88.44 1570.59 88.124C1570.91 87.8037 1571.04 87.3277 1570.92 86.8931Z" fill="#FFAD9A"/>
<path d="M1552.75 64.7835L1539.64 78.5273C1539.32 78.8476 1539.22 79.3115 1539.33 79.7462C1539.46 80.1853 1539.81 80.525 1540.23 80.6393L1554.59 84.4874L1559.07 67.7628L1557.06 68.9282C1556.75 69.1032 1556.41 69.1395 1556.09 69.0559C1555.81 68.9798 1555.55 68.8057 1555.38 68.5497L1552.75 64.7835Z" fill="#FE8A71"/>
</g>
<defs>
<clipPath id="clip0">
<rect width="40.7802" height="40.7802" fill="white" transform="translate(1549.55 40.9188) rotate(15)"/>
</clipPath>
</defs>
</svg>
