<svg width="350" height="400" viewBox="0 0 350 400" fill="none" xmlns="http://www.w3.org/2000/svg">
<g clip-path="url(#clip0)">
<path d="M282.208 33.4123C314.025 53.242 341.431 85.2325 347.689 120.936C354.032 156.628 339.23 196.121 319.662 235.326C300.099 274.619 275.777 313.85 236.384 340.801C196.99 367.857 142.529 382.751 100.842 366.006C59.2467 349.349 30.4294 300.969 14.652 254.438C-1.03282 207.904 -3.58913 163.225 4.43066 120.647C12.3618 78.1805 30.7803 37.9081 61.4482 17.901C92.1162 -2.10605 135.037 -1.84001 174.604 2.12747C214.086 6.00627 250.395 13.6713 282.208 33.4123Z" fill="#FFFCFC"/>
<path d="M300.767 399.1C298.141 394.516 263.059 318.516 263.059 312.532C263.059 310.489 274.182 248.066 279.106 247.341C284.03 246.616 295.851 241.654 299.641 240.289C300.081 245.344 326.191 399.1 326.191 399.1H300.767Z" fill="#181926"/>
<path d="M219.551 399.1C219.551 389.137 219.906 241.654 219.906 241.654C219.906 241.654 283.266 244.067 288.606 244.326C288.606 275.028 244.393 375.241 244.393 399.1H219.551Z" fill="#181926"/>
<path d="M255.511 115.94C253.618 112.959 244.816 98.2036 244.037 95.6512C243.258 93.0987 237.868 48.2573 237.868 48.2573L222.657 49.0285C222.657 49.0285 221.003 96.9775 222.657 100.613C224.311 104.249 236.433 127.723 236.433 127.723L245.803 133.68L255.511 115.94Z" fill="white"/>
<path d="M220.068 91.2674C220.168 95.1462 220.368 97.9145 220.719 98.6857C222.373 102.322 234.496 125.795 234.496 125.795L243.865 131.752L253.585 114.016C251.692 111.035 242.889 96.2797 242.11 93.7273C241.332 91.1748 235.941 46.3334 235.941 46.3334L220.731 47.1046C220.731 47.1046 220.11 65.126 220.01 79.9086" stroke="#5D5E67" stroke-width="1.22996" stroke-linecap="round" stroke-linejoin="round"/>
<path d="M324.721 6.85962L336.007 5.76096C336.579 5.70523 337.157 5.7628 337.707 5.9304C338.258 6.09799 338.77 6.37232 339.214 6.73772C339.658 7.10313 340.026 7.55245 340.296 8.06003C340.567 8.56762 340.735 9.12352 340.791 9.69601L343.344 35.9255C343.457 37.0817 343.105 38.2352 342.367 39.1324C341.629 40.0295 340.565 40.5968 339.409 40.7093L328.123 41.808L324.721 6.85962Z" fill="#B2C3FB"/>
<path d="M114.491 27.3211L85.9277 47.7407L117.895 62.2689L328.121 41.7914L324.717 6.84369L114.491 27.3211Z" fill="#D8DFFF"/>
<path d="M268.838 112.069C309.207 112.069 299.945 224.006 299.641 240.289C293.333 247.919 227.894 246.072 219.551 240.898C217.461 223.093 225.141 112.069 268.838 112.069Z" fill="#FE8A71"/>
<path d="M295.843 153.949C301.083 187.25 297.891 228.911 297.713 238.361C294.135 242.687 271.549 243.971 251.137 243.327" stroke="#5D5E67" stroke-width="1.22996" stroke-linecap="round" stroke-linejoin="round"/>
<path d="M218.83 205.7C222.859 166.842 235.683 110.141 266.91 110.141C277.887 110.141 285.194 118.419 290.01 130.799" stroke="#5D5E67" stroke-width="1.22996" stroke-linecap="round" stroke-linejoin="round"/>
<path d="M235.283 242.386C226.654 241.592 219.941 240.412 217.624 238.97C217.323 236.418 217.238 231.949 217.404 226.166" stroke="#5D5E67" stroke-width="1.22996" stroke-linecap="round" stroke-linejoin="round"/>
<path d="M274.324 291.585C268.306 308.989 261.959 324.921 260.081 330.477C256.465 341.176 242.465 389.939 242.465 397.18" stroke="#5D5E67" stroke-width="1.22996" stroke-linecap="round" stroke-linejoin="round"/>
<path d="M286.678 242.02C286.678 249.207 284.199 260.053 280.736 271.763" stroke="#5D5E67" stroke-width="1.22996" stroke-linecap="round" stroke-linejoin="round"/>
<path d="M217.623 365.355V397.172" stroke="#5D5E67" stroke-width="1.22996" stroke-linecap="round" stroke-linejoin="round"/>
<path d="M217.623 238.97V341.5" stroke="#5D5E67" stroke-width="1.22996" stroke-linecap="round" stroke-linejoin="round"/>
<path d="M297.715 238.361C297.715 247.592 320.849 383.053 324.25 397.172" stroke="#5D5E67" stroke-width="1.22996" stroke-linecap="round" stroke-linejoin="round"/>
<path d="M284.165 366.674C275.59 347.681 266.201 325.896 264.115 319.596" stroke="#5D5E67" stroke-width="1.22996" stroke-linecap="round" stroke-linejoin="round"/>
<path d="M298.837 397.172C297.642 395.352 294.928 389.881 291.512 382.605" stroke="#5D5E67" stroke-width="1.22996" stroke-linecap="round" stroke-linejoin="round"/>
<path d="M52.214 169.962C55.949 169.962 58.9769 166.934 58.9769 163.199C58.9769 159.464 55.949 156.436 52.214 156.436C48.479 156.436 45.4512 159.464 45.4512 163.199C45.4512 166.934 48.479 169.962 52.214 169.962Z" fill="#B2C3FB"/>
<path d="M182.412 180.9C185.939 180.9 188.797 178.041 188.797 174.515C188.797 170.989 185.939 168.13 182.412 168.13C178.886 168.13 176.027 170.989 176.027 174.515C176.027 178.041 178.886 180.9 182.412 180.9Z" fill="#FB5D64"/>
<path d="M124.694 324.15C128.22 324.15 131.079 321.291 131.079 317.765C131.079 314.238 128.22 311.38 124.694 311.38C121.167 311.38 118.309 314.238 118.309 317.765C118.309 321.291 121.167 324.15 124.694 324.15Z" fill="white"/>
<path d="M71.7572 57.6583L37.6387 86.9221L100.092 159.736L134.211 130.473L71.7572 57.6583Z" fill="white"/>
<path d="M282.823 98.1961C282.291 102.129 281.281 116.225 281.701 121.122C279.507 123.231 269.039 123.655 264.736 119.857C265.581 115.805 267.524 112.258 266.425 103.818C265.326 95.3776 282.823 98.1961 282.823 98.1961Z" fill="white"/>
<path d="M264.092 114.825C264.898 111.826 265.661 108.298 264.863 102.275C263.768 93.8314 281.265 96.6537 281.265 96.6537C280.733 100.587 279.723 114.683 280.143 119.58C278.439 121.218 271.734 121.839 266.81 120.25" stroke="#5D5E67" stroke-width="1.22996" stroke-linecap="round" stroke-linejoin="round"/>
<path d="M269.404 105.29C280.092 105.29 288.756 93.9248 288.756 79.9047C288.756 65.8846 280.092 54.519 269.404 54.519C258.717 54.519 250.053 65.8846 250.053 79.9047C250.053 93.9248 258.717 105.29 269.404 105.29Z" fill="white"/>
<path d="M248.963 83.8297C248.661 82.023 248.51 80.1942 248.512 78.3624C248.512 64.3432 257.175 52.9767 267.863 52.9767C278.551 52.9767 287.215 64.3432 287.215 78.3624C287.253 83.2807 286.124 88.1379 283.922 92.5358" stroke="#5D5E67" stroke-width="1.22996" stroke-linecap="round" stroke-linejoin="round"/>
<path d="M274.271 102.325C272.263 103.259 270.077 103.744 267.863 103.748C260.83 103.748 254.668 98.8245 251.283 91.4602" stroke="#5D5E67" stroke-width="1.22996" stroke-linecap="round" stroke-linejoin="round"/>
<path d="M259.253 82.2722C259.711 82.2722 260.082 81.2709 260.082 80.0359C260.082 78.8008 259.711 77.7996 259.253 77.7996C258.795 77.7996 258.424 78.8008 258.424 80.0359C258.424 81.2709 258.795 82.2722 259.253 82.2722Z" fill="#5D5E67"/>
<path d="M255.632 80.5834C255.632 82.3917 254.005 85.4377 252.428 87.0918" stroke="#5D5E67" stroke-width="1.22996" stroke-linecap="round" stroke-linejoin="round"/>
<path d="M257.363 95.8131C258.208 95.8131 261.188 94.7451 263.32 91.6336" stroke="#5D5E67" stroke-width="1.22996" stroke-linecap="round" stroke-linejoin="round"/>
<path d="M278.221 86.5134C279.058 87.6469 279.903 95.8364 281.692 96.3723C283.481 96.9082 291.069 82.4919 291.069 76.7084C291.069 66.2518 284.899 42.8248 275.831 42.8248C272.542 42.8248 272.245 47.9066 272.245 49.8768C271.169 47.1778 266.207 41.3943 259.934 41.3943C249.296 41.3943 249.466 51.4191 251.328 59.3232C249.477 58.3053 249.4 58.0084 247.145 58.0084C245.117 58.0084 244.037 60.665 244.037 63.4449C244.037 70.1383 247.634 72.5289 250.438 73.6663C253.241 74.8037 261.307 75.3396 266.631 75.2085C267.283 76.7277 272.183 86.6329 278.221 86.5134Z" fill="#ECC953"/>
<path d="M253.225 72.7294C257.033 73.1728 260.866 73.3608 264.699 73.2923C265.355 74.7844 270.255 84.7051 276.293 84.5855C277.13 85.7191 277.974 93.9085 279.763 94.4445C280.23 94.5871 281.097 93.7042 282.119 92.2198" stroke="#5D5E67" stroke-width="1.22996" stroke-linecap="round" stroke-linejoin="round"/>
<path d="M250.925 42.0267C247.644 45.4968 248.122 51.9512 249.402 57.3916C247.552 56.3737 247.475 56.0768 245.219 56.0768C243.191 56.0768 242.111 58.7333 242.111 61.5133C242.111 66.2557 243.92 68.839 245.967 70.3466" stroke="#5D5E67" stroke-width="1.22996" stroke-linecap="round" stroke-linejoin="round"/>
<path d="M279.055 43.4996C277.474 41.8686 275.751 40.9008 273.904 40.9008C270.615 40.9008 270.318 45.9788 270.318 47.9529C269.242 45.2539 264.28 39.4704 258.007 39.4704C257.725 39.4704 257.452 39.4704 257.186 39.4704" stroke="#5D5E67" stroke-width="1.22996" stroke-linecap="round" stroke-linejoin="round"/>
<path d="M286.442 84.1653C287.984 80.6605 289.141 77.0593 289.141 74.7845C289.141 68.4303 286.87 57.2952 283.049 49.5298" stroke="#5D5E67" stroke-width="1.22996" stroke-linecap="round" stroke-linejoin="round"/>
<path d="M275.199 89.2664C278.57 89.2664 281.303 86.5338 281.303 83.1629C281.303 79.792 278.57 77.0594 275.199 77.0594C271.828 77.0594 269.096 79.792 269.096 83.1629C269.096 86.5338 271.828 89.2664 275.199 89.2664Z" fill="white"/>
<path d="M270.607 76.3422C271.419 75.8727 272.327 75.5962 273.263 75.5343C274.198 75.4723 275.135 75.6266 276.001 75.985C276.868 76.3434 277.64 76.8964 278.258 77.6012C278.876 78.3059 279.324 79.1435 279.566 80.0491C279.808 80.9546 279.839 81.9038 279.656 82.8231C279.472 83.7425 279.08 84.6072 278.508 85.3504C277.937 86.0937 277.202 86.6954 276.361 87.109C275.52 87.5227 274.595 87.7371 273.657 87.7357" stroke="#5D5E67" stroke-width="1.22996" stroke-linecap="round" stroke-linejoin="round"/>
<path d="M257.561 130.279C253.32 128.351 222.81 117.282 220.161 114.625C217.512 111.968 197.709 73.9053 197.073 72.1008C197.64 71.4762 198.677 68.5151 198.615 65.1606C198.554 61.8062 196.398 60.8847 196.233 50.405C196.179 46.8154 190.912 50.6016 190.977 58.0431C184.731 57.565 176.804 42.3235 171.984 49.0362C188.564 82.5111 206.843 134.065 208.382 135.604C209.92 137.142 249.557 157.153 250.443 156.605C251.33 156.058 259.385 132.469 257.561 130.279Z" fill="white"/>
<path d="M295.632 161.506C298.751 149.295 280.005 129.647 259.739 127.723C256.4 129.527 246.553 152.04 247.714 159.239C255.348 167.382 290.689 180.865 295.632 161.506Z" fill="#FE8A71"/>
<path d="M256.484 127.114C252.42 132.411 244.751 150.915 245.784 157.311C247.203 158.826 249.586 160.527 252.551 162.165" stroke="#5D5E67" stroke-width="1.22996" stroke-linecap="round" stroke-linejoin="round"/>
<path d="M257.811 125.795C257.288 126.145 256.838 126.593 256.484 127.114" stroke="#5D5E67" stroke-width="1.22996" stroke-linecap="round" stroke-linejoin="round"/>
<path d="M267.52 168.041C278.994 170.945 290.977 170.258 293.703 159.578C296.167 149.939 285.005 135.673 270.23 129.118" stroke="#5D5E67" stroke-width="1.22996" stroke-linecap="round" stroke-linejoin="round"/>
<path d="M172.734 51.8664C171.855 50.2522 170.956 48.6636 170.035 47.1008C168.763 45.2771 174.496 41.7723 183.627 53.7711" stroke="#5D5E67" stroke-width="1.22996" stroke-linecap="round" stroke-linejoin="round"/>
<path d="M214.347 138.222C210.433 136.074 207.445 134.366 206.45 133.668C203.015 131.231 192.836 91.414 176.025 58.0972" stroke="#5D5E67" stroke-width="1.22996" stroke-linecap="round" stroke-linejoin="round"/>
<path d="M245.754 154.67C244.597 154.227 234.268 148.887 224.443 143.662" stroke="#5D5E67" stroke-width="1.22996" stroke-linecap="round" stroke-linejoin="round"/>
<path d="M200.854 81.4817C197.711 75.4399 195.355 70.7745 195.143 70.173C195.71 69.5484 196.747 66.5873 196.686 63.2328C196.624 59.8784 194.469 58.9569 194.303 48.4772C194.249 44.8876 188.982 48.6738 189.047 56.1153" stroke="#5D5E67" stroke-width="1.22996" stroke-linecap="round" stroke-linejoin="round"/>
<path d="M255.633 128.351C251.392 126.423 220.882 115.354 218.233 112.697C217.138 111.602 213.136 104.492 208.764 96.3878" stroke="#5D5E67" stroke-width="1.22996" stroke-linecap="round" stroke-linejoin="round"/>
<path d="M171.981 202.06L88.6836 223.478L148.878 284.91L171.981 202.06Z" stroke="#D8DFFF" stroke-width="1.22996" stroke-linecap="round" stroke-linejoin="round"/>
</g>
<defs>
<clipPath id="clip0">
<rect width="349.177" height="399.1" fill="white"/>
</clipPath>
</defs>
</svg>
