<svg width="2123" height="638" viewBox="0 0 2123 638" fill="none" xmlns="http://www.w3.org/2000/svg">
<path d="M2120.51 586.284C2064.92 377.304 1863.55 -11.1632 1502.69 106.808C1051.61 254.273 1060.79 770.83 693.317 586.284C399.335 438.646 109.947 205.118 2.00047 106.808" stroke="#FFF6F4" stroke-width="4.41355"/>
<path d="M1827.45 5.38907L1819.67 40.2245L1848.68 30.8904L1827.45 5.38907Z" fill="#FFC56D"/>
<path d="M763.747 591.389L755.975 626.225L784.979 616.89L763.747 591.389Z" fill="#FFC56D"/>
<circle r="11.0339" transform="matrix(-1 0 0 1 1460.68 120.269)" fill="#FFCECE"/>
<g clip-path="url(#clip0)">
<path d="M1734.75 61.6043L1724.33 58.8142C1723.58 58.6133 1723.14 57.8417 1723.34 57.092L1725.04 50.7536C1725.24 50.0039 1726.01 49.5584 1726.76 49.7593L1737.17 52.5495C1737.7 52.6917 1738.1 53.1286 1738.19 53.6713C1738.29 54.2127 1738.05 54.7582 1737.6 55.0694L1735.03 56.8285L1736.38 59.6389C1736.62 60.1355 1736.54 60.7232 1736.19 61.1457C1735.84 61.5677 1735.28 61.7465 1734.75 61.6043Z" fill="#FE8A71"/>
<path d="M1722.88 64.2471C1722.13 64.0462 1721.68 63.2746 1721.88 62.5249L1725.04 50.7536C1725.24 50.0039 1726.01 49.5584 1726.76 49.7593C1727.51 49.9602 1727.95 50.7317 1727.75 51.4815L1724.6 63.2528C1724.4 64.0025 1723.63 64.4479 1722.88 64.2471Z" fill="#5D5E67"/>
<path d="M1727.88 75.3323L1723.15 77.5585C1722.84 77.7078 1722.5 77.734 1722.2 77.6515C1721.85 77.5593 1721.54 77.3404 1721.34 76.9959L1720.06 74.7686L1717.83 76.0545C1717.19 76.4257 1716.39 76.2303 1715.98 75.6369L1713.08 71.4813L1715.07 69.4137L1722.22 61.9164C1722.57 61.5449 1723.1 61.3946 1723.6 61.5304C1724.07 61.5974 1724.48 62.0363 1724.6 62.534L1727.17 72.5598L1727.88 75.3323Z" fill="#ECEFF1"/>
<path d="M1726.76 49.7593C1726.01 49.5584 1725.24 50.0039 1725.04 50.7536L1721.98 62.1718L1722.22 61.9166C1722.57 61.5451 1723.1 61.3947 1723.6 61.5306L1726.76 49.7593Z" fill="#181926"/>
<path d="M1723.6 61.5304C1723.1 61.3946 1722.57 61.5449 1722.22 61.9164L1721.98 62.1716L1715.07 69.4137L1713.08 71.4813L1715.98 75.6369C1716.17 75.9194 1716.46 76.112 1716.77 76.1954C1717.11 76.2876 1717.49 76.2494 1717.83 76.0545L1720.06 74.7686L1723.6 61.5304Z" fill="#CDD0D2"/>
<path d="M1740.01 99.8946L1721.74 94.9974C1721.27 94.8708 1720.89 94.5071 1720.75 94.0386C1720.61 93.5705 1720.73 93.0617 1721.06 92.6993L1734.44 77.8447C1734.78 77.4586 1735.32 77.2965 1735.82 77.4219C1736.38 77.6151 1736.72 77.9446 1736.84 78.4474L1741.74 98.1991C1741.86 98.6813 1741.72 99.1924 1741.36 99.5416C1741.01 99.889 1740.5 100.024 1740.01 99.8946Z" fill="#FFAD9A"/>
<path d="M1735.82 77.4199C1735.32 77.2946 1734.78 77.4566 1734.44 77.8428L1721.06 92.6974C1720.73 93.0616 1720.61 93.5686 1720.75 94.0366C1720.89 94.5069 1721.26 94.8707 1721.74 94.9973L1730.51 97.3469L1735.84 77.428C1735.84 77.4261 1735.83 77.4224 1735.82 77.4199Z" fill="#FF7456"/>
<path d="M1733.13 95.8767L1727.88 75.3323L1723.15 77.5585C1722.84 77.7078 1722.5 77.734 1722.2 77.6515C1721.85 77.5593 1721.54 77.3404 1721.34 76.9959L1720.06 74.7686L1717.83 76.0545C1717.19 76.4257 1716.39 76.2303 1715.98 75.6369L1713.08 71.4813L1698.61 86.646C1698.26 86.9994 1698.15 87.5114 1698.27 87.991C1698.41 88.4754 1698.8 88.8503 1699.27 88.9764L1731.41 97.5896C1731.9 97.7206 1732.4 97.5835 1732.77 97.2349C1733.12 96.8815 1733.26 96.3563 1733.13 95.8767Z" fill="#FFAD9A"/>
<path d="M1713.08 71.4815L1698.61 86.6461C1698.26 86.9996 1698.15 87.5115 1698.27 87.9911C1698.41 88.4755 1698.8 88.8504 1699.27 88.9765L1715.11 93.2225L1720.06 74.7687L1717.83 76.0547C1717.49 76.2477 1717.11 76.2877 1716.77 76.1955C1716.46 76.1116 1716.17 75.9195 1715.98 75.637L1713.08 71.4815Z" fill="#FE8A71"/>
</g>
<defs>
<clipPath id="clip0">
<rect width="44.9964" height="44.9964" fill="white" transform="translate(1709.55 45.1493) rotate(15)"/>
</clipPath>
</defs>
</svg>
