<svg width="63" height="63" viewBox="0 0 63 63" fill="none" xmlns="http://www.w3.org/2000/svg">
<g clip-path="url(#clip0)">
<path d="M44.8716 14.2699L46.0749 16.7078C46.1815 16.9237 46.3875 17.0734 46.6257 17.1079L49.3161 17.4989C49.9161 17.5861 50.1556 18.3234 49.7215 18.7466L47.7747 20.6443C47.6023 20.8124 47.5237 21.0544 47.5643 21.2918L48.0239 23.9714C48.1264 24.5689 47.4992 25.0247 46.9625 24.7425L44.5562 23.4773C44.343 23.3654 44.0885 23.3654 43.8753 23.4773L41.4689 24.7425C40.9323 25.0247 40.3051 24.5689 40.4076 23.9714L40.8672 21.2918C40.9079 21.0545 40.8292 20.8124 40.6568 20.6443L38.71 18.7466C38.2758 18.3234 38.5154 17.5861 39.1154 17.4989L41.8058 17.1079C42.044 17.0734 42.25 16.9237 42.3566 16.7078L43.5598 14.2699C43.8281 13.7261 44.6034 13.7261 44.8716 14.2699Z" fill="#FE8A71"/>
<path d="M43.7432 22.6601L44.2028 19.9805C44.2435 19.7433 44.1647 19.5011 43.9924 19.333L42.0455 17.4353C41.944 17.3364 41.8806 17.22 41.8488 17.099C41.8345 17.102 41.8205 17.1059 41.8058 17.108L39.1154 17.4989C38.5154 17.586 38.2758 18.3234 38.71 18.7466L40.6568 20.6443C40.8292 20.8124 40.9078 21.0545 40.8672 21.2918L40.4076 23.9714C40.3051 24.5689 40.9323 25.0247 41.4689 24.7425L43.8753 23.4774C43.9415 23.4426 44.0118 23.4199 44.0835 23.4068C43.8446 23.2601 43.6881 22.9813 43.7432 22.6601Z" fill="#ED6F54"/>
<path d="M36.4361 1.22859L37.3385 3.05707C37.4184 3.219 37.5729 3.33122 37.7516 3.35718L39.7694 3.6504C40.2194 3.71574 40.3991 4.26871 40.0735 4.58617L38.6133 6.00946C38.484 6.13546 38.425 6.31707 38.4555 6.495L38.8002 8.50472C38.8771 8.95286 38.4067 9.29468 38.0042 9.08304L36.1993 8.13423C36.0395 8.05019 35.8485 8.05019 35.6887 8.13423L33.8839 9.08304C33.4814 9.29468 33.011 8.95286 33.0879 8.50472L33.4325 6.495C33.463 6.31707 33.4041 6.13546 33.2748 6.00946L31.8147 4.58617C31.4891 4.26883 31.6688 3.71574 32.1187 3.6504L34.1366 3.35718C34.3153 3.33122 34.4698 3.219 34.5497 3.05707L35.4521 1.22859C35.6534 0.820938 36.2348 0.820938 36.4361 1.22859Z" fill="#FE8A71"/>
<path d="M28.4604 46.0564H35.032C36.1779 46.0564 37.1591 46.759 37.5701 47.7567C41.4351 46.4942 44.2285 42.8619 44.2285 38.5752C44.2285 33.2406 39.9039 28.916 34.5693 28.916C29.2348 28.916 24.9102 33.2406 24.9102 38.5752C24.9102 41.5921 26.2938 44.2851 28.4604 46.0564Z" fill="#97D729"/>
<path d="M28.4606 46.0566H33.4556C31.2874 44.2858 29.9019 41.5933 29.9019 38.5753C29.9019 34.104 32.9407 30.3439 37.0652 29.2434C36.2689 29.0309 35.4326 28.9161 34.5693 28.9161C29.2348 28.9161 24.9102 33.2407 24.9102 38.5753C24.9103 41.5922 26.2939 44.2852 28.4606 46.0566Z" fill="#8BC727"/>
<path d="M40.7342 53.8755C41.462 53.8755 42.1602 53.5863 42.6747 53.0716L50.336 45.4103C50.3178 45.391 50.3017 45.3704 50.2829 45.3514C49.2111 44.2797 47.4735 44.2797 46.4017 45.3514L38.6143 53.1388C38.2421 53.511 37.7734 53.7631 37.2676 53.8754H40.7342V53.8755Z" fill="#FFE5C2"/>
<path d="M27.9072 54.7686C27.9215 55.7777 28.7436 56.5882 29.7527 56.5882H41.9182C42.646 56.5882 43.3442 56.2991 43.8588 55.7844L51.6461 47.997C52.5877 47.0554 54.0429 46.9417 55.1093 47.6545C55.2417 46.8167 54.9872 45.9299 54.3416 45.2843C53.2699 44.2125 51.5322 44.2125 50.4605 45.2843L42.6731 53.0717C42.1584 53.5864 41.4603 53.8755 40.7325 53.8755H27.8945L27.9072 54.7686Z" fill="#FED2A4"/>
<path d="M55.5279 47.9971C54.4561 46.9254 52.7184 46.9254 51.6467 47.9971L43.8593 55.7845C43.3446 56.2992 42.6466 56.5884 41.9187 56.5884H29.7532C28.744 56.5884 27.9219 55.7778 27.9078 54.7687L27.8887 53.4171C27.8742 52.3877 28.7046 51.5453 29.7343 51.5453H34.9609C36.4525 51.5453 37.7259 50.3856 37.7758 48.8948C37.8278 47.3362 36.5799 46.0564 35.0329 46.0564H17.3652V59.3472L20.9977 60.7991C23.11 61.6435 25.364 62.0772 27.6388 62.0772H43.0582C44.5121 62.0772 45.9063 61.4996 46.9344 60.4716L55.5276 51.8782C56.5996 50.8065 56.5996 49.0688 55.5279 47.9971Z" fill="#FFE5C2"/>
<path d="M46.8985 59.5546H31.4791C29.2043 59.5546 26.9503 59.1209 24.838 58.2766L22.63 57.3941C21.6954 57.0205 21.0825 56.1154 21.0825 55.1088V46.0564H17.3652V59.3472L20.9977 60.7991C23.11 61.6435 25.364 62.0772 27.6388 62.0772H43.0582C44.5121 62.0772 45.9063 61.4996 46.9344 60.4716L47.9543 59.4516C47.6089 59.5193 47.2555 59.5546 46.8985 59.5546Z" fill="#FED2A4"/>
<path d="M7.46737 62.0291H16.5694C17.0087 62.0291 17.3649 61.673 17.3649 61.2336V43.6219C17.3649 43.1826 17.0088 42.8264 16.5694 42.8264H7.46737C7.0281 42.8264 6.67188 43.1825 6.67188 43.6219V61.2336C6.67188 61.6729 7.02797 62.0291 7.46737 62.0291Z" fill="#B3DAFE"/>
<path d="M11.8261 61.2336V43.6219C11.8261 43.1825 12.1822 42.8264 12.6216 42.8264H7.46737C7.0281 42.8264 6.67188 43.1825 6.67188 43.6219V61.2336C6.67188 61.6729 7.02797 62.0291 7.46737 62.0291H12.6217C12.1823 62.029 11.8261 61.6729 11.8261 61.2336Z" fill="#8AC9FE"/>
<path d="M31.4469 19.4041V16.1716C31.4469 15.7984 31.1443 15.4958 30.7711 15.4958H28.417C28.1214 15.4958 27.8634 15.3026 27.7726 15.0213C27.6227 14.5573 27.4359 14.1099 27.2163 13.6821C27.0809 13.4186 27.1265 13.099 27.3359 12.8895L29.0016 11.2238C29.2655 10.9599 29.2655 10.532 29.0016 10.2681L26.7159 7.98242C26.4519 7.71848 26.024 7.71848 25.76 7.98242L24.0942 9.64811C23.8848 9.85753 23.5651 9.90306 23.3017 9.76771C22.874 9.54795 22.4266 9.36128 21.9626 9.21141C21.6813 9.1206 21.4881 8.86257 21.4881 8.56702V6.21288C21.4881 5.83968 21.1855 5.53711 20.8123 5.53711H17.5798C17.2066 5.53711 16.904 5.83968 16.904 6.21288V8.56689C16.904 8.86245 16.7108 9.12048 16.4295 9.21129C15.9655 9.36116 15.5181 9.54782 15.0904 9.76758C14.827 9.90294 14.5073 9.85741 14.2979 9.64798L12.632 7.98217C12.3681 7.71824 11.9402 7.71824 11.6762 7.98217L9.39062 10.2681C9.12669 10.5321 9.12669 10.96 9.39062 11.2238L11.0563 12.8895C11.2657 13.099 11.3113 13.4186 11.1759 13.6821C10.9561 14.1098 10.7694 14.5572 10.6196 15.0213C10.5288 15.3026 10.2708 15.4958 9.97522 15.4958H7.62109C7.24788 15.4958 6.94531 15.7984 6.94531 16.1716V19.4041C6.94531 19.7773 7.24788 20.0799 7.62109 20.0799H9.97522C10.2708 20.0799 10.5288 20.2731 10.6196 20.5544C10.7695 21.0184 10.9561 21.4658 11.1759 21.8935C11.3113 22.1569 11.2657 22.4766 11.0563 22.686L9.39062 24.3517C9.12669 24.6157 9.12669 25.0436 9.39062 25.3074L11.6763 27.5931C11.9403 27.8571 12.3682 27.8571 12.6322 27.5931L14.298 25.9273C14.5074 25.7179 14.8271 25.6724 15.0905 25.8077C15.5182 26.0275 15.9656 26.2142 16.4296 26.364C16.7109 26.4548 16.9041 26.7129 16.9041 27.0084V29.3626C16.9041 29.7358 17.2067 30.0383 17.5799 30.0383H20.8124C21.1856 30.0383 21.4882 29.7358 21.4882 29.3626V27.0084C21.4882 26.7129 21.6814 26.4548 21.9627 26.364C22.4267 26.2142 22.8741 26.0275 23.3018 25.8077C23.5653 25.6724 23.8849 25.7179 24.0944 25.9273L25.7602 27.5931C26.0241 27.8571 26.4521 27.8571 26.716 27.5931L29.0017 25.3074C29.2656 25.0435 29.2656 24.6155 29.0017 24.3517L27.336 22.686C27.1266 22.4766 27.0811 22.1569 27.2164 21.8935C27.4362 21.4658 27.6228 21.0184 27.7727 20.5544C27.8635 20.2731 28.1216 20.0799 28.4171 20.0799H30.7712C31.1443 20.08 31.4469 19.7774 31.4469 19.4041Z" fill="#BAAFB9"/>
<path d="M13.7827 17.7879C13.7827 13.2063 17.1219 9.40632 21.4991 8.68428C21.4923 8.64601 21.4881 8.60701 21.4881 8.56702V6.21288C21.4881 5.83968 21.1855 5.53711 20.8123 5.53711H17.5798C17.2066 5.53711 16.904 5.83968 16.904 6.21288V8.56689C16.904 8.86245 16.7108 9.12048 16.4295 9.21129C15.9655 9.36116 15.5181 9.54782 15.0904 9.76758C14.827 9.90294 14.5073 9.85741 14.2979 9.64798L12.632 7.9823C12.3681 7.71836 11.9402 7.71836 11.6762 7.9823L9.39062 10.2681C9.12669 10.5321 9.12669 10.96 9.39062 11.2238L11.0563 12.8895C11.2657 13.099 11.3113 13.4186 11.1759 13.6821C10.9561 14.1098 10.7694 14.5572 10.6196 15.0213C10.5288 15.3026 10.2708 15.4958 9.97522 15.4958H7.62109C7.24788 15.4958 6.94531 15.7984 6.94531 16.1716V19.4041C6.94531 19.7773 7.24788 20.0799 7.62109 20.0799H9.97522C10.2708 20.0799 10.5288 20.2731 10.6196 20.5544C10.7695 21.0184 10.9561 21.4658 11.1759 21.8935C11.3113 22.1569 11.2657 22.4766 11.0563 22.686L9.39062 24.3517C9.12669 24.6157 9.12669 25.0436 9.39062 25.3075L11.6763 27.5933C11.9403 27.8572 12.3682 27.8572 12.6322 27.5933L14.298 25.9275C14.5074 25.718 14.8271 25.6725 15.0905 25.8079C15.5182 26.0276 15.9656 26.2143 16.4296 26.3641C16.7109 26.455 16.9041 26.713 16.9041 27.0085V29.3627C16.9041 29.7359 17.2067 30.0384 17.5799 30.0384H20.8124C21.1856 30.0384 21.4882 29.7359 21.4882 29.3627V27.0085C21.4882 26.9687 21.4924 26.9297 21.4992 26.8914C17.1219 26.1695 13.7827 22.3696 13.7827 17.7879Z" fill="#AA9EA9"/>
<path d="M19.1961 23.1032C22.1316 23.1032 24.5114 20.7234 24.5114 17.7879C24.5114 14.8524 22.1316 12.4727 19.1961 12.4727C16.2606 12.4727 13.8809 14.8524 13.8809 17.7879C13.8809 20.7234 16.2606 23.1032 19.1961 23.1032Z" fill="#E5E1E5"/>
<path d="M19.1954 19.5829C20.1868 19.5829 20.9904 18.7793 20.9904 17.7879C20.9904 16.7966 20.1868 15.9929 19.1954 15.9929C18.204 15.9929 17.4004 16.7966 17.4004 17.7879C17.4004 18.7793 18.204 19.5829 19.1954 19.5829Z" fill="#BAAFB9"/>
<path d="M19.0533 17.7879C19.0533 17.0944 19.4471 16.494 20.0229 16.195C19.7756 16.0665 19.4954 15.9928 19.1975 15.9928C18.2061 15.9928 17.4023 16.7964 17.4023 17.7879C17.4023 18.7794 18.206 19.5831 19.1975 19.5831C19.4954 19.5831 19.7757 19.5094 20.0229 19.3809C19.4471 19.0819 19.0533 18.4814 19.0533 17.7879Z" fill="#AA9EA9"/>
<path d="M37.6486 17.7115C37.4526 18.3148 37.6129 18.9646 38.0672 19.4074L39.942 21.2349L39.4994 23.8153C39.3921 24.4405 39.6443 25.0606 40.1575 25.4334C40.4474 25.644 40.7868 25.7511 41.1284 25.7511C41.3913 25.7511 41.6556 25.6877 41.8999 25.5593L44.2172 24.341L46.5346 25.5593C47.0959 25.8545 47.7636 25.8062 48.2767 25.4335C48.7899 25.0607 49.0421 24.4408 48.935 23.8154L48.4924 21.235L50.3672 19.4075C50.8214 18.9647 50.9819 18.3149 50.7858 17.7116C50.5898 17.1083 50.0781 16.6769 49.4504 16.5857L46.8594 16.2092L45.7007 13.8614C45.4199 13.2926 44.8515 12.9392 44.2171 12.9392C43.5828 12.9392 43.0144 13.2926 42.7337 13.8614L41.5749 16.2092L38.984 16.5857C38.3564 16.6769 37.8446 17.1083 37.6486 17.7115ZM41.9399 18.0212C42.4788 17.9429 42.9446 17.6045 43.1856 17.1162L44.2172 15.0258L45.2489 17.1163C45.4899 17.6047 45.9556 17.9429 46.4945 18.0212L48.8012 18.3563L47.1322 19.9834C46.7422 20.3635 46.5642 20.9109 46.6563 21.4478L47.0504 23.7452L44.987 22.6604C44.505 22.4071 43.9295 22.4072 43.4474 22.6604L41.3842 23.7451L41.7782 21.4478C41.8704 20.911 41.6926 20.3636 41.3024 19.9834L39.6332 18.3563L41.9399 18.0212Z" fill="black"/>
<path d="M32.4893 6.53305L32.1778 8.34885C32.0825 8.9049 32.3068 9.4564 32.7633 9.78801C33.0212 9.97541 33.3229 10.0705 33.6267 10.0705C33.8606 10.0705 34.0956 10.0142 34.3129 9.89998L35.9436 9.04271L37.5742 9.89998C38.0737 10.1624 38.6673 10.1197 39.1238 9.78801C39.5803 9.4564 39.8046 8.9049 39.7093 8.34885L39.3979 6.53305L40.717 5.24709C41.1211 4.85321 41.2637 4.27526 41.0894 3.73866C40.915 3.20205 40.4599 2.81839 39.9016 2.73718L38.0784 2.47226L37.2631 0.82023C37.0133 0.314262 36.5077 0 35.9436 0C35.3794 0 34.8738 0.314262 34.624 0.82023L33.8087 2.47238L31.9856 2.7373C31.4272 2.81839 30.9721 3.20205 30.7977 3.73866C30.6234 4.27526 30.766 4.85321 31.1701 5.24709L32.4893 6.53305ZM35.6079 1.63714L35.6085 1.63837C35.6084 1.63788 35.6081 1.63751 35.6079 1.63714ZM34.269 4.27059C34.7483 4.20082 35.1623 3.89985 35.3767 3.46562L35.9434 2.3171L36.5102 3.46562C36.7245 3.89985 37.1386 4.20082 37.6181 4.27059L38.8855 4.45479L37.9684 5.34872C37.6216 5.68686 37.4633 6.17375 37.5451 6.65118L37.7616 7.91351L36.6281 7.31747C36.1993 7.09205 35.6873 7.09205 35.2586 7.31747L34.1249 7.91351L34.3414 6.65118C34.4233 6.17375 34.265 5.68673 33.9182 5.34885L33.001 4.45491L34.269 4.27059Z" fill="black"/>
<path d="M38.5635 35.5146L33.9163 40.1618L30.5753 36.8208C30.2149 36.4604 29.6306 36.4604 29.2703 36.8208C28.9099 37.1812 28.9099 37.7656 29.2703 38.1259L33.2639 42.1194C33.4441 42.2995 33.6803 42.3897 33.9164 42.3897C34.1526 42.3897 34.3888 42.2996 34.5689 42.1194L39.8687 36.8196C40.2291 36.4592 40.2291 35.8748 39.8687 35.5146C39.5082 35.1542 38.9238 35.1542 38.5635 35.5146Z" fill="black"/>
<path d="M56.1789 47.3445C56.1418 47.3073 56.1036 47.2717 56.0652 47.2363C56.0697 46.2682 55.6928 45.3312 54.9933 44.6317C54.3006 43.9391 53.3797 43.5576 52.4002 43.5576C51.6459 43.5576 50.9268 43.7846 50.3196 44.205C49.7341 43.8278 49.0527 43.6249 48.3396 43.6249C47.36 43.6249 46.4392 44.0064 45.7465 44.699L37.959 52.4864C37.7331 52.7122 37.4578 52.8699 37.1581 52.9527H28.9205C28.9616 52.8769 29.0131 52.8062 29.0754 52.7431C29.2502 52.5657 29.4835 52.4682 29.7326 52.4682H34.9593C36.9546 52.4682 38.6311 50.879 38.6964 48.9258C38.7032 48.7231 38.693 48.5228 38.6678 48.326C41.6065 47.0872 43.9165 44.5521 44.7838 41.3382C44.9167 40.8461 44.6253 40.3396 44.1333 40.2068C43.6411 40.0738 43.1346 40.3652 43.0018 40.8573C42.288 43.5017 40.3913 45.5901 37.9762 46.6164C37.8817 46.4897 37.7794 46.3675 37.6674 46.2517C36.9701 45.5308 36.0338 45.1337 35.031 45.1337H28.8049C26.9838 43.5315 25.832 41.1859 25.832 38.5753C25.832 33.7582 29.7512 29.839 34.5683 29.839C38.7717 29.839 42.3821 32.8341 43.1532 36.9606C43.2468 37.4616 43.729 37.7919 44.2299 37.6982C44.7309 37.6046 45.0612 37.1226 44.9675 36.6216C44.0333 31.6219 39.6599 27.9932 34.5683 27.9932C28.7334 27.9932 23.9863 32.7403 23.9863 38.5752C23.9863 41.051 24.8433 43.329 26.273 45.1336H18.2865V43.622C18.2865 42.6745 17.5156 41.9036 16.5682 41.9036H7.4664C6.51894 41.9036 5.74805 42.6745 5.74805 43.622V61.2337C5.74805 62.1811 6.51894 62.952 7.4664 62.952H16.5684C17.5159 62.952 18.2868 62.1811 18.2868 61.2337V60.71L20.6539 61.6561C22.885 62.5478 25.2347 63 27.6375 63H43.0568C44.7677 63 46.376 62.3337 47.5856 61.124L50.5867 58.1229C50.9471 57.7625 50.9471 57.1782 50.5867 56.8179C50.2264 56.4575 49.6421 56.4575 49.2817 56.8179L46.2805 59.819C45.4195 60.6801 44.2746 61.1543 43.0568 61.1543H27.6375C25.4705 61.1543 23.3513 60.7465 21.3389 59.9422L18.2868 58.7223V46.9793H35.0311C35.5292 46.9793 35.9943 47.1765 36.3408 47.5347C36.687 47.8927 36.8685 48.3648 36.8517 48.8641C36.8192 49.8336 35.9703 50.6225 34.9593 50.6225H29.7326C28.9857 50.6225 28.2856 50.9153 27.7611 51.4473C27.2367 51.9792 26.9537 52.6834 26.9643 53.4302L26.9834 54.7818C27.0046 56.2868 28.2464 57.5114 29.7517 57.5114H41.9173C42.8969 57.5114 43.8178 57.1298 44.5104 56.4372L52.2979 48.6498C53.0081 47.9396 54.1639 47.9397 54.874 48.6498C55.5841 49.36 55.5841 50.5157 54.874 51.2259L52.3271 53.7728C51.9667 54.1332 51.9667 54.7176 52.3271 55.0779C52.6874 55.4383 53.2717 55.4383 53.6321 55.0779L56.1791 52.5309C57.6087 51.1009 57.6087 48.7743 56.1789 47.3445ZM16.4409 61.1062H7.59375V43.7493H16.4409V61.1062ZM52.4 45.4033C52.8866 45.4033 53.3439 45.5928 53.6881 45.9368C53.7961 46.0449 53.8887 46.1644 53.9648 46.2922C52.9038 46.1829 51.8039 46.5333 50.9926 47.3445L43.2051 55.1319C42.8611 55.4759 42.4037 55.6654 41.9172 55.6654H29.7515C29.2643 55.6654 28.8609 55.2802 28.8315 54.7983H40.7314C41.7108 54.7983 42.6318 54.4169 43.3246 53.7242L51.1121 45.9368C51.4562 45.5928 51.9135 45.4033 52.4 45.4033ZM47.0514 46.0042C47.3955 45.6601 47.853 45.4707 48.3395 45.4707C48.5273 45.4707 48.7105 45.4997 48.8847 45.554L42.0194 52.4192C41.6753 52.7632 41.2178 52.9527 40.7313 52.9527H40.1027L47.0514 46.0042Z" fill="black"/>
<path d="M7.62023 21.0029H9.79545C9.93056 21.3967 10.0916 21.7847 10.2763 22.1602L8.73725 23.6993C8.43517 24.0013 8.26894 24.4027 8.26894 24.8299C8.26894 25.257 8.4353 25.6583 8.73725 25.9603L11.023 28.2461C11.6463 28.8694 12.6605 28.8695 13.2838 28.2461L14.823 26.7071C15.1986 26.8916 15.5865 27.053 15.9804 27.1879V29.3632C15.9804 30.2447 16.6976 30.9619 17.5792 30.9619H20.8117C21.6932 30.9619 22.4105 30.2447 22.4105 29.3632V27.1879C22.8043 27.053 23.1923 26.8918 23.5678 26.7071L25.107 28.2461C25.7303 28.8695 26.7447 28.8694 27.3679 28.2461L29.6535 25.9604C29.9556 25.6585 30.1218 25.2571 30.1218 24.83C30.1218 24.4029 29.9555 24.0014 29.6535 23.6996L28.1144 22.1605C28.299 21.785 28.4603 21.397 28.5953 21.0031H30.7705C31.652 21.0031 32.3693 20.2859 32.3693 19.4044V16.1718C32.3693 15.2903 31.652 14.5731 30.7705 14.5731H28.5954C28.4603 14.1791 28.2991 13.791 28.1145 13.4157L29.6536 11.8766C30.277 11.2533 30.277 10.2391 29.6536 9.61574L27.3679 7.33003C26.7447 6.70667 25.7304 6.70667 25.107 7.33003L23.5678 8.8691C23.1924 8.68453 22.8045 8.52333 22.4105 8.38823V6.21301C22.4105 5.3315 21.6932 4.61426 20.8117 4.61426H17.5792C16.6976 4.61426 15.9804 5.3315 15.9804 6.21301V8.3881C15.5864 8.52321 15.1984 8.6844 14.823 8.86897L13.2838 7.3299C12.6606 6.70655 11.6462 6.70667 11.023 7.3299L8.73713 9.61562C8.11377 10.239 8.11377 11.2531 8.73713 11.8765L10.2762 13.4156C10.0916 13.791 9.93031 14.1791 9.79533 14.5729H7.62023C6.73872 14.5729 6.02148 15.2902 6.02148 16.1717V19.4042C6.02161 20.2856 6.73872 21.0029 7.62023 21.0029ZM7.86731 16.4186H9.97437C10.6699 16.4186 11.2817 15.9711 11.4971 15.3049C11.6296 14.8943 11.7976 14.4902 11.9961 14.1038C12.3166 13.4799 12.2009 12.7297 11.7082 12.2371L10.2169 10.7461L12.1533 8.80966L13.6445 10.3007C14.1372 10.7934 14.8874 10.9091 15.5112 10.5887C15.8977 10.3901 16.3018 10.2221 16.7122 10.0896C17.3783 9.87451 17.826 9.26272 17.826 8.56689V6.45996H20.5645V8.56702C20.5645 9.26272 21.0122 9.87463 21.6781 10.0896C22.0886 10.2222 22.4927 10.3901 22.8793 10.5887C23.5032 10.9091 24.2533 10.7935 24.7459 10.3007L26.2371 8.80966L28.1735 10.7461L26.6824 12.2371C26.1897 12.7298 26.0741 13.4799 26.3945 14.104C26.593 14.4904 26.7609 14.8945 26.8936 15.3051C27.1088 15.9711 27.7206 16.4186 28.4161 16.4186H30.5232V19.1572H28.416C27.7204 19.1572 27.1086 19.6047 26.8933 20.2709C26.7608 20.6812 26.593 21.0853 26.3944 21.472C26.0739 22.0959 26.1896 22.8461 26.6823 23.3387L28.1734 24.8298L26.2371 26.7661L24.746 25.2751C24.2533 24.7823 23.5032 24.6665 22.8792 24.987C22.4925 25.1856 22.0886 25.3536 21.6781 25.4861C21.012 25.7013 20.5645 26.3131 20.5645 27.0087V29.1158H17.826V27.0088C17.826 26.3132 17.3785 25.7014 16.7123 25.4861C16.3019 25.3536 15.8978 25.1857 15.5114 24.9871C14.8873 24.6666 14.137 24.7823 13.6445 25.2751L12.1533 26.7661L10.217 24.8298L11.7081 23.3387C12.2008 22.846 12.3164 22.0959 11.996 21.4719C11.7974 21.0853 11.6295 20.6813 11.4969 20.2709C11.2817 19.6048 10.6699 19.1573 9.97437 19.1573H7.86731V16.4186Z" fill="black"/>
<path d="M19.1953 24.026C21.6637 24.026 23.9038 22.5661 24.9022 20.3067C25.1082 19.8405 24.8973 19.2956 24.4312 19.0895C23.9651 18.8836 23.4201 19.0944 23.214 19.5605C22.5106 21.152 20.9332 22.1803 19.1951 22.1803C16.7731 22.1803 14.8027 20.2098 14.8027 17.7879C14.8027 15.366 16.7732 13.3955 19.1951 13.3955C20.927 13.3955 22.5023 14.4189 23.2082 16.0026C23.4156 16.4682 23.9611 16.6773 24.4268 16.4698C24.8923 16.2623 25.1015 15.7167 24.8941 15.2512C23.8918 13.0026 21.6548 11.5497 19.1951 11.5497C15.7554 11.5497 12.957 14.3481 12.957 17.7878C12.957 21.2274 15.7555 24.026 19.1953 24.026Z" fill="black"/>
<path d="M16.4766 17.7879C16.4766 19.2866 17.6958 20.5058 19.1944 20.5058C20.693 20.5058 21.9123 19.2865 21.9123 17.7879C21.9123 16.2893 20.693 15.0701 19.1944 15.0701C17.6958 15.0701 16.4766 16.2892 16.4766 17.7879ZM20.0667 17.7879C20.0667 18.2689 19.6754 18.6601 19.1945 18.6601C18.7137 18.6601 18.3224 18.2688 18.3224 17.7879C18.3224 17.3071 18.7137 16.9158 19.1945 16.9158C19.6754 16.9158 20.0667 17.3069 20.0667 17.7879Z" fill="black"/>
</g>
<defs>
<clipPath id="clip0">
<rect width="63" height="63" fill="white"/>
</clipPath>
</defs>
</svg>
