<svg width="63" height="63" viewBox="0 0 63 63" fill="none" xmlns="http://www.w3.org/2000/svg">
<g clip-path="url(#clip0)">
<path fill-rule="evenodd" clip-rule="evenodd" d="M8.65039 2.25004V35.4834H14.3998L49.2052 6.4233V2.25004C49.2052 1.51902 48.6054 0.922859 47.8743 0.922859H9.98127C9.25024 0.922859 8.65039 1.51902 8.65039 2.25004Z" fill="#C6D0DA"/>
<path fill-rule="evenodd" clip-rule="evenodd" d="M15.5397 6.42332C14.9115 6.42332 14.4004 6.93434 14.4004 7.55892V35.4834L33.8313 38.4537L51.7113 27.9318V7.55892C51.7113 6.93434 51.2003 6.42332 50.572 6.42332H49.2057H15.5397Z" fill="#FAF8F9"/>
<path fill-rule="evenodd" clip-rule="evenodd" d="M25.9202 12.9209C24.5254 14.525 22.7864 15.2417 20.5754 15.4334C20.3234 15.4547 20.1885 15.4121 20.1744 15.696C19.8869 21.278 22.4457 24.479 25.9416 26.7785C26.0161 26.8282 25.9949 26.8282 26.0693 26.7785C29.5651 24.4824 32.1239 21.278 31.8399 15.696C31.8222 15.4121 31.6874 15.4547 31.4354 15.4334C29.2243 15.2418 27.4889 14.525 26.094 12.9209C25.9876 12.8004 26.023 12.8004 25.9202 12.9209Z" fill="#CCF49F"/>
<path fill-rule="evenodd" clip-rule="evenodd" d="M30.4745 35.4834H14.401H8.65153H8.14052C6.71022 35.4834 5.53906 36.6544 5.53906 38.0846V55.9523C5.53906 57.3824 6.71022 58.5535 8.14052 58.5535H32.9021H52.2656H54.8635C56.2938 58.5535 57.465 57.3824 57.465 55.9523V31.1434C57.465 29.3762 56.0169 27.9283 54.2495 27.9283L51.7119 27.9319L49.2063 27.9355L37.8992 27.9532C36.9196 27.9568 36.0537 28.1483 35.5 29.8269L34.2968 33.4608C33.9987 35.4018 32.5827 35.4834 30.4745 35.4834Z" fill="#FFE8E3"/>
<path fill-rule="evenodd" clip-rule="evenodd" d="M34.139 46.1507C33.3973 46.5979 32.9004 47.4105 32.9004 48.3332V58.5534V59.5293C32.9004 60.931 34.0467 62.0772 35.4486 62.0772H49.7156C51.1175 62.0772 52.2638 60.931 52.2638 59.5293V58.5534V48.3332C52.2638 46.935 51.1175 45.7853 49.7156 45.7853H49.2046H48.6013H36.563H35.4486C34.9694 45.7852 34.5223 45.92 34.139 46.1507ZM40.3426 53.1878C40.3426 51.9493 41.3435 50.945 42.5821 50.945C43.8207 50.945 44.8215 51.9493 44.8215 53.1878C44.8215 54.4227 43.8207 55.427 42.5821 55.427C41.3435 55.427 40.3426 54.4227 40.3426 53.1878Z" fill="#C6D0DA"/>
<path fill-rule="evenodd" clip-rule="evenodd" d="M42.5832 50.9449C41.3446 50.9449 40.3438 51.9492 40.3438 53.1877C40.3438 54.4226 41.3446 55.4269 42.5832 55.4269C43.8218 55.4269 44.8227 54.4226 44.8227 53.1877C44.8227 51.9492 43.8218 50.9449 42.5832 50.9449Z" fill="#685D68"/>
<path fill-rule="evenodd" clip-rule="evenodd" d="M49.2064 6.42331L42.5059 6.41974C46.5482 12.6583 47.8932 20.6393 46.8463 27.9389L49.2065 27.9353L51.7121 27.9318V7.55891C51.7121 6.93432 51.2011 6.42331 50.5728 6.42331H49.2064Z" fill="#E5E1E5"/>
<path fill-rule="evenodd" clip-rule="evenodd" d="M49.2049 27.9353L47.3984 27.9389C48.0692 27.9425 48.6903 28.1553 49.2049 28.5102C49.4285 28.6664 49.6308 28.8474 49.8082 29.0532C50.2979 29.6175 50.5961 30.352 50.5961 31.154V44.9015V45.9449C51.5685 46.3033 52.2641 47.2402 52.2641 48.3331V58.5532H54.862C56.2923 58.5532 57.4634 57.3822 57.4634 55.952V31.1434C57.4634 29.3762 56.0154 27.9283 54.248 27.9283L51.7104 27.9319L49.2049 27.9353Z" fill="#FE8A71"/>
<path fill-rule="evenodd" clip-rule="evenodd" d="M49.0911 48.3332V58.5534V59.5293C49.0911 60.931 47.9448 62.0772 46.543 62.0772H49.7157C51.1176 62.0772 52.2639 60.931 52.2639 59.5293V58.5534V48.3332C52.2639 47.2402 51.5683 46.3034 50.5959 45.945C50.319 45.8421 50.0245 45.7853 49.7157 45.7853H49.2047H48.6014H46.543C47.0221 45.7853 47.4693 45.9202 47.8526 46.1509C48.5943 46.5979 49.0911 47.4105 49.0911 48.3332Z" fill="#A0AAB7"/>
<path fill-rule="evenodd" clip-rule="evenodd" d="M27.392 14.0991C27.463 14.7094 27.4985 15.3304 27.4985 15.9621C27.4985 19.5782 26.2883 22.9069 24.2617 25.5294C24.6024 25.8204 24.9609 26.0937 25.33 26.3598C25.5287 26.5018 25.7346 26.6401 25.9404 26.7785C26.015 26.8282 25.9937 26.8282 26.0682 26.7785C28.0023 25.5081 29.6491 23.9609 30.6855 21.885C31.5267 20.2101 31.9631 18.1909 31.8389 15.6961C31.8212 15.4122 31.6864 15.4548 31.4344 15.4335C29.8622 15.2985 28.5313 14.8939 27.392 14.0991Z" fill="#95D6A4"/>
<path d="M31.5858 14.5182C31.5631 14.5171 31.5388 14.516 31.5147 14.514C29.4107 14.3316 27.9537 13.6535 26.7855 12.3101L26.7643 12.285C26.5539 12.0319 26.2917 11.9049 25.997 11.9076C25.6984 11.9103 25.4429 12.0416 25.2374 12.2979L25.2187 12.3209C24.0562 13.6554 22.599 14.3318 20.4974 14.5139C20.4712 14.5162 20.4468 14.5172 20.4242 14.5183C19.4151 14.569 19.2684 15.3265 19.2523 15.6486C18.986 20.8188 20.9503 24.6004 25.4379 27.5523C25.615 27.6758 25.8093 27.7376 26.0041 27.7376C26.1998 27.7376 26.396 27.6751 26.5757 27.5499C31.059 24.6054 33.0247 20.8239 32.7609 15.6384C32.7406 15.3182 32.5859 14.5685 31.5858 14.5182ZM26.0051 25.7067C22.5495 23.2862 21.0101 20.353 21.0761 16.3095C23.1162 16.0666 24.7098 15.3738 26.0066 14.1599C27.3036 15.3741 28.8966 16.0671 30.9368 16.3099C31.0006 20.354 29.4614 23.2873 26.0051 25.7067Z" fill="black"/>
<path d="M45.677 11.9909H37.6846C37.1748 11.9909 36.7617 12.4039 36.7617 12.9137C36.7617 13.4235 37.1748 13.8366 37.6846 13.8366H45.677C46.1867 13.8366 46.5998 13.4235 46.5998 12.9137C46.5998 12.4039 46.1866 11.9909 45.677 11.9909Z" fill="black"/>
<path d="M45.677 16.4695H37.6846C37.1748 16.4695 36.7617 16.8825 36.7617 17.3923C36.7617 17.9021 37.1748 18.3152 37.6846 18.3152H45.677C46.1867 18.3152 46.5998 17.9021 46.5998 17.3923C46.5998 16.8825 46.1866 16.4695 45.677 16.4695Z" fill="black"/>
<path d="M45.677 20.9477H37.6846C37.1748 20.9477 36.7617 21.3608 36.7617 21.8706C36.7617 22.3803 37.1748 22.7934 37.6846 22.7934H45.677C46.1867 22.7934 46.5998 22.3803 46.5998 21.8706C46.5998 21.3608 46.1866 20.9477 45.677 20.9477Z" fill="black"/>
<path d="M54.2469 27.0055L52.6338 27.0079V7.55889C52.6338 6.42391 51.7087 5.50044 50.5716 5.50044H50.1282V2.25004C50.1282 1.00935 49.1171 0 47.8743 0H9.98143C8.73866 0 7.7277 1.00935 7.7277 2.25004V34.5854C5.97786 34.79 4.61523 36.2807 4.61523 38.0846V55.9521C4.61523 57.8954 6.19626 59.4763 8.13954 59.4763H15.7025C16.2122 59.4763 16.6253 59.0632 16.6253 58.5535C16.6253 58.0437 16.2122 57.6306 15.7025 57.6306H8.13954C7.21398 57.6306 6.46094 56.8777 6.46094 55.9521V38.0846C6.46094 37.1592 7.21398 36.4062 8.13954 36.4062H30.4735C32.3724 36.4062 34.7312 36.4061 35.1951 33.681L36.3754 30.116C36.783 28.88 37.2522 28.8782 37.8997 28.876L54.2485 28.8512C55.5126 28.8512 56.5411 29.8794 56.5411 31.1434V55.9521C56.5411 56.8776 55.7882 57.6306 54.8625 57.6306H53.1875V48.3332C53.1875 46.4193 51.6305 44.8624 49.7165 44.8624H49.5249V42.4352C49.5249 40.0772 47.6079 38.1588 45.2517 38.1588H39.9174C37.5593 38.1588 35.6408 40.0772 35.6408 42.4352V44.8624H35.4492C33.5352 44.8624 31.9781 46.4193 31.9781 48.3332V57.6306H20.5184C20.0088 57.6306 19.5956 58.0437 19.5956 58.5535C19.5956 59.0632 20.0088 59.4763 20.5184 59.4763H31.9781V59.5293C31.9781 61.4432 33.5352 63.0001 35.4492 63.0001H49.7162C51.6302 63.0001 53.1872 61.4432 53.1872 59.5293V59.4763H54.8623C56.8056 59.4763 58.3866 57.8954 58.3866 55.9521V31.1434C58.3867 28.8618 56.5303 27.0055 54.2469 27.0055ZM37.8949 27.0303C36.6843 27.0346 35.3489 27.3358 34.6228 29.5368L33.4198 33.1706C33.4035 33.2195 33.3916 33.2698 33.3837 33.3206C33.2218 34.3751 32.7866 34.5605 30.4735 34.5605H15.3229V7.55889C15.3229 7.4436 15.4219 7.34614 15.5393 7.34614H24.827C25.3367 7.34614 25.7499 6.93308 25.7499 6.42329C25.7499 5.91351 25.3367 5.50044 24.827 5.50044H15.5393C14.4023 5.50044 13.4772 6.42391 13.4772 7.55889V34.5605H9.57341V2.25004C9.57341 2.03089 9.76032 1.8457 9.98143 1.8457H47.8743C48.0956 1.8457 48.2824 2.03089 48.2824 2.25004V5.50044H29.1639C28.6543 5.50044 28.2411 5.91351 28.2411 6.42329C28.2411 6.93308 28.6543 7.34614 29.1639 7.34614H50.5716C50.6889 7.34614 50.7881 7.4436 50.7881 7.55889V27.0108L37.8949 27.0303ZM37.4866 42.4352C37.4866 41.0948 38.577 40.0045 39.9175 40.0045H45.2518C46.5903 40.0045 47.6793 41.0948 47.6793 42.4352V44.8624H37.4867V42.4352H37.4866ZM51.3417 59.5292C51.3417 60.4252 50.6125 61.1543 49.7163 61.1543H35.4493C34.5532 61.1543 33.824 60.4252 33.824 59.5292V48.3332C33.824 47.4372 34.5532 46.7081 35.4493 46.7081H49.7163C50.6125 46.7081 51.3417 47.4372 51.3417 48.3332V59.5292Z" fill="black"/>
<path d="M42.5821 50.0222C40.8384 50.0222 39.4199 51.4422 39.4199 53.1878C39.4199 54.6105 40.3644 55.8163 41.6593 56.2122V58.1559C41.6593 58.6657 42.0723 59.0788 42.5821 59.0788C43.0919 59.0788 43.505 58.6657 43.505 58.1559V56.2122C44.7998 55.8163 45.7444 54.6105 45.7444 53.1878C45.7444 51.4422 44.3257 50.0222 42.5821 50.0222ZM42.5821 54.5041C41.8563 54.5041 41.2656 53.9136 41.2656 53.1878C41.2656 52.46 41.8563 51.8679 42.5821 51.8679C43.3081 51.8679 43.8987 52.46 43.8987 53.1878C43.8987 53.9136 43.3081 54.5041 42.5821 54.5041Z" fill="black"/>
</g>
<defs>
<clipPath id="clip0">
<rect width="63" height="63" fill="white"/>
</clipPath>
</defs>
</svg>
