<svg width="63" height="63" viewBox="0 0 63 63" fill="none" xmlns="http://www.w3.org/2000/svg">
<path d="M6.89115 31.5C6.89024 26.632 8.33306 21.8732 11.0371 17.8253C13.7412 13.7775 17.585 10.6225 22.0823 8.75954C26.5796 6.89654 31.5285 6.40919 36.3028 7.35912C41.0772 8.30906 45.4626 10.6536 48.9043 14.0962L51.6861 11.3144C46.3269 5.98797 39.0746 3.00351 31.5187 3.01511C23.9628 3.02671 16.7197 6.03342 11.3768 11.3763C6.03397 16.7191 3.02726 23.9622 3.01566 31.5181C3.00406 39.074 5.98852 46.3263 11.3149 51.6856L14.0968 48.9037C11.8091 46.62 9.99502 43.907 8.75849 40.9204C7.52196 37.9338 6.88738 34.7324 6.89115 31.5Z" fill="#FFE8E3"/>
<path d="M60.0469 37.4063V25.5938H52.3334C51.8797 23.9729 51.2347 22.4119 50.4119 20.9436L55.8623 15.4941L51.6856 11.3174L48.9038 14.0963L40.5484 22.4516C42.9119 24.8589 44.2291 28.1021 44.2136 31.4757C44.1981 34.8492 42.8511 38.0802 40.4656 40.4656C38.0802 42.8511 34.8492 44.1981 31.4757 44.2136C28.1022 44.2291 24.859 42.9118 22.4517 40.5484L14.0963 48.9038L11.3145 51.6856L15.4912 55.8623L20.9407 50.4118C22.4099 51.2348 23.9719 51.8799 25.5938 52.3333V60.0469H37.4063V52.3333C39.0271 51.8797 40.5882 51.2346 42.0565 50.4118L47.506 55.8623L55.8594 47.5089L50.4089 42.0594C51.2329 40.5903 51.879 39.0283 52.3334 37.4063H60.0469Z" fill="#FFE8E3"/>
<path d="M31.5 34.4532C33.131 34.4532 34.4531 33.131 34.4531 31.5001C34.4531 29.8691 33.131 28.5469 31.5 28.5469C29.869 28.5469 28.5469 29.8691 28.5469 31.5001C28.5469 33.131 29.869 34.4532 31.5 34.4532Z" fill="#FFE8E3"/>
<path d="M30.5176 55.125H32.4863V57.0938H30.5176V55.125Z" fill="#FE8A71"/>
<path d="M47.5 48.9018L48.8921 47.5097L50.2842 48.9018L48.8921 50.2939L47.5 48.9018Z" fill="#FE8A71"/>
<path d="M55.127 30.5156H57.0957V32.4844H55.127V30.5156Z" fill="#FE8A71"/>
<path d="M60.0476 24.6094H53.0684C52.6875 23.4083 52.2051 22.2419 51.6263 21.1227L56.559 16.189C56.7435 16.0044 56.8472 15.7541 56.8472 15.4931C56.8472 15.232 56.7435 14.9817 56.559 14.7971L52.3823 10.6214C49.6497 7.83636 46.3924 5.62043 42.7985 4.1016C39.2046 2.58278 35.3454 1.79119 31.4438 1.77255C27.5422 1.75392 23.6755 2.50862 20.0673 3.99304C16.459 5.47747 13.1807 7.66219 10.4217 10.421C7.66274 13.1798 5.47778 16.4579 3.9931 20.0661C2.50842 23.6742 1.75345 27.5408 1.77181 31.4424C1.79017 35.344 2.58149 39.2033 4.10006 42.7973C5.61863 46.3914 7.83433 49.6488 10.6192 52.3815L14.7949 56.5582C14.9795 56.7428 15.2298 56.8464 15.4908 56.8464C15.7519 56.8464 16.0022 56.7428 16.1868 56.5582L21.1205 51.6255C22.2407 52.2041 23.4081 52.6862 24.6101 53.0667V60.0469C24.6101 60.3079 24.7138 60.5583 24.8984 60.7429C25.083 60.9275 25.3334 61.0312 25.5945 61.0312H37.407C37.668 61.0312 37.9184 60.9275 38.103 60.7429C38.2876 60.5583 38.3913 60.3079 38.3913 60.0469V53.0676C39.5923 52.687 40.7588 52.2049 41.878 51.6265L46.8117 56.5592C46.9963 56.7438 47.2466 56.8474 47.5076 56.8474C47.7687 56.8474 48.019 56.7438 48.2036 56.5592L56.556 48.2068C56.7405 48.0222 56.8442 47.7719 56.8442 47.5108C56.8442 47.2498 56.7405 46.9995 56.556 46.8149L51.6233 41.8812C52.2029 40.7608 52.686 39.593 53.0674 38.3906H60.0476C60.3087 38.3906 60.559 38.2869 60.7436 38.1023C60.9282 37.9177 61.032 37.6673 61.032 37.4062V25.5937C61.032 25.3327 60.9282 25.0823 60.7436 24.8977C60.559 24.7131 60.3087 24.6094 60.0476 24.6094ZM12.0101 12.0094C17.0576 6.96025 23.8679 4.0676 31.0062 3.9409C38.1444 3.81419 45.0532 6.46334 50.2767 11.3301L48.8867 12.7201C44.029 8.23703 37.6251 5.80736 31.0161 5.93987C24.4072 6.07238 18.1059 8.7568 13.4317 13.431C8.75753 18.1051 6.07311 24.4065 5.9406 31.0154C5.80809 37.6243 8.23776 44.0282 12.7208 48.886L11.3309 50.2759C6.46406 45.0524 3.81492 38.1437 3.94163 31.0055C4.06833 23.8672 6.96098 17.0569 12.0101 12.0094ZM39.8531 23.1476C42.0386 25.3689 43.2578 28.3639 43.2451 31.4801C43.2324 34.5962 41.9889 37.5812 39.7854 39.7847C37.5819 41.9881 34.597 43.2317 31.4808 43.2444C28.3646 43.257 25.3696 42.0379 23.1483 39.8524C22.9637 39.6679 22.7134 39.5642 22.4523 39.5642C22.1913 39.5642 21.941 39.6679 21.7564 39.8524L14.1137 47.4951C9.98518 43.0095 7.75046 37.1016 7.87674 31.0066C8.00301 24.9116 10.4805 19.1013 14.7913 14.7905C19.102 10.4798 24.9123 8.00228 31.0073 7.87601C37.1023 7.74973 43.0102 9.98445 47.4958 14.113L39.8531 21.7547C39.7616 21.8461 39.689 21.9547 39.6395 22.0742C39.5899 22.1937 39.5644 22.3217 39.5644 22.4511C39.5644 22.5805 39.5899 22.7086 39.6395 22.8281C39.689 22.9476 39.7616 23.0561 39.8531 23.1476ZM59.0632 36.4219H52.334C52.1188 36.4217 51.9095 36.4921 51.7381 36.6223C51.5668 36.7524 51.4428 36.9351 51.3851 37.1424C50.9527 38.6865 50.3377 40.1736 49.5532 41.5721C49.4474 41.7598 49.4061 41.9769 49.4356 42.1903C49.4651 42.4037 49.5638 42.6015 49.7166 42.7534L54.4701 47.5079L47.5106 54.4674L42.7561 49.7139C42.6042 49.5611 42.4064 49.4625 42.193 49.4329C41.9796 49.4034 41.7625 49.4447 41.5748 49.5505C40.1763 50.335 38.6892 50.95 37.1451 51.3824C36.9378 51.4401 36.7551 51.5641 36.625 51.7355C36.4948 51.9068 36.4244 52.1161 36.4245 52.3313V59.0625H26.5788V52.3333C26.579 52.1181 26.5086 51.9088 26.3784 51.7374C26.2483 51.566 26.0656 51.442 25.8583 51.3844C24.3141 50.952 22.8271 50.337 21.4286 49.5524C21.2409 49.4467 21.0238 49.4054 20.8104 49.4349C20.597 49.4644 20.3992 49.5631 20.2473 49.7158L15.4928 54.4694L12.709 51.6856L22.4789 41.9166C25.1129 44.197 28.5127 45.3951 31.9944 45.2699C35.4761 45.1447 38.7811 43.7055 41.2445 41.2419C43.7079 38.7782 45.1467 35.473 45.2716 31.9914C45.3964 28.5097 44.198 25.1099 41.9174 22.4762L51.6863 12.7063L54.4701 15.4901L49.7166 20.2446C49.5638 20.3965 49.4651 20.5943 49.4356 20.8077C49.4061 21.0211 49.4474 21.2382 49.5532 21.4259C50.3379 22.8243 50.9528 24.3114 51.3851 25.8556C51.4428 26.0629 51.5668 26.2456 51.7381 26.3757C51.9095 26.5059 52.1188 26.5763 52.334 26.5761H59.0632V36.4219Z" fill="#FE8A71"/>
<path d="M32.4863 27.7023V16.7344C32.4863 16.4733 32.3826 16.2229 32.198 16.0383C32.0134 15.8537 31.763 15.75 31.502 15.75C31.2409 15.75 30.9905 15.8537 30.8059 16.0383C30.6213 16.2229 30.5176 16.4733 30.5176 16.7344V27.7023C29.8411 27.8792 29.2239 28.233 28.7294 28.7275C28.235 29.2219 27.8811 29.8391 27.7042 30.5156H20.6738C20.4128 30.5156 20.1624 30.6193 19.9778 30.8039C19.7932 30.9885 19.6895 31.2389 19.6895 31.5C19.6895 31.7611 19.7932 32.0115 19.9778 32.1961C20.1624 32.3807 20.4128 32.4844 20.6738 32.4844H27.7042C27.8764 33.1561 28.2232 33.7703 28.7095 34.2647C29.1958 34.759 29.8042 35.1159 30.473 35.299C31.1419 35.4822 31.8472 35.485 32.5175 35.3074C33.1878 35.1298 33.7992 34.7779 34.2895 34.2876C34.7799 33.7972 35.1317 33.1859 35.3094 32.5156C35.487 31.8453 35.4841 31.1399 35.301 30.4711C35.1178 29.8023 34.761 29.1938 34.2666 28.7075C33.7723 28.2212 33.1581 27.8744 32.4863 27.7023ZM31.502 33.4687C31.1126 33.4687 30.7319 33.3533 30.4082 33.137C30.0844 32.9206 29.8321 32.6131 29.6831 32.2534C29.5341 31.8937 29.4951 31.4978 29.571 31.1159C29.647 30.734 29.8345 30.3832 30.1098 30.1079C30.3852 29.8325 30.736 29.645 31.1179 29.5691C31.4998 29.4931 31.8956 29.5321 32.2554 29.6811C32.6151 29.8301 32.9226 30.0825 33.1389 30.4062C33.3552 30.73 33.4707 31.1106 33.4707 31.5C33.4707 32.0221 33.2633 32.5229 32.8941 32.8921C32.5249 33.2613 32.0241 33.4687 31.502 33.4687Z" fill="#FE8A71"/>
<path d="M31.502 12.7969C31.2409 12.7969 30.9905 12.6932 30.8059 12.5086C30.6213 12.324 30.5176 12.0736 30.5176 11.8125V9.84375C30.5176 9.58268 30.6213 9.3323 30.8059 9.14769C30.9905 8.96309 31.2409 8.85938 31.502 8.85938C31.763 8.85938 32.0134 8.96309 32.198 9.14769C32.3826 9.3323 32.4863 9.58268 32.4863 9.84375V11.8125C32.4863 12.0736 32.3826 12.324 32.198 12.5086C32.0134 12.6932 31.763 12.7969 31.502 12.7969Z" fill="#FE8A71"/>
<path d="M41.3447 15.435C41.172 15.4348 41.0024 15.3892 40.8529 15.3028C40.7034 15.2163 40.5792 15.092 40.493 14.9424C40.4067 14.7928 40.3613 14.6231 40.3613 14.4504C40.3614 14.2777 40.4069 14.108 40.4932 13.9584L41.4776 12.2525C41.609 12.0283 41.8239 11.8651 42.0752 11.7987C42.3265 11.7323 42.5939 11.7679 42.819 11.8979C43.0441 12.0279 43.2087 12.2416 43.2768 12.4925C43.3449 12.7433 43.311 13.0109 43.1825 13.2369L42.1981 14.9428C42.1117 15.0926 41.9873 15.217 41.8374 15.3034C41.6876 15.3898 41.5176 15.4352 41.3447 15.435Z" fill="#FE8A71"/>
<path d="M21.6579 15.435C21.4849 15.4352 21.315 15.3898 21.1651 15.3034C21.0153 15.217 20.8909 15.0926 20.8044 14.9428L19.8201 13.2369C19.6916 13.0109 19.6577 12.7433 19.7258 12.4925C19.7939 12.2416 19.9585 12.0279 20.1836 11.8979C20.4087 11.7679 20.6761 11.7323 20.9274 11.7987C21.1787 11.8651 21.3935 12.0283 21.525 12.2525L22.5094 13.9584C22.5957 14.108 22.6412 14.2777 22.6412 14.4504C22.6413 14.6231 22.5959 14.7928 22.5096 14.9424C22.4233 15.092 22.2992 15.2163 22.1497 15.3028C22.0002 15.3892 21.8306 15.4348 21.6579 15.435Z" fill="#FE8A71"/>
<path d="M14.4503 22.6406C14.2774 22.641 14.1076 22.5954 13.9581 22.5087L12.2522 21.5243C12.0279 21.3929 11.8648 21.178 11.7983 20.9267C11.7319 20.6754 11.7675 20.408 11.8975 20.1829C12.0275 19.9578 12.2412 19.7932 12.4921 19.7251C12.7429 19.657 13.0106 19.6909 13.2365 19.8194L14.9425 20.8038C15.1301 20.9121 15.2768 21.0793 15.3597 21.2795C15.4426 21.4797 15.4571 21.7017 15.4011 21.911C15.345 22.1203 15.2214 22.3053 15.0495 22.4372C14.8776 22.5691 14.667 22.6406 14.4503 22.6406Z" fill="#FE8A71"/>
<path d="M11.8145 32.4844H9.8457C9.58463 32.4844 9.33425 32.3807 9.14965 32.1961C8.96504 32.0115 8.86133 31.7611 8.86133 31.5C8.86133 31.2389 8.96504 30.9885 9.14965 30.8039C9.33425 30.6193 9.58463 30.5156 9.8457 30.5156H11.8145C12.0755 30.5156 12.3259 30.6193 12.5105 30.8039C12.6951 30.9885 12.7988 31.2389 12.7988 31.5C12.7988 31.7611 12.6951 32.0115 12.5105 32.1961C12.3259 32.3807 12.0755 32.4844 11.8145 32.4844Z" fill="#FE8A71"/>
<path d="M12.7461 43.3125C12.5294 43.3125 12.3187 43.241 12.1468 43.109C11.9749 42.9771 11.8513 42.7922 11.7953 42.5829C11.7392 42.3736 11.7537 42.1516 11.8366 41.9514C11.9196 41.7512 12.0662 41.584 12.2539 41.4756L13.9598 40.4912C14.0718 40.4256 14.1957 40.3827 14.3243 40.3652C14.4529 40.3476 14.5837 40.3556 14.7092 40.3888C14.8347 40.422 14.9524 40.4796 15.0556 40.5585C15.1587 40.6374 15.2452 40.7358 15.3101 40.8483C15.375 40.9607 15.4171 41.0848 15.4338 41.2136C15.4505 41.3423 15.4416 41.4731 15.4076 41.5984C15.3736 41.7237 15.3151 41.841 15.2356 41.9436C15.1561 42.0462 15.057 42.132 14.9442 42.1962L13.2382 43.1806C13.0887 43.2673 12.9189 43.3128 12.7461 43.3125Z" fill="#FE8A71"/>
<path d="M31.5012 41.3438C30.208 41.3474 28.9269 41.0939 27.7325 40.5981C26.5381 40.1023 25.4541 39.374 24.5436 38.4556C24.4497 38.3647 24.3749 38.2559 24.3235 38.1358C24.2721 38.0156 24.2451 37.8864 24.2442 37.7557C24.2432 37.625 24.2683 37.4954 24.318 37.3745C24.3676 37.2536 24.4409 37.1438 24.5334 37.0515C24.626 36.9592 24.736 36.8863 24.857 36.837C24.9781 36.7877 25.1077 36.7629 25.2384 36.7642C25.3691 36.7656 25.4983 36.7929 25.6183 36.8446C25.7383 36.8964 25.8468 36.9715 25.9375 37.0657C26.6654 37.8092 27.5336 38.401 28.4917 38.8069C29.4498 39.2127 30.4789 39.4245 31.5195 39.4301C32.56 39.4356 33.5913 39.2347 34.5537 38.8391C35.5161 38.4434 36.3905 37.8609 37.1262 37.1251C37.862 36.3893 38.4446 35.5149 38.8402 34.5525C39.2359 33.5901 39.4367 32.5588 39.4312 31.5183C39.4257 30.4778 39.2139 29.4487 38.808 28.4905C38.4022 27.5324 37.8104 26.6643 37.0668 25.9363C36.9727 25.8457 36.8976 25.7371 36.8458 25.6171C36.7941 25.4971 36.7667 25.368 36.7654 25.2373C36.7641 25.1066 36.7888 24.9769 36.8381 24.8559C36.8875 24.7348 36.9604 24.6248 37.0527 24.5323C37.145 24.4397 37.2548 24.3665 37.3757 24.3168C37.4966 24.2672 37.6262 24.2421 37.7569 24.243C37.8876 24.244 38.0168 24.2709 38.1369 24.3223C38.2571 24.3737 38.3658 24.4486 38.4568 24.5425C39.8321 25.919 40.7686 27.6723 41.148 29.5808C41.5274 31.4893 41.3326 33.4675 40.5883 35.2653C39.844 37.0632 38.5836 38.6002 36.9662 39.6821C35.3488 40.7639 33.447 41.3422 31.5012 41.3438Z" fill="#FE8A71"/>
</svg>
