<svg width="63" height="63" viewBox="0 0 63 63" fill="none" xmlns="http://www.w3.org/2000/svg">
<g clip-path="url(#clip0)">
<path d="M9.82155 5.42639H53.2324C55.6202 5.42639 57.5735 7.37967 57.5735 9.76748V53.1783C57.5735 55.5661 55.6202 57.5194 53.2324 57.5194H9.82155C7.43427 57.5194 5.48047 55.5661 5.48047 53.1783V9.76748C5.48047 7.37967 7.43427 5.42639 9.82155 5.42639Z" fill="#E9E9E9"/>
<path d="M43.4655 21.7055C43.4655 33.6933 33.7479 43.4109 21.7601 43.4109C9.77285 43.4109 0.0546875 33.6933 0.0546875 21.7055C0.0546875 9.71769 9.77285 6.10352e-05 21.7601 6.10352e-05C33.7479 6.10352e-05 43.4655 9.71769 43.4655 21.7055Z" fill="#FE8A71"/>
<path d="M39.1232 21.7055C39.1232 31.2954 31.3488 39.0699 21.7589 39.0699C12.169 39.0699 4.39453 31.2954 4.39453 21.7055C4.39453 12.1156 12.169 4.34119 21.7589 4.34119C31.3488 4.34119 39.1232 12.1156 39.1232 21.7055Z" fill="#FFE8E3"/>
<path d="M9.82227 21.7055C15.8999 28.3258 26.1013 28.7598 32.7216 22.6821C33.047 22.3568 33.3729 22.0309 33.6982 21.7055C27.6206 15.0852 17.4192 14.6512 10.7989 20.7289C10.4735 21.0542 10.1482 21.3801 9.82227 21.7055Z" fill="white"/>
<path d="M44.5508 9.76752H54.3182V11.9381H44.5508V9.76752Z" fill="#C4C4C4"/>
<path d="M46.7207 15.1939H54.3176V17.3645H46.7207V15.1939Z" fill="#C4C4C4"/>
<path d="M46.7207 20.6203H54.3176V22.7908H46.7207V20.6203Z" fill="#C4C4C4"/>
<path d="M46.7207 26.0466H54.3176V28.2171H46.7207V26.0466Z" fill="#C4C4C4"/>
<path d="M46.7207 31.473H54.3176V33.6435H46.7207V31.473Z" fill="#C4C4C4"/>
<path d="M47.8066 36.8994H54.3183V39.0699H47.8066V36.8994Z" fill="#C4C4C4"/>
<path d="M8.73633 46.6667H38.0387V48.8373H8.73633V46.6667Z" fill="#C4C4C4"/>
<path d="M8.73633 51.0078H42.3797V53.1784H8.73633V51.0078Z" fill="#C4C4C4"/>
<path d="M14.1641 30.3877H29.3579V32.5582H14.1641V30.3877Z" fill="#FE8A71"/>
<path d="M14.1641 10.8528H29.3579V13.0234H14.1641V10.8528Z" fill="#FE8A71"/>
<path d="M39.123 34.7288L47.8052 44.4962H49.1077C49.6503 44.4962 50.193 44.7135 50.627 45.1475L61.9137 56.4342C62.6736 57.1941 62.999 58.1707 62.999 59.1474C62.999 61.3179 61.2624 62.9458 59.2005 62.9458C58.2239 62.9458 57.2472 62.5118 56.4873 61.8605L45.2006 50.5738C44.7666 50.1398 44.5494 49.5972 44.5494 49.0546V47.752L35.8672 37.9846" fill="#3F3F3F"/>
<path d="M25.0155 21.7055C25.0155 23.5035 23.5577 24.9613 21.7597 24.9613C19.9617 24.9613 18.5039 23.5035 18.5039 21.7055C18.5039 19.9074 19.9617 18.4496 21.7597 18.4496C23.5577 18.4496 25.0155 19.9074 25.0155 21.7055Z" fill="#4A4A56"/>
<path d="M63.0004 59.1474C63.0004 58.1708 62.5664 57.1942 61.9151 56.4343L50.6284 45.1475C50.1944 44.7135 49.6518 44.4963 49.1091 44.4963H47.8066L44.5508 47.7521V49.0546C44.5508 49.5973 44.768 50.1399 45.202 50.5739L56.4888 61.8606C58.008 63.3799 60.3958 63.3799 61.9151 61.8606C62.5664 61.1007 63.0004 60.1241 63.0004 59.1474Z" fill="#2B2B2B"/>
</g>
<defs>
<clipPath id="clip0">
<rect width="63" height="63" fill="white"/>
</clipPath>
</defs>
</svg>
