<svg width="16" height="15" viewBox="0 0 16 15" fill="none" xmlns="http://www.w3.org/2000/svg">
<path d="M1.47923 8.349H12.2864L7.5649 13.0705C7.18757 13.4478 7.18757 14.067 7.5649 14.4443C7.94223 14.8217 8.55176 14.8217 8.92909 14.4443L15.305 8.06842C15.6823 7.69109 15.6823 7.08155 15.305 6.70422L8.93877 0.318629C8.758 0.137459 8.51259 0.0356445 8.25667 0.0356445C8.00075 0.0356445 7.75533 0.137459 7.57457 0.318629C7.19724 0.695959 7.19724 1.30549 7.57457 1.68282L12.2864 6.41397H1.47923C0.9471 6.41397 0.511719 6.84935 0.511719 7.38148C0.511719 7.91362 0.9471 8.349 1.47923 8.349Z" fill="#FE8A71"/>
</svg>
