<svg width="2401" height="2048" viewBox="0 0 2401 2048" fill="none" xmlns="http://www.w3.org/2000/svg">
<path d="M1787.59 1219.77L1787.23 1180.8L1821.16 1199.97L1787.59 1219.77Z" fill="#FFECEC" stroke="#181926"/>
<path opacity="0.2" d="M626.766 1187.76L626.811 1188.26L626.766 1187.76ZM6.03243 990.447C6.25254 990.613 6.56616 990.57 6.73291 990.35C6.89966 990.13 6.85641 989.816 6.6363 989.65L6.03243 990.447ZM13.0795 994.462C12.8572 994.298 12.5442 994.346 12.3804 994.568C12.2166 994.79 12.264 995.103 12.4863 995.267L13.0795 994.462ZM18.8396 999.89C19.0638 1000.05 19.3763 1000 19.5374 999.775C19.6986 999.551 19.6474 999.239 19.4232 999.078L18.8396 999.89ZM25.9465 1003.71C25.7205 1003.55 25.4087 1003.61 25.25 1003.83C25.0914 1004.06 25.1459 1004.37 25.3719 1004.53L25.9465 1003.71ZM31.8859 1009.05C32.1135 1009.21 32.4248 1009.15 32.5812 1008.92C32.7375 1008.7 32.6798 1008.39 32.4522 1008.23L31.8859 1009.05ZM39.0293 1012.7C38.8002 1012.55 38.4895 1012.61 38.3353 1012.84C38.1811 1013.07 38.2419 1013.38 38.471 1013.53L39.0293 1012.7ZM45.1064 1017.95C45.3369 1018.1 45.647 1018.04 45.7991 1017.81C45.9512 1017.58 45.8876 1017.27 45.6571 1017.12L45.1064 1017.95ZM52.2955 1021.46C52.0637 1021.31 51.7542 1021.37 51.6041 1021.6C51.454 1021.84 51.5202 1022.15 51.752 1022.3L52.2955 1021.46ZM58.4704 1026.61C58.7035 1026.75 59.0125 1026.69 59.1606 1026.45C59.3088 1026.22 59.24 1025.91 59.0069 1025.76L58.4704 1026.61ZM65.7172 1029.99C65.4829 1029.84 65.1745 1029.91 65.0282 1030.15C64.882 1030.38 64.9533 1030.69 65.1875 1030.84L65.7172 1029.99ZM71.9644 1035.03C72.1998 1035.18 72.5077 1035.1 72.6521 1034.87C72.7965 1034.63 72.7228 1034.33 72.4875 1034.18L71.9644 1035.03ZM79.2792 1038.31C79.0428 1038.17 78.7354 1038.25 78.5928 1038.48C78.4502 1038.72 78.5262 1039.03 78.7627 1039.17L79.2792 1038.31ZM85.5826 1043.25C85.8201 1043.39 86.1268 1043.31 86.2677 1043.07C86.4086 1042.84 86.3303 1042.53 86.0928 1042.39L85.5826 1043.25ZM92.9732 1046.44C92.7347 1046.3 92.4285 1046.38 92.2894 1046.62C92.1502 1046.85 92.2308 1047.16 92.4693 1047.3L92.9732 1046.44ZM99.3227 1051.27C99.5622 1051.4 99.8678 1051.32 100.005 1051.08C100.143 1050.84 100.06 1050.54 99.8204 1050.4L99.3227 1051.27ZM106.794 1054.37C106.553 1054.23 106.248 1054.32 106.113 1054.56C105.977 1054.8 106.062 1055.1 106.302 1055.24L106.794 1054.37ZM113.184 1059.09C113.425 1059.22 113.729 1059.14 113.863 1058.9C113.997 1058.65 113.91 1058.35 113.669 1058.22L113.184 1059.09ZM120.67 1062.07C120.428 1061.94 120.124 1062.03 119.992 1062.27C119.86 1062.51 119.949 1062.82 120.191 1062.95L120.67 1062.07ZM127.164 1066.73C127.407 1066.86 127.71 1066.77 127.841 1066.52C127.972 1066.28 127.881 1065.98 127.637 1065.85L127.164 1066.73ZM134.652 1069.59C134.408 1069.46 134.105 1069.55 133.976 1069.79C133.847 1070.04 133.94 1070.34 134.184 1070.47L134.652 1069.59ZM141.263 1074.18C141.508 1074.31 141.809 1074.21 141.937 1073.97C142.064 1073.72 141.969 1073.42 141.724 1073.29L141.263 1074.18ZM148.752 1076.92C148.506 1076.79 148.205 1076.89 148.079 1077.14C147.953 1077.38 148.05 1077.68 148.296 1077.81L148.752 1076.92ZM155.432 1081.43C155.678 1081.55 155.979 1081.45 156.103 1081.21C156.227 1080.96 156.128 1080.66 155.881 1080.54L155.432 1081.43ZM162.969 1084.07C162.721 1083.95 162.421 1084.05 162.299 1084.3C162.176 1084.55 162.278 1084.85 162.525 1084.97L162.969 1084.07ZM169.667 1088.47C169.915 1088.59 170.215 1088.49 170.335 1088.24C170.456 1087.99 170.353 1087.69 170.104 1087.57L169.667 1088.47ZM177.3 1091.04C177.051 1090.92 176.753 1091.03 176.634 1091.28C176.514 1091.53 176.62 1091.83 176.869 1091.95L177.3 1091.04ZM184.02 1095.34C184.27 1095.45 184.568 1095.35 184.685 1095.1C184.803 1094.85 184.696 1094.55 184.446 1094.43L184.02 1095.34ZM191.674 1097.8C191.424 1097.68 191.127 1097.79 191.011 1098.04C190.895 1098.29 191.004 1098.59 191.255 1098.71L191.674 1097.8ZM198.488 1102.02C198.74 1102.13 199.036 1102.02 199.15 1101.77C199.264 1101.52 199.153 1101.22 198.901 1101.11L198.488 1102.02ZM206.137 1104.36C205.884 1104.25 205.589 1104.36 205.476 1104.61C205.364 1104.86 205.477 1105.16 205.73 1105.27L206.137 1104.36ZM213.047 1108.5C213.3 1108.61 213.594 1108.5 213.705 1108.24C213.816 1107.99 213.7 1107.7 213.447 1107.58L213.047 1108.5ZM220.713 1110.73C220.459 1110.62 220.165 1110.74 220.056 1110.99C219.947 1111.25 220.065 1111.54 220.319 1111.65L220.713 1110.73ZM227.641 1114.76C227.895 1114.87 228.189 1114.75 228.296 1114.5C228.403 1114.24 228.283 1113.95 228.029 1113.84L227.641 1114.76ZM235.398 1116.92C235.143 1116.81 234.851 1116.93 234.745 1117.19C234.64 1117.44 234.761 1117.73 235.017 1117.84L235.398 1116.92ZM242.349 1120.84C242.605 1120.94 242.897 1120.82 243 1120.56C243.104 1120.31 242.98 1120.02 242.724 1119.91L242.349 1120.84ZM250.113 1122.87C249.857 1122.77 249.566 1122.9 249.464 1123.15C249.362 1123.41 249.488 1123.7 249.745 1123.8L250.113 1122.87ZM257.165 1126.72C257.423 1126.82 257.712 1126.69 257.812 1126.43C257.912 1126.17 257.785 1125.88 257.527 1125.78L257.165 1126.72ZM264.926 1128.63C264.668 1128.53 264.38 1128.66 264.281 1128.92C264.183 1129.18 264.313 1129.46 264.571 1129.56L264.926 1128.63ZM272.034 1132.37C272.292 1132.47 272.58 1132.33 272.677 1132.08C272.773 1131.82 272.641 1131.53 272.382 1131.43L272.034 1132.37ZM279.845 1134.18C279.585 1134.08 279.298 1134.22 279.204 1134.48C279.11 1134.74 279.243 1135.02 279.503 1135.12L279.845 1134.18ZM286.977 1137.81C287.237 1137.9 287.523 1137.76 287.615 1137.5C287.708 1137.24 287.572 1136.96 287.312 1136.87L286.977 1137.81ZM294.83 1139.51C294.569 1139.42 294.284 1139.55 294.193 1139.82C294.103 1140.08 294.241 1140.36 294.502 1140.45L294.83 1139.51ZM302.022 1143.03C302.284 1143.12 302.568 1142.98 302.656 1142.72C302.745 1142.46 302.605 1142.17 302.343 1142.08L302.022 1143.03ZM309.873 1144.61C309.611 1144.52 309.328 1144.66 309.242 1144.92C309.155 1145.19 309.297 1145.47 309.56 1145.55L309.873 1144.61ZM317.143 1148.03C317.406 1148.11 317.688 1147.97 317.773 1147.71C317.857 1147.44 317.713 1147.16 317.45 1147.08L317.143 1148.03ZM325.016 1149.48C324.752 1149.4 324.472 1149.55 324.389 1149.81C324.307 1150.07 324.453 1150.35 324.717 1150.44L325.016 1149.48ZM332.314 1152.79C332.578 1152.87 332.857 1152.72 332.938 1152.45C333.018 1152.19 332.87 1151.91 332.605 1151.83L332.314 1152.79ZM340.237 1154.12C339.972 1154.04 339.694 1154.2 339.615 1154.46C339.537 1154.72 339.688 1155 339.952 1155.08L340.237 1154.12ZM347.579 1157.31C347.845 1157.38 348.122 1157.23 348.198 1156.97C348.274 1156.7 348.121 1156.42 347.856 1156.35L347.579 1157.31ZM355.501 1158.51C355.235 1158.44 354.959 1158.59 354.885 1158.86C354.811 1159.13 354.966 1159.4 355.232 1159.48L355.501 1158.51ZM362.923 1161.59C363.189 1161.66 363.464 1161.5 363.536 1161.23C363.608 1160.97 363.45 1160.69 363.183 1160.62L362.923 1161.59ZM370.855 1162.66C370.587 1162.59 370.314 1162.75 370.244 1163.02C370.175 1163.28 370.335 1163.56 370.602 1163.63L370.855 1162.66ZM378.308 1165.6C378.575 1165.67 378.847 1165.51 378.915 1165.24C378.982 1164.97 378.82 1164.7 378.552 1164.63L378.308 1165.6ZM386.283 1166.55C386.015 1166.48 385.744 1166.65 385.679 1166.92C385.614 1167.18 385.779 1167.45 386.047 1167.52L386.283 1166.55ZM393.777 1169.36C394.046 1169.43 394.315 1169.26 394.377 1168.99C394.44 1168.72 394.273 1168.45 394.004 1168.39L393.777 1169.36ZM401.751 1170.17C401.482 1170.11 401.214 1170.27 401.154 1170.54C401.093 1170.81 401.262 1171.08 401.532 1171.14L401.751 1170.17ZM409.316 1172.85C409.586 1172.91 409.852 1172.74 409.91 1172.47C409.969 1172.2 409.797 1171.93 409.527 1171.88L409.316 1172.85ZM417.296 1173.51C417.025 1173.46 416.761 1173.63 416.705 1173.9C416.65 1174.17 416.824 1174.44 417.094 1174.49L417.296 1173.51ZM424.895 1176.06C425.166 1176.11 425.428 1175.94 425.482 1175.67C425.535 1175.4 425.358 1175.13 425.087 1175.08L424.895 1176.06ZM432.905 1176.58C432.633 1176.53 432.372 1176.71 432.321 1176.98C432.271 1177.25 432.45 1177.51 432.721 1177.56L432.905 1176.58ZM440.543 1178.98C440.815 1179.03 441.075 1178.85 441.123 1178.58C441.171 1178.31 440.989 1178.05 440.718 1178L440.543 1178.98ZM448.55 1179.35C448.278 1179.3 448.02 1179.49 447.974 1179.76C447.929 1180.03 448.113 1180.29 448.385 1180.33L448.55 1179.35ZM456.249 1181.61C456.522 1181.65 456.778 1181.47 456.821 1181.19C456.864 1180.92 456.677 1180.66 456.404 1180.62L456.249 1181.61ZM464.257 1181.82C463.983 1181.78 463.729 1181.97 463.689 1182.24C463.649 1182.51 463.838 1182.77 464.111 1182.81L464.257 1181.82ZM471.989 1183.93C472.263 1183.96 472.515 1183.77 472.552 1183.5C472.59 1183.22 472.398 1182.97 472.125 1182.93L471.989 1183.93ZM480.012 1183.97C479.738 1183.94 479.488 1184.13 479.453 1184.41C479.418 1184.68 479.612 1184.93 479.886 1184.97L480.012 1183.97ZM487.782 1185.93C488.057 1185.96 488.305 1185.76 488.337 1185.49C488.369 1185.21 488.172 1184.96 487.898 1184.93L487.782 1185.93ZM495.796 1185.81C495.522 1185.78 495.276 1185.98 495.247 1186.25C495.218 1186.53 495.417 1186.77 495.691 1186.8L495.796 1185.81ZM503.616 1187.6C503.89 1187.62 504.134 1187.42 504.161 1187.15C504.187 1186.87 503.985 1186.63 503.71 1186.6L503.616 1187.6ZM511.623 1187.31C511.348 1187.29 511.106 1187.49 511.083 1187.77C511.06 1188.04 511.264 1188.28 511.539 1188.31L511.623 1187.31ZM519.473 1188.93C519.748 1188.95 519.988 1188.74 520.008 1188.47C520.028 1188.19 519.821 1187.95 519.545 1187.93L519.473 1188.93ZM527.48 1188.47C527.204 1188.45 526.967 1188.66 526.95 1188.94C526.933 1189.21 527.142 1189.45 527.418 1189.47L527.48 1188.47ZM535.362 1189.92C535.638 1189.93 535.872 1189.72 535.886 1189.44C535.9 1189.17 535.688 1188.93 535.412 1188.92L535.362 1189.92ZM543.351 1189.27C543.075 1189.26 542.842 1189.48 542.831 1189.75C542.821 1190.03 543.035 1190.26 543.311 1190.27L543.351 1189.27ZM551.27 1190.54C551.546 1190.55 551.776 1190.33 551.784 1190.05C551.791 1189.78 551.574 1189.55 551.298 1189.54L551.27 1190.54ZM559.241 1189.71C558.965 1189.71 558.738 1189.93 558.733 1190.21C558.729 1190.48 558.949 1190.71 559.225 1190.71L559.241 1189.71ZM567.183 1190.79C567.459 1190.8 567.683 1190.57 567.685 1190.3C567.686 1190.02 567.463 1189.8 567.187 1189.79L567.183 1190.79ZM575.137 1189.78C574.861 1189.78 574.639 1190.01 574.641 1190.28C574.644 1190.56 574.869 1190.78 575.145 1190.78L575.137 1189.78ZM583.103 1190.67C583.379 1190.66 583.598 1190.43 583.592 1190.16C583.587 1189.88 583.358 1189.66 583.082 1189.67L583.103 1190.67ZM591.025 1189.46C590.749 1189.46 590.532 1189.7 590.541 1189.97C590.55 1190.25 590.781 1190.46 591.057 1190.46L591.025 1189.46ZM599.014 1190.14C599.29 1190.13 599.504 1189.9 599.491 1189.62C599.479 1189.35 599.245 1189.13 598.969 1189.15L599.014 1190.14ZM606.904 1188.74C606.629 1188.75 606.418 1188.99 606.434 1189.26C606.45 1189.54 606.687 1189.75 606.962 1189.73L606.904 1188.74ZM614.903 1189.22C615.178 1189.2 615.386 1188.96 615.366 1188.69C615.346 1188.41 615.107 1188.2 614.832 1188.22L614.903 1189.22ZM622.758 1187.61C622.483 1187.63 622.279 1187.87 622.302 1188.15C622.325 1188.42 622.567 1188.63 622.842 1188.6L622.758 1187.61ZM630.814 1187.87C631.089 1187.84 631.289 1187.6 631.261 1187.32C631.233 1187.05 630.988 1186.85 630.713 1186.88L630.814 1187.87ZM638.679 1185.98C638.405 1186.02 638.21 1186.27 638.243 1186.54C638.277 1186.82 638.526 1187.01 638.8 1186.98L638.679 1185.98ZM646.761 1185.93C647.034 1185.89 647.224 1185.63 647.186 1185.36C647.147 1185.09 646.893 1184.9 646.62 1184.94L646.761 1185.93ZM654.537 1183.73C654.265 1183.77 654.079 1184.03 654.124 1184.3C654.168 1184.58 654.425 1184.76 654.697 1184.72L654.537 1183.73ZM662.605 1183.36C662.877 1183.31 663.057 1183.05 663.008 1182.78C662.959 1182.51 662.699 1182.33 662.427 1182.37L662.605 1183.36ZM670.292 1180.87C670.021 1180.93 669.846 1181.19 669.9 1181.46C669.954 1181.73 670.218 1181.91 670.489 1181.85L670.292 1180.87ZM678.349 1180.2C678.619 1180.15 678.79 1179.88 678.731 1179.61C678.672 1179.34 678.405 1179.17 678.135 1179.23L678.349 1180.2ZM685.957 1177.44C685.688 1177.51 685.522 1177.78 685.586 1178.05C685.65 1178.31 685.919 1178.48 686.188 1178.42L685.957 1177.44ZM693.97 1176.5C694.237 1176.43 694.399 1176.16 694.331 1175.89C694.263 1175.63 693.99 1175.47 693.723 1175.53L693.97 1176.5ZM701.464 1173.49C701.198 1173.57 701.041 1173.84 701.113 1174.11C701.186 1174.37 701.46 1174.53 701.727 1174.46L701.464 1173.49ZM709.464 1172.29C709.729 1172.21 709.882 1171.94 709.806 1171.67C709.729 1171.41 709.452 1171.25 709.187 1171.33L709.464 1172.29ZM716.887 1169.04C716.623 1169.12 716.474 1169.4 716.555 1169.67C716.635 1169.93 716.915 1170.08 717.179 1170L716.887 1169.04ZM724.817 1167.61C725.08 1167.53 725.225 1167.25 725.141 1166.98C725.056 1166.72 724.775 1166.58 724.512 1166.66L724.817 1167.61ZM732.12 1164.16C731.858 1164.25 731.717 1164.53 731.805 1164.8C731.893 1165.06 732.176 1165.2 732.438 1165.11L732.12 1164.16ZM740.042 1162.5C740.303 1162.41 740.44 1162.12 740.349 1161.86C740.257 1161.6 739.972 1161.47 739.712 1161.56L740.042 1162.5ZM747.273 1158.85C747.014 1158.95 746.88 1159.23 746.975 1159.49C747.07 1159.75 747.357 1159.89 747.616 1159.79L747.273 1158.85ZM755.117 1157.01C755.375 1156.91 755.505 1156.62 755.407 1156.36C755.31 1156.1 755.021 1155.97 754.763 1156.07L755.117 1157.01ZM762.238 1153.19C761.981 1153.29 761.854 1153.58 761.955 1153.84C762.055 1154.1 762.345 1154.22 762.603 1154.12L762.238 1153.19ZM770.075 1151.15C770.331 1151.05 770.454 1150.75 770.351 1150.5C770.247 1150.24 769.956 1150.12 769.7 1150.22L770.075 1151.15ZM777.127 1147.17C776.872 1147.28 776.751 1147.57 776.857 1147.83C776.963 1148.08 777.256 1148.2 777.511 1148.1L777.127 1147.17ZM784.883 1144.98C785.137 1144.88 785.255 1144.58 785.146 1144.33C785.038 1144.07 784.744 1143.96 784.49 1144.07L784.883 1144.98ZM791.842 1140.88C791.589 1140.99 791.474 1141.28 791.585 1141.54C791.696 1141.79 791.991 1141.9 792.244 1141.79L791.842 1140.88ZM799.593 1138.53C799.845 1138.41 799.957 1138.12 799.844 1137.87C799.731 1137.61 799.435 1137.5 799.183 1137.62L799.593 1138.53ZM806.488 1134.29C806.237 1134.41 806.128 1134.71 806.243 1134.96C806.358 1135.21 806.655 1135.32 806.906 1135.2L806.488 1134.29ZM814.165 1131.83C814.415 1131.71 814.523 1131.41 814.406 1131.16C814.288 1130.91 813.991 1130.81 813.741 1130.92L814.165 1131.83ZM820.984 1127.49C820.735 1127.61 820.63 1127.91 820.749 1128.16C820.868 1128.41 821.166 1128.51 821.415 1128.39L820.984 1127.49ZM828.657 1124.9C828.905 1124.78 829.009 1124.48 828.888 1124.23C828.767 1123.98 828.468 1123.88 828.219 1124L828.657 1124.9ZM835.424 1120.47C835.176 1120.59 835.075 1120.89 835.197 1121.14C835.32 1121.38 835.619 1121.48 835.867 1121.36L835.424 1120.47ZM843.033 1117.79C843.28 1117.67 843.379 1117.37 843.255 1117.12C843.132 1116.87 842.831 1116.77 842.584 1116.9L843.033 1117.79ZM849.739 1113.28C849.493 1113.4 849.395 1113.71 849.52 1113.95C849.645 1114.2 849.946 1114.3 850.192 1114.17L849.739 1113.28ZM857.346 1110.51C857.591 1110.38 857.687 1110.08 857.561 1109.83C857.434 1109.59 857.133 1109.49 856.887 1109.62L857.346 1110.51ZM864.013 1105.92C863.768 1106.05 863.673 1106.35 863.8 1106.6C863.928 1106.84 864.23 1106.94 864.475 1106.81L864.013 1105.92ZM871.57 1103.09C871.814 1102.97 871.908 1102.66 871.779 1102.42C871.65 1102.17 871.348 1102.08 871.104 1102.21L871.57 1103.09ZM878.191 1098.46C877.947 1098.59 877.854 1098.89 877.984 1099.14C878.114 1099.38 878.416 1099.47 878.66 1099.34L878.191 1098.46ZM885.747 1095.56C885.99 1095.43 886.082 1095.13 885.952 1094.88C885.821 1094.64 885.518 1094.55 885.275 1094.68L885.747 1095.56ZM892.344 1090.88C892.101 1091.01 892.01 1091.31 892.142 1091.56C892.273 1091.8 892.576 1091.89 892.819 1091.76L892.344 1090.88ZM899.866 1087.95C900.109 1087.81 900.199 1087.51 900.067 1087.27C899.936 1087.02 899.632 1086.93 899.389 1087.07L899.866 1087.95ZM906.433 1083.23C906.191 1083.37 906.101 1083.67 906.234 1083.91C906.366 1084.15 906.67 1084.24 906.912 1084.11L906.433 1083.23ZM913.956 1080.26C914.198 1080.13 914.287 1079.82 914.154 1079.58C914.022 1079.34 913.718 1079.25 913.476 1079.38L913.956 1080.26ZM920.512 1075.52C920.27 1075.66 920.182 1075.96 920.315 1076.2C920.448 1076.44 920.752 1076.53 920.994 1076.4L920.512 1075.52ZM928.019 1072.54C928.261 1072.4 928.349 1072.1 928.215 1071.86C928.082 1071.61 927.778 1071.53 927.536 1071.66L928.019 1072.54ZM934.561 1067.79C934.319 1067.92 934.231 1068.23 934.364 1068.47C934.498 1068.71 934.802 1068.8 935.044 1068.67L934.561 1067.79ZM942.069 1064.79C942.311 1064.66 942.399 1064.35 942.266 1064.11C942.133 1063.87 941.828 1063.78 941.587 1063.92L942.069 1064.79ZM948.613 1060.04C948.372 1060.17 948.284 1060.48 948.417 1060.72C948.55 1060.96 948.854 1061.05 949.096 1060.92L948.613 1060.04ZM956.123 1057.05C956.365 1056.91 956.453 1056.61 956.32 1056.37C956.187 1056.13 955.883 1056.04 955.641 1056.17L956.123 1057.05ZM962.671 1052.31C962.429 1052.44 962.34 1052.74 962.473 1052.98C962.606 1053.23 962.91 1053.32 963.152 1053.18L962.671 1052.31ZM970.185 1049.33C970.427 1049.2 970.516 1048.89 970.383 1048.65C970.251 1048.41 969.947 1048.32 969.705 1048.45L970.185 1049.33ZM976.744 1044.61C976.502 1044.74 976.412 1045.04 976.544 1045.29C976.677 1045.53 976.98 1045.62 977.223 1045.49L976.744 1044.61ZM984.276 1041.65C984.519 1041.52 984.609 1041.22 984.478 1040.98C984.346 1040.73 984.043 1040.64 983.8 1040.77L984.276 1041.65ZM990.86 1036.96C990.617 1037.09 990.526 1037.39 990.657 1037.64C990.788 1037.88 991.091 1037.97 991.334 1037.84L990.86 1036.96ZM998.398 1034.05C998.641 1033.92 998.733 1033.62 998.603 1033.38C998.473 1033.13 998.17 1033.04 997.926 1033.17L998.398 1034.05ZM1005 1029.4C1004.76 1029.53 1004.66 1029.84 1004.79 1030.08C1004.92 1030.32 1005.23 1030.42 1005.47 1030.29L1005 1029.4ZM1012.57 1026.54C1012.82 1026.41 1012.91 1026.11 1012.78 1025.86C1012.66 1025.62 1012.35 1025.52 1012.11 1025.65L1012.57 1026.54ZM1019.22 1021.94C1018.98 1022.06 1018.88 1022.36 1019.01 1022.61C1019.14 1022.85 1019.44 1022.95 1019.69 1022.82L1019.22 1021.94ZM1026.8 1019.14C1027.05 1019.02 1027.15 1018.72 1027.02 1018.47C1026.89 1018.22 1026.59 1018.13 1026.35 1018.25L1026.8 1019.14ZM1033.48 1014.61C1033.23 1014.74 1033.14 1015.04 1033.26 1015.28C1033.39 1015.53 1033.69 1015.63 1033.93 1015.5L1033.48 1014.61ZM1041.11 1011.89C1041.36 1011.76 1041.46 1011.46 1041.33 1011.22C1041.21 1010.97 1040.91 1010.87 1040.66 1010.99L1041.11 1011.89ZM1047.85 1007.42C1047.61 1007.54 1047.5 1007.84 1047.63 1008.09C1047.75 1008.34 1048.05 1008.44 1048.3 1008.32L1047.85 1007.42ZM1055.49 1004.8C1055.74 1004.68 1055.84 1004.38 1055.72 1004.13C1055.6 1003.88 1055.3 1003.78 1055.06 1003.9L1055.49 1004.8ZM1062.27 1000.43C1062.02 1000.55 1061.92 1000.85 1062.04 1001.09C1062.15 1001.34 1062.45 1001.45 1062.7 1001.33L1062.27 1000.43ZM1069.97 997.899C1070.22 997.782 1070.33 997.484 1070.21 997.234C1070.1 996.984 1069.8 996.876 1069.55 996.993L1069.97 997.899ZM1076.84 993.619C1076.59 993.734 1076.48 994.031 1076.59 994.282C1076.71 994.533 1077 994.643 1077.25 994.528L1076.84 993.619ZM1084.55 991.222C1084.8 991.109 1084.91 990.814 1084.8 990.562C1084.69 990.31 1084.39 990.197 1084.14 990.31L1084.55 991.222ZM1091.46 987.068C1091.2 987.178 1091.09 987.473 1091.2 987.726C1091.31 987.979 1091.61 988.094 1091.86 987.984L1091.46 987.068ZM1099.24 984.793C1099.49 984.685 1099.61 984.391 1099.5 984.137C1099.39 983.883 1099.1 983.765 1098.85 983.874L1099.24 984.793ZM1106.25 980.756C1105.99 980.862 1105.87 981.155 1105.98 981.41C1106.09 981.665 1106.38 981.786 1106.63 981.68L1106.25 980.756ZM1114.04 978.647C1114.3 978.544 1114.42 978.252 1114.32 977.996C1114.22 977.74 1113.92 977.616 1113.67 977.719L1114.04 978.647ZM1121.11 974.764C1120.85 974.864 1120.73 975.154 1120.83 975.412C1120.93 975.669 1121.22 975.796 1121.47 975.695L1121.11 974.764ZM1128.98 972.81C1129.23 972.713 1129.36 972.424 1129.27 972.166C1129.17 971.908 1128.88 971.777 1128.62 971.875L1128.98 972.81ZM1136.15 969.079C1135.89 969.173 1135.76 969.46 1135.85 969.72C1135.95 969.979 1136.24 970.113 1136.5 970.018L1136.15 969.079ZM1144.03 967.323C1144.29 967.231 1144.43 966.946 1144.34 966.685C1144.25 966.425 1143.96 966.288 1143.7 966.379L1144.03 967.323ZM1151.28 963.776C1151.02 963.864 1150.88 964.147 1150.96 964.409C1151.05 964.671 1151.34 964.811 1151.6 964.723L1151.28 963.776ZM1159.23 962.213C1159.49 962.129 1159.64 961.847 1159.55 961.584C1159.47 961.321 1159.18 961.177 1158.92 961.261L1159.23 962.213ZM1166.58 958.856C1166.32 958.937 1166.17 959.216 1166.25 959.48C1166.33 959.744 1166.61 959.893 1166.88 959.812L1166.58 958.856ZM1174.55 957.523C1174.81 957.446 1174.96 957.169 1174.89 956.904C1174.81 956.638 1174.53 956.486 1174.27 956.563L1174.55 957.523ZM1181.99 954.383C1181.72 954.456 1181.56 954.731 1181.64 954.998C1181.71 955.264 1181.98 955.421 1182.25 955.347L1181.99 954.383ZM1190 953.285C1190.27 953.216 1190.43 952.943 1190.36 952.676C1190.29 952.408 1190.02 952.247 1189.75 952.316L1190 953.285ZM1197.55 950.375C1197.28 950.439 1197.11 950.709 1197.18 950.978C1197.24 951.246 1197.51 951.411 1197.78 951.347L1197.55 950.375ZM1205.58 949.538C1205.85 949.478 1206.02 949.211 1205.96 948.941C1205.9 948.671 1205.63 948.502 1205.36 948.562L1205.58 949.538ZM1213.21 946.881C1212.94 946.936 1212.76 947.201 1212.82 947.471C1212.87 947.742 1213.14 947.916 1213.41 947.86L1213.21 946.881ZM1221.27 946.318C1221.54 946.267 1221.72 946.006 1221.67 945.734C1221.62 945.463 1221.36 945.284 1221.09 945.335L1221.27 946.318ZM1228.99 943.93C1228.72 943.976 1228.54 944.234 1228.58 944.506C1228.63 944.778 1228.89 944.962 1229.16 944.916L1228.99 943.93ZM1237.07 943.659C1237.35 943.618 1237.53 943.364 1237.49 943.09C1237.45 942.817 1237.2 942.629 1236.93 942.67L1237.07 943.659ZM1244.87 941.56C1244.6 941.596 1244.41 941.846 1244.44 942.12C1244.48 942.394 1244.73 942.587 1245 942.552L1244.87 941.56ZM1252.95 941.597C1253.22 941.567 1253.42 941.32 1253.39 941.046C1253.36 940.771 1253.11 940.573 1252.84 940.603L1252.95 941.597ZM1260.83 939.802C1260.55 939.827 1260.35 940.07 1260.37 940.345C1260.4 940.62 1260.64 940.823 1260.92 940.798L1260.83 939.802ZM1268.92 940.158C1269.19 940.139 1269.4 939.9 1269.38 939.624C1269.36 939.349 1269.12 939.141 1268.85 939.16L1268.92 940.158ZM1276.85 938.684C1276.57 938.697 1276.36 938.932 1276.37 939.208C1276.39 939.484 1276.62 939.696 1276.9 939.683L1276.85 938.684ZM1284.88 939.373C1285.16 939.365 1285.37 939.135 1285.37 938.859C1285.36 938.583 1285.13 938.365 1284.85 938.373L1284.88 939.373ZM1292.89 938.229C1292.61 938.231 1292.39 938.457 1292.39 938.733C1292.39 939.009 1292.62 939.231 1292.9 939.229L1292.89 938.229ZM1300.94 939.257C1301.22 939.261 1301.44 939.04 1301.45 938.764C1301.45 938.488 1301.23 938.261 1300.95 938.257L1300.94 939.257ZM1308.95 938.456C1308.67 938.446 1308.44 938.662 1308.43 938.938C1308.42 939.214 1308.64 939.446 1308.91 939.455L1308.95 938.456ZM1316.88 939.825C1317.16 939.841 1317.4 939.631 1317.41 939.355C1317.43 939.079 1317.22 938.843 1316.94 938.827L1316.88 939.825ZM1324.96 939.374C1324.69 939.352 1324.45 939.558 1324.43 939.833C1324.41 940.109 1324.61 940.349 1324.89 940.371L1324.96 939.374ZM1332.92 941.096C1333.19 941.124 1333.44 940.924 1333.47 940.649C1333.5 940.374 1333.3 940.129 1333.02 940.101L1332.92 941.096ZM1340.95 940.992C1340.68 940.958 1340.43 941.153 1340.39 941.427C1340.36 941.701 1340.56 941.95 1340.83 941.984L1340.95 940.992ZM1348.72 943.044C1349 943.084 1349.25 942.895 1349.29 942.621C1349.33 942.348 1349.14 942.094 1348.87 942.055L1348.72 943.044ZM1356.81 943.298C1356.54 943.253 1356.28 943.437 1356.24 943.709C1356.19 943.981 1356.38 944.239 1356.65 944.285L1356.81 943.298ZM1364.61 945.708C1364.88 945.76 1365.14 945.582 1365.19 945.31C1365.24 945.039 1365.07 944.777 1364.79 944.726L1364.61 945.708ZM1372.62 946.301C1372.35 946.243 1372.09 946.416 1372.03 946.686C1371.97 946.956 1372.14 947.222 1372.41 947.279L1372.62 946.301ZM1380.16 949.01C1380.43 949.073 1380.7 948.907 1380.77 948.638C1380.83 948.369 1380.66 948.1 1380.39 948.037L1380.16 949.01ZM1388.2 949.953C1387.93 949.885 1387.66 950.046 1387.59 950.313C1387.52 950.581 1387.68 950.853 1387.95 950.922L1388.2 949.953ZM1395.76 953.016C1396.03 953.091 1396.31 952.935 1396.38 952.669C1396.45 952.403 1396.3 952.128 1396.03 952.053L1395.76 953.016ZM1403.75 954.293C1403.48 954.214 1403.2 954.363 1403.12 954.628C1403.05 954.892 1403.19 955.171 1403.46 955.251L1403.75 954.293ZM1411 957.607C1411.27 957.692 1411.55 957.548 1411.63 957.286C1411.72 957.023 1411.57 956.741 1411.31 956.656L1411 957.607ZM1418.91 959.195C1418.65 959.104 1418.36 959.243 1418.27 959.504C1418.18 959.765 1418.32 960.05 1418.58 960.14L1418.91 959.195ZM1426.19 962.85C1426.45 962.946 1426.73 962.813 1426.83 962.554C1426.93 962.294 1426.79 962.007 1426.53 961.912L1426.19 962.85ZM1434.17 964.804C1433.92 964.703 1433.63 964.831 1433.53 965.088C1433.43 965.345 1433.55 965.635 1433.81 965.736L1434.17 964.804ZM1441.1 968.65C1441.35 968.755 1441.64 968.633 1441.75 968.378C1441.85 968.122 1441.73 967.83 1441.48 967.725L1441.1 968.65ZM1448.81 970.815C1448.55 970.705 1448.26 970.822 1448.15 971.076C1448.04 971.329 1448.16 971.623 1448.41 971.733L1448.81 970.815ZM1455.75 974.985C1456 975.099 1456.3 974.988 1456.41 974.736C1456.53 974.485 1456.42 974.188 1456.17 974.074L1455.75 974.985ZM1463.56 977.506C1463.31 977.387 1463.01 977.494 1462.89 977.743C1462.77 977.992 1462.88 978.291 1463.13 978.409L1463.56 977.506ZM1470.36 981.925C1470.61 982.048 1470.91 981.947 1471.04 981.699C1471.16 981.452 1471.06 981.152 1470.81 981.029L1470.36 981.925ZM1477.83 984.587C1477.59 984.46 1477.29 984.556 1477.16 984.801C1477.03 985.047 1477.13 985.348 1477.37 985.475L1477.83 984.587ZM1484.41 989.184C1484.65 989.315 1484.96 989.223 1485.09 988.98C1485.22 988.737 1485.13 988.434 1484.88 988.303L1484.41 989.184ZM1491.96 992.18C1491.72 992.045 1491.42 992.132 1491.28 992.373C1491.15 992.614 1491.23 992.919 1491.47 993.053L1491.96 992.18ZM1498.57 997.085C1498.81 997.223 1499.11 997.141 1499.25 996.902C1499.39 996.663 1499.31 996.357 1499.07 996.219L1498.57 997.085ZM1506 1000.3C1505.76 1000.16 1505.45 1000.23 1505.31 1000.47C1505.17 1000.71 1505.25 1001.01 1505.48 1001.16L1506 1000.3ZM1512.19 1005.24C1512.42 1005.38 1512.73 1005.31 1512.87 1005.07C1513.02 1004.84 1512.95 1004.53 1512.71 1004.39L1512.19 1005.24ZM1519.45 1008.62C1519.22 1008.47 1518.91 1008.54 1518.76 1008.77C1518.61 1009 1518.68 1009.31 1518.91 1009.46L1519.45 1008.62ZM1525.67 1013.84C1525.9 1013.99 1526.21 1013.92 1526.36 1013.69C1526.51 1013.46 1526.45 1013.15 1526.21 1013L1525.67 1013.84ZM1533.01 1017.53C1532.78 1017.38 1532.47 1017.44 1532.31 1017.67C1532.16 1017.9 1532.22 1018.21 1532.45 1018.36L1533.01 1017.53ZM1539.16 1022.98C1539.39 1023.13 1539.7 1023.08 1539.86 1022.85C1540.01 1022.62 1539.96 1022.31 1539.73 1022.16L1539.16 1022.98ZM1546.12 1026.66C1545.89 1026.5 1545.58 1026.55 1545.42 1026.78C1545.26 1027 1545.31 1027.32 1545.54 1027.48L1546.12 1026.66ZM1551.93 1032.11C1552.16 1032.28 1552.47 1032.23 1552.63 1032.01C1552.8 1031.78 1552.75 1031.47 1552.53 1031.31L1551.93 1032.11ZM1558.96 1036.09C1558.74 1035.92 1558.42 1035.96 1558.26 1036.18C1558.09 1036.41 1558.14 1036.72 1558.36 1036.88L1558.96 1036.09ZM1564.8 1041.79C1565.02 1041.96 1565.34 1041.92 1565.51 1041.7C1565.67 1041.48 1565.63 1041.17 1565.41 1041L1564.8 1041.79ZM1571.89 1046.06C1571.68 1045.89 1571.36 1045.92 1571.19 1046.14C1571.02 1046.36 1571.06 1046.67 1571.28 1046.84L1571.89 1046.06ZM1577.52 1051.82C1577.73 1052 1578.05 1051.96 1578.22 1051.75C1578.39 1051.53 1578.36 1051.22 1578.14 1051.05L1577.52 1051.82ZM1584.22 1056C1584 1055.82 1583.69 1055.85 1583.51 1056.07C1583.34 1056.28 1583.37 1056.6 1583.58 1056.77L1584.22 1056ZM1589.67 1061.84C1589.88 1062.02 1590.19 1061.99 1590.37 1061.78C1590.55 1061.57 1590.52 1061.25 1590.31 1061.08L1589.67 1061.84ZM1596.42 1066.28C1596.21 1066.1 1595.9 1066.12 1595.72 1066.33C1595.54 1066.54 1595.56 1066.86 1595.77 1067.04L1596.42 1066.28ZM1601.9 1072.36C1602.11 1072.54 1602.43 1072.52 1602.61 1072.31C1602.79 1072.1 1602.77 1071.79 1602.56 1071.6L1601.9 1072.36ZM1608.72 1077.06C1608.51 1076.87 1608.2 1076.89 1608.01 1077.1C1607.83 1077.3 1607.85 1077.62 1608.05 1077.8L1608.72 1077.06ZM1614.2 1083.33C1614.41 1083.51 1614.72 1083.5 1614.91 1083.29C1615.09 1083.09 1615.07 1082.77 1614.87 1082.58L1614.2 1083.33ZM1620.97 1088.03C1620.77 1087.85 1620.45 1087.87 1620.27 1088.07C1620.08 1088.28 1620.1 1088.59 1620.31 1088.78L1620.97 1088.03ZM1626.39 1094.14C1626.6 1094.32 1626.92 1094.3 1627.1 1094.09C1627.28 1093.88 1627.26 1093.57 1627.05 1093.38L1626.39 1094.14ZM1633.1 1098.65C1632.89 1098.47 1632.58 1098.49 1632.4 1098.7C1632.22 1098.91 1632.24 1099.22 1632.45 1099.4L1633.1 1098.65ZM1638.48 1104.58C1638.69 1104.76 1639 1104.74 1639.18 1104.53C1639.36 1104.32 1639.34 1104 1639.13 1103.82L1638.48 1104.58ZM1645.12 1108.91C1644.91 1108.73 1644.59 1108.76 1644.42 1108.97C1644.24 1109.18 1644.27 1109.49 1644.48 1109.67L1645.12 1108.91ZM1650.6 1114.79C1650.81 1114.97 1651.13 1114.94 1651.3 1114.73C1651.48 1114.52 1651.45 1114.2 1651.24 1114.03L1650.6 1114.79ZM1657.55 1119.24C1657.34 1119.06 1657.02 1119.09 1656.85 1119.31C1656.67 1119.52 1656.7 1119.83 1656.92 1120.01L1657.55 1119.24ZM1663.2 1125.12C1663.42 1125.3 1663.73 1125.26 1663.91 1125.05C1664.08 1124.83 1664.05 1124.52 1663.83 1124.35L1663.2 1125.12ZM1670.08 1129.36C1669.87 1129.19 1669.55 1129.22 1669.38 1129.44C1669.21 1129.65 1669.25 1129.97 1669.46 1130.14L1670.08 1129.36ZM1675.69 1135.06C1675.91 1135.23 1676.22 1135.19 1676.39 1134.98C1676.56 1134.76 1676.52 1134.44 1676.31 1134.27L1675.69 1135.06ZM1682.5 1139.09C1682.28 1138.92 1681.97 1138.96 1681.8 1139.18C1681.63 1139.4 1681.67 1139.71 1681.89 1139.88L1682.5 1139.09ZM1688.31 1144.8C1688.53 1144.97 1688.84 1144.92 1689.01 1144.7C1689.17 1144.48 1689.13 1144.17 1688.91 1144L1688.31 1144.8ZM1695.42 1148.91C1695.2 1148.75 1694.89 1148.79 1694.72 1149.01C1694.56 1149.23 1694.6 1149.55 1694.83 1149.71L1695.42 1148.91ZM1701.31 1154.52C1701.53 1154.68 1701.85 1154.63 1702.01 1154.41C1702.17 1154.19 1702.13 1153.87 1701.9 1153.71L1701.31 1154.52ZM1708.35 1158.41C1708.13 1158.24 1707.81 1158.29 1707.65 1158.52C1707.49 1158.74 1707.54 1159.05 1707.77 1159.22L1708.35 1158.41ZM1714.19 1163.81C1714.41 1163.97 1714.72 1163.92 1714.88 1163.69C1715.04 1163.46 1714.99 1163.15 1714.76 1162.99L1714.19 1163.81ZM1721.24 1167.54C1721.02 1167.39 1720.71 1167.44 1720.55 1167.67C1720.39 1167.9 1720.45 1168.21 1720.67 1168.36L1721.24 1167.54ZM1727.42 1173.02C1727.65 1173.17 1727.96 1173.11 1728.11 1172.88C1728.27 1172.66 1728.21 1172.34 1727.98 1172.19L1727.42 1173.02ZM1734.69 1176.72C1734.46 1176.56 1734.15 1176.63 1733.99 1176.86C1733.84 1177.08 1733.9 1177.4 1734.13 1177.55L1734.69 1176.72ZM1740.81 1181.97C1741.04 1182.12 1741.35 1182.05 1741.5 1181.82C1741.65 1181.59 1741.59 1181.28 1741.35 1181.13L1740.81 1181.97ZM1747.98 1185.43C1747.75 1185.28 1747.44 1185.35 1747.29 1185.58C1747.14 1185.81 1747.21 1186.12 1747.44 1186.27L1747.98 1185.43ZM1754.11 1190.5C1754.35 1190.65 1754.65 1190.57 1754.8 1190.34C1754.95 1190.11 1754.88 1189.8 1754.64 1189.65L1754.11 1190.5ZM1761.6 1193.97C1761.37 1193.82 1761.06 1193.9 1760.91 1194.13C1760.77 1194.37 1760.84 1194.67 1761.08 1194.82L1761.6 1193.97ZM1768.01 1199.01C1768.24 1199.15 1768.55 1199.08 1768.69 1198.84C1768.83 1198.6 1768.76 1198.3 1768.52 1198.15L1768.01 1199.01ZM1775.4 1202.22C1775.16 1202.08 1774.85 1202.16 1774.71 1202.4C1774.57 1202.64 1774.65 1202.94 1774.89 1203.08L1775.4 1202.22ZM1781.74 1207.03C1781.98 1207.16 1782.28 1207.08 1782.42 1206.84C1782.56 1206.6 1782.47 1206.29 1782.23 1206.16L1781.74 1207.03ZM1789.18 1210.05C1788.94 1209.92 1788.63 1210.01 1788.5 1210.25C1788.36 1210.49 1788.45 1210.79 1788.69 1210.93L1789.18 1210.05ZM1795.86 1214.84C1796.11 1214.97 1796.41 1214.88 1796.54 1214.64C1796.67 1214.39 1796.58 1214.09 1796.34 1213.96L1795.86 1214.84ZM1803.45 1217.73C1803.21 1217.6 1802.91 1217.7 1802.78 1217.94C1802.65 1218.19 1802.75 1218.49 1802.99 1218.62L1803.45 1217.73ZM1810.07 1222.26C1810.32 1222.39 1810.62 1222.29 1810.74 1222.04C1810.87 1221.79 1810.77 1221.49 1810.52 1221.37L1810.07 1222.26ZM1817.55 1224.87C1817.3 1224.75 1817 1224.85 1816.88 1225.1C1816.76 1225.35 1816.86 1225.65 1817.11 1225.77L1817.55 1224.87ZM1824.45 1229.31C1824.7 1229.43 1824.99 1229.32 1825.11 1229.07C1825.23 1228.82 1825.12 1228.52 1824.87 1228.4L1824.45 1229.31ZM1832.21 1231.82C1831.96 1231.71 1831.67 1231.82 1831.55 1232.07C1831.44 1232.32 1831.55 1232.62 1831.8 1232.73L1832.21 1231.82ZM1839.1 1236.01C1839.35 1236.12 1839.65 1236.01 1839.76 1235.75C1839.87 1235.5 1839.76 1235.21 1839.5 1235.09L1839.1 1236.01ZM1846.75 1238.22C1846.49 1238.12 1846.2 1238.23 1846.09 1238.49C1845.98 1238.74 1846.1 1239.04 1846.36 1239.14L1846.75 1238.22ZM1853.79 1242.23C1854.04 1242.33 1854.33 1242.21 1854.44 1241.95C1854.54 1241.7 1854.42 1241.4 1854.16 1241.3L1853.79 1242.23ZM1861.7 1244.3C1861.45 1244.2 1861.16 1244.32 1861.06 1244.58C1860.96 1244.84 1861.08 1245.13 1861.34 1245.23L1861.7 1244.3ZM1868.84 1248.07C1869.1 1248.17 1869.39 1248.04 1869.48 1247.78C1869.58 1247.52 1869.45 1247.23 1869.19 1247.14L1868.84 1248.07ZM1876.62 1249.82C1876.36 1249.73 1876.08 1249.87 1875.99 1250.13C1875.89 1250.39 1876.03 1250.67 1876.29 1250.77L1876.62 1249.82ZM1883.88 1253.37C1884.15 1253.46 1884.43 1253.32 1884.52 1253.06C1884.6 1252.79 1884.46 1252.51 1884.2 1252.42L1883.88 1253.37ZM1891.91 1254.93C1891.65 1254.84 1891.37 1254.99 1891.28 1255.25C1891.2 1255.52 1891.35 1255.8 1891.61 1255.88L1891.91 1254.93ZM1899.28 1258.22C1899.54 1258.3 1899.82 1258.15 1899.9 1257.89C1899.98 1257.62 1899.83 1257.34 1899.56 1257.26L1899.28 1258.22ZM1907.16 1259.44C1906.89 1259.37 1906.62 1259.52 1906.54 1259.79C1906.47 1260.06 1906.62 1260.33 1906.89 1260.4L1907.16 1259.44ZM1914.69 1262.49C1914.95 1262.56 1915.23 1262.4 1915.3 1262.13C1915.36 1261.86 1915.2 1261.59 1914.94 1261.52L1914.69 1262.49ZM1922.78 1263.46C1922.51 1263.4 1922.24 1263.56 1922.17 1263.83C1922.11 1264.1 1922.28 1264.37 1922.55 1264.43L1922.78 1263.46ZM1930.34 1266.21C1930.61 1266.27 1930.88 1266.1 1930.94 1265.83C1931 1265.56 1930.83 1265.29 1930.56 1265.23L1930.34 1266.21ZM1938.27 1266.83C1938 1266.78 1937.74 1266.96 1937.69 1267.23C1937.63 1267.5 1937.81 1267.76 1938.08 1267.81L1938.27 1266.83ZM1946.09 1269.31C1946.36 1269.36 1946.62 1269.18 1946.67 1268.91C1946.71 1268.63 1946.53 1268.38 1946.26 1268.33L1946.09 1269.31ZM1954.19 1269.64C1953.91 1269.6 1953.66 1269.79 1953.61 1270.06C1953.57 1270.33 1953.76 1270.59 1954.03 1270.63L1954.19 1269.64ZM1961.91 1271.78C1962.19 1271.81 1962.44 1271.62 1962.47 1271.35C1962.51 1271.07 1962.32 1270.82 1962.05 1270.79L1961.91 1271.78ZM1969.98 1271.77C1969.71 1271.74 1969.46 1271.94 1969.43 1272.21C1969.4 1272.49 1969.59 1272.73 1969.87 1272.76L1969.98 1271.77ZM1977.92 1273.59C1978.19 1273.62 1978.44 1273.41 1978.46 1273.14C1978.49 1272.86 1978.28 1272.62 1978.01 1272.59L1977.92 1273.59ZM1985.97 1273.24C1985.69 1273.22 1985.46 1273.43 1985.44 1273.7C1985.42 1273.98 1985.62 1274.22 1985.9 1274.24L1985.97 1273.24ZM1993.83 1274.7C1994.11 1274.72 1994.34 1274.5 1994.36 1274.23C1994.37 1273.95 1994.16 1273.72 1993.88 1273.71L1993.83 1274.7ZM2001.97 1274C2001.69 1274 2001.46 1274.21 2001.45 1274.49C2001.45 1274.77 2001.66 1275 2001.94 1275L2001.97 1274ZM2009.97 1275.12C2010.25 1275.12 2010.47 1274.9 2010.48 1274.62C2010.48 1274.34 2010.25 1274.12 2009.98 1274.12L2009.97 1275.12ZM2017.92 1274.05C2017.64 1274.06 2017.42 1274.29 2017.43 1274.56C2017.43 1274.84 2017.66 1275.06 2017.94 1275.05L2017.92 1274.05ZM2026 1274.81C2026.28 1274.79 2026.49 1274.56 2026.48 1274.28C2026.47 1274.01 2026.24 1273.79 2025.96 1273.81L2026 1274.81ZM2033.98 1273.38C2033.7 1273.39 2033.49 1273.63 2033.51 1273.91C2033.53 1274.18 2033.77 1274.39 2034.04 1274.37L2033.98 1273.38ZM2042.01 1273.76C2042.28 1273.74 2042.49 1273.5 2042.46 1273.22C2042.44 1272.94 2042.19 1272.74 2041.92 1272.77L2042.01 1273.76ZM2049.89 1271.97C2049.62 1272 2049.42 1272.25 2049.45 1272.52C2049.48 1272.8 2049.73 1272.99 2050.01 1272.96L2049.89 1271.97ZM2058 1271.98C2058.27 1271.94 2058.46 1271.69 2058.43 1271.42C2058.39 1271.14 2058.14 1270.95 2057.87 1270.99L2058 1271.98ZM2065.76 1269.83C2065.49 1269.87 2065.3 1270.13 2065.35 1270.4C2065.39 1270.67 2065.65 1270.86 2065.92 1270.82L2065.76 1269.83ZM2073.83 1269.47C2074.1 1269.42 2074.28 1269.16 2074.23 1268.89C2074.18 1268.62 2073.92 1268.44 2073.65 1268.49L2073.83 1269.47ZM2081.53 1266.96C2081.26 1267.02 2081.09 1267.28 2081.15 1267.55C2081.2 1267.82 2081.47 1268 2081.74 1267.94L2081.53 1266.96ZM2089.57 1266.24C2089.84 1266.18 2090 1265.91 2089.94 1265.64C2089.88 1265.37 2089.61 1265.2 2089.34 1265.27L2089.57 1266.24ZM2097.12 1263.39C2096.85 1263.46 2096.69 1263.73 2096.76 1264C2096.83 1264.27 2097.1 1264.43 2097.37 1264.36L2097.12 1263.39ZM2105.15 1262.31C2105.41 1262.23 2105.57 1261.96 2105.5 1261.69C2105.42 1261.43 2105.15 1261.27 2104.88 1261.34L2105.15 1262.31ZM2112.57 1259.13C2112.3 1259.21 2112.15 1259.49 2112.23 1259.75C2112.31 1260.02 2112.59 1260.17 2112.85 1260.09L2112.57 1259.13ZM2120.51 1257.7C2120.77 1257.62 2120.92 1257.34 2120.83 1257.07C2120.75 1256.81 2120.47 1256.67 2120.2 1256.75L2120.51 1257.7ZM2127.81 1254.21C2127.55 1254.3 2127.41 1254.58 2127.5 1254.84C2127.59 1255.1 2127.88 1255.24 2128.14 1255.15L2127.81 1254.21ZM2135.69 1252.44C2135.95 1252.35 2136.08 1252.06 2135.99 1251.8C2135.89 1251.54 2135.6 1251.41 2135.34 1251.51L2135.69 1252.44ZM2142.82 1248.65C2142.56 1248.76 2142.44 1249.05 2142.54 1249.3C2142.64 1249.56 2142.93 1249.69 2143.19 1249.58L2142.82 1248.65ZM2150.64 1246.57C2150.89 1246.46 2151.01 1246.17 2150.91 1245.92C2150.8 1245.66 2150.51 1245.54 2150.25 1245.65L2150.64 1246.57ZM2157.62 1242.5C2157.36 1242.61 2157.25 1242.91 2157.36 1243.16C2157.47 1243.41 2157.76 1243.53 2158.02 1243.41L2157.62 1242.5ZM2165.33 1240.12C2165.59 1240 2165.69 1239.71 2165.58 1239.46C2165.46 1239.2 2165.17 1239.1 2164.92 1239.21L2165.33 1240.12ZM2172.16 1235.78C2171.91 1235.9 2171.81 1236.2 2171.93 1236.45C2172.05 1236.7 2172.35 1236.8 2172.6 1236.68L2172.16 1235.78ZM2179.79 1233.12C2180.03 1232.99 2180.13 1232.69 2180.01 1232.45C2179.88 1232.2 2179.58 1232.1 2179.34 1232.23L2179.79 1233.12ZM2186.45 1228.54C2186.2 1228.67 2186.11 1228.98 2186.24 1229.22C2186.37 1229.46 2186.67 1229.56 2186.92 1229.43L2186.45 1228.54ZM2193.98 1225.61C2194.22 1225.48 2194.31 1225.18 2194.18 1224.93C2194.05 1224.69 2193.74 1224.6 2193.5 1224.74L2193.98 1225.61ZM2200.48 1220.82C2200.24 1220.95 2200.16 1221.26 2200.3 1221.5C2200.44 1221.74 2200.74 1221.82 2200.98 1221.68L2200.48 1220.82ZM2207.92 1217.64C2208.15 1217.5 2208.23 1217.19 2208.09 1216.95C2207.95 1216.72 2207.64 1216.64 2207.4 1216.78L2207.92 1217.64ZM2214.26 1212.64C2214.03 1212.78 2213.95 1213.09 2214.1 1213.32C2214.24 1213.56 2214.55 1213.63 2214.79 1213.49L2214.26 1212.64ZM2221.59 1209.23C2221.83 1209.08 2221.89 1208.78 2221.75 1208.54C2221.6 1208.31 2221.29 1208.24 2221.06 1208.39L2221.59 1209.23ZM2227.79 1204.04C2227.56 1204.19 2227.49 1204.5 2227.64 1204.73C2227.8 1204.97 2228.11 1205.03 2228.34 1204.88L2227.79 1204.04ZM2235.02 1200.43C2235.25 1200.27 2235.31 1199.96 2235.15 1199.73C2235 1199.51 2234.69 1199.45 2234.46 1199.6L2235.02 1200.43ZM2241.07 1195.07C2240.84 1195.23 2240.78 1195.54 2240.94 1195.77C2241.1 1195.99 2241.41 1196.05 2241.64 1195.89L2241.07 1195.07ZM2248.2 1191.26C2248.42 1191.1 2248.47 1190.79 2248.31 1190.57C2248.15 1190.34 2247.84 1190.29 2247.62 1190.45L2248.2 1191.26ZM2254.11 1185.75C2253.88 1185.91 2253.84 1186.22 2254 1186.45C2254.16 1186.67 2254.48 1186.72 2254.7 1186.55L2254.11 1185.75ZM2261.14 1181.77C2261.36 1181.6 2261.4 1181.29 2261.24 1181.07C2261.07 1180.85 2260.76 1180.8 2260.54 1180.97L2261.14 1181.77ZM2266.92 1176.11C2266.7 1176.28 2266.66 1176.6 2266.83 1176.82C2266.99 1177.03 2267.31 1177.07 2267.53 1176.91L2266.92 1176.11ZM2273.86 1171.97C2274.08 1171.8 2274.11 1171.49 2273.94 1171.27C2273.77 1171.05 2273.46 1171.02 2273.24 1171.19L2273.86 1171.97ZM2279.51 1166.2C2279.29 1166.37 2279.26 1166.68 2279.43 1166.9C2279.6 1167.11 2279.92 1167.15 2280.13 1166.97L2279.51 1166.2ZM2286.36 1161.91C2286.58 1161.73 2286.61 1161.42 2286.43 1161.21C2286.26 1160.99 2285.94 1160.96 2285.73 1161.14L2286.36 1161.91ZM2291.9 1156.02C2291.69 1156.19 2291.66 1156.51 2291.84 1156.72C2292.02 1156.93 2292.33 1156.96 2292.54 1156.78L2291.9 1156.02ZM2298.67 1151.61C2298.88 1151.43 2298.9 1151.11 2298.72 1150.9C2298.54 1150.69 2298.23 1150.67 2298.02 1150.85L2298.67 1151.61ZM2304.1 1145.61C2303.89 1145.79 2303.86 1146.11 2304.05 1146.32C2304.23 1146.53 2304.54 1146.55 2304.75 1146.37L2304.1 1145.61ZM2310.79 1141.08C2311 1140.9 2311.02 1140.58 2310.84 1140.37C2310.65 1140.17 2310.34 1140.15 2310.13 1140.33L2310.79 1141.08ZM2316.11 1135.01C2315.91 1135.19 2315.89 1135.51 2316.07 1135.71C2316.26 1135.92 2316.57 1135.94 2316.78 1135.75L2316.11 1135.01ZM2322.74 1130.37C2322.95 1130.18 2322.96 1129.87 2322.77 1129.66C2322.59 1129.46 2322.27 1129.44 2322.07 1129.63L2322.74 1130.37ZM2327.98 1124.21C2327.78 1124.4 2327.77 1124.71 2327.96 1124.92C2328.14 1125.12 2328.46 1125.13 2328.66 1124.94L2327.98 1124.21ZM2334.53 1119.5C2334.73 1119.31 2334.74 1118.99 2334.55 1118.79C2334.36 1118.59 2334.05 1118.58 2333.85 1118.77L2334.53 1119.5ZM2339.7 1113.26C2339.5 1113.45 2339.49 1113.77 2339.68 1113.97C2339.87 1114.17 2340.19 1114.18 2340.39 1113.99L2339.7 1113.26ZM2346.21 1108.46C2346.41 1108.27 2346.41 1107.95 2346.22 1107.75C2346.03 1107.55 2345.72 1107.55 2345.52 1107.74L2346.21 1108.46ZM2351.28 1102.2C2351.08 1102.39 2351.07 1102.71 2351.27 1102.91C2351.46 1103.11 2351.77 1103.11 2351.97 1102.92L2351.28 1102.2ZM2357.75 1097.31C2357.95 1097.12 2357.95 1096.81 2357.76 1096.61C2357.57 1096.41 2357.25 1096.41 2357.05 1096.6L2357.75 1097.31ZM2362.79 1090.99C2362.59 1091.18 2362.59 1091.5 2362.78 1091.7C2362.97 1091.89 2363.29 1091.9 2363.49 1091.7L2362.79 1090.99ZM2369.18 1086.09C2369.37 1085.9 2369.37 1085.58 2369.18 1085.39C2368.98 1085.19 2368.67 1085.19 2368.47 1085.38L2369.18 1086.09ZM2374.19 1079.7C2373.99 1079.9 2373.99 1080.22 2374.19 1080.41C2374.38 1080.61 2374.7 1080.61 2374.9 1080.41L2374.19 1079.7ZM2380.57 1074.75C2380.76 1074.55 2380.76 1074.24 2380.57 1074.04C2380.37 1073.85 2380.05 1073.85 2379.86 1074.04L2380.57 1074.75ZM2385.5 1068.38C2385.31 1068.57 2385.31 1068.89 2385.51 1069.08C2385.7 1069.28 2386.02 1069.28 2386.21 1069.08L2385.5 1068.38ZM2391.89 1063.36C2392.08 1063.17 2392.08 1062.85 2391.89 1062.66C2391.69 1062.46 2391.37 1062.46 2391.18 1062.66L2391.89 1063.36ZM2396.81 1056.98C2396.61 1057.17 2396.61 1057.49 2396.81 1057.68C2397.01 1057.88 2397.32 1057.88 2397.52 1057.68L2396.81 1056.98ZM2.95504 988.098C3.96405 988.874 4.9899 989.657 6.03243 990.447L6.6363 989.65C5.5956 988.861 4.57161 988.08 3.56449 987.306L2.95504 988.098ZM12.4863 995.267C14.548 996.786 16.6661 998.327 18.8396 999.89L19.4232 999.078C17.2528 997.518 15.1379 995.979 13.0795 994.462L12.4863 995.267ZM25.3719 1004.53C27.4965 1006.02 29.6681 1007.53 31.8859 1009.05L32.4522 1008.23C30.2371 1006.71 28.0683 1005.2 25.9465 1003.71L25.3719 1004.53ZM38.471 1013.53C40.6429 1014.99 42.8549 1016.47 45.1064 1017.95L45.6571 1017.12C43.4082 1015.63 41.1986 1014.16 39.0293 1012.7L38.471 1013.53ZM51.752 1022.3C53.957 1023.72 56.1967 1025.16 58.4704 1026.61L59.0069 1025.76C56.7355 1024.32 54.4981 1022.88 52.2955 1021.46L51.752 1022.3ZM65.1875 1030.84C67.4163 1032.23 69.6755 1033.63 71.9644 1035.03L72.4875 1034.18C70.2007 1032.78 67.9438 1031.38 65.7172 1029.99L65.1875 1030.84ZM78.7627 1039.17C81.0093 1040.52 83.2828 1041.88 85.5826 1043.25L86.0928 1042.39C83.7951 1041.03 81.5237 1039.67 79.2792 1038.31L78.7627 1039.17ZM92.4693 1047.3C94.73 1048.62 97.0146 1049.94 99.3227 1051.27L99.8204 1050.4C97.5144 1049.07 95.2319 1047.75 92.9732 1046.44L92.4693 1047.3ZM106.302 1055.24C108.575 1056.52 110.869 1057.8 113.184 1059.09L113.669 1058.22C111.356 1056.93 109.064 1055.65 106.794 1054.37L106.302 1055.24ZM120.191 1062.95C122.496 1064.21 124.82 1065.47 127.164 1066.73L127.637 1065.85C125.296 1064.59 122.973 1063.33 120.67 1062.07L120.191 1062.95ZM134.184 1070.47C136.525 1071.71 138.885 1072.94 141.263 1074.18L141.724 1073.29C139.348 1072.06 136.991 1070.82 134.652 1069.59L134.184 1070.47ZM148.296 1077.81C150.658 1079.02 153.036 1080.22 155.432 1081.43L155.881 1080.54C153.488 1079.33 151.111 1078.13 148.752 1076.92L148.296 1077.81ZM162.525 1084.97C164.89 1086.14 167.271 1087.31 169.667 1088.47L170.104 1087.57C167.711 1086.41 165.332 1085.24 162.969 1084.07L162.525 1084.97ZM176.869 1091.95C179.239 1093.08 181.622 1094.21 184.02 1095.34L184.446 1094.43C182.05 1093.3 179.668 1092.18 177.3 1091.04L176.869 1091.95ZM191.255 1098.71C193.653 1099.81 196.064 1100.92 198.488 1102.02L198.901 1101.11C196.479 1100.01 194.07 1098.9 191.674 1097.8L191.255 1098.71ZM205.73 1105.27C208.156 1106.35 210.595 1107.43 213.047 1108.5L213.447 1107.58C210.998 1106.51 208.561 1105.44 206.137 1104.36L205.73 1105.27ZM220.319 1111.65C222.748 1112.69 225.189 1113.73 227.641 1114.76L228.029 1113.84C225.579 1112.81 223.14 1111.77 220.713 1110.73L220.319 1111.65ZM235.017 1117.84C237.45 1118.85 239.894 1119.84 242.349 1120.84L242.724 1119.91C240.272 1118.92 237.83 1117.92 235.398 1116.92L235.017 1117.84ZM249.745 1123.8C252.208 1124.78 254.682 1125.75 257.165 1126.72L257.527 1125.78C255.046 1124.82 252.575 1123.85 250.113 1122.87L249.745 1123.8ZM264.571 1129.56C267.049 1130.5 269.537 1131.44 272.034 1132.37L272.382 1131.43C269.888 1130.5 267.402 1129.57 264.926 1128.63L264.571 1129.56ZM279.503 1135.12C281.985 1136.02 284.477 1136.92 286.977 1137.81L287.312 1136.87C284.814 1135.98 282.325 1135.08 279.845 1134.18L279.503 1135.12ZM294.502 1140.45C297 1141.32 299.507 1142.18 302.022 1143.03L302.343 1142.08C299.831 1141.23 297.326 1140.37 294.83 1139.51L294.502 1140.45ZM309.56 1145.55C312.08 1146.39 314.608 1147.21 317.143 1148.03L317.45 1147.08C314.917 1146.26 312.391 1145.44 309.873 1144.61L309.56 1145.55ZM324.717 1150.44C327.242 1151.23 329.774 1152.01 332.314 1152.79L332.605 1151.83C330.069 1151.05 327.539 1150.27 325.016 1149.48L324.717 1150.44ZM339.952 1155.08C342.488 1155.83 345.03 1156.58 347.579 1157.31L347.856 1156.35C345.309 1155.61 342.77 1154.87 340.237 1154.12L339.952 1155.08ZM355.232 1159.48C357.79 1160.19 360.353 1160.89 362.923 1161.59L363.183 1160.62C360.616 1159.93 358.056 1159.23 355.501 1158.51L355.232 1159.48ZM370.602 1163.63C373.165 1164.3 375.733 1164.95 378.308 1165.6L378.552 1164.63C375.981 1163.99 373.415 1163.33 370.855 1162.66L370.602 1163.63ZM386.047 1167.52C388.618 1168.14 391.195 1168.76 393.777 1169.36L394.004 1168.39C391.426 1167.79 388.852 1167.17 386.283 1166.55L386.047 1167.52ZM401.532 1171.14C404.122 1171.72 406.717 1172.29 409.316 1172.85L409.527 1171.88C406.93 1171.32 404.338 1170.75 401.751 1170.17L401.532 1171.14ZM417.094 1174.49C419.69 1175.03 422.29 1175.55 424.895 1176.06L425.087 1175.08C422.486 1174.57 419.889 1174.05 417.296 1173.51L417.094 1174.49ZM432.721 1177.56C435.324 1178.05 437.932 1178.52 440.543 1178.98L440.718 1178C438.109 1177.54 435.505 1177.06 432.905 1176.58L432.721 1177.56ZM448.385 1180.33C451.003 1180.77 453.624 1181.2 456.249 1181.61L456.404 1180.62C453.783 1180.21 451.164 1179.78 448.55 1179.35L448.385 1180.33ZM464.111 1182.81C466.734 1183.19 469.36 1183.56 471.989 1183.93L472.125 1182.93C469.499 1182.57 466.876 1182.2 464.257 1181.82L464.111 1182.81ZM479.886 1184.97C482.515 1185.3 485.147 1185.62 487.782 1185.93L487.898 1184.93C485.266 1184.63 482.638 1184.31 480.012 1183.97L479.886 1184.97ZM495.691 1186.8C498.33 1187.08 500.972 1187.35 503.616 1187.6L503.71 1186.6C501.07 1186.35 498.432 1186.09 495.796 1185.81L495.691 1186.8ZM511.539 1188.31C514.182 1188.53 516.826 1188.74 519.473 1188.93L519.545 1187.93C516.903 1187.74 514.262 1187.53 511.623 1187.31L511.539 1188.31ZM527.418 1189.47C530.064 1189.63 532.712 1189.78 535.362 1189.92L535.412 1188.92C532.766 1188.78 530.122 1188.63 527.48 1188.47L527.418 1189.47ZM543.311 1190.27C545.963 1190.38 548.616 1190.47 551.27 1190.54L551.298 1189.54C548.647 1189.47 545.998 1189.38 543.351 1189.27L543.311 1190.27ZM559.225 1190.71C561.877 1190.76 564.529 1190.78 567.183 1190.79L567.187 1189.79C564.537 1189.78 561.889 1189.76 559.241 1189.71L559.225 1190.71ZM575.145 1190.78C577.797 1190.76 580.45 1190.72 583.103 1190.67L583.082 1189.67C580.433 1189.72 577.785 1189.76 575.137 1189.78L575.145 1190.78ZM591.057 1190.46C593.709 1190.37 596.362 1190.27 599.014 1190.14L598.969 1189.15C596.321 1189.27 593.672 1189.37 591.025 1189.46L591.057 1190.46ZM606.962 1189.73C609.609 1189.58 612.256 1189.41 614.903 1189.22L614.832 1188.22C612.189 1188.41 609.547 1188.58 606.904 1188.74L606.962 1189.73ZM622.842 1188.6C624.165 1188.49 625.488 1188.38 626.811 1188.26L626.721 1187.26C625.4 1187.38 624.079 1187.5 622.758 1187.61L622.842 1188.6ZM626.811 1188.26C628.147 1188.13 629.481 1188.01 630.814 1187.87L630.713 1186.88C629.383 1187.01 628.053 1187.14 626.721 1187.26L626.811 1188.26ZM638.8 1186.98C641.458 1186.65 644.111 1186.3 646.761 1185.93L646.62 1184.94C643.977 1185.31 641.33 1185.66 638.679 1185.98L638.8 1186.98ZM654.697 1184.72C657.337 1184.29 659.973 1183.84 662.605 1183.36L662.427 1182.37C659.801 1182.85 657.171 1183.3 654.537 1183.73L654.697 1184.72ZM670.489 1181.85C673.112 1181.33 675.733 1180.78 678.349 1180.2L678.135 1179.23C675.524 1179.8 672.91 1180.35 670.292 1180.87L670.489 1181.85ZM686.188 1178.42C688.785 1177.8 691.379 1177.16 693.97 1176.5L693.723 1175.53C691.138 1176.19 688.549 1176.83 685.957 1177.44L686.188 1178.42ZM701.727 1174.46C704.309 1173.76 706.888 1173.03 709.464 1172.29L709.187 1171.33C706.616 1172.07 704.042 1172.79 701.464 1173.49L701.727 1174.46ZM717.179 1170C719.728 1169.22 722.274 1168.43 724.817 1167.61L724.512 1166.66C721.973 1167.47 719.432 1168.27 716.887 1169.04L717.179 1170ZM732.438 1165.11C734.976 1164.26 737.51 1163.39 740.042 1162.5L739.712 1161.56C737.184 1162.44 734.653 1163.31 732.12 1164.16L732.438 1165.11ZM747.616 1159.79C750.119 1158.88 752.619 1157.95 755.117 1157.01L754.763 1156.07C752.269 1157.01 749.772 1157.94 747.273 1158.85L747.616 1159.79ZM762.603 1154.12C765.096 1153.15 767.586 1152.16 770.075 1151.15L769.7 1150.22C767.215 1151.23 764.727 1152.22 762.238 1153.19L762.603 1154.12ZM777.511 1148.1C779.971 1147.07 782.428 1146.04 784.883 1144.98L784.49 1144.07C782.037 1145.12 779.583 1146.15 777.127 1147.17L777.511 1148.1ZM792.244 1141.79C794.695 1140.72 797.145 1139.63 799.593 1138.53L799.183 1137.62C796.737 1138.71 794.29 1139.8 791.842 1140.88L792.244 1141.79ZM806.906 1135.2C809.327 1134.09 811.747 1132.96 814.165 1131.83L813.741 1130.92C811.325 1132.06 808.907 1133.18 806.488 1134.29L806.906 1135.2ZM821.415 1128.39C823.831 1127.24 826.245 1126.07 828.657 1124.9L828.219 1124C825.809 1125.17 823.397 1126.34 820.984 1127.49L821.415 1128.39ZM835.867 1121.36C838.257 1120.18 840.645 1118.99 843.033 1117.79L842.584 1116.9C840.198 1118.09 837.812 1119.28 835.424 1120.47L835.867 1121.36ZM850.192 1114.17C852.578 1112.96 854.962 1111.73 857.346 1110.51L856.887 1109.62C854.505 1110.85 852.123 1112.07 849.739 1113.28L850.192 1114.17ZM864.475 1106.81C866.84 1105.58 869.205 1104.34 871.57 1103.09L871.104 1102.21C868.741 1103.45 866.377 1104.69 864.013 1105.92L864.475 1106.81ZM878.66 1099.34C881.023 1098.09 883.385 1096.83 885.747 1095.56L885.275 1094.68C882.914 1095.94 880.553 1097.2 878.191 1098.46L878.66 1099.34ZM892.819 1091.76C895.169 1090.49 897.518 1089.22 899.866 1087.95L899.389 1087.07C897.041 1088.34 894.693 1089.61 892.344 1090.88L892.819 1091.76ZM906.912 1084.11C909.26 1082.83 911.608 1081.55 913.956 1080.26L913.476 1079.38C911.128 1080.67 908.781 1081.95 906.433 1083.23L906.912 1084.11ZM920.994 1076.4C923.336 1075.11 925.677 1073.83 928.019 1072.54L927.536 1071.66C925.195 1072.95 922.854 1074.24 920.512 1075.52L920.994 1076.4ZM935.044 1068.67C937.385 1067.37 939.727 1066.08 942.069 1064.79L941.587 1063.92C939.244 1065.21 936.903 1066.5 934.561 1067.79L935.044 1068.67ZM949.096 1060.92C951.438 1059.63 953.78 1058.34 956.123 1057.05L955.641 1056.17C953.298 1057.46 950.956 1058.75 948.613 1060.04L949.096 1060.92ZM963.152 1053.18C965.496 1051.9 967.84 1050.61 970.185 1049.33L969.705 1048.45C967.359 1049.73 965.015 1051.02 962.671 1052.31L963.152 1053.18ZM977.223 1045.49C979.573 1044.21 981.924 1042.93 984.276 1041.65L983.8 1040.77C981.447 1042.05 979.095 1043.33 976.744 1044.61L977.223 1045.49ZM991.334 1037.84C993.688 1036.57 996.042 1035.31 998.398 1034.05L997.926 1033.17C995.57 1034.43 993.215 1035.69 990.86 1036.96L991.334 1037.84ZM1005.47 1030.29C1007.84 1029.03 1010.21 1027.78 1012.57 1026.54L1012.11 1025.65C1009.74 1026.9 1007.37 1028.15 1005 1029.4L1005.47 1030.29ZM1019.69 1022.82C1022.06 1021.59 1024.43 1020.36 1026.8 1019.14L1026.35 1018.25C1023.97 1019.47 1021.6 1020.7 1019.22 1021.94L1019.69 1022.82ZM1033.93 1015.5C1036.32 1014.29 1038.72 1013.08 1041.11 1011.89L1040.66 1010.99C1038.27 1012.19 1035.87 1013.4 1033.48 1014.61L1033.93 1015.5ZM1048.3 1008.32C1050.69 1007.13 1053.09 1005.96 1055.49 1004.8L1055.06 1003.9C1052.65 1005.06 1050.25 1006.24 1047.85 1007.42L1048.3 1008.32ZM1062.7 1001.33C1065.12 1000.18 1067.55 999.033 1069.97 997.899L1069.55 996.993C1067.12 998.128 1064.69 999.273 1062.27 1000.43L1062.7 1001.33ZM1077.25 994.528C1079.68 993.415 1082.11 992.313 1084.55 991.222L1084.14 990.31C1081.7 991.402 1079.27 992.505 1076.84 993.619L1077.25 994.528ZM1091.86 987.984C1094.32 986.908 1096.78 985.844 1099.24 984.793L1098.85 983.874C1096.38 984.926 1093.92 985.99 1091.46 987.068L1091.86 987.984ZM1106.63 981.68C1109.1 980.655 1111.57 979.644 1114.04 978.647L1113.67 977.719C1111.19 978.718 1108.72 979.73 1106.25 980.756L1106.63 981.68ZM1121.47 975.695C1123.97 974.719 1126.47 973.757 1128.98 972.81L1128.62 971.875C1126.12 972.823 1123.61 973.786 1121.11 974.764L1121.47 975.695ZM1136.5 970.018C1139 969.104 1141.52 968.205 1144.03 967.323L1143.7 966.379C1141.18 967.263 1138.67 968.163 1136.15 969.079L1136.5 970.018ZM1151.6 964.723C1154.14 963.869 1156.68 963.032 1159.23 962.213L1158.92 961.261C1156.37 962.081 1153.82 962.92 1151.28 963.776L1151.6 964.723ZM1166.88 959.812C1169.43 959.03 1171.99 958.267 1174.55 957.523L1174.27 956.563C1171.7 957.308 1169.14 958.072 1166.58 958.856L1166.88 959.812ZM1182.25 955.347C1184.83 954.639 1187.42 953.952 1190 953.285L1189.75 952.316C1187.16 952.985 1184.57 953.674 1181.99 954.383L1182.25 955.347ZM1197.78 951.347C1200.38 950.722 1202.98 950.119 1205.58 949.538L1205.36 948.562C1202.75 949.144 1200.15 949.749 1197.55 950.375L1197.78 951.347ZM1213.41 947.86C1216.03 947.323 1218.65 946.809 1221.27 946.318L1221.09 945.335C1218.46 945.827 1215.83 946.342 1213.21 946.881L1213.41 947.86ZM1229.16 944.916C1231.79 944.473 1234.43 944.053 1237.07 943.659L1236.93 942.67C1234.28 943.065 1231.63 943.485 1228.99 943.93L1229.16 944.916ZM1245 942.552C1247.64 942.208 1250.29 941.89 1252.95 941.597L1252.84 940.603C1250.18 940.897 1247.52 941.216 1244.87 941.56L1245 942.552ZM1260.92 940.798C1263.58 940.558 1266.25 940.344 1268.92 940.158L1268.85 939.16C1266.17 939.347 1263.5 939.562 1260.83 939.802L1260.92 940.798ZM1276.9 939.683C1279.55 939.552 1282.22 939.448 1284.88 939.373L1284.85 938.373C1282.18 938.449 1279.51 938.553 1276.85 938.684L1276.9 939.683ZM1292.9 939.229C1295.57 939.21 1298.25 939.219 1300.94 939.257L1300.95 938.257C1298.26 938.219 1295.57 938.21 1292.89 938.229L1292.9 939.229ZM1308.91 939.455C1311.57 939.55 1314.22 939.673 1316.88 939.825L1316.94 938.827C1314.27 938.674 1311.61 938.551 1308.95 938.456L1308.91 939.455ZM1324.89 940.371C1327.56 940.583 1330.24 940.824 1332.92 941.096L1333.02 940.101C1330.33 939.828 1327.64 939.586 1324.96 939.374L1324.89 940.371ZM1340.83 941.984C1343.46 942.308 1346.09 942.661 1348.72 943.044L1348.87 942.055C1346.22 941.67 1343.58 941.316 1340.95 940.992L1340.83 941.984ZM1356.65 944.285C1359.3 944.728 1361.95 945.203 1364.61 945.708L1364.79 944.726C1362.13 944.219 1359.47 943.743 1356.81 943.298L1356.65 944.285ZM1372.41 947.279C1374.99 947.826 1377.58 948.403 1380.16 949.01L1380.39 948.037C1377.8 947.428 1375.21 946.85 1372.62 946.301L1372.41 947.279ZM1387.95 950.922C1390.55 951.589 1393.15 952.287 1395.76 953.016L1396.03 952.053C1393.42 951.322 1390.8 950.623 1388.2 949.953L1387.95 950.922ZM1403.46 955.251C1405.97 956.007 1408.48 956.793 1411 957.607L1411.31 956.656C1408.79 955.839 1406.26 955.052 1403.75 954.293L1403.46 955.251ZM1418.58 960.14C1421.11 961.014 1423.65 961.917 1426.19 962.85L1426.53 961.912C1423.99 960.976 1421.44 960.07 1418.91 959.195L1418.58 960.14ZM1433.81 965.736C1436.23 966.679 1438.66 967.651 1441.1 968.65L1441.48 967.725C1439.04 966.724 1436.6 965.75 1434.17 964.804L1433.81 965.736ZM1448.41 971.733C1450.85 972.789 1453.3 973.872 1455.75 974.985L1456.17 974.074C1453.71 972.959 1451.25 971.873 1448.81 970.815L1448.41 971.733ZM1463.13 978.409C1465.53 979.553 1467.95 980.725 1470.36 981.925L1470.81 981.029C1468.39 979.827 1465.97 978.652 1463.56 977.506L1463.13 978.409ZM1477.37 985.475C1479.71 986.685 1482.06 987.921 1484.41 989.184L1484.88 988.303C1482.53 987.038 1480.18 985.799 1477.83 984.587L1477.37 985.475ZM1491.47 993.053C1493.83 994.37 1496.2 995.713 1498.57 997.085L1499.07 996.219C1496.7 994.845 1494.33 993.499 1491.96 992.18L1491.47 993.053ZM1505.48 1001.16C1507.71 1002.49 1509.95 1003.85 1512.19 1005.24L1512.71 1004.39C1510.47 1003 1508.23 1001.64 1506 1000.3L1505.48 1001.16ZM1518.91 1009.46C1521.16 1010.9 1523.41 1012.35 1525.67 1013.84L1526.21 1013C1523.96 1011.52 1521.7 1010.05 1519.45 1008.62L1518.91 1009.46ZM1532.45 1018.36C1534.68 1019.88 1536.92 1021.41 1539.16 1022.98L1539.73 1022.16C1537.49 1020.59 1535.24 1019.05 1533.01 1017.53L1532.45 1018.36ZM1545.54 1027.48C1547.66 1029 1549.8 1030.54 1551.93 1032.11L1552.53 1031.31C1550.39 1029.74 1548.25 1028.19 1546.12 1026.66L1545.54 1027.48ZM1558.36 1036.88C1560.5 1038.5 1562.65 1040.13 1564.8 1041.79L1565.41 1041C1563.26 1039.34 1561.11 1037.7 1558.96 1036.09L1558.36 1036.88ZM1571.28 1046.84C1573.35 1048.48 1575.43 1050.14 1577.52 1051.82L1578.14 1051.05C1576.06 1049.36 1573.97 1047.7 1571.89 1046.06L1571.28 1046.84ZM1583.58 1056.77C1585.61 1058.44 1587.63 1060.13 1589.67 1061.84L1590.31 1061.08C1588.27 1059.36 1586.24 1057.67 1584.22 1056L1583.58 1056.77ZM1595.77 1067.04C1597.81 1068.79 1599.85 1070.56 1601.9 1072.36L1602.56 1071.6C1600.51 1069.81 1598.47 1068.03 1596.42 1066.28L1595.77 1067.04ZM1608.05 1077.8C1609.08 1078.72 1610.11 1079.64 1611.14 1080.57L1611.81 1079.83C1610.78 1078.9 1609.75 1077.97 1608.72 1077.06L1608.05 1077.8ZM1611.14 1080.57C1612.16 1081.49 1613.18 1082.41 1614.2 1083.33L1614.87 1082.58C1613.85 1081.67 1612.83 1080.75 1611.81 1079.83L1611.14 1080.57ZM1620.31 1088.78C1622.34 1090.58 1624.37 1092.36 1626.39 1094.14L1627.05 1093.38C1625.03 1091.61 1623 1089.83 1620.97 1088.03L1620.31 1088.78ZM1632.45 1099.4C1634.46 1101.14 1636.47 1102.87 1638.48 1104.58L1639.13 1103.82C1637.12 1102.11 1635.11 1100.39 1633.1 1098.65L1632.45 1099.4ZM1644.48 1109.67C1646.52 1111.39 1648.56 1113.1 1650.6 1114.79L1651.24 1114.03C1649.2 1112.33 1647.17 1110.63 1645.12 1108.91L1644.48 1109.67ZM1656.92 1120.01C1659.02 1121.73 1661.11 1123.44 1663.2 1125.12L1663.83 1124.35C1661.74 1122.66 1659.65 1120.96 1657.55 1119.24L1656.92 1120.01ZM1669.46 1130.14C1671.54 1131.8 1673.62 1133.44 1675.69 1135.06L1676.31 1134.27C1674.24 1132.65 1672.16 1131.01 1670.08 1129.36L1669.46 1130.14ZM1681.89 1139.88C1684.03 1141.54 1686.17 1143.18 1688.31 1144.8L1688.91 1144C1686.78 1142.38 1684.64 1140.75 1682.5 1139.09L1681.89 1139.88ZM1694.83 1149.71C1696.99 1151.33 1699.16 1152.93 1701.31 1154.52L1701.9 1153.71C1699.75 1152.13 1697.59 1150.53 1695.42 1148.91L1694.83 1149.71ZM1707.77 1159.22C1709.91 1160.76 1712.05 1162.3 1714.19 1163.81L1714.76 1162.99C1712.63 1161.48 1710.49 1159.95 1708.35 1158.41L1707.77 1159.22ZM1720.67 1168.36C1722.93 1169.93 1725.18 1171.48 1727.42 1173.02L1727.98 1172.19C1725.74 1170.66 1723.5 1169.11 1721.24 1167.54L1720.67 1168.36ZM1734.13 1177.55C1736.36 1179.04 1738.59 1180.51 1740.81 1181.97L1741.35 1181.13C1739.14 1179.68 1736.92 1178.21 1734.69 1176.72L1734.13 1177.55ZM1747.44 1186.27C1749.67 1187.7 1751.9 1189.11 1754.11 1190.5L1754.64 1189.65C1752.43 1188.26 1750.21 1186.85 1747.98 1185.43L1747.44 1186.27ZM1761.08 1194.82C1763.39 1196.24 1765.7 1197.64 1768.01 1199.01L1768.52 1198.15C1766.22 1196.78 1763.91 1195.38 1761.6 1193.97L1761.08 1194.82ZM1774.89 1203.08C1777.18 1204.42 1779.46 1205.73 1781.74 1207.03L1782.23 1206.16C1779.96 1204.86 1777.68 1203.55 1775.4 1202.22L1774.89 1203.08ZM1788.69 1210.93C1791.09 1212.26 1793.48 1213.56 1795.86 1214.84L1796.34 1213.96C1793.96 1212.68 1791.57 1211.38 1789.18 1210.05L1788.69 1210.93ZM1802.99 1218.62C1805.36 1219.86 1807.72 1221.07 1810.07 1222.26L1810.52 1221.37C1808.17 1220.18 1805.82 1218.97 1803.45 1217.73L1802.99 1218.62ZM1817.11 1225.77C1819.56 1226.97 1822.01 1228.15 1824.45 1229.31L1824.87 1228.4C1822.44 1227.25 1820 1226.07 1817.55 1224.87L1817.11 1225.77ZM1831.8 1232.73C1834.24 1233.85 1836.67 1234.94 1839.1 1236.01L1839.5 1235.09C1837.08 1234.03 1834.65 1232.94 1832.21 1231.82L1831.8 1232.73ZM1846.36 1239.14C1848.84 1240.2 1851.32 1241.22 1853.79 1242.23L1854.16 1241.3C1851.7 1240.3 1849.23 1239.27 1846.75 1238.22L1846.36 1239.14ZM1861.34 1245.23C1863.85 1246.2 1866.35 1247.15 1868.84 1248.07L1869.19 1247.14C1866.7 1246.21 1864.21 1245.27 1861.7 1244.3L1861.34 1245.23ZM1876.29 1250.77C1878.83 1251.66 1881.36 1252.53 1883.88 1253.37L1884.2 1252.42C1881.68 1251.58 1879.16 1250.72 1876.62 1249.82L1876.29 1250.77ZM1891.61 1255.88C1894.18 1256.69 1896.73 1257.47 1899.28 1258.22L1899.56 1257.26C1897.02 1256.51 1894.47 1255.73 1891.91 1254.93L1891.61 1255.88ZM1906.89 1260.4C1909.5 1261.13 1912.1 1261.82 1914.69 1262.49L1914.94 1261.52C1912.35 1260.86 1909.76 1260.16 1907.16 1259.44L1906.89 1260.4ZM1922.55 1264.43C1925.15 1265.05 1927.75 1265.65 1930.34 1266.21L1930.56 1265.23C1927.97 1264.67 1925.38 1264.08 1922.78 1263.46L1922.55 1264.43ZM1938.08 1267.81C1940.76 1268.34 1943.43 1268.84 1946.09 1269.31L1946.26 1268.33C1943.61 1267.86 1940.95 1267.36 1938.27 1266.83L1938.08 1267.81ZM1954.03 1270.63C1956.67 1271.04 1959.3 1271.42 1961.91 1271.78L1962.05 1270.79C1959.44 1270.43 1956.82 1270.05 1954.19 1269.64L1954.03 1270.63ZM1969.87 1272.76C1972.56 1273.07 1975.25 1273.35 1977.92 1273.59L1978.01 1272.59C1975.35 1272.35 1972.67 1272.08 1969.98 1271.77L1969.87 1272.76ZM1985.9 1274.24C1988.56 1274.42 1991.2 1274.58 1993.83 1274.7L1993.88 1273.71C1991.26 1273.58 1988.62 1273.42 1985.97 1273.24L1985.9 1274.24ZM2001.94 1275C2004.63 1275.07 2007.31 1275.11 2009.97 1275.12L2009.98 1274.12C2007.32 1274.11 2004.65 1274.07 2001.97 1274L2001.94 1275ZM2017.94 1275.05C2020.64 1275 2023.33 1274.92 2026 1274.81L2025.96 1273.81C2023.29 1273.92 2020.61 1274 2017.92 1274.05L2017.94 1275.05ZM2034.04 1274.37C2036.71 1274.2 2039.36 1274 2042.01 1273.76L2041.92 1272.77C2039.28 1273 2036.64 1273.2 2033.98 1273.38L2034.04 1274.37ZM2050.01 1272.96C2052.68 1272.66 2055.35 1272.34 2058 1271.98L2057.87 1270.99C2055.22 1271.34 2052.56 1271.67 2049.89 1271.97L2050.01 1272.96ZM2065.92 1270.82C2068.57 1270.4 2071.21 1269.95 2073.83 1269.47L2073.65 1268.49C2071.03 1268.96 2068.4 1269.41 2065.76 1269.83L2065.92 1270.82ZM2081.74 1267.94C2084.36 1267.4 2086.97 1266.84 2089.57 1266.24L2089.34 1265.27C2086.75 1265.86 2084.15 1266.42 2081.53 1266.96L2081.74 1267.94ZM2097.37 1264.36C2099.97 1263.71 2102.57 1263.02 2105.15 1262.31L2104.88 1261.34C2102.31 1262.05 2099.72 1262.74 2097.12 1263.39L2097.37 1264.36ZM2112.85 1260.09C2115.42 1259.32 2117.97 1258.52 2120.51 1257.7L2120.2 1256.75C2117.67 1257.57 2115.12 1258.36 2112.57 1259.13L2112.85 1260.09ZM2128.14 1255.15C2130.67 1254.27 2133.19 1253.37 2135.69 1252.44L2135.34 1251.51C2132.85 1252.43 2130.33 1253.33 2127.81 1254.21L2128.14 1255.15ZM2143.19 1249.58C2145.68 1248.6 2148.17 1247.6 2150.64 1246.57L2150.25 1245.65C2147.79 1246.67 2145.31 1247.68 2142.82 1248.65L2143.19 1249.58ZM2158.02 1243.41C2160.47 1242.34 2162.91 1241.24 2165.33 1240.12L2164.92 1239.21C2162.49 1240.33 2160.06 1241.43 2157.62 1242.5L2158.02 1243.41ZM2172.6 1236.68C2175 1235.52 2177.4 1234.33 2179.79 1233.12L2179.34 1232.23C2176.96 1233.43 2174.56 1234.62 2172.16 1235.78L2172.6 1236.68ZM2186.92 1229.43C2189.28 1228.18 2191.64 1226.9 2193.98 1225.61L2193.5 1224.74C2191.16 1226.03 2188.81 1227.3 2186.45 1228.54L2186.92 1229.43ZM2200.98 1221.68C2203.3 1220.35 2205.61 1219.01 2207.92 1217.64L2207.4 1216.78C2205.11 1218.14 2202.8 1219.49 2200.48 1220.82L2200.98 1221.68ZM2214.79 1213.49C2217.07 1212.09 2219.34 1210.67 2221.59 1209.23L2221.06 1208.39C2218.8 1209.82 2216.54 1211.24 2214.26 1212.64L2214.79 1213.49ZM2228.34 1204.88C2230.57 1203.41 2232.8 1201.93 2235.02 1200.43L2234.46 1199.6C2232.25 1201.1 2230.02 1202.58 2227.79 1204.04L2228.34 1204.88ZM2241.64 1195.89C2243.83 1194.36 2246.02 1192.82 2248.2 1191.26L2247.62 1190.45C2245.44 1192 2243.26 1193.54 2241.07 1195.07L2241.64 1195.89ZM2254.7 1186.55C2256.86 1184.97 2259 1183.38 2261.14 1181.77L2260.54 1180.97C2258.41 1182.57 2256.26 1184.17 2254.11 1185.75L2254.7 1186.55ZM2267.53 1176.91C2269.65 1175.27 2271.76 1173.63 2273.86 1171.97L2273.24 1171.19C2271.14 1172.84 2269.03 1174.48 2266.92 1176.11L2267.53 1176.91ZM2280.13 1166.97C2282.22 1165.3 2284.3 1163.61 2286.36 1161.91L2285.73 1161.14C2283.66 1162.83 2281.59 1164.52 2279.51 1166.2L2280.13 1166.97ZM2292.54 1156.78C2294.59 1155.07 2296.63 1153.34 2298.67 1151.61L2298.02 1150.85C2295.99 1152.58 2293.95 1154.3 2291.9 1156.02L2292.54 1156.78ZM2304.75 1146.37C2306.77 1144.61 2308.79 1142.85 2310.79 1141.08L2310.13 1140.33C2308.13 1142.1 2306.12 1143.86 2304.1 1145.61L2304.75 1146.37ZM2316.78 1135.75C2318.78 1133.96 2320.76 1132.17 2322.74 1130.37L2322.07 1129.63C2320.09 1131.43 2318.11 1133.22 2316.11 1135.01L2316.78 1135.75ZM2328.66 1124.94C2330.63 1123.13 2332.58 1121.32 2334.53 1119.5L2333.85 1118.77C2331.9 1120.58 2329.95 1122.4 2327.98 1124.21L2328.66 1124.94ZM2340.39 1113.99C2342.34 1112.15 2344.28 1110.31 2346.21 1108.46L2345.52 1107.74C2343.59 1109.58 2341.65 1111.42 2339.7 1113.26L2340.39 1113.99ZM2351.97 1102.92C2353.91 1101.05 2355.83 1099.18 2357.75 1097.31L2357.05 1096.6C2355.14 1098.47 2353.21 1100.33 2351.28 1102.2L2351.97 1102.92ZM2363.49 1091.7C2365.39 1089.83 2367.29 1087.96 2369.18 1086.09L2368.47 1085.38C2366.58 1087.25 2364.69 1089.12 2362.79 1090.99L2363.49 1091.7ZM2374.9 1080.41C2376.79 1078.52 2378.68 1076.63 2380.57 1074.75L2379.86 1074.04C2377.98 1075.93 2376.09 1077.81 2374.19 1079.7L2374.9 1080.41ZM2386.21 1069.08C2388.11 1067.17 2390.01 1065.26 2391.89 1063.36L2391.18 1062.66C2389.3 1064.56 2387.4 1066.47 2385.5 1068.38L2386.21 1069.08ZM2397.52 1057.68C2398.45 1056.73 2399.38 1055.79 2400.31 1054.85L2399.6 1054.15C2398.67 1055.09 2397.74 1056.03 2396.81 1056.98L2397.52 1057.68Z" fill="#181926"/>
</svg>
