<svg width="618" height="443" viewBox="0 0 618 443" fill="none" xmlns="http://www.w3.org/2000/svg">
<path d="M45.1873 378.531H607.867" stroke="#181926" stroke-width="1.48498" stroke-linecap="round" stroke-linejoin="round"/>
<g style="mix-blend-mode:multiply" opacity="0.1">
<path d="M565.634 396.552C565.634 400.617 549.848 403.971 530.376 403.971C510.904 403.971 495.129 400.658 495.129 396.552C495.129 392.446 510.915 389.142 530.376 389.142C549.838 389.142 565.634 392.466 565.634 396.552Z" fill="#181926"/>
</g>
<path d="M411.241 56.548H408.282V36.9329L402.348 39.1124V36.4398L410.779 33.274H411.241V56.548ZM434.387 46.6689C434.387 50.1157 433.799 52.6769 432.622 54.3526C431.444 56.0283 429.604 56.8661 427.101 56.8661C424.63 56.8661 422.801 56.0495 421.613 54.4162C420.425 52.7724 419.81 50.3225 419.768 47.0666V43.1372C419.768 39.7328 420.356 37.2034 421.534 35.5489C422.711 33.8944 424.556 33.0672 427.07 33.0672C429.562 33.0672 431.397 33.8679 432.574 35.4694C433.751 37.0602 434.356 39.5207 434.387 42.8508V46.6689ZM431.444 42.644C431.444 40.1517 431.094 38.3382 430.394 37.2034C429.695 36.058 428.586 35.4853 427.07 35.4853C425.564 35.4853 424.466 36.0527 423.777 37.1875C423.087 38.3223 422.732 40.0669 422.711 42.4213V47.1302C422.711 49.6331 423.071 51.4838 423.792 52.6822C424.524 53.8701 425.627 54.464 427.101 54.464C428.554 54.464 429.631 53.9019 430.331 52.7777C431.041 51.6535 431.413 49.8824 431.444 47.4643V42.644ZM447.83 56.548H444.871V36.9329L438.937 39.1124V36.4398L447.369 33.274H447.83V56.548ZM470.977 46.6689C470.977 50.1157 470.388 52.6769 469.211 54.3526C468.034 56.0283 466.194 56.8661 463.691 56.8661C461.22 56.8661 459.39 56.0495 458.202 54.4162C457.015 52.7724 456.399 50.3225 456.357 47.0666V43.1372C456.357 39.7328 456.946 37.2034 458.123 35.5489C459.3 33.8944 461.145 33.0672 463.659 33.0672C466.151 33.0672 467.986 33.8679 469.163 35.4694C470.34 37.0602 470.945 39.5207 470.977 42.8508V46.6689ZM468.034 42.644C468.034 40.1517 467.684 38.3382 466.984 37.2034C466.284 36.058 465.176 35.4853 463.659 35.4853C462.153 35.4853 461.055 36.0527 460.366 37.1875C459.677 38.3223 459.321 40.0669 459.3 42.4213V47.1302C459.3 49.6331 459.661 51.4838 460.382 52.6822C461.114 53.8701 462.217 54.464 463.691 54.464C465.144 54.464 466.22 53.9019 466.92 52.7777C467.631 51.6535 468.002 49.8824 468.034 47.4643V42.644ZM489.271 46.6689C489.271 50.1157 488.683 52.6769 487.506 54.3526C486.328 56.0283 484.488 56.8661 481.985 56.8661C479.514 56.8661 477.685 56.0495 476.497 54.4162C475.309 52.7724 474.694 50.3225 474.652 47.0666V43.1372C474.652 39.7328 475.24 37.2034 476.417 35.5489C477.595 33.8944 479.44 33.0672 481.954 33.0672C484.446 33.0672 486.281 33.8679 487.458 35.4694C488.635 37.0602 489.24 39.5207 489.271 42.8508V46.6689ZM486.328 42.644C486.328 40.1517 485.978 38.3382 485.278 37.2034C484.578 36.058 483.47 35.4853 481.954 35.4853C480.448 35.4853 479.35 36.0527 478.661 37.1875C477.971 38.3223 477.616 40.0669 477.595 42.4213V47.1302C477.595 49.6331 477.955 51.4838 478.676 52.6822C479.408 53.8701 480.511 54.464 481.985 54.464C483.438 54.464 484.515 53.9019 485.215 52.7777C485.925 51.6535 486.297 49.8824 486.328 47.4643V42.644ZM507.566 46.6689C507.566 50.1157 506.977 52.6769 505.8 54.3526C504.623 56.0283 502.783 56.8661 500.28 56.8661C497.809 56.8661 495.979 56.0495 494.792 54.4162C493.604 52.7724 492.989 50.3225 492.946 47.0666V43.1372C492.946 39.7328 493.535 37.2034 494.712 35.5489C495.889 33.8944 497.735 33.0672 500.248 33.0672C502.741 33.0672 504.575 33.8679 505.753 35.4694C506.93 37.0602 507.534 39.5207 507.566 42.8508V46.6689ZM504.623 42.644C504.623 40.1517 504.273 38.3382 503.573 37.2034C502.873 36.058 501.765 35.4853 500.248 35.4853C498.742 35.4853 497.645 36.0527 496.955 37.1875C496.266 38.3223 495.911 40.0669 495.889 42.4213V47.1302C495.889 49.6331 496.25 51.4838 496.971 52.6822C497.703 53.8701 498.806 54.464 500.28 54.464C501.733 54.464 502.809 53.9019 503.509 52.7777C504.22 51.6535 504.591 49.8824 504.623 47.4643V42.644ZM521.009 56.548H518.05V36.9329L512.116 39.1124V36.4398L520.547 33.274H521.009V56.548ZM544.155 46.6689C544.155 50.1157 543.567 52.6769 542.39 54.3526C541.212 56.0283 539.372 56.8661 536.869 56.8661C534.398 56.8661 532.569 56.0495 531.381 54.4162C530.193 52.7724 529.578 50.3225 529.536 47.0666V43.1372C529.536 39.7328 530.124 37.2034 531.301 35.5489C532.479 33.8944 534.324 33.0672 536.838 33.0672C539.33 33.0672 541.165 33.8679 542.342 35.4694C543.519 37.0602 544.124 39.5207 544.155 42.8508V46.6689ZM541.212 42.644C541.212 40.1517 540.862 38.3382 540.162 37.2034C539.462 36.058 538.354 35.4853 536.838 35.4853C535.332 35.4853 534.234 36.0527 533.545 37.1875C532.855 38.3223 532.5 40.0669 532.479 42.4213V47.1302C532.479 49.6331 532.839 51.4838 533.56 52.6822C534.292 53.8701 535.395 54.464 536.869 54.464C538.322 54.464 539.399 53.9019 540.099 52.7777C540.809 51.6535 541.181 49.8824 541.212 47.4643V42.644ZM557.598 56.548H554.639V36.9329L548.705 39.1124V36.4398L557.137 33.274H557.598V56.548ZM580.745 46.6689C580.745 50.1157 580.156 52.6769 578.979 54.3526C577.802 56.0283 575.962 56.8661 573.459 56.8661C570.988 56.8661 569.158 56.0495 567.97 54.4162C566.782 52.7724 566.167 50.3225 566.125 47.0666V43.1372C566.125 39.7328 566.714 37.2034 567.891 35.5489C569.068 33.8944 570.913 33.0672 573.427 33.0672C575.919 33.0672 577.754 33.8679 578.931 35.4694C580.108 37.0602 580.713 39.5207 580.745 42.8508V46.6689ZM577.802 42.644C577.802 40.1517 577.452 38.3382 576.752 37.2034C576.052 36.058 574.943 35.4853 573.427 35.4853C571.921 35.4853 570.823 36.0527 570.134 37.1875C569.444 38.3223 569.089 40.0669 569.068 42.4213V47.1302C569.068 49.6331 569.429 51.4838 570.15 52.6822C570.882 53.8701 571.984 54.464 573.459 54.464C574.912 54.464 575.988 53.9019 576.688 52.7777C577.399 51.6535 577.77 49.8824 577.802 47.4643V42.644ZM599.039 46.6689C599.039 50.1157 598.451 52.6769 597.274 54.3526C596.096 56.0283 594.256 56.8661 591.753 56.8661C589.282 56.8661 587.453 56.0495 586.265 54.4162C585.077 52.7724 584.462 50.3225 584.42 47.0666V43.1372C584.42 39.7328 585.008 37.2034 586.185 35.5489C587.363 33.8944 589.208 33.0672 591.722 33.0672C594.214 33.0672 596.049 33.8679 597.226 35.4694C598.403 37.0602 599.008 39.5207 599.039 42.8508V46.6689ZM596.096 42.644C596.096 40.1517 595.746 38.3382 595.046 37.2034C594.346 36.058 593.238 35.4853 591.722 35.4853C590.216 35.4853 589.118 36.0527 588.428 37.1875C587.739 38.3223 587.384 40.0669 587.363 42.4213V47.1302C587.363 49.6331 587.723 51.4838 588.444 52.6822C589.176 53.8701 590.279 54.464 591.753 54.464C593.206 54.464 594.283 53.9019 594.983 52.7777C595.693 51.6535 596.064 49.8824 596.096 47.4643V42.644ZM612.482 56.548H609.523V36.9329L603.589 39.1124V36.4398L612.021 33.274H612.482V56.548ZM416.093 84.6689C416.093 88.1157 415.504 90.6769 414.327 92.3526C413.15 94.0283 411.31 94.8661 408.807 94.8661C406.336 94.8661 404.506 94.0495 403.318 92.4162C402.131 90.7724 401.515 88.3225 401.473 85.0666V81.1372C401.473 77.7328 402.062 75.2034 403.239 73.5489C404.416 71.8944 406.261 71.0672 408.775 71.0672C411.267 71.0672 413.102 71.8679 414.279 73.4694C415.456 75.0602 416.061 77.5207 416.093 80.8508V84.6689ZM413.15 80.644C413.15 78.1517 412.8 76.3382 412.1 75.2034C411.4 74.058 410.292 73.4853 408.775 73.4853C407.269 73.4853 406.171 74.0527 405.482 75.1875C404.793 76.3223 404.437 78.0669 404.416 80.4213V85.1302C404.416 87.6331 404.777 89.4838 405.498 90.6822C406.23 91.8701 407.333 92.464 408.807 92.464C410.26 92.464 411.336 91.9019 412.036 90.7777C412.747 89.6535 413.118 87.8824 413.15 85.4643V80.644ZM434.387 84.6689C434.387 88.1157 433.799 90.6769 432.622 92.3526C431.444 94.0283 429.604 94.8661 427.101 94.8661C424.63 94.8661 422.801 94.0495 421.613 92.4162C420.425 90.7724 419.81 88.3225 419.768 85.0666V81.1372C419.768 77.7328 420.356 75.2034 421.534 73.5489C422.711 71.8944 424.556 71.0672 427.07 71.0672C429.562 71.0672 431.397 71.8679 432.574 73.4694C433.751 75.0602 434.356 77.5207 434.387 80.8508V84.6689ZM431.444 80.644C431.444 78.1517 431.094 76.3382 430.394 75.2034C429.695 74.058 428.586 73.4853 427.07 73.4853C425.564 73.4853 424.466 74.0527 423.777 75.1875C423.087 76.3223 422.732 78.0669 422.711 80.4213V85.1302C422.711 87.6331 423.071 89.4838 423.792 90.6822C424.524 91.8701 425.627 92.464 427.101 92.464C428.554 92.464 429.631 91.9019 430.331 90.7777C431.041 89.6535 431.413 87.8824 431.444 85.4643V80.644ZM447.83 94.548H444.871V74.9329L438.937 77.1124V74.4398L447.369 71.274H447.83V94.548ZM466.125 94.548H463.166V74.9329L457.232 77.1124V74.4398L465.663 71.274H466.125V94.548ZM489.271 84.6689C489.271 88.1157 488.683 90.6769 487.506 92.3526C486.328 94.0283 484.488 94.8661 481.985 94.8661C479.514 94.8661 477.685 94.0495 476.497 92.4162C475.309 90.7724 474.694 88.3225 474.652 85.0666V81.1372C474.652 77.7328 475.24 75.2034 476.417 73.5489C477.595 71.8944 479.44 71.0672 481.954 71.0672C484.446 71.0672 486.281 71.8679 487.458 73.4694C488.635 75.0602 489.24 77.5207 489.271 80.8508V84.6689ZM486.328 80.644C486.328 78.1517 485.978 76.3382 485.278 75.2034C484.578 74.058 483.47 73.4853 481.954 73.4853C480.448 73.4853 479.35 74.0527 478.661 75.1875C477.971 76.3223 477.616 78.0669 477.595 80.4213V85.1302C477.595 87.6331 477.955 89.4838 478.676 90.6822C479.408 91.8701 480.511 92.464 481.985 92.464C483.438 92.464 484.515 91.9019 485.215 90.7777C485.925 89.6535 486.297 87.8824 486.328 85.4643V80.644ZM502.714 94.548H499.755V74.9329L493.821 77.1124V74.4398L502.253 71.274H502.714V94.548Z" fill="#181926"/>
<path d="M201.97 16.8414H101.534V80.782H201.97V16.8414Z" stroke="#181926" stroke-width="1.48498" stroke-miterlimit="10"/>
<path d="M201.97 16.8414H101.534V28.9364H201.97V16.8414Z" stroke="#181926" stroke-width="1.48498" stroke-miterlimit="10"/>
<path d="M136.385 68.4737L121.669 56.0535C121.487 55.9008 121.341 55.7103 121.241 55.4952C121.14 55.2801 121.088 55.0457 121.088 54.8084C121.088 54.5711 121.14 54.3367 121.241 54.1216C121.341 53.9065 121.487 53.716 121.669 53.5634L136.385 41.133C136.53 41.0097 136.698 40.9163 136.879 40.8582C137.06 40.8 137.25 40.7784 137.44 40.7945C137.629 40.8105 137.814 40.864 137.982 40.9518C138.151 41.0396 138.301 41.1599 138.422 41.3058C138.546 41.4501 138.639 41.6174 138.698 41.7981C138.756 41.9788 138.778 42.1692 138.761 42.3583C138.745 42.5474 138.692 42.7315 138.604 42.8997C138.516 43.068 138.395 43.2172 138.249 43.3386L126.15 53.5634C125.968 53.716 125.822 53.9065 125.722 54.1216C125.621 54.3367 125.569 54.5711 125.569 54.8084C125.569 55.0457 125.621 55.2801 125.722 55.4952C125.822 55.7103 125.968 55.9008 126.15 56.0535L138.249 66.2681C138.54 66.5164 138.721 66.8687 138.753 67.2491C138.785 67.6294 138.667 68.0072 138.422 68.3009C138.175 68.5932 137.822 68.7756 137.44 68.808C137.058 68.8404 136.678 68.7201 136.385 68.4737Z" fill="#5D5E67"/>
<path d="M165.073 68.311C164.826 68.0184 164.706 67.64 164.738 67.2588C164.771 66.8777 164.954 66.525 165.246 66.2782L177.355 56.0636C177.534 55.909 177.678 55.7178 177.776 55.503C177.875 55.2882 177.926 55.0547 177.926 54.8185C177.926 54.5823 177.875 54.3489 177.776 54.1341C177.678 53.9192 177.534 53.728 177.355 53.5735L165.246 43.3385C164.954 43.0918 164.771 42.739 164.738 42.3579C164.706 41.9767 164.826 41.5983 165.073 41.3057C165.321 41.0134 165.674 40.831 166.056 40.7986C166.438 40.7662 166.817 40.8865 167.11 41.133L181.836 53.5633C182.015 53.7179 182.159 53.9091 182.257 54.1239C182.356 54.3387 182.407 54.5722 182.407 54.8084C182.407 55.0446 182.356 55.278 182.257 55.4929C182.159 55.7077 182.015 55.8989 181.836 56.0534L167.11 68.4736C166.818 68.7213 166.44 68.8433 166.058 68.8128C165.676 68.7823 165.322 68.6018 165.073 68.311Z" fill="#5D5E67"/>
<path d="M142.933 74.9785C142.576 74.8359 142.29 74.5582 142.137 74.206C141.985 73.8537 141.978 73.4555 142.118 73.0982L157.537 34.618C157.608 34.4416 157.713 34.2809 157.846 34.145C157.979 34.0091 158.137 33.9008 158.312 33.8262C158.487 33.7516 158.675 33.7122 158.866 33.7103C159.056 33.7084 159.245 33.744 159.421 33.8151C159.598 33.8855 159.759 33.9901 159.895 34.1229C160.031 34.2556 160.14 34.4138 160.215 34.5885C160.289 34.7632 160.329 34.9509 160.331 35.1408C160.333 35.3308 160.297 35.5192 160.226 35.6954L144.807 74.1959C144.66 74.546 144.382 74.8244 144.031 74.9708C143.68 75.1173 143.286 75.1201 142.933 74.9785Z" fill="#5D5E67"/>
<path d="M112.911 22.9804C112.911 23.5835 112.732 24.173 112.396 24.6744C112.06 25.1759 111.583 25.5667 111.025 25.7975C110.467 26.0282 109.852 26.0886 109.26 25.971C108.667 25.8533 108.123 25.5629 107.695 25.1365C107.268 24.7101 106.977 24.1668 106.859 23.5753C106.741 22.9838 106.802 22.3707 107.033 21.8136C107.264 21.2564 107.656 20.7802 108.158 20.4451C108.661 20.1101 109.251 19.9313 109.856 19.9313C110.666 19.9313 111.443 20.2525 112.016 20.8243C112.589 21.3962 112.911 22.1717 112.911 22.9804Z" fill="#5D5E67"/>
<path d="M125.355 22.9804C125.355 23.5835 125.176 24.173 124.84 24.6744C124.504 25.1759 124.027 25.5667 123.469 25.7975C122.911 26.0282 122.296 26.0886 121.704 25.971C121.111 25.8533 120.567 25.5629 120.139 25.1365C119.712 24.7101 119.421 24.1668 119.303 23.5753C119.185 22.9838 119.246 22.3707 119.477 21.8136C119.708 21.2564 120.1 20.7802 120.602 20.4451C121.105 20.1101 121.696 19.9313 122.3 19.9313C123.11 19.9313 123.887 20.2525 124.46 20.8243C125.033 21.3962 125.355 22.1717 125.355 22.9804Z" fill="#5D5E67"/>
<path d="M137.809 22.9804C137.809 23.5835 137.63 24.173 137.295 24.6744C136.959 25.1759 136.482 25.5667 135.923 25.7975C135.365 26.0282 134.751 26.0886 134.158 25.971C133.565 25.8533 133.021 25.5629 132.594 25.1365C132.167 24.7101 131.876 24.1668 131.758 23.5753C131.64 22.9838 131.7 22.3707 131.932 21.8136C132.163 21.2564 132.554 20.7802 133.057 20.4451C133.559 20.1101 134.15 19.9313 134.754 19.9313C135.564 19.9313 136.342 20.2525 136.915 20.8243C137.488 21.3962 137.809 22.1717 137.809 22.9804Z" fill="#FE8A71"/>
<path d="M102.248 214.131H1.8125V278.072H102.248V214.131Z" stroke="#181926" stroke-width="1.48498" stroke-miterlimit="10"/>
<path d="M102.248 214.131H1.8125V226.226H102.248V214.131Z" stroke="#181926" stroke-width="1.48498" stroke-miterlimit="10"/>
<path d="M13.1776 220.27C13.1776 220.873 12.9984 221.463 12.6627 221.964C12.327 222.466 11.8498 222.857 11.2915 223.087C10.7333 223.318 10.119 223.379 9.52632 223.261C8.93366 223.143 8.38927 222.853 7.96199 222.426C7.53471 222 7.24373 221.457 7.12585 220.865C7.00796 220.274 7.06846 219.661 7.2997 219.103C7.53095 218.546 7.92254 218.07 8.42497 217.735C8.9274 217.4 9.5181 217.221 10.1224 217.221C10.9327 217.221 11.7098 217.542 12.2827 218.114C12.8557 218.686 13.1776 219.462 13.1776 220.27Z" fill="#5D5E67"/>
<path d="M25.6332 220.27C25.6332 220.873 25.454 221.463 25.1183 221.964C24.7825 222.466 24.3054 222.857 23.7471 223.087C23.1888 223.318 22.5745 223.379 21.9819 223.261C21.3892 223.143 20.8448 222.853 20.4176 222.426C19.9903 222 19.6993 221.457 19.5814 220.865C19.4635 220.274 19.524 219.661 19.7553 219.103C19.9865 218.546 20.3781 218.07 20.8805 217.735C21.383 217.4 21.9737 217.221 22.5779 217.221C23.3882 217.221 24.1653 217.542 24.7383 218.114C25.3113 218.686 25.6332 219.462 25.6332 220.27Z" fill="#5D5E67"/>
<path d="M38.0875 220.27C38.0875 220.873 37.9083 221.463 37.5726 221.964C37.2369 222.466 36.7597 222.857 36.2015 223.087C35.6432 223.318 35.0289 223.379 34.4362 223.261C33.8436 223.143 33.2992 222.853 32.8719 222.426C32.4446 222 32.1536 221.457 32.0358 220.865C31.9179 220.274 31.9784 219.661 32.2096 219.103C32.4409 218.546 32.8325 218.07 33.3349 217.735C33.8373 217.4 34.428 217.221 35.0323 217.221C35.8426 217.221 36.6197 217.542 37.1926 218.114C37.7656 218.686 38.0875 219.462 38.0875 220.27Z" fill="#FE8A71"/>
<path d="M298.015 263.486C297.582 267.186 296.213 270.044 293.907 272.062C291.617 274.064 288.566 275.065 284.755 275.065C280.623 275.065 277.308 273.583 274.809 270.621C272.327 267.658 271.086 263.694 271.086 258.73V255.367C271.086 252.116 271.662 249.257 272.816 246.791C273.985 244.324 275.634 242.435 277.764 241.122C279.894 239.792 282.36 239.128 285.163 239.128C288.878 239.128 291.857 240.169 294.099 242.251C296.341 244.316 297.646 247.183 298.015 250.851H293.378C292.978 248.064 292.105 246.046 290.76 244.797C289.431 243.548 287.565 242.923 285.163 242.923C282.216 242.923 279.902 244.012 278.22 246.19C276.555 248.368 275.722 251.467 275.722 255.487V258.874C275.722 262.669 276.515 265.688 278.1 267.93C279.686 270.172 281.904 271.293 284.755 271.293C287.317 271.293 289.279 270.717 290.64 269.564C292.017 268.395 292.93 266.369 293.378 263.486H298.015ZM316.368 255.823H326.121V260.027H316.368V271.077H311.899V260.027H302.147V255.823H311.899V245.614H316.368V255.823ZM284.322 313.823H294.075V318.027H284.322V329.077H279.854V318.027H270.101V313.823H279.854V303.614H284.322V313.823Z" fill="#F2F1F1"/>
<path d="M617.491 120.675H517.055V184.616H617.491V120.675Z" stroke="#F2F1F1" stroke-width="1.48498" stroke-miterlimit="10"/>
<path d="M617.491 120.675H517.055V132.77H617.491V120.675Z" stroke="#F2F1F1" stroke-width="1.48498" stroke-miterlimit="10"/>
<path d="M528.431 126.804C528.431 127.407 528.252 127.996 527.916 128.498C527.58 128.999 527.103 129.39 526.545 129.621C525.987 129.852 525.372 129.912 524.78 129.794C524.187 129.677 523.643 129.386 523.215 128.96C522.788 128.534 522.497 127.99 522.379 127.399C522.261 126.807 522.322 126.194 522.553 125.637C522.784 125.08 523.176 124.604 523.678 124.269C524.181 123.934 524.772 123.755 525.376 123.755C526.186 123.755 526.963 124.076 527.536 124.648C528.109 125.22 528.431 125.995 528.431 126.804Z" fill="white"/>
<path d="M540.885 126.804C540.885 127.407 540.706 127.996 540.37 128.498C540.035 128.999 539.558 129.39 538.999 129.621C538.441 129.852 537.827 129.912 537.234 129.794C536.641 129.677 536.097 129.386 535.67 128.96C535.242 128.534 534.951 127.99 534.834 127.399C534.716 126.807 534.776 126.194 535.007 125.637C535.239 125.08 535.63 124.604 536.133 124.269C536.635 123.934 537.226 123.755 537.83 123.755C538.64 123.755 539.418 124.076 539.99 124.648C540.563 125.22 540.885 125.995 540.885 126.804Z" fill="#F2F1F1"/>
<path d="M553.341 126.804C553.341 127.407 553.162 127.996 552.826 128.498C552.49 128.999 552.013 129.39 551.455 129.621C550.897 129.852 550.282 129.912 549.69 129.794C549.097 129.677 548.553 129.386 548.126 128.96C547.698 128.534 547.407 127.99 547.289 127.399C547.172 126.807 547.232 126.194 547.463 125.637C547.695 125.08 548.086 124.604 548.589 124.269C549.091 123.934 549.682 123.755 550.286 123.755C551.096 123.755 551.873 124.076 552.446 124.648C553.019 125.22 553.341 125.995 553.341 126.804Z" fill="#FE8A71"/>
<path d="M301.488 170.03C301.056 173.729 299.686 176.588 297.38 178.606C295.09 180.608 292.039 181.608 288.228 181.608C284.096 181.608 280.781 180.127 278.283 177.164C275.8 174.202 274.559 170.238 274.559 165.273V161.91C274.559 158.659 275.136 155.801 276.289 153.334C277.458 150.868 279.108 148.978 281.237 147.665C283.367 146.336 285.834 145.671 288.636 145.671C292.352 145.671 295.33 146.712 297.572 148.794C299.815 150.86 301.12 153.727 301.488 157.394H296.852C296.451 154.608 295.579 152.59 294.233 151.341C292.904 150.091 291.038 149.467 288.636 149.467C285.69 149.467 283.375 150.556 281.694 152.734C280.028 154.912 279.196 158.011 279.196 162.03V165.418C279.196 169.213 279.988 172.232 281.574 174.474C283.159 176.716 285.377 177.837 288.228 177.837C290.79 177.837 292.752 177.26 294.113 176.107C295.491 174.938 296.403 172.912 296.852 170.03H301.488ZM318.111 165.538C314.156 164.401 311.273 163.007 309.463 161.358C307.67 159.692 306.773 157.642 306.773 155.208C306.773 152.454 307.87 150.18 310.064 148.386C312.274 146.576 315.141 145.671 318.664 145.671C321.066 145.671 323.204 146.136 325.078 147.065C326.968 147.994 328.425 149.275 329.45 150.908C330.491 152.542 331.011 154.327 331.011 156.265H326.375C326.375 154.151 325.702 152.494 324.357 151.293C323.012 150.075 321.114 149.467 318.664 149.467C316.39 149.467 314.612 149.971 313.331 150.98C312.066 151.973 311.433 153.358 311.433 155.136C311.433 156.561 312.034 157.771 313.235 158.763C314.452 159.74 316.51 160.637 319.409 161.454C322.323 162.271 324.597 163.176 326.231 164.168C327.88 165.145 329.098 166.29 329.882 167.604C330.683 168.917 331.083 170.462 331.083 172.24C331.083 175.074 329.978 177.349 327.768 179.062C325.558 180.76 322.604 181.608 318.904 181.608C316.502 181.608 314.26 181.152 312.178 180.239C310.096 179.31 308.487 178.045 307.349 176.444C306.228 174.842 305.668 173.025 305.668 170.991H310.304C310.304 173.105 311.081 174.778 312.634 176.011C314.204 177.228 316.294 177.837 318.904 177.837C321.338 177.837 323.204 177.341 324.501 176.348C325.798 175.355 326.447 174.001 326.447 172.288C326.447 170.574 325.847 169.253 324.645 168.324C323.444 167.379 321.266 166.451 318.111 165.538ZM286.066 223.538C282.11 222.401 279.228 221.007 277.418 219.358C275.624 217.692 274.727 215.642 274.727 213.208C274.727 210.454 275.824 208.18 278.018 206.386C280.229 204.576 283.095 203.671 286.618 203.671C289.021 203.671 291.159 204.136 293.032 205.065C294.922 205.994 296.379 207.275 297.404 208.908C298.445 210.542 298.966 212.327 298.966 214.265H294.33C294.33 212.151 293.657 210.494 292.312 209.293C290.966 208.075 289.069 207.467 286.618 207.467C284.344 207.467 282.567 207.971 281.286 208.98C280.02 209.973 279.388 211.358 279.388 213.136C279.388 214.561 279.988 215.771 281.189 216.763C282.407 217.74 284.464 218.637 287.363 219.454C290.278 220.271 292.552 221.176 294.185 222.168C295.835 223.145 297.052 224.29 297.837 225.604C298.637 226.917 299.038 228.462 299.038 230.24C299.038 233.074 297.933 235.349 295.723 237.062C293.513 238.76 290.558 239.608 286.859 239.608C284.456 239.608 282.214 239.152 280.132 238.239C278.051 237.31 276.441 236.045 275.304 234.444C274.183 232.842 273.622 231.025 273.622 228.991H278.259C278.259 231.105 279.035 232.778 280.589 234.011C282.158 235.228 284.248 235.837 286.859 235.837C289.293 235.837 291.159 235.341 292.456 234.348C293.753 233.355 294.402 232.001 294.402 230.288C294.402 228.574 293.801 227.253 292.6 226.324C291.399 225.379 289.221 224.451 286.066 223.538Z" fill="#F2F1F1"/>
<path d="M91.6566 115.685C91.4318 115.315 91.3129 114.892 91.3129 114.46C91.3129 114.028 91.4318 113.604 91.6566 113.235C91.7788 113.032 91.901 112.829 92.0131 112.615C92.1251 112.402 92.2371 112.178 92.3389 111.965C92.5202 111.573 92.8062 111.238 93.1655 110.998C93.5249 110.758 93.9436 110.621 94.3758 110.603L97.431 110.511L97.1356 100.723L94.0804 100.815C93.6558 100.825 93.2367 100.718 92.8699 100.504C92.503 100.291 92.2028 99.9794 92.0029 99.6055C91.7686 99.1887 91.5039 98.772 91.2289 98.3655C90.9813 98.0141 90.836 97.6012 90.809 97.1724C90.782 96.7437 90.8745 96.3159 91.0761 95.9363L92.4917 93.2937L83.8454 88.6692L82.4298 91.3118C82.2199 91.6841 81.911 91.9912 81.5372 92.1993C81.1634 92.4073 80.7392 92.5082 80.3116 92.4908C79.8265 92.4652 79.3403 92.4652 78.8552 92.4908C78.4303 92.54 78.0001 92.4712 77.6119 92.2918C77.2237 92.1125 76.8928 91.8296 76.6555 91.4744L75.0668 88.9233L66.7362 94.0865L68.3249 96.6478C68.5501 97.013 68.6694 97.4335 68.6694 97.8624C68.6694 98.2912 68.5501 98.7117 68.3249 99.0769C68.1925 99.2802 68.0805 99.4937 67.9583 99.7071C67.8361 99.9205 67.7444 100.134 67.6426 100.347C67.4632 100.741 67.1777 101.077 66.818 101.317C66.4582 101.558 66.0385 101.693 65.6058 101.709L62.5505 101.801L62.8561 111.589L65.9113 111.497C66.3431 111.484 66.7701 111.591 67.1443 111.806C67.5186 112.022 67.8251 112.337 68.0296 112.717C68.2644 113.147 68.5228 113.565 68.8036 113.967C69.0512 114.318 69.1965 114.731 69.2234 115.16C69.2504 115.589 69.158 116.017 68.9563 116.396L67.5407 119.039L76.187 123.663L77.6026 121.021C77.8084 120.643 78.1156 120.329 78.4897 120.116C78.8638 119.902 79.2901 119.797 79.7209 119.811C80.2094 119.836 80.6989 119.836 81.1874 119.811C81.6175 119.772 82.0499 119.853 82.4365 120.045C82.8231 120.237 83.1487 120.533 83.377 120.899L84.9657 123.44L93.2962 118.287L91.6566 115.685ZM76.1768 113.225C74.7758 112.476 73.6288 111.33 72.8808 109.93C72.1327 108.531 71.8173 106.941 71.9744 105.363C72.1315 103.785 72.754 102.288 73.7632 101.063C74.7724 99.8379 76.123 98.9389 77.6442 98.4798C79.1654 98.0206 80.7889 98.022 82.3093 98.4837C83.8297 98.9454 85.1788 99.8467 86.1859 101.074C87.1931 102.301 87.8131 103.798 87.9675 105.377C88.1219 106.955 87.8038 108.544 87.0534 109.942C86.0473 111.809 84.3416 113.202 82.3092 113.817C80.2768 114.432 78.083 114.219 76.2074 113.225H76.1768Z" fill="#FFE8E3"/>
<path d="M589.943 241.584C589.483 241.315 589.107 240.923 588.859 240.453C588.61 239.982 588.499 239.451 588.537 238.921C588.537 238.626 588.537 238.331 588.537 238.036C588.537 237.742 588.537 237.437 588.537 237.142C588.5 236.613 588.611 236.084 588.86 235.615C589.108 235.146 589.483 234.756 589.943 234.489L593.151 232.629L587.112 222.181L583.893 224.031C583.426 224.3 582.891 224.434 582.351 224.416C581.811 224.398 581.287 224.229 580.838 223.929C580.338 223.596 579.817 223.294 579.28 223.025C578.804 222.789 578.403 222.425 578.123 221.974C577.842 221.524 577.693 221.004 577.691 220.473V216.784H565.644V220.473C565.64 221.003 565.49 221.522 565.209 221.972C564.929 222.423 564.53 222.787 564.055 223.025C563.518 223.294 562.997 223.596 562.497 223.929C562.048 224.229 561.524 224.398 560.984 224.416C560.444 224.434 559.91 224.3 559.442 224.031L556.223 222.181L550.174 232.629L553.402 234.499C553.859 234.766 554.233 235.155 554.481 235.622C554.729 236.088 554.843 236.615 554.808 237.142C554.808 237.437 554.808 237.742 554.808 238.036C554.808 238.331 554.808 238.626 554.808 238.921C554.842 239.451 554.728 239.98 554.48 240.449C554.232 240.919 553.859 241.312 553.402 241.584L550.174 243.433L556.223 253.892L559.431 252.042C559.898 251.768 560.433 251.632 560.974 251.65C561.515 251.668 562.04 251.839 562.487 252.144C562.989 252.473 563.51 252.775 564.045 253.048C564.522 253.284 564.924 253.647 565.207 254.098C565.489 254.548 565.64 255.068 565.644 255.6V259.289H577.732V255.6C577.733 255.069 577.883 254.549 578.163 254.099C578.444 253.648 578.845 253.284 579.321 253.048C579.859 252.775 580.383 252.473 580.889 252.144C581.336 251.839 581.861 251.668 582.402 251.65C582.943 251.632 583.478 251.768 583.944 252.042L587.152 253.892L593.191 243.433L589.943 241.584ZM571.693 247.926C569.733 247.928 567.816 247.35 566.185 246.264C564.554 245.179 563.282 243.635 562.531 241.828C561.779 240.021 561.582 238.032 561.963 236.113C562.344 234.194 563.287 232.431 564.672 231.047C566.058 229.663 567.823 228.72 569.746 228.338C571.668 227.955 573.661 228.151 575.472 228.899C577.284 229.647 578.832 230.915 579.921 232.541C581.01 234.168 581.592 236.08 581.592 238.036C581.592 240.658 580.549 243.171 578.693 245.026C576.837 246.88 574.319 247.923 571.693 247.926Z" fill="#F2F1F1"/>
<path d="M257.035 47.3023C256.701 47.1111 256.427 46.8291 256.247 46.489C256.067 46.149 255.987 45.7649 256.017 45.3813C256.017 45.1781 256.017 44.9646 256.017 44.7512C256.017 44.5377 256.017 44.3141 256.017 44.1007C255.991 43.7205 256.073 43.3407 256.253 43.0046C256.433 42.6685 256.704 42.3897 257.035 42.2001L259.347 40.8686L255.008 33.3576L252.697 34.689C252.365 34.8824 251.986 34.9784 251.602 34.9658C251.218 34.9532 250.846 34.8326 250.527 34.6179C250.169 34.3757 249.795 34.1583 249.407 33.9674C249.064 33.7997 248.776 33.5393 248.574 33.2159C248.372 32.8924 248.266 32.5189 248.267 32.1379V29.475H239.58V32.1277C239.58 32.5087 239.474 32.8822 239.272 33.2057C239.07 33.5292 238.782 33.7896 238.439 33.9572C238.054 34.1527 237.679 34.3699 237.319 34.6077C237.002 34.8204 236.631 34.9399 236.249 34.9525C235.868 34.965 235.49 34.8702 235.16 34.6788L232.848 33.3474L228.51 40.8584L230.831 42.2001C231.163 42.3897 231.434 42.6685 231.614 43.0046C231.794 43.3407 231.876 43.7205 231.85 44.1007C231.85 44.3141 231.85 44.5276 231.85 44.741C231.85 44.9545 231.85 45.1679 231.85 45.3712C231.88 45.7547 231.8 46.1388 231.62 46.4789C231.439 46.8189 231.166 47.1009 230.831 47.2921L228.52 48.6134L232.858 56.1245L235.16 54.793C235.488 54.6107 235.861 54.5227 236.237 54.5389C236.613 54.555 236.976 54.6747 237.288 54.8845C237.649 55.1196 238.023 55.3335 238.408 55.5248C238.753 55.6932 239.043 55.9552 239.244 56.2806C239.446 56.6061 239.552 56.9818 239.549 57.3645V60.0172H248.236V57.3645C248.234 56.9807 248.341 56.6042 248.545 56.2787C248.749 55.9531 249.041 55.6918 249.387 55.5248C249.779 55.3342 250.16 55.1203 250.527 54.8845C250.845 54.6682 251.216 54.5458 251.6 54.5314C251.984 54.517 252.364 54.6112 252.697 54.8032L254.998 56.1347L259.337 48.6236L257.035 47.3023ZM243.918 51.8354C242.508 51.8354 241.13 51.4181 239.957 50.6363C238.785 49.8546 237.871 48.7434 237.332 47.4434C236.792 46.1433 236.651 44.7128 236.926 43.3327C237.201 41.9526 237.88 40.6849 238.877 39.6899C239.874 38.6949 241.144 38.0173 242.527 37.7427C243.91 37.4682 245.343 37.6091 246.646 38.1476C247.949 38.6861 249.062 39.598 249.845 40.768C250.629 41.938 251.047 43.3135 251.047 44.7207C251.047 46.6076 250.296 48.4173 248.959 49.7515C247.622 51.0858 245.809 51.8354 243.918 51.8354Z" fill="#FFE8E3"/>
<path d="M64.9132 73.7691C64.5804 73.5786 64.3082 73.2982 64.128 72.9602C63.9478 72.6221 63.867 72.2402 63.8948 71.8583C63.8948 71.6448 63.8948 71.4314 63.8948 71.218C63.8948 71.0045 63.8948 70.7911 63.8948 70.5776C63.867 70.1957 63.9478 69.8138 64.128 69.4757C64.3082 69.1377 64.5804 68.8573 64.9132 68.6668L67.2148 67.3455L62.8662 59.8345L60.5646 61.1659C60.2321 61.3579 59.8521 61.4521 59.4683 61.4377C59.0844 61.4233 58.7125 61.3009 58.3954 61.0846C58.039 60.8509 57.6622 60.6374 57.2752 60.4341C56.9324 60.2665 56.6437 60.0061 56.442 59.6826C56.2403 59.3592 56.1338 58.9856 56.1345 58.6047V55.9519H47.4577V58.6047C47.4585 58.9856 47.3519 59.3592 47.1503 59.6826C46.9486 60.0061 46.6599 60.2665 46.3171 60.4341C45.9301 60.6374 45.5533 60.8509 45.1968 61.0846C44.8797 61.3009 44.5078 61.4233 44.124 61.4377C43.7402 61.4521 43.3601 61.3579 43.0276 61.1659L40.7362 59.8345L36.3876 67.3455L38.6994 68.677C39.0306 68.8667 39.3017 69.1455 39.4818 69.4815C39.6619 69.8176 39.7437 70.1974 39.7178 70.5776C39.7178 70.7911 39.7178 71.0045 39.7178 71.218C39.7178 71.4314 39.7178 71.6448 39.7178 71.8583C39.7456 72.2402 39.6648 72.6221 39.4846 72.9602C39.3044 73.2982 39.0323 73.5786 38.6994 73.7691L36.3774 75.1005L40.7362 82.6116L43.0276 81.3106C43.358 81.1192 43.7356 81.0244 44.1174 81.037C44.4991 81.0496 44.8697 81.1691 45.1867 81.3818C45.5519 81.6181 45.9292 81.8352 46.3171 82.0322C46.6599 82.1999 46.9486 82.4603 47.1503 82.7838C47.3519 83.1072 47.4585 83.4808 47.4577 83.8617V86.5145H56.1447V83.8312C56.144 83.4503 56.2505 83.0767 56.4522 82.7533C56.6538 82.4298 56.9425 82.1694 57.2853 82.0018C57.6741 81.7915 58.0515 81.5608 58.4158 81.3106C58.7395 81.1087 59.1135 81.0016 59.4953 81.0016C59.877 81.0016 60.2511 81.1087 60.5748 81.3106L62.8764 82.6421L67.2148 75.1005L64.9132 73.7691ZM51.8063 78.3225C50.3964 78.3225 49.0181 77.9052 47.8457 77.1234C46.6734 76.3416 45.7597 75.2305 45.2201 73.9305C44.6805 72.6304 44.5394 71.1999 44.8144 69.8198C45.0895 68.4397 45.7685 67.172 46.7655 66.177C47.7624 65.182 49.0327 64.5043 50.4155 64.2298C51.7984 63.9553 53.2318 64.0962 54.5344 64.6347C55.837 65.1732 56.9504 66.0851 57.7337 67.2551C58.5171 68.4251 58.9352 69.8006 58.9352 71.2078C58.9352 73.0947 58.1841 74.9044 56.8472 76.2386C55.5103 77.5729 53.697 78.3225 51.8063 78.3225Z" fill="#FFE8E3"/>
<path d="M519.387 235.73C507.396 226.868 498.697 214.279 494.66 199.943C488.295 176.363 484.823 126.113 484.823 126.113C484.823 126.113 520.344 168.923 524.479 194.81C528.614 220.697 519.387 235.73 519.387 235.73Z" fill="#FFE8E3"/>
<path d="M543.35 252.52C543.35 252.52 540.366 226.013 552.669 204.313C564.971 182.613 606.451 168.069 606.451 168.069C606.451 168.069 581.591 215.148 570.114 228.594C558.636 242.041 543.35 252.52 543.35 252.52Z" fill="#FFE8E3"/>
<path d="M542.007 315.79C542.007 315.79 544.237 293.328 551.59 279.271C558.943 265.215 585.35 245.375 598.65 240.069C598.65 240.069 582.071 303.776 542.007 315.79Z" fill="#FFE8E3"/>
<path d="M516.189 296.499C516.189 296.499 497.084 284.78 486.737 263.792C476.39 242.804 474.251 213.125 474.251 213.125C474.251 213.125 520.65 250.569 516.189 296.499Z" fill="#FFE8E3"/>
<path d="M534.663 383.593C528.726 357.879 527.112 331.359 529.886 305.118C530.792 296.369 532.23 287.683 534.194 279.108C536.22 270.543 538.816 262.122 541.965 253.902L544.327 247.753C545.142 245.72 546.028 243.688 546.884 241.655L548.167 238.606C548.615 237.589 549.073 236.573 549.542 235.557C550.489 233.575 551.395 231.572 552.383 229.611C556.263 221.725 560.648 214.096 565.51 206.773C566.753 204.953 568.036 203.175 569.329 201.396C570.623 199.617 571.977 197.9 573.403 196.223C576.159 192.799 579.227 189.638 582.568 186.78C580.945 188.25 579.418 189.822 577.996 191.486C577.252 192.299 576.56 193.133 575.867 193.987C575.175 194.84 574.482 195.674 573.831 196.548C572.466 198.255 571.223 200.054 569.94 201.823C568.657 203.591 567.496 205.451 566.325 207.291C561.649 214.674 557.448 222.346 553.748 230.261C552.8 232.233 551.945 234.245 551.049 236.227L549.705 239.216L548.442 242.265C547.617 244.297 546.751 246.33 545.957 248.363L543.645 254.461C540.571 262.623 538.053 270.984 536.109 279.485C532.192 296.489 530.17 313.873 530.08 331.32C529.981 340.059 530.321 348.797 531.098 357.502C531.767 366.262 532.958 374.974 534.663 383.593Z" fill="#181926"/>
<path d="M501.595 169.827C504.335 177.694 506.789 185.662 509.223 193.641C511.657 201.62 513.836 209.669 515.945 217.75C516.963 221.815 518.032 225.83 518.949 229.895L520.344 235.994L521.648 242.092C523.308 250.274 524.896 258.476 525.945 266.78C526.994 275.084 527.758 283.377 528.43 291.691C529.102 300.005 529.713 308.329 530.111 316.654C530.508 324.978 530.885 333.312 531.129 341.647C531.373 349.981 531.557 358.305 531.567 366.649C531.119 358.325 530.711 350.001 530.172 341.687C529.632 333.373 529.153 325.059 528.583 316.745C527.381 300.137 526.129 283.52 523.99 267.024C521.851 250.528 518.307 234.266 514.468 218.075C512.543 209.944 510.445 201.914 508.276 193.875C506.107 185.835 503.917 177.867 501.595 169.827Z" fill="#181926"/>
<path d="M571.438 268.965C567.364 275.253 563.376 281.558 559.472 287.88C555.541 294.212 551.65 300.575 547.954 307.029C544.257 313.483 540.692 320.018 537.515 326.726C535.927 330.078 534.51 333.508 533.268 337.002C531.948 340.475 531.165 344.128 530.946 347.836C530.803 345.967 530.886 344.087 531.191 342.236L531.394 340.834L531.69 339.461L531.995 338.079L532.362 336.717C533.392 333.104 534.65 329.56 536.13 326.106C537.576 322.65 539.185 319.276 540.896 315.942C542.607 312.609 544.42 309.326 546.273 306.073C548.127 302.821 550.082 299.629 552.068 296.458C554.054 293.287 556.091 290.157 558.178 287.077C562.367 280.87 566.787 274.833 571.438 268.965Z" fill="#181926"/>
<path d="M493.988 247.997C498.693 256.179 503.021 264.574 507.054 273.102C511.087 281.629 514.855 290.309 518.256 299.121C521.698 307.93 524.616 316.934 526.994 326.086C528.159 330.675 529.077 335.323 529.744 340.01C530.432 344.694 530.593 349.439 530.223 354.158C530.216 349.458 529.742 344.769 528.807 340.163C527.942 335.548 526.77 331.015 525.528 326.482C524.285 321.949 522.819 317.487 521.281 313.056C519.743 308.624 518.144 304.193 516.444 299.843C514.743 295.493 513.012 291.092 511.209 286.742C509.406 282.391 507.553 278.082 505.679 273.762C501.88 265.143 498 256.555 493.988 247.997Z" fill="#181926"/>
<path d="M553.372 328.098L553.046 333.363L553.026 333.567L552.934 334.918V335.02L552.924 335.122L552.842 336.473L552.832 336.687L552.74 338.018L552.73 338.222L552.017 349.564L551.997 349.879L551.916 351.109L551.895 351.435L551.865 351.892L551.814 352.664L551.793 352.979L551.712 354.219L551.691 354.534L549.095 395.424H511.668L509.112 355.144L509.071 354.636L509.01 353.599L508.969 353.081L508.908 352.055L508.898 351.892L508.878 351.526L508.806 350.499L508.776 349.981L507.982 337.439L507.961 337.083L507.88 335.884L507.859 335.508L507.829 335.02L507.788 334.349L507.757 333.983L507.686 332.774L507.666 332.418L507.391 328.098H553.372Z" fill="#FE8A71"/>
<path d="M552.934 335.02L552.924 335.122L552.842 336.474L552.832 336.687L552.741 338.018L552.73 338.222L552.017 349.565L551.997 349.88L551.916 351.109L551.895 351.435L551.865 351.892H508.898L508.878 351.526L508.807 350.5L508.776 349.981L507.982 337.439L507.961 337.083L507.88 335.884L507.859 335.508L507.829 335.02H552.934Z" fill="#181926"/>
<path d="M556.895 325.7H503.867V338.74H556.895V325.7Z" fill="#FE8A71"/>
<g style="mix-blend-mode:multiply" opacity="0.1">
<path d="M486.462 412.194C486.462 421.839 413.33 429.665 323.119 429.665C295.948 429.665 270.335 428.954 247.757 427.704C247.797 427.846 247.818 427.993 247.818 428.141C247.818 436.343 193.028 443 125.446 443C57.865 443 3.10522 436.343 3.10522 428.141C3.10522 419.939 57.8955 413.271 125.487 413.271C137.708 413.271 149.43 413.495 160.541 413.891C160.079 413.443 159.805 412.836 159.777 412.194C159.777 402.548 232.909 394.743 323.119 394.743C413.33 394.743 486.462 402.548 486.462 412.194Z" fill="#181926"/>
</g>
<path d="M360.252 73.9823C357.869 75.9856 355.266 77.711 352.491 79.1252C356.565 71.7666 355.435 55.4537 354.976 57.7812C352.797 68.9614 346.137 81.3918 343.489 82.0727C336.869 83.0339 330.116 81.8173 324.251 78.6069C329.547 70.2624 328.834 53.6649 328.488 54.6812C324.74 65.6378 316.532 72.2138 315.075 72.2342C309.525 67.2539 306.521 62.2025 307.274 61.6638C312.753 57.7101 317.224 47.7902 321.206 37.3316C325.157 27.0153 328.62 16.201 332.134 10.0621C332.134 10.0621 332.134 10.0621 332.134 10.0113L332.439 9.50308C339.629 -2.40891 350.332 -0.345656 357.054 3.04906C379.795 14.5748 363.633 71.1466 360.252 73.9823Z" fill="#181926"/>
<path d="M341.258 2.55103C336.798 3.74019 333.223 7.95818 330.983 11.8306C328.009 16.9633 326.115 22.7465 323.691 28.1638C319.011 38.8429 312.693 48.7289 304.962 57.4661C304.925 57.5025 304.903 57.5524 304.902 57.6048C304.901 57.6572 304.921 57.7079 304.957 57.7456C304.994 57.7833 305.044 57.8051 305.096 57.806C305.149 57.807 305.2 57.7871 305.237 57.7507C313.761 50.9308 319.495 41.3463 324.068 31.5281C326.43 26.5173 328.243 21.2829 330.463 16.2112C331.631 13.403 333.176 10.7667 335.056 8.37489C336.878 6.25835 339.109 4.52997 341.615 3.29299C341.696 3.23651 341.755 3.15292 341.78 3.05717C341.806 2.96143 341.796 2.85979 341.753 2.77049C341.71 2.68119 341.637 2.61006 341.546 2.56984C341.456 2.52963 341.354 2.52296 341.258 2.55103Z" fill="#181926"/>
<path d="M360.974 40.4926C353.346 44.2837 348.02 81.3512 343.661 83.4043C336.267 86.9006 317.997 83.5364 311.55 84.319C307.579 84.7967 297.293 98.8228 299.655 101.597C302.018 104.372 344.924 109.627 355.586 104.911C361.626 102.238 367.013 76.5132 367.807 65.2212C368.602 53.9292 364.436 38.7648 360.974 40.4926Z" fill="#EB9481"/>
<path d="M359.426 105.236C359.12 105.651 358.779 106.038 358.407 106.395C351.34 112.849 307.487 111.121 305.297 109.231C303.108 107.34 304.411 104.393 304.411 104.393L315.512 85.2541C316.054 84.3518 316.833 83.6144 317.765 83.1218C318.696 82.6292 319.745 82.4 320.798 82.4591C324.576 82.642 340.086 84.5731 343.498 82.9063C346.91 81.2394 350.698 50.8191 359.752 40.7061C360.994 39.3137 362.176 39.2425 363.265 40.0759C366.443 42.5153 368.744 52.6892 368.978 60.4036C369.274 70.2218 365.832 97.0238 359.426 105.236Z" fill="#67C6B4"/>
<path d="M317.844 82.8456L305.247 106.72C305.247 106.72 299.136 102.889 299.136 102.787C299.136 102.685 309.717 82.7033 310.227 82.4593C310.736 82.2154 317.844 82.8456 317.844 82.8456Z" fill="#67C6B4"/>
<path d="M305.602 106.232C307.639 102.675 316.418 87.6021 317.823 83.3435C317.874 83.191 317.66 83.0589 317.569 83.2012C315.196 86.7382 307.089 101.882 305.297 106.08C305.195 106.395 305.429 106.527 305.602 106.232Z" fill="#181926"/>
<path d="M359.426 105.236L355.078 61.2371L363.225 40.076C366.402 42.5154 368.704 52.6893 368.938 60.4037C369.274 70.2219 365.832 97.0239 359.426 105.236Z" fill="#181926"/>
<path d="M361.911 38.0637C359.416 43.2675 353.326 65.9328 355.556 71.9701C357.787 78.0074 364.589 80.1622 364.589 80.1622C364.589 80.1622 369.61 104.931 372.676 107.523C375.741 110.115 408.89 110.959 421.152 88.9437C423.504 84.7054 405.876 52.7199 392.942 42.1292C383.308 34.2726 367.889 25.5622 361.911 38.0637Z" fill="#67C6B4"/>
<path d="M386.527 71.0251C384.327 73.1696 382.382 75.3549 379.347 76.3204C376.312 77.286 372.952 77.2352 369.784 77.5909C369.693 77.5909 369.693 77.7434 369.784 77.7434C373.42 77.7434 377.239 78.2414 380.712 76.8998C383.315 75.7363 385.485 73.7839 386.914 71.3198C387.077 71.0861 386.72 70.832 386.527 71.0251Z" fill="#181926"/>
<path d="M373.469 78.4038C371.082 78.6001 368.719 79.0221 366.412 79.6641C366.31 79.6641 366.33 79.8572 366.412 79.847C368.818 79.7091 371.205 79.3415 373.541 78.7493C373.586 78.7399 373.627 78.7127 373.653 78.6736C373.678 78.6345 373.687 78.5868 373.678 78.541C373.669 78.4952 373.641 78.455 373.602 78.4292C373.563 78.4035 373.515 78.3943 373.469 78.4038Z" fill="#181926"/>
<path d="M384.021 54.1019L407.292 88.5166L414.502 70.9535L384.021 54.1019Z" fill="#181926"/>
<path d="M359.334 39.8525C359.334 39.8525 357.297 43.918 357.063 44.9344C357.063 44.9344 359.711 49.5996 366.341 47.4855C372.971 45.3714 374.122 32.0467 374.122 32.0467C374.122 32.0467 369.345 31.0303 365.923 32.626C362.502 34.2217 359.334 39.8525 359.334 39.8525Z" fill="#EB9481"/>
<path d="M364.875 45.8489C362.716 46.7027 360.2 41.7834 359.335 39.8522C359.141 39.4254 359.029 39.1611 359.029 39.1611L358.897 39.029L358.479 38.6224L352.196 32.0363L357.746 20.8561L358.591 19.301C358.591 19.301 360.363 21.4253 362.481 24.0069L362.807 24.4033C363.113 24.759 363.408 25.1249 363.714 25.5009C364.019 25.877 364.172 26.06 364.396 26.3547C364.62 26.6495 364.854 26.9645 365.089 27.2593C366.771 29.3885 368.305 31.6297 369.682 33.9674C369.967 35.0041 369.417 44.0499 364.875 45.8489Z" fill="#EB9481"/>
<path d="M359.335 39.8523C359.141 39.4254 359.029 39.1611 359.029 39.1611L358.897 39.029L358.479 38.6224L352.196 32.0363L357.746 20.8561L358.591 19.301C358.591 19.301 360.363 21.4253 362.481 24.0069C363.398 27.4422 364.834 35.8782 359.335 39.8523Z" fill="#181926"/>
<path d="M334.76 23.7426C338.691 39.3745 349.109 38.1752 351.889 37.9719C355.036 37.7178 365.291 34.191 363.01 18.2338C360.729 2.2766 352.205 -0.864022 345.096 0.52842C337.988 1.92086 330.839 8.13096 334.76 23.7426Z" fill="#EB9481"/>
<path d="M337.092 20.6428C337.439 20.4801 337.734 20.2769 338.111 20.0838C338.479 19.9384 338.788 19.6735 338.986 19.3316C339.029 19.2134 339.031 19.0845 338.992 18.965C338.953 18.8455 338.876 18.7421 338.773 18.671C338.544 18.5588 338.289 18.51 338.034 18.5296C337.78 18.5493 337.535 18.6367 337.327 18.7828C336.863 19.0158 336.501 19.4098 336.308 19.8906C336.276 19.9981 336.274 20.1124 336.302 20.221C336.331 20.3295 336.389 20.4281 336.47 20.5059C336.551 20.5836 336.652 20.6376 336.762 20.6617C336.872 20.6859 336.986 20.6793 337.092 20.6428Z" fill="#181926"/>
<path d="M347.786 17.5124C347.419 17.5698 347.048 17.6071 346.676 17.6242C346.293 17.7228 345.888 17.6906 345.525 17.5328C345.421 17.4619 345.343 17.359 345.303 17.2398C345.262 17.1207 345.262 16.9916 345.301 16.8721C345.422 16.6493 345.599 16.4623 345.816 16.3302C346.032 16.198 346.28 16.1255 346.534 16.12C347.049 16.0236 347.581 16.1292 348.021 16.4147C348.115 16.4859 348.186 16.5823 348.227 16.6926C348.268 16.8029 348.277 16.9227 348.253 17.0378C348.228 17.1529 348.171 17.2587 348.089 17.3428C348.006 17.4268 347.901 17.4857 347.786 17.5124Z" fill="#181926"/>
<path d="M347.001 22.0453C347.001 21.9945 347.103 22.0453 347.113 22.1063C347.398 23.1735 347.897 24.3424 348.956 24.4033C348.956 24.4033 349.007 24.4033 348.956 24.4643C347.754 24.6473 347.103 23.0922 347.001 22.0453Z" fill="#181926"/>
<path d="M347.612 20.663C349.272 20.0227 350.423 23.3768 348.885 23.9663C347.347 24.5558 346.257 21.1915 347.612 20.663Z" fill="#181926"/>
<path d="M348.295 20.6122C348.652 20.7037 349.059 20.9374 349.416 20.846C349.772 20.7545 350.027 20.2971 350.179 19.8296C350.179 19.8296 350.24 19.8296 350.251 19.8296C350.41 20.1188 350.453 20.458 350.369 20.7775C350.286 21.097 350.083 21.3725 349.803 21.5473C349.212 21.8522 348.56 21.4355 348.173 20.846C348.143 20.785 348.193 20.5715 348.295 20.6122Z" fill="#181926"/>
<path d="M340.331 23.8038C340.331 23.8038 340.26 23.8851 340.28 23.9258C340.678 24.9422 340.963 26.1822 340.148 26.8631V26.914C341.258 26.3549 340.871 24.7084 340.331 23.8038Z" fill="#181926"/>
<path d="M339.017 23.0516C337.306 23.509 338.355 26.8935 339.944 26.4666C341.532 26.0398 340.453 22.6654 339.017 23.0516Z" fill="#181926"/>
<path d="M338.375 23.4886C338.171 23.7529 338.008 24.1594 337.693 24.2814C337.377 24.4034 336.939 24.1391 336.593 23.8545C336.593 23.8545 336.542 23.8545 336.593 23.9155C336.776 24.566 337.194 25.1758 337.856 25.1047C338.517 25.0335 338.711 24.3525 338.66 23.6614C338.609 23.5394 338.467 23.3768 338.375 23.4886Z" fill="#181926"/>
<path d="M343.62 27.8488C343.62 27.8488 343.925 29.475 344.16 30.217C344.16 30.278 344.373 30.217 344.628 30.217C345.297 30.1254 345.928 29.8511 346.451 29.4242C346.974 28.9974 347.369 28.4346 347.592 27.798C347.592 27.7065 347.5 27.6659 347.449 27.7269C346.727 28.6817 345.711 29.3742 344.557 29.6986C344.445 29.5157 344.139 26.8934 344.017 26.9239C343.466 27.1644 342.95 27.4753 342.479 27.8488C341.746 24.4846 341.573 21.0187 340.799 17.685C340.799 17.6581 340.788 17.6322 340.769 17.6131C340.75 17.5941 340.724 17.5834 340.697 17.5834C340.67 17.5834 340.644 17.5941 340.625 17.6131C340.606 17.6322 340.595 17.6581 340.595 17.685C340.67 21.3995 341.116 25.0973 341.929 28.7229C342.041 29.1295 343.365 28.0724 343.62 27.8488Z" fill="#181926"/>
<path d="M344.506 29.6073C345.088 30.1125 345.788 30.4622 346.542 30.6237C346.958 30.6978 347.386 30.6373 347.765 30.4509C348.589 30.0443 348.447 29.2414 348.141 28.5909C347.979 28.2449 347.774 27.9205 347.53 27.6254C346.76 28.5913 345.7 29.2858 344.506 29.6073Z" fill="#181926"/>
<path d="M346.553 30.6033C346.969 30.6775 347.397 30.6169 347.775 30.4305C348.6 30.024 348.458 29.221 348.152 28.5706C347.691 28.6718 347.279 28.9299 346.987 29.3007C346.696 29.6715 346.542 30.132 346.553 30.6033Z" fill="white"/>
<path d="M361.535 20.0837C359.926 20.0837 358.225 15.8658 358.225 15.8658C354.198 15.7559 350.267 14.615 346.809 12.5524C344.62 11.2672 342.755 9.49717 341.36 7.37897C340.434 16.6382 333.61 19.9618 333.61 19.9618C333.61 19.9618 331.217 13.1825 333.702 8.60879C336.187 4.03508 341.849 -1.71764 351.32 0.477743C351.32 0.477743 358.215 1.82953 360.904 6.79963C363.592 11.7697 363.674 20.1447 361.535 20.0837Z" fill="#181926"/>
<path d="M340.912 6.39307H340.993C342.011 10.5602 345.922 13.0402 349.721 14.4225C353.156 15.5739 356.806 15.9454 360.404 15.51C360.426 15.51 360.446 15.5186 360.462 15.5338C360.477 15.5491 360.485 15.5698 360.485 15.5913C360.485 15.6129 360.477 15.6336 360.462 15.6488C360.446 15.6641 360.426 15.6726 360.404 15.6726C356.48 16.4035 352.426 15.9469 348.764 14.3615C345.24 12.8877 341.563 10.4179 340.912 6.39307Z" fill="#181926"/>
<path d="M360.944 20.6936C360.944 20.6936 362.635 14.7884 365.201 15.2356C367.767 15.6828 367.655 23.4276 365.445 25.247C365.178 25.5002 364.862 25.6968 364.516 25.8247C364.17 25.9526 363.802 26.0092 363.433 25.9912C363.065 25.9731 362.704 25.8807 362.373 25.7197C362.041 25.5586 361.746 25.3321 361.504 25.0538L360.944 20.6936Z" fill="#EB9481"/>
<path d="M365.109 17.4615V17.5225C363.581 18.854 363.214 20.8258 363.143 22.7569C363.183 22.5382 363.271 22.3311 363.401 22.1505C363.531 21.9699 363.699 21.8202 363.894 21.7123C364.089 21.6044 364.305 21.541 364.528 21.5265C364.75 21.5121 364.973 21.547 365.18 21.6287C365.191 21.6335 365.2 21.6413 365.207 21.6512C365.213 21.6611 365.217 21.6727 365.217 21.6846C365.217 21.6965 365.213 21.7081 365.207 21.718C365.2 21.728 365.191 21.7358 365.18 21.7405C364.824 21.7413 364.477 21.8535 364.188 22.0614C363.9 22.2693 363.684 22.5623 363.571 22.8992C363.394 23.4508 363.278 24.0199 363.225 24.5965C363.225 24.7897 362.878 24.7998 362.868 24.5965C362.868 24.5965 362.868 24.5965 362.868 24.5457C362.084 22.2995 362.756 18.5186 365.109 17.4615Z" fill="#181926"/>
<path d="M364.223 24.5356C364.547 24.4417 364.896 24.4763 365.196 24.6322C365.495 24.7881 365.723 25.0533 365.832 25.3727C365.941 25.692 365.922 26.041 365.78 26.347C365.638 26.653 365.383 26.8925 365.068 27.0156C364.743 27.1095 364.395 27.0749 364.095 26.919C363.795 26.7632 363.567 26.4979 363.458 26.1785C363.35 25.8592 363.368 25.5102 363.511 25.2042C363.653 24.8982 363.908 24.6587 364.223 24.5356Z" fill="#F3F8FE"/>
<path d="M303.577 68.372C317.059 68.372 327.988 60.3131 327.988 50.3719C327.988 40.4307 317.059 32.3718 303.577 32.3718C290.095 32.3718 279.166 40.4307 279.166 50.3719C279.166 60.3131 290.095 68.372 303.577 68.372Z" fill="#FE8A71"/>
<path d="M316.888 38.2465L328.834 35.2177L324.424 45.0562L316.888 38.2465Z" fill="#FE8A71"/>
<path d="M294.788 50.372C294.798 49.8681 294.657 49.3727 294.383 48.9492C294.109 48.5257 293.715 48.1935 293.251 47.995C292.787 47.7966 292.274 47.7409 291.778 47.8353C291.282 47.9296 290.825 48.1696 290.467 48.5245C290.108 48.8794 289.864 49.3331 289.765 49.8273C289.667 50.3216 289.718 50.834 289.913 51.2989C290.108 51.7637 290.438 52.1599 290.86 52.4366C291.282 52.7133 291.777 52.8579 292.282 52.8519C292.942 52.8467 293.573 52.5844 294.041 52.121C294.509 51.6576 294.777 51.0299 294.788 50.372Z" fill="#181926"/>
<path d="M306.101 50.3719C306.112 49.8689 305.971 49.3742 305.698 48.9512C305.425 48.5282 305.032 48.1959 304.569 47.9968C304.107 47.7977 303.595 47.7409 303.099 47.8336C302.604 47.9262 302.147 48.1642 301.788 48.517C301.428 48.8699 301.182 49.3216 301.082 49.8146C300.981 50.3075 301.029 50.8193 301.221 51.2845C301.413 51.7498 301.74 52.1473 302.159 52.4265C302.578 52.7057 303.072 52.8538 303.576 52.8518C304.239 52.8519 304.875 52.592 305.347 52.128C305.82 51.6641 306.091 51.0333 306.101 50.3719Z" fill="#181926"/>
<path d="M317.417 50.3719C317.427 49.8689 317.286 49.3742 317.013 48.9512C316.741 48.5282 316.348 48.1959 315.885 47.9968C315.422 47.7977 314.91 47.7409 314.414 47.8336C313.919 47.9262 313.462 48.1642 313.103 48.517C312.743 48.8699 312.498 49.3216 312.397 49.8146C312.296 50.3075 312.344 50.8193 312.536 51.2845C312.728 51.7498 313.055 52.1473 313.474 52.4265C313.894 52.7057 314.387 52.8538 314.891 52.8518C315.554 52.8519 316.19 52.592 316.663 52.128C317.135 51.6641 317.406 51.0333 317.417 50.3719Z" fill="#181926"/>
<path d="M486.971 88.4457H165.521C156.404 88.4457 149.013 95.822 149.013 104.921V335.233C149.013 344.332 156.404 351.709 165.521 351.709H486.971C496.089 351.709 503.48 344.332 503.48 335.233V104.921C503.48 95.822 496.089 88.4457 486.971 88.4457Z" fill="#181926"/>
<path d="M485.565 105.562H166.906V294.608H485.565V105.562Z" fill="white"/>
<path d="M503.47 312.873V335.233C503.464 339.596 501.723 343.778 498.63 346.859C495.536 349.941 491.342 351.671 486.971 351.668H165.511C163.343 351.67 161.197 351.244 159.194 350.417C157.191 349.589 155.371 348.375 153.839 346.845C152.306 345.315 151.091 343.498 150.263 341.498C149.435 339.499 149.01 337.356 149.013 335.193V312.832L503.47 312.873Z" fill="#D2D1D1"/>
<path d="M260.774 399.164H391.71C394.395 399.164 396.97 400.228 398.868 402.123C400.767 404.017 401.833 406.587 401.833 409.266V411.767H250.651V409.266C250.651 406.587 251.717 404.017 253.616 402.123C255.514 400.228 258.089 399.164 260.774 399.164Z" fill="#181926"/>
<path d="M383.827 399.174H268.646L271.579 377.291L271.721 376.254L271.996 374.201L272.128 373.175L272.403 371.122L272.444 370.796L272.546 370.085L272.821 368.032L272.953 367.005L275.011 351.709H377.473L379.407 366.131L379.499 366.832L379.825 369.221L379.907 369.912L380.039 370.796L380.243 372.301L380.324 373.002L380.64 375.401L380.742 376.082L383.827 399.174Z" fill="#D2D1D1"/>
<path d="M485.565 105.562H166.906V115.786H485.565V105.562Z" fill="#181926"/>
<path d="M272.587 146.135H186.491V207.85H272.587V146.135Z" fill="#E8E2FF"/>
<path d="M265.152 178.365C265.158 182.042 264.001 185.627 261.847 188.61C259.693 191.593 256.651 193.822 253.154 194.98C249.658 196.139 245.884 196.167 242.37 195.062C238.856 193.956 235.781 191.773 233.582 188.823H241.2V176.454H230.252C230.756 172.025 232.937 167.956 236.349 165.079C239.761 162.203 244.146 160.737 248.605 160.981C253.065 161.225 257.262 163.161 260.338 166.393C263.415 169.624 265.137 173.907 265.152 178.365Z" fill="white"/>
<path d="M233.622 188.823H196.267V176.454H230.251C230.181 177.088 230.147 177.726 230.149 178.365C230.147 182.133 231.365 185.802 233.622 188.823Z" fill="white"/>
<path d="M464.831 218.349H284.003V277.137H464.831V218.349Z" stroke="#F2F1F1" stroke-width="1.48498" stroke-miterlimit="10"/>
<path d="M284.003 218.349L464.831 277.137" stroke="#F2F1F1" stroke-width="1.48498" stroke-miterlimit="10"/>
<path d="M464.831 218.349L284.003 277.137" stroke="#F2F1F1" stroke-width="1.48498" stroke-miterlimit="10"/>
<path d="M367.319 146.135H284.003V149.154H367.319V146.135Z" fill="#181926"/>
<path d="M367.319 153.28H284.003V156.299H367.319V153.28Z" fill="#181926"/>
<path d="M367.319 160.426H284.003V163.444H367.319V160.426Z" fill="#181926"/>
<path d="M367.319 167.571H284.003V170.589H367.319V167.571Z" fill="#181926"/>
<path d="M332.377 174.716H284.003V177.735H332.377V174.716Z" fill="#181926"/>
<path d="M367.319 181.861H284.003V184.88H367.319V181.861Z" fill="#181926"/>
<path d="M367.319 189.006H284.003V192.025H367.319V189.006Z" fill="#181926"/>
<path d="M367.319 196.162H284.003V199.18H367.319V196.162Z" fill="#181926"/>
<path d="M346.971 203.307H284.003V206.326H346.971V203.307Z" fill="#181926"/>
<path d="M272.587 218.349H186.582V277.137H272.587V218.349Z" fill="#67C6B4"/>
<path d="M199.139 271.943H193.935V277.137H199.139V271.943Z" fill="white"/>
<path d="M210.158 257.084H204.954V277.147H210.158V257.084Z" fill="white"/>
<path d="M221.167 247.743H215.963V277.137H221.167V247.743Z" fill="#181926"/>
<path d="M232.186 234.255H226.982V277.137H232.186V234.255Z" fill="#FE8A71"/>
<path d="M243.205 223.695H238.001V277.147H243.205V223.695Z" fill="#DD6A57"/>
<path d="M254.224 263.548H249.02V277.137H254.224V263.548Z" fill="white"/>
<path d="M265.244 246.147H260.04V277.147H265.244V246.147Z" fill="white"/>
<path d="M463.813 212.526L378.735 200.99L388.583 139.936L473.661 151.471L463.813 212.526Z" fill="#FFF6F4"/>
<path d="M457.08 204.455L427.16 200.4L448.434 159.267L457.08 204.455Z" fill="white"/>
<path d="M422.517 191.1L392.606 187.045L411.345 164.379L422.517 191.1Z" fill="white"/>
<path d="M175.053 110.674C175.053 111.177 174.904 111.669 174.623 112.087C174.343 112.505 173.945 112.83 173.479 113.022C173.013 113.214 172.501 113.264 172.007 113.165C171.513 113.066 171.059 112.823 170.703 112.467C170.348 112.111 170.106 111.657 170.009 111.163C169.912 110.67 169.964 110.159 170.158 109.694C170.352 109.23 170.68 108.834 171.1 108.556C171.52 108.278 172.013 108.131 172.517 108.133C172.851 108.133 173.182 108.199 173.49 108.327C173.798 108.454 174.078 108.642 174.314 108.878C174.55 109.114 174.736 109.394 174.863 109.702C174.99 110.011 175.055 110.341 175.053 110.674Z" fill="white"/>
<path d="M185.431 110.674C185.431 111.176 185.282 111.668 185.002 112.086C184.722 112.503 184.325 112.829 183.859 113.021C183.394 113.214 182.882 113.264 182.388 113.166C181.895 113.068 181.441 112.826 181.085 112.471C180.729 112.115 180.486 111.663 180.388 111.17C180.29 110.677 180.34 110.166 180.533 109.702C180.726 109.237 181.052 108.84 181.471 108.561C181.889 108.282 182.382 108.133 182.885 108.133C183.22 108.132 183.552 108.196 183.861 108.324C184.171 108.451 184.452 108.638 184.688 108.874C184.925 109.11 185.113 109.391 185.24 109.7C185.368 110.009 185.433 110.34 185.431 110.674Z" fill="white"/>
<path d="M195.809 110.674C195.809 111.176 195.66 111.668 195.38 112.086C195.1 112.503 194.703 112.829 194.238 113.021C193.772 113.214 193.26 113.264 192.767 113.166C192.273 113.068 191.819 112.826 191.463 112.471C191.107 112.115 190.864 111.663 190.766 111.17C190.668 110.677 190.718 110.166 190.911 109.702C191.104 109.237 191.43 108.84 191.849 108.561C192.267 108.282 192.76 108.133 193.263 108.133C193.598 108.132 193.93 108.196 194.239 108.324C194.549 108.451 194.83 108.638 195.067 108.874C195.303 109.11 195.491 109.391 195.618 109.7C195.746 110.009 195.811 110.34 195.809 110.674Z" fill="#FE8A71"/>
<path d="M464.831 126.113H350.291V136.317H464.831V126.113Z" fill="#F2F1F1"/>
<path d="M196.716 126.113H186.491V136.317H196.716V126.113Z" fill="#67C6B4"/>
<path d="M210.718 126.113H200.494V136.317H210.718V126.113Z" fill="#FE8A71"/>
<path d="M224.722 126.113H214.497V136.317H224.722V126.113Z" fill="white"/>
<path d="M292.914 126.113H242.931V136.317H292.914V126.113Z" fill="#F2F1F1"/>
<path d="M332.551 329.674C332.551 330.942 332.174 332.182 331.468 333.237C330.762 334.292 329.758 335.114 328.584 335.599C327.41 336.084 326.118 336.212 324.871 335.964C323.625 335.717 322.48 335.106 321.581 334.209C320.682 333.312 320.07 332.169 319.822 330.925C319.574 329.681 319.702 328.392 320.188 327.22C320.674 326.048 321.498 325.046 322.555 324.341C323.611 323.637 324.854 323.261 326.125 323.261C326.969 323.259 327.805 323.424 328.586 323.746C329.366 324.068 330.075 324.54 330.672 325.136C331.269 325.732 331.742 326.439 332.065 327.218C332.387 327.997 332.552 328.831 332.551 329.674Z" fill="#181926"/>
<path d="M380.039 370.796H272.444L272.546 370.085L272.821 368.032L272.954 367.005L275.011 351.709H377.473L379.408 366.131L379.499 366.833L379.825 369.221L379.907 369.912L380.039 370.796Z" fill="#181926"/>
<path d="M316.072 85.9454C312.488 85.0205 307.65 81.8799 304.87 82.0832C304.193 82.1089 303.543 82.351 303.015 82.7738C302.487 83.1965 302.109 83.7775 301.937 84.431C301.937 84.431 300.083 82.0222 297.619 82.6117C296.346 82.9064 295.725 85.1933 295.725 85.1933C295.275 84.6689 294.689 84.2786 294.032 84.0652C293.374 83.8518 292.67 83.8236 291.997 83.9838C290.276 84.5021 289.899 86.7179 289.899 86.7179C289.899 86.7179 287.557 85.6202 285.979 86.7179C282.781 88.9336 285.704 104.057 291.733 105.307C294.543 105.897 293.627 102.258 293.627 102.258C293.627 102.258 296.214 107.188 299.35 106.669C302.487 106.151 301.02 101.476 301.02 101.476C301.02 101.476 303.566 106.232 306.764 105.368C309.962 104.505 307.783 100.043 307.783 100.043C307.783 100.043 310.716 102.96 313.017 101.73C316.806 99.697 309.809 92.3994 309.962 88.9336H316.072V85.9454Z" fill="#EB9481"/>
<path d="M310.715 83.8315C314.187 84.4109 317.416 79.6339 320.807 79.766C325.41 79.8676 321.927 87.6125 315.583 88.9744H310.715V83.8315Z" fill="#EB9481"/>
<path d="M289.829 87.0636C289.829 87.0636 289.747 87.0026 289.747 87.0636C289.465 92.4733 290.84 97.8405 293.688 102.452C293.78 102.594 294.055 102.452 293.984 102.33C291.863 97.4692 290.464 92.3266 289.829 87.0636Z" fill="#181926"/>
<path d="M295.705 85.1323C295.705 85.0714 295.603 85.0815 295.603 85.1323C295.353 91.095 297.25 96.9499 300.95 101.638C301.082 101.801 301.357 101.811 301.225 101.638C298.862 98.3351 296.234 90.0821 295.705 85.1323Z" fill="#181926"/>
<path d="M308.24 100.276C304.665 95.6519 302.934 90.3566 301.936 84.6547C301.936 84.5835 301.824 84.6039 301.814 84.6547C301.539 87.5717 302.557 91.1392 303.575 93.8021C304.475 96.3402 306.027 98.5976 308.077 100.348C308.158 100.47 308.311 100.378 308.24 100.276Z" fill="#181926"/>
<path d="M377.472 34.1402C385.721 33.7439 415.469 48.2883 430.327 65.1094C440.776 76.9401 424.787 129.04 421.355 129.985C417.923 130.93 401.853 127.281 399.297 124.456C396.74 121.63 412.108 78.7187 410.927 76.0863C409.745 73.4539 392.962 61.9993 382.656 50.9512C376.729 44.5886 371.657 34.4147 377.472 34.1402Z" fill="#EB9481"/>
<path d="M400.825 113.581C400.234 115.939 395.122 131.743 395.02 135.941C394.918 140.139 396.843 151.695 400.112 152.112C403.381 152.528 403.473 148.941 403.473 148.941C403.473 148.941 404.491 154.023 407.831 154.165C411.172 154.307 411.131 148.697 411.131 148.697C411.131 148.697 412.608 153.88 415.907 153.779C419.207 153.677 418.26 148.046 418.26 148.046C418.26 148.046 420.612 152.64 423.291 151.41C426.509 149.916 422.272 138.665 422.15 137.608C422.028 136.551 427.079 129.477 425.032 122.972L427.487 115.603L400.825 113.581Z" fill="#EB9481"/>
<path d="M418.229 147.812C415.561 141.643 415.459 138.482 416.488 131.957C416.488 131.825 416.325 131.764 416.294 131.896C414.706 138.207 414.257 142.182 417.934 147.955C418.117 148.239 418.362 148.107 418.229 147.812Z" fill="#181926"/>
<path d="M411.283 148.981C409.073 142.334 408.93 138.909 409.501 131.987C409.494 131.969 409.483 131.954 409.467 131.943C409.452 131.932 409.433 131.926 409.414 131.926C409.395 131.926 409.376 131.932 409.361 131.943C409.345 131.954 409.334 131.969 409.327 131.987C408.197 138.736 407.84 142.71 410.926 149.062C411.069 149.327 411.436 149.276 411.283 148.981Z" fill="#181926"/>
<path d="M403.473 148.89C401.803 142.304 401.487 138.553 402.903 131.896C402.911 131.863 402.906 131.829 402.888 131.801C402.871 131.772 402.843 131.751 402.811 131.743C402.778 131.735 402.744 131.74 402.716 131.758C402.687 131.775 402.666 131.803 402.658 131.835C400.56 138.472 400.906 143.157 403.269 148.92C403.432 149.306 403.575 149.306 403.473 148.89Z" fill="#181926"/>
<path d="M376.372 42.9625C384.031 57.1918 409.277 73.769 409.746 75.7713C410.214 77.7736 399.612 100.795 399.256 105.439C398.9 110.084 401.293 111.822 401.293 111.822L427.598 114.871C427.598 114.871 431.56 115.573 434.625 108.336C437.691 101.1 437.803 74.6228 432.588 66.9796C427.374 59.3364 410.183 42.5864 381.892 34.1708C374.845 32.0161 371.616 34.12 376.372 42.9625Z" fill="#67C6B4"/>
<path d="M401.251 111.802L428.097 114.851C428.097 114.851 426.131 121.854 426.06 121.966C425.988 122.078 399.428 118.917 399.031 118.52C398.634 118.124 401.251 111.802 401.251 111.802Z" fill="#67C6B4"/>
<path d="M427.557 114.699C423.483 114.089 406.242 111.426 401.74 111.65C401.588 111.65 401.537 111.904 401.74 111.934C405.906 112.859 422.984 114.882 427.557 114.983C427.862 115.014 427.903 114.749 427.557 114.699Z" fill="#181926"/>
<path d="M376.27 34.9535C375.17 39.7712 374.039 45.7373 369.895 48.6137C365.75 51.49 360.108 50.8192 356.309 47.2822C356.309 47.2822 356.207 47.2822 356.248 47.3534C359.629 51.4189 364.874 52.6487 369.426 50.0569C374.304 47.2619 375.893 40.5233 376.555 34.9942C376.586 34.8112 376.311 34.7807 376.27 34.9535Z" fill="#181926"/>
<path d="M220.149 427.683C217.817 428.456 151.264 428.263 148.728 426.667C147.761 426.067 147.221 416.391 146.905 404.683C146.834 402.152 146.783 399.54 146.742 396.887C146.457 379.609 146.549 361.385 146.549 361.385H191.074L190.055 396.887L189.831 404.683C189.831 404.683 215.291 416.127 217.878 418.19C220.465 420.254 222.481 426.881 220.149 427.683Z" fill="#DD6A57"/>
<path d="M220.149 427.683C217.817 428.456 151.264 428.263 148.728 426.667C147.557 425.925 147.007 411.797 146.742 396.887H190.045L189.821 404.683C189.821 404.683 215.281 416.127 217.868 418.19C220.454 420.254 222.481 426.88 220.149 427.683Z" fill="white"/>
<path d="M219.987 427.211L220.15 427.683L219.992 427.209C219.99 427.21 219.989 427.21 219.987 427.211ZM149.016 426.253C149.01 426.244 149.003 426.231 148.993 426.214C148.956 426.145 148.912 426.038 148.863 425.881C148.765 425.569 148.668 425.123 148.574 424.545C148.386 423.392 148.219 421.778 148.072 419.804C147.786 415.974 147.576 410.834 147.42 405.183H189.714L149.016 426.253ZM146.92 405.183C146.915 405.017 146.911 404.85 146.906 404.683H147.406L146.92 405.183Z" fill="white" stroke="black"/>
<path d="M219.201 425.021C207.999 424.716 163.016 424.533 151.986 425.082C151.895 425.082 151.895 425.143 151.986 425.153C163.036 425.691 208.06 425.508 219.201 425.204C219.435 425.193 219.435 425.031 219.201 425.021Z" fill="#181926"/>
<path d="M213.59 415.772C212.35 415.733 211.116 415.952 209.965 416.416C208.815 416.88 207.774 417.578 206.909 418.465C205.335 420.05 204.434 422.18 204.394 424.411C204.394 424.472 204.516 424.472 204.526 424.411C204.913 422.206 206.005 420.185 207.639 418.651C209.273 417.118 211.361 416.154 213.59 415.904C213.601 415.908 213.612 415.91 213.624 415.908C213.636 415.907 213.647 415.903 213.656 415.897C213.666 415.89 213.674 415.881 213.679 415.871C213.685 415.861 213.688 415.849 213.688 415.838C213.688 415.826 213.685 415.815 213.679 415.804C213.674 415.794 213.666 415.785 213.656 415.779C213.647 415.772 213.636 415.768 213.624 415.767C213.612 415.766 213.601 415.767 213.59 415.772Z" fill="#181926"/>
<path d="M194.148 405.78C189.678 405.709 184.494 407.264 181.714 410.862C181.602 411.005 181.805 411.147 181.938 411.086C185.848 409.052 189.965 407.444 194.22 406.289C194.264 406.259 194.3 406.217 194.322 406.168C194.344 406.119 194.352 406.065 194.344 406.012C194.337 405.959 194.314 405.909 194.28 405.868C194.245 405.827 194.2 405.797 194.148 405.78Z" fill="#181926"/>
<path d="M197.571 407.132C193.1 407.061 187.926 408.616 185.136 412.214C185.024 412.356 185.228 412.499 185.36 412.438C189.271 410.406 193.388 408.797 197.642 407.64C197.687 407.611 197.722 407.569 197.744 407.52C197.766 407.471 197.774 407.417 197.767 407.364C197.759 407.311 197.737 407.261 197.702 407.22C197.667 407.179 197.622 407.148 197.571 407.132Z" fill="#181926"/>
<path d="M201.033 408.484C196.573 408.403 191.389 409.968 188.599 413.566C188.497 413.698 188.69 413.85 188.823 413.79C192.731 411.753 196.849 410.144 201.105 408.992C201.149 408.962 201.185 408.921 201.207 408.872C201.229 408.823 201.237 408.769 201.229 408.716C201.222 408.663 201.199 408.613 201.165 408.572C201.13 408.531 201.085 408.5 201.033 408.484Z" fill="#181926"/>
<path d="M204.476 409.836C200.016 409.754 194.832 411.32 192.041 414.918C191.94 415.05 192.143 415.202 192.276 415.141C196.184 413.103 200.302 411.494 204.558 410.344C204.602 410.313 204.637 410.271 204.659 410.221C204.68 410.172 204.687 410.117 204.678 410.064C204.67 410.011 204.646 409.961 204.61 409.921C204.575 409.88 204.528 409.851 204.476 409.836Z" fill="#181926"/>
<path d="M154.797 414.511C149.787 414.511 149.777 422.287 154.797 422.287C159.818 422.287 159.889 414.511 154.797 414.511Z" fill="#181926"/>
<path d="M199.008 393.899C196.757 392.019 193.916 393.838 192.5 395.779C190.166 399.152 188.761 403.077 188.426 407.163C188.425 407.181 188.427 407.2 188.434 407.218C188.44 407.235 188.451 407.251 188.465 407.264C188.479 407.277 188.495 407.286 188.513 407.292C188.531 407.297 188.55 407.298 188.569 407.295C188.587 407.379 188.624 407.457 188.678 407.524C188.732 407.591 188.801 407.644 188.879 407.68C188.957 407.716 189.043 407.732 189.128 407.729C189.214 407.726 189.298 407.702 189.373 407.661C192.561 405.475 196.238 403.524 198.651 400.434C200.046 398.625 201.136 395.677 199.008 393.899ZM193.498 403.361C191.96 404.469 190.372 405.506 188.874 406.675C189.606 404.434 190.453 402.233 191.41 400.078C191.886 399.026 192.434 398.007 193.05 397.029C194.068 395.566 198.417 391.846 198.855 396.704C199.089 399.438 195.341 402.03 193.498 403.361Z" fill="#181926"/>
<path d="M177.304 408.789C181.195 409.399 185.207 408.301 189.026 407.722C189.11 407.702 189.188 407.663 189.254 407.607C189.32 407.552 189.371 407.482 189.405 407.403C189.439 407.323 189.453 407.237 189.448 407.152C189.442 407.066 189.416 406.983 189.373 406.909C189.423 406.858 189.454 406.787 189.373 406.726C186.325 403.974 182.605 402.07 178.588 401.207C176.235 400.749 172.905 401.369 172.548 404.256C172.192 407.142 175.044 408.433 177.304 408.789ZM174.616 406.238C171.561 402.406 177.355 402.121 179.076 402.528C180.182 402.79 181.267 403.13 182.325 403.544C184.501 404.452 186.629 405.47 188.7 406.594C186.806 406.766 184.942 407.102 183.058 407.336C180.808 407.701 176.276 408.352 174.616 406.238Z" fill="#181926"/>
<path d="M41.347 407.051C39.3102 405.628 0.193178 351.902 -0.000319506 348.914C-0.0817921 347.786 7.42387 341.637 16.7117 334.461C18.7486 332.916 20.7854 331.331 22.9138 329.725C36.6623 319.327 51.5107 308.604 51.5107 308.604L77.806 344.472L48.486 364.607L42.0497 369.028C42.0497 369.028 47.8648 396.287 47.6815 399.591C47.4982 402.894 43.3431 408.474 41.347 407.051Z" fill="#DD6A57"/>
<path d="M41.3469 407.051C39.3101 405.628 0.193084 351.902 -0.000412897 348.914C-0.0920695 347.532 11.0086 338.75 22.9137 329.725L48.4859 364.607L42.0496 369.028C42.0496 369.028 47.8647 396.287 47.6814 399.591C47.4981 402.894 43.343 408.474 41.3469 407.051Z" fill="white"/>
<path d="M41.6373 406.644L41.6336 406.641C41.6339 406.641 41.6289 406.638 41.6175 406.628C41.6056 406.618 41.5899 406.604 41.5699 406.585C41.5296 406.546 41.4784 406.494 41.4155 406.426C41.2897 406.292 41.128 406.107 40.9313 405.874C40.5384 405.408 40.0178 404.762 39.3868 403.958C38.1253 402.351 36.4321 400.128 34.4546 397.487C30.5003 392.207 25.4156 385.267 20.388 378.277C15.3602 371.288 10.3916 364.251 6.66886 358.777C4.80702 356.039 3.25971 353.697 2.17304 351.948C1.62922 351.072 1.20474 350.352 0.914707 349.808C0.769429 349.536 0.661782 349.315 0.590326 349.145C0.554637 349.061 0.530346 348.994 0.515102 348.944C0.509829 348.927 0.50619 348.914 0.503697 348.904C0.507483 348.894 0.513215 348.88 0.521754 348.863C0.555713 348.793 0.616901 348.693 0.714773 348.561C0.909853 348.299 1.21381 347.957 1.62609 347.54C2.44807 346.708 3.65587 345.621 5.16619 344.336C8.09599 341.844 12.1312 338.637 16.6118 335.17L41.583 369.227L41.6259 369.429C41.6684 369.629 41.7307 369.923 41.81 370.299C41.9685 371.051 42.1949 372.129 42.4659 373.432C43.008 376.039 43.7288 379.55 44.4439 383.163C45.159 386.776 45.8678 390.49 46.3861 393.505C46.6453 395.013 46.8563 396.342 46.9965 397.395C47.139 398.464 47.2021 399.205 47.1823 399.563C47.0987 401.068 46.0825 403.191 44.8044 404.78C44.1697 405.569 43.5047 406.182 42.9099 406.513C42.3065 406.849 41.9042 406.834 41.6373 406.644Z" fill="white" stroke="black"/>
<path d="M42.9363 404.713C36.5916 395.566 10.1538 359.179 3.21842 350.591C3.15732 350.52 3.1064 350.591 3.15732 350.591C9.26776 359.82 35.9806 395.982 42.8141 404.784C42.9363 405.008 43.0687 404.906 42.9363 404.713Z" fill="#181926"/>
<path d="M47.1007 394.732C46.4008 393.713 45.4963 392.849 44.4444 392.196C43.3925 391.544 42.2163 391.116 40.9902 390.941C38.7823 390.609 36.531 391.14 34.7067 392.425C34.6557 392.425 34.7067 392.568 34.7881 392.537C36.7973 391.544 39.0753 391.229 41.2794 391.639C43.4834 392.05 45.4942 393.164 47.009 394.814C47.0208 394.818 47.0334 394.818 47.0455 394.816C47.0576 394.813 47.0688 394.807 47.0781 394.799C47.0873 394.791 47.0942 394.78 47.0982 394.769C47.1022 394.757 47.103 394.745 47.1007 394.732Z" fill="#181926"/>
<path d="M43.699 373.175C41.1225 369.536 36.8044 366.274 32.2114 366.182C32.0383 366.182 32.0383 366.426 32.2114 366.497C36.166 368.465 39.8977 370.85 43.3426 373.612C43.4014 373.647 43.4711 373.66 43.5387 373.648C43.6064 373.637 43.6675 373.601 43.7109 373.548C43.7542 373.495 43.7769 373.428 43.7747 373.359C43.7725 373.291 43.7457 373.225 43.699 373.175Z" fill="#181926"/>
<path d="M44.6367 376.742C42.0602 373.104 37.7421 369.851 33.1593 369.75C32.976 369.75 32.976 370.004 33.1084 370.065C37.0599 372.018 40.7914 374.386 44.2395 377.129C44.265 377.155 44.2953 377.175 44.3287 377.19C44.3622 377.204 44.3981 377.212 44.4345 377.212C44.4709 377.213 44.5071 377.206 44.5409 377.192C44.5747 377.179 44.6056 377.159 44.6316 377.134C44.6577 377.108 44.6785 377.078 44.6929 377.045C44.7073 377.011 44.7149 376.975 44.7154 376.939C44.7159 376.903 44.7091 376.867 44.6957 376.833C44.6822 376.799 44.6621 376.768 44.6367 376.742Z" fill="#181926"/>
<path d="M45.5838 380.32C43.0072 376.671 38.6892 373.419 34.0962 373.327C33.923 373.327 33.923 373.571 34.0962 373.642C38.0482 375.59 41.7798 377.955 45.2273 380.696C45.2793 380.719 45.3372 380.726 45.393 380.715C45.4489 380.703 45.4998 380.675 45.5389 380.634C45.578 380.593 45.6034 380.54 45.6114 380.484C45.6194 380.428 45.6098 380.371 45.5838 380.32Z" fill="#181926"/>
<path d="M46.5207 383.888C43.9441 380.249 39.6261 376.997 35.0432 376.895C34.8599 376.895 34.8599 377.149 35.0432 377.21C38.9934 379.165 42.7247 381.533 46.1744 384.274C46.2267 384.29 46.2826 384.291 46.3354 384.277C46.3882 384.262 46.4357 384.233 46.4722 384.192C46.5087 384.151 46.5327 384.101 46.5413 384.047C46.5499 383.993 46.5428 383.938 46.5207 383.888Z" fill="#181926"/>
<path d="M13.4227 346.668C10.4693 342.602 4.17557 347.216 7.13914 351.251C10.1027 355.286 16.3965 350.713 13.4227 346.668Z" fill="#181926"/>
<path d="M56.1756 370.075C56.3589 367.148 53.2018 365.928 50.8086 365.938C46.7003 366.046 42.6928 367.231 39.1885 369.374C39.1738 369.384 39.1618 369.398 39.1535 369.414C39.1452 369.429 39.1409 369.447 39.1409 369.465C39.1409 369.483 39.1452 369.501 39.1535 369.517C39.1618 369.533 39.1738 369.546 39.1885 369.557C39.1314 369.621 39.0901 369.698 39.0681 369.781C39.0461 369.864 39.0439 369.951 39.0617 370.035C39.0796 370.119 39.1169 370.197 39.1708 370.264C39.2246 370.331 39.2935 370.385 39.3718 370.421C43.0177 371.691 46.7655 373.47 50.6965 373.632C52.9574 373.693 56.0126 372.839 56.1756 370.075ZM45.2786 371.223C43.4658 370.634 41.6938 369.973 39.8709 369.455C42.1317 368.794 44.362 368.032 46.6942 367.595C47.8168 367.37 48.9531 367.221 50.0957 367.148C51.8575 367.066 57.4588 368.408 53.7823 371.62C51.7659 373.398 47.4376 371.915 45.2786 371.223Z" fill="#181926"/>
<path d="M31.326 361.385C33.1286 364.871 36.4181 367.483 39.1066 370.197C39.1714 370.253 39.2488 370.294 39.3324 370.314C39.4159 370.335 39.5032 370.335 39.5869 370.315C39.6706 370.295 39.7483 370.256 39.8136 370.2C39.8789 370.144 39.9298 370.073 39.9621 369.994C39.9795 370 39.9981 370.002 40.0165 370C40.0349 369.998 40.0526 369.992 40.0683 369.982C40.084 369.973 40.0973 369.959 40.1071 369.944C40.1169 369.928 40.1231 369.91 40.1251 369.892C40.551 365.812 39.8905 361.693 38.2104 357.949C37.192 355.785 34.7275 353.467 32.1611 354.9C29.5947 356.333 30.2669 359.352 31.326 361.385ZM31.7945 357.716C33.1184 353.03 36.7439 357.492 37.4365 359.118C37.8488 360.178 38.1891 361.265 38.4549 362.371C38.9973 364.661 39.4189 366.978 39.7177 369.313C38.465 367.89 37.0902 366.589 35.7866 365.247C34.2692 363.57 31.0612 360.307 31.7945 357.767V357.716Z" fill="#181926"/>
<path d="M191.878 391.917H144.95C144.95 391.917 145.429 357.604 144.95 329.765C144.95 328.799 144.95 327.834 144.95 326.878C144.95 324.947 144.879 323.036 144.838 321.166C144.838 320.15 144.838 319.266 144.777 318.331C144.777 316.379 144.706 314.478 144.655 312.639C144.655 312.375 144.655 312.09 144.655 311.816C144.655 311.124 144.655 310.433 144.655 309.783C144.604 307.801 144.563 305.921 144.502 304.162C144.502 303.146 144.451 302.262 144.42 301.367C144.298 297.18 144.166 293.866 144.013 291.823C143.412 283.123 136.324 244.125 130.438 212.749C130.438 212.749 130.438 212.657 130.438 212.617C130.336 212.139 130.244 211.651 130.163 211.173C130.161 211.129 130.161 211.085 130.163 211.041C130.071 210.574 129.99 210.106 129.908 209.659C129.904 209.642 129.904 209.625 129.908 209.608V209.466C129.827 208.988 129.735 208.51 129.643 208.043C129.649 207.999 129.649 207.955 129.643 207.911C125.753 187.238 122.606 170.996 122.606 170.996H171.907C171.907 170.996 187.183 274.22 189.292 291.346C191.4 308.472 191.878 391.917 191.878 391.917Z" fill="#181926"/>
<path d="M189.617 383.501C182.295 383.349 184.393 383.288 177.071 383.217C173.486 383.217 149.94 382.973 146.59 383.532C146.571 383.532 146.553 383.539 146.539 383.553C146.526 383.566 146.518 383.584 146.518 383.603C146.518 383.622 146.526 383.64 146.539 383.653C146.553 383.667 146.571 383.674 146.59 383.674C149.94 384.233 173.486 384.03 177.071 383.989C184.393 383.918 182.295 383.867 189.617 383.715C189.75 383.705 189.75 383.501 189.617 383.501Z" fill="#181926"/>
<path d="M163.413 211.184L144.582 311.805C144.582 311.114 144.582 310.423 144.582 309.773C144.532 307.791 144.491 305.91 144.43 304.152C144.43 303.136 144.379 302.251 144.348 301.357C144.226 297.17 144.094 293.856 143.941 291.813C143.34 283.113 136.252 244.114 130.366 212.739C130.366 212.739 130.366 212.647 130.366 212.607C130.264 212.129 130.172 211.641 130.091 211.163C130.088 211.119 130.088 211.075 130.091 211.031C129.999 210.564 129.917 210.096 129.836 209.649L163.413 211.184Z" fill="#181926"/>
<path d="M172.365 170.966C173.17 195.42 163.363 204.028 163.363 204.028C163.363 204.028 142.791 273.783 131.354 294.883C119.917 315.983 53.5376 364.881 53.5376 364.881L23.4233 325.598C23.4233 325.598 83.5093 289.12 88.7338 280.298C91.6261 275.399 114.072 218.237 113.176 212.891C108.888 187.36 117.331 170.966 117.331 170.966H172.365Z" fill="#181926"/>
<path d="M160.175 211.214C158.085 220.308 155.505 229.282 152.445 238.098C148.647 249.186 144.298 260.123 140.927 271.343C140.927 271.435 141.049 271.506 141.09 271.415C145.642 260.753 149.482 249.735 153.311 238.789C156.48 229.85 159.018 220.7 160.908 211.407C161.071 210.93 160.297 210.706 160.175 211.214Z" fill="#181926"/>
<path d="M168.598 206.376C163.962 208.637 159.532 211.296 155.359 214.324C155.196 214.436 155.359 214.69 155.511 214.589C160.002 212.088 164.585 209.659 168.934 206.905C168.969 206.883 168.999 206.854 169.022 206.821C169.046 206.787 169.063 206.749 169.072 206.709C169.081 206.669 169.082 206.627 169.075 206.587C169.068 206.546 169.053 206.508 169.031 206.473C169.009 206.438 168.98 206.408 168.946 206.385C168.912 206.361 168.874 206.344 168.834 206.335C168.753 206.317 168.668 206.332 168.598 206.376Z" fill="#181926"/>
<path d="M165.562 172.419C165.562 172.256 165.247 172.256 165.257 172.419C165.811 177.652 166.1 182.91 166.122 188.173C166.122 190.602 165.613 204.16 161.316 203.622C160.603 203.54 160.165 202.88 159.941 201.833C159.812 200.451 159.857 199.058 160.073 197.686C160.246 194.84 160.318 192.005 160.267 189.149C160.202 183.845 159.588 178.562 158.433 173.384C158.433 173.349 158.42 173.316 158.395 173.291C158.37 173.266 158.336 173.252 158.301 173.252C158.266 173.252 158.232 173.266 158.207 173.291C158.183 173.316 158.169 173.349 158.169 173.384C159.063 180.659 159.403 187.992 159.187 195.318C159.034 198.845 157.833 204.252 161.519 204.404C165.206 204.557 166.764 195.552 166.958 193.112C167.391 186.183 166.922 179.227 165.562 172.419Z" fill="#181926"/>
<path d="M161.469 203.988C161.19 204.928 160.973 205.886 160.817 206.854C160.624 207.607 160.572 208.389 160.664 209.161C160.664 209.314 160.888 209.303 160.96 209.161C161.322 208.433 161.572 207.656 161.703 206.854C161.927 205.96 162.182 205.075 162.385 204.181C162.408 204.061 162.383 203.936 162.315 203.834C162.247 203.732 162.142 203.661 162.022 203.635C161.902 203.61 161.777 203.633 161.673 203.699C161.57 203.765 161.496 203.868 161.469 203.988Z" fill="#181926"/>
<path d="M60.086 358.417C56.0123 352.37 57.2344 354.047 53.0488 348.05C51.012 345.123 37.5079 325.852 35.1146 323.454C35.0637 323.393 34.9619 323.454 34.9924 323.535C36.4793 326.584 50.2685 345.611 52.4072 348.507C56.715 354.423 55.5439 352.675 59.9128 358.539C59.9291 358.562 59.9537 358.577 59.9814 358.582C60.0091 358.587 60.0376 358.581 60.0605 358.564C60.0835 358.548 60.0991 358.524 60.1038 358.496C60.1086 358.468 60.1022 358.44 60.086 358.417Z" fill="#181926"/>
<path d="M151.742 111.619C152.17 119.852 164.604 163.597 178.781 172.785C192.02 181.374 228.897 175.397 236.667 173.039C240.079 172.023 233.856 151.37 230.781 149.114C227.705 146.857 195.432 151.268 192.733 150.354C190.034 149.439 174.819 130.361 167.273 118.846C162.466 111.579 151.457 105.816 151.742 111.619Z" fill="#DD6A57"/>
<path d="M151.579 110.044C150.021 116.721 158.454 149.073 159.238 149.113C160.022 149.154 181.897 138.025 181.948 136.978C181.999 135.931 171.662 122.067 166.794 116.538C161.926 111.009 152.7 105.216 151.579 110.044Z" fill="#FE8A71"/>
<path d="M178.76 132.8C175.216 134.477 161.447 142.212 158.117 144.265C158.076 144.297 158.047 144.342 158.037 144.393C158.027 144.444 158.036 144.497 158.062 144.542C158.088 144.587 158.13 144.621 158.18 144.637C158.229 144.654 158.283 144.652 158.331 144.631C161.875 142.924 175.725 135.352 178.984 133.187C179.032 133.155 179.065 133.107 179.078 133.051C179.091 132.996 179.082 132.938 179.054 132.889C179.025 132.839 178.979 132.803 178.924 132.787C178.87 132.77 178.811 132.775 178.76 132.8Z" fill="#181926"/>
<path d="M142.801 110.064C134.114 115.583 128.431 125.31 125.905 134.223C123.38 143.137 116.74 171.992 118.216 172.846C119.693 173.7 137.312 186.354 152.842 183.447C168.373 180.54 174.687 176.505 176.673 174.238C178.659 171.972 170.369 131.55 168.526 124.324C166.682 117.097 161.02 109.007 159.299 108.783C157.578 108.56 146.121 107.96 142.801 110.064Z" fill="white"/>
<path d="M162.66 112.818C162.651 112.781 162.629 112.748 162.599 112.724C162.568 112.7 162.531 112.687 162.492 112.687C162.453 112.687 162.416 112.7 162.385 112.724C162.355 112.748 162.333 112.781 162.324 112.818C162.212 115.512 162.426 118.541 160.287 120.594C157.955 122.86 154.248 121.61 151.722 120.319C147.791 118.378 144.838 115.054 142.445 111.446C142.436 111.432 142.425 111.42 142.411 111.41C142.398 111.401 142.383 111.394 142.366 111.39C142.334 111.383 142.3 111.388 142.271 111.406C142.243 111.423 142.223 111.451 142.215 111.484C142.208 111.516 142.213 111.55 142.231 111.578C144.96 116.386 149.36 120.817 154.859 122.159C161.153 123.643 163.271 118.114 162.66 112.818Z" fill="#F2F1F1"/>
<path d="M148.138 189.515C147.822 189.677 141.437 188.813 133.982 186.11L133.493 185.937L132.913 185.724C132.784 185.664 132.651 185.613 132.515 185.571L132.037 185.378H131.884L131.059 185.022L130.57 184.809C130.244 184.687 129.918 184.545 129.552 184.402L129.073 184.179C123.881 181.961 119.214 178.678 115.376 174.543C113.716 172.643 119.907 151.38 124.246 137.364C124.301 137.225 124.345 137.083 124.378 136.937C124.572 136.338 124.765 135.758 124.938 135.189C124.938 135.026 125.03 134.884 125.081 134.742C125.132 134.6 125.081 134.579 125.142 134.518C125.315 133.98 125.468 133.502 125.631 132.973C125.631 132.831 125.723 132.679 125.763 132.547V132.425C125.957 131.845 126.12 131.307 126.293 130.778C126.293 130.636 126.385 130.493 126.435 130.351C126.955 128.705 127.383 127.383 127.688 126.479C130.204 118.846 143.983 108.377 143.983 108.377C143.983 108.377 148.739 189.21 148.138 189.515Z" fill="#FE8A71"/>
<path d="M160.572 109.241C160.572 109.241 171.581 183.233 172.62 183.884C173.659 184.534 178.73 177.572 179.087 173.944C179.443 170.315 169.921 123.978 167.793 119.852C165.664 115.725 160.572 109.241 160.572 109.241Z" fill="#FE8A71"/>
<path d="M171.154 132.13C171.042 130.809 170.909 129.497 170.858 128.176C170.862 128.167 170.864 128.157 170.863 128.147C170.862 128.137 170.859 128.127 170.853 128.118C170.848 128.11 170.84 128.103 170.831 128.098C170.822 128.093 170.812 128.091 170.802 128.091C170.792 128.091 170.782 128.093 170.773 128.098C170.764 128.103 170.757 128.11 170.751 128.118C170.746 128.127 170.742 128.137 170.741 128.147C170.74 128.157 170.742 128.167 170.746 128.176C170.746 128.928 170.746 129.691 170.746 130.443C170.247 128.41 169.728 126.377 169.239 124.344C169.239 124.243 169.056 124.283 169.076 124.344C171.561 136.9 174.351 149.398 177.447 161.839C177.498 162.072 177.834 161.971 177.783 161.747C175.774 151.848 173.564 141.975 171.154 132.13Z" fill="#181926"/>
<path d="M139.043 123.724L132.933 185.723C132.804 185.664 132.671 185.613 132.536 185.571L132.057 185.378H131.904L131.079 185.022L130.59 184.809C130.265 184.687 129.939 184.544 129.572 184.402L129.093 184.179C123.901 181.961 119.234 178.678 115.396 174.543C113.736 172.643 119.928 151.38 124.266 137.364C124.321 137.225 124.365 137.082 124.399 136.937C124.592 136.337 124.786 135.758 124.959 135.189C124.959 135.026 125.05 134.884 125.101 134.742C125.152 134.599 125.101 134.579 125.162 134.518C125.335 133.979 125.488 133.502 125.651 132.973C125.651 132.831 125.743 132.678 125.784 132.546V132.424L139.043 123.724Z" fill="#181926"/>
<path d="M157.995 118.307C154.359 119.506 147.495 114.384 144.583 110.013C144.379 109.708 144.583 106.354 144.634 102.258C144.634 99.7784 144.634 97.0138 144.389 94.483C144.389 93.9748 146.192 94.7676 146.192 94.7676L149.532 95.2758L160.572 96.9732C159.941 100.202 159.705 103.496 159.869 106.781C159.908 107.125 159.976 107.465 160.073 107.798C160.079 107.855 160.079 107.913 160.073 107.97C160.602 109.922 161.509 117.148 157.995 118.307Z" fill="#DD6A57"/>
<path d="M160.073 107.808C160.08 107.865 160.08 107.923 160.073 107.981C159.54 108.098 158.999 108.172 158.454 108.204C147.771 108.885 145.215 95.4587 145.215 95.4587L149.451 95.2758L160.491 96.9731C159.86 100.202 159.624 103.496 159.788 106.781C159.853 107.131 159.948 107.475 160.073 107.808Z" fill="#181926"/>
<path d="M162.211 67.5287C162.211 67.5287 167.476 70.1713 168.067 75.7512C168.658 81.3311 167.018 87.0026 166.468 87.2465C165.918 87.4904 162.211 67.5287 162.211 67.5287Z" fill="#181926"/>
<path d="M140.875 74.5721C138.92 80.1215 141.211 96.4852 145.061 100.276C150.652 105.775 160.144 106.669 164.91 99.8901C169.523 93.3141 166.162 72.0311 161.855 68.5551C155.428 63.4325 143.757 66.3699 140.875 74.5721Z" fill="#DD6A57"/>
<path d="M141.294 91.0273C143.28 91.3119 144.573 85.2746 144.848 82.9878C145.092 80.955 144.756 74.7348 144.787 74.3079C144.817 73.881 153.953 78.4344 158.495 76.3406C163.037 74.2469 165.624 69.3988 165.349 67.3863C165.074 65.3739 158.352 61.227 153.128 61.7657C147.903 62.3044 141.997 69.8968 141.997 69.8968C142.69 68.8113 143.296 67.6728 143.809 66.4919C143.687 66.2785 140.571 68.1181 140.326 70.5574C140.326 70.5574 140.52 67.5083 140.265 67.5083C140.011 67.5083 137.821 70.4456 138.707 72.2751C138.707 72.2751 136.12 75.3243 136.283 78.2006C136.446 81.077 138.951 90.6919 141.294 91.0273Z" fill="#181926"/>
<path d="M161.744 74.7652C160.444 75.7488 159.001 76.5301 157.467 77.0825C155.728 77.5196 153.909 77.5196 152.171 77.0825C150.428 76.7029 148.759 76.0402 147.232 75.1209C145.877 74.318 144.624 73.3016 143.209 72.6206C142.852 72.4478 142.557 72.9662 142.802 73.2304C145.395 75.9248 148.793 77.7078 152.487 78.3123C154.2 78.5899 155.956 78.4182 157.582 77.8141C159.208 77.2101 160.65 76.1944 161.764 74.8668C161.764 74.8668 161.764 74.755 161.744 74.7652Z" fill="#181926"/>
<path d="M143.656 89.9804C143.656 89.9804 140.082 84.6444 137.668 85.9149C135.254 87.1854 137.851 94.8489 140.632 95.9568C140.978 96.1226 141.355 96.217 141.739 96.2344C142.123 96.2518 142.506 96.1918 142.866 96.0581C143.227 95.9243 143.556 95.7195 143.835 95.4559C144.115 95.1923 144.338 94.8752 144.491 94.5237L143.656 89.9804Z" fill="#DD6A57"/>
<path d="M138.503 88.0901C138.452 88.0901 138.442 88.0901 138.503 88.1612C140.448 88.9947 141.446 90.8445 142.129 92.7451C142.02 92.5449 141.869 92.3708 141.686 92.2351C141.503 92.0995 141.293 92.0055 141.069 91.96C140.846 91.9144 140.615 91.9184 140.394 91.9715C140.172 92.0246 139.965 92.1256 139.786 92.2674C139.735 92.2674 139.786 92.3792 139.786 92.3691C140.134 92.2681 140.504 92.2764 140.846 92.3928C141.189 92.5092 141.487 92.728 141.701 93.0195C142.056 93.514 142.357 94.0457 142.597 94.6051C142.679 94.7779 143.004 94.6966 142.943 94.4933C143.025 91.9422 141.151 88.4255 138.503 88.0901Z" fill="#181926"/>
<path d="M154.991 85.8945C154.991 85.8945 154.91 85.9555 154.92 85.9962C155.103 87.0939 155.123 88.3847 154.176 88.8929C154.176 88.8929 154.176 88.9539 154.176 88.9437C155.388 88.6083 155.337 86.9008 154.991 85.8945Z" fill="#181926"/>
<path d="M153.839 84.8681C152.047 84.9799 152.393 88.5575 154.053 88.4559C155.713 88.3542 155.346 84.7868 153.839 84.8681Z" fill="#181926"/>
<path d="M161.785 85.0918C161.785 85.0918 161.876 85.0918 161.876 85.1833C161.948 86.2911 162.222 87.5514 163.261 87.8259C163.261 87.8259 163.261 87.897 163.261 87.8868C162.009 87.836 161.673 86.159 161.785 85.0918Z" fill="#181926"/>
<path d="M162.669 83.8415C164.441 83.5366 164.92 87.0939 163.28 87.3785C161.64 87.6631 161.182 84.0956 162.669 83.8415Z" fill="#181926"/>
<path d="M152.272 83.3434C152.75 83.1706 153.158 82.9369 153.616 82.7234C154.118 82.5713 154.555 82.2566 154.859 81.829C154.929 81.6769 154.947 81.5058 154.91 81.3423C154.873 81.1788 154.784 81.0319 154.655 80.9244C154.365 80.7527 154.034 80.662 153.698 80.662C153.361 80.662 153.03 80.7527 152.74 80.9244C152.085 81.1841 151.556 81.6867 151.264 82.327C151.221 82.4673 151.217 82.6164 151.252 82.7586C151.288 82.9008 151.361 83.0309 151.464 83.135C151.568 83.2392 151.697 83.3135 151.839 83.3502C151.981 83.3869 152.131 83.3845 152.272 83.3434Z" fill="#181926"/>
<path d="M163.882 81.9105C163.389 81.8582 162.899 81.7802 162.415 81.6767C161.893 81.6643 161.389 81.4823 160.979 81.1584C160.875 81.0246 160.819 80.8601 160.819 80.6908C160.819 80.5215 160.875 80.357 160.979 80.2233C161.213 79.9821 161.507 79.8063 161.83 79.7136C162.154 79.6209 162.496 79.6144 162.822 79.6948C163.507 79.7636 164.141 80.0821 164.605 80.5892C164.707 80.7145 164.769 80.8672 164.784 81.0281C164.799 81.1889 164.765 81.3505 164.688 81.4922C164.61 81.634 164.492 81.7495 164.349 81.824C164.205 81.8985 164.042 81.9286 163.882 81.9105Z" fill="#181926"/>
<path d="M156.274 95.54C156.559 95.7738 156.864 96.0991 157.292 96.0991C157.703 96.0489 158.098 95.9139 158.453 95.7027C158.453 95.7027 158.524 95.7027 158.514 95.7027C158.376 95.9361 158.177 96.1281 157.939 96.2586C157.7 96.3891 157.431 96.4533 157.16 96.4446C156.918 96.4145 156.691 96.3119 156.51 96.1504C156.328 95.9889 156.199 95.776 156.141 95.54C156.152 95.54 156.233 95.54 156.274 95.54Z" fill="#181926"/>
<path d="M224.24 119.876L62.9299 204.075L90.4134 256.519L251.723 172.32L224.24 119.876Z" fill="#181926"/>
<path d="M119.805 203.734C121.525 207.023 122.229 210.747 121.828 214.436C121.427 218.124 119.939 221.612 117.553 224.456C115.166 227.301 111.988 229.376 108.421 230.419C104.853 231.461 101.056 231.425 97.5086 230.314C93.9617 229.203 90.8243 227.068 88.4931 224.178C86.162 221.288 84.7417 217.773 84.4118 214.077C84.0819 210.382 84.8573 206.672 86.6398 203.416C88.4224 200.16 91.1321 197.505 94.4265 195.786C96.6144 194.638 99.008 193.933 101.47 193.711C103.932 193.49 106.413 193.756 108.771 194.495C111.13 195.233 113.319 196.43 115.212 198.015C117.106 199.601 118.667 201.544 119.805 203.734Z" fill="#ADADAD"/>
<path d="M106.932 204.689C107.57 205.906 107.832 207.285 107.685 208.65C107.537 210.015 106.988 211.307 106.105 212.36C105.222 213.414 104.046 214.182 102.726 214.569C101.405 214.955 99.9994 214.942 98.6864 214.531C97.3735 214.119 96.2122 213.329 95.3496 212.259C94.4869 211.189 93.9617 209.887 93.8403 208.519C93.719 207.151 94.0069 205.778 94.6677 204.574C95.3286 203.369 96.3326 202.387 97.5527 201.752C98.3617 201.329 99.2462 201.07 100.156 200.989C101.065 200.908 101.982 201.007 102.853 201.28C103.724 201.552 104.533 201.994 105.233 202.579C105.933 203.164 106.51 203.881 106.932 204.689Z" fill="white"/>
<path d="M119.989 219.061C120.132 219.338 120.264 219.623 120.386 219.914C118.676 223.847 115.667 227.076 111.86 229.062C108.054 231.049 103.68 231.673 99.4681 230.83C99.2984 230.571 99.1421 230.303 98.9997 230.027C98.2781 228.652 97.8351 227.148 97.696 225.602C97.5568 224.056 97.7241 222.497 98.1884 221.015C98.6528 219.534 99.405 218.158 100.402 216.966C101.399 215.774 102.622 214.79 104 214.07C105.378 213.35 106.885 212.908 108.434 212.769C109.984 212.63 111.545 212.797 113.03 213.261C114.515 213.724 115.894 214.475 117.088 215.47C118.282 216.465 119.267 217.685 119.989 219.061Z" fill="white"/>
<path d="M218.524 146.938L128.145 194.113L128.928 195.608L219.307 148.433L218.524 146.938Z" fill="#181926"/>
<path d="M162.263 182.442L130.669 198.933L131.453 200.428L163.047 183.937L162.263 182.442Z" fill="white"/>
<path d="M223.572 156.575L133.194 203.75L133.977 205.245L224.356 158.07L223.572 156.575Z" fill="white"/>
<path d="M226.092 161.394L135.713 208.569L136.497 210.064L226.875 162.889L226.092 161.394Z" fill="white"/>
<path d="M193.479 184.549L138.232 213.386L139.015 214.881L194.262 186.044L193.479 184.549Z" fill="white"/>
<path d="M125.61 179.503L128.166 181.373L131.15 180.326L130.172 183.325L132.087 185.835H128.92L127.127 188.437L126.15 185.429L123.115 184.514L125.681 182.664L125.61 179.503Z" fill="#FE8A71"/>
<path d="M136.945 173.588L139.501 175.458L142.485 174.411L141.507 177.409L143.422 179.92H140.254L138.462 182.522L137.484 179.513L134.449 178.598L137.016 176.749L136.945 173.588Z" fill="#FE8A71"/>
<path d="M148.279 167.673L150.835 169.543L153.819 168.496L152.832 171.494L154.756 174.005H151.589L149.787 176.596L148.819 173.598L145.784 172.683L148.351 170.834L148.279 167.673Z" fill="#FE8A71"/>
<path d="M159.604 161.757L162.17 163.627L165.154 162.58L164.166 165.579L166.091 168.089H162.924L161.121 170.691L160.154 167.672L157.119 166.768L159.686 164.918L159.604 161.757Z" fill="#FE8A71"/>
<path d="M170.939 155.842L173.495 157.702L176.49 156.655L175.502 159.663L177.426 162.174H174.259L172.457 164.766L171.479 161.767L168.454 160.853L171.021 159.003L170.939 155.842Z" fill="#FE8A71"/>
<path d="M238.022 139.874C240.537 142.588 245.579 145.373 246.699 147.883C246.999 148.491 247.094 149.18 246.972 149.846C246.849 150.513 246.514 151.122 246.016 151.583C246.016 151.583 249.072 152.071 249.662 154.51C249.998 155.771 248.277 157.407 248.277 157.407C248.951 157.556 249.57 157.887 250.068 158.364C250.566 158.841 250.922 159.445 251.098 160.111C251.445 161.869 249.673 163.241 249.673 163.241C249.673 163.241 251.709 164.786 251.526 166.697C251.068 170.559 236.331 175.112 232.38 170.396C230.537 168.201 234.193 167.286 234.193 167.286C234.193 167.286 228.612 167.286 227.593 164.329C226.575 161.371 231.402 160.415 231.402 160.415C231.402 160.415 225.995 160.415 225.292 157.194C224.589 153.972 229.508 153.758 229.508 153.758C229.508 153.758 225.536 152.549 225.536 149.957C225.536 145.658 235.293 148.371 238.297 146.603L235.374 141.277L238.022 139.874Z" fill="#DD6A57"/>
<path d="M242.38 143.595C240.231 140.81 242.93 135.718 241.249 132.76C238.989 128.766 233.795 135.484 235.587 141.704L237.879 145.993L242.38 143.595Z" fill="#DD6A57"/>
<path d="M249.418 163.495C249.468 163.495 249.509 163.495 249.418 163.566C244.77 166.369 239.378 167.691 233.958 167.357C233.785 167.357 233.734 167.063 233.958 167.042C239.256 166.614 244.464 165.419 249.418 163.495Z" fill="#181926"/>
<path d="M248.348 157.407C248.409 157.407 248.45 157.478 248.348 157.519C243.188 160.539 237.117 161.62 231.228 160.568C231.025 160.568 230.882 160.283 231.116 160.314C235.19 160.873 243.734 159.287 248.348 157.407Z" fill="#181926"/>
<path d="M229.059 153.524C234.823 154.49 240.323 153.524 245.832 151.695C245.903 151.695 245.924 151.776 245.832 151.817C243.378 153.433 239.722 154.226 236.88 154.602C234.215 155.008 231.489 154.706 228.977 153.728C228.916 153.687 228.937 153.473 229.059 153.524Z" fill="#181926"/>
<path d="M136.925 112.199C129.928 116.579 96.6877 146.085 95.5572 162.906C94.5388 178.65 111.567 199.668 116.211 206.376C118.247 209.304 138.514 197.016 138.992 193.245C139.471 189.474 122.504 166.941 121.985 164.146C121.466 161.351 131.772 141.44 138.157 129.223C142.18 121.509 141.854 109.109 136.925 112.199Z" fill="#DD6A57"/>
<path d="M149.37 212.627C152.089 216.144 158.587 218.532 156.672 221.236C154.971 223.634 150.633 221.551 150.633 221.551C150.633 221.551 154.758 225.484 152.191 227.548C149.625 229.611 145.327 226.348 145.327 226.348C145.327 226.348 148.912 229.468 146.203 231.349C143.494 233.229 139.339 231.115 139.339 231.115C139.339 231.115 139.746 232.711 137.231 233.148C133.636 233.819 127.698 228.605 125.244 225.159C122.79 221.713 116.364 207.24 115.417 205.004L137.485 189.128C137.485 189.128 144.696 193.255 148.087 195.796C151.478 198.337 160.308 209.812 157.65 212.2C154.992 214.589 148.82 206.376 146.885 204.699C144.95 203.022 144.227 203.175 144.512 204.608C144.706 205.553 148.168 211.062 149.37 212.627Z" fill="#DD6A57"/>
<path d="M150.479 221.348C144.643 218.004 142.668 215.534 139.561 209.69C139.5 209.578 139.317 209.639 139.368 209.761C141.883 215.768 143.92 219.223 150.326 221.642C150.642 221.754 150.723 221.51 150.479 221.348Z" fill="#181926"/>
<path d="M145.631 226.43C139.867 222.435 137.708 219.772 134.011 213.887C133.95 213.806 133.808 213.887 133.859 213.979C136.995 220.077 139.103 223.452 145.387 226.694C145.631 226.836 145.876 226.653 145.631 226.43Z" fill="#181926"/>
<path d="M139.308 231.034C134.012 226.755 131.507 223.919 128.655 217.77C128.643 217.739 128.619 217.714 128.588 217.701C128.558 217.687 128.523 217.687 128.492 217.699C128.461 217.711 128.436 217.735 128.423 217.765C128.409 217.796 128.409 217.83 128.421 217.861C130.722 224.437 133.818 228.025 139.165 231.176C139.521 231.4 139.644 231.298 139.308 231.034Z" fill="#181926"/>
<path d="M138.218 111.274C131.618 113.174 107.411 136.277 107.767 136.988C108.124 137.699 128.502 151.329 129.449 150.862C130.396 150.394 137.484 134.599 139.949 127.698C142.414 120.797 142.994 109.901 138.218 111.274Z" fill="#FE8A71"/>
<path d="M131.548 146.054C128.36 143.777 114.887 135.565 111.455 133.644C111.221 133.512 111.027 133.857 111.251 134.01C114.469 136.266 127.841 144.651 131.324 146.44C131.375 146.465 131.434 146.47 131.488 146.454C131.543 146.438 131.589 146.401 131.617 146.352C131.646 146.303 131.655 146.245 131.642 146.189C131.629 146.134 131.595 146.085 131.548 146.054Z" fill="#181926"/>
</svg>
